<svg xmlns="http://www.w3.org/2000/svg" xmlns:xlink="http://www.w3.org/1999/xlink" width="321.728" height="269.396" viewBox="0 0 321.728 269.396">
  <defs>
    <clipPath id="clip-path">
      <rect id="Rectángulo_291369" data-name="Rectángulo 291369" width="263.007" height="269.396" fill="#fff"/>
    </clipPath>
    <clipPath id="clip-path-2">
      <rect id="Rectángulo_334434" data-name="Rectángulo 334434" width="127.842" height="186.715" fill="none"/>
    </clipPath>
    <clipPath id="clip-path-4">
      <rect id="Rectángulo_334431" data-name="Rectángulo 334431" width="23.03" height="17.597" fill="none"/>
    </clipPath>
    <clipPath id="clip-path-5">
      <rect id="Rectángulo_334432" data-name="Rectángulo 334432" width="2.789" height="56.528" fill="none"/>
    </clipPath>
    <clipPath id="clip-path-6">
      <rect id="Rectángulo_334437" data-name="Rectángulo 334437" width="141.457" height="188.272" fill="none"/>
    </clipPath>
    <clipPath id="clip-path-8">
      <rect id="Rectángulo_334435" data-name="Rectángulo 334435" width="3.106" height="50.071" fill="none"/>
    </clipPath>
    <clipPath id="clip-path-9">
      <rect id="Rectángulo_334430" data-name="Rectángulo 334430" width="137.189" height="185.524" fill="none"/>
    </clipPath>
    <clipPath id="clip-path-11">
      <rect id="Rectángulo_334428" data-name="Rectángulo 334428" width="66.469" height="50.455" fill="none"/>
    </clipPath>
    <clipPath id="clip-path-12">
      <rect id="Rectángulo_334441" data-name="Rectángulo 334441" width="40.496" height="40.09" fill="none"/>
    </clipPath>
    <clipPath id="clip-path-14">
      <rect id="Rectángulo_334438" data-name="Rectángulo 334438" width="5.226" height="8.811" fill="none"/>
    </clipPath>
    <clipPath id="clip-path-15">
      <rect id="Rectángulo_334439" data-name="Rectángulo 334439" width="1.986" height="0.955" fill="none"/>
    </clipPath>
    <clipPath id="clip-path-16">
      <rect id="Rectángulo_334442" data-name="Rectángulo 334442" width="53.696" height="53.157" fill="none"/>
    </clipPath>
    <clipPath id="clip-path-17">
      <rect id="Rectángulo_334443" data-name="Rectángulo 334443" width="48.983" height="42.998" fill="none"/>
    </clipPath>
  </defs>
  <g id="Grupo_886794" data-name="Grupo 886794" transform="translate(-994 -1779.639)">
    <g id="Grupo_870717" data-name="Grupo 870717" transform="translate(1021 1779.639)">
      <g id="Grupo_870714" data-name="Grupo 870714" clip-path="url(#clip-path)">
        <path id="Trazado_215321" data-name="Trazado 215321" d="M20.023,131.069C52.9,104.227-4.03,60.911,8.574,18.069s54.2,1.2,76.578,22.311S133.76,23.724,151.146,22.71s7.6,15.491,15.444,36.87,65.644,3.624,88.818,24.274-13.745,64.593-16.853,90.8S275.36,230.5,249.788,269.4l-127.04-.769c-12.783-4.024-21.122-7.213-21.122-7.213-118.932-52.6-114.474-103.5-81.6-130.345" transform="translate(0 0)" fill="#fff"/>
      </g>
    </g>
    <path id="Trazado_215326" data-name="Trazado 215326" d="M231.347,583.768c0,4.059-45.727,7.35-102.134,7.35S27.08,587.827,27.08,583.768s45.753-4.533,102.16-4.533,102.107.473,102.107,4.533" transform="translate(1022.92 1457.916)" fill="#fcc15a" opacity="0.31"/>
    <g id="Grupo_886770" data-name="Grupo 886770" transform="translate(1082.158 1855.188)">
      <g id="Grupo_886769" data-name="Grupo 886769" clip-path="url(#clip-path-2)">
        <g id="Grupo_886768" data-name="Grupo 886768">
          <g id="Grupo_886767" data-name="Grupo 886767" clip-path="url(#clip-path-2)">
            <path id="Trazado_601805" data-name="Trazado 601805" d="M106.968,4.031a4.977,4.977,0,0,0-5.1-2.6,6.838,6.838,0,0,0-8.352-.013,6.21,6.21,0,0,0-5.946-.235,6.087,6.087,0,0,0-3.256,4.928,5.2,5.2,0,0,0-5.32,2.523,5.084,5.084,0,0,0,.743,5.792,4.961,4.961,0,0,0-3.354,5.508,5.011,5.011,0,0,0,5.2,3.857L105.947,9.618a4.871,4.871,0,0,0,1.021-5.587" transform="translate(-33.931 0)" fill="#263238"/>
            <path id="Trazado_601806" data-name="Trazado 601806" d="M82.89,29.378a20.482,20.482,0,0,1,20.877-18.285l1.065.022c11.462.9,17.1,11.032,15.872,22.346l-2.449,37.783-1.672,4.724L96.835,100.453,91.858,78.394l-.095-10.242s-11-1.922-10.906-12.84c.044-5.273,1.027-16.124,2.033-25.935" transform="translate(-35.956 -4.931)" fill="#ffc09d"/>
            <path id="Trazado_601807" data-name="Trazado 601807" d="M100.522,110.736a26.95,26.95,0,0,0,14.436-3.925s-3.543,7.807-14.424,6.633Z" transform="translate(-44.701 -47.498)" fill="#ff9b6c"/>
            <path id="Trazado_601808" data-name="Trazado 601808" d="M89.158,60.561a1.565,1.565,0,0,0,1.486,1.6A1.5,1.5,0,0,0,92.3,60.792a1.567,1.567,0,0,0-1.484-1.6,1.5,1.5,0,0,0-1.655,1.373" transform="translate(-39.647 -26.318)" fill="#263238"/>
            <path id="Trazado_601809" data-name="Trazado 601809" d="M88.326,53.46c.191.207,1.4-.642,3.1-.6,1.694.015,2.92.9,3.107.7.092-.089-.1-.46-.632-.861a4.35,4.35,0,0,0-2.483-.814,4.184,4.184,0,0,0-2.471.734c-.53.385-.714.75-.619.842" transform="translate(-39.267 -23.072)" fill="#263238"/>
            <path id="Trazado_601810" data-name="Trazado 601810" d="M116.488,62.077a1.565,1.565,0,0,0,1.486,1.6,1.5,1.5,0,0,0,1.653-1.372,1.567,1.567,0,0,0-1.485-1.6,1.5,1.5,0,0,0-1.654,1.374" transform="translate(-51.8 -26.992)" fill="#263238"/>
            <path id="Trazado_601811" data-name="Trazado 601811" d="M117.537,53.635c.192.208,1.4-.641,3.1-.6,1.693.016,2.92.9,3.108.7.092-.088-.1-.459-.633-.861a4.359,4.359,0,0,0-2.482-.812,4.177,4.177,0,0,0-2.471.734c-.528.384-.713.749-.62.841" transform="translate(-52.258 -23.15)" fill="#263238"/>
            <path id="Trazado_601812" data-name="Trazado 601812" d="M103.6,65.9a11.3,11.3,0,0,0-2.743-.548c-.432-.053-.84-.146-.907-.44a2.167,2.167,0,0,1,.315-1.264q.643-1.541,1.348-3.235c1.875-4.607,3.241-8.4,3.053-8.472s-1.86,3.6-3.734,8.21q-.678,1.7-1.295,3.256a2.458,2.458,0,0,0-.259,1.676,1.081,1.081,0,0,0,.7.641,2.951,2.951,0,0,0,.733.116,11.169,11.169,0,0,0,2.79.061" transform="translate(-44.16 -23.097)" fill="#263238"/>
            <path id="Trazado_601813" data-name="Trazado 601813" d="M117.685,45.02c.193.439,1.66.078,3.433.143,1.775.025,3.243.461,3.435.031.084-.205-.2-.608-.819-.992a5.334,5.334,0,0,0-2.618-.74,5.138,5.138,0,0,0-2.615.608c-.614.353-.9.741-.816.95" transform="translate(-52.327 -19.327)" fill="#263238"/>
            <path id="Trazado_601814" data-name="Trazado 601814" d="M89.186,45.29c.257.409,1.46.134,2.859.258,1.4.076,2.554.518,2.867.149.139-.18-.007-.579-.486-.991a4.193,4.193,0,0,0-4.614-.328c-.534.339-.737.713-.625.911" transform="translate(-39.647 -19.495)" fill="#263238"/>
            <path id="Trazado_601815" data-name="Trazado 601815" d="M86.611,23.308s3.051-6.776,6.415-8.3c4.073-1.849,5.717,2.566,9.582,1.582s7.753-2.76,11.619.26c4.231,3.305,2.171,5.521,2.335,10.369.668,19.658,4.176,25.285,5.4,16.057.134-1.011,2.993-1.759,3.5-6.031.662-5.54,1.017-12.277-.152-16.242-.986-3.342-2.852-5.675-6.23-8.275-5.333-4.1-12.77-4.34-17.833-3.94S86.329,14.74,86.611,23.308" transform="translate(-38.513 -3.846)" fill="#263238"/>
            <path id="Trazado_601816" data-name="Trazado 601816" d="M148.626,68.193a2.985,2.985,0,0,1,3.292-2.789c2.054.235,4.319,1.438,4.095,5.642-.4,7.457-7.88,5.525-7.882,5.31,0-.145.3-5.044.5-8.164" transform="translate(-65.873 -29.076)" fill="#ffc09d"/>
            <path id="Trazado_601817" data-name="Trazado 601817" d="M151.346,75.577c.034-.022.127.1.343.21a1.323,1.323,0,0,0,.98.071,3.215,3.215,0,0,0,1.656-2.806,4.26,4.26,0,0,0-.269-1.879,1.509,1.509,0,0,0-.935-1.049.671.671,0,0,0-.794.316c-.112.2-.072.354-.113.365-.022.018-.155-.134-.078-.439a.831.831,0,0,1,.322-.451,1,1,0,0,1,.736-.152,1.84,1.84,0,0,1,1.31,1.228,4.373,4.373,0,0,1,.345,2.1c-.128,1.5-.98,2.866-2.086,3.121a1.42,1.42,0,0,1-1.19-.259c-.224-.2-.254-.365-.228-.378" transform="translate(-67.299 -31.017)" fill="#ff9b6c"/>
            <path id="Trazado_601818" data-name="Trazado 601818" d="M125.672,26.459a7.2,7.2,0,0,1-3.225,1.394,2.46,2.46,0,0,1-2.693-1.768c-.079-.521.062-1.121-.275-1.529-.4-.488-1.164-.353-1.8-.3a4.81,4.81,0,0,1-4.925-3.517,2.037,2.037,0,0,1-2.716.2,10.766,10.766,0,0,1-2.008-2.216,3.112,3.112,0,0,0-2.562-1.334,7.517,7.517,0,0,1-1.648.324c-.989-.107-1.448-1.265-1.578-2.241s-.223-2.113-1.051-2.659c-.767-.506-1.78-.243-2.694-.129s-2.087-.121-2.3-1.008a1.761,1.761,0,0,1,.366-1.347,4.915,4.915,0,0,1,5.8-1.712,6.647,6.647,0,0,1,12.189-1.021A6.888,6.888,0,0,1,120.6,6.159a6.812,6.812,0,0,1,4.648,4.078,5.017,5.017,0,0,1,5.052,1.812,4.9,4.9,0,0,1,.293,5.309,4.578,4.578,0,0,1,2.468,3.7c0,1.545-1.557,3.053-3.055,2.615a2.753,2.753,0,0,1-1.137,3.485,2.815,2.815,0,0,1-3.583-.918" transform="translate(-42.765 -1.803)" fill="#263238"/>
            <path id="Trazado_601819" data-name="Trazado 601819" d="M149.214,39.369a1.775,1.775,0,0,1-.5,1.425,2.429,2.429,0,0,1-1.53.861,2.629,2.629,0,0,1-2.137-.662l.32-.041a7.467,7.467,0,0,1-1.544,1.83,4.347,4.347,0,0,1-1.392.817,3.372,3.372,0,0,1-3.671-1.171,4.285,4.285,0,0,1-.578-1.565,1.448,1.448,0,0,1-.046-.6c.033-.006.092.2.21.564a5,5,0,0,0,.667,1.434,3.1,3.1,0,0,0,4.53.2,7.508,7.508,0,0,0,1.472-1.715l.137-.217.183.177a2.308,2.308,0,0,0,1.806.61,2.232,2.232,0,0,0,1.38-.684,3.614,3.614,0,0,0,.693-1.256" transform="translate(-61.422 -17.507)" fill="#455a64"/>
            <path id="Trazado_601820" data-name="Trazado 601820" d="M116.87,5.77c0,.026-.2.048-.538.183a2.585,2.585,0,0,0-1.192.961l-.093.14-.1-.14a9.359,9.359,0,0,0-3.585-3,7.394,7.394,0,0,0-2.956-.705,6.267,6.267,0,0,0-5.15,2.583,5.019,5.019,0,0,0-.876,2.233l-.029.235-.227-.067a4.272,4.272,0,0,0-3.142.314,4.1,4.1,0,0,0-1.753,1.783,5.512,5.512,0,0,0-.516,2.2,1.491,1.491,0,0,1-.079-.612,4.115,4.115,0,0,1,.375-1.692A4.263,4.263,0,0,1,98.82,8.219a4.572,4.572,0,0,1,3.416-.4l-.255.169a5.352,5.352,0,0,1,.925-2.431,6.6,6.6,0,0,1,5.51-2.758,7.627,7.627,0,0,1,3.11.782,9.137,9.137,0,0,1,3.616,3.2h-.194a2.565,2.565,0,0,1,1.345-.947,1.151,1.151,0,0,1,.579-.066" transform="translate(-42.972 -1.242)" fill="#455a64"/>
            <path id="Trazado_601821" data-name="Trazado 601821" d="M110.433,81.81s2.176,4.5-2.483,5.575a2.272,2.272,0,0,1-2.685-1.623l-.642-2.447c.219.059,5.811-1.5,5.811-1.5" transform="translate(-46.525 -36.38)" fill="#ff9b6c"/>
            <path id="Trazado_601822" data-name="Trazado 601822" d="M105.71,87.233c.007-.025.218.031.6.056a4.036,4.036,0,0,0,1.6-.239,3.494,3.494,0,0,0,2.219-4.258,3.385,3.385,0,0,0-.476-1.053l.156.057c-1.8.456-3.39.847-4.531,1.113l-1.346.3a1.834,1.834,0,0,1-.5.074,1.877,1.877,0,0,1,.473-.174l1.325-.385c1.127-.315,2.705-.739,4.5-1.206l.1-.026.057.082a3.6,3.6,0,0,1,.521,1.142,3.844,3.844,0,0,1-.445,3.013A3.808,3.808,0,0,1,106.3,87.4a1.587,1.587,0,0,1-.593-.168" transform="translate(-45.997 -36.24)" fill="#263238"/>
            <path id="Trazado_601823" data-name="Trazado 601823" d="M26.6,142.437s-7.892,4.226-9.5,15.293c-1.38,9.506-9.69,60.473-9.69,60.473L0,249.575H19.2L29.65,193.9Z" transform="translate(0 -63.341)" fill="#deae30"/>
            <path id="Trazado_601824" data-name="Trazado 601824" d="M58.046,238.093l10.8-97.759,9.417-21.553,3.151-2.182,2.277,9.6,3.046,10.851,8.33-10.467,13.154-10.2.3,5.032,6.317,18.466-5.237,48.19v49.919Z" transform="translate(-25.813 -51.754)" fill="#fff"/>
            <path id="Trazado_601825" data-name="Trazado 601825" d="M100.515,254.9a1.291,1.291,0,0,0,.026-.259c.009-.191.022-.443.038-.762.026-.693.062-1.676.108-2.93.087-2.568.213-6.244.367-10.777.319-9.1.824-21.668,1.548-35.541s1.536-26.431,2.168-35.515c.319-4.524.578-8.193.759-10.756.085-1.252.152-2.233.2-2.925.018-.318.032-.57.042-.761a1.305,1.305,0,0,0,0-.26,1.273,1.273,0,0,0-.041.257c-.02.19-.046.441-.08.759-.064.691-.154,1.67-.27,2.92-.228,2.537-.531,6.209-.88,10.749-.7,9.08-1.553,21.634-2.28,35.514s-1.187,26.449-1.437,35.552c-.126,4.551-.208,8.235-.245,10.782-.016,1.255-.028,2.238-.036,2.932v.762a1.3,1.3,0,0,0,.013.26" transform="translate(-44.692 -68.666)" fill="#263238"/>
            <path id="Trazado_601826" data-name="Trazado 601826" d="M160.95,186.364l15.124-46.817-26.76-14.383-5.59-6.052s-1.189,25.115-1.375,31.768-3.116,31.868-4.424,47.2c-.7,8.194-.249,21.88.16,29.594.47,8.849.374,11.774.374,11.774l26.181-.145-8.66-34.474Z" transform="translate(-61.172 -52.968)" fill="#deae30"/>
            <path id="Trazado_601827" data-name="Trazado 601827" d="M58.238,124.828l-18.244,7.015-2.83,67.836-7.045,39.406,20.12.376c.187-4.8,5.306-44.827,5.306-44.827l6.722-62.638,5.248-13.383Z" transform="translate(-13.394 -52.746)" fill="#deae30"/>
            <path id="Trazado_601828" data-name="Trazado 601828" d="M77.168,129.134a3.027,3.027,0,0,0-.335.373l-.922,1.119-3.426,4.245-.073.091.095.072,2.9,2.181.041-.237-3.407,1.067-.107.033v.113c.065,6.009.146,13.574.235,21.775.147,10.011.281,19.07.378,25.665.066,3.26.12,5.909.158,7.777.027.895.048,1.6.063,2.114.011.223.019.4.026.55a.688.688,0,0,0,.022.187.7.7,0,0,0,.017-.188c0-.146.007-.327.012-.55,0-.514.006-1.221.009-2.115-.009-1.868-.021-4.517-.037-7.778-.068-6.595-.162-15.655-.266-25.666-.118-8.2-.226-15.766-.312-21.775l-.106.146,3.4-1.1.253-.082L75.574,137l-2.929-2.147.022.162,3.341-4.311.875-1.156a2.991,2.991,0,0,0,.285-.411" transform="translate(-31.989 -57.425)" fill="#263238"/>
            <path id="Trazado_601829" data-name="Trazado 601829" d="M141.156,192.351a.781.781,0,0,0,.072-.18c.047-.142.1-.319.178-.539l.679-2.071c.6-1.8,1.481-4.388,2.616-7.577l1.882-5.207a62.209,62.209,0,0,0,1.914-6.073,136,136,0,0,0,2.675-14.316c.924-6.661,1.522-12.941,1.886-18.344l.005-.077-.056-.053-2.935-2.8-.014.229,2.783-2.1.109-.082-.081-.108-5.026-6.743-1.383-1.821-.368-.468a.773.773,0,0,0-.136-.152.823.823,0,0,0,.1.175l.336.49,1.323,1.865,4.926,6.814.029-.189-2.8,2.071-.143.106.128.124,2.916,2.821-.051-.129c-.395,5.389-1.01,11.664-1.932,18.313a141.389,141.389,0,0,1-2.638,14.283q-.839,3.245-1.871,6.052l-1.839,5.225c-1.1,3.2-1.95,5.809-2.5,7.62-.277.906-.48,1.613-.611,2.094l-.141.55a.679.679,0,0,0-.034.191" transform="translate(-62.77 -55.087)" fill="#263238"/>
            <g id="Grupo_886763" data-name="Grupo 886763" transform="translate(76.748 162.75)" opacity="0.3">
              <g id="Grupo_886762" data-name="Grupo 886762">
                <g id="Grupo_886761" data-name="Grupo 886761" clip-path="url(#clip-path-4)">
                  <path id="Trazado_601830" data-name="Trazado 601830" d="M161.238,302.324l-14.491,5.624-.966-3.2-7.178,5.925-.394-8.838,6.309-8.759,15.66,5.021Z" transform="translate(-138.208 -293.08)"/>
                </g>
              </g>
            </g>
            <path id="Trazado_601831" data-name="Trazado 601831" d="M187.75,226.009a5.452,5.452,0,0,0,2.594-4.443,49.277,49.277,0,0,0-.441-7.57c-1.035-8.533-12.481-58.083-12.481-58.083l-16.864,38.614,4.874,16.811-24.839,11.769,6.915,19.313s33-11.951,40.243-16.412" transform="translate(-62.52 -69.333)" fill="#deae30"/>
            <path id="Trazado_601832" data-name="Trazado 601832" d="M186.466,176.478a2.1,2.1,0,0,0-.158.433l-.38,1.261-1.333,4.655c-1.108,3.935-2.629,9.374-4.174,15.419s-2.767,11.565-3.536,15.58c-.386,2.007-.676,3.636-.851,4.766-.081.533-.146.964-.2,1.3a2.02,2.02,0,0,0-.043.458,2.124,2.124,0,0,0,.119-.445l.268-1.288c.239-1.166.568-2.773.97-4.739.837-4,2.1-9.5,3.643-15.54s3.022-11.489,4.064-15.441c.5-1.943.916-3.532,1.215-4.686l.31-1.279a2.07,2.07,0,0,0,.083-.453" transform="translate(-78.172 -78.478)" fill="#263238"/>
            <path id="Trazado_601833" data-name="Trazado 601833" d="M179.336,273.776a.674.674,0,0,0-.162.046l-.464.164-1.789.664-6.675,2.537-22.994,8.864.24.109L142.861,273.2l-2.278-6.357-.1.232,24.551-11.729-.017.007a14.692,14.692,0,0,1,5.8-.656,14.538,14.538,0,0,1,4.291,1.079,18.238,18.238,0,0,1,2.491,1.3l.614.4a1.218,1.218,0,0,0,.217.127,1.244,1.244,0,0,0-.194-.158l-.594-.432a16.444,16.444,0,0,0-2.474-1.368,14.423,14.423,0,0,0-4.33-1.154,14.8,14.8,0,0,0-5.9.612l-.009,0-.009,0-24.6,11.633-.154.073.057.159,2.274,6.358,4.647,12.953.063.178.177-.069,22.945-8.99,6.635-2.636,1.767-.719.453-.193a.663.663,0,0,0,.15-.076" transform="translate(-62.332 -113.133)" fill="#263238"/>
            <path id="Trazado_601834" data-name="Trazado 601834" d="M110.261,142.717a5.151,5.151,0,0,0,.7-.626l1.852-1.822,6.254-6.322-.272-.009a7.6,7.6,0,0,1,1.613,3.4,7.5,7.5,0,0,1,.154,1.986l-.025.428.333-.267c3.163-2.537,5.726-5.026,7.643-6.725.951-.857,1.722-1.539,2.258-2a7.226,7.226,0,0,0,.812-.741,6.036,6.036,0,0,0-.9.635c-.565.431-1.363,1.085-2.338,1.919-1.964,1.65-4.565,4.111-7.71,6.618l.307.16a7.751,7.751,0,0,0-.158-2.088,7.871,7.871,0,0,0-1.709-3.562l-.133-.153-.138.144-6.159,6.417L110.87,142a5.177,5.177,0,0,0-.609.716" transform="translate(-49.032 -57.815)" fill="#263238"/>
            <path id="Trazado_601835" data-name="Trazado 601835" d="M95.169,127.992a2.115,2.115,0,0,0-.031.583c0,.378.023.93.077,1.623a33.726,33.726,0,0,0,.927,5.58l.116.458.219-.421A13.632,13.632,0,0,1,98.9,132.5c.277-.278.563-.541.841-.779l-.31-.1a51.287,51.287,0,0,0,2.262,7.391c.358.91.673,1.631.9,2.123a3.648,3.648,0,0,0,.395.744,3.943,3.943,0,0,0-.265-.8l-.791-2.157a63.545,63.545,0,0,1-2.132-7.385l-.069-.308-.242.2c-.287.243-.582.514-.867.8a13.5,13.5,0,0,0-2.471,3.415l.335.036a40.942,40.942,0,0,1-1.055-5.514c-.168-1.373-.22-2.186-.267-2.184" transform="translate(-42.307 -56.917)" fill="#263238"/>
            <g id="Grupo_886766" data-name="Grupo 886766" transform="translate(38.021 80.763)" opacity="0.3">
              <g id="Grupo_886765" data-name="Grupo 886765">
                <g id="Grupo_886764" data-name="Grupo 886764" clip-path="url(#clip-path-5)">
                  <path id="Trazado_601836" data-name="Trazado 601836" d="M70.548,145.438l-2.079,2.837s.58,43.011,2.789,53.691Z" transform="translate(-68.469 -145.438)"/>
                </g>
              </g>
            </g>
            <path id="Trazado_601837" data-name="Trazado 601837" d="M30.117,262.908a1.235,1.235,0,0,1,.026-.205l.1-.6c.1-.541.24-1.315.42-2.307.381-2.02.928-4.926,1.608-8.533l5.493-28.614,0,.029c-.017-1.517-.035-3.125-.053-4.754-.123-12.625-.234-24.054-.315-32.343-.026-4.127-.047-7.472-.062-9.8,0-1.146,0-2.041,0-2.665,0-.294,0-.523.007-.693a1.448,1.448,0,0,1,.012-.236,1.473,1.473,0,0,1,.017.237c.006.169.013.4.022.693.013.624.032,1.519.056,2.664.037,2.329.089,5.674.154,9.8.1,8.288.243,19.715.4,32.34.017,1.628.034,3.236.051,4.753v.015l0,.014c-2.208,11.308-4.17,21.358-5.584,28.6-.716,3.6-1.293,6.5-1.694,8.516l-.471,2.3-.129.595a1.21,1.21,0,0,1-.053.2" transform="translate(-13.392 -76.569)" fill="#263238"/>
            <path id="Trazado_601838" data-name="Trazado 601838" d="M29.265,260c-.009.086-1.445-.038-3.207.088s-3.169.435-3.19.351a9.351,9.351,0,0,1,3.17-.64,9.352,9.352,0,0,1,3.227.2" transform="translate(-10.169 -115.514)" fill="#263238"/>
            <path id="Trazado_601839" data-name="Trazado 601839" d="M113.039,279.239s-14,2.923-16.086,3.378-10.3,6.627-11.117,7.083-3.19,1.964-3.19,1.964a3.715,3.715,0,0,0,4.246,1.6,14.6,14.6,0,0,0,4.505-2.467l-5.792,5.283-6.593,4.028a1.946,1.946,0,0,0-.825,2.386,1.143,1.143,0,0,0,1.381.731,79.442,79.442,0,0,0,7.953-2.7s.285,3.669,3.634,4.125c0,0,.72,3.152,3.633,2.48,0,0,2.865,2.346,5.4,1.006s9.124-4.034,10.481-6.766a40.539,40.539,0,0,1,3.077-5.1l5.073-.88Z" transform="translate(-34.707 -124.175)" fill="#ffc09d"/>
            <path id="Trazado_601840" data-name="Trazado 601840" d="M95.111,314.179a16.614,16.614,0,0,0,3.843-1.738,12.131,12.131,0,0,0,3.425-2.476c-.074-.093-1.605.986-3.633,2.1a27.332,27.332,0,0,0-3.634,2.116" transform="translate(-42.294 -137.837)" fill="#ff9b6c"/>
            <path id="Trazado_601841" data-name="Trazado 601841" d="M108.464,316.577a17.382,17.382,0,0,0-3.789,2.26,35.436,35.436,0,0,0-3.565,2.587,16.658,16.658,0,0,0,3.808-2.23,32.632,32.632,0,0,0,3.546-2.617" transform="translate(-44.962 -140.775)" fill="#ff9b6c"/>
            <path id="Trazado_601842" data-name="Trazado 601842" d="M114.232,321.65c-.08-.078-1.349.989-3.054,2.141a17.007,17.007,0,0,0-2.981,2.265,15.788,15.788,0,0,0,3.225-1.909,9.826,9.826,0,0,0,2.809-2.5" transform="translate(-48.113 -143.033)" fill="#ff9b6c"/>
            <path id="Trazado_601843" data-name="Trazado 601843" d="M109.63,289.57a3.687,3.687,0,0,0-1.468.319A11.218,11.218,0,0,0,105,291.67a14.885,14.885,0,0,0-2.543,2.593,4.346,4.346,0,0,0-.8,1.276c.115.093,1.434-1.8,3.608-3.527a19.811,19.811,0,0,1,4.37-2.441" transform="translate(-45.202 -128.763)" fill="#ff9b6c"/>
          </g>
        </g>
      </g>
    </g>
    <g id="Grupo_886777" data-name="Grupo 886777" transform="translate(1161 1855.6)">
      <g id="Grupo_886776" data-name="Grupo 886776" clip-path="url(#clip-path-6)">
        <g id="Grupo_886775" data-name="Grupo 886775">
          <g id="Grupo_886774" data-name="Grupo 886774" clip-path="url(#clip-path-6)">
            <path id="Trazado_601844" data-name="Trazado 601844" d="M60.509,167.684c.081.671-6.055,17.338-6.055,17.338l-8.564-31.086-11.844,2.478s3.211,42.956,5.288,48.764c2.218,6.2,15.184,10.835,22.432,2.431,2.074-2.4,8.695-17.755,8.695-17.755Z" transform="translate(-14.118 -63.832)" fill="#a26760"/>
            <path id="Trazado_601845" data-name="Trazado 601845" d="M31.772,138.671s1.439-3.853.3-7.187-5.009-5.917-4.768-7.918-1.814-6.8-3.667-6.422-3.222,2.186-1.655,5.268a39.638,39.638,0,0,1,2.473,6.267S5.166,118.737,3.59,118.521s-3.151-.431-3.559.811,3.442,2.835,3.442,2.835l5.177,6.676a29.076,29.076,0,0,0,3.6,7.177c2.227,2.979,6.609,4.973,6.609,4.973l5.624,6.7s8.528-2.883,7.29-9.021" transform="translate(0 -48.567)" fill="#a26760"/>
            <path id="Trazado_601846" data-name="Trazado 601846" d="M6.487,125.628c.032.028.171-.113.474-.256a2.331,2.331,0,0,1,1.37-.166,7.7,7.7,0,0,1,3.883,2.61,20.2,20.2,0,0,1,2.605,4.06,8.593,8.593,0,0,0,1,1.771,7.175,7.175,0,0,0-.664-1.927,15.9,15.9,0,0,0-2.544-4.248,7.334,7.334,0,0,0-4.235-2.634,2.292,2.292,0,0,0-1.523.358c-.306.219-.393.415-.369.432" transform="translate(-2.689 -51.761)" fill="#7b4b45"/>
            <path id="Trazado_601847" data-name="Trazado 601847" d="M18.565,130.453a10.825,10.825,0,0,0,2.777,1.876,10.881,10.881,0,0,0,3.04,1.421,10.833,10.833,0,0,0-2.777-1.876,10.873,10.873,0,0,0-3.04-1.421" transform="translate(-7.697 -54.088)" fill="#7b4b45"/>
            <path id="Trazado_601848" data-name="Trazado 601848" d="M31.908,137.568a4.053,4.053,0,0,0-3.243-.03A4,4,0,0,0,26.1,139.5a17.274,17.274,0,0,1,2.736-1.464,17.331,17.331,0,0,1,3.074-.467" transform="translate(-10.817 -56.913)" fill="#7b4b45"/>
            <path id="Trazado_601849" data-name="Trazado 601849" d="M108.167,124.761l6.683-2.888,22.994.6,8.63,3.628,1.743,22.079s-32.7,11.636-32.83,11.636-19.463-18.971-19.463-18.971Z" transform="translate(-39.777 -50.537)" fill="#a26760"/>
            <path id="Trazado_601850" data-name="Trazado 601850" d="M98.416,146.717a48.086,48.086,0,0,0,5.452,1.377,51.86,51.86,0,0,0,28.318-1.614l8.861-3.078s14.6,29.265,14.9,30.276-12.727,74.057-12.727,74.057H91.158l1.271-41.981s-.876-38.579-.73-39.012,6.717-20.027,6.717-20.027" transform="translate(-37.8 -59.465)" fill="#263238"/>
            <path id="Trazado_601851" data-name="Trazado 601851" d="M90.31,117.221l-6.757,4.771c-5.2,1.65-14.435,4.8-17.238,7.579-4.234,4.19-9.785,32.351-9.785,32.351s-.972-2.417-3.18-2.417l-15.128,23.74s1.534,12.4,5.184,13.7,13.69.586,13.837.586h6.278L61.2,236.828l12.2.051.486-43.68,2.276-27.227,6.3-25.355Z" transform="translate(-15.849 -48.608)" fill="#92bfb1"/>
            <path id="Trazado_601852" data-name="Trazado 601852" d="M82.774,166.814a3.076,3.076,0,0,1,.047.531q.025.57.068,1.524c.054,1.323.106,3.24.148,5.609.084,4.737.086,11.284-.129,18.511s-.615,13.765-.983,18.489c-.183,2.362-.35,4.272-.484,5.59l-.16,1.517a3.106,3.106,0,0,1-.079.527,3.086,3.086,0,0,1,.01-.533c.023-.38.055-.886.095-1.522.091-1.356.218-3.259.375-5.6.306-4.725.662-11.259.881-18.482s.252-13.763.23-18.5c-.016-2.342-.029-4.249-.037-5.608,0-.637,0-1.145,0-1.525a3.1,3.1,0,0,1,.022-.533" transform="translate(-33.669 -69.172)" fill="#263238"/>
            <path id="Trazado_601853" data-name="Trazado 601853" d="M82.507,158.657a16.6,16.6,0,0,1-.954-3.241,16.563,16.563,0,0,1-.618-3.321,16.7,16.7,0,0,1,.954,3.242,16.605,16.605,0,0,1,.618,3.32" transform="translate(-33.554 -63.069)" fill="#263238"/>
            <g id="Grupo_886773" data-name="Grupo 886773" transform="translate(46.391 98.856)" opacity="0.3">
              <g id="Grupo_886772" data-name="Grupo 886772">
                <g id="Grupo_886771" data-name="Grupo 886771" clip-path="url(#clip-path-8)">
                  <path id="Trazado_601854" data-name="Trazado 601854" d="M82.024,168.888q-.1.464-.189.928c-3.071,15.334-3.261,33.631-1.3,49.143.586.078,2.7-47.705,1.423-49.762" transform="translate(-79.256 -168.888)"/>
                </g>
              </g>
            </g>
            <path id="Trazado_601855" data-name="Trazado 601855" d="M214.549,150.505a17.447,17.447,0,0,0-4.967-8.9l-15.195,19.747L200.1,246.94h21.958l-2.513-43.451s-3.515-46.957-5-52.984" transform="translate(-80.606 -58.72)" fill="#92bfb1"/>
            <path id="Trazado_601856" data-name="Trazado 601856" d="M191.22,133.385l2.978-3.737a44.857,44.857,0,0,0-14.814-9.587c-4.285-1.62-10.843-4.578-10.843-4.578l-4.711-5.808-1.141,16.773s-.832,37.057-1.419,43.772c-.561,6.43-7.343,35.845-7.255,63.531l32.863-.053-7.308-43.053s2.988-27.44,3.174-28.335,8.475-28.925,8.475-28.925" transform="translate(-63.865 -45.478)" fill="#92bfb1"/>
            <path id="Trazado_601857" data-name="Trazado 601857" d="M212.623,149.786c.073.061-2.308,2.926-5.317,6.4s-5.507,6.237-5.58,6.175,2.308-2.925,5.318-6.4,5.506-6.236,5.579-6.175" transform="translate(-83.649 -62.111)" fill="#263238"/>
            <path id="Trazado_601858" data-name="Trazado 601858" d="M102.589,149.808a1.132,1.132,0,0,1-.053-.289c-.025-.222-.057-.5-.1-.84-.076-.776-.18-1.84-.31-3.162l.181.06a48.533,48.533,0,0,0-5.688,8.009l-.365.644.061-.736a47.5,47.5,0,0,1,6.841-21.225c.973-1.685,1.824-3.01,2.418-3.921l.7-1.039a2.052,2.052,0,0,1,.264-.349,2.092,2.092,0,0,1-.2.386l-.644,1.073c-.558.932-1.376,2.273-2.319,3.969a52.92,52.92,0,0,0-5.617,13.982,52.272,52.272,0,0,0-1.113,7.151l-.3-.092a45.515,45.515,0,0,1,5.816-7.987l.165-.181.016.241c.089,1.325.161,2.392.214,3.17.017.342.031.621.043.845a1.122,1.122,0,0,1,0,.293" transform="translate(-39.916 -52.646)" fill="#263238"/>
            <path id="Trazado_601859" data-name="Trazado 601859" d="M59.979,225.748a1.535,1.535,0,0,1,.128-.326c.109-.237.248-.537.418-.907.188-.39.414-.87.65-1.438s.536-1.2.8-1.927c.284-.72.594-1.509.88-2.373.313-.855.584-1.788.884-2.766a60.687,60.687,0,0,0,1.468-6.485,60.931,60.931,0,0,0,.68-6.615c.027-1.023.069-1.994.044-2.9,0-.91-.036-1.757-.077-2.53-.023-.774-.1-1.47-.148-2.083s-.1-1.14-.158-1.57c-.044-.4-.08-.732-.108-.992a1.516,1.516,0,0,1-.017-.349,1.485,1.485,0,0,1,.078.34c.043.258.1.585.164.986.073.428.15.954.21,1.568s.157,1.311.194,2.088c.054.775.108,1.625.115,2.539.036.914,0,1.891-.017,2.918a52.526,52.526,0,0,1-2.159,13.168c-.308.981-.59,1.916-.915,2.771-.3.865-.62,1.653-.918,2.371-.282.724-.594,1.355-.849,1.916s-.493,1.037-.7,1.42l-.471.883a1.487,1.487,0,0,1-.182.3" transform="translate(-24.871 -79.816)" fill="#263238"/>
            <path id="Trazado_601860" data-name="Trazado 601860" d="M173.914,119.6a2.867,2.867,0,0,1,.035.483q.014.517.038,1.386c.019,1.235.046,2.97.079,5.1.048,4.306.1,10.255.068,16.827-.016,1.473-.032,2.914-.047,4.312-.014.7-.029,1.387-.063,2.065-.009.17-.019.338-.037.511l-.019.135a.667.667,0,0,1-.021.084.308.308,0,0,1-.022.044l-.007.011a.168.168,0,0,1-.041.037.161.161,0,0,1-.088.026.5.5,0,0,1-.075-.018,1.055,1.055,0,0,1-.248-.177c-.253-.229-.479-.467-.7-.7-1.77-1.908-3.3-3.717-4.621-5.274l.2-.058c-.4,2.54-.734,4.614-.968,6.086-.118.7-.212,1.251-.281,1.659l-.082.431a.516.516,0,0,1-.039.145.488.488,0,0,1,.005-.15c.013-.119.029-.262.049-.437q.082-.616.22-1.669l.867-6.1.036-.251.167.193c1.34,1.539,2.883,3.34,4.652,5.228.222.232.451.469.688.683a1.671,1.671,0,0,0,.151.119c0-.025-.025.045-.018.107s-.063-.035-.119-.03l.008-.038.015-.114c.016-.16.026-.327.034-.495.032-.67.045-1.358.057-2.056.013-1.4.028-2.837.042-4.308.008-6.556.016-12.49.021-16.824.008-2.129.013-3.865.018-5.1.008-.581.014-1.043.019-1.388a2.9,2.9,0,0,1,.027-.483" transform="translate(-69.238 -49.593)" fill="#263238"/>
            <path id="Trazado_601861" data-name="Trazado 601861" d="M199.879,178.791a.978.978,0,0,1,0,.2c-.005.147-.013.341-.022.586-.027.533-.065,1.288-.114,2.254-.113,1.977-.275,4.813-.475,8.325l-1.695,27.783,0-.035c.161.928.333,1.919.506,2.92,1.973,11.474,3.758,21.86,5.054,29.4.63,3.751,1.141,6.792,1.5,8.915.168,1.04.3,1.854.392,2.427.04.265.071.474.094.632a1.138,1.138,0,0,1,.022.217,1.168,1.168,0,0,1-.053-.212l-.124-.627c-.106-.57-.256-1.381-.448-2.416l-1.593-8.9c-1.318-7.533-3.135-17.913-5.142-29.382-.173-1-.345-1.992-.506-2.92l0-.018v-.018c.7-10.939,1.335-20.715,1.79-27.778.24-3.509.434-6.343.569-8.319.072-.965.129-1.719.169-2.251.021-.245.038-.438.051-.584a1.07,1.07,0,0,1,.028-.2" transform="translate(-81.802 -74.139)" fill="#263238"/>
            <path id="Trazado_601862" data-name="Trazado 601862" d="M100.454,23.318c-5.228.112-9.716,7.8-8.939,12.13.378,2.1,1.338,4.517-.382,6.075-1.7,1.541-5.284,1.409-6.907,3a6.572,6.572,0,0,0-1.853,4.7c.225,2.656-.211,6.189-2.347,7.13L90.637,60.12c1.1-1.1,1.535-2.825,2.631-3.921-1.254,1.149-2.472,5.249,3.208,5.713l3.533-3.081c9.657,2.462,19.8,5.521,27.521,1.37" transform="translate(-33.184 -9.669)" fill="#263238"/>
            <path id="Trazado_601863" data-name="Trazado 601863" d="M160.411,36.679c-.7-1.989-1.84-3.825-2.321-5.875-1.035-4.408,1.052-9.427-1.189-13.372-1.6-2.808-4.91-4.138-8.038-5.03s-6.116-1.421-8.476-3.638c-1.731-1.627-2.741-3.891-4.466-5.524C133.462.914,129.881.175,126.482.029a20.553,20.553,0,0,0-10.2,1.824,11.08,11.08,0,0,0-6.157,7.906c-.242,1.668,0,3.408-.505,5.019-.551,1.772-1.924,3.167-2.756,4.828A8.805,8.805,0,0,0,109.3,30.192l24.491,30.17c5.063,1.79,10.575-4.574,14.4-8.317s13.987-10.339,12.226-15.366" transform="translate(-43.964 0)" fill="#263238"/>
            <path id="Trazado_601864" data-name="Trazado 601864" d="M111.575,35.4c.86-6.964,6.05-15.267,13.044-14.121l21.65,6.776a3.628,3.628,0,0,1,3.093,4.155L144.9,83.929c.051.015-.541.831-.489.845,0,0-5.853,14.512-20.12,9.18-2.829-1.058-4.111-.077-4.5-3.316-.618-.242-3.562-1.263-3.547-1.627l3.894-11.617c.2-4.237.326-5.523.321-5.484,0,0-8.936-1.681-10.113-13.441-.586-5.848.273-15.331,1.229-23.068" transform="translate(-45.677 -8.78)" fill="#a26760"/>
            <path id="Trazado_601865" data-name="Trazado 601865" d="M141.771,61.705a1.5,1.5,0,0,0,1.366,1.592,1.443,1.443,0,0,0,1.637-1.256,1.5,1.5,0,0,0-1.364-1.593,1.444,1.444,0,0,0-1.638,1.257" transform="translate(-58.785 -25.062)" fill="#263238"/>
            <path id="Trazado_601866" data-name="Trazado 601866" d="M116.052,61.045a1.5,1.5,0,0,0,1.367,1.592,1.443,1.443,0,0,0,1.636-1.257,1.5,1.5,0,0,0-1.364-1.593,1.445,1.445,0,0,0-1.638,1.257" transform="translate(-48.12 -24.788)" fill="#263238"/>
            <path id="Trazado_601867" data-name="Trazado 601867" d="M114.942,52.876c.169.27,1.556-.632,3.317-.41,1.762.193,2.91,1.394,3.135,1.169.109-.1-.036-.567-.533-1.107a4.037,4.037,0,0,0-5.15-.606c-.609.411-.854.833-.77.955" transform="translate(-47.656 -21.256)" fill="#263238"/>
            <path id="Trazado_601868" data-name="Trazado 601868" d="M142.451,55.2c.212.248,1.575-.768,3.465-.722,1.89.017,3.249,1.078,3.461.838.1-.107-.1-.55-.7-1.03a4.611,4.611,0,0,0-2.762-.972,4.493,4.493,0,0,0-2.766.878c-.594.461-.8.9-.7,1.007" transform="translate(-59.059 -22.107)" fill="#263238"/>
            <path id="Trazado_601869" data-name="Trazado 601869" d="M128.722,66a10.873,10.873,0,0,0-2.611-.625c-.412-.067-.8-.171-.853-.455a2.077,2.077,0,0,1,.349-1.2q.674-1.456,1.413-3.055c1.968-4.352,3.42-7.941,3.242-8.017s-1.918,3.388-3.886,7.74c-.475,1.074-.929,2.1-1.362,3.077a2.358,2.358,0,0,0-.311,1.6,1.041,1.041,0,0,0,.647.64,2.858,2.858,0,0,0,.7.138,10.667,10.667,0,0,0,2.675.159" transform="translate(-51.688 -21.829)" fill="#263238"/>
            <path id="Trazado_601870" data-name="Trazado 601870" d="M127.637,105.553a30.276,30.276,0,0,0,16.015-3.244s-4.467,8.3-16.186,6.525Z" transform="translate(-52.856 -42.424)" fill="#7b4b45"/>
            <path id="Trazado_601871" data-name="Trazado 601871" d="M142.56,46.449c.134.447,1.769.334,3.661.673,1.9.3,3.4.942,3.681.564.124-.18-.119-.608-.716-1.067a6.53,6.53,0,0,0-5.593-.942c-.716.238-1.089.561-1.033.773" transform="translate(-59.113 -18.832)" fill="#263238"/>
            <path id="Trazado_601872" data-name="Trazado 601872" d="M115.786,43.056c.3.385,1.607.08,3.146.152,1.541.025,2.826.411,3.149.047.142-.178-.042-.555-.59-.935a4.861,4.861,0,0,0-2.521-.747,4.8,4.8,0,0,0-2.551.588c-.566.344-.767.709-.633.9" transform="translate(-47.996 -17.238)" fill="#263238"/>
            <path id="Trazado_601873" data-name="Trazado 601873" d="M176.527,42.646c-1.114-2.034,1.033-4.3-.674-6.179-1.557-1.712-5.66-1.772-7.122-3.517a3.681,3.681,0,0,1-1.228-3c-.047-1.6-.777-8.323-10.692-9.688l-1.377,6.109c-.618-.287-1.261-.536-1.894-.765A109.362,109.362,0,0,0,128.5,19.768c-1.03,1.75-.006,4.089,1.619,5.32s3.691,1.693,5.62,2.368,3.914,1.733,4.737,3.587c.876,1.972.21,4.337.984,6.349,1.332,3.463,6.268,4.5,7.58,7.97.993,2.625-.5,5.463-.839,8.246a10.165,10.165,0,0,0,3.222,8.6c1.866,1.692,5.039,4.762,5.257,4.146L183.224,49.93c1.524-3.686-5.172-4.5-6.7-7.283" transform="translate(-53.114 -8.197)" fill="#263238"/>
            <path id="Trazado_601874" data-name="Trazado 601874" d="M103.631,82.681a1.453,1.453,0,0,1-.272.137,5.618,5.618,0,0,1-.818.308,7.757,7.757,0,0,1-3.2.228,8.022,8.022,0,0,1-4.3-1.981,7.127,7.127,0,0,1-1.651-2.278,8.076,8.076,0,0,1-.684-2.932,7.422,7.422,0,0,1,6-7.714,7.347,7.347,0,0,1,3.208.06,5.858,5.858,0,0,1,.832.272,1.456,1.456,0,0,1,.277.125,1.477,1.477,0,0,1-.294-.08,7.544,7.544,0,0,0-7.973,2.093,7.387,7.387,0,0,0-1.817,5.236A7.913,7.913,0,0,0,93.6,79a6.961,6.961,0,0,0,1.589,2.214,8.01,8.01,0,0,0,7.323,1.823,7.332,7.332,0,0,0,.825-.263,1.513,1.513,0,0,1,.29-.094" transform="translate(-38.44 -28.323)" fill="#e0e0e0"/>
            <path id="Trazado_601875" data-name="Trazado 601875" d="M168.985,54.071a1.141,1.141,0,0,1,.065-.181,3.421,3.421,0,0,0,.183-.527,4.674,4.674,0,0,0,.088-2.119,5.221,5.221,0,0,0-1.6-2.913,4.5,4.5,0,0,0-1.834-1.007c-.726-.2-1.537-.27-2.354-.549a3.191,3.191,0,0,1-1.144-.661,3.11,3.11,0,0,1-.764-1.143,6.788,6.788,0,0,1-.342-2.847,15.463,15.463,0,0,0,.039-3.025,3.87,3.87,0,0,0-.5-1.462,3.629,3.629,0,0,0-1.119-1.122,10.421,10.421,0,0,0-3.181-1.131,10.491,10.491,0,0,1-3.379-1.239,4.027,4.027,0,0,1-1.284-1.356,5.66,5.66,0,0,1-.622-1.778c-.24-1.238-.24-2.51-.476-3.753a7.275,7.275,0,0,0-4.574-5.376A12.868,12.868,0,0,0,142.7,21.3a8.2,8.2,0,0,1-1.728-.321,3.622,3.622,0,0,1-1.493-.871A7.489,7.489,0,0,1,138,17.206a7.3,7.3,0,0,0-1.525-2.581,7.758,7.758,0,0,0-4.765-2.416,7.059,7.059,0,0,0-4.337.928,8,8,0,0,0-2.492,2.283,7.239,7.239,0,0,0-.958,1.916c-.088.23-.115.417-.155.538a1.1,1.1,0,0,1-.056.183,5.266,5.266,0,0,1,.166-.735,6.96,6.96,0,0,1,.927-1.954,8.007,8.007,0,0,1,2.5-2.344,7.179,7.179,0,0,1,4.423-.98,7.922,7.922,0,0,1,4.892,2.45,7.485,7.485,0,0,1,1.576,2.643,7.355,7.355,0,0,0,1.432,2.824,4.865,4.865,0,0,0,3.089,1.121,13.012,13.012,0,0,1,3.551.587A7.5,7.5,0,0,1,151,27.215c.24,1.271.24,2.544.474,3.752a5.458,5.458,0,0,0,.594,1.707,3.794,3.794,0,0,0,1.211,1.28c2.023,1.3,4.6,1.14,6.549,2.381a3.838,3.838,0,0,1,1.183,1.194,4.072,4.072,0,0,1,.522,1.542,15.526,15.526,0,0,1-.049,3.065,6.62,6.62,0,0,0,.316,2.77,2.934,2.934,0,0,0,.714,1.082,3.011,3.011,0,0,0,1.08.631c.785.275,1.6.349,2.338.562a4.625,4.625,0,0,1,1.884,1.054,5.283,5.283,0,0,1,1.6,2.994,4.592,4.592,0,0,1-.132,2.148,2.934,2.934,0,0,1-.207.524,1.146,1.146,0,0,1-.087.171" transform="translate(-51.3 -4.977)" fill="#455a64"/>
            <path id="Trazado_601876" data-name="Trazado 601876" d="M137.238,79.311a.854.854,0,0,0-.412-.328.985.985,0,0,0-.612.1l-4.816,1.9c.128,2.67,1.821,3.7,3.089,3.727a3.474,3.474,0,0,0,3.091-1.844,3.4,3.4,0,0,0-.341-3.556" transform="translate(-54.487 -32.744)" fill="#7b4b45"/>
            <path id="Trazado_601877" data-name="Trazado 601877" d="M133.7,84.495a4.854,4.854,0,0,0,2.084-.336,2.839,2.839,0,0,0,1.586-1.506,3.817,3.817,0,0,0-.026-2.708,3.708,3.708,0,0,0-.581-1l.172.043c-1.635.656-3.106,1.151-4.169,1.47a9.659,9.659,0,0,1-1.726.435,13.771,13.771,0,0,1,1.665-.624c1.043-.368,2.495-.9,4.117-1.561l.1-.042.071.085a3.934,3.934,0,0,1,.633,1.083,4.02,4.02,0,0,1,0,2.921,3,3,0,0,1-1.767,1.6,3.815,3.815,0,0,1-1.589.255,1.429,1.429,0,0,1-.577-.118" transform="translate(-54.337 -32.62)" fill="#263238"/>
          </g>
        </g>
      </g>
    </g>
    <g id="Grupo_886760" data-name="Grupo 886760" transform="translate(994 1856.378)">
      <g id="Grupo_886759" data-name="Grupo 886759" clip-path="url(#clip-path-9)">
        <g id="Grupo_886758" data-name="Grupo 886758">
          <g id="Grupo_886757" data-name="Grupo 886757" clip-path="url(#clip-path-9)">
            <path id="Trazado_601776" data-name="Trazado 601776" d="M136.466,181.868l8.323-2.4,10.326-3.9,8.2-4.444s.716-.708-.289-1.592-5.462,1.584-5.462,1.584l-3.529,1.315s-2.975.245-2.809-.034,4.781-2.51,4.781-2.51l7.876-4.286s2.222-1.15,1.533-2.622c-.328-.7-1.147-1.116-2.659-.536s-3.893,2.075-4.746,2.424-5.718,2.535-5.718,2.535l10.078-6.906s3.285-1.958,2.232-3.343-3.053.142-4.2.587-7.477,4.485-9.941,5.608c-2.114.962-1.6.163-1.6.163l5.984-3.7c2.638-1.63,4.642-3.248,2.923-4.32-1.121-.7-6.18,2-6.18,2l-7.472,4.174-3.561,1.575,2.967-2.658a10.092,10.092,0,0,0,3.245-4.042c1.041-2.57-1.066-2.656-1.066-2.656l-12.19,8.337c-1.9,1.657-4.132,9.634-4.132,9.634l-23.514,9.4,9.758,14.278Z" transform="translate(-42.178 -61.317)" fill="#ffc09d"/>
            <path id="Trazado_601777" data-name="Trazado 601777" d="M161.864,168.951a1.74,1.74,0,0,1,.366.425,7.814,7.814,0,0,1,.763,1.325,8.955,8.955,0,0,1-1.307,9.537,7.894,7.894,0,0,1-1.089,1.073,1.746,1.746,0,0,1-.466.313c-.039-.045.6-.523,1.382-1.525a9.265,9.265,0,0,0,1.276-9.31c-.481-1.173-.974-1.805-.925-1.838" transform="translate(-63.804 -67.318)" fill="#ff9b6c"/>
            <path id="Trazado_601778" data-name="Trazado 601778" d="M113.723,69.128c.185-.856,1.058-1.36,1.781-1.878a8.675,8.675,0,0,0,3.484-8.268,8.871,8.871,0,0,0-5.937-6.825,6.814,6.814,0,0,1-2.184-.888c-1.539-1.209-1.044-3.573-1.629-5.413-1.238-3.9-6.939-4.664-8.982-8.226-1.245-2.172-.829-4.836-.718-7.321s-.368-5.384-2.581-6.626c-1.19-.668-2.676-.711-3.838-1.425-2.4-1.473-2.3-4.823-3.182-7.447A9.714,9.714,0,0,0,79.395,8.676s1.747-3.745-2.879-5.661C70.931.7,70.574,4.616,68,2.178a8.592,8.592,0,0,0-10.489-.73,24.406,24.406,0,0,1-2.818,2.108,16.707,16.707,0,0,1-4.2,1.032,12.347,12.347,0,0,0-9.571,11.667L76.206,76.3c1.222,5.711-2.351,8.27,2.65,11.476,1.05.673,8.562,2.658,9.8,2.868,1.544.261,5.254.393,6.686-.225,3.109-1.343,7.8-3.379,9.038-6.465a8.871,8.871,0,0,0,9.966-2.238,8.338,8.338,0,0,0,.489-9.963c-.565-.806-1.318-1.669-1.112-2.624" transform="translate(-16.308 0)" fill="#263238"/>
            <path id="Trazado_601779" data-name="Trazado 601779" d="M41.687,34.433,41.2,30.321l24.914-7.045c7.745-1.527,16.958,5.341,18.206,12.954,1.387,8.458,2.737,18.837,2.328,25.28-.823,12.957-10.7,15.506-10.7,15.506L78.233,99.05l-.391,5.667L53.187,83.161Z" transform="translate(-16.415 -9.189)" fill="#ffc09d"/>
            <path id="Trazado_601780" data-name="Trazado 601780" d="M106.448,61.69a1.651,1.651,0,0,1-1.456,1.8,1.61,1.61,0,0,1-1.875-1.316,1.651,1.651,0,0,1,1.454-1.8,1.612,1.612,0,0,1,1.877,1.317" transform="translate(-41.082 -24.048)" fill="#263238"/>
            <path id="Trazado_601781" data-name="Trazado 601781" d="M104.764,53.438c-.187.232-1.55-.568-3.355-.4-1.806.146-3.043,1.174-3.26.976-.106-.086.069-.491.605-.954a4.68,4.68,0,0,1,2.584-1.046,4.538,4.538,0,0,1,2.7.583c.6.365.823.733.73.839" transform="translate(-39.096 -20.719)" fill="#263238"/>
            <path id="Trazado_601782" data-name="Trazado 601782" d="M78.992,64.313a1.65,1.65,0,0,1-1.456,1.8A1.61,1.61,0,0,1,75.661,64.8,1.651,1.651,0,0,1,77.115,63a1.612,1.612,0,0,1,1.877,1.317" transform="translate(-30.142 -25.093)" fill="#263238"/>
            <path id="Trazado_601783" data-name="Trazado 601783" d="M75.3,56.7c-.188.232-1.551-.568-3.355-.4-1.806.146-3.043,1.174-3.26.976-.105-.086.067-.491.606-.954a4.673,4.673,0,0,1,2.584-1.045,4.537,4.537,0,0,1,2.7.582c.595.365.822.734.73.839" transform="translate(-27.355 -22.02)" fill="#263238"/>
            <path id="Trazado_601784" data-name="Trazado 601784" d="M91.223,68.7a12.25,12.25,0,0,1,2.883-.786c.457-.089.885-.219.932-.533a2.266,2.266,0,0,0-.44-1.305q-.81-1.573-1.7-3.3c-2.374-4.7-4.14-8.587-3.945-8.678s2.277,3.646,4.651,8.349q.862,1.741,1.646,3.325a2.566,2.566,0,0,1,.413,1.743,1.145,1.145,0,0,1-.694.728,3.22,3.22,0,0,1-.773.178,12.115,12.115,0,0,1-2.973.278" transform="translate(-35.438 -21.554)" fill="#263238"/>
            <path id="Trazado_601785" data-name="Trazado 601785" d="M86.76,110.869a35.648,35.648,0,0,1-18.428-2.931s5.376,8.968,18.809,6.552Z" transform="translate(-27.227 -43.008)" fill="#ff9b6c"/>
            <path id="Trazado_601786" data-name="Trazado 601786" d="M73.937,45.423c-.131.5-1.957.434-4.052.878-2.1.4-3.753,1.166-4.077.762-.146-.194.108-.672.753-1.2a6.979,6.979,0,0,1,2.948-1.322,7.083,7.083,0,0,1,3.245.072c.808.234,1.237.574,1.183.809" transform="translate(-26.206 -17.687)" fill="#263238"/>
            <path id="Trazado_601787" data-name="Trazado 601787" d="M103.132,44.987c-.279.429-1.564.129-3.062.247-1.5.067-2.737.523-3.07.132-.147-.191.013-.611.529-1.04a4.541,4.541,0,0,1,4.941-.306c.569.363.783.759.662.967" transform="translate(-38.629 -17.305)" fill="#263238"/>
            <path id="Trazado_601788" data-name="Trazado 601788" d="M68.393,24.677a22.589,22.589,0,0,0-12.36-6.812L34.942,21.2l-5.627,3.463c-.465-1.219-.763-1.978-.763-1.978-2.071-1.331-7.7-4.015-12.27.834-1.647,1.749-2.859,6.274-2.774,8.6.032.879.18,1.946-.59,2.462a2.87,2.87,0,0,1-.925.328c-5.34,1.314-8.876,7.01-7.416,11.949a2.467,2.467,0,0,1,.17.993,2.675,2.675,0,0,1-.876,1.338,8.131,8.131,0,0,0-.97,9.7A10.07,10.07,0,0,1,4.5,61.72c.429,1.873-.972,3.617-2.042,5.249C-.75,71.863-1.123,78.8,3.174,82.956c1.044,1.011,2.368,1.9,2.811,3.232a7.473,7.473,0,0,1,.226,2.028c.159,3.453,2.336,7.234,6.026,7.812,2.048.321,4.481-.309,6,1.009a8.1,8.1,0,0,1,1.411,2.133,7.916,7.916,0,0,0,8.915,3.114,6.9,6.9,0,0,0,4.7-7.62,9.448,9.448,0,0,0,6.121-9.415s-2.316-12.06-1.311-15.394S36.329,59.625,34.8,56.285s-.348-11.312-.156-14.469a10.605,10.605,0,0,0-.426-2.677l0,0,0-.009c-.189-.758-.429-1.61-.706-2.523a22.444,22.444,0,0,1-.212-2.53c-.108-2.973,3.01-5.235,6.108-4.412a8.51,8.51,0,0,0,2.306.286,8.312,8.312,0,0,0,6.4-3.14,12.479,12.479,0,0,0,11.723,2.448,30.887,30.887,0,0,0,5.8,5.674,11.437,11.437,0,0,0,7.906,2.151,19.594,19.594,0,0,0-5.15-12.409" transform="translate(0 -7.118)" fill="#263238"/>
            <path id="Trazado_601789" data-name="Trazado 601789" d="M88.494,28.5c-.039,0,0-.467-.111-1.3a8.151,8.151,0,0,0-1.251-3.326A7.773,7.773,0,0,0,82.9,20.652a8.379,8.379,0,0,0-6.581.7l-.15.087-.118-.127a12.114,12.114,0,0,0-3.013-2.337,12.576,12.576,0,0,0-7.974-1.39,12.159,12.159,0,0,0-5.987,2.853,12.608,12.608,0,0,0-2.8,3.5c-.492.942-.671,1.507-.713,1.493a1.6,1.6,0,0,1,.107-.416,9.041,9.041,0,0,1,.455-1.149,11.974,11.974,0,0,1,2.741-3.649A12.269,12.269,0,0,1,65,17.2,12.854,12.854,0,0,1,73.251,18.6a12.4,12.4,0,0,1,3.119,2.429l-.267-.04a8.713,8.713,0,0,1,6.914-.686,7.972,7.972,0,0,1,4.351,3.421,7.858,7.858,0,0,1,1.165,3.452,5.567,5.567,0,0,1,.01.98,1.127,1.127,0,0,1-.049.336" transform="translate(-22.141 -6.781)" fill="#455a64"/>
            <path id="Trazado_601790" data-name="Trazado 601790" d="M9.719,56.714a28.753,28.753,0,0,0,5.063-.864,20.129,20.129,0,0,0,10.081-6.636l.449-.572.063-.079.1-.008a11.424,11.424,0,0,0,5.955-2.288,12.035,12.035,0,0,0,3.395-3.909A12.951,12.951,0,0,0,36.2,37.82a1,1,0,0,1,.017.333,6.745,6.745,0,0,1-.062.958,10.175,10.175,0,0,1-1.07,3.38,11.991,11.991,0,0,1-3.42,4.078A11.643,11.643,0,0,1,25.5,48.974l.16-.087-.458.586a19.141,19.141,0,0,1-5.159,4.48,19.776,19.776,0,0,1-5.179,2.184,18.4,18.4,0,0,1-3.753.6c-.448.032-.8.01-1.033.011a1.157,1.157,0,0,1-.36-.029" transform="translate(-3.873 -15.069)" fill="#455a64"/>
            <path id="Trazado_601791" data-name="Trazado 601791" d="M14.7,94.157a6.468,6.468,0,0,0,.777.555,4.418,4.418,0,0,0,1.07.42,4.765,4.765,0,0,0,1.557.1,4.277,4.277,0,0,0,1.831-.612,3.777,3.777,0,0,0,.84-.707,3.718,3.718,0,0,0,.613-1.006,4.348,4.348,0,0,0,.2-2.56,4.04,4.04,0,0,0-1.543-2.389l-.231-.164.285,0a8.786,8.786,0,0,0,4.4-1.266,11.723,11.723,0,0,0,3.636-3.561c.262-.363.466-.765.7-1.156.193-.41.416-.813.573-1.247a12.583,12.583,0,0,0,.774-2.7,20.386,20.386,0,0,0,.123-5.848,57.315,57.315,0,0,0-1.837-8.564l-.02-.076.066-.046a21.514,21.514,0,0,0,6.817-7.717A22.776,22.776,0,0,0,37,51.526c.168-.667.382-1.3.481-1.924q.09-.467.177-.914c.058-.3.077-.594.116-.88a21.3,21.3,0,0,0-.016-5.406c-.066-.63-.2-1.105-.243-1.433L37.45,40.6a.689.689,0,0,1-.016-.128s.189.667.4,1.92a20.662,20.662,0,0,1,.082,5.433c-.037.288-.054.587-.109.887s-.114.608-.172.922c-.1.633-.306,1.269-.471,1.941A22.7,22.7,0,0,1,35.489,55.7a21.608,21.608,0,0,1-6.862,7.812l.046-.122a56.854,56.854,0,0,1,1.851,8.6A20.532,20.532,0,0,1,30.4,77.9a12.822,12.822,0,0,1-.791,2.741c-.161.441-.388.85-.585,1.266-.235.4-.444.8-.71,1.173A11.911,11.911,0,0,1,24.594,86.7a8.961,8.961,0,0,1-4.5,1.275l.054-.165a4.208,4.208,0,0,1,1.6,2.5,4.487,4.487,0,0,1-.223,2.651A3.657,3.657,0,0,1,20,94.721a4.348,4.348,0,0,1-1.887.608,4.768,4.768,0,0,1-1.587-.121,4.287,4.287,0,0,1-1.078-.45,3.215,3.215,0,0,1-.576-.429c-.119-.111-.174-.172-.174-.172" transform="translate(-5.856 -16.126)" fill="#455a64"/>
            <path id="Trazado_601792" data-name="Trazado 601792" d="M126.023,100.8a.83.83,0,0,1,.127-.088l.383-.243a6.686,6.686,0,0,0,.611-.413,9.787,9.787,0,0,0,.8-.615,14.367,14.367,0,0,0,5.108-9.413,12.966,12.966,0,0,0-.481-5.15,14.275,14.275,0,0,0-2.762-5.09,13.933,13.933,0,0,0-5.028-3.805l-.152-.068.117-.116a12.838,12.838,0,0,0,3.5-6.563,12.226,12.226,0,0,0,.256-2.456,11.49,11.49,0,0,0-.222-2.415,11.271,11.271,0,0,0-.685-2.276,12.251,12.251,0,0,0-1.083-2.061,13.076,13.076,0,0,0-6.714-5.267l-.109-.037.05-.1a11.563,11.563,0,0,0,.757-7.913,11.3,11.3,0,0,0-3.194-5.332,11.917,11.917,0,0,0-3.387-2.252c-.434-.189-.774-.318-1.008-.393l-.263-.091a.476.476,0,0,1-.087-.036,8.634,8.634,0,0,1,1.384.463,11.659,11.659,0,0,1,3.444,2.223,11.357,11.357,0,0,1,3.274,5.376,11.7,11.7,0,0,1-.735,8.043l-.06-.14a13.257,13.257,0,0,1,6.839,5.338,12.456,12.456,0,0,1,1.105,2.1,11.549,11.549,0,0,1,.7,2.319,11.756,11.756,0,0,1,.227,2.46,12.487,12.487,0,0,1-.26,2.5,13.044,13.044,0,0,1-3.573,6.678l-.034-.185a14.119,14.119,0,0,1,5.1,3.875,14.428,14.428,0,0,1,2.786,5.172,13.106,13.106,0,0,1,.465,5.226A14.35,14.35,0,0,1,128,99.5a9.382,9.382,0,0,1-.816.6,6.113,6.113,0,0,1-.625.4l-.394.226a.891.891,0,0,1-.137.07" transform="translate(-44.85 -15.381)" fill="#455a64"/>
            <path id="Trazado_601793" data-name="Trazado 601793" d="M84.378,83.453a21.258,21.258,0,0,1,4.908,1.333l.016.042a4.091,4.091,0,0,1-1.4,3.027,2.459,2.459,0,0,1-2.456.082,2.709,2.709,0,0,1-1.433-1.891,5.6,5.6,0,0,1,.361-2.593" transform="translate(-33.456 -33.252)" fill="#ff9b6c"/>
            <path id="Trazado_601794" data-name="Trazado 601794" d="M86.726,87.936c.011.029-.134.134-.448.186a2.1,2.1,0,0,1-1.3-.259,2.684,2.684,0,0,1-1.268-1.513,4.124,4.124,0,0,1-.021-2.38,3.211,3.211,0,0,1,.223-.635.521.521,0,0,1,.533-.241c.147.03.205.054.307.079l1.061.3,1.787.536a5.378,5.378,0,0,1,1.609.632,5.414,5.414,0,0,1-1.713-.25l-1.818-.42L84.6,83.7l-.253-.063c-.016.042-.015-.107-.022-.09-.019,0,.091.088.059.073a4.4,4.4,0,0,0-.187,2.572,2.391,2.391,0,0,0,.978,1.332,2.99,2.99,0,0,0,1.547.411" transform="translate(-33.279 -33.103)" fill="#263238"/>
            <path id="Trazado_601795" data-name="Trazado 601795" d="M29.134,231.566h71.73l-1.693-28.559-2.539-34.246a35.168,35.168,0,0,0-6.519-17.918l-5.453-7.592-6.744-9.039-4.154-8.137L48.012,115.552l-3.18,6.565s-3.747,2.693-6.151,4.745c-4.667,3.985-7.4,9.234-8.953,15.138l-.045.173c-1.505,5.8-.332,14.166-.332,14.166l8.563,41.174A77.061,77.061,0,0,0,31.42,216.48c-.366,1.827-1.518,9.119-2.286,15.086" transform="translate(-11.521 -46.042)" fill="#3b76a7"/>
            <path id="Trazado_601796" data-name="Trazado 601796" d="M89.475,136.919a4.864,4.864,0,0,1-.59-1.019L87.448,133,87.81,133c-.777,1.911-1.743,4.287-2.822,6.945l-.1.255-.26-.106L80.55,138.44c-4.19-1.711-7.97-3.289-10.7-4.457l-3.215-1.411a5.564,5.564,0,0,1-1.149-.59,5.672,5.672,0,0,1,1.235.384l3.286,1.243c2.765,1.073,6.57,2.591,10.76,4.3l4.065,1.671-.364.149,2.973-6.884.183-.424.179.417,1.274,2.972a4.784,4.784,0,0,1,.393,1.108" transform="translate(-26.095 -52.586)" fill="#263238"/>
            <path id="Trazado_601797" data-name="Trazado 601797" d="M83.323,269.85a5.279,5.279,0,0,1-1.237-.224c-.789-.176-1.918-.477-3.3-.888a81.941,81.941,0,0,1-20.441-9.375c-1.212-.78-2.174-1.438-2.819-1.92a5.208,5.208,0,0,1-.972-.789,5.279,5.279,0,0,1,1.1.6l2.91,1.76a104.072,104.072,0,0,0,20.35,9.333l3.238,1.059a5.309,5.309,0,0,1,1.177.439" transform="translate(-21.736 -102.263)" fill="#263238"/>
            <g id="Grupo_886756" data-name="Grupo 886756" transform="translate(20.687 110.846)" opacity="0.3">
              <g id="Grupo_886755" data-name="Grupo 886755">
                <g id="Grupo_886754" data-name="Grupo 886754" clip-path="url(#clip-path-11)">
                  <path id="Trazado_601798" data-name="Trazado 601798" d="M34.389,184.268s13.218,36.275,17.565,42.845,6.5,8.435,13.137,7.3S100.858,223.7,100.858,223.7l-.426-5.941-26.969,5.7-15.562-3.2L43.691,198.384Z" transform="translate(-34.389 -184.268)"/>
                </g>
              </g>
            </g>
            <path id="Trazado_601799" data-name="Trazado 601799" d="M89.4,178.5,87.933,176.1,80.81,177.8,70.04,180.2s-6.254-36.443-15.287-42.288-15.634-4.814-21.193,5.5-2.565,16.324-2.565,16.324S45.372,199.905,54.753,208.1s40.3-7.273,40.3-7.273l6.268-5.2Z" transform="translate(-12.029 -53.534)" fill="#3b76a7"/>
            <path id="Trazado_601800" data-name="Trazado 601800" d="M89.214,178.319a2.043,2.043,0,0,1,.22.277l.614.843L92.4,182.75l8.867,12.608.085.121-.114.1L94.99,200.8l-.017.014-.019.01a129.493,129.493,0,0,1-16.568,6.735,71.43,71.43,0,0,1-9.963,2.5,36.715,36.715,0,0,1-5.426.508,16.779,16.779,0,0,1-5.6-.777,8.862,8.862,0,0,1-1.342-.573l-.649-.349c-.205-.136-.4-.291-.6-.437a6.446,6.446,0,0,1-1.076-1l-1.018-1.062c-.632-.747-1.189-1.556-1.792-2.34s-1.082-1.654-1.632-2.486a114.142,114.142,0,0,1-5.8-10.741c-3.629-7.478-6.945-15.464-10.158-23.727-.969-2.5-1.912-4.995-2.788-7.422l.013.031a14.105,14.105,0,0,1-.7-6.894,25.39,25.39,0,0,1,1.784-6.536,32.855,32.855,0,0,1,3.135-5.855,17.132,17.132,0,0,1,4.5-4.734,9.984,9.984,0,0,1,6.154-1.741,16.27,16.27,0,0,1,6,1.715c.906.474,1.806.943,2.65,1.486a10.077,10.077,0,0,1,2.359,1.885,23.6,23.6,0,0,1,3.208,4.842,70.935,70.935,0,0,1,4.074,10.11c1.08,3.312,1.983,6.517,2.764,9.58,1.562,6.127,2.7,11.664,3.543,16.454l-.2-.132,11-2.411,6.915-1.589.045-.011.022.038,1.077,1.814c.235.4.338.612.338.612s-.138-.186-.392-.579l-1.129-1.784.067.028-6.892,1.693L69.89,180.183l-.167.038-.031-.17c-.876-4.77-2.045-10.3-3.631-16.4-.793-3.052-1.707-6.246-2.8-9.541a70.887,70.887,0,0,0-4.077-10.025,23.113,23.113,0,0,0-3.144-4.725,9.509,9.509,0,0,0-2.254-1.789c-.833-.535-1.717-.991-2.606-1.455a15.77,15.77,0,0,0-5.792-1.651,9.431,9.431,0,0,0-5.815,1.658,16.6,16.6,0,0,0-4.34,4.59,32.345,32.345,0,0,0-3.076,5.759,24.848,24.848,0,0,0-1.74,6.389,13.673,13.673,0,0,0,.647,6.576l.013.031c.873,2.418,1.817,4.907,2.783,7.407,3.209,8.253,6.517,16.23,10.128,23.691a114.205,114.205,0,0,0,5.76,10.7c.544.824,1.029,1.683,1.611,2.463s1.141,1.573,1.757,2.3l.985,1.03a6.1,6.1,0,0,0,1.025.957c.187.136.366.282.558.41l.611.328a8.335,8.335,0,0,0,1.27.546,16.281,16.281,0,0,0,5.425.762,36.394,36.394,0,0,0,5.348-.486,71.36,71.36,0,0,0,9.9-2.455,130.9,130.9,0,0,0,16.54-6.635l-.036.024,6.284-5.183-.029.216-8.743-12.7-2.285-3.358-.576-.867a2.084,2.084,0,0,1-.182-.3" transform="translate(-11.843 -53.356)" fill="#263238"/>
            <path id="Trazado_601801" data-name="Trazado 601801" d="M87.844,228.948a10.038,10.038,0,0,1-.164-2.822A29.987,29.987,0,0,1,91.152,213a10.131,10.131,0,0,1,1.54-2.38,21.445,21.445,0,0,1-1.172,2.559,37.772,37.772,0,0,0-3.431,12.969,21.347,21.347,0,0,1-.245,2.8" transform="translate(-34.933 -83.921)" fill="#263238"/>
            <path id="Trazado_601802" data-name="Trazado 601802" d="M128.957,229.707a3.832,3.832,0,0,1-.792-.717c-.482-.485-1.157-1.21-1.967-2.128a63.339,63.339,0,0,1-5.778-7.616,39.79,39.79,0,0,1-4.2-8.579,23.007,23.007,0,0,1-.777-2.788,3.785,3.785,0,0,1-.155-1.051c.1-.023.453,1.441,1.317,3.7a47.231,47.231,0,0,0,4.3,8.41,85.683,85.683,0,0,0,5.6,7.662,33.963,33.963,0,0,1,2.443,3.105" transform="translate(-45.932 -82.411)" fill="#263238"/>
            <path id="Trazado_601803" data-name="Trazado 601803" d="M159.232,190.206l8.323-2.4,10.326-3.9,8.2-4.444s.716-.708-.289-1.592-5.462,1.584-5.462,1.584L176.8,180.77s-2.975.245-2.809-.034,4.781-2.51,4.781-2.51l7.876-4.286s2.222-1.15,1.533-2.622c-.328-.7-1.147-1.116-2.659-.536s-3.893,2.075-4.746,2.424-5.718,2.535-5.718,2.535l10.078-6.906s3.285-1.958,2.232-3.343-3.053.142-4.2.587-7.477,4.485-9.941,5.608c-2.114.962-1.6.163-1.6.163l5.984-3.7c2.638-1.63,4.642-3.248,2.923-4.32-1.121-.7-6.18,2-6.18,2l-7.471,4.174-3.561,1.575,2.967-2.658a10.092,10.092,0,0,0,3.245-4.042c1.041-2.57-1.066-2.656-1.066-2.656l-12.19,8.337c-1.9,1.657-4.132,9.634-4.132,9.634l-23.514,9.058,10,14.464Z" transform="translate(-51.249 -64.639)" fill="#ffc09d"/>
            <path id="Trazado_601804" data-name="Trazado 601804" d="M159.112,190.1s-.115.086-.347.243l-1.035.694-4.027,2.67-15.149,9.985-.076.051-.052-.075L128.4,189.219l-.085-.122.139-.054,23.506-9.079-.084.092c.46-1.6.991-3.24,1.613-4.9.318-.827.651-1.661,1.044-2.481a8.3,8.3,0,0,1,1.513-2.324l0,0,.009-.007L168.251,162l.045-.031.047,0a1.78,1.78,0,0,1,1.04.424,1.466,1.466,0,0,1,.454,1.048,4.549,4.549,0,0,1-.637,2.123,10.352,10.352,0,0,1-2.954,3.381l.015-.012-2.967,2.658-.166-.257,3.561-1.575-.013.006,6.317-3.529a33.834,33.834,0,0,1,3.326-1.695c.575-.252,1.157-.493,1.759-.7a5.851,5.851,0,0,1,1.9-.387,1.094,1.094,0,0,1,.488.124,2.517,2.517,0,0,1,.374.29,1.064,1.064,0,0,1,.348.9,1.741,1.741,0,0,1-.38.856,4.633,4.633,0,0,1-.605.657,19.374,19.374,0,0,1-2.829,2.009l-5.792,3.578.049-.049c-.221.135.321.057.633-.072a9.924,9.924,0,0,0,1.032-.44c.676-.329,1.339-.692,1.994-1.062,1.312-.741,2.6-1.509,3.881-2.268l1.921-1.132a20.476,20.476,0,0,1,1.968-1.053c.656-.279,1.292-.674,2-.923a3.021,3.021,0,0,1,1.126-.2,1.507,1.507,0,0,1,1.063.488,1.193,1.193,0,0,1,.317,1.132,2.46,2.46,0,0,1-.56.993,8.021,8.021,0,0,1-1.663,1.414c-1.19.792-2.347,1.6-3.506,2.389l-6.816,4.666-.141-.25,4.449-1.97c.734-.337,1.466-.617,2.149-1l2.068-1.129a14.359,14.359,0,0,1,2.136-.969,3.23,3.23,0,0,1,1.183-.161,1.519,1.519,0,0,1,1.449,1.684,1.964,1.964,0,0,1-.528,1.062,4.387,4.387,0,0,1-.877.741c-.325.21-.656.367-.976.547-2.59,1.4-5.081,2.777-7.518,4.065-1.235.6-2.448,1.2-3.613,1.823a7.3,7.3,0,0,0-.808.482c-.013,0-.019.032-.008-.029a.074.074,0,0,0-.022-.054s0,0,0,0a.445.445,0,0,0,.085.022,1.937,1.937,0,0,0,.23.024c.158.009.319.01.48.009.644-.008,1.287-.048,1.919-.1l-.031.007,3.53-1.311-.014.007a19.987,19.987,0,0,1,3.655-1.578,5.414,5.414,0,0,1,.95-.192,1.35,1.35,0,0,1,.973.2,1.648,1.648,0,0,1,.544.8,1.029,1.029,0,0,1-.247.94l-.008.01-.014.007-8.2,4.43-.005,0,0,0-10.336,3.876h0l-6.218,1.763-1.584.442c-.355.1-.537.14-.537.14s.174-.061.525-.167l1.574-.469,6.209-1.818h0l10.316-3.926-.01,0,8.188-4.458-.022.017a.83.83,0,0,0,.191-.749,1.454,1.454,0,0,0-.481-.7,1.168,1.168,0,0,0-.819-.15,5.276,5.276,0,0,0-.911.186,19.814,19.814,0,0,0-3.606,1.57l-.008,0-.007,0-3.527,1.32-.015.005-.016,0c-.638.049-1.28.091-1.936.1-.164,0-.328,0-.5-.008a2.094,2.094,0,0,1-.258-.027.618.618,0,0,1-.15-.043.319.319,0,0,1-.056-.04.17.17,0,0,1-.048-.108.152.152,0,0,1,.061-.125,5.667,5.667,0,0,1,.879-.544c1.171-.63,2.383-1.228,3.618-1.835,2.424-1.289,4.919-2.674,7.5-4.075.32-.181.657-.343.955-.537a4.127,4.127,0,0,0,.822-.7,1.706,1.706,0,0,0,.461-.918,1.248,1.248,0,0,0-1.2-1.381,2.969,2.969,0,0,0-1.08.152,14.129,14.129,0,0,0-2.087.952l-2.064,1.13c-.695.392-1.453.685-2.173,1.016l-4.441,1.972-.14-.25,6.816-4.676c1.158-.789,2.32-1.6,3.5-2.391a7.724,7.724,0,0,0,1.6-1.358,2.179,2.179,0,0,0,.5-.868.883.883,0,0,0-.244-.855,1.643,1.643,0,0,0-1.865-.2c-.673.235-1.29.622-1.986.919-1.3.608-2.563,1.424-3.847,2.166-1.281.76-2.569,1.529-3.886,2.273-.658.372-1.323.737-2.012,1.073a10.075,10.075,0,0,1-1.064.454,2.863,2.863,0,0,1-.586.153.516.516,0,0,1-.395-.08.286.286,0,0,1-.091-.268.511.511,0,0,1,.073-.194l.017-.029.033-.02,5.792-3.579a19.239,19.239,0,0,0,2.781-1.973,4.329,4.329,0,0,0,.565-.613,1.434,1.434,0,0,0,.321-.7.746.746,0,0,0-.257-.65,2.224,2.224,0,0,0-.31-.241.81.81,0,0,0-.348-.082,5.616,5.616,0,0,0-1.781.371c-.588.2-1.164.437-1.733.686a33.691,33.691,0,0,0-3.3,1.681l-6.315,3.527-.007,0-.007,0-3.561,1.574-.895.4.728-.653,2.969-2.657,0,0,.011-.008a10.057,10.057,0,0,0,2.859-3.27,4.278,4.278,0,0,0,.6-1.966,1.153,1.153,0,0,0-.354-.837,1.489,1.489,0,0,0-.848-.346l.091-.026-12.193,8.332.013-.01a8.117,8.117,0,0,0-1.445,2.23c-.389.808-.721,1.636-1.037,2.457-.62,1.648-1.153,3.287-1.612,4.874l-.019.067-.064.025-23.521,9.038.054-.176,9.982,14.477-.128-.025,15.206-9.919,4.05-2.626,1.046-.671c.235-.149.358-.22.358-.22" transform="translate(-51.129 -64.536)" fill="#ff9b6c"/>
          </g>
        </g>
      </g>
    </g>
    <g id="Grupo_886787" data-name="Grupo 886787" transform="translate(1053.894 1815.098)">
      <g id="Grupo_886786" data-name="Grupo 886786" clip-path="url(#clip-path-12)">
        <g id="Grupo_886785" data-name="Grupo 886785" transform="translate(0 0)">
          <g id="Grupo_886784" data-name="Grupo 886784" clip-path="url(#clip-path-12)">
            <path id="Trazado_601878" data-name="Trazado 601878" d="M.208,37.256l7.409-1.62a20.178,20.178,0,0,0,32.639-12.77A19.935,19.935,0,0,0,23,.5,20.068,20.068,0,0,0,.4,17.578,19.633,19.633,0,0,0,2.94,30.2l-.008-.008Z" transform="translate(-0.099 -0.154)" fill="#fff"/>
            <path id="Trazado_601879" data-name="Trazado 601879" d="M.109,37.1s.071-.164.194-.47l.542-1.356,2.067-5.208-.138.029.008.008a.084.084,0,0,0,.133-.1A19.6,19.6,0,0,1,4.63,7.8a20.015,20.015,0,0,1,6.061-5.028A20.217,20.217,0,0,1,18.848.391a20.507,20.507,0,0,1,8.884,1.433,20.043,20.043,0,0,1,4.112,2.229c.325.223.621.486.934.728a10.319,10.319,0,0,1,.911.765,18.757,18.757,0,0,1,1.663,1.72c.257.308.528.6.771.921l.684.98.341.488.292.517.582,1.031c.181.348.324.715.487,1.07a9.855,9.855,0,0,1,.445,1.081,18.115,18.115,0,0,1,.66,2.222,19.794,19.794,0,0,1,.029,8.923A19.287,19.287,0,0,1,36,32.117a20.117,20.117,0,0,1-12.818,7.478,20.643,20.643,0,0,1-6.448-.063,20.126,20.126,0,0,1-9.159-4.114A.085.085,0,0,0,7.5,35.4L2.029,36.652.6,36.982c-.322.075-.5.12-.5.12s.15-.026.463-.09l1.407-.289,5.558-1.16-.071-.017a20.158,20.158,0,0,0,9.221,4.229,20.8,20.8,0,0,0,6.533.1,20.376,20.376,0,0,0,13.043-7.552,19.6,19.6,0,0,0,3.723-7.741,20.122,20.122,0,0,0-.019-9.083,18.571,18.571,0,0,0-.67-2.264,10.228,10.228,0,0,0-.453-1.1c-.166-.362-.312-.735-.5-1.09l-.591-1.05-.3-.527-.347-.5-.7-1c-.248-.322-.524-.624-.785-.938a19.1,19.1,0,0,0-1.694-1.751,10.782,10.782,0,0,0-.927-.78c-.319-.247-.621-.514-.952-.741A20.371,20.371,0,0,0,27.869,1.49,20.825,20.825,0,0,0,18.823.041a20.527,20.527,0,0,0-8.294,2.434A20.294,20.294,0,0,0,4.385,7.6,19.954,19.954,0,0,0,.005,20.4a19.707,19.707,0,0,0,2.763,9.684l.133-.1-.008-.008a.083.083,0,0,0-.138.029L.767,35.314l-.5,1.344c-.11.3-.158.443-.158.443" transform="translate(0 0)" fill="#263238"/>
            <path id="Trazado_601880" data-name="Trazado 601880" d="M39.317,25.68a7.852,7.852,0,1,0-11.23,6.976c0,.921-.009,1.96-.009,1.96l6.881.032s.047-1.1.067-2.082a7.76,7.76,0,0,0,4.291-6.887" transform="translate(-11.243 -8.509)" fill="#ff725e"/>
            <path id="Trazado_601881" data-name="Trazado 601881" d="M35.772,41.686s0-.032.008-.1l.033-.28c.032-.246.078-.609.149-1.074s.167-1.035.32-1.688a11.47,11.47,0,0,1,.723-2.159,7.374,7.374,0,0,1,.651-1.159,1.446,1.446,0,0,1,.539-.475.819.819,0,0,1,.746.028.528.528,0,0,1,.247.309.535.535,0,0,1-.035.4,1.111,1.111,0,0,1-.609.514,2.161,2.161,0,0,1-2.734-1.423,1.611,1.611,0,0,1-.042-.9.7.7,0,0,1,.716-.536.506.506,0,0,1,.4.276.7.7,0,0,1,.061.479,1.518,1.518,0,0,1-.556.769,2.36,2.36,0,0,1-1.833.517,2.038,2.038,0,0,1-1.513-1.127,1.162,1.162,0,0,1-.049-.941.574.574,0,0,1,.829-.3.777.777,0,0,1,.33.343,1.2,1.2,0,0,1,.118.448,2.222,2.222,0,0,1-.124.888,2.322,2.322,0,0,1-1.113,1.3,2.4,2.4,0,0,1-1.626.213,1.247,1.247,0,0,1-.705-.374.6.6,0,0,1-.04-.749.514.514,0,0,1,.354-.169.742.742,0,0,1,.374.073,1.128,1.128,0,0,1,.478.535c.2.422.352.833.51,1.224.62,1.569,1.06,2.861,1.354,3.756.147.448.255.8.328,1.035l.081.27c.017.061.024.093.024.093s-.013-.03-.034-.09l-.09-.268L33.7,40.324c-.3-.892-.754-2.18-1.382-3.744-.159-.388-.321-.8-.513-1.216a1.057,1.057,0,0,0-.445-.5.537.537,0,0,0-.633.077.52.52,0,0,0,.043.646,1.165,1.165,0,0,0,.66.344,2.312,2.312,0,0,0,1.565-.21,2.228,2.228,0,0,0,1.068-1.25,2.132,2.132,0,0,0,.117-.85.842.842,0,0,0-.4-.716.479.479,0,0,0-.7.25,1.071,1.071,0,0,0,.048.866A1.944,1.944,0,0,0,34.571,35.1a2.264,2.264,0,0,0,1.756-.5,1.432,1.432,0,0,0,.523-.716.6.6,0,0,0-.051-.415.411.411,0,0,0-.324-.227.555.555,0,0,0-.391.123.668.668,0,0,0-.226.347,1.525,1.525,0,0,0,.041.844,2.075,2.075,0,0,0,2.615,1.372,1.031,1.031,0,0,0,.564-.471.456.456,0,0,0-.179-.6.74.74,0,0,0-.672-.026,1.367,1.367,0,0,0-.511.448,7.378,7.378,0,0,0-.65,1.144,11.5,11.5,0,0,0-.732,2.143c-.158.649-.258,1.217-.336,1.681s-.128.822-.167,1.071c-.018.12-.032.213-.043.279s-.018.094-.018.094" transform="translate(-14.544 -15.59)" fill="#263238"/>
            <path id="Trazado_601882" data-name="Trazado 601882" d="M38.474,51.472l-5.908-.028a.439.439,0,1,1,0-.878l5.908.028a.439.439,0,1,1,0,.878" transform="translate(-15.294 -24.074)" fill="#263238"/>
            <path id="Trazado_601883" data-name="Trazado 601883" d="M38.468,53l-5.908-.028a.439.439,0,1,0,0,.878l.649,0,.852,1.625a.571.571,0,0,0,.5.3l2.111.01a.571.571,0,0,0,.508-.3l.844-1.612.441,0a.439.439,0,1,0,0-.878" transform="translate(-15.289 -25.22)" fill="#263238"/>
            <g id="Grupo_886780" data-name="Grupo 886780" transform="translate(13.248 10.779)" opacity="0.2">
              <g id="Grupo_886779" data-name="Grupo 886779">
                <g id="Grupo_886778" data-name="Grupo 886778" clip-path="url(#clip-path-14)">
                  <path id="Trazado_601884" data-name="Trazado 601884" d="M25.854,23.812a5.992,5.992,0,0,0-.56,2.243,5.659,5.659,0,0,0,.207,1.857,4.1,4.1,0,0,0,.507,1.141c.167.245.3.355.355.326.131-.064-.089-.65-.193-1.6a6.683,6.683,0,0,1,.556-3.563,6.77,6.77,0,0,1,2.417-2.7c.8-.526,1.4-.732,1.367-.873-.014-.062-.183-.091-.48-.062a4.209,4.209,0,0,0-1.212.343,5.783,5.783,0,0,0-1.578,1.027,5.69,5.69,0,0,0-1.387,1.858" transform="translate(-25.287 -20.574)" fill="#fff"/>
                </g>
              </g>
            </g>
            <g id="Grupo_886783" data-name="Grupo 886783" transform="translate(19.37 10.242)" opacity="0.2">
              <g id="Grupo_886782" data-name="Grupo 886782">
                <g id="Grupo_886781" data-name="Grupo 886781" clip-path="url(#clip-path-15)">
                  <path id="Trazado_601885" data-name="Trazado 601885" d="M38.955,20.117c.024-.129-.066-.268-.244-.378a1.588,1.588,0,0,0-1.484-.015c-.18.107-.273.244-.251.374.05.261.488.4.986.4,0,0,.774-.081.993-.385" transform="translate(-36.972 -19.548)" fill="#fff"/>
                </g>
              </g>
            </g>
            <path id="Trazado_601886" data-name="Trazado 601886" d="M39.025,57.717c-.007.014-.156-.053-.406-.126a3.326,3.326,0,0,0-2,.048c-.246.084-.391.159-.4.145a1.2,1.2,0,0,1,.375-.208,2.9,2.9,0,0,1,2.041-.049,1.22,1.22,0,0,1,.385.19" transform="translate(-17.246 -27.311)" fill="#455a64"/>
            <path id="Trazado_601887" data-name="Trazado 601887" d="M39.079,54.68c0,.026-1.068.042-2.386.037s-2.385-.032-2.385-.059,1.068-.042,2.386-.037,2.385.033,2.385.059" transform="translate(-16.333 -26.004)" fill="#455a64"/>
            <path id="Trazado_601888" data-name="Trazado 601888" d="M39.082,56.043a3.356,3.356,0,0,1-.582.056c-.36.02-.859.039-1.409.043s-1.049,0-1.41-.017a3.434,3.434,0,0,1-.583-.045,3.693,3.693,0,0,1,.584-.023l1.408-.01,1.408-.016a3.76,3.76,0,0,1,.584.012" transform="translate(-16.71 -26.675)" fill="#455a64"/>
          </g>
        </g>
      </g>
    </g>
    <g id="Grupo_886789" data-name="Grupo 886789" transform="translate(1156.304 1802.443)">
      <g id="Grupo_886788" data-name="Grupo 886788" transform="translate(0 0)" clip-path="url(#clip-path-16)">
        <path id="Trazado_601889" data-name="Trazado 601889" d="M.2,49.279l9.825-2.148A26.755,26.755,0,0,0,53.3,30.2,26.433,26.433,0,0,0,30.42.546,26.609,26.609,0,0,0,.456,23.187,26.026,26.026,0,0,0,3.821,39.922l-.01-.01Z" transform="translate(-0.054 -0.084)" fill="#fff"/>
        <path id="Trazado_601890" data-name="Trazado 601890" d="M.144,49.2s.094-.217.257-.624l.719-1.8,2.74-6.907-.183.039.01.01a.111.111,0,0,0,.176-.133A25.993,25.993,0,0,1,6.139,10.337a26.536,26.536,0,0,1,8.036-6.668A26.825,26.825,0,0,1,24.99.518a27.192,27.192,0,0,1,11.78,1.9,26.576,26.576,0,0,1,5.452,2.955c.431.3.824.645,1.239.966a13.708,13.708,0,0,1,1.207,1.015,24.974,24.974,0,0,1,2.2,2.28c.34.409.7.8,1.022,1.221l.907,1.3.452.648.387.686.771,1.367c.24.462.43.948.646,1.419a13.116,13.116,0,0,1,.59,1.433,24.244,24.244,0,0,1,.874,2.947,26.259,26.259,0,0,1,.039,11.831,25.592,25.592,0,0,1-4.832,10.1,26.68,26.68,0,0,1-17,9.916,27.351,27.351,0,0,1-8.55-.084,26.687,26.687,0,0,1-12.144-5.456.115.115,0,0,0-.095-.022L2.69,48.6.8,49.036c-.427.1-.656.16-.656.16s.2-.034.614-.119l1.865-.383,7.369-1.538L9.9,47.132a26.73,26.73,0,0,0,12.228,5.608,27.612,27.612,0,0,0,8.662.129A27.019,27.019,0,0,0,48.083,42.856,25.984,25.984,0,0,0,53.02,32.592a26.67,26.67,0,0,0-.025-12.044,24.535,24.535,0,0,0-.888-3,13.459,13.459,0,0,0-.6-1.46c-.22-.48-.413-.975-.657-1.446l-.785-1.392-.394-.7-.46-.659-.924-1.324c-.329-.427-.694-.827-1.041-1.244A25.23,25.23,0,0,0,45,7,14.214,14.214,0,0,0,43.77,5.966c-.423-.326-.823-.682-1.263-.983a27.043,27.043,0,0,0-5.555-3.007A27.622,27.622,0,0,0,24.958.055a27.232,27.232,0,0,0-11,3.227,26.907,26.907,0,0,0-8.147,6.8A26.461,26.461,0,0,0,.006,27.053a26.124,26.124,0,0,0,3.664,12.84l.176-.133-.011-.01a.112.112,0,0,0-.157,0,.109.109,0,0,0-.026.04L1.016,46.825.354,48.607c-.146.4-.21.588-.21.588" transform="translate(0 0)" fill="#263238"/>
        <path id="Trazado_601891" data-name="Trazado 601891" d="M23.7,35.185a3.33,3.33,0,1,1-3.312-3.314A3.314,3.314,0,0,1,23.7,35.185" transform="translate(-4.624 -8.649)" fill="#263238"/>
        <path id="Trazado_601892" data-name="Trazado 601892" d="M38.937,35.269a3.33,3.33,0,1,1-3.312-3.314,3.313,3.313,0,0,1,3.312,3.314" transform="translate(-8.76 -8.672)" fill="#263238"/>
        <path id="Trazado_601893" data-name="Trazado 601893" d="M54.176,35.353a3.331,3.331,0,1,1-3.312-3.314,3.315,3.315,0,0,1,3.312,3.314" transform="translate(-12.895 -8.695)" fill="#263238"/>
      </g>
    </g>
    <g id="Grupo_886791" data-name="Grupo 886791" transform="matrix(0.875, -0.485, 0.485, 0.875, 1252.04, 1836.16)">
      <g id="Grupo_886790" data-name="Grupo 886790" transform="translate(0 0)" clip-path="url(#clip-path-17)">
        <path id="Trazado_601894" data-name="Trazado 601894" d="M6.152,17.884A21.136,21.136,0,0,1,12.084,6.59a21.7,21.7,0,0,1,30.462-.079,21.159,21.159,0,0,1,.08,30.145,21.7,21.7,0,0,1-30.462.079A21.129,21.129,0,0,1,5.985,24.259L.334,20.626Z" transform="translate(-0.138 -0.127)" fill="#fff"/>
        <path id="Trazado_601895" data-name="Trazado 601895" d="M6.013,17.757s-.142.05-.4.164l-1.134.508L.154,20.413,0,20.485l.144.094,5.631,3.664-.06-.094A21.188,21.188,0,0,0,9.767,34.28,21.687,21.687,0,0,0,11.86,36.7a24.194,24.194,0,0,0,2.575,2.158,21.023,21.023,0,0,0,6.39,3.2A22.106,22.106,0,0,0,36.353,41.02a21.538,21.538,0,0,0,12.63-19.629,21.7,21.7,0,0,0-1.211-6.916A20.159,20.159,0,0,0,44.543,8.5a20.978,20.978,0,0,0-4.712-4.518l-.648-.467c-.223-.143-.457-.269-.684-.4-.46-.259-.9-.542-1.369-.774a22.63,22.63,0,0,0-2.852-1.174A23.521,23.521,0,0,0,31.386.386C30.9.3,30.414.247,29.936.178l-.717-.1L28.5.051a22.8,22.8,0,0,0-5.487.357A22.7,22.7,0,0,0,18.2,1.981a22.417,22.417,0,0,0-7,5.067,21.329,21.329,0,0,0-3.6,5.419A20.356,20.356,0,0,0,6.269,16.35c-.106.46-.174.806-.207,1.041a2.633,2.633,0,0,0-.049.366,2.158,2.158,0,0,0,.092-.346c.052-.237.135-.589.254-1.039a21.9,21.9,0,0,1,1.405-3.831A21.518,21.518,0,0,1,11.4,7.22a22.328,22.328,0,0,1,6.94-4.946A22.528,22.528,0,0,1,23.083.754a22.5,22.5,0,0,1,5.4-.325l.7.033.7.1c.47.07.947.128,1.423.209a23.244,23.244,0,0,1,2.836.779,22.1,22.1,0,0,1,2.793,1.161c.456.229.89.509,1.34.764.223.132.451.256.671.4l.634.46a20.614,20.614,0,0,1,4.607,4.44,19.756,19.756,0,0,1,3.154,5.852,21.351,21.351,0,0,1,1.179,6.773A21.133,21.133,0,0,1,36.165,40.619a21.736,21.736,0,0,1-15.221,1.05,20.721,20.721,0,0,1-6.285-3.117,24.134,24.134,0,0,1-2.541-2.109,21.443,21.443,0,0,1-2.072-2.367,21.025,21.025,0,0,1-4.066-9.96l-.008-.062-.052-.033L.248,20.42l-.011.165L4.551,18.5l1.1-.546a2.708,2.708,0,0,0,.361-.195" transform="translate(0 0)" fill="#263238"/>
        <path id="Trazado_601896" data-name="Trazado 601896" d="M30.454,30.635a5.722,5.722,0,0,1,1.363-3.182,5.582,5.582,0,0,1,2.836-1.89A4.627,4.627,0,0,1,38.2,26.1a4.539,4.539,0,0,1,1.5,1.552,4.511,4.511,0,0,1,1.282-1.491,4.621,4.621,0,0,1,3.493-.825,5.6,5.6,0,0,1,2.982,1.654,5.737,5.737,0,0,1,1.62,3.062,6.935,6.935,0,0,1-.7,4.339,9.957,9.957,0,0,1-3.314,3.334c-2.2,1.433-5.091,3.233-5.091,3.233s-2.582-1.753-4.889-3A9.975,9.975,0,0,1,31.511,34.9a6.94,6.94,0,0,1-1.056-4.269" transform="translate(9.3 -25.921) rotate(30)" fill="#ff725e"/>
      </g>
    </g>
  </g>
</svg>
