<svg xmlns="http://www.w3.org/2000/svg" xmlns:xlink="http://www.w3.org/1999/xlink" width="276.715" height="230.712" viewBox="0 0 276.715 230.712">
  <defs>
    <clipPath id="clip-path">
      <rect id="Rectángulo_291369" data-name="Rectángulo 291369" width="217.061" height="217.091" fill="#5d8fb8"/>
    </clipPath>
    <clipPath id="clip-path-2">
      <rect id="Rectángulo_334411" data-name="Rectángulo 334411" width="276.715" height="228.712" fill="none"/>
    </clipPath>
    <clipPath id="clip-path-7">
      <rect id="Rectángulo_334406" data-name="Rectángulo 334406" width="17.124" height="11.829" fill="none"/>
    </clipPath>
    <clipPath id="clip-path-8">
      <rect id="Rectángulo_334407" data-name="Rectángulo 334407" width="11.415" height="11.99" fill="none"/>
    </clipPath>
  </defs>
  <g id="Grupo_886797" data-name="Grupo 886797" transform="translate(-1136.377 -2508.818)">
    <g id="Grupo_873838" data-name="Grupo 873838" transform="translate(0 1667.82)">
      <g id="Grupo_870717" data-name="Grupo 870717" transform="translate(1159.045 840.998)">
        <g id="Grupo_870714" data-name="Grupo 870714" clip-path="url(#clip-path)">
          <path id="Trazado_215321" data-name="Trazado 215321" d="M16.525,105.621c27.129-21.63-19.852-56.536-9.449-91.06s44.729.97,63.2,17.979S110.392,19.118,124.742,18.3s6.274,12.483,12.746,29.711,54.177,2.921,73.3,19.561-11.344,52.052-13.909,73.168,30.376,45.01,9.271,76.35l-104.846-.62c-10.55-3.243-17.432-5.813-17.432-5.813C-14.283,168.268-10.6,127.25,16.525,105.621" transform="translate(0 0)" fill="#5d8fb8"/>
        </g>
      </g>
      <path id="Trazado_264543" data-name="Trazado 264543" d="M209.053,582.976c0,3.35-40.736,6.066-90.986,6.066s-90.986-2.716-90.986-6.066,40.759-3.741,91.01-3.741,90.963.391,90.963,3.741" transform="translate(1172.728 478.425)" fill="#033f71" opacity="0.4"/>
    </g>
    <g id="Grupo_886715" data-name="Grupo 886715" transform="translate(1136.377 2510.818)">
      <g id="Grupo_886714" data-name="Grupo 886714" clip-path="url(#clip-path-2)">
        <g id="Grupo_886697" data-name="Grupo 886697">
          <g id="Grupo_886696" data-name="Grupo 886696" clip-path="url(#clip-path-2)">
            <path id="Trazado_601393" data-name="Trazado 601393" d="M380.267,241.632H291.128a5.067,5.067,0,0,0-5.067,5.067V279.56h-2.225a6.847,6.847,0,0,1-2.978-.715,13.68,13.68,0,1,0-.412,24.846,6.835,6.835,0,0,1,2.76-.609h2.855v32.046a5.067,5.067,0,0,0,5.067,5.067h89.139a4.127,4.127,0,0,0,4.127-4.127v-90.31a4.127,4.127,0,0,0-4.127-4.127" transform="translate(-129.986 -120.222)" fill="#e0e0e0"/>
            <path id="Trazado_601394" data-name="Trazado 601394" d="M380.142,241.528s.093,0,.279.008a2.116,2.116,0,0,1,.344.034,2.945,2.945,0,0,1,.472.1,4.106,4.106,0,0,1,2.514,1.939,4.3,4.3,0,0,1,.55,2.309q0,1.32.006,2.885c0,2.085.008,4.491.012,7.2.01,10.837.024,26.511.042,45.879.005,9.685.01,20.294.016,31.683q0,1.068,0,2.144a5.588,5.588,0,0,1-.083,1.1,4.3,4.3,0,0,1-.362,1.049,4.228,4.228,0,0,1-3.586,2.344l-8.97.014-18.713.005-40.181.008-21.254,0a5.384,5.384,0,0,1-2.667-.609,5.217,5.217,0,0,1-2.755-4.541q0-1.365,0-2.733V321.323q0-9.279,0-18.345l.13.131h-2.173c-.361,0-.725-.01-1.075.013a6.361,6.361,0,0,0-1.048.157,6.984,6.984,0,0,0-1.01.32c-.323.133-.663.286-1,.409a13.686,13.686,0,0,1-4.235.857,8.241,8.241,0,0,1-1.08-.014c-.359-.023-.719-.031-1.076-.066a15.208,15.208,0,0,1-4.128-1.138,13.869,13.869,0,0,1-6.22-5.611,15.046,15.046,0,0,1-1.537-3.9c-.082-.339-.119-.688-.18-1.031l-.083-.516c-.016-.173-.021-.348-.031-.521l-.052-1.041.058-1.039a13.676,13.676,0,0,1,2.976-7.56,13.8,13.8,0,0,1,14.451-4.663,13.737,13.737,0,0,1,1.852.662,9.532,9.532,0,0,0,1.786.7,6.663,6.663,0,0,0,1.884.207h1.922l-.12.121c0-9.555.006-18.752.009-27.531q0-1.646,0-3.272,0-.813,0-1.621a6.455,6.455,0,0,1,.143-1.625,5.164,5.164,0,0,1,1.668-2.737,5.1,5.1,0,0,1,2.918-1.225c4.19-.043,8.239-.009,12.184-.017l41.089.028,26.757.034,7.107.019,1.829.01c.41,0,.62.01.62.01s-.209.007-.62.01l-1.829.01-7.107.019-26.757.034-41.089.028c-3.937.012-8.012-.018-12.166.028a4.879,4.879,0,0,0-2.8,1.177,4.95,4.95,0,0,0-1.6,2.623,6.227,6.227,0,0,0-.136,1.575q0,.808,0,1.621,0,1.626,0,3.272c0,8.779.006,17.976.009,27.531v.12h-2.043a6.917,6.917,0,0,1-1.945-.214,9.789,9.789,0,0,1-1.824-.713,13.5,13.5,0,0,0-9.535-.506,13.648,13.648,0,0,0-6.475,4.442,13.425,13.425,0,0,0-2.918,7.422l-.057,1.021.052,1.022c.011.171.015.342.031.512l.082.506c.061.337.1.679.177,1.012a14.789,14.789,0,0,0,1.509,3.827,13.607,13.607,0,0,0,6.105,5.505,14.953,14.953,0,0,0,4.05,1.115c.351.034.7.042,1.057.064a8.1,8.1,0,0,0,1.059.014,13.435,13.435,0,0,0,4.155-.842c.337-.124.653-.266,1-.408a7.293,7.293,0,0,1,1.048-.332,6.694,6.694,0,0,1,1.09-.163c.371-.024.731-.011,1.092-.014h2.3v29.49q0,1.367,0,2.73a4.958,4.958,0,0,0,2.616,4.314,5.117,5.117,0,0,0,2.544.579l21.254,0,40.181.008,18.713.006,8.959-.007a4,4,0,0,0,3.4-2.219,4.061,4.061,0,0,0,.344-.993,5.3,5.3,0,0,0,.079-1.053q0-1.077,0-2.144c.006-11.388.011-22,.016-31.683.018-19.368.032-35.043.042-45.879,0-2.708.009-5.114.012-7.2q0-1.564.007-2.885a4.25,4.25,0,0,0-.531-2.283,4.094,4.094,0,0,0-2.475-1.939,2.979,2.979,0,0,0-.468-.1,2.21,2.21,0,0,0-.342-.041c-.184-.012-.278-.021-.278-.021" transform="translate(-129.862 -120.117)" fill="#263238"/>
            <path id="Trazado_601395" data-name="Trazado 601395" d="M408.2,316.479a115.735,115.735,0,0,0-1.608-18.123c-1.167-5.959-2.631-11.768-6.385-16.556l-35.116,1.866c-1.355,5.379-2.721,10.89-2.158,16.407.546,5.353,2.9,10.528,2.518,15.9-.268,3.793-1.881,7.34-3.072,10.953s-1.954,7.626-.539,11.159a4.711,4.711,0,0,0,1.681,2.281,6.248,6.248,0,0,0,3.428.668q21.057.029,42.1-.96-.424-11.795-.849-23.589" transform="translate(-179.648 -140.207)" fill="#263238"/>
            <path id="Trazado_601396" data-name="Trazado 601396" d="M432.007,311.8a26.445,26.445,0,0,1-8.517,20.025l-3.806-10.961" transform="translate(-208.811 -155.134)" fill="#263238"/>
            <path id="Trazado_601397" data-name="Trazado 601397" d="M381.021,266.742a16.26,16.26,0,0,1,10.866-1.3,34.354,34.354,0,0,1,10.277,4.223,16.769,16.769,0,0,1,4.912,3.809c2.373,2.967,4.718,7.84,4.947,11.624.185,3.059-.994,10.718-2.295,13.5-1.193,2.55-6.781,4.491-9.538,5.121l-25.3-29.252a12.747,12.747,0,0,1,6.136-7.718" transform="translate(-186.521 -131.878)" fill="#263238"/>
            <path id="Trazado_601398" data-name="Trazado 601398" d="M371.278,275.192l6.066-1.078c-3.316,7.849-4.215,25.8-6.112,34.1-2.236-3.225-7.428-13.047-7.15-16.954s-.011-16.735,7.2-16.069" transform="translate(-181.14 -136.383)" fill="#263238"/>
            <path id="Trazado_601399" data-name="Trazado 601399" d="M403.318,289.3a10.318,10.318,0,0,0-7.734-9.443L381.555,276.3c-6.037-.648-10.069,6.734-10.464,12.757-.44,6.692-.71,13.753.076,18.748,1.582,10.045,9.322,11.34,9.322,11.34s0,2.319.007,5.252l.158.369a10.825,10.825,0,0,0,19.583.64l3.118-35.957c0-.177-.021.127-.037-.147" transform="translate(-184.423 -137.451)" fill="#ffc09d"/>
            <path id="Trazado_601400" data-name="Trazado 601400" d="M375.365,315.566a1.291,1.291,0,0,0,1.246,1.3,1.237,1.237,0,0,0,1.338-1.158,1.291,1.291,0,0,0-1.245-1.3,1.237,1.237,0,0,0-1.34,1.158" transform="translate(-186.759 -156.43)" fill="#263238"/>
            <path id="Trazado_601401" data-name="Trazado 601401" d="M374.51,308.223c.16.168,1.144-.551,2.537-.545,1.393-.013,2.414.7,2.566.533.074-.075-.089-.378-.534-.7a3.574,3.574,0,0,0-2.053-.634,3.426,3.426,0,0,0-2.02.644c-.43.326-.575.629-.5.7" transform="translate(-186.324 -152.683)" fill="#263238"/>
            <path id="Trazado_601402" data-name="Trazado 601402" d="M400.623,315.217a1.291,1.291,0,0,0,1.246,1.3,1.237,1.237,0,0,0,1.339-1.158,1.292,1.292,0,0,0-1.246-1.3,1.237,1.237,0,0,0-1.339,1.159" transform="translate(-199.326 -156.256)" fill="#263238"/>
            <path id="Trazado_601403" data-name="Trazado 601403" d="M400.859,308.223c.161.168,1.145-.552,2.538-.545,1.392-.013,2.414.7,2.566.533.074-.075-.087-.378-.534-.7a3.566,3.566,0,0,0-2.054-.635,3.433,3.433,0,0,0-2.02.643c-.428.326-.575.63-.5.7" transform="translate(-199.434 -152.683)" fill="#263238"/>
            <path id="Trazado_601404" data-name="Trazado 601404" d="M388.691,319.787a9.327,9.327,0,0,0-2.264-.411c-.356-.037-.692-.109-.752-.35a1.792,1.792,0,0,1,.24-1.049l1.059-2.692c1.47-3.833,2.536-6.986,2.38-7.042s-1.474,3-2.945,6.835q-.531,1.418-1.014,2.708a2.034,2.034,0,0,0-.187,1.388.889.889,0,0,0,.584.519,2.431,2.431,0,0,0,.6.085,9.1,9.1,0,0,0,2.3.008" transform="translate(-191.624 -153.364)" fill="#263238"/>
            <path id="Trazado_601405" data-name="Trazado 601405" d="M403.615,354.5s-3.288,6.9-13.4,5.935l0-2.362a25.575,25.575,0,0,0,13.4-3.573" transform="translate(-194.149 -176.378)" fill="#ff9b6c"/>
            <path id="Trazado_601406" data-name="Trazado 601406" d="M401.743,298.569c.136.377,1.529.2,3.164.4,1.64.167,2.957.646,3.175.309.1-.162-.132-.517-.665-.882a5.573,5.573,0,0,0-4.829-.541c-.6.24-.9.535-.845.714" transform="translate(-199.88 -148.036)" fill="#263238"/>
            <path id="Trazado_601407" data-name="Trazado 601407" d="M375.4,299.706c.245.315,1.205-.01,2.361-.022,1.154-.053,2.132.216,2.358-.113.1-.16-.054-.475-.481-.774a3.435,3.435,0,0,0-3.8.109c-.409.323-.544.647-.436.8" transform="translate(-186.759 -148.404)" fill="#263238"/>
            <path id="Trazado_601408" data-name="Trazado 601408" d="M376.793,276.035a4.446,4.446,0,0,1,3.925-2.5,8.669,8.669,0,0,1,4.66,1.35c6.016,3.457,9.108,11.806,15.053,15.382,1.462.879,3.365.074,4.609,1.239s2.05,3.027,1.362,4.582a14.033,14.033,0,0,0,2.063-3.468,4.717,4.717,0,0,0-.167-3.914c-.515-.886-1.423-1.562-1.672-2.554a13.36,13.36,0,0,1,.089-2.685,5.83,5.83,0,0,0-.925-2.562,26.134,26.134,0,0,0-9.657-10.1,17.175,17.175,0,0,0-8.866-2.279,13.119,13.119,0,0,0-8.435,3.328c-1.329,1.232-2.727,2.507-2.038,4.179" transform="translate(-187.38 -133.6)" fill="#263238"/>
            <path id="Trazado_601409" data-name="Trazado 601409" d="M432.9,316.208c.107-.288,5.376-2.178,5.446,3.389.068,5.408-5.423,4.344-5.434,4.189s-.012-7.578-.012-7.578" transform="translate(-215.385 -157.058)" fill="#ffc09d"/>
            <path id="Trazado_601410" data-name="Trazado 601410" d="M436.22,323.468c.024-.017.1.065.256.137a.953.953,0,0,0,.709.008,2.328,2.328,0,0,0,1.066-2.1,3.1,3.1,0,0,0-.278-1.347,1.092,1.092,0,0,0-.72-.717.483.483,0,0,0-.557.263c-.071.152-.036.259-.065.269s-.118-.09-.076-.314a.6.6,0,0,1,.211-.341.716.716,0,0,1,.523-.143,1.33,1.33,0,0,1,1,.829,3.181,3.181,0,0,1,.343,1.5,2.444,2.444,0,0,1-1.361,2.348,1.019,1.019,0,0,1-.868-.135c-.17-.132-.2-.253-.181-.263" transform="translate(-217.035 -158.805)" fill="#ff9b6c"/>
            <path id="Trazado_601411" data-name="Trazado 601411" d="M408.216,293.162a2.111,2.111,0,0,1-.329-.182c-.208-.132-.529-.307-.912-.577a18.673,18.673,0,0,1-2.937-2.658,52.116,52.116,0,0,1-3.593-4.638,42.6,42.6,0,0,0-4.491-5.558,17.081,17.081,0,0,0-2.9-2.276,14.14,14.14,0,0,0-3.13-1.412,15.578,15.578,0,0,0-5.764-.7,14.938,14.938,0,0,0-3.861.752c-.447.135-.778.284-1.008.371a2.184,2.184,0,0,1-.355.125,2.142,2.142,0,0,1,.335-.171,9.283,9.283,0,0,1,1-.417,14.182,14.182,0,0,1,3.881-.836,15.478,15.478,0,0,1,5.846.661,14.224,14.224,0,0,1,3.187,1.422,17.073,17.073,0,0,1,2.945,2.307,41.435,41.435,0,0,1,4.5,5.6,55.567,55.567,0,0,0,3.537,4.655,20.122,20.122,0,0,0,2.863,2.7c.372.279.683.467.882.611a2.153,2.153,0,0,1,.3.225" transform="translate(-188.538 -136.792)" fill="#455a64"/>
            <path id="Trazado_601412" data-name="Trazado 601412" d="M427.463,306.652a8.291,8.291,0,0,1-.533,4.35c-.687,1.312-2.419,2.206-3.711,1.471-1.054-.6-1.37-1.94-1.548-3.134-.516-3.445-.753-6.927-1.3-10.367Z" transform="translate(-209.153 -148.751)" fill="#263238"/>
            <path id="Trazado_601413" data-name="Trazado 601413" d="M379.64,278.106c.006.031.481-.09,1.353-.118a9.361,9.361,0,0,1,3.6.654,11.934,11.934,0,0,1,2.256,1.155,24.355,24.355,0,0,1,2.327,1.767,27.85,27.85,0,0,1,4.557,4.882c.691.965,1.3,1.957,1.967,2.875a13.782,13.782,0,0,0,2.181,2.438,24.281,24.281,0,0,0,4.6,3.058c1.392.732,2.556,1.244,3.358,1.6l.931.394a1.529,1.529,0,0,0,.334.118,1.56,1.56,0,0,0-.308-.174l-.906-.446c-.787-.386-1.935-.928-3.306-1.679a25.112,25.112,0,0,1-4.515-3.079,13.72,13.72,0,0,1-2.124-2.4c-.651-.908-1.262-1.9-1.961-2.878a27.322,27.322,0,0,0-4.623-4.92,23.885,23.885,0,0,0-2.372-1.765,11.857,11.857,0,0,0-2.318-1.144,9.033,9.033,0,0,0-3.682-.571,6.366,6.366,0,0,0-1.007.139,1.534,1.534,0,0,0-.341.1" transform="translate(-188.887 -138.244)" fill="#455a64"/>
            <path id="Trazado_601414" data-name="Trazado 601414" d="M466.1,402.09l16.15,17.2c2.665,2.839,4.6,5.432,8.376,6.422,2.645.693,6.8.332,8.169-1.412,1.879-2.391,2.775-7.3.716-10.458S483,396.615,483,396.615Z" transform="translate(-231.905 -197.332)" fill="#ffc09d"/>
            <path id="Trazado_601415" data-name="Trazado 601415" d="M483.559,384.821s-16.783-19.906-23.162-19.906c0,0-4.034,7.06-4.168,10.908s12.911,21.871,12.911,21.871Z" transform="translate(-226.992 -181.56)" fill="#f9f7ec"/>
            <path id="Trazado_601416" data-name="Trazado 601416" d="M414.633,391.076,409.3,364.651l-17.256-.178c-6.357,7.188-12.851,12.338-20.252,4.068l-18.171,7.145,4.723,25.663,54.807-.035c2.136-7.033,1.481-10.238,1.481-10.238" transform="translate(-175.942 -181.341)" fill="#f9f7ec"/>
            <path id="Trazado_601417" data-name="Trazado 601417" d="M329.3,412.418c0-1.062,6.082-23.106,12.223-25.628l4.743,7.278,1.337,18.371Z" transform="translate(-163.839 -192.444)" fill="#f9f7ec"/>
            <path id="Trazado_601418" data-name="Trazado 601418" d="M471.576,416.909a3.293,3.293,0,0,1-.449-.5c-.276-.33-.664-.816-1.136-1.423-.945-1.213-2.208-2.919-3.611-4.795s-2.705-3.55-3.681-4.734c-.487-.593-.885-1.07-1.164-1.4a3.257,3.257,0,0,1-.411-.528,3.306,3.306,0,0,1,.486.46c.3.306.723.765,1.229,1.345,1.015,1.157,2.343,2.817,3.749,4.7s2.644,3.6,3.549,4.841l1.068,1.472a3.3,3.3,0,0,1,.368.559" transform="translate(-229.429 -200.776)" fill="#263238"/>
            <path id="Trazado_601419" data-name="Trazado 601419" d="M357.4,421.745a3.217,3.217,0,0,1-.2-.635c-.113-.413-.25-1.016-.4-1.767a36.624,36.624,0,0,1-.295-11.905c.109-.757.216-1.367.308-1.784a3.257,3.257,0,0,1,.165-.644,3.192,3.192,0,0,1-.065.661c-.061.422-.14,1.034-.225,1.79a43.185,43.185,0,0,0,.293,11.85c.122.751.231,1.358.314,1.777a3.237,3.237,0,0,1,.1.657" transform="translate(-177.206 -201.509)" fill="#263238"/>
            <path id="Trazado_601420" data-name="Trazado 601420" d="M357.6,328.7c.008.066.189.121.539.111a3.985,3.985,0,0,0,1.482-.379,6.241,6.241,0,0,0,1.954-1.453,7.9,7.9,0,0,0,1.63-2.784,13.738,13.738,0,0,0,.686-3.758c.076-1.352.05-2.753,0-4.238-.117-2.964-.468-6.191-.86-9.543s-.754-6.524-.9-9.406a54.253,54.253,0,0,1,.092-7.64c.381-4.335,1.294-6.929.989-7.041-.067-.025-.189.112-.364.4-.087.144-.187.325-.3.541s-.217.476-.341.767a24.433,24.433,0,0,0-1.43,5.148,42.085,42.085,0,0,0-.546,7.892c.044,2.974.357,6.216.749,9.577s.795,6.533,1.011,9.418c.1,1.44.191,2.822.191,4.074a13.557,13.557,0,0,1-.371,3.389,6.928,6.928,0,0,1-2.59,3.969c-.949.67-1.646.8-1.62.961" transform="translate(-177.92 -140.588)" fill="#263238"/>
            <path id="Trazado_601421" data-name="Trazado 601421" d="M393.7,335.493a2.5,2.5,0,0,1,2.2-1.009,2.287,2.287,0,0,1,1.607.779,1.43,1.43,0,0,1,.174,1.637,1.684,1.684,0,0,1-1.8.527,5.268,5.268,0,0,1-1.812-.983,1.525,1.525,0,0,1-.411-.392.458.458,0,0,1-.018-.513" transform="translate(-195.819 -166.417)" fill="#ff9b6c"/>
            <path id="Trazado_601422" data-name="Trazado 601422" d="M396.361,331.518c-.226,0-.17,1.491-1.416,2.6s-2.854,1.008-2.857,1.218c-.018.094.368.277,1.046.269a3.759,3.759,0,0,0,2.388-.932,3.235,3.235,0,0,0,1.091-2.178c.033-.628-.149-.991-.252-.979" transform="translate(-195.08 -164.944)" fill="#263238"/>
            <path id="Trazado_601423" data-name="Trazado 601423" d="M438.4,319.18c1.9,6.911.288,16.147,2.17,21.7s3.252,11.707,1.124,17.167l-2.931-6.452a8.275,8.275,0,0,1-.633,7.989c-1.567,2.317-9.466,4.292-12.272,4.159-2.841-14.981-2.057-26.437,2.848-38.018l3.787,4.185,3.411-1.459Z" transform="translate(-211.065 -158.805)" fill="#263238"/>
            <path id="Trazado_601424" data-name="Trazado 601424" d="M392.988,309.177a10.426,10.426,0,0,1,.243-1.571,6.161,6.161,0,0,1,.728-1.705,6.481,6.481,0,0,1,4.357-3,6.493,6.493,0,0,1,3.372.284,6.047,6.047,0,0,1,1.622.87,5.87,5.87,0,0,1,1.355,1.355,6.317,6.317,0,0,1,0,7.534,5.845,5.845,0,0,1-1.355,1.355,6.029,6.029,0,0,1-1.622.87,6.5,6.5,0,0,1-3.373.284,6.484,6.484,0,0,1-4.356-3,6.163,6.163,0,0,1-.728-1.706,10.419,10.419,0,0,1-.243-1.571.414.414,0,0,0-.005.1c0,.081,0,.183.005.309a3.026,3.026,0,0,0,.041.5,4.6,4.6,0,0,0,.124.676,6.1,6.1,0,0,0,.706,1.745,6.569,6.569,0,0,0,4.424,3.108,6.646,6.646,0,0,0,3.47-.274,6.225,6.225,0,0,0,1.675-.89,6.038,6.038,0,0,0,1.4-1.394,6.5,6.5,0,0,0,0-7.772,7.5,7.5,0,0,0-.65-.761,7.347,7.347,0,0,0-.751-.632,6.21,6.21,0,0,0-1.675-.89,6.644,6.644,0,0,0-3.469-.274,6.567,6.567,0,0,0-4.424,3.108,6.1,6.1,0,0,0-.706,1.745,4.593,4.593,0,0,0-.124.675,3.03,3.03,0,0,0-.041.5c0,.126,0,.228-.005.309a.414.414,0,0,0,.005.1" transform="translate(-195.525 -150.567)" fill="#455a64"/>
            <path id="Trazado_601425" data-name="Trazado 601425" d="M363.9,308.62a10.425,10.425,0,0,1,.243-1.571,6.156,6.156,0,0,1,.728-1.705,6.482,6.482,0,0,1,4.357-3,6.494,6.494,0,0,1,3.372.284,6.047,6.047,0,0,1,1.622.87,5.871,5.871,0,0,1,1.355,1.355,6.317,6.317,0,0,1,0,7.534,5.847,5.847,0,0,1-1.355,1.355,6.037,6.037,0,0,1-1.622.87,6.5,6.5,0,0,1-3.373.284,6.486,6.486,0,0,1-4.357-3,6.177,6.177,0,0,1-.727-1.706,10.415,10.415,0,0,1-.243-1.571.412.412,0,0,0-.005.105c0,.081,0,.183.005.309a3.025,3.025,0,0,0,.041.5,4.533,4.533,0,0,0,.124.676,6.1,6.1,0,0,0,.706,1.745,6.569,6.569,0,0,0,4.424,3.108,6.646,6.646,0,0,0,3.47-.274,6.228,6.228,0,0,0,1.675-.89,7.535,7.535,0,0,0,.751-.633,7.442,7.442,0,0,0,.649-.761,6.5,6.5,0,0,0,0-7.772,7.5,7.5,0,0,0-.65-.761,7.358,7.358,0,0,0-.751-.632,6.211,6.211,0,0,0-1.675-.89,6.649,6.649,0,0,0-3.469-.274,6.57,6.57,0,0,0-4.424,3.108,6.1,6.1,0,0,0-.706,1.745,4.528,4.528,0,0,0-.124.675,3.033,3.033,0,0,0-.041.5c0,.126,0,.228-.005.309a.412.412,0,0,0,.005.105" transform="translate(-181.054 -150.29)" fill="#455a64"/>
            <path id="Trazado_601426" data-name="Trazado 601426" d="M389.578,312.844c.027.016.1-.083.256-.2a1.216,1.216,0,0,1,1.368-.107c.168.09.26.176.284.156s-.034-.14-.2-.277a1.146,1.146,0,0,0-1.549.121c-.145.161-.179.293-.156.3" transform="translate(-193.828 -155.319)" fill="#455a64"/>
            <path id="Trazado_601427" data-name="Trazado 601427" d="M418.49,312.37a80.288,80.288,0,0,0,7.936,1.665,80.265,80.265,0,0,0-7.936-1.665" transform="translate(-208.216 -155.414)" fill="#455a64"/>
            <path id="Trazado_601428" data-name="Trazado 601428" d="M412.527,315.618a1.021,1.021,0,0,0,.39-.165,3.422,3.422,0,0,0,.856-.772,5.589,5.589,0,0,0,.862-1.472,5.9,5.9,0,0,0,.376-2.053,6.313,6.313,0,0,0-1.108-3.578,5.289,5.289,0,0,0-.748-.871,1.658,1.658,0,0,0-.332-.259,11.333,11.333,0,0,1,.958,1.21,6.521,6.521,0,0,1,1.023,3.5,5.969,5.969,0,0,1-.347,1.987,5.852,5.852,0,0,1-.8,1.45,3.881,3.881,0,0,1-.785.795c-.216.154-.353.214-.346.231" transform="translate(-205.249 -152.47)" fill="#fff"/>
            <path id="Trazado_601429" data-name="Trazado 601429" d="M406.827,326a3.565,3.565,0,0,0,2.222-.714,77.725,77.725,0,0,0-2.222.714" transform="translate(-202.413 -161.841)" fill="#fff"/>
            <path id="Trazado_601430" data-name="Trazado 601430" d="M376.545,303.829c0,.035.442.037,1.129.186a6.429,6.429,0,0,1,4.272,3.133c.347.609.478,1.029.512,1.018a.839.839,0,0,0-.064-.3,4.931,4.931,0,0,0-.32-.782,6.021,6.021,0,0,0-4.373-3.208,4.992,4.992,0,0,0-.846-.073.85.85,0,0,0-.31.029" transform="translate(-187.347 -151.153)" fill="#fff"/>
            <path id="Trazado_601431" data-name="Trazado 601431" d="M387.65,316.518a2.48,2.48,0,0,0,.378-2.112,15.428,15.428,0,0,1-.378,2.112" transform="translate(-192.867 -156.43)" fill="#fff"/>
            <path id="Trazado_601432" data-name="Trazado 601432" d="M416.766,373.312c.113.07.533-.328,1.118-1.177a17.362,17.362,0,0,0,1.917-3.91,30.889,30.889,0,0,0,1.46-6.268,75.36,75.36,0,0,0,.561-7.763c.084-2.73.161-5.305.36-7.625a42.542,42.542,0,0,1,.909-6.081c.781-3.409,1.833-5.367,1.551-5.531-.115-.068-.526.338-1.1,1.2a17.667,17.667,0,0,0-1.857,3.937,31.754,31.754,0,0,0-1.4,6.278c-.311,2.393-.447,5.026-.531,7.76s-.173,5.3-.388,7.614a40.968,40.968,0,0,1-.969,6.066c-.825,3.4-1.918,5.335-1.638,5.5" transform="translate(-207.336 -166.651)" fill="#263238"/>
            <path id="Trazado_601433" data-name="Trazado 601433" d="M437.347,330.729c-.012.015.123.109.3.331a2.126,2.126,0,0,1,.444,1.1,1.911,1.911,0,0,1-.583,1.59,2.09,2.09,0,0,1-1.977.552,2.249,2.249,0,0,1-1.56-1.358,2.468,2.468,0,0,1,0-1.728,1.636,1.636,0,0,1,.731-.91,1.409,1.409,0,0,1,.426-.113c0-.005-.039-.02-.118-.024a.779.779,0,0,0-.341.064,1.653,1.653,0,0,0-.834.929,2.567,2.567,0,0,0-.042,1.848,2.416,2.416,0,0,0,1.689,1.49,2.224,2.224,0,0,0,1.206-.032,2.365,2.365,0,0,0,.956-.586,2.15,2.15,0,0,0,.527-.864,2.04,2.04,0,0,0,.066-.876,2.079,2.079,0,0,0-.528-1.132,1.013,1.013,0,0,0-.365-.279" transform="translate(-215.756 -164.271)" fill="#e0e0e0"/>
            <path id="Trazado_601434" data-name="Trazado 601434" d="M490.048,335.8l-.518-6.553-1.34-8.274L486.11,314.2s-.423-.642-1.247-.034.348,4.3.348,4.3l.445,2.825s-.277,2.247-.463,2.08-1.152-3.941-1.152-3.941l-2.488-8.061a1.109,1.109,0,0,0-1.459-.419c-.546.238-.826,1.094-.623,2.307s.961,3.214,1.093,3.9,1.025,4.64,1.025,4.64l-3.8-8.908s-.843-2.94-2.052-2.375-.137,2.625.02,3.548,2.655,7,2.692,8.76-.337.921-.337.921l-1.861-5.019c-.82-2.213-1.829-3.437-2.838-3.5s.892,5.068.892,5.068l2.478,7.184-.163,2.389-1.88-1.933s-.349-2.759-2.211-3.725c-1.892-.982-2.17.377-2.17.377l4.4,10.351c.956,1.667,6.287,4.536,6.287,4.536l2.049,10.632,11.142-1.854Z" transform="translate(-234.026 -154.459)" fill="#ffc09d"/>
            <path id="Trazado_601435" data-name="Trazado 601435" d="M490.094,349.677a11.841,11.841,0,0,1-1.6-1.07,6.1,6.1,0,0,0-4.213-1.225,3.267,3.267,0,0,0-1.915.934l-.167.179-.183-.193c-.807-.851-1.654-1.578-2.168-2.112-.537-.53-.813-.9-.765-.932a6.178,6.178,0,0,1,.954.725,30.643,30.643,0,0,1,2.341,2.04l-.35-.015a3.606,3.606,0,0,1,2.18-1.107,5.013,5.013,0,0,1,2.641.34,7.942,7.942,0,0,1,1.847,1.086,5.684,5.684,0,0,1,1.4,1.35" transform="translate(-238.358 -171.779)" fill="#ff9b6c"/>
            <path id="Trazado_601436" data-name="Trazado 601436" d="M498.317,400.006l-5.957-33.128,9.02-3.909,12.171,36.514Z" transform="translate(-244.969 -180.592)" fill="#ffc09d"/>
            <path id="Trazado_601437" data-name="Trazado 601437" d="M498.788,402.925a8.646,8.646,0,0,1-.4-1.337c-.229-.868-.543-2.127-.909-3.689-.737-3.122-1.681-7.452-2.652-12.247s-1.8-9.15-2.368-12.306l-.654-3.74a8.624,8.624,0,0,1-.181-1.383,8.686,8.686,0,0,1,.346,1.351l.788,3.715c.651,3.21,1.525,7.517,2.491,12.279s1.867,9.059,2.528,12.266c.316,1.515.577,2.768.775,3.717a8.663,8.663,0,0,1,.236,1.375" transform="translate(-244.6 -183.206)" fill="#ff9b6c"/>
          </g>
        </g>
        <g id="Grupo_886699" data-name="Grupo 886699">
          <g id="Grupo_886698" data-name="Grupo 886698" clip-path="url(#clip-path-2)">
            <path id="Trazado_601438" data-name="Trazado 601438" d="M335.22,68.954a14.014,14.014,0,0,0-5.417,1.081,7.041,7.041,0,0,1-2.714.567l-3.559-.211-.176-29.863a4.856,4.856,0,0,0-4.985-4.716l-3.947.014H229.546a4.771,4.771,0,0,0-4.825,4.716V70.212H222.6a6.5,6.5,0,0,1-2.835-.665c-2.241-1.086-6.424-2.483-9.276-2.009-5.66.94-11.409,6.638-11.409,12.25A14.968,14.968,0,0,0,214.132,95.1a13.188,13.188,0,0,0,5.243-1.081,5.269,5.269,0,0,1,2.326-.558l3.02-.009v29.383a4.771,4.771,0,0,0,4.825,4.716H318.21a4.856,4.856,0,0,0,4.985-4.716l.158-30.559,3.116.218a7.049,7.049,0,0,1,2.929.665,14.088,14.088,0,0,0,8.142,1.076A13.066,13.066,0,0,0,348.6,83.123c.888-7.675-5.442-14.169-13.375-14.169" transform="translate(-99.052 -17.818)" fill="#ebebeb"/>
            <path id="Trazado_601439" data-name="Trazado 601439" d="M335.093,68.849s.308.008.913.035l.509.023c.187.019.391.056.614.087l.722.109c.259.038.525.127.814.194a13.425,13.425,0,0,1,8.213,6.064,11.345,11.345,0,0,1,.784,1.581,12.2,12.2,0,0,1,.59,1.767c.086.307.118.631.181.952.028.161.056.323.084.486s.023.331.035.5c.016.335.046.673.051,1.015q-.029.514-.059,1.039a12,12,0,0,1-1.16,4.218,12.818,12.818,0,0,1-2.833,3.8,13.868,13.868,0,0,1-9.684,3.666,14.066,14.066,0,0,1-5.646-1.27,6.99,6.99,0,0,0-2.9-.649l-3.1-.215.089-.083q-.033,7.291-.07,15.484-.019,4.091-.039,8.393-.01,2.15-.021,4.351,0,1.1-.01,2.213a4.634,4.634,0,0,1-.507,2.2,5.065,5.065,0,0,1-3.617,2.643,14.829,14.829,0,0,1-2.324.09h-2.334l-9.567,0-20.184.007-44.061.01H230.368c-.491,0-.977.013-1.485-.029a5.013,5.013,0,0,1-2.741-1.189,4.8,4.8,0,0,1-1.554-2.566,6.408,6.408,0,0,1-.123-1.51v-4.492q0-12.019,0-24.44l.131.131-3.109.01a4.471,4.471,0,0,0-1.514.277c-.489.175-.978.416-1.495.591a13.237,13.237,0,0,1-3.2.709,10.553,10.553,0,0,1-1.658.042,12.625,12.625,0,0,1-1.657-.136,15.116,15.116,0,0,1-11.275-7.7,15.785,15.785,0,0,1-1.815-6.691,9.187,9.187,0,0,1,.346-3.446,12.233,12.233,0,0,1,.6-1.625,14.4,14.4,0,0,1,.844-1.505,16.067,16.067,0,0,1,1-1.4c.384-.424.743-.871,1.166-1.256A15.291,15.291,0,0,1,205.5,69.23a13.719,13.719,0,0,1,3.055-1.464,9.148,9.148,0,0,1,3.324-.549,20,20,0,0,1,6.46,1.515c.512.2,1.017.433,1.507.665a6.549,6.549,0,0,0,1.525.481,7.809,7.809,0,0,0,1.6.1h1.622l-.127.127q0-14.629.005-28.468c.008-.578-.021-1.143.032-1.736a4.654,4.654,0,0,1,.517-1.673,4.952,4.952,0,0,1,2.554-2.279,4.823,4.823,0,0,1,1.693-.343c.571-.015,1.129,0,1.692-.007h3.354l13.117,0,47.061.02,19.82.012,2.284-.007,1.125,0a9.639,9.639,0,0,1,1.122.036,5.1,5.1,0,0,1,3.667,2.192,4.654,4.654,0,0,1,.749,1.98c.074.706.032,1.383.049,2.063q.01,2.031.02,3.967c.048,10.322.087,18.58.115,24.42l-.038-.04,2.831.172a6.6,6.6,0,0,0,2.412-.173c.725-.178,1.337-.5,1.93-.682a13.909,13.909,0,0,1,3.792-.706c.485-.019.724-.008.724-.008l-.723.029a14.506,14.506,0,0,0-2.174.292,14.211,14.211,0,0,0-1.6.442c-.588.186-1.2.509-1.931.693a6.667,6.667,0,0,1-2.43.184l-2.833-.163-.037,0v-.037c-.042-5.84-.1-14.1-.175-24.42q-.014-1.935-.027-3.967c-.017-.674.022-1.371-.051-2.044a4.509,4.509,0,0,0-.728-1.913,4.941,4.941,0,0,0-3.557-2.118,9.422,9.422,0,0,0-1.1-.033l-1.125,0-2.284.01-19.82.012-47.061.02-13.117,0H230.96a8.574,8.574,0,0,0-3.3.335,4.71,4.71,0,0,0-2.428,2.168,4.418,4.418,0,0,0-.49,1.587c-.049.55-.023,1.137-.03,1.709q0,13.817.005,28.468v.127h-1.75a8.1,8.1,0,0,1-1.646-.105,6.805,6.805,0,0,1-1.586-.5c-.5-.235-.986-.459-1.5-.66a19.757,19.757,0,0,0-6.372-1.5,8.9,8.9,0,0,0-3.236.537,13.488,13.488,0,0,0-3,1.438,15.052,15.052,0,0,0-2.628,2.079c-.417.378-.769.818-1.147,1.235a15.827,15.827,0,0,0-.985,1.372,14.169,14.169,0,0,0-.827,1.476,12.009,12.009,0,0,0-.586,1.588,8.923,8.923,0,0,0-.336,3.361,15.523,15.523,0,0,0,1.784,6.58,14.856,14.856,0,0,0,11.08,7.57,12.365,12.365,0,0,0,1.628.134,10.275,10.275,0,0,0,1.626-.041,13,13,0,0,0,3.141-.695c.5-.171.98-.407,1.494-.592a4.753,4.753,0,0,1,1.6-.292l3.113-.01h.131v.131q0,12.409,0,24.44v4.492a6.127,6.127,0,0,0,.116,1.453,4.554,4.554,0,0,0,1.471,2.429,4.757,4.757,0,0,0,2.6,1.128c.472.039.969.026,1.459.028h10.207l44.061.01,20.184.007,9.567,0h2.334a14.7,14.7,0,0,0,2.287-.084,4.856,4.856,0,0,0,3.472-2.531,4.426,4.426,0,0,0,.487-2.112q.007-1.113.013-2.213.013-2.2.025-4.351.025-4.3.048-8.393.048-8.181.09-15.484v-.089l.088.006,3.1.219a7.159,7.159,0,0,1,2.958.667,13.91,13.91,0,0,0,5.583,1.265,13.731,13.731,0,0,0,9.592-3.613,12.693,12.693,0,0,0,2.813-3.759,11.883,11.883,0,0,0,1.158-4.174q.032-.521.062-1.03c0-.34-.033-.675-.048-1.007-.012-.165-.012-.332-.033-.494s-.055-.323-.082-.482c-.061-.318-.092-.639-.177-.944a12.179,12.179,0,0,0-.58-1.755,11.283,11.283,0,0,0-.773-1.572,12.953,12.953,0,0,0-4.145-4.3,13.085,13.085,0,0,0-4-1.765c-.288-.069-.553-.16-.811-.2l-.719-.114c-.222-.033-.425-.072-.611-.092L336,68.907c-.6-.035-.911-.058-.911-.058" transform="translate(-98.924 -17.713)" fill="#263238"/>
            <path id="Trazado_601440" data-name="Trazado 601440" d="M421.35,192.1c-.36-.824-1.245-3.32-1.909-3.925-2.987-2.719-5.922-3.405-9.2-5.76l.664,26.543c.978,1.422,3.069,1.256,4.689.661a7.361,7.361,0,0,0,3.68-3.484,20.72,20.72,0,0,0,2.775-9.642,13.24,13.24,0,0,0-.694-4.394" transform="translate(-204.11 -90.759)" fill="#00f3be"/>
            <path id="Trazado_601441" data-name="Trazado 601441" d="M316.171,140.525c-3.152-1.933-13.488-3.77-15.809-3.977l-2.9-2.373-20.392-1.233-2.993,4.126-10.453,2.782a14.069,14.069,0,0,0-7.058,4.431l-6.222,4.9.01,21.192c0,3.261,1.665,5.433,4.927,5.433l62.648-.156c3.834,6.737,8.693,10.315,16.9,9.736l-1.221-27.33s-13.009-14.8-17.444-17.526" transform="translate(-124.559 -66.144)" fill="#00f3be"/>
            <path id="Trazado_601442" data-name="Trazado 601442" d="M385.012,168.3a.928.928,0,0,1,.043.251c.02.2.043.435.072.724.059.629.124,1.541.189,2.669.13,2.256.226,5.378.174,8.826s-.219,6.567-.356,8.821c-.075,1.1-.137,2-.183,2.668-.026.29-.047.529-.064.725a.941.941,0,0,1-.041.252.983.983,0,0,1-.012-.254c0-.2.009-.437.015-.728.025-.671.059-1.574.1-2.672.089-2.256.225-5.372.279-8.815s-.014-6.559-.1-8.814c-.044-1.1-.08-2-.107-2.671-.009-.291-.017-.531-.023-.727a.952.952,0,0,1,.01-.255" transform="translate(-191.471 -83.738)" fill="#263238"/>
            <path id="Trazado_601443" data-name="Trazado 601443" d="M276.244,185.488c-.069.02-1.444-4.651-3.07-10.43s-2.887-10.482-2.818-10.5,1.444,4.65,3.07,10.431,2.887,10.481,2.817,10.5" transform="translate(-134.512 -81.873)" fill="#263238"/>
            <path id="Trazado_601444" data-name="Trazado 601444" d="M316.806,152.8a.5.5,0,0,1-.139-.055l-.39-.191c-.338-.173-.83-.439-1.44-.8a31.538,31.538,0,0,1-4.742-3.488l.185-.1a24.507,24.507,0,0,1,.312,6.071l-.017.226-.185-.128-.966-.671-.978-.722a41.991,41.991,0,0,1-8.224-8.325c-.892-1.208-1.544-2.233-1.982-2.949-.216-.36-.374-.645-.482-.837a1.6,1.6,0,0,1-.151-.3,1.678,1.678,0,0,1,.2.274l.523.81c.463.7,1.136,1.7,2.043,2.892a44.1,44.1,0,0,0,8.235,8.228l.972.718.959.668-.2.1a25.013,25.013,0,0,0-.275-6.013l-.054-.32.24.217a34.412,34.412,0,0,0,4.661,3.543c.6.379,1.077.662,1.4.854a3.817,3.817,0,0,1,.5.307" transform="translate(-148.072 -69.918)" fill="#263238"/>
            <path id="Trazado_601445" data-name="Trazado 601445" d="M344.117,140.117a.875.875,0,0,1,.035.244c.015.16.031.4.043.7.025.611.039,1.5-.011,2.591a33.813,33.813,0,0,1-.4,3.824c-.116.715-.258,1.461-.438,2.231a7.567,7.567,0,0,1-.9,2.294,3.563,3.563,0,0,1-1.151,1.144l-.2.121.005-.235c.044-2.026.085-3.892.12-5.472l.2.045a22.859,22.859,0,0,1-1.756,3.213,7.5,7.5,0,0,1-.62.8,1.422,1.422,0,0,1-.262.243,1.6,1.6,0,0,1,.214-.284c.137-.186.341-.458.567-.83a26.642,26.642,0,0,0,1.663-3.232l.21-.477-.007.522c-.021,1.58-.046,3.446-.073,5.472l-.2-.114a3.317,3.317,0,0,0,1.063-1.062,7.405,7.405,0,0,0,.868-2.213c.181-.759.328-1.5.45-2.21a37.853,37.853,0,0,0,.451-3.8c.073-1.086.087-1.969.094-2.579a7.851,7.851,0,0,1,.024-.949" transform="translate(-168.562 -69.714)" fill="#263238"/>
            <path id="Trazado_601446" data-name="Trazado 601446" d="M406.568,215.838a4.226,4.226,0,0,1-.73.228,11.815,11.815,0,0,1-2.062.317,10.955,10.955,0,0,1-3.091-.221,9.023,9.023,0,0,1-1.753-.559,6.618,6.618,0,0,1-1.7-1.029,5.24,5.24,0,0,1-1.2-1.586,8.305,8.305,0,0,1-.652-1.723,12.435,12.435,0,0,1-.361-3.078c0-.881.049-1.59.087-2.08a4.126,4.126,0,0,1,.09-.758,4.309,4.309,0,0,1,.011.763c-.006.49-.03,1.2,0,2.072a12.975,12.975,0,0,0,.409,3.018,8.285,8.285,0,0,0,.646,1.667,5.063,5.063,0,0,0,1.146,1.506,7.967,7.967,0,0,0,3.33,1.551,11.352,11.352,0,0,0,3.029.271,23.884,23.884,0,0,0,2.8-.36" transform="translate(-196.54 -102.17)" fill="#263238"/>
            <path id="Trazado_601447" data-name="Trazado 601447" d="M394.415,187.141c.03.043-.652.483-1.6,1.372a14.847,14.847,0,0,0-1.524,1.685,14.8,14.8,0,0,0-2.508,4.931,14.884,14.884,0,0,0-.464,2.224c-.162,1.287-.116,2.1-.168,2.1a2.391,2.391,0,0,1-.058-.566,5.362,5.362,0,0,1-.008-.668c.011-.26.008-.559.051-.884a13.279,13.279,0,0,1,.415-2.269,13.986,13.986,0,0,1,2.55-5.014,13.319,13.319,0,0,1,1.589-1.672c.238-.227.481-.4.685-.562a5.313,5.313,0,0,1,.545-.387,2.368,2.368,0,0,1,.492-.287" transform="translate(-193.087 -93.11)" fill="#263238"/>
            <path id="Trazado_601448" data-name="Trazado 601448" d="M399.448,157.306l4.531-30.421,8.2,1.25s1.936,25.57,1.579,33.352c-.112,2.43.057,6.507-1.589,9.164-2.811,4.538-11.058,4.546-13.61-.142-1.328-1.994-.756-4.825-.473-6.262Z" transform="translate(-197.88 -63.131)" fill="#ae7461"/>
            <path id="Trazado_601449" data-name="Trazado 601449" d="M413.549,106.415l1.378-6.049,1.125-7.83.041-6.688s-.2-.7-1.106-.379-.9,3.973-.9,3.973l-.4,2.67s-.88,1.947-1,1.745.075-3.872.075-3.872l.037-7.958a1.038,1.038,0,0,0-1.189-.785c-.556.061-1.048.755-1.206,1.9s-.042,3.164-.118,3.82-.386,4.467-.386,4.467l-.9-9.086s.071-2.885-1.17-2.713-.861,2.327-.979,3.2.412,7.045-.051,8.645-.56.735-.56.735-.143-2.819-.256-5.042-.672-3.608-1.559-3.943-.626,4.816-.626,4.816l.2,7.165-.817,2.107-1.141-2.267s.463-2.583-.933-3.973c-1.419-1.413-2.049-.267-2.049-.267l1.031,10.555c.388,1.769,4.356,5.843,4.356,5.843l-1.152,10.152,10.5,1.442Z" transform="translate(-198.554 -39.618)" fill="#ae7461"/>
            <path id="Trazado_601450" data-name="Trazado 601450" d="M413.508,117.85a11.171,11.171,0,0,1-1.137-1.413,5.7,5.7,0,0,0-3.429-2.28,3.059,3.059,0,0,0-1.978.307l-.2.115-.11-.225c-.484-.992-1.038-1.883-1.348-2.509-.332-.627-.476-1.034-.423-1.054a5.813,5.813,0,0,1,.651.92,28.884,28.884,0,0,1,1.523,2.492l-.31-.111a3.374,3.374,0,0,1,2.264-.389,4.679,4.679,0,0,1,2.27,1.044,7.45,7.45,0,0,1,1.349,1.495,5.348,5.348,0,0,1,.877,1.608" transform="translate(-201.441 -55.123)" fill="#6f4439"/>
            <path id="Trazado_601451" data-name="Trazado 601451" d="M286.63,204.6c-1.439-1.268-3.761,1.778-3.761,1.778-.451-.948-3.455-.842-3.921.517-.3-.7-.248-1.124-.873-1.555a2.42,2.42,0,0,0-2.167-.345,1.732,1.732,0,0,0-1.139,1.775,2.851,2.851,0,0,0-5.072,1.306,1.169,1.169,0,0,0-.036.4.479.479,0,0,0,.077.166c.156.239.35.445.491.7.054.094.1.191.149.289a5.325,5.325,0,0,1,.422,1.416,4.732,4.732,0,0,0,.094.692,2.621,2.621,0,0,0,.228.392,7,7,0,0,1,.51,2.849,5.524,5.524,0,0,0,.8,3.029,2.037,2.037,0,0,0,2.777.593,1.388,1.388,0,0,0,1.168,1.417,2.005,2.005,0,0,0,1.791-.736,3.727,3.727,0,0,0,.766-1.846,1.532,1.532,0,0,0,1.652,1.34,2.361,2.361,0,0,0,1.825-1.356,5.425,5.425,0,0,0,.464-2.312c.022-.792.366-3.073.5-3.853,0,0,1.3-.008,1.757-.005l.344-.855c.517-1.356.925-2.223,1.3-3.446.283-.916.439-1.82-.159-2.346" transform="translate(-134.164 -101.645)" fill="#ae7461"/>
            <path id="Trazado_601452" data-name="Trazado 601452" d="M262.071,211.086a2.275,2.275,0,0,0-1.742.756,4.611,4.611,0,0,0-.306,2.835c0,.025,2.257-.006,2.257-.006h.56c.443.259.436,1.2.647,1.664a1.743,1.743,0,0,0,2.276.743,2.339,2.339,0,0,0,1.222-2.2,3.613,3.613,0,0,0-1.133-2.345,5.05,5.05,0,0,0-3.78-1.445" transform="translate(-129.332 -105.021)" fill="#ae7461"/>
            <path id="Trazado_601453" data-name="Trazado 601453" d="M279.66,208.7c.17-.007.41,2.695.536,6.032s.09,6.05-.079,6.056-.41-2.694-.536-6.033-.09-6.049.079-6.055" transform="translate(-139.066 -103.839)" fill="#6f4439"/>
            <path id="Trazado_601454" data-name="Trazado 601454" d="M288.087,209.108c.161-.022.6,2.418.6,5.464s-.412,5.489-.573,5.468c-.176-.02-.029-2.46-.042-5.467s-.165-5.446.011-5.466" transform="translate(-143.294 -104.04)" fill="#6f4439"/>
            <path id="Trazado_601455" data-name="Trazado 601455" d="M296.009,209.495c.172-.015.427,2.023.329,4.529a17.851,17.851,0,0,1-.462,4.509c-.179,0-.248-2.039-.153-4.528a25.048,25.048,0,0,1,.285-4.51" transform="translate(-147.114 -104.232)" fill="#6f4439"/>
            <path id="Trazado_601456" data-name="Trazado 601456" d="M266.844,211.6c-.012-.072.417-.208,1.067.022a3.407,3.407,0,0,1,1.833,1.793,6.849,6.849,0,0,1,.633,2.448c-.008.755-.531,1.019-.552.924-.054-.064.217-.348.118-.9a12.183,12.183,0,0,0-.753-2.205,3.7,3.7,0,0,0-1.46-1.666c-.5-.289-.886-.323-.886-.418" transform="translate(-132.766 -105.226)" fill="#6f4439"/>
            <path id="Trazado_601457" data-name="Trazado 601457" d="M311.189,11.8a4,4,0,0,0-4.568-3.439,5.123,5.123,0,0,0-6.777-2.068c-1.1.608-1.925,1.613-3,2.266a36.079,36.079,0,0,1-3.318,1.422,3.654,3.654,0,0,0-2.263,2.617,3.173,3.173,0,0,0,2.15,3.055,9.277,9.277,0,0,0,3.967.357,1.39,1.39,0,0,0-.411,1.788,2.805,2.805,0,0,0,1.539,1.242,6.1,6.1,0,0,0,6.259-1.156l2.5-1.919a4,4,0,0,0,3.917-4.165" transform="translate(-144.91 -2.852)" fill="#263238"/>
            <path id="Trazado_601458" data-name="Trazado 601458" d="M316.242,29.861a1.324,1.324,0,0,1-1.765-.032,1.789,1.789,0,0,1-.425-1.8,2.8,2.8,0,0,1,1.2-1.489,6.747,6.747,0,0,1,1.79-.755,12.538,12.538,0,0,1,2.949-.56,2.4,2.4,0,0,1,1.051.128,1,1,0,0,1,.64.788c.041.5-.4.893-.8,1.19a30.962,30.962,0,0,1-4.776,2.9" transform="translate(-156.214 -12.547)" fill="#ff725e"/>
            <path id="Trazado_601459" data-name="Trazado 601459" d="M284.674,28.237c-2.372-2.647-8.276-2.294-9.687-.573a4.5,4.5,0,0,0-5.907,1.918l-6.287,1.329a6.543,6.543,0,0,0-3.023,1.195,2.25,2.25,0,0,0-.55,2.928,3.412,3.412,0,0,0-1.476,5.448,2.379,2.379,0,0,0,.329,3.445,23.831,23.831,0,0,0-4.094,6.963,4.853,4.853,0,0,0-.337,3.306c.386,1.065,1.778,1.806,2.7,1.15a2.785,2.785,0,0,0-.152,3.006c-1.062.019-1.39,1.658-.666,2.435a3.876,3.876,0,0,0,2.971.849,5.118,5.118,0,0,1,3.082.548.968.968,0,0,1-.351.672,4.367,4.367,0,0,0-1.016,5.943c.126.178.243.342.345.49a9.556,9.556,0,0,0,3.07,2.189c2.393,1.269,3.825,1.042,6.5,1.449-.744,1.724,3.583,5.584,8.593,1.856A96.09,96.09,0,0,0,306.1,78.686c1.469.015,3.236-.172,3.9-1.484a3.648,3.648,0,0,0,3.365-1.076,10.777,10.777,0,0,0,1.992-3.091A6.4,6.4,0,0,0,320,67.3a7.908,7.908,0,0,0,3.023-5.6,4.641,4.641,0,0,0,2.706-6.247,28,28,0,0,0-2.994-8.689c1.687-.352,2.336-2.618,1.655-4.2s-2.206-2.608-3.653-3.543c1.257.344,2.365-1.23,2.074-2.5a4.973,4.973,0,0,0-2.537-2.831,23.671,23.671,0,0,0-5.2-2.365c-.584-2.221-3.4-4.765-5.467-5.761-8.343-4.02-14.2-5.064-24.926,2.676" transform="translate(-126.111 -11.179)" fill="#263238"/>
            <path id="Trazado_601460" data-name="Trazado 601460" d="M302.655,51.559c-.115-1.759-.407-3.5,1.336-3.767l17.792-5.364c5.737-.871,9.891,6.054,10.517,11.822.7,6.409,1.293,14.26.749,19.09A14.687,14.687,0,0,1,323.4,85.66c0-.013.222,5.891.222,5.891-.74,4.532-1.885,9.631-3.724,11.445-6.3-1.175-16.6-15.015-16.6-15.015Z" transform="translate(-150.537 -21.073)" fill="#ae7461"/>
            <path id="Trazado_601461" data-name="Trazado 601461" d="M342.1,84.251a8.819,8.819,0,0,1,2.144-.488c.338-.05.657-.132.7-.367a1.732,1.732,0,0,0-.272-1l-1.122-2.542a44.478,44.478,0,0,1-2.564-6.666,44.627,44.627,0,0,1,3.094,6.444q.565,1.34,1.081,2.56a1.968,1.968,0,0,1,.237,1.326.853.853,0,0,1-.537.522,2.3,2.3,0,0,1-.573.107,8.663,8.663,0,0,1-2.191.1" transform="translate(-169.65 -36.415)" fill="#263238"/>
            <path id="Trazado_601462" data-name="Trazado 601462" d="M332.294,124.676a31.786,31.786,0,0,1-11.847-3.907s2.237,6.086,11.931,6.827Z" transform="translate(-159.436 -60.088)" fill="#6f4439"/>
            <path id="Trazado_601463" data-name="Trazado 601463" d="M325.915,64.811c-.115.368-1.451.256-3,.516-1.558.228-2.8.742-3.018.427-.1-.151.1-.5.6-.875a5.3,5.3,0,0,1,4.587-.718c.584.205.885.476.837.651" transform="translate(-159.148 -31.805)" fill="#263238"/>
            <path id="Trazado_601464" data-name="Trazado 601464" d="M352.877,63.987c-.221.313-1.151.041-2.255.076-1.1,0-2.026.295-2.256-.012-.1-.149.032-.458.427-.763a3.267,3.267,0,0,1,3.634-.052c.4.293.546.6.449.751" transform="translate(-173.311 -31.201)" fill="#263238"/>
            <path id="Trazado_601465" data-name="Trazado 601465" d="M344.355,55.225a6.627,6.627,0,0,0-1.6-4.152,24.616,24.616,0,0,1-1.789-1.725c-1.086-1.425-.934-3.4-1.4-5.136a7.288,7.288,0,0,0-4.515-4.9c-1.81-.645-3.86-.557-5.559-1.457-1.255-.665-2.211-1.82-3.5-2.41-2.517-1.149-5.436.144-7.812,1.561-.47,1.888.726,3.521,1.878,5.089a6.746,6.746,0,0,0,4.963,2.7c1.506.089,3.266-.252,4.326.823,1.115,1.13.684,3.122,1.6,4.419,1.31,1.852,4.289,1.146,6.248,2.29,1.512.884,2.15,2.693,2.912,4.27s2.08,3.223,3.83,3.138a19.758,19.758,0,0,0,.42-4.511" transform="translate(-158.255 -17.416)" fill="#263238"/>
            <path id="Trazado_601466" data-name="Trazado 601466" d="M309.163,45.822a34.185,34.185,0,0,0-12.916,2.339,6.227,6.227,0,0,0-3.183,2.2,6.107,6.107,0,0,0-.671,3.346c.045,3.613,1.5,8.034,2.883,11.374l4.514,2.7c3.474-.825,1.875-6.822,1.7-9.829a7.1,7.1,0,0,0,4.143-6.272,7.859,7.859,0,0,0,3.526-5.853" transform="translate(-145.477 -22.797)" fill="#263238"/>
            <path id="Trazado_601467" data-name="Trazado 601467" d="M301,84.983c-.138-2.066-2.676-2.465-4.45-1.4-.974.585-1.708,1.742-1.58,3.935.34,5.85,6.142,4.3,6.143,4.134,0-.1.05-4.251-.112-6.67" transform="translate(-146.754 -41.302)" fill="#ae7461"/>
            <path id="Trazado_601468" data-name="Trazado 601468" d="M300.682,91.483c-.027-.017-.1.077-.265.166a1.025,1.025,0,0,1-.761.06,2.526,2.526,0,0,1-1.3-2.195,3.372,3.372,0,0,1,.2-1.476,1.179,1.179,0,0,1,.721-.827.519.519,0,0,1,.618.244c.088.159.058.278.089.286s.12-.106.059-.345a.653.653,0,0,0-.252-.353.769.769,0,0,0-.572-.116,1.432,1.432,0,0,0-1.012.968,3.461,3.461,0,0,0-.259,1.651,2.65,2.65,0,0,0,1.633,2.44,1.092,1.092,0,0,0,.923-.209c.173-.155.2-.287.175-.3" transform="translate(-148.237 -43.245)" fill="#6f4439"/>
            <path id="Trazado_601469" data-name="Trazado 601469" d="M290.8,73.092a.335.335,0,0,1-.017.078.8.8,0,0,1-.078.223,1.355,1.355,0,0,1-.678.608,3.591,3.591,0,0,1-1.447.3,4.911,4.911,0,0,1-.939-.06,3.445,3.445,0,0,1-1.024-.309l.07-.035a2.91,2.91,0,0,1-4.632,1.852l.1-.018a1.2,1.2,0,0,1-.766.513,1.67,1.67,0,0,1-.948-.078,1.532,1.532,0,0,1-.763-.619,2.039,2.039,0,0,1-.3-.963,2.991,2.991,0,0,1,.636-1.952,8.792,8.792,0,0,1,1.541-1.5l.01.135a2.061,2.061,0,0,1-.929-1.385,3,3,0,0,1,.165-1.726,4.634,4.634,0,0,1,1.022-1.46,14.039,14.039,0,0,1,1.383-1.173l-.009.132a2.2,2.2,0,0,1-.578-1.7,3.171,3.171,0,0,1,.66-1.739,7.831,7.831,0,0,1,2.851-1.994l-.047.1a3.885,3.885,0,0,1,4.216-4.8l-.09.1A3.351,3.351,0,0,1,291,52.78a3.306,3.306,0,0,1,2.471-1.216l-.073.074a3.285,3.285,0,0,1,1.326-2.551,3.215,3.215,0,0,1,2.445-.678l-.067.057a3.216,3.216,0,0,1,.474-1.5,4.123,4.123,0,0,1,.887-1.074,3.354,3.354,0,0,1,2-.865l.22-.016c.071,0,.14.011.206.016a3.005,3.005,0,0,1,.37.043,4.052,4.052,0,0,1,.559.157l.327.14a.663.663,0,0,1,.108.052.769.769,0,0,1-.115-.038l-.33-.124a4.494,4.494,0,0,0-.557-.14,3.025,3.025,0,0,0-.365-.034c-.065,0-.133-.012-.2-.012l-.215.019a3.311,3.311,0,0,0-1.945.871,4.072,4.072,0,0,0-.858,1.058,3.133,3.133,0,0,0-.448,1.449v.068l-.065-.01a3.1,3.1,0,0,0-2.345.668,3.15,3.15,0,0,0-1.26,2.446v.074h-.074a3.155,3.155,0,0,0-2.351,1.172,3.193,3.193,0,0,0-.747,2.71l.026.114-.116-.014a3.715,3.715,0,0,0-4.025,4.592l.018.069-.064.032a7.685,7.685,0,0,0-2.789,1.944,2.99,2.99,0,0,0-.623,1.64,2.017,2.017,0,0,0,.527,1.563l.07.071-.08.061a6.877,6.877,0,0,0-2.354,2.559,2.832,2.832,0,0,0-.159,1.625,1.9,1.9,0,0,0,.848,1.277l.1.06-.092.075a8.659,8.659,0,0,0-1.517,1.47,2.834,2.834,0,0,0-.611,1.848,1.569,1.569,0,0,0,.96,1.454,1.286,1.286,0,0,0,1.547-.372l.04-.063.059.045a2.832,2.832,0,0,0,2.948.277,2.869,2.869,0,0,0,1.506-2.035l.011-.065.059.03a3.377,3.377,0,0,0,.993.31,4.868,4.868,0,0,0,.924.07A3.59,3.59,0,0,0,290,73.954a1.348,1.348,0,0,0,.676-.574c.093-.181.108-.291.119-.288" transform="translate(-138.999 -22.394)" fill="#455a64"/>
            <path id="Trazado_601470" data-name="Trazado 601470" d="M257.215,63.688a1.961,1.961,0,0,1-.221-.353,3.005,3.005,0,0,1-.31-1.158,2.95,2.95,0,0,1,.478-1.836,3.105,3.105,0,0,1,2.119-1.349l-.049.07a4.009,4.009,0,0,1,.528-2.888,3.907,3.907,0,0,1,1.145-1.217,9.251,9.251,0,0,1,1.6-.754,3.208,3.208,0,0,0,.766-.456,1.985,1.985,0,0,0,.534-.72c.26-.561.343-1.224.672-1.828a3.556,3.556,0,0,1,3.562-1.769l-.1.1a4.687,4.687,0,0,1,5.19-5.314l-.1.1a4.115,4.115,0,0,1,6.4-3.85l-.094.009a5.636,5.636,0,0,1,2.044-1.248,8.435,8.435,0,0,1,2.1-.483,9.811,9.811,0,0,1,3.469.233,6.986,6.986,0,0,1,2.061.855,4.012,4.012,0,0,1,.476.346c.1.082.154.129.154.129s-.219-.167-.653-.436a7.231,7.231,0,0,0-2.058-.81,9.862,9.862,0,0,0-3.435-.2,8.355,8.355,0,0,0-2.065.49,5.51,5.51,0,0,0-1.986,1.226l-.043.044-.051-.035a3.957,3.957,0,0,0-6.141,3.708l.012.109-.109-.013a4.516,4.516,0,0,0-5,5.116l.017.118-.118-.019a3.39,3.39,0,0,0-3.388,1.676c-.312.565-.4,1.223-.671,1.815a2.152,2.152,0,0,1-.579.774,3.355,3.355,0,0,1-.8.475,9.266,9.266,0,0,0-1.58.735,3.778,3.778,0,0,0-1.109,1.168,3.893,3.893,0,0,0-.531,2.791l.013.061-.062.009a3.015,3.015,0,0,0-2.059,1.284,2.9,2.9,0,0,0-.491,1.781,3.085,3.085,0,0,0,.276,1.147c.115.246.2.362.191.367" transform="translate(-127.708 -19.244)" fill="#455a64"/>
            <path id="Trazado_601471" data-name="Trazado 601471" d="M347.307,65.581a.573.573,0,0,1-.023-.48,1.141,1.141,0,0,1,.342-.485,1.991,1.991,0,0,1,.723-.364,3.422,3.422,0,0,0,.913-.381,1.813,1.813,0,0,0,.658-.939,3.559,3.559,0,0,0,.147-1.339c-.021-.482-.1-.994-.1-1.541a15.733,15.733,0,0,1,.744-3.459,4.851,4.851,0,0,0,.079-1.924,2.344,2.344,0,0,0-1.061-1.645,8.771,8.771,0,0,0-2.051-.695,3.519,3.519,0,0,1-1.048-.488,2.354,2.354,0,0,1-.74-.925,11.328,11.328,0,0,1-.616-2.3,3.9,3.9,0,0,0-.405-1.109,1.787,1.787,0,0,0-.863-.756,6.54,6.54,0,0,0-1.618-.221,2.534,2.534,0,0,1-.82-.206,1.617,1.617,0,0,1-.647-.546,5.693,5.693,0,0,1-.612-1.495,3.607,3.607,0,0,0-.734-1.32,3.525,3.525,0,0,0-2.548-1.218,3.622,3.622,0,0,0-2.483.9l-.078.07-.043-.095a5.571,5.571,0,0,0-3.475-3,5.14,5.14,0,0,0-1.955-.169,4.678,4.678,0,0,0-1.607.448,4.114,4.114,0,0,0-1.708,1.571,4.022,4.022,0,0,0-.29.55l-.069.144a.175.175,0,0,1-.028.048.206.206,0,0,1,.016-.052l.059-.15a3.5,3.5,0,0,1,.272-.565,4.09,4.09,0,0,1,1.709-1.627,4.767,4.767,0,0,1,1.635-.475,5.23,5.23,0,0,1,2,.156,5.691,5.691,0,0,1,3.58,3.056l-.121-.026a3.776,3.776,0,0,1,2.59-.949,3.691,3.691,0,0,1,2.673,1.268,3.771,3.771,0,0,1,.77,1.378,5.623,5.623,0,0,0,.591,1.448,1.713,1.713,0,0,0,1.342.677,6.6,6.6,0,0,1,1.664.232,1.964,1.964,0,0,1,.951.832,4.043,4.043,0,0,1,.425,1.159,11.315,11.315,0,0,0,.6,2.268,2.186,2.186,0,0,0,.684.862,3.384,3.384,0,0,0,1,.464,8.809,8.809,0,0,1,2.087.718,2.25,2.25,0,0,1,.766.768,2.96,2.96,0,0,1,.362.988,4.993,4.993,0,0,1-.088,1.985,15.843,15.843,0,0,0-.762,3.427c0,.535.067,1.046.084,1.536a3.641,3.641,0,0,1-.166,1.376,1.9,1.9,0,0,1-.7.977,3.442,3.442,0,0,1-.941.378,1.956,1.956,0,0,0-.709.338,1.114,1.114,0,0,0-.342.456.711.711,0,0,0-.012.468" transform="translate(-161.846 -19.557)" fill="#455a64"/>
            <path id="Trazado_601472" data-name="Trazado 601472" d="M357.491,52.294a.616.616,0,0,1-.06-.109l-.161-.328-.6-1.269c-.265-.549-.562-1.236-.986-1.987a5.209,5.209,0,0,0-1.96-2.1c-.473-.257-1.02-.426-1.569-.67a3.661,3.661,0,0,1-.8-.467,2.01,2.01,0,0,1-.6-.763c-.278-.607-.286-1.3-.507-1.923a1.651,1.651,0,0,0-.563-.8,3.137,3.137,0,0,0-.94-.435,6,6,0,0,1-1.035-.4,1.882,1.882,0,0,1-.8-.827,8.553,8.553,0,0,1-.5-2.27,2.817,2.817,0,0,0-.388-1.074,1.464,1.464,0,0,0-.929-.61c-.769-.16-1.6.109-2.453-.027a2.06,2.06,0,0,1-1.126-.6,5.327,5.327,0,0,1-.729-1.007,11.274,11.274,0,0,0-.642-1.009,2.259,2.259,0,0,0-.861-.736,3.433,3.433,0,0,0-2.21.019,5.16,5.16,0,0,1-2.222.193,5.929,5.929,0,0,1-1.933-.88,10.056,10.056,0,0,0-1.722-.955,6.038,6.038,0,0,0-3.472-.111,6.472,6.472,0,0,0-2.571,1.325,7.218,7.218,0,0,0-1.419,1.68,8.175,8.175,0,0,0-.607,1.258l-.135.339a.646.646,0,0,1-.052.114.6.6,0,0,1,.035-.119l.119-.346a7.537,7.537,0,0,1,.581-1.281,7.158,7.158,0,0,1,1.414-1.72,6.541,6.541,0,0,1,2.6-1.371,6.148,6.148,0,0,1,3.555.094,10.1,10.1,0,0,1,1.753.961,5.821,5.821,0,0,0,1.883.852,5.018,5.018,0,0,0,2.152-.2,7.334,7.334,0,0,1,1.14-.2,2.231,2.231,0,0,1,2.109.975,11.277,11.277,0,0,1,.655,1.025,5.135,5.135,0,0,0,.7.972,1.876,1.876,0,0,0,1.03.546c.8.132,1.624-.138,2.461.029a1.638,1.638,0,0,1,1.036.684,2.975,2.975,0,0,1,.416,1.141,8.521,8.521,0,0,0,.481,2.225,1.71,1.71,0,0,0,.728.758,5.931,5.931,0,0,0,1.006.387,3.282,3.282,0,0,1,.985.463,1.81,1.81,0,0,1,.614.875c.228.664.234,1.345.494,1.915a2.4,2.4,0,0,0,1.318,1.166c.537.243,1.087.417,1.573.685a5.3,5.3,0,0,1,1.986,2.161c.42.763.707,1.454.962,2.007l.573,1.283.145.336a.63.63,0,0,1,.044.117" transform="translate(-160.675 -15.333)" fill="#455a64"/>
            <path id="Trazado_601473" data-name="Trazado 601473" d="M367.525,61.36a.46.46,0,0,1,.107-.019.659.659,0,0,1,.312.069,1.257,1.257,0,0,1,.582,1.037,3.089,3.089,0,0,1-.125.875,3.625,3.625,0,0,0-.151,1.013,2.257,2.257,0,0,0,.412,1.08c.227.353.517.7.75,1.119a1.678,1.678,0,0,1,.146,1.473c-.186.5-.548.915-.726,1.421a2.182,2.182,0,0,0,.16,1.61c.228.535.553,1.053.777,1.647a2.629,2.629,0,0,1,.188.95,2.391,2.391,0,0,1-.222.969,11.374,11.374,0,0,1-1.112,1.668,2.693,2.693,0,0,0-.617,1.853,8.854,8.854,0,0,0,.708,1.974,3.053,3.053,0,0,1,.218,1.076,2.422,2.422,0,0,1-.274,1.052,8.95,8.95,0,0,1-1.261,1.656,4.738,4.738,0,0,0-1.022,1.656,14.293,14.293,0,0,1-.607,1.822,2.132,2.132,0,0,1-.594.74,2.717,2.717,0,0,1-.827.4,7.175,7.175,0,0,0-.811.289,2.907,2.907,0,0,0-.676.461A5.967,5.967,0,0,0,361.9,90.5c-.269.436-.519.864-.8,1.249a4.008,4.008,0,0,1-2.037,1.5,4.314,4.314,0,0,1-1.911.183,3.831,3.831,0,0,1-1.166-.341,2.982,2.982,0,0,1-.368-.211,4.451,4.451,0,0,0,1.542.483,4.29,4.29,0,0,0,1.871-.209A3.919,3.919,0,0,0,361,91.675c.271-.379.516-.806.783-1.246a6.03,6.03,0,0,1,.975-1.289,3.056,3.056,0,0,1,.711-.49,7.427,7.427,0,0,1,.827-.3,2.558,2.558,0,0,0,.779-.378,1.961,1.961,0,0,0,.545-.687,14.381,14.381,0,0,0,.592-1.8,4.918,4.918,0,0,1,1.051-1.715,8.858,8.858,0,0,0,1.236-1.621,2.239,2.239,0,0,0,.255-.975,2.875,2.875,0,0,0-.207-1.011,8.848,8.848,0,0,1-.717-2.016,2.231,2.231,0,0,1,.143-1.061,4.3,4.3,0,0,1,.508-.911,11.432,11.432,0,0,0,1.1-1.639,2.224,2.224,0,0,0,.209-.9,2.486,2.486,0,0,0-.175-.893c-.213-.573-.535-1.092-.767-1.643a2.33,2.33,0,0,1-.155-1.72c.2-.542.56-.954.736-1.421a1.547,1.547,0,0,0-.129-1.365c-.221-.406-.506-.755-.734-1.117a2.351,2.351,0,0,1-.417-1.137,3.657,3.657,0,0,1,.168-1.039,3.073,3.073,0,0,0,.138-.85,1.228,1.228,0,0,0-.53-1.009.752.752,0,0,0-.4-.082" transform="translate(-176.936 -30.52)" fill="#455a64"/>
            <path id="Trazado_601474" data-name="Trazado 601474" d="M334.347,98.628a.8.8,0,0,1,1.008-.434l3.666,1.345.408.149a8.942,8.942,0,0,1-.811,2.147,2.3,2.3,0,0,1-1.586,1.121,2.582,2.582,0,0,1-1.544-.385,3.011,3.011,0,0,1-1.622-1.849,4.408,4.408,0,0,1,.481-2.094" transform="translate(-166.101 -48.831)" fill="#6f4439"/>
            <path id="Trazado_601475" data-name="Trazado 601475" d="M292.864,98.509a3.052,3.052,0,0,0-.875.506,3.958,3.958,0,0,0-1.42,2.337,4.186,4.186,0,0,0,.047,1.919,4.708,4.708,0,0,0,1.071,1.926,4.8,4.8,0,0,0,2.034,1.337,4.418,4.418,0,0,0,2.609.056,4.756,4.756,0,0,0,2.231-1.36,4.284,4.284,0,0,0,1.063-2.19,4.545,4.545,0,0,0-1.151-3.848,4.383,4.383,0,0,0-2.487-1.16,2.466,2.466,0,0,0-.753.027.877.877,0,0,0-.25.08,3.225,3.225,0,0,1,.993-.02,4.235,4.235,0,0,1,1.116.33,4.036,4.036,0,0,1,1.267.853,4.411,4.411,0,0,1,1.062,3.7,4.1,4.1,0,0,1-1.022,2.076,4.569,4.569,0,0,1-2.129,1.293,4.219,4.219,0,0,1-2.479-.049,4.631,4.631,0,0,1-1.952-1.268,4.561,4.561,0,0,1-1.044-1.835,4.068,4.068,0,0,1-.07-1.84,3.962,3.962,0,0,1,1.319-2.3,8.995,8.995,0,0,1,.82-.574" transform="translate(-144.525 -48.768)" fill="#e0e0e0"/>
            <path id="Trazado_601476" data-name="Trazado 601476" d="M329.4,82.9a1.27,1.27,0,0,1-1.168,1.334,1.215,1.215,0,0,1-1.358-1.087,1.271,1.271,0,0,1,1.167-1.335A1.216,1.216,0,0,1,329.4,82.9" transform="translate(-162.631 -40.704)" fill="#263238"/>
            <path id="Trazado_601477" data-name="Trazado 601477" d="M352.893,82.9a1.27,1.27,0,0,1-1.168,1.334,1.215,1.215,0,0,1-1.358-1.088,1.271,1.271,0,0,1,1.167-1.334,1.216,1.216,0,0,1,1.36,1.088" transform="translate(-174.32 -40.704)" fill="#263238"/>
            <path id="Trazado_601478" data-name="Trazado 601478" d="M352.561,72.884c-.122.191-1.092-.468-2.339-.329-1.247.118-2.071.964-2.228.8-.076-.071.031-.4.388-.785a2.832,2.832,0,0,1,3.646-.377c.425.3.594.6.533.69" transform="translate(-173.13 -35.673)" fill="#263238"/>
            <path id="Trazado_601479" data-name="Trazado 601479" d="M327.934,74.563c-.171.2-1.239-.635-2.739-.621-1.5-.009-2.59.825-2.756.629-.081-.087.089-.439.566-.817a3.634,3.634,0,0,1,2.2-.745,3.541,3.541,0,0,1,2.182.738c.465.376.627.728.544.815" transform="translate(-160.418 -36.325)" fill="#263238"/>
            <path id="Trazado_601480" data-name="Trazado 601480" d="M337.663,102.192c.011.012-.1.159-.4.3a2.276,2.276,0,0,1-1.361.113,3.6,3.6,0,0,1-1.792-.951,2.211,2.211,0,0,1-.612-1.083,2.872,2.872,0,0,1,.038-1.32,5.535,5.535,0,0,1,.462-1.2.894.894,0,0,1,.532-.5,1.08,1.08,0,0,1,.662.108l1.819.735a8.265,8.265,0,0,1,1.641.772,8.276,8.276,0,0,1-1.74-.51L335.06,98c-.373-.156-.547-.135-.72.226a5.477,5.477,0,0,0-.422,1.117,2.086,2.086,0,0,0,.452,2.058,3.516,3.516,0,0,0,1.591.932,2.382,2.382,0,0,0,1.246.015c.289-.083.434-.183.455-.152" transform="translate(-165.898 -48.524)" fill="#263238"/>
            <path id="Trazado_601481" data-name="Trazado 601481" d="M354.067,19.9a7.313,7.313,0,0,0-1.6-.925,5.607,5.607,0,0,0-2.1-.373,5.178,5.178,0,0,0-2.678.772l-.128.08-.076-.132a4.831,4.831,0,0,0-2.931-2.153,4.9,4.9,0,0,0-4.115.652l-.154.111-.111-.152a7.892,7.892,0,0,0-5-3.032,7.531,7.531,0,0,0-4.556.687,7.859,7.859,0,0,0-3.17,2.812l-.051.08-.095,0a11.812,11.812,0,0,0-4.721,1.171,12.3,12.3,0,0,0-3.143,2.149,16.462,16.462,0,0,0-2.151,2.595c-.009-.005.023-.076.093-.21s.171-.335.329-.579a11.173,11.173,0,0,1,1.581-1.959,12.073,12.073,0,0,1,3.161-2.262,11.929,11.929,0,0,1,4.839-1.261l-.146.084a8.151,8.151,0,0,1,3.3-2.969,7.868,7.868,0,0,1,4.791-.732,8.223,8.223,0,0,1,5.244,3.2l-.265-.041a5.239,5.239,0,0,1,4.43-.676,5.1,5.1,0,0,1,3.093,2.341l-.2-.052a5.356,5.356,0,0,1,2.832-.756,5.582,5.582,0,0,1,2.166.455,4.991,4.991,0,0,1,1.193.728,1.876,1.876,0,0,1,.343.346" transform="translate(-157.861 -7.093)" fill="#263238"/>
            <path id="Trazado_601482" data-name="Trazado 601482" d="M304.785,10.771a3.445,3.445,0,0,1-1.461.351,5.272,5.272,0,0,1-3.848-1.378,4.864,4.864,0,0,1-1.427-2.528,5.434,5.434,0,0,1,.324-3.338A4.965,4.965,0,0,1,301.06,1.3a5.308,5.308,0,0,1,4.026-.033l-.228.055a3.769,3.769,0,0,1,2.2-1.255,3.931,3.931,0,0,1,2.132.181,3.516,3.516,0,0,1,1.621,1.314,3.9,3.9,0,0,1,.334,3.8l-.263-.238A3.207,3.207,0,0,1,313.9,5.07a3.307,3.307,0,0,1,1.779,2.094,4.253,4.253,0,0,1-1.165,4.206,5.287,5.287,0,0,1-2.582,1.339,4.9,4.9,0,0,1-.77.1.874.874,0,0,1-.268-.009c0-.031.365-.038,1.01-.211a5.393,5.393,0,0,0,2.451-1.382,4.026,4.026,0,0,0,1.026-3.955,2.987,2.987,0,0,0-1.628-1.873,2.864,2.864,0,0,0-2.673.065l-.534.326.271-.564a3.532,3.532,0,0,0-.323-3.423A3.129,3.129,0,0,0,309.049.62a3.547,3.547,0,0,0-1.915-.16,3.388,3.388,0,0,0-1.973,1.117l-.093.112-.135-.056a4.948,4.948,0,0,0-3.729.022,4.62,4.62,0,0,0-2.51,2.367,5.142,5.142,0,0,0-.339,3.129,4.622,4.622,0,0,0,1.3,2.4,5.224,5.224,0,0,0,3.66,1.426,7.721,7.721,0,0,0,1.466-.207" transform="translate(-148.229 0)" fill="#263238"/>
            <path id="Trazado_601483" data-name="Trazado 601483" d="M255.705,39.012c-.011,0-.049-.071-.114-.221a4.367,4.367,0,0,1-.225-.683,6.267,6.267,0,0,1,1.982-6.226,6.512,6.512,0,0,1,4.935-1.5l-.194.105a7.752,7.752,0,0,1,3.937-3.716,7.493,7.493,0,0,1,4.105-.475,7.708,7.708,0,0,1,3.474,1.5l-.2-.016a8.51,8.51,0,0,1,4.163-.992,8.781,8.781,0,0,1,3.26.664,7.933,7.933,0,0,1,1.866,1.078,3.183,3.183,0,0,1,.56.522,11.4,11.4,0,0,0-2.5-1.4,8.859,8.859,0,0,0-3.183-.566,8.329,8.329,0,0,0-3.99,1.009l-.1.056-.093-.071a7.411,7.411,0,0,0-3.315-1.405,7.167,7.167,0,0,0-3.891.459,7.437,7.437,0,0,0-3.75,3.516l-.059.122-.135-.017a6.227,6.227,0,0,0-4.679,1.374,6,6,0,0,0-2.021,3.338,6.513,6.513,0,0,0-.043,2.613c.117.6.244.921.215.931" transform="translate(-126.965 -13.033)" fill="#263238"/>
          </g>
        </g>
        <g id="Grupo_886701" data-name="Grupo 886701">
          <g id="Grupo_886700" data-name="Grupo 886700" clip-path="url(#clip-path-2)">
            <path id="Trazado_601484" data-name="Trazado 601484" d="M148.814,93.265a5.268,5.268,0,0,0-2.326.558,13.188,13.188,0,0,1-5.243,1.081c-7.68,0-15.05-4.551-15.05-13.961,0-5.612,5.749-11.311,11.409-12.25,2.852-.473,7.035.923,9.276,2.009a6.505,6.505,0,0,0,2.835.665H151.1l.092-30.954A3.9,3.9,0,0,0,147.6,36.6H55.831c-2.919,0-4.8,1.709-4.8,3.817V72.348l3.691-.2a7.241,7.241,0,0,0,2.5-.448c1.6-.589,3.266-1.613,5.1-1.613,7.867,0,13.354,4.444,13.038,11.669C75.085,88.124,70.371,93.1,63.388,93.54a14.2,14.2,0,0,1-6.646-1.333,7.956,7.956,0,0,0-3.015-.676l-2.693.056v31.269a4.935,4.935,0,0,0,5.15,4.687h89.861a4.935,4.935,0,0,0,5.149-4.687v-29.6Z" transform="translate(-25.392 -18.208)" fill="#e0e0e0"/>
            <path id="Trazado_601485" data-name="Trazado 601485" d="M126.278,84.932,125.82,47.38c-.418-9.338,4.668-17.364,14.014-17.524l.865.036a16.709,16.709,0,0,1,16.01,16.038c.318,8.1.564,17.044.332,21.371-.481,8.956-9.5,9.98-9.5,9.98-.02,0-.055,5.452-.051,8.084l-2.844,5.684-2.424-1.332Z" transform="translate(-62.589 -14.855)" fill="#ffc09d"/>
            <path id="Trazado_601486" data-name="Trazado 601486" d="M157.656,119.5a21.668,21.668,0,0,1-11.525-3.931s2.529,6.853,11.5,6.415Z" transform="translate(-72.706 -57.498)" fill="#ff9b6c"/>
            <path id="Trazado_601487" data-name="Trazado 601487" d="M177.025,75.182a1.28,1.28,0,0,1-1.287,1.24,1.225,1.225,0,0,1-1.271-1.208,1.281,1.281,0,0,1,1.286-1.241,1.226,1.226,0,0,1,1.273,1.209" transform="translate(-86.805 -36.805)" fill="#263238"/>
            <path id="Trazado_601488" data-name="Trazado 601488" d="M178.195,67.276c-.165.16-1.105-.6-2.483-.651-1.375-.073-2.415.594-2.557.419-.07-.077.1-.372.557-.675a3.519,3.519,0,0,1,2.056-.542,3.375,3.375,0,0,1,1.967.727c.41.342.541.65.46.722" transform="translate(-86.144 -32.751)" fill="#263238"/>
            <path id="Trazado_601489" data-name="Trazado 601489" d="M152.786,74.691a1.281,1.281,0,0,1-1.287,1.24,1.225,1.225,0,0,1-1.272-1.208,1.281,1.281,0,0,1,1.286-1.241,1.225,1.225,0,0,1,1.273,1.209" transform="translate(-74.744 -36.56)" fill="#263238"/>
            <path id="Trazado_601490" data-name="Trazado 601490" d="M151.3,66.8c-.166.16-1.107-.6-2.483-.65-1.375-.073-2.415.594-2.558.419-.07-.078.1-.372.557-.674a3.515,3.515,0,0,1,2.056-.542,3.38,3.38,0,0,1,1.968.726c.408.343.541.65.46.722" transform="translate(-72.764 -32.515)" fill="#263238"/>
            <path id="Trazado_601491" data-name="Trazado 601491" d="M165.1,78.317a9.109,9.109,0,0,1,2.254-.311c.353-.022.689-.078.758-.316a1.793,1.793,0,0,0-.191-1.052l-.93-2.721a46.016,46.016,0,0,1-2.046-7.1,46.212,46.212,0,0,1,2.613,6.919c.309.955.6,1.865.885,2.735a2.039,2.039,0,0,1,.126,1.388.883.883,0,0,1-.6.49,2.39,2.39,0,0,1-.6.058,8.969,8.969,0,0,1-2.267-.09" transform="translate(-82.057 -33.244)" fill="#263238"/>
            <path id="Trazado_601492" data-name="Trazado 601492" d="M151.313,58.125c-.2.344-1.523-.081-3.148-.183-1.624-.135-2.992.094-3.142-.275-.065-.176.223-.481.807-.742a5.483,5.483,0,0,1,4.791.35c.541.343.781.687.691.851" transform="translate(-72.151 -28.127)" fill="#263238"/>
            <path id="Trazado_601493" data-name="Trazado 601493" d="M178.175,59.172c-.295.3-1.408-.049-2.756-.1-1.347-.09-2.5.145-2.751-.19-.111-.162.077-.47.584-.754a4.345,4.345,0,0,1,2.255-.453,4.272,4.272,0,0,1,2.183.687c.468.334.616.661.486.81" transform="translate(-85.894 -28.693)" fill="#263238"/>
            <path id="Trazado_601494" data-name="Trazado 601494" d="M120.675,76.78c-.15-.072-6.082-2.076-6.14,4.059s6.113,4.927,6.125,4.751.014-8.81.014-8.81" transform="translate(-56.986 -38.018)" fill="#ffc09d"/>
            <path id="Trazado_601495" data-name="Trazado 601495" d="M120.35,85.2c-.027-.02-.108.074-.289.155a1.069,1.069,0,0,1-.8.009,2.645,2.645,0,0,1-1.2-2.384,3.525,3.525,0,0,1,.314-1.527,1.235,1.235,0,0,1,.811-.813.544.544,0,0,1,.628.3c.08.172.04.294.073.305.017.016.133-.1.085-.356a.682.682,0,0,0-.238-.386.806.806,0,0,0-.589-.162,1.5,1.5,0,0,0-1.125.941,3.633,3.633,0,0,0-.386,1.706,2.775,2.775,0,0,0,1.534,2.664,1.144,1.144,0,0,0,.979-.153c.191-.15.225-.286.2-.3" transform="translate(-58.527 -39.972)" fill="#ff9b6c"/>
            <path id="Trazado_601496" data-name="Trazado 601496" d="M156.456,91.4c.211-.013.22,1.4,1.43,2.39s2.709.833,2.721,1.03c.02.088-.333.275-.967.295a3.509,3.509,0,0,1-2.271-.779,3.056,3.056,0,0,1-1.109-2c-.056-.588.1-.939.2-.931" transform="translate(-77.74 -45.476)" fill="#263238"/>
            <path id="Trazado_601497" data-name="Trazado 601497" d="M160,30.75a1.455,1.455,0,0,0-.673-.857,4.473,4.473,0,0,0-2.291-.4,12.919,12.919,0,0,1-5.6-1.474,6.4,6.4,0,0,0,1.664-1.14,3.851,3.851,0,0,0,1.151-3.816.854.854,0,0,0-.475-.592c-.4-.127-.75.26-1.032.568a3.314,3.314,0,0,1-3.135,1.286,5.438,5.438,0,0,1-2.324-.716c-.027-.028-.05-.059-.076-.086-.315-.333-.623-.651-.927-.959l0,0v0A20.305,20.305,0,0,0,140,17.8a20.851,20.851,0,0,0-11.117-1c-3.132.784-5.965,3.286-6.436,6.48-1.734-1.5-4.364-1.518-6.506-.684l-.053-.024c-2.385.82-3.763,3.314-4.491,5.729-.04.132-.075.266-.113.4a9.419,9.419,0,0,1-3.232,3.086c-.232.131-.5.291-.528.556s.188.481.4.637a4.738,4.738,0,0,0,1.913.821,10.653,10.653,0,0,1-.806,1.66c-.273.451-.6.991-.369,1.466a1,1,0,0,0,1.044.469,2.936,2.936,0,0,0,1.111-.488L110,38.793a5.618,5.618,0,0,0,2.586-.143c.479,2.271.81,6.471,1.376,8.013,1.628.047,2.025-.126,2.844.156,1.058.365.632,2.24,2.02,1.722.707-.264,1.817-2.919,2.062-3.633A35.035,35.035,0,0,0,122.574,30.1a11.259,11.259,0,0,1,3.505-2.47l-.108.095c2.518-.843,5.365-1.668,7.732-.463,1.835.935,2.9,2.862,4.262,4.407a12.842,12.842,0,0,0,9.424,4.719c.321,2.712.375,7.142.478,9.671l2.216-5.034v.021c.178-.294.325-.592.468-.889l.049-.09v-.012a15.758,15.758,0,0,1,.727-1.429l.024.022a1.579,1.579,0,0,0,2.331-2.085,3.531,3.531,0,0,0-.755-.776,2.5,2.5,0,0,0,2.373.644,1.959,1.959,0,0,0,1.408-1.922,1.666,1.666,0,0,0-.978-1.348,5.624,5.624,0,0,0,3.209-.669c.636-.353,1.263-.94,1.058-1.737" transform="translate(-53.496 -8.174)" fill="#263238"/>
            <path id="Trazado_601498" data-name="Trazado 601498" d="M129.616,32.167a7.763,7.763,0,0,0-.91.813,6.439,6.439,0,0,0-1.412,2.965,11.357,11.357,0,0,0-.255,2.279c-.013.827.043,1.713.1,2.646a23.687,23.687,0,0,1,.034,2.945,10.371,10.371,0,0,1-.221,1.551,3.233,3.233,0,0,1-.651,1.5,1.355,1.355,0,0,1-1.272.412,2.014,2.014,0,0,1-1.133-.657,4.646,4.646,0,0,1-.839-2.293l.188.025a7.532,7.532,0,0,1-1.113,1.869,2.676,2.676,0,0,1-1.758.931,1.717,1.717,0,0,1-.924-.173,1.492,1.492,0,0,1-.622-.627,1.542,1.542,0,0,1-.182-.8,1.116,1.116,0,0,1,.3-.695l.094.086a5.782,5.782,0,0,1-1.946,1.425,5.165,5.165,0,0,1-.6.226,1,1,0,0,1-.215.051,1.075,1.075,0,0,1,.2-.084c.135-.053.334-.131.582-.254a5.982,5.982,0,0,0,1.879-1.447l.094.086a1.151,1.151,0,0,0-.075,1.333,1.345,1.345,0,0,0,.563.555,1.571,1.571,0,0,0,.837.146,2.509,2.509,0,0,0,1.632-.885,7.411,7.411,0,0,0,1.073-1.829l.132-.286.056.311a4.5,4.5,0,0,0,.8,2.191,1.81,1.81,0,0,0,1.013.587,1.142,1.142,0,0,0,1.081-.349,3.058,3.058,0,0,0,.6-1.4,10.322,10.322,0,0,0,.218-1.518,23.969,23.969,0,0,0-.022-2.92c-.047-.934-.1-1.823-.077-2.661a11.275,11.275,0,0,1,.285-2.308,6.356,6.356,0,0,1,1.5-2.987,3.648,3.648,0,0,1,.97-.758" transform="translate(-57.851 -16.004)" fill="#455a64"/>
            <path id="Trazado_601499" data-name="Trazado 601499" d="M170.815,36.285a.343.343,0,0,1-.073.06l-.226.161a2.968,2.968,0,0,1-.383.239,4.77,4.77,0,0,1-.55.281,7.96,7.96,0,0,1-3.851.648,10.172,10.172,0,0,1-5.4-2.063,17.613,17.613,0,0,1-4.594-5.418c-.641-1.095-1.16-2.215-1.735-3.251a11.9,11.9,0,0,0-1.975-2.756,6.125,6.125,0,0,0-2.569-1.6,4.394,4.394,0,0,0-1.363-.173,4.847,4.847,0,0,0-1.252.226,5.2,5.2,0,0,0-2.913,2.409,6.2,6.2,0,0,0-.479,1.341.31.31,0,0,1,.008-.094c.013-.074.028-.164.046-.274a4.523,4.523,0,0,1,.352-1.01,5.108,5.108,0,0,1,1.021-1.351A5.252,5.252,0,0,1,146.8,22.5a4.963,4.963,0,0,1,1.291-.247,4.534,4.534,0,0,1,1.418.167,6.275,6.275,0,0,1,2.656,1.629,11.976,11.976,0,0,1,2.019,2.794c.582,1.043,1.1,2.161,1.737,3.245a17.624,17.624,0,0,0,4.528,5.368,10.113,10.113,0,0,0,5.291,2.07,8.087,8.087,0,0,0,3.807-.575,12.7,12.7,0,0,0,1.264-.667" transform="translate(-71.376 -11.071)" fill="#455a64"/>
            <path id="Trazado_601500" data-name="Trazado 601500" d="M190.2,42.345a1.427,1.427,0,0,1-.325.221,6.971,6.971,0,0,1-.958.473,9.316,9.316,0,0,1-1.516.479,9.789,9.789,0,0,1-3.875.08,9.314,9.314,0,0,1-1.534-.416,6.985,6.985,0,0,1-.977-.434,1.418,1.418,0,0,1-.333-.207c.018-.036.511.225,1.359.5a10.528,10.528,0,0,0,1.518.365,10.453,10.453,0,0,0,3.8-.078,10.583,10.583,0,0,0,1.5-.428c.836-.31,1.318-.59,1.338-.556" transform="translate(-89.895 -21.067)" fill="#455a64"/>
            <path id="Trazado_601501" data-name="Trazado 601501" d="M163.837,162.861S148.37,139.37,143.8,138.344l-4.074-1.163-12.33-3.344s.09,4.752-6.779,4.9c-7.913.173-14.554-6.784-14.554-6.784s-16.45,5.126-19.9,7.912,2.232,35.025,2.232,35.025h60.2l-.044-.354Z" transform="translate(-42.315 -65.654)" fill="#ffc631"/>
            <path id="Trazado_601502" data-name="Trazado 601502" d="M75.937,147.651a17.988,17.988,0,0,0-6.649,10.778c-1.448,7.238-4.46,24.259-4.46,24.259l25.163.014s-1.152-10.515-1.152-11.3-4.357-18.027-4.621-18.422-8.281-5.325-8.281-5.325" transform="translate(-32.255 -73.463)" fill="#ffc631"/>
            <path id="Trazado_601503" data-name="Trazado 601503" d="M94.577,148.453a38.2,38.2,0,0,1,3.6,2.831,38.161,38.161,0,0,1,2.925,3.529,11.969,11.969,0,0,0-6.529-6.361" transform="translate(-47.055 -73.858)" fill="#263238"/>
            <path id="Trazado_601504" data-name="Trazado 601504" d="M108.384,195.471a5.541,5.541,0,0,1-.026-.873c0-.6.008-1.407.013-2.378.014-2.008.022-4.781-.018-7.843s-.122-5.836-.189-7.842c-.031-.971-.056-1.772-.075-2.377a5.577,5.577,0,0,1,0-.873,5.548,5.548,0,0,1,.1.868c.047.56.1,1.371.159,2.374.115,2.006.225,4.78.266,7.847s0,5.842-.059,7.85c-.031,1-.064,1.816-.1,2.378a5.558,5.558,0,0,1-.076.87" transform="translate(-53.773 -86.216)" fill="#263238"/>
            <path id="Trazado_601505" data-name="Trazado 601505" d="M222.822,199.388l3.027,9.151-14.373-.095-.044-.354Z" transform="translate(-105.196 -99.204)" fill="#ffc09d"/>
            <path id="Trazado_601506" data-name="Trazado 601506" d="M204.628,168.931c.072-.01.854,5.388,1.748,12.053s1.56,12.08,1.488,12.09-.854-5.386-1.748-12.055-1.56-12.079-1.488-12.088" transform="translate(-101.808 -84.05)" fill="#263238"/>
          </g>
        </g>
        <g id="Grupo_886709" data-name="Grupo 886709">
          <g id="Grupo_886708" data-name="Grupo 886708" clip-path="url(#clip-path-2)">
            <path id="Trazado_601507" data-name="Trazado 601507" d="M138.24,251.828a13.856,13.856,0,0,1,6.559,1.332,7.766,7.766,0,0,0,2.976.676l2.657-.056V222.511a4.9,4.9,0,0,0-5.082-4.686H56.673a4.9,4.9,0,0,0-5.082,4.686v82.443a3.987,3.987,0,0,0,4.138,3.817h90.564a3.987,3.987,0,0,0,4.138-3.817V275.161h-3.666a7.073,7.073,0,0,0-2.47.448,14.6,14.6,0,0,1-5.109.918c-7.763,0-14.022-5.947-13.71-13.172.275-6.366,5.872-11.084,12.763-11.528" transform="translate(-25.669 -108.377)" fill="#e0e0e0"/>
            <path id="Trazado_601508" data-name="Trazado 601508" d="M138.111,251.7s-.3.039-.881.1a9.718,9.718,0,0,0-1.079.174,13.294,13.294,0,0,0-1.473.355,14.784,14.784,0,0,0-3.856,1.772,10.249,10.249,0,0,0-1.061.773c-.174.145-.36.284-.535.441l-.515.5-.263.257-.243.284-.5.584a12.612,12.612,0,0,0-.876,1.339,11.906,11.906,0,0,0-.733,1.527,11.541,11.541,0,0,0-.481,1.72,11.006,11.006,0,0,0-.1,3.829,11.72,11.72,0,0,0,1.3,3.978,13,13,0,0,0,2.848,3.528,14.226,14.226,0,0,0,9.3,3.452,14.71,14.71,0,0,0,5.436-1.009,7.269,7.269,0,0,1,1.427-.314,12.572,12.572,0,0,1,1.474-.046l2.992,0h.086v.086q0,7,.01,14.853,0,3.92,0,8.038,0,2.058,0,4.164,0,1.053,0,2.117a9.9,9.9,0,0,1-.031,1.079,3.92,3.92,0,0,1-.3,1.059,4.257,4.257,0,0,1-3.523,2.389c-1.482.037-2.949.012-4.447.02l-9.135,0-19.243.007-41.872.009-11.07,0c-1.868-.009-3.722.021-5.624-.02a4.466,4.466,0,0,1-2.61-1.165A3.784,3.784,0,0,1,51.341,305q0-11.374-.01-23.1c0-11.3,0-22.383,0-33.188q0-8.1,0-15.988,0-3.94,0-7.819,0-.97,0-1.936a5.733,5.733,0,0,1,.215-1.944,4.916,4.916,0,0,1,2.525-2.876,5.419,5.419,0,0,1,1.861-.538c.651-.058,1.275-.027,1.907-.035h3.764l7.424,0,14.408,0,26.87.011,23.927.013,10.728.007a5.37,5.37,0,0,1,4.478,2.033,4.61,4.61,0,0,1,.913,2.267c.051.816.013,1.6.024,2.38-.015,12.493-.027,22.465-.035,29.361v.043H150.3c-1.047.015-2.024.054-2.942.043a7.867,7.867,0,0,1-2.476-.581,17.848,17.848,0,0,0-3.689-1.228,12.155,12.155,0,0,0-2.312-.241c-.258,0-.452,0-.58.009s-.193,0-.193,0a7.373,7.373,0,0,1,.774-.034,11.736,11.736,0,0,1,2.32.22,17.688,17.688,0,0,1,3.7,1.21,7.814,7.814,0,0,0,2.456.566c.908.007,1.891-.036,2.936-.054l-.042.044c-.009-6.9-.021-16.869-.035-29.361-.012-.777.024-1.581-.027-2.363a4.445,4.445,0,0,0-.884-2.184,5.2,5.2,0,0,0-4.347-1.961l-10.728.008-23.927.013-26.87.011-14.408,0-7.424,0H57.844c-.628.008-1.27-.021-1.881.035a5.159,5.159,0,0,0-1.776.514,4.667,4.667,0,0,0-2.4,2.729,5.49,5.49,0,0,0-.2,1.868q0,.966,0,1.936,0,3.879,0,7.819,0,7.88,0,15.988c0,10.8,0,21.891,0,33.188q0,11.706.008,23.085a3.521,3.521,0,0,0,1.131,2.416,4.209,4.209,0,0,0,2.456,1.1c1.854.039,3.743.011,5.6.02h11.07l41.872.009,19.243.007,9.135,0c1.49-.007,2.983.019,4.429-.015a4.047,4.047,0,0,0,3.351-2.264,3.736,3.736,0,0,0,.282-1,9.847,9.847,0,0,0,.03-1.053q0-1.065,0-2.117,0-2.106,0-4.164,0-4.117,0-8.038,0-7.84.01-14.853l.086.086-2.992,0a12.454,12.454,0,0,0-1.456.044,7.067,7.067,0,0,0-1.395.3,14.855,14.855,0,0,1-5.488,1.008,14.36,14.36,0,0,1-9.389-3.505,13.106,13.106,0,0,1-2.87-3.57,11.82,11.82,0,0,1-1.3-4.021,11.11,11.11,0,0,1,.11-3.865,11.648,11.648,0,0,1,.491-1.734,11.934,11.934,0,0,1,.744-1.538,12.689,12.689,0,0,1,.888-1.347l.5-.586.246-.285.265-.258.52-.5c.176-.157.363-.3.539-.442a10.313,10.313,0,0,1,1.071-.773,14.709,14.709,0,0,1,3.881-1.759,13.081,13.081,0,0,1,1.479-.345,9.42,9.42,0,0,1,1.084-.162c.585-.057.883-.079.883-.079" transform="translate(-25.539 -108.253)" fill="#263238"/>
            <path id="Trazado_601509" data-name="Trazado 601509" d="M118.032,248.128a67,67,0,0,1-3.051-11.15,23.4,23.4,0,0,1,.777-11.429c.2-.551,1.889-4.25,2.472-4.2.416.036-.612,3.48-.4,3.839a19.848,19.848,0,0,1,2.375,11.543,52.259,52.259,0,0,1-2.175,11.4" transform="translate(-57.03 -110.13)" fill="#263238"/>
            <path id="Trazado_601510" data-name="Trazado 601510" d="M121.228,262.071l-.962-34.678c-.433-9.667,4.833-17.977,14.508-18.142l.895.037a17.3,17.3,0,0,1,16.575,16.6c.329,8.381.584,17.646.344,22.125-.5,9.272-9.837,10.332-9.837,10.332-.021,0-.083,9.634-.078,12.358l-6.591,7,.38-2.119Z" transform="translate(-59.825 -104.111)" fill="#ffc09d"/>
            <path id="Trazado_601511" data-name="Trazado 601511" d="M153.226,302.936a22.431,22.431,0,0,1-11.932-4.07s2.618,7.1,11.91,6.643Z" transform="translate(-70.3 -148.698)" fill="#ff9b6c"/>
            <path id="Trazado_601512" data-name="Trazado 601512" d="M175.191,256.549a1.326,1.326,0,0,1-1.333,1.284,1.268,1.268,0,0,1-1.316-1.251,1.327,1.327,0,0,1,1.331-1.285,1.27,1.27,0,0,1,1.317,1.252" transform="translate(-85.847 -127.021)" fill="#263238"/>
            <path id="Trazado_601513" data-name="Trazado 601513" d="M174.49,248.874c-.171.166-1.144-.619-2.571-.673-1.423-.076-2.5.615-2.647.434-.072-.08.108-.385.577-.7a3.64,3.64,0,0,1,2.128-.561,3.5,3.5,0,0,1,2.037.752c.425.355.56.673.476.747" transform="translate(-84.212 -123.078)" fill="#263238"/>
            <path id="Trazado_601514" data-name="Trazado 601514" d="M149.961,256.549a1.326,1.326,0,0,1-1.333,1.284,1.267,1.267,0,0,1-1.316-1.251,1.326,1.326,0,0,1,1.332-1.284,1.269,1.269,0,0,1,1.317,1.252" transform="translate(-73.294 -127.021)" fill="#263238"/>
            <path id="Trazado_601515" data-name="Trazado 601515" d="M146.648,248.383c-.172.166-1.146-.618-2.571-.673-1.423-.075-2.5.615-2.647.434-.072-.08.106-.385.577-.7a3.636,3.636,0,0,1,2.128-.561,3.5,3.5,0,0,1,2.037.752c.424.355.56.673.476.747" transform="translate(-70.359 -122.833)" fill="#263238"/>
            <path id="Trazado_601516" data-name="Trazado 601516" d="M160.93,260.3a9.439,9.439,0,0,1,2.333-.322c.366-.023.713-.08.785-.327a1.859,1.859,0,0,0-.2-1.089l-.962-2.816c-1.332-4.009-2.28-7.3-2.118-7.351s1.373,3.155,2.7,7.164c.32.988.626,1.93.917,2.831a2.109,2.109,0,0,1,.13,1.437.912.912,0,0,1-.621.508,2.473,2.473,0,0,1-.622.061,9.266,9.266,0,0,1-2.347-.094" transform="translate(-79.98 -123.588)" fill="#263238"/>
            <path id="Trazado_601517" data-name="Trazado 601517" d="M146.659,239.4c-.208.356-1.576-.084-3.259-.189-1.681-.14-3.1.1-3.253-.285-.067-.182.231-.5.836-.768a5.677,5.677,0,0,1,4.961.362c.559.355.808.711.715.881" transform="translate(-69.724 -118.29)" fill="#263238"/>
            <path id="Trazado_601518" data-name="Trazado 601518" d="M174.469,240.483c-.3.316-1.458-.051-2.854-.1-1.394-.094-2.585.15-2.848-.2-.115-.167.079-.487.6-.78a4.5,4.5,0,0,1,2.334-.47,4.428,4.428,0,0,1,2.26.711c.484.346.638.684.5.839" transform="translate(-83.953 -118.876)" fill="#263238"/>
            <path id="Trazado_601519" data-name="Trazado 601519" d="M114.94,258.714c-.155-.075-6.3-2.149-6.356,4.2s6.329,5.1,6.342,4.919.014-9.121.014-9.121" transform="translate(-54.025 -128.531)" fill="#ffc09d"/>
            <path id="Trazado_601520" data-name="Trazado 601520" d="M114.6,267.433c-.028-.021-.112.076-.3.16a1.106,1.106,0,0,1-.828.009,2.738,2.738,0,0,1-1.244-2.468,3.657,3.657,0,0,1,.325-1.581,1.279,1.279,0,0,1,.84-.842.563.563,0,0,1,.65.31c.083.178.042.3.075.316.018.016.137-.106.089-.368a.707.707,0,0,0-.246-.4.833.833,0,0,0-.61-.167,1.555,1.555,0,0,0-1.165.974,3.756,3.756,0,0,0-.4,1.767,2.872,2.872,0,0,0,1.588,2.758,1.185,1.185,0,0,0,1.013-.158c.2-.155.233-.3.211-.309" transform="translate(-55.62 -130.554)" fill="#ff9b6c"/>
            <path id="Trazado_601521" data-name="Trazado 601521" d="M145.606,214.262c1.028-.567-2.055-3.9-4.58-5.045-3.817-1.734-9.646-2.8-13.166-1.808-4.239,1.2-7.761,3.306-9.891,7.163a24.982,24.982,0,0,0-2.811,12.754,7.587,7.587,0,0,0,.893,3.88c.886,1.4,2.588,2.29,2.512,4.227a2.659,2.659,0,0,0,.659,1.939c1.161,1.237,2.584.076,3.238-1.088,1.4-2.487,1.555-5.457,1.679-8.307a18.561,18.561,0,0,0-.4-6.041c-.31-1.059-.808-2.06-1.06-3.134a3.813,3.813,0,0,1,.452-3.171,3.989,3.989,0,0,1,.516-.522,6.624,6.624,0,0,1,6.572-1.247c3.576,1.267,9.682,3.16,11.279,1.947a9.788,9.788,0,0,0,2.845-2.884Z" transform="translate(-57.29 -103.004)" fill="#263238"/>
            <path id="Trazado_601522" data-name="Trazado 601522" d="M151.983,273.852c.219-.014.228,1.445,1.481,2.474s2.8.862,2.817,1.066c.021.091-.345.285-1,.305a3.632,3.632,0,0,1-2.351-.807,3.164,3.164,0,0,1-1.148-2.075c-.058-.61.1-.972.2-.964" transform="translate(-75.511 -136.253)" fill="#263238"/>
            <g id="Grupo_886704" data-name="Grupo 886704" transform="translate(58.769 155.932)" opacity="0.3">
              <g id="Grupo_886703" data-name="Grupo 886703">
                <g id="Grupo_886702" data-name="Grupo 886702" clip-path="url(#clip-path-7)">
                  <path id="Trazado_601523" data-name="Trazado 601523" d="M133.924,320.152c-.783-1.312-1.676-2.272-2.46-3.583-.062-.1-.444-.51-.4-.621a3.938,3.938,0,0,0-.531.642c-.8,1.229-2.061,2.359-2.906,3.444l-10.669-9.694a71.585,71.585,0,0,0,9.863,11.428,1.332,1.332,0,0,0,1,.4,1.575,1.575,0,0,0,.95-.683l1.624-1.966a.694.694,0,0,1,1.185-.079l1.642,1.265c.231.178.585.348.778.13.162-.183.042-.468-.084-.678" transform="translate(-116.962 -310.339)"/>
                </g>
              </g>
            </g>
            <path id="Trazado_601524" data-name="Trazado 601524" d="M90.882,310.185s-14.915-3.84-23.462,5.829a18.088,18.088,0,0,0-4.349,13.24c.226,3.3.551,8.055.841,12.438.512,7.722,2.2,26.8,6.286,31.345s15.065,2.336,18.919.823,9.832-1.085,12.788-3.883,7.384-4.521,12.016-6.37,2.78-4.305,2.78-4.305l-6.926-14.656-25.1,5.014s-1.033-9.663.039-12.575,2.885-6.7,3.469-11.147,2.7-15.753,2.7-15.753" transform="translate(-31.358 -153.956)" fill="#92bfb1"/>
            <path id="Trazado_601525" data-name="Trazado 601525" d="M98.29,389.233c.018.047-.682.29-1.718.865a14.23,14.23,0,0,0-1.733,1.142,14.076,14.076,0,0,0-3.386,3.753,14.254,14.254,0,0,0-.958,1.84c-.465,1.089-.635,1.81-.684,1.8a1.981,1.981,0,0,1,.088-.513,5.1,5.1,0,0,1,.16-.589c.074-.226.146-.489.264-.765a12.554,12.554,0,0,1,.924-1.9,13.178,13.178,0,0,1,3.445-3.82,12.507,12.507,0,0,1,1.791-1.113c.263-.146.517-.245.734-.342a5.112,5.112,0,0,1,.57-.219,1.988,1.988,0,0,1,.5-.141" transform="translate(-44.683 -193.658)" fill="#263238"/>
            <g id="Grupo_886707" data-name="Grupo 886707" transform="translate(42.193 195.452)" opacity="0.3">
              <g id="Grupo_886706" data-name="Grupo 886706">
                <g id="Grupo_886705" data-name="Grupo 886705" clip-path="url(#clip-path-8)">
                  <path id="Trazado_601526" data-name="Trazado 601526" d="M94.528,389.085a13.413,13.413,0,0,0-10.456,9.863c-.165.695-.184,1.6.447,1.933a1.213,1.213,0,0,0,1.414-.4,4.117,4.117,0,0,0,.657-1.434,17.264,17.264,0,0,1,8.8-10.06Z" transform="translate(-83.973 -388.991)"/>
                </g>
              </g>
            </g>
            <path id="Trazado_601527" data-name="Trazado 601527" d="M109.288,303.781h2.747l3.139-4.59,12.033,9.854,3.97,5.905,1.933-5.818,4.191-2.082,1.081,3.182,3.5,1.609-4.388,10.98-3.528,4.273s-5.454,4.029-12.691-2.607l-7.238-6.636Z" transform="translate(-54.375 -148.86)" fill="#fff"/>
            <path id="Trazado_601528" data-name="Trazado 601528" d="M98.765,308.326s14.4,21.77,20.224,19.713S130.6,315.8,130.6,315.8s12.669,4.013,16.612,8.3,10.54,29.424,10.54,29.424l-60.59-4.413s-9.026-13.529-9.026-14.558S90.8,309.431,90.8,309.431Z" transform="translate(-43.853 -153.405)" fill="#92bfb1"/>
            <path id="Trazado_601529" data-name="Trazado 601529" d="M156.782,377.955s8.16-3.038,11.78-2.668,17.751,11.535,17.751,11.535l-18.391-.107-1.6-1.459-4.1,4.421Z" transform="translate(-78.006 -186.706)" fill="#ffc09d"/>
            <path id="Trazado_601530" data-name="Trazado 601530" d="M156.142,401.969a5.834,5.834,0,0,1-.827.5l-.056.031-.025-.062c-.549-1.344-1.661-4.232-2.913-7.581-.879-2.35-1.661-4.483-2.215-6.031-.259-.74-.474-1.357-.643-1.838a3.65,3.65,0,0,1-.2-.686,3.782,3.782,0,0,1,.3.651c.189.473.432,1.081.721,1.809.6,1.531,1.407,3.654,2.286,6,1.254,3.349,2.309,6.258,2.777,7.632l-.081-.031a5.742,5.742,0,0,1,.88-.394" transform="translate(-74.263 -192.199)" fill="#263238"/>
            <path id="Trazado_601531" data-name="Trazado 601531" d="M77.064,337.525a2.9,2.9,0,0,1,.571.269c.356.193.867.484,1.476.879a35.046,35.046,0,0,1,4.476,3.47c.822.742,1.575,1.48,2.243,2.168a15.165,15.165,0,0,1,1.682,1.924,3.913,3.913,0,0,1,.678,1.591,2.229,2.229,0,0,1,.027.471c-.008.108-.016.163-.025.163-.025,0-.016-.227-.1-.615a4.157,4.157,0,0,0-.73-1.5,16.768,16.768,0,0,0-1.7-1.861c-.674-.676-1.429-1.4-2.246-2.142a42.976,42.976,0,0,0-4.4-3.511c-.592-.413-1.085-.726-1.424-.945a2.925,2.925,0,0,1-.519-.357" transform="translate(-38.342 -167.932)" fill="#263238"/>
            <path id="Trazado_601532" data-name="Trazado 601532" d="M135.825,387.046a1.978,1.978,0,0,1-.156-.283l-.417-.838-1.536-3.169-5.3-11.113.133.067-10.687,2.145-14.42,2.86-.109.022-.022-.108c-.793-3.907-1.454-7.158-1.921-9.454l-.52-2.645c-.054-.292-.1-.523-.128-.7a1.274,1.274,0,0,1-.033-.242,1.346,1.346,0,0,1,.066.235l.161.691c.138.626.333,1.512.58,2.632.488,2.291,1.181,5.537,2.012,9.435l-.131-.086,14.412-2.9,10.691-2.124.092-.019.04.085,5.219,11.153,1.474,3.2.383.854a2.017,2.017,0,0,1,.12.3" transform="translate(-50.105 -180.901)" fill="#263238"/>
            <path id="Trazado_601533" data-name="Trazado 601533" d="M114.755,308.325a1.089,1.089,0,0,1,.226.158l.617.492c.525.44,1.277,1.087,2.173,1.922s1.945,1.849,3.1,2.976,2.434,2.367,3.876,3.539a17.031,17.031,0,0,0,1.906,1.332l-.17.038c1.152-1.535,2.507-2.672,3.392-3.9l.091-.127.087.127,2.47,3.6.674,1.012a2.149,2.149,0,0,1,.22.37,2.1,2.1,0,0,1-.273-.332l-.723-.977-2.545-3.543h.178c-.893,1.27-2.246,2.426-3.359,3.923l-.071.1-.1-.058a16.971,16.971,0,0,1-1.942-1.352c-1.457-1.185-2.727-2.437-3.881-3.571s-2.182-2.166-3.063-3.013-1.608-1.518-2.112-1.98l-.584-.529a1.1,1.1,0,0,1-.192-.2" transform="translate(-57.095 -153.404)" fill="#263238"/>
            <path id="Trazado_601534" data-name="Trazado 601534" d="M161.214,322.613a5.355,5.355,0,0,1-.921.5c-.591.292-1.433.693-2.424,1.154l-.114.053-.049-.119a10.562,10.562,0,0,0-1.7-2.8l.216-.034c-.527,1.237-1,2.317-1.347,3.085a7.773,7.773,0,0,1-.6,1.21,7.818,7.818,0,0,1,.446-1.275c.306-.785.748-1.878,1.264-3.12l.079-.192.136.158a10.133,10.133,0,0,1,.72.943,9.981,9.981,0,0,1,1.013,1.929l-.163-.066c1-.443,1.855-.814,2.464-1.067a5.338,5.338,0,0,1,.982-.365" transform="translate(-76.756 -159.751)" fill="#263238"/>
          </g>
        </g>
        <g id="Grupo_886711" data-name="Grupo 886711">
          <g id="Grupo_886710" data-name="Grupo 886710" clip-path="url(#clip-path-2)">
            <path id="Trazado_601535" data-name="Trazado 601535" d="M461.292,240.58l7.122,1.267a21.634,21.634,0,1,0-4.011-6.624l-.007-.01Z" transform="translate(-229.512 -102.447)" fill="#fafafa"/>
            <path id="Trazado_601536" data-name="Trazado 601536" d="M461.292,240.467s.06-.114.189-.344l.581-1.029,2.289-4.022a.053.053,0,0,1,.072-.02.056.056,0,0,1,.017.016l.007.01-.093.05a21.493,21.493,0,0,1-.6-13.768c.162-.56.385-1.112.581-1.684a12.9,12.9,0,0,1,.727-1.692,21.509,21.509,0,0,1,4.658-6.389,21.84,21.84,0,0,1,16.8-5.839,22.16,22.16,0,0,1,9.518,3.223,20.566,20.566,0,0,1,2.137,1.507,12.378,12.378,0,0,1,.991.869c.318.305.667.582.961.913a21.791,21.791,0,0,1,1.724,2.04c.263.362.537.719.792,1.088l.694,1.161a21.728,21.728,0,0,1,1.082,19.49,21.678,21.678,0,0,1-20.5,13,23.77,23.77,0,0,1-3.56-.386,28.71,28.71,0,0,1-3.22-.9,21.465,21.465,0,0,1-8.767-5.992l.033.018-5.315-.981-1.351-.253c-.3-.057-.447-.089-.447-.089s.164.023.473.075l1.371.231,5.288.905a.056.056,0,0,1,.033.019,21.476,21.476,0,0,0,8.741,5.9,28.761,28.761,0,0,0,3.2.884,23.613,23.613,0,0,0,3.53.37A21.515,21.515,0,0,0,504.19,235.95a21.5,21.5,0,0,0-1.078-19.26l-.686-1.147c-.252-.366-.524-.717-.783-1.075a21.546,21.546,0,0,0-1.7-2.016c-.291-.328-.636-.6-.95-.9a12.183,12.183,0,0,0-.979-.86,20.31,20.31,0,0,0-2.11-1.489,21.943,21.943,0,0,0-9.4-3.193,21.637,21.637,0,0,0-16.631,5.749,21.351,21.351,0,0,0-4.631,6.314,12.858,12.858,0,0,0-.727,1.675c-.2.566-.419,1.113-.582,1.668a21.3,21.3,0,0,0-.69,3.269,21.682,21.682,0,0,0,1.217,10.41.053.053,0,0,1-.093.05l-.007-.01.089,0-2.326,3.957-.609,1.029c-.138.233-.215.354-.215.354" transform="translate(-229.512 -102.334)" fill="#263238"/>
            <path id="Trazado_601537" data-name="Trazado 601537" d="M520.751,247.959a2.194,2.194,0,1,1,2.193,2.193,2.193,2.193,0,0,1-2.193-2.193" transform="translate(-259.095 -122.279)" fill="#263238"/>
            <path id="Trazado_601538" data-name="Trazado 601538" d="M503.282,247.959a2.193,2.193,0,1,1,2.193,2.193,2.193,2.193,0,0,1-2.193-2.193" transform="translate(-250.404 -122.279)" fill="#263238"/>
            <path id="Trazado_601539" data-name="Trazado 601539" d="M485.565,249.056a2.193,2.193,0,1,1,3,.8,2.193,2.193,0,0,1-3-.8" transform="translate(-241.443 -122.279)" fill="#263238"/>
          </g>
        </g>
        <g id="Grupo_886713" data-name="Grupo 886713">
          <g id="Grupo_886712" data-name="Grupo 886712" clip-path="url(#clip-path-2)">
            <path id="Trazado_601540" data-name="Trazado 601540" d="M45.043,43.395l-7.122,1.267a21.638,21.638,0,1,1,4.01-6.624l.008-.01Z" transform="translate(-0.107 -4.339)" fill="#fafafa"/>
            <path id="Trazado_601541" data-name="Trazado 601541" d="M44.935,43.282s-.077-.122-.215-.354L44.111,41.9l-2.326-3.957.089,0-.007.01a.053.053,0,0,1-.074.013.055.055,0,0,1-.019-.063A21.682,21.682,0,0,0,42.991,27.5a21.35,21.35,0,0,0-.69-3.269c-.163-.555-.386-1.1-.582-1.667a12.768,12.768,0,0,0-.726-1.675,21.352,21.352,0,0,0-4.631-6.314A21.639,21.639,0,0,0,19.73,8.822a21.943,21.943,0,0,0-9.4,3.193A20.323,20.323,0,0,0,8.216,13.5a12.173,12.173,0,0,0-.979.86c-.314.3-.659.574-.95.9a21.551,21.551,0,0,0-1.7,2.016c-.26.358-.531.709-.783,1.075L3.116,19.5a21.5,21.5,0,0,0-1.078,19.26A21.49,21.49,0,0,0,22.3,51.67a23.616,23.616,0,0,0,3.53-.37,28.786,28.786,0,0,0,3.2-.884,21.471,21.471,0,0,0,8.741-5.9.058.058,0,0,1,.033-.019l5.288-.905,1.371-.231c.309-.052.473-.075.473-.075s-.146.032-.447.089l-1.351.253-5.315.981.032-.018a21.459,21.459,0,0,1-8.766,5.992,28.716,28.716,0,0,1-3.22.9,23.77,23.77,0,0,1-3.56.386,21.711,21.711,0,0,1-20.5-13,21.728,21.728,0,0,1,1.082-19.49l.694-1.161c.255-.37.53-.726.792-1.088A21.72,21.72,0,0,1,6.1,15.085c.294-.332.643-.608.961-.913a12.38,12.38,0,0,1,.991-.869A20.565,20.565,0,0,1,10.189,11.8a22.167,22.167,0,0,1,9.518-3.223,21.839,21.839,0,0,1,16.8,5.839A21.517,21.517,0,0,1,41.169,20.8a12.934,12.934,0,0,1,.727,1.692c.2.572.419,1.124.581,1.684a21.437,21.437,0,0,1,.683,3.3,21.658,21.658,0,0,1-1.286,10.47l-.093-.05.007-.01a.053.053,0,0,1,.074-.013.056.056,0,0,1,.016.017l2.289,4.022.581,1.029c.129.23.189.344.189.344" transform="translate(0 -4.226)" fill="#263238"/>
            <path id="Trazado_601542" data-name="Trazado 601542" d="M25.628,50.774a2.193,2.193,0,1,0-2.193,2.193,2.193,2.193,0,0,0,2.193-2.193" transform="translate(-10.568 -24.171)" fill="#263238"/>
            <path id="Trazado_601543" data-name="Trazado 601543" d="M43.1,50.774A2.193,2.193,0,1,0,40.9,52.967,2.193,2.193,0,0,0,43.1,50.774" transform="translate(-19.26 -24.171)" fill="#263238"/>
            <path id="Trazado_601544" data-name="Trazado 601544" d="M60.813,51.871a2.193,2.193,0,1,0-3,.8,2.193,2.193,0,0,0,3-.8" transform="translate(-28.22 -24.171)" fill="#263238"/>
          </g>
        </g>
      </g>
    </g>
  </g>
</svg>
