<svg xmlns="http://www.w3.org/2000/svg" xmlns:xlink="http://www.w3.org/1999/xlink" width="286.841" height="226.469" viewBox="0 0 286.841 226.469">
  <defs>
    <clipPath id="clip-path">
      <rect id="Rectángulo_291369" data-name="Rectángulo 291369" width="217.061" height="217.091" fill="#5d8fb8"/>
    </clipPath>
    <clipPath id="clip-path-2">
      <rect id="Rectángulo_334385" data-name="Rectángulo 334385" width="286.841" height="183.627" fill="none"/>
    </clipPath>
    <clipPath id="clip-path-5">
      <rect id="Rectángulo_334378" data-name="Rectángulo 334378" width="50.936" height="44.67" fill="none"/>
    </clipPath>
    <clipPath id="clip-path-6">
      <rect id="Rectángulo_334379" data-name="Rectángulo 334379" width="19.478" height="13.235" fill="none"/>
    </clipPath>
    <clipPath id="clip-path-7">
      <rect id="Rectángulo_334380" data-name="Rectángulo 334380" width="2.997" height="22.956" fill="none"/>
    </clipPath>
    <clipPath id="clip-path-8">
      <rect id="Rectángulo_334381" data-name="Rectángulo 334381" width="23.583" height="48.252" fill="none"/>
    </clipPath>
    <clipPath id="clip-path-9">
      <rect id="Rectángulo_334382" data-name="Rectángulo 334382" width="14.187" height="76.127" fill="none"/>
    </clipPath>
  </defs>
  <g id="Grupo_886795" data-name="Grupo 886795" transform="translate(-499.08 -2508.818)">
    <g id="Grupo_873890" data-name="Grupo 873890" transform="translate(-1 1667.82)">
      <g id="Grupo_870717" data-name="Grupo 870717" transform="translate(528.045 840.998)">
        <g id="Grupo_870714" data-name="Grupo 870714" clip-path="url(#clip-path)">
          <path id="Trazado_215321" data-name="Trazado 215321" d="M16.525,105.621c27.129-21.63-19.852-56.536-9.449-91.06s44.729.97,63.2,17.979S110.392,19.118,124.742,18.3s6.274,12.483,12.746,29.711,54.177,2.921,73.3,19.561-11.344,52.052-13.909,73.168,30.376,45.01,9.271,76.35l-104.846-.62c-10.55-3.243-17.432-5.813-17.432-5.813C-14.283,168.268-10.6,127.25,16.525,105.621" transform="translate(0 0)" fill="#5d8fb8"/>
        </g>
      </g>
      <path id="Trazado_264543" data-name="Trazado 264543" d="M209.053,582.976c0,3.35-40.736,6.066-90.986,6.066s-90.986-2.716-90.986-6.066,40.759-3.741,91.01-3.741,90.963.391,90.963,3.741" transform="translate(541.728 478.425)" fill="#033f71" opacity="0.4"/>
    </g>
    <g id="Grupo_886650" data-name="Grupo 886650" transform="translate(499.08 2546.295)">
      <g id="Grupo_886649" data-name="Grupo 886649" clip-path="url(#clip-path-2)">
        <g id="Grupo_886629" data-name="Grupo 886629">
          <g id="Grupo_886628" data-name="Grupo 886628" clip-path="url(#clip-path-2)">
            <path id="Trazado_601069" data-name="Trazado 601069" d="M131.948,143.726a15.053,15.053,0,0,1,7.586,1.661,8.443,8.443,0,0,0,3.442.843l3.073-.07.036-34.165a5.86,5.86,0,0,0-5.878-5.842l-32.476.12v-.7a9.036,9.036,0,0,1,.953-3.948,17.958,17.958,0,0,0,1.543-10.974,18.262,18.262,0,0,0-36.233,3.127,17.918,17.918,0,0,0,1.55,7.3,9.006,9.006,0,0,1,.812,3.658l.192,1.536H37.409a5.86,5.86,0,0,0-5.878,5.842V145.52H28.739a8.549,8.549,0,0,1-3.735-.9,17.61,17.61,0,0,0-10.575-1.46,17.281,17.281,0,0,0,2.959,34.286,16.946,16.946,0,0,0,6.907-1.467,8.526,8.526,0,0,1,3.462-.768h3.582l.071,40.861a4.772,4.772,0,0,0,4.787,4.758H140.954c2.644,0,4.715-3.319,4.715-5.946V177.743h-4.24a7.667,7.667,0,0,0-2.856.559A15.861,15.861,0,0,1,116.8,163.028c.318-7.936,7.173-18.749,15.144-19.3" transform="translate(-0.111 -37.473)" fill="#e0e0e0"/>
            <path id="Trazado_601070" data-name="Trazado 601070" d="M131.837,143.631s-.093.014-.277.036a7.632,7.632,0,0,0-.821.124,11.185,11.185,0,0,0-3.073,1.092c-2.556,1.3-5.91,4.284-8.436,9.258a22.064,22.064,0,0,0-2.483,8.866,16.288,16.288,0,0,0,.723,5.251,15.569,15.569,0,0,0,2.689,5.072,15.744,15.744,0,0,0,11.033,5.878,15.52,15.52,0,0,0,6.931-.954,8.26,8.26,0,0,1,3.633-.686l3.8,0h.081v.081q0,8.809.01,18.707,0,4.942,0,10.14,0,2.6,0,5.258,0,1.329,0,2.674a7.558,7.558,0,0,1-.091,1.361,7.269,7.269,0,0,1-.375,1.32,6.931,6.931,0,0,1-1.46,2.336,4.286,4.286,0,0,1-2.425,1.354,13.746,13.746,0,0,1-1.406.036h-4.222l-11.57,0-24.429.007-53.45.011H39.164c-1.189-.011-2.358.025-3.572-.024a4.913,4.913,0,0,1-4.421-5.023q0-1.8-.007-3.615-.007-3.625-.014-7.284-.026-14.637-.054-29.8l.13.13H28.994c-.748.012-1.5-.033-2.232.052a8.587,8.587,0,0,0-2.154.55,22.12,22.12,0,0,1-2.13.824,17.181,17.181,0,0,1-17.323-4.21,16.689,16.689,0,0,1-3.922-5.931c-.137-.375-.306-.74-.418-1.124L.5,164.247A17.618,17.618,0,0,1,1.563,152.8a17.309,17.309,0,0,1,13.324-9.956,17.985,17.985,0,0,1,5.691.133,17.476,17.476,0,0,1,2.744.744c.445.161.885.337,1.313.538a13.626,13.626,0,0,0,1.281.551c1.741.687,3.645.436,5.5.483l-.13.13q0-10.838,0-21.4,0-5.277,0-10.478a16.234,16.234,0,0,1,.1-2.612,5.782,5.782,0,0,1,1.035-2.4,5.984,5.984,0,0,1,4.446-2.46l39.56-.015-.118.134c-.066-.527-.129-1.032-.192-1.536v-.015a8.61,8.61,0,0,0-.468-2.759c-.147-.445-.341-.867-.527-1.307s-.343-.885-.49-1.335a18.079,18.079,0,0,1-.874-5.552l.076-1.4c.018-.232.015-.466.049-.7L74,90.909c.086-.456.126-.92.25-1.366l.37-1.335a4.2,4.2,0,0,1,.223-.652l.253-.641a9.041,9.041,0,0,1,.558-1.255l.636-1.214.754-1.139a17.834,17.834,0,0,1,3.7-3.916l.522-.422.559-.368c.376-.24.742-.495,1.124-.722a19.547,19.547,0,0,1,2.4-1.134,18.145,18.145,0,0,1,5.088-1.219,17.944,17.944,0,0,1,2.592-.041c.429.029.86.036,1.287.083l1.271.192a18.49,18.49,0,0,1,8.912,4.455,18.147,18.147,0,0,1,5.543,17.4,19.107,19.107,0,0,1-1.535,4.276,9.334,9.334,0,0,0-.66,2.1,10.686,10.686,0,0,0-.138,2.185l-.094-.093,24.706-.08,5.62-.018,1.369,0c.453,0,.9-.006,1.361.027a5.984,5.984,0,0,1,2.536.855,5.893,5.893,0,0,1,2.77,4.217,22.769,22.769,0,0,1,.06,2.493q0,1.228,0,2.425c-.026,12.771-.047,22.924-.062,30.065v.038h-.038c-1.238.017-2.389.074-3.467.052a8.7,8.7,0,0,1-2.876-.753,19.1,19.1,0,0,0-4.246-1.506,13.057,13.057,0,0,0-2.641-.284c-.293,0-.511.006-.656.013s-.217.006-.217.006a8.553,8.553,0,0,1,.873-.038,12.722,12.722,0,0,1,2.649.266,19,19,0,0,1,4.261,1.491,8.648,8.648,0,0,0,2.857.739c1.067.019,2.225-.042,3.461-.062l-.038.038c0-7.141,0-17.293,0-30.064q0-1.2,0-2.426a22.868,22.868,0,0,0-.062-2.473,5.748,5.748,0,0,0-2.707-4.109,5.826,5.826,0,0,0-2.472-.83c-.44-.031-.892-.03-1.346-.025l-1.369.006-5.62.024-24.706.1h-.093v-.094a10.891,10.891,0,0,1,.139-2.219,9.516,9.516,0,0,1,.672-2.148,18.933,18.933,0,0,0,1.519-4.241,17.947,17.947,0,0,0-5.493-17.2,18.281,18.281,0,0,0-8.811-4.4l-1.255-.19c-.421-.045-.848-.052-1.272-.081a17.675,17.675,0,0,0-2.562.042,17.922,17.922,0,0,0-5.026,1.207,19.289,19.289,0,0,0-2.37,1.121c-.376.224-.738.476-1.11.713l-.553.364-.515.417a17.616,17.616,0,0,0-3.656,3.87l-.744,1.125-.628,1.2a8.865,8.865,0,0,0-.55,1.24l-.25.633a4.08,4.08,0,0,0-.219.645l-.364,1.317c-.122.44-.161.9-.246,1.349l-.112.679c-.033.227-.03.458-.047.687L74,93.688a17.827,17.827,0,0,0,.865,5.48c.146.444.306.884.484,1.317s.383.866.533,1.321a8.856,8.856,0,0,1,.482,2.834v-.015c.063.5.126,1.009.192,1.536l.017.134h-.135l-39.543.027a5.732,5.732,0,0,0-4.259,2.357,5.54,5.54,0,0,0-.99,2.3,16.112,16.112,0,0,0-.1,2.566q0,5.2,0,10.478,0,10.555,0,21.4v.13H28.622a8.359,8.359,0,0,1-2.793-.5,13.6,13.6,0,0,1-1.3-.559c-.421-.2-.855-.371-1.293-.53a17.209,17.209,0,0,0-2.7-.732,17.715,17.715,0,0,0-5.608-.131A17.051,17.051,0,0,0,1.8,152.911,17.359,17.359,0,0,0,.755,164.185l.311,1.141c.109.378.277.737.412,1.106a16.425,16.425,0,0,0,3.863,5.842A16.92,16.92,0,0,0,22.4,176.421a21.834,21.834,0,0,0,2.114-.818,8.834,8.834,0,0,1,2.219-.566c.765-.088,1.516-.041,2.262-.053h2.364v.13q.025,15.147.05,29.8.006,3.659.012,7.284,0,1.813.006,3.616a4.66,4.66,0,0,0,4.192,4.772c1.164.047,2.37.013,3.547.024h7.063l53.45.011,24.429.007,11.57,0H139.9a13.769,13.769,0,0,0,1.378-.033,4.083,4.083,0,0,0,2.309-1.292A6.739,6.739,0,0,0,145,217.037a7.071,7.071,0,0,0,.366-1.283,7.306,7.306,0,0,0,.089-1.327q0-1.345,0-2.674,0-2.66,0-5.258,0-5.2,0-10.14,0-9.884.01-18.707l.081.081-3.8,0a8.1,8.1,0,0,0-3.578.672,15.656,15.656,0,0,1-7,.955,15.874,15.874,0,0,1-11.12-5.943,15.693,15.693,0,0,1-2.7-5.117,16.394,16.394,0,0,1-.718-5.29,22.127,22.127,0,0,1,2.512-8.9c2.546-4.984,5.921-7.962,8.493-9.258a11.035,11.035,0,0,1,3.09-1.075,7.12,7.12,0,0,1,.824-.113c.185-.018.279-.025.279-.025" transform="translate(0 -37.378)" fill="#263238"/>
            <path id="Trazado_601071" data-name="Trazado 601071" d="M378.711,175.446a17.5,17.5,0,0,0-7.132,1.515,9.229,9.229,0,0,1-2.388.7V141.751a4.787,4.787,0,0,0-4.786-4.787H327.038V141.2a7.616,7.616,0,0,0,.562,2.856,15.85,15.85,0,0,1-15.367,21.768,16,16,0,0,1-15.184-14.74,15.725,15.725,0,0,1,1.456-7.813,7.867,7.867,0,0,0,.776-3.34v-2.973l-37.857-.12a5.877,5.877,0,0,0-5.878,5.877l-.037,33.306h-2.581c-.293,0-.59-.008-.887-.029a19.341,19.341,0,1,0-1.792,32.419,7.412,7.412,0,0,1,1.567-.172h3.312v37.173a5.878,5.878,0,0,0,5.878,5.878H364.4a4.786,4.786,0,0,0,4.786-4.787V208.661a9.517,9.517,0,0,1,1.854.679,17.546,17.546,0,0,0,10.721,1.508,17.843,17.843,0,0,0-3.056-35.4" transform="translate(-109.642 -67.795)" fill="#f5f5f5"/>
            <path id="Trazado_601072" data-name="Trazado 601072" d="M378.59,175.323s.379.013,1.124.05a8.792,8.792,0,0,1,1.383.132l.887.143a6.437,6.437,0,0,1,1,.228l1.123.308c.388.131.785.3,1.208.464.21.085.429.163.646.259l.646.335a11.536,11.536,0,0,1,1.352.76,17.852,17.852,0,0,1,8.339,13.961c.018.431.057.868.059,1.309q-.036.662-.072,1.339c-.017.225-.013.453-.048.679s-.068.453-.1.681-.071.458-.106.688c-.054.227-.107.455-.162.684a17.822,17.822,0,0,1-2.268,5.39,17.714,17.714,0,0,1-10.235,7.672c-.556.171-1.138.259-1.712.394-.583.092-1.173.175-1.771.213a17.563,17.563,0,0,1-7.276-1,36.892,36.892,0,0,0-3.559-1.4l.1-.079q0,8.719.01,18.487,0,4.877,0,10,0,2.561,0,5.182,0,1.31,0,2.635,0,.662,0,1.329c.005.22-.013.45-.023.676a5.139,5.139,0,0,1-.114.672,4.9,4.9,0,0,1-3.753,3.653,6.8,6.8,0,0,1-1.386.1h-4.156l-11.382,0-24.011.007-52.475.01-6.93,0h-3.493a8.8,8.8,0,0,1-1.771-.122,6.582,6.582,0,0,1-1.679-.619A6.066,6.066,0,0,1,255.531,248a5.74,5.74,0,0,1-.562-1.712,10.014,10.014,0,0,1-.089-1.791q0-3.556,0-7.146,0-14.36,0-29.232l.13.13h-2.389c-.408,0-.832-.008-1.238.007a7.476,7.476,0,0,0-1.226.161l.037-.014a19.415,19.415,0,0,1-7.868,2.486,19.437,19.437,0,0,1-20.193-13.057,19.959,19.959,0,0,1-1.065-6.162A20.8,20.8,0,0,1,222,185.52a19.421,19.421,0,0,1,2.829-5.5,20.9,20.9,0,0,1,2.007-2.352l1.143-1.038c.385-.34.816-.625,1.222-.941a20.17,20.17,0,0,1,5.466-2.752,21.442,21.442,0,0,1,6.02-.9,19.393,19.393,0,0,1,11.3,3.734l-.067-.024c1.143.058,2.311.017,3.458.029l-.129.129q.013-10.673.025-21.066.006-5.194.012-10.311l0-1.278c0-.423,0-.852.036-1.288a6.015,6.015,0,0,1,4.947-5.272,16.327,16.327,0,0,1,2.528-.088l2.5.008,4.972.017,9.811.033,19.067.064h.117v.117q0,1.337,0,2.667a7.9,7.9,0,0,1-.375,2.647,10.189,10.189,0,0,1-.5,1.235c-.183.4-.341.8-.49,1.208a15.534,15.534,0,0,0,.858,12.423,15.806,15.806,0,0,0,2.955,4.015,16.4,16.4,0,0,0,3.992,2.868,15.534,15.534,0,0,0,9.373,1.522,15.744,15.744,0,0,0,8.317-3.971,15.47,15.47,0,0,0,2.874-3.525,15.007,15.007,0,0,0,1.725-4.122,15.488,15.488,0,0,0-.186-8.621c-.195-.688-.515-1.328-.71-2.028a7.692,7.692,0,0,1-.29-2.127q0-2.117,0-4.192v-.094h.094l27.347.014,6.146,0h2.965c.488,0,.972-.012,1.463.035a5.013,5.013,0,0,1,1.4.381,4.872,4.872,0,0,1,2.9,4.478q0,2.707,0,5.264c-.015,13.632-.026,24-.033,30.616l-.037-.032a24.822,24.822,0,0,0,4.148-1.366,17.421,17.421,0,0,1,2.992-.673,16.729,16.729,0,0,1,1.8-.143c.4-.009.589,0,.589,0l-.588.02a17.616,17.616,0,0,0-4.773.846,24.688,24.688,0,0,1-4.153,1.383l-.037.005v-.036c-.007-6.613-.019-16.984-.034-30.616q0-2.556,0-5.264a4.732,4.732,0,0,0-2.819-4.345,4.878,4.878,0,0,0-1.361-.367c-.47-.045-.958-.03-1.446-.032l-2.965,0-6.146,0-27.347.013.093-.094q0,2.076,0,4.192a7.5,7.5,0,0,0,.284,2.074c.188.674.512,1.326.711,2.023a15.69,15.69,0,0,1,.2,8.73,15.217,15.217,0,0,1-1.744,4.178,15.69,15.69,0,0,1-2.908,3.572,15.956,15.956,0,0,1-8.426,4.03,15.743,15.743,0,0,1-9.5-1.538,16.6,16.6,0,0,1-4.049-2.906,16.042,16.042,0,0,1-3-4.069,15.767,15.767,0,0,1-.876-12.606c.151-.414.311-.825.5-1.227a9.993,9.993,0,0,0,.486-1.21,7.67,7.67,0,0,0,.363-2.575q0-1.329,0-2.667l.118.118-19.066-.057-9.812-.029-4.972-.015-2.5-.008a16.18,16.18,0,0,0-2.486.085,5.764,5.764,0,0,0-4.739,5.053c-.032.411-.039.832-.034,1.26l0,1.278q0,5.117-.01,10.311-.011,10.389-.021,21.066v.131h-.13c-1.155-.013-2.3.029-3.477-.03l-.036,0-.031-.023A19.122,19.122,0,0,0,240.69,172.3a21.131,21.131,0,0,0-5.939.886,19.891,19.891,0,0,0-5.392,2.716c-.4.311-.825.592-1.205.928l-1.128,1.024a20.592,20.592,0,0,0-1.98,2.322,19.166,19.166,0,0,0-2.79,5.43,20.515,20.515,0,0,0-.925,6.069,19.315,19.315,0,0,0,5.566,13.359,19.352,19.352,0,0,0,15.4,5.6,19.145,19.145,0,0,0,7.762-2.451l.018-.01.02,0a7.644,7.644,0,0,1,1.269-.167c.429-.015.837,0,1.25-.008h2.519v.13q0,14.859,0,29.232,0,3.59,0,7.146a9.741,9.741,0,0,0,.086,1.749,5.5,5.5,0,0,0,.537,1.639,5.813,5.813,0,0,0,2.361,2.448,6.324,6.324,0,0,0,1.608.593,8.653,8.653,0,0,0,1.721.118H271.87l52.475.01,24.011.007,11.382,0h4.156a6.554,6.554,0,0,0,1.344-.1,4.7,4.7,0,0,0,3.6-3.5,5.163,5.163,0,0,0,.133-1.3q0-.666,0-1.329,0-1.325,0-2.635,0-2.62,0-5.182,0-5.122,0-10,.005-9.755.01-18.487v-.1l.1.024a36.821,36.821,0,0,1,3.573,1.406,17.412,17.412,0,0,0,7.211,1c.593-.037,1.178-.119,1.756-.209.57-.133,1.147-.221,1.7-.389a17.78,17.78,0,0,0,12.427-12.949q.081-.341.162-.679c.035-.228.071-.456.106-.683s.069-.452.1-.676.031-.451.048-.675q.038-.672.075-1.33c0-.438-.039-.872-.057-1.3a17.794,17.794,0,0,0-8.266-13.911,11.507,11.507,0,0,0-1.345-.761l-.643-.337c-.216-.1-.434-.175-.643-.26-.422-.162-.817-.336-1.2-.467l-1.118-.312a6.429,6.429,0,0,0-1-.234l-.884-.148a8.879,8.879,0,0,0-1.38-.143c-.743-.044-1.122-.073-1.122-.073" transform="translate(-109.521 -67.672)" fill="#263238"/>
          </g>
        </g>
        <g id="Grupo_886646" data-name="Grupo 886646">
          <g id="Grupo_886645" data-name="Grupo 886645" clip-path="url(#clip-path-2)">
            <path id="Trazado_601073" data-name="Trazado 601073" d="M283.541,225.87a5.554,5.554,0,0,1,3.2-.546c1.5.328,6.94,3.876,6.94,3.876l4.384-.819,2.584,12.379-17.1,7.108Z" transform="translate(-140.472 -111.594)" fill="#ae7461"/>
            <path id="Trazado_601074" data-name="Trazado 601074" d="M256.846,230.258a25.2,25.2,0,0,0,5.337-1.2c1.419-.71,4.8-3.712,5.513-3.658s3.275.546,3.275.546l-1.037,3.112s5.131,3.111,6.659,4.258,6.332,6.277,6.55,7.533a3.882,3.882,0,0,1-.764,3.221c-.6.491-2.784-.491-2.784-.491a2.728,2.728,0,0,1-.491,2.238c-.818,1.092-2.729.71-2.729.71s-.163,1.8-1.037,2.129S272.5,248,272.5,248s-.593,1.528-1.306,1.692-2.733-1.037-2.733-1.037-8.734-6.277-10.7-7.205a10.043,10.043,0,0,0-2.565-.982Z" transform="translate(-126.43 -111.666)" fill="#ffbe9d"/>
            <path id="Trazado_601075" data-name="Trazado 601075" d="M288.236,267.728c-.039,0-.064-.154-.156-.384a6.843,6.843,0,0,0-.439-.871,5.568,5.568,0,0,1-.676-1.245,3.066,3.066,0,0,1,.9,1.114,3.247,3.247,0,0,1,.39.951c.053.266.011.438-.022.435" transform="translate(-142.165 -131.399)" fill="#eb996e"/>
            <path id="Trazado_601076" data-name="Trazado 601076" d="M294.43,264.914a13.82,13.82,0,0,1-1.1-1.649c-.6-.909-1.237-1.516-1.191-1.572a3.856,3.856,0,0,1,1.409,1.425,5.3,5.3,0,0,1,.883,1.8" transform="translate(-144.73 -129.646)" fill="#eb996e"/>
            <path id="Trazado_601077" data-name="Trazado 601077" d="M301.5,258.2c-.078.019-.321-.925-.924-1.944s-1.3-1.7-1.244-1.757a5.359,5.359,0,0,1,2.169,3.7" transform="translate(-148.292 -126.083)" fill="#eb996e"/>
            <path id="Trazado_601078" data-name="Trazado 601078" d="M298.527,248.335a4.916,4.916,0,0,1,.131,2.947,29.759,29.759,0,0,1-.131-2.947" transform="translate(-147.88 -123.03)" fill="#eb996e"/>
            <path id="Trazado_601079" data-name="Trazado 601079" d="M273.372,232.055a34.212,34.212,0,0,1,1.856-4.913c.491-.546,5.056-1.748,5.056-1.748l1.415,3.658-1.013,1.071-2.183-.143a3.739,3.739,0,0,1-5.131,2.074" transform="translate(-135.434 -111.666)" fill="#ae7461"/>
            <path id="Trazado_601080" data-name="Trazado 601080" d="M256.5,255.708s-.624.48,0,1.627,2.317.327,2.862,0c0,0-.819,1.91.218,2.511a4.072,4.072,0,0,0,2.293.436,2.23,2.23,0,0,0,1.419,1.911c1.474.764,1.856,0,1.856,0s.164,1.91,1.856,2.074a2.951,2.951,0,0,0,2.288-.418l-.759-1.128s.982-2,.218-2.876a2.615,2.615,0,0,0-2.02-.764s.334-1.774-.639-2.268a1.791,1.791,0,0,0-2.581.794s-.109-1.944-1.529-1.9a3.162,3.162,0,0,0-2.183.917Z" transform="translate(-126.939 -126.683)" fill="#ae7461"/>
            <path id="Trazado_601081" data-name="Trazado 601081" d="M269.082,259.474a7.179,7.179,0,0,1-1.607,2.732,14.69,14.69,0,0,1,1.607-2.732" transform="translate(-132.51 -128.548)" fill="#6f4439"/>
            <path id="Trazado_601082" data-name="Trazado 601082" d="M275.267,262.882a5.951,5.951,0,0,1-1.882,2.751,57.177,57.177,0,0,1,1.882-2.751" transform="translate(-135.439 -130.237)" fill="#6f4439"/>
            <path id="Trazado_601083" data-name="Trazado 601083" d="M199.9,303.707h-8.28l-2.12,30.11h8.3c1.413-4.586,4.946-28.483,4.946-28.483Z" transform="translate(-93.882 -150.463)" fill="#263238"/>
            <path id="Trazado_601084" data-name="Trazado 601084" d="M112.452,303.707s-5.3,12.426-4.77,17.456,3.506,12.654,3.506,12.654H152.2a94.237,94.237,0,0,0,2.027-10.414c.884-6.213,3.269-19.7,3.269-19.7Z" transform="translate(-53.33 -150.463)" fill="#263238"/>
            <path id="Trazado_601085" data-name="Trazado 601085" d="M172.993,44.384c-1.385-1.748-3.1-3.431-3.451-5.633-.326-2.024.559-4.241-.349-6.08-1.117-2.262-4.327-2.7-5.719-4.807-.674-1.019-.834-2.309-1.5-3.334-1.134-1.746-3.461-2.308-5.539-2.188s-4.106.765-6.187.809c-2.855.06-5.747-1.011-8.519-.327-3.059.755-5.033,3.333-7.12,5.82l-2.7,2.871a11.266,11.266,0,0,1-1.771,1.3,20.353,20.353,0,0,0-3.332,1.905,5.043,5.043,0,0,0-.022,7.273,5.393,5.393,0,0,0-3.888,5.106,15.483,15.483,0,0,0,.8,3.7,5.386,5.386,0,0,1-.079,3.717,2.369,2.369,0,0,1-3.155,1.185,5.673,5.673,0,0,0,2.906,3.925,3.4,3.4,0,0,1-2.328.9c2.047,5.532,8.189,8.683,14.079,8.995s11.636-1.652,17.206-3.591l16.059-3.369c1.408-.252,2.068-1.918,2.116-3.348s-.244-2.934.329-4.244c.787-1.8,2.96-2.667,3.779-4.45.93-2.026-.228-4.39-1.613-6.138" transform="translate(-59.678 -11.061)" fill="#263238"/>
            <path id="Trazado_601086" data-name="Trazado 601086" d="M146.471,65.573a65.423,65.423,0,0,1-2.28-11.057,22.851,22.851,0,0,1,1.468-11.092c.226-.524,2.106-4.025,2.67-3.939.4.061-.812,3.353-.625,3.717a19.384,19.384,0,0,1,1.6,11.4,51.057,51.057,0,0,1-2.829,10.973" transform="translate(-71.374 -19.561)" fill="#263238"/>
            <path id="Trazado_601087" data-name="Trazado 601087" d="M147.87,46.2c.18-9.449,5.828-17.221,15.269-16.78l.87.091a16.9,16.9,0,0,1,15.122,17.215c-.2,8.189-.529,17.235-1.041,21.586-1.062,9.007-10.23,9.458-10.23,9.458-.02,0-.246,14.878-.246,14.878L146.147,77.775Z" transform="translate(-72.404 -14.567)" fill="#ffbe9d"/>
            <path id="Trazado_601088" data-name="Trazado 601088" d="M178.01,120.639a21.9,21.9,0,0,1-11.377-4.709s2.114,7.622,11.2,7.759Z" transform="translate(-82.554 -57.434)" fill="#eb996e"/>
            <path id="Trazado_601089" data-name="Trazado 601089" d="M202.784,76.309a1.3,1.3,0,0,1-1.379,1.169,1.238,1.238,0,0,1-1.2-1.3,1.3,1.3,0,0,1,1.377-1.17,1.24,1.24,0,0,1,1.206,1.3" transform="translate(-99.182 -37.159)" fill="#263238"/>
            <path id="Trazado_601090" data-name="Trazado 601090" d="M201.925,69.144c-.177.151-1.077-.674-2.463-.816-1.383-.162-2.475.444-2.607.258-.066-.083.129-.369.605-.644a3.553,3.553,0,0,1,2.109-.414,3.412,3.412,0,0,1,1.939.859c.392.372.5.691.417.758" transform="translate(-97.52 -33.444)" fill="#263238"/>
            <path id="Trazado_601091" data-name="Trazado 601091" d="M177.927,76.309a1.3,1.3,0,0,1-1.379,1.169,1.238,1.238,0,0,1-1.2-1.3,1.3,1.3,0,0,1,1.378-1.17,1.24,1.24,0,0,1,1.206,1.3" transform="translate(-86.867 -37.159)" fill="#263238"/>
            <path id="Trazado_601092" data-name="Trazado 601092" d="M174.9,67.42c-.178.151-1.079-.674-2.464-.816-1.383-.162-2.475.444-2.608.258-.065-.083.128-.369.606-.644a3.552,3.552,0,0,1,2.109-.415,3.417,3.417,0,0,1,1.939.859c.391.372.5.691.418.758" transform="translate(-84.132 -32.59)" fill="#263238"/>
            <path id="Trazado_601093" data-name="Trazado 601093" d="M187.522,79.769a9.23,9.23,0,0,1,2.294-.169c.358,0,.7-.034.785-.269a1.81,1.81,0,0,0-.126-1.074q-.364-1.337-.762-2.805c-1.049-3.99-1.769-7.255-1.608-7.3s1.142,3.16,2.191,7.15q.375,1.475.717,2.817a2.06,2.06,0,0,1,.037,1.408.893.893,0,0,1-.636.457,2.4,2.4,0,0,1-.61.02,9.058,9.058,0,0,1-2.282-.237" transform="translate(-92.902 -33.766)" fill="#263238"/>
            <path id="Trazado_601094" data-name="Trazado 601094" d="M178.925,92.219c.227.011.071,1.515,1.246,2.719s2.794,1.207,2.783,1.418c.011.1-.388.255-1.067.2a3.769,3.769,0,0,1-2.333-1.1,3.283,3.283,0,0,1-.948-2.27c.009-.635.216-.99.318-.97" transform="translate(-88.486 -45.687)" fill="#263238"/>
            <path id="Trazado_601095" data-name="Trazado 601095" d="M174.644,56.538c-.177.363-1.541.038-3.188.063-1.647-.009-3.009.329-3.189-.031-.079-.172.187-.5.755-.811a5.545,5.545,0,0,1,4.858-.024c.572.3.841.631.763.8" transform="translate(-83.356 -27.34)" fill="#263238"/>
            <path id="Trazado_601096" data-name="Trazado 601096" d="M202.134,59.825c-.277.289-1.2-.138-2.344-.275-1.141-.176-2.142-.012-2.332-.365-.081-.17.105-.469.561-.723a3.419,3.419,0,0,1,3.768.516c.371.366.47.7.347.847" transform="translate(-97.816 -28.792)" fill="#263238"/>
            <path id="Trazado_601097" data-name="Trazado 601097" d="M143.265,75.565c-.147-.083-6-2.486-6.457,3.7s5.852,5.365,5.875,5.189.581-8.889.581-8.889" transform="translate(-67.766 -37.175)" fill="#ffbe9d"/>
            <path id="Trazado_601098" data-name="Trazado 601098" d="M142.515,83.889c-.026-.022-.114.068-.3.138a1.079,1.079,0,0,1-.807-.043,2.675,2.675,0,0,1-1.059-2.483,3.578,3.578,0,0,1,.415-1.521,1.248,1.248,0,0,1,.871-.768.55.55,0,0,1,.615.342c.07.179.022.3.054.312.016.017.14-.093.11-.353a.7.7,0,0,0-.215-.406.817.817,0,0,0-.585-.2,1.516,1.516,0,0,0-1.2.876,3.662,3.662,0,0,0-.5,1.7,2.8,2.8,0,0,0,1.376,2.787,1.156,1.156,0,0,0,1-.091c.2-.139.246-.275.226-.288" transform="translate(-69.316 -39.092)" fill="#eb996e"/>
            <path id="Trazado_601099" data-name="Trazado 601099" d="M174.939,35.059c1.037-.488-1.76-3.926-4.15-5.2-3.612-1.927-9.227-3.333-12.721-2.58-4.206.905-7.77,2.739-10.085,6.365A24.4,24.4,0,0,0,144.45,45.9a7.409,7.409,0,0,0,.629,3.838c.777,1.424,2.38,2.393,2.186,4.276a2.6,2.6,0,0,0,.522,1.931c1.055,1.278,2.513.235,3.223-.859,1.517-2.337,1.854-5.222,2.153-7.992a18.148,18.148,0,0,0-.013-5.913c-.237-1.051-.66-2.057-.838-3.12A3.728,3.728,0,0,1,152.949,35a3.932,3.932,0,0,1,.536-.476,6.468,6.468,0,0,1,6.483-.807c3.406,1.458,9.241,3.682,10.872,2.6a9.561,9.561,0,0,0,2.953-2.633Z" transform="translate(-71.557 -13.412)" fill="#263238"/>
            <path id="Trazado_601100" data-name="Trazado 601100" d="M163.253,25.365a13.626,13.626,0,0,1,10.421,1.247,7.088,7.088,0,0,1,3.467,4.351,4.065,4.065,0,0,1-2.339,4.675l-.127.068c-2.7.72-4.392.255-6.966-.826-2.166-.91-4.049-2.4-6.22-3.3a12.6,12.6,0,0,0-7.349-.688,20.578,20.578,0,0,1,9.113-5.525" transform="translate(-76.364 -12.319)" fill="#263238"/>
            <path id="Trazado_601101" data-name="Trazado 601101" d="M175.3,23.72a2.73,2.73,0,0,1,.63.063,10.147,10.147,0,0,1,1.666.453,10.615,10.615,0,0,1,2.279,1.175,8.827,8.827,0,0,1,2.272,2.175,8.41,8.41,0,0,1,1.249,2.886A15.122,15.122,0,0,1,183.781,33c.051.726.053,1.315.045,1.721a2.747,2.747,0,0,1-.045.63,3.076,3.076,0,0,1-.058-.628c-.024-.4-.054-.989-.128-1.706a16.808,16.808,0,0,0-.43-2.489,8.47,8.47,0,0,0-1.23-2.794,8.911,8.911,0,0,0-2.194-2.127,11.226,11.226,0,0,0-2.21-1.2,22.527,22.527,0,0,0-2.228-.689" transform="translate(-86.849 -11.749)" fill="#455a64"/>
            <path id="Trazado_601102" data-name="Trazado 601102" d="M186.594,23.042a2.238,2.238,0,0,1,.534.148,4.424,4.424,0,0,1,.611.229l.774.392a7.981,7.981,0,0,1,3.21,3.775,9.859,9.859,0,0,1,.455,1.361,9.746,9.746,0,0,1,.2,1.32,9.165,9.165,0,0,1,.024,1.207,8.781,8.781,0,0,1-.142,1.043,5.317,5.317,0,0,1-.229.836,3.9,3.9,0,0,1-.249.6,2.232,2.232,0,0,1-.286.476,11.38,11.38,0,0,0,.582-1.951,7.626,7.626,0,0,0,.06-2.195,10.276,10.276,0,0,0-.211-1.282,10.1,10.1,0,0,0-.448-1.32,8.2,8.2,0,0,0-3.065-3.718l-.739-.417a5.712,5.712,0,0,0-.584-.266,2.3,2.3,0,0,1-.5-.243" transform="translate(-92.443 -11.414)" fill="#455a64"/>
            <path id="Trazado_601103" data-name="Trazado 601103" d="M149.09,135.131c0,.849,4.256,19.541,5.884,24.131s6.787,50.632,6.108,53.912-2.443,3.148-2.443,3.148-41.67-2.623-46.149-2.23-6.379.262-7.465-4.854.032-31.7-.918-38.131-.958-9.543-1.326-19.092c-.318-8.277,1.565-14.915,5.5-19.706s12.649-9.635,12.649-9.635l3.091-4.507,21.871,11.567.5-2.632,1.327,4.1Z" transform="translate(-50.903 -58.542)" fill="#455a64"/>
            <g id="Grupo_886632" data-name="Grupo 886632" transform="translate(56.745 93.659)" opacity="0.3">
              <g id="Grupo_886631" data-name="Grupo 886631">
                <g id="Grupo_886630" data-name="Grupo 886630" clip-path="url(#clip-path-5)">
                  <path id="Trazado_601104" data-name="Trazado 601104" d="M163.3,225.517c-.364-.928-1.546-1.162-2.537-1.272-9.267-1.028-18.912-3.341-25.681-9.753a48.067,48.067,0,0,1-6.748-8.583c-4.4-6.65-8.533-13.471-12.667-20.29l-3.21,1.214a129.768,129.768,0,0,0,7.112,24.489c3.21,7.9,5.7,15.548,13.821,18.132,5.253,1.671,15.229.39,20.724-.04a32.154,32.154,0,0,0,6.808-1.067,4.438,4.438,0,0,0,1.842-.937,1.816,1.816,0,0,0,.536-1.893" transform="translate(-112.461 -185.619)"/>
                </g>
              </g>
            </g>
            <path id="Trazado_601105" data-name="Trazado 601105" d="M109.742,162.938c.24.427,18.784,40.035,27.064,41.664s34.012,2.009,39.034,1.059,9.936-1.835,9.936-1.835,3.637-8.637.317-16l-6.911.218s-19.219-1.036-21.934-1.779-5.06-3.288-7.5-3.152l-14.62-34.024s-9.5-8.823-16.288-6.108-11.083,16.415-9.094,19.953" transform="translate(-54.126 -70.581)" fill="#455a64"/>
            <path id="Trazado_601106" data-name="Trazado 601106" d="M248.2,250.187a3.377,3.377,0,0,1,.137-.665c.109-.422.246-1.038.391-1.8s.275-1.682.367-2.705a29.011,29.011,0,0,0,.072-3.338,27.265,27.265,0,0,0-.941-5.986c-.206-.75-.394-1.352-.538-1.764a3.392,3.392,0,0,1-.192-.651,3.246,3.246,0,0,1,.288.617,17.969,17.969,0,0,1,.621,1.746,24.393,24.393,0,0,1,1.025,6.028,26.365,26.365,0,0,1-.093,3.371,23.71,23.71,0,0,1-.426,2.72,18,18,0,0,1-.474,1.792,3.348,3.348,0,0,1-.236.638" transform="translate(-122.613 -115.569)" fill="#263238"/>
            <path id="Trazado_601107" data-name="Trazado 601107" d="M135.6,155.6s.1.2.276.6.439,1,.78,1.778c.682,1.569,1.679,3.867,2.958,6.812,2.551,5.909,6.219,14.406,10.7,24.79l-.1-.063a6.325,6.325,0,0,1,3.241.993c1.009.556,1.986,1.2,3.058,1.692a10.27,10.27,0,0,0,3.479.809c1.217.144,2.46.251,3.72.36,5.043.417,10.387.745,15.952,1.056h-.011l6.912-.221.087,0,.033.078a17.8,17.8,0,0,1,1.384,7.932,25.965,25.965,0,0,1-1.7,8.167l-.025.065-.073.014-4.394.812-4.811.888a32.143,32.143,0,0,1-4.815.5c-3.2.145-6.349.158-9.445.142s-6.136-.089-9.112-.2-5.888-.259-8.726-.476c-1.419-.1-2.819-.238-4.2-.389a29.283,29.283,0,0,1-4.065-.675,7.079,7.079,0,0,1-1.759-1.016,14.79,14.79,0,0,1-1.5-1.311,32.361,32.361,0,0,1-2.566-2.894,106.155,106.155,0,0,1-7.79-11.718c-4.347-7.428-7.484-13.648-9.638-17.948-1.071-2.154-1.882-3.836-2.427-4.979s-.816-1.75-.816-1.75.082.145.227.435l.638,1.292,2.47,4.956c2.182,4.284,5.343,10.49,9.707,17.9a106.7,106.7,0,0,0,7.8,11.677,32.089,32.089,0,0,0,2.553,2.87,14.567,14.567,0,0,0,1.475,1.289,6.843,6.843,0,0,0,1.7.98,29.474,29.474,0,0,0,4.012.657c1.375.148,2.772.283,4.189.383q4.249.319,8.716.466c2.973.107,6.012.177,9.1.193s6.243,0,9.43-.146a31.907,31.907,0,0,0,4.78-.492l4.811-.889,4.4-.811-.1.078a25.726,25.726,0,0,0,1.679-8.076,17.563,17.563,0,0,0-1.357-7.816l.121.075-6.912.216h-.011c-5.567-.315-10.91-.649-15.959-1.074-1.261-.112-2.5-.22-3.727-.367-.611-.069-1.217-.148-1.818-.262a6.8,6.8,0,0,1-1.726-.571c-1.092-.5-2.071-1.153-3.069-1.705a6.141,6.141,0,0,0-3.125-.973l-.073,0-.028-.066c-4.448-10.4-8.088-18.909-10.619-24.826L136.6,158l-.753-1.789c-.168-.4-.247-.616-.247-.616" transform="translate(-54.606 -77.088)" fill="#263238"/>
            <path id="Trazado_601108" data-name="Trazado 601108" d="M135.715,145.828c-.018.016-.258-.239-.72-.666A13.886,13.886,0,0,0,129.273,142a12.87,12.87,0,0,0-9.358.935,13.891,13.891,0,0,0-4.983,4.228c-.367.511-.553.808-.574.8a.958.958,0,0,1,.113-.229c.086-.142.195-.365.377-.625a12.22,12.22,0,0,1,1.719-2.064,13.212,13.212,0,0,1,16.407-1.64,12.2,12.2,0,0,1,2.093,1.683c.231.218.381.415.493.538a.942.942,0,0,1,.155.2" transform="translate(-56.655 -69.987)" fill="#263238"/>
            <path id="Trazado_601109" data-name="Trazado 601109" d="M187.3,223.089a34.744,34.744,0,0,1-2.117,5.654,34.739,34.739,0,0,1,2.117-5.654" transform="translate(-91.741 -110.523)" fill="#263238"/>
            <path id="Trazado_601110" data-name="Trazado 601110" d="M254.975,235.967c0-.015.071-.035.191.008a.719.719,0,0,1,.371.363.794.794,0,0,1-.019.786.907.907,0,0,1-.877.406.851.851,0,0,1-.661-.705.815.815,0,0,1,.252-.745.666.666,0,0,1,.5-.162c.121.012.181.043.178.06.009.05-.294-.019-.546.237a.645.645,0,0,0-.144.565.628.628,0,0,0,.467.492.692.692,0,0,0,.632-.281.622.622,0,0,0,.049-.578c-.129-.361-.4-.411-.392-.446" transform="translate(-125.821 -116.877)" fill="#263238"/>
            <path id="Trazado_601111" data-name="Trazado 601111" d="M165.62,136.066a3.484,3.484,0,0,1-.5-.258l-1.38-.789.1-.042c-.272,1.379-.536,3.408-1,5.84l-.03.161-.141-.089c-2.031-1.28-4.467-2.742-7.066-4.313-1.938-1.16-3.75-2.331-5.418-3.343s-3.209-1.872-4.5-2.6l-3.062-1.7-.831-.467a1.55,1.55,0,0,1-.282-.178,1.6,1.6,0,0,1,.306.131l.854.424c.738.375,1.8.928,3.1,1.631s2.846,1.557,4.534,2.551l5.43,3.326c2.6,1.57,5.03,3.046,7.05,4.346l-.172.073c.483-2.413.782-4.445,1.094-5.821l.021-.09.077.048,1.348.842a3.463,3.463,0,0,1,.463.316" transform="translate(-70.107 -63.557)" fill="#263238"/>
            <g id="Grupo_886635" data-name="Grupo 886635" transform="translate(74.477 66.367)" opacity="0.3">
              <g id="Grupo_886634" data-name="Grupo 886634">
                <g id="Grupo_886633" data-name="Grupo 886633" clip-path="url(#clip-path-6)">
                  <path id="Trazado_601112" data-name="Trazado 601112" d="M147.6,131.529l11.413,8.5c2.511,1.871,5.083,3.774,8.065,4.731l-.165-7.932-1.168,5.568Z" transform="translate(-147.602 -131.529)"/>
                </g>
              </g>
            </g>
            <path id="Trazado_601113" data-name="Trazado 601113" d="M375.988,32.329A4.091,4.091,0,0,1,374.1,24.41a4.256,4.256,0,0,1,3.571-7.246,5.093,5.093,0,0,1,7.6-4.32,5.727,5.727,0,0,1,7.047-.278,4.073,4.073,0,0,1,3.728,6.84" transform="translate(-183.983 -5.691)" fill="#263238"/>
            <path id="Trazado_601114" data-name="Trazado 601114" d="M378.548,37.921a17.355,17.355,0,0,1,16.973-16.31l.9-.019c9.7.369,14.808,8.814,14.171,18.5l.577,34.562-23.573,8.461-.206-12.446s-9.344-1.258-9.649-10.569c-.147-4.5.3-13.782.809-22.179" transform="translate(-187.126 -10.697)" fill="#ae7461"/>
            <path id="Trazado_601115" data-name="Trazado 601115" d="M396.737,115.082a22.6,22.6,0,0,0,12.131-3.82s-2.734,6.761-12.044,6.111Z" transform="translate(-196.552 -55.122)" fill="#6f4439"/>
            <path id="Trazado_601116" data-name="Trazado 601116" d="M384.554,69.435a1.33,1.33,0,0,0,1.31,1.316,1.272,1.272,0,0,0,1.346-1.227,1.331,1.331,0,0,0-1.308-1.317,1.274,1.274,0,0,0-1.348,1.228" transform="translate(-190.516 -33.791)" fill="#263238"/>
            <path id="Trazado_601117" data-name="Trazado 601117" d="M383.5,61.477c.168.171,1.161-.6,2.592-.621,1.429-.046,2.495.669,2.646.491.075-.079-.1-.39-.564-.712a3.646,3.646,0,0,0-2.123-.608,3.5,3.5,0,0,0-2.059.712c-.433.347-.576.663-.493.739" transform="translate(-189.983 -29.738)" fill="#263238"/>
            <path id="Trazado_601118" data-name="Trazado 601118" d="M410.4,69.435a1.33,1.33,0,0,0,1.31,1.315,1.272,1.272,0,0,0,1.346-1.227,1.331,1.331,0,0,0-1.308-1.316,1.273,1.273,0,0,0-1.348,1.228" transform="translate(-203.319 -33.791)" fill="#263238"/>
            <path id="Trazado_601119" data-name="Trazado 601119" d="M411.391,61.438c.169.171,1.162-.6,2.593-.621,1.429-.046,2.495.669,2.646.49.075-.079-.1-.389-.564-.712a3.645,3.645,0,0,0-2.122-.608,3.515,3.515,0,0,0-2.059.711c-.432.347-.575.664-.493.739" transform="translate(-203.801 -29.718)" fill="#263238"/>
            <path id="Trazado_601120" data-name="Trazado 601120" d="M397.946,72.387a9.442,9.442,0,0,0-2.333-.372c-.366-.03-.714-.1-.781-.344a1.861,1.861,0,0,1,.222-1.088l1.024-2.8c1.42-3.993,2.44-7.272,2.279-7.328s-1.443,3.135-2.863,7.128q-.512,1.476-.978,2.82a2.117,2.117,0,0,0-.16,1.439.917.917,0,0,0,.612.522,2.457,2.457,0,0,0,.622.074,9.344,9.344,0,0,0,2.356-.044" transform="translate(-195.334 -29.948)" fill="#263238"/>
            <path id="Trazado_601121" data-name="Trazado 601121" d="M410.337,51.661c.2.359,1.414-.06,2.924-.139,1.507-.114,2.785.145,2.915-.235.056-.181-.219-.5-.769-.781a4.535,4.535,0,0,0-2.276-.43,4.374,4.374,0,0,0-2.173.715c-.494.346-.709.7-.622.869" transform="translate(-203.28 -24.804)" fill="#263238"/>
            <path id="Trazado_601122" data-name="Trazado 601122" d="M382.927,51.353c.308.319,1.482-.043,2.9-.087,1.418-.086,2.627.165,2.9-.181.118-.168-.078-.489-.609-.787a4.629,4.629,0,0,0-2.371-.484,4.549,4.549,0,0,0-2.3.7c-.495.344-.653.682-.517.838" transform="translate(-189.687 -24.676)" fill="#263238"/>
            <path id="Trazado_601123" data-name="Trazado 601123" d="M380.948,32.542s2.338-5.882,5.122-7.3c3.371-1.717,4.913,1.99,8.139,1.017s6.444-2.62,9.811-.18c3.685,2.672,2.024,4.632,2.333,8.76,1.25,16.735,4.406,21.41,5.115,13.5.078-.867,2.463-1.6,2.744-5.263.365-4.746.429-10.5-.7-13.841-.949-2.815-2.6-4.74-5.545-6.839-4.642-3.314-10.925-3.259-15.181-2.743s-12.38,5.592-11.843,12.887" transform="translate(-188.717 -9.608)" fill="#263238"/>
            <path id="Trazado_601124" data-name="Trazado 601124" d="M440.143,73.83a2.528,2.528,0,0,1,2.68-2.492c1.74.13,3.693,1.077,3.652,4.668-.074,6.371-6.455,4.983-6.464,4.8-.007-.124.078-4.311.132-6.977" transform="translate(-217.991 -35.339)" fill="#ae7461"/>
            <path id="Trazado_601125" data-name="Trazado 601125" d="M442.807,80.456c.028-.02.111.079.3.167a1.11,1.11,0,0,0,.83.027,2.746,2.746,0,0,0,1.3-2.449,3.667,3.667,0,0,0-.293-1.592,1.279,1.279,0,0,0-.825-.861.564.564,0,0,0-.658.3c-.088.177-.049.3-.083.315-.018.016-.135-.108-.081-.371a.711.711,0,0,1,.255-.4.836.836,0,0,1,.616-.155,1.56,1.56,0,0,1,1.148,1,3.774,3.774,0,0,1,.364,1.781,2.882,2.882,0,0,1-1.65,2.733,1.19,1.19,0,0,1-1.013-.181c-.2-.159-.228-.3-.205-.314" transform="translate(-219.373 -37.369)" fill="#6f4439"/>
            <path id="Trazado_601126" data-name="Trazado 601126" d="M414.574,33.661a6.051,6.051,0,0,1-2.671,1.3,2.078,2.078,0,0,1-2.334-1.414c-.085-.442.013-.958-.285-1.295-.356-.4-1-.26-1.527-.193a4.065,4.065,0,0,1-4.278-2.828,1.707,1.707,0,0,1-2.284.262,9.142,9.142,0,0,1-1.771-1.82,2.621,2.621,0,0,0-2.208-1.049,6.277,6.277,0,0,1-1.379.333c-.838-.057-1.266-1.028-1.409-1.855s-.262-1.793-.979-2.23a3.335,3.335,0,0,0-2.278-.017c-.767.129-1.765-.031-1.977-.78a1.512,1.512,0,0,1,.261-1.161,4.124,4.124,0,0,1,4.836-1.66,5.591,5.591,0,0,1,10.247-1.293,5.673,5.673,0,0,1,9.109,1.884,4.112,4.112,0,0,1,4.758,5.886,3.9,3.9,0,0,1,2.211,3.065,2.236,2.236,0,0,1-2.485,2.336,2.278,2.278,0,0,1-3.892,2.351" transform="translate(-192.797 -7.504)" fill="#263238"/>
            <path id="Trazado_601127" data-name="Trazado 601127" d="M398.466,27.022a.331.331,0,0,0,0,.117,3.4,3.4,0,0,0,.047.339A4.009,4.009,0,0,0,399,28.695a4.556,4.556,0,0,0,1.443,1.477,4.241,4.241,0,0,0,2.623.69l-.111-.139a2.3,2.3,0,0,0,.164,1.755,6.582,6.582,0,0,0,1.122,1.544,4.734,4.734,0,0,0,.727.717,2.233,2.233,0,0,0,1.017.354,2.325,2.325,0,0,0,2.034-.776l-.239-.063a4.78,4.78,0,0,0,2.093,3.263,3.485,3.485,0,0,0,2.1.642,6.278,6.278,0,0,0,2.051-.494l-.172-.071a5.013,5.013,0,0,0,1.547,1.935,2.672,2.672,0,0,0,2.23.559,3.508,3.508,0,0,0,2.645-2.8l-.143.07a3.283,3.283,0,0,0,2.194.277,3.557,3.557,0,0,0,1.512-.711,3.078,3.078,0,0,0,.7-.792,1.511,1.511,0,0,0,.155-.333,3.832,3.832,0,0,1-.916,1.041,3.535,3.535,0,0,1-1.476.644,3.141,3.141,0,0,1-2.071-.3l-.121-.065-.022.135a3.308,3.308,0,0,1-2.5,2.6,2.426,2.426,0,0,1-2.025-.53,4.787,4.787,0,0,1-1.454-1.836l-.052-.117-.12.045a6.082,6.082,0,0,1-1.962.471,3.217,3.217,0,0,1-1.944-.6,4.52,4.52,0,0,1-1.978-3.075l-.046-.3-.194.237a2.067,2.067,0,0,1-1.8.685,1.969,1.969,0,0,1-.9-.306,4.612,4.612,0,0,1-.686-.671,6.408,6.408,0,0,1-1.1-1.477,2.089,2.089,0,0,1-.171-1.588l.049-.153-.16.014a4.092,4.092,0,0,1-2.513-.623,4.537,4.537,0,0,1-1.432-1.4,4.927,4.927,0,0,1-.64-1.61" transform="translate(-197.407 -13.387)" fill="#455a64"/>
            <path id="Trazado_601128" data-name="Trazado 601128" d="M407.634,85.084c-.228.027.035,1.528-1.061,2.821s-2.723,1.41-2.7,1.622c0,.1.408.229,1.086.128a3.8,3.8,0,0,0,2.268-1.269,3.308,3.308,0,0,0,.793-2.348c-.054-.638-.287-.98-.388-.953" transform="translate(-200.088 -42.152)" fill="#263238"/>
            <path id="Trazado_601129" data-name="Trazado 601129" d="M308.207,216.235c.807-.323,27.474-3.527,27.474-3.527l10.819-9.16-1.015,26.517-34.049,3.283Z" transform="translate(-152.692 -100.842)" fill="#599884"/>
            <g id="Grupo_886638" data-name="Grupo 886638" transform="translate(186.027 106.756)" opacity="0.3">
              <g id="Grupo_886637" data-name="Grupo 886637">
                <g id="Grupo_886636" data-name="Grupo 886636" clip-path="url(#clip-path-7)">
                  <path id="Trazado_601130" data-name="Trazado 601130" d="M371.676,211.575c-.324.162-3,2.537-3,2.537l.815,20.419Z" transform="translate(-368.679 -211.575)"/>
                </g>
              </g>
            </g>
            <path id="Trazado_601131" data-name="Trazado 601131" d="M420.436,306.745H375.394s2.385,12.709,3.268,18.565a74.992,74.992,0,0,0,2.174,10.011h40.794s3.046-7.383,3.576-12.124-4.769-16.453-4.769-16.453" transform="translate(-185.978 -151.968)" fill="#263238"/>
            <path id="Trazado_601132" data-name="Trazado 601132" d="M368.194,309.785a170.529,170.529,0,0,0,0,27.043h15.6V325.259Z" transform="translate(-182.134 -153.474)" fill="#263238"/>
            <path id="Trazado_601133" data-name="Trazado 601133" d="M385.922,140.125l4.854-10.629.6-6.565s9.307-5.85,13.724-8.058a96.535,96.535,0,0,1,10.365-4.207v6.2Z" transform="translate(-191.194 -54.826)" fill="#ebebeb"/>
            <path id="Trazado_601134" data-name="Trazado 601134" d="M416.145,196.59s2.636-35.431,2.815-38.063c0,0,1.557-18.931-1.8-26.14s-10.883-13.544-10.883-13.544l-.693-3.784-14.692,9.261-6.792,5.907a67.86,67.86,0,0,0-6.408,7.973,28.134,28.134,0,0,0-5.025,10.414c-.348,1.578-4.391,20.438-4.511,33.585,0,0-.621,11.469-1.284,17.966-.82,8.041-2.069,26.372-1.8,37.232l47.608-1.454c11.765-1.795,9.7-2.964,9.7-2.964Z" transform="translate(-180.845 -57.002)" fill="#599884"/>
            <path id="Trazado_601135" data-name="Trazado 601135" d="M407.851,122.944s-.111.057-.33.15l-.971.406c-.415.2-.92.464-1.513.771-.569.352-1.247.716-1.95,1.216a54.086,54.086,0,0,0-10.46,9.668l-.027.032-.039.008-4.568.84.1-.114c-.072,2.122-.147,4.349-.225,6.654l0,.052-.039.037a63.2,63.2,0,0,0-6.716,7.362,28.929,28.929,0,0,0-2.3,3.481l-.249.449-.19.468a8.1,8.1,0,0,0-.345.95c-.2.645-.4,1.285-.57,1.932-.7,2.573-1.287,5.084-1.832,7.477-1.084,4.787-1.987,9.116-2.735,12.752-1.494,7.274-2.336,11.788-2.336,11.788a7.343,7.343,0,0,1,.1-.828c.083-.541.222-1.335.4-2.357.369-2.044.926-5,1.649-8.64s1.61-7.975,2.681-12.769c.539-2.4,1.116-4.91,1.82-7.492.165-.648.367-1.294.572-1.945a8.359,8.359,0,0,1,.352-.972l.2-.484.252-.455a29,29,0,0,1,2.323-3.514,62.8,62.8,0,0,1,6.753-7.391l-.041.089c.083-2.3.163-4.532.239-6.654l0-.1.1-.017,4.57-.824-.067.039a52.9,52.9,0,0,1,10.561-9.634c.71-.494,1.4-.852,1.973-1.2.6-.3,1.112-.556,1.533-.746l.987-.376c.224-.083.342-.118.342-.118" transform="translate(-183.578 -60.909)" fill="#263238"/>
            <path id="Trazado_601136" data-name="Trazado 601136" d="M406.293,165.924l.571,47.277-7.2,46.046h18.98s8.625-34.961,10.634-42.308c1.951-7.134,4.873-43.044,5.133-44.808.1-.691,2.159-13.093-3.9-18.943" transform="translate(-198.003 -75.892)" fill="#599884"/>
            <path id="Trazado_601137" data-name="Trazado 601137" d="M430.364,153.187s.137.13.4.395a10.552,10.552,0,0,1,1.037,1.274,15.868,15.868,0,0,1,2.37,5.826,32.6,32.6,0,0,1,.361,9.976c-.285,1.937-.428,4.007-.638,6.213s-.412,4.534-.634,6.98c-.453,4.893-.964,10.254-1.581,16.006-.317,2.875-.645,5.85-1.052,8.907a72.769,72.769,0,0,1-1.672,9.372l-10.33,41.142-.025.1H399.364l.023-.15c2.664-16.983,5.122-32.658,7.222-46.042l0,.018c-.154-14.316-.281-26.134-.369-34.378-.037-4.116-.066-7.34-.086-9.54-.006-1.093-.011-1.932-.014-2.5s.006-.857.006-.857.015.291.027.857.026,1.409.046,2.5c.033,2.2.082,5.423.144,9.539.111,8.245.269,20.062.461,34.377v.018c-2.086,13.386-4.53,29.064-7.177,46.049l-.128-.15,16.932,0H418.5l-.128.1c3.677-14.614,7.175-28.513,10.353-41.142a72.665,72.665,0,0,0,1.676-9.339c.41-3.054.743-6.027,1.064-8.9.627-5.749,1.148-11.108,1.613-16q.343-3.669.652-6.978c.215-2.2.368-4.292.658-6.214a32.688,32.688,0,0,0-.315-9.939,16.012,16.012,0,0,0-2.315-5.817,11.282,11.282,0,0,0-1.013-1.286c-.252-.269-.377-.412-.377-.412" transform="translate(-197.854 -75.892)" fill="#263238"/>
            <path id="Trazado_601138" data-name="Trazado 601138" d="M423.372,277.205a7.776,7.776,0,0,1-1.467-.425c-.892-.3-2.111-.768-3.426-1.352s-2.477-1.177-3.3-1.635a7.729,7.729,0,0,1-1.3-.8,10.14,10.14,0,0,1,1.385.638c.844.414,2.012.977,3.322,1.559s2.512,1.07,3.384,1.418a10.071,10.071,0,0,1,1.4.6" transform="translate(-205.044 -135.244)" fill="#263238"/>
            <path id="Trazado_601139" data-name="Trazado 601139" d="M368.294,240.851a.436.436,0,0,1,0-.124c0-.1.008-.216.013-.362q.027-.509.075-1.391c.078-1.23.189-2.97.325-5.111.291-4.315.707-10.274,1.289-16.847s1.254-12.515,1.8-16.8c.275-2.145.508-3.879.684-5.076q.13-.872.206-1.377l.06-.357a.062.062,0,1,1,.027,0c-.009.1-.021.215-.034.361l-.157,1.384c-.144,1.224-.349,2.955-.6,5.085-.5,4.294-1.141,10.233-1.724,16.805s-1.026,12.527-1.365,16.837c-.171,2.138-.31,3.877-.409,5.1q-.078.878-.124,1.387c-.016.145-.028.263-.039.36a.43.43,0,0,1-.022.122" transform="translate(-182.458 -95.756)" fill="#263238"/>
            <path id="Trazado_601140" data-name="Trazado 601140" d="M440.148,134.484a17.628,17.628,0,0,0-4.406-7.008,4.2,4.2,0,0,1,.962.778,12.6,12.6,0,0,1,3.16,5.026,4.237,4.237,0,0,1,.284,1.2" transform="translate(-215.875 -63.153)" fill="#263238"/>
            <path id="Trazado_601141" data-name="Trazado 601141" d="M375.429,256.322c.014,0,.062.116.046.344a1.374,1.374,0,0,1-.413.856,1.307,1.307,0,0,1-1.368.311,1.517,1.517,0,0,1-.7-.5,1.4,1.4,0,0,1-.285-.887,1.839,1.839,0,0,1,.365-1.1,1.133,1.133,0,0,1,.443-.349c.182-.067.313-.1.464-.147l.019-.006h.017a1.587,1.587,0,0,1,.915.263,1.183,1.183,0,0,1,.424.6,1.206,1.206,0,0,1,.077.617c-.031.007-.059-.222-.2-.568a1.1,1.1,0,0,0-.405-.495,1.443,1.443,0,0,0-.808-.189l.035-.006c-.137.048-.311.1-.436.151a.909.909,0,0,0-.34.282,1.63,1.63,0,0,0-.3.946,1.2,1.2,0,0,0,.807,1.16,1.123,1.123,0,0,0,1.161-.218,1.381,1.381,0,0,0,.438-.735c.044-.2.033-.326.055-.328" transform="translate(-184.646 -126.254)" fill="#263238"/>
            <path id="Trazado_601142" data-name="Trazado 601142" d="M374.03,289.452c.014,0,.062.116.046.344a1.373,1.373,0,0,1-.413.856,1.307,1.307,0,0,1-1.368.311,1.516,1.516,0,0,1-.7-.5,1.4,1.4,0,0,1-.285-.887,1.839,1.839,0,0,1,.365-1.1,1.133,1.133,0,0,1,.443-.349c.182-.067.313-.1.464-.147l.019-.006h.017a1.587,1.587,0,0,1,.915.263,1.183,1.183,0,0,1,.424.6,1.206,1.206,0,0,1,.077.617c-.031.007-.059-.222-.2-.568a1.092,1.092,0,0,0-.405-.495,1.444,1.444,0,0,0-.808-.189l.035-.006c-.137.048-.311.1-.436.151a.909.909,0,0,0-.34.282,1.629,1.629,0,0,0-.3.946,1.2,1.2,0,0,0,.807,1.16,1.123,1.123,0,0,0,1.161-.219,1.381,1.381,0,0,0,.438-.735c.044-.2.033-.326.055-.328" transform="translate(-183.953 -142.667)" fill="#263238"/>
            <path id="Trazado_601143" data-name="Trazado 601143" d="M444.266,145.837c-.027.045-.653-.356-1.76-.781a12.249,12.249,0,0,0-2-.569,12.353,12.353,0,0,0-5.05.07,12.279,12.279,0,0,0-1.98.624c-1.1.455-1.711.873-1.738.829a1.991,1.991,0,0,1,.417-.314,4.477,4.477,0,0,1,.523-.318,7.388,7.388,0,0,1,.725-.367,11.029,11.029,0,0,1,2-.689,11.712,11.712,0,0,1,5.152-.071,11.066,11.066,0,0,1,2.018.634,7.527,7.527,0,0,1,.734.347,4.354,4.354,0,0,1,.532.3,1.988,1.988,0,0,1,.425.3" transform="translate(-213.893 -71.34)" fill="#263238"/>
            <g id="Grupo_886641" data-name="Grupo 886641" transform="translate(188.801 70.467)" opacity="0.3">
              <g id="Grupo_886640" data-name="Grupo 886640">
                <g id="Grupo_886639" data-name="Grupo 886639" clip-path="url(#clip-path-8)">
                  <path id="Trazado_601144" data-name="Trazado 601144" d="M374.175,187.908c2.056-2.992,2.81-5.813,3.909-9.273,1.632-5.142,2.088-10.951,4.649-15.7,1.509-2.8,3.282-5.664,5.905-7.457,2.558-1.749,2.937-3.972,2.887-9.984a7.041,7.041,0,0,0,3.991-1.638,10.178,10.178,0,0,0,2.242-4.2c-1.283,1.395-3.421,3.709-3.421,3.709s-4.638.861-4.569.832c-.114,2.313-.118,4.341-.232,6.654,0,0-8.9,9.439-9.589,11.337s-5.772,25.72-5.772,25.72" transform="translate(-374.175 -139.656)"/>
                </g>
              </g>
            </g>
            <g id="Grupo_886644" data-name="Grupo 886644" transform="translate(221.831 101.524)" opacity="0.3">
              <g id="Grupo_886643" data-name="Grupo 886643">
                <g id="Grupo_886642" data-name="Grupo 886642" clip-path="url(#clip-path-9)">
                  <path id="Trazado_601145" data-name="Trazado 601145" d="M439.637,277.332c11.275-21.34,14.779-49.4,14.108-76.127,0,0-3.236,32.487-4.327,38.064-1.083,5.537-9.781,38.063-9.781,38.063" transform="translate(-439.637 -201.205)"/>
                </g>
              </g>
            </g>
            <path id="Trazado_601146" data-name="Trazado 601146" d="M420.028,116.136a1.443,1.443,0,0,1-.253.193l-.751.51-2.79,1.834-9.255,5.964-3.993,2.546.009-.006-1.276.987a10.217,10.217,0,0,0-1.139.973c-.7.675-1.321,1.332-1.881,1.927l-.1.107-.058-.133-1.456-3.366-.383-.921a1.668,1.668,0,0,1-.117-.329,1.652,1.652,0,0,1,.168.307l.43.9,1.535,3.331-.159-.026c.552-.607,1.167-1.272,1.864-1.96a10.377,10.377,0,0,1,1.154-1l1.264-.992,0,0,0,0,3.988-2.558,9.3-5.9,2.834-1.762.778-.468a1.446,1.446,0,0,1,.281-.148" transform="translate(-196.475 -57.536)" fill="#263238"/>
          </g>
        </g>
        <g id="Grupo_886648" data-name="Grupo 886648">
          <g id="Grupo_886647" data-name="Grupo 886647" clip-path="url(#clip-path-2)">
            <path id="Trazado_601147" data-name="Trazado 601147" d="M310.616,35.423l-6.3-.736a20.267,20.267,0,1,1,4.085-6l.007-.009Z" transform="translate(-133.601 -0.119)" fill="#fff"/>
            <path id="Trazado_601148" data-name="Trazado 601148" d="M310.5,35.3s-.057-.154-.156-.446l-.438-1.293-1.676-4.989.109.02-.007.009a.063.063,0,0,1-.088.01.064.064,0,0,1-.019-.075,20.23,20.23,0,0,0,1.638-9.832,19.856,19.856,0,0,0-.5-3.079,22.715,22.715,0,0,0-1.075-3.158,20.094,20.094,0,0,0-38.4,5.278,20.471,20.471,0,0,0,.93,9.2,19.8,19.8,0,0,0,4.577,7.41,20.169,20.169,0,0,0,13.829,6.1l.863.011a5.456,5.456,0,0,0,.848-.027l1.651-.146a27.927,27.927,0,0,0,3.066-.673,20.158,20.158,0,0,0,8.5-5.1.062.062,0,0,1,.05-.018l4.664.582,1.213.155c.274.036.42.059.42.059s-.129-.009-.4-.037l-1.2-.127-4.716-.513.049-.017a20.153,20.153,0,0,1-8.534,5.193,27.982,27.982,0,0,1-3.092.693l-1.667.154a5.5,5.5,0,0,1-.857.03l-.872-.008a20.364,20.364,0,0,1-14.009-6.133,20.021,20.021,0,0,1-4.649-7.5,20.709,20.709,0,0,1-.951-9.327,20.239,20.239,0,0,1,3.585-9.137,9.041,9.041,0,0,1,.747-.98l.782-.947.863-.866a8.411,8.411,0,0,1,.892-.825l.934-.77c.3-.265.659-.46.984-.692s.656-.459,1-.655l1.05-.564A20.076,20.076,0,0,1,289.354,0a20.427,20.427,0,0,1,15.109,6.267,20.22,20.22,0,0,1,4.023,6.114,22.89,22.89,0,0,1,1.074,3.195,19.92,19.92,0,0,1,.494,3.111,20.232,20.232,0,0,1-1.712,9.9l-.107-.066.007-.009a.063.063,0,0,1,.088-.01.065.065,0,0,1,.021.03l1.616,5.056c.177.56.312.986.406,1.285s.129.426.129.426" transform="translate(-133.488 0)" fill="#263238"/>
            <path id="Trazado_601149" data-name="Trazado 601149" d="M291.31,34.092l2.421-2.678,5.137,4.123,7.629-8.762,2.5,2.43L298.751,40.472Z" transform="translate(-144.321 -13.265)" fill="#263238"/>
            <path id="Trazado_601150" data-name="Trazado 601150" d="M239.4,44.123l4-.5a.052.052,0,0,1,.042.015,17.291,17.291,0,0,0,7.291,4.371,23.962,23.962,0,0,0,2.629.577l1.415.125a4.651,4.651,0,0,0,.727.023l.74-.01a17.23,17.23,0,0,0,7.7-2.082c-.157-.061-.315-.118-.471-.183a20.076,20.076,0,0,1-6.629-4.493,19.624,19.624,0,0,1-4.557-7.353,20.3,20.3,0,0,1-.932-9.142,19.838,19.838,0,0,1,3.513-8.956,8.918,8.918,0,0,1,.732-.961l.766-.928.329-.33c-.189-.009-.378-.022-.567-.024a17.235,17.235,0,0,0-16.226,10.455,19.5,19.5,0,0,0-.922,2.708,17.022,17.022,0,0,0-.431,2.64,17.343,17.343,0,0,0,1.4,8.43.056.056,0,0,1-.015.064l-1.426,4.245-.376,1.109c-.085.25-.134.382-.134.382s.125-.019.36-.05l1.039-.133" transform="translate(-117.913 -7.07)" fill="#f5f5f5"/>
            <path id="Trazado_601151" data-name="Trazado 601151" d="M239.363,44s-.117.025-.351.06l-1.044.152-.047.007.015-.046,1.9-5.747.021-.03c-.01,0,0,.033-.011,0l-.035-.082-.071-.165-.138-.338c-.093-.228-.178-.464-.264-.7-.17-.483-.321-.994-.457-1.527a17.115,17.115,0,0,1-.506-3.487,16.506,16.506,0,0,1,.821-5.99A14.726,14.726,0,0,1,240,24.032a17.253,17.253,0,0,1,6.311-7.235,17.43,17.43,0,0,1,10.348-2.752l.287.016-.2.2-.329.33.008-.009a20.383,20.383,0,0,0-4.79,9.547,19.791,19.791,0,0,0,12.309,22.281l.246.094-.233.111a21.462,21.462,0,0,1-2.728,1.187,17.706,17.706,0,0,1-2.744.678,18.3,18.3,0,0,1-5.17.071h-.01c-.581-.118-1.155-.214-1.711-.339A14.627,14.627,0,0,1,250,47.748a17.607,17.607,0,0,1-2.766-1.245,17.276,17.276,0,0,1-3.845-2.931c-.007-.048-.113,0-.189,0l-.236.028-.452.053-.816.1-1.279.147-.787.085c-.177.018-.269.02-.269.02s.089-.02.265-.046l.784-.111,1.277-.172.815-.107.451-.06.236-.031.121-.016a.283.283,0,0,1,.076-.005.1.1,0,0,1,.053.028l.023.022a17.361,17.361,0,0,0,9.88,4.872h-.01a21.653,21.653,0,0,0,2.488.137,16.9,16.9,0,0,0,2.633-.229,17.539,17.539,0,0,0,2.709-.679,21.344,21.344,0,0,0,2.689-1.181l.013.2a20,20,0,0,1-12.486-22.541,20.607,20.607,0,0,1,4.851-9.661l.007-.008,0,0,.329-.33.085.219A17.159,17.159,0,0,0,240.2,24.122a14.524,14.524,0,0,0-.806,2.036,16.348,16.348,0,0,0-.84,5.923,17.039,17.039,0,0,0,.48,3.456c.131.53.278,1.037.443,1.517.084.24.167.475.257.7l.135.337.069.164.034.082c.017.015.033.124-.027.158l.021-.03c-.892,2.612-1.555,4.571-1.972,5.725l-.032-.04,1.05-.123c.235-.025.355-.03.355-.03" transform="translate(-117.871 -6.945)" fill="#263238"/>
          </g>
        </g>
      </g>
    </g>
  </g>
</svg>
