<svg xmlns="http://www.w3.org/2000/svg" width="104.455" height="104.423" viewBox="0 0 104.455 104.423">
  <g id="Grupo_873638" data-name="Grupo 873638" transform="translate(7787.907 5352.848)">
    <path id="Trazado_266969" data-name="Trazado 266969" d="M103.8,18.468c-.578,0-1.4.026-2.215-.006a1.787,1.787,0,0,1-1.865-1.826,1.753,1.753,0,0,1,1.819-1.752c2.249-.044,4.5-.07,6.749-.023,1.609.033,2.2.606,2.237,2.178.05,2.288.023,4.575-.029,6.861a1.746,1.746,0,0,1-1.808,1.764,1.776,1.776,0,0,1-1.763-1.813c-.038-.88-.007-1.763-.007-2.9-2.052,2.014-3.938,3.816-5.77,5.671A136.271,136.271,0,0,1,76.726,46.732,118.783,118.783,0,0,1,35.357,62.793,148.121,148.121,0,0,1,8.414,65.281a2.114,2.114,0,0,1-1.986-.791A1.668,1.668,0,0,1,6.3,62.684a1.831,1.831,0,0,1,1.74-1.011c2.7-.066,5.4-.092,8.095-.231,22.643-1.164,43.658-7.37,62.494-20.274A123.382,123.382,0,0,0,96.817,25.809c2.39-2.427,4.7-4.937,6.98-7.342" transform="translate(-7794 -5360.568)" fill="#00c298"/>
    <path id="Trazado_266970" data-name="Trazado 266970" d="M101.34,80.2q0-13.161,0-26.321c0-3.8,2.185-5.963,6.014-5.967,1.012,0,2.025-.016,3.037.006a5.348,5.348,0,0,1,5.335,5.276c.046,4.161.023,8.324.01,12.486a1.811,1.811,0,0,1-1.78,2.028c-1.1.011-1.808-.792-1.812-2.109-.01-3.787,0-7.574,0-11.361,0-2.278-.457-2.726-2.779-2.726-.824,0-1.65-.019-2.474.006a1.813,1.813,0,0,0-1.946,1.976c-.008.225,0,.45,0,.675q0,26.152,0,52.305c0,2.15.494,2.645,2.633,2.646.75,0,1.5,0,2.25,0,1.695-.009,2.314-.612,2.315-2.29q.008-6.973,0-13.947,0-5.118,0-10.236c0-1.509.66-2.34,1.822-2.324,1.126.017,1.775.827,1.776,2.261q.006,12.26,0,24.522a5.381,5.381,0,0,1-5.577,5.615c-1.011.009-2.025,0-3.037,0a5.4,5.4,0,0,1-5.781-5.749q-.011-13.386,0-26.771" transform="translate(-7801.03 -5363.009)" fill="#00c298"/>
    <path id="Trazado_266971" data-name="Trazado 266971" d="M92.416,88.524q0,10.407,0,20.814c0,4.112-2.1,6.19-6.245,6.191-.9,0-1.8.011-2.7,0a5.355,5.355,0,0,1-5.446-5.4q-.029-21.6,0-43.2a5.351,5.351,0,0,1,5.447-5.4q1.744-.025,3.487,0a5.363,5.363,0,0,1,5.451,5.511c.019,7.162.006,14.325.006,21.488" transform="translate(-7799.309 -5364.014)" fill="#00c298"/>
    <path id="Trazado_266972" data-name="Trazado 266972" d="M51.821,25.111a17.992,17.992,0,1,1-35.984-.125A17.659,17.659,0,0,1,33.673,7.153c10.358-.025,18.15,7.686,18.148,17.958" transform="translate(-7794.719 -5360.001)" fill="#00c298"/>
    <path id="Trazado_266973" data-name="Trazado 266973" d="M69.091,94.786c0,4.65-.18,9.309.047,13.948.271,5.528-2.075,8.137-7.755,7.66-.447-.037-.9,0-1.349-.008a5.364,5.364,0,0,1-5.334-5.4q-.032-16.2,0-32.4a5.353,5.353,0,0,1,5.336-5.394q1.855-.038,3.712,0a5.356,5.356,0,0,1,5.334,5.4c.03,5.4.008,10.8.009,16.2" transform="translate(-7797.587 -5364.874)" fill="#00c298"/>
    <path id="Trazado_266974" data-name="Trazado 266974" d="M31.365,101.025c0-3.488-.008-6.975,0-10.463a5.4,5.4,0,0,1,5.7-5.715c1.125-.006,2.251-.02,3.375.006a5.337,5.337,0,0,1,5.308,5.3q.053,10.913,0,21.826a5.331,5.331,0,0,1-5.238,5.258c-1.236.035-2.475.025-3.712.006a5.371,5.371,0,0,1-5.427-5.421c-.029-3.6-.006-7.2-.007-10.8" transform="translate(-7795.865 -5365.735)" fill="#00c298"/>
    <path id="Trazado_266975" data-name="Trazado 266975" d="M22.438,107.282c0,1.8.022,3.6,0,5.4a5.384,5.384,0,0,1-5.426,5.425c-1.2.019-2.4.023-3.6,0a5.365,5.365,0,0,1-5.362-5.37q-.051-5.4,0-10.8a5.369,5.369,0,0,1,5.423-5.423c1.237-.019,2.476-.029,3.712,0a5.367,5.367,0,0,1,5.247,5.253c.043,1.836.007,3.674.009,5.512" transform="translate(-7794.143 -5366.596)" fill="#00c298"/>
    <path id="Trazado_266976" data-name="Trazado 266976" d="M116.6,75.864c0,1.845-.54,2.681-1.754,2.716-1.252.034-1.848-.846-1.847-2.732,0-.074,0-.149,0-.223,0-1.6.625-2.44,1.807-2.434s1.789.836,1.794,2.45v.224" transform="translate(-7801.891 -5364.875)" fill="#00c298"/>
    <path id="Trazado_266977" data-name="Trazado 266977" d="M89.1,88.939q0,10.4,0,20.8c0,1.914-.559,2.474-2.464,2.478q-1.124,0-2.249,0c-1.924,0-2.487-.554-2.487-2.453q0-18.38,0-36.762c0-1.837-.012-3.672,0-5.509a1.835,1.835,0,0,1,2.064-2.079c.9-.016,1.8,0,2.7,0,1.849,0,2.432.573,2.433,2.394q0,10.568,0,21.136" transform="translate(-7799.596 -5364.301)" fill="#f6f6f6"/>
    <path id="Trazado_266978" data-name="Trazado 266978" d="M48.556,25.507A14.4,14.4,0,1,1,34.37,10.988,14.37,14.37,0,0,1,48.556,25.507" transform="translate(-7795.008 -5360.284)" fill="#f6f6f6"/>
    <path id="Trazado_266979" data-name="Trazado 266979" d="M65.779,95.2q0,7.755,0,15.511c0,1.762-.6,2.359-2.35,2.366-.936,0-1.874.015-2.81,0a1.81,1.81,0,0,1-2.034-2q-.017-16.017,0-32.034a1.785,1.785,0,0,1,1.948-1.965c.936-.025,1.874-.007,2.81-.006,1.849,0,2.434.574,2.435,2.391q0,7.867,0,15.736" transform="translate(-7797.874 -5365.161)" fill="#f6f6f6"/>
    <path id="Trazado_266980" data-name="Trazado 266980" d="M42.454,101.4q0,5.113,0,10.225c0,1.687-.615,2.3-2.293,2.306-.973.006-1.948.019-2.921,0a1.788,1.788,0,0,1-1.976-1.938q-.024-10.674,0-21.349a1.756,1.756,0,0,1,1.89-1.9c1.085-.031,2.172-.022,3.258,0a1.833,1.833,0,0,1,2.038,2.1c.013,3.521,0,7.042,0,10.562" transform="translate(-7796.152 -5366.022)" fill="#f6f6f6"/>
    <path id="Trazado_266981" data-name="Trazado 266981" d="M11.928,107.6c0-1.684-.01-3.369,0-5.052.011-1.473.657-2.126,2.109-2.145,1.01-.014,2.022-.016,3.031,0a1.811,1.811,0,0,1,2.051,1.976q.031,5.221,0,10.442a1.792,1.792,0,0,1-1.938,1.974c-1.123.028-2.247.032-3.369,0a1.768,1.768,0,0,1-1.878-1.916c-.029-1.758-.007-3.518-.008-5.276" transform="translate(-7794.43 -5366.883)" fill="#f6f6f6"/>
    <path id="Trazado_266982" data-name="Trazado 266982" d="M36.285,22.075H34.037c-.631,0-1.015.314-.989.948a.853.853,0,0,0,.979.849c.6,0,1.2-.013,1.8.006a4.521,4.521,0,0,1,4.34,3.7,4.42,4.42,0,0,1-2.7,4.9c-.674.266-.96.563-.855,1.276a3.575,3.575,0,0,1-.014,1.12,1.737,1.737,0,0,1-1.75,1.583,1.775,1.775,0,0,1-1.815-1.637c0-.037,0-.075-.006-.112-.071-.585.27-1.379-.148-1.705-.381-.3-1.139-.092-1.727-.143a1.791,1.791,0,0,1-1.723-1.851,1.746,1.746,0,0,1,1.73-1.721c1.384-.05,2.771-.029,4.157-.013.668.007,1.262-.125,1.28-.9.019-.82-.644-.885-1.271-.917a11.4,11.4,0,0,1-2.459-.119,4.51,4.51,0,0,1-3.433-3.976,4.366,4.366,0,0,1,2.8-4.529c.669-.251.866-.561.794-1.2a5.338,5.338,0,0,1,0-1.01,1.788,1.788,0,0,1,1.826-1.747,1.817,1.817,0,0,1,1.761,1.706c.074.618-.294,1.437.19,1.8.388.292,1.155.05,1.748.1a1.786,1.786,0,0,1-.023,3.564c-.746.054-1.5.011-2.247.011v.01" transform="translate(-7795.722 -5360.571)" fill="#00c298"/>
  </g>
</svg>
