<svg xmlns="http://www.w3.org/2000/svg" xmlns:xlink="http://www.w3.org/1999/xlink" width="287.387" height="285.041" viewBox="0 0 287.387 285.041">
  <defs>
    <clipPath id="clip-path">
      <rect id="Rectángulo_291369" data-name="Rectángulo 291369" width="252.116" height="258.24" fill="#fff"/>
    </clipPath>
    <clipPath id="clip-path-2">
      <rect id="Rectángulo_334336" data-name="Rectángulo 334336" width="255.233" height="285.041" fill="none"/>
    </clipPath>
    <clipPath id="clip-path-4">
      <rect id="Rectángulo_334316" data-name="Rectángulo 334316" width="27.15" height="15.726" fill="none"/>
    </clipPath>
    <clipPath id="clip-path-5">
      <rect id="Rectángulo_334317" data-name="Rectángulo 334317" width="30.955" height="30.955" fill="#ffb800"/>
    </clipPath>
    <clipPath id="clip-path-6">
      <rect id="Rectángulo_334318" data-name="Rectángulo 334318" width="30.54" height="30.54" fill="#eab62d"/>
    </clipPath>
    <clipPath id="clip-path-7">
      <rect id="Rectángulo_334319" data-name="Rectángulo 334319" width="13.893" height="17.181" fill="none"/>
    </clipPath>
    <clipPath id="clip-path-8">
      <rect id="Rectángulo_334320" data-name="Rectángulo 334320" width="17.179" height="24.314" fill="none"/>
    </clipPath>
    <clipPath id="clip-path-9">
      <rect id="Rectángulo_334321" data-name="Rectángulo 334321" width="30.694" height="30.695" fill="#ffb800"/>
    </clipPath>
    <clipPath id="clip-path-10">
      <rect id="Rectángulo_334322" data-name="Rectángulo 334322" width="30.282" height="30.282" fill="#eab62d"/>
    </clipPath>
    <clipPath id="clip-path-11">
      <rect id="Rectángulo_334323" data-name="Rectángulo 334323" width="11.712" height="18.275" fill="none"/>
    </clipPath>
    <clipPath id="clip-path-13">
      <rect id="Rectángulo_334327" data-name="Rectángulo 334327" width="11.193" height="9.675" fill="none"/>
    </clipPath>
    <clipPath id="clip-path-14">
      <rect id="Rectángulo_334328" data-name="Rectángulo 334328" width="90.952" height="21.938" fill="#f8fffd"/>
    </clipPath>
    <clipPath id="clip-path-16">
      <rect id="Rectángulo_334331" data-name="Rectángulo 334331" width="20.283" height="7.653" fill="none"/>
    </clipPath>
    <clipPath id="clip-path-17">
      <rect id="Rectángulo_334332" data-name="Rectángulo 334332" width="2.153" height="2.103" fill="none"/>
    </clipPath>
    <clipPath id="clip-path-18">
      <rect id="Rectángulo_334333" data-name="Rectángulo 334333" width="8.198" height="20.026" fill="none"/>
    </clipPath>
    <clipPath id="clip-path-19">
      <rect id="Rectángulo_334334" data-name="Rectángulo 334334" width="2.171" height="2.189" fill="none"/>
    </clipPath>
  </defs>
  <g id="Grupo_886605" data-name="Grupo 886605" transform="translate(-254.412 -3612.955)">
    <g id="Grupo_886514" data-name="Grupo 886514">
      <g id="Grupo_870715" data-name="Grupo 870715" transform="translate(254.412 3612.955)">
        <g id="Grupo_870714" data-name="Grupo 870714" clip-path="url(#clip-path)">
          <path id="Trazado_215321" data-name="Trazado 215321" d="M19.194,125.641C50.705,99.911-3.863,58.389,8.219,17.32s51.953,1.154,73.407,21.387,46.595-15.966,63.261-16.938,7.287,14.849,14.8,35.343,62.926,3.474,85.14,23.269-13.176,61.918-16.155,87.037,35.281,53.541,10.768,90.822L117.665,257.5c-12.253-3.857-20.248-6.914-20.248-6.914C-16.59,200.163-12.317,151.371,19.194,125.641" transform="translate(0 0)" fill="#fff"/>
        </g>
      </g>
      <path id="Trazado_265861" data-name="Trazado 265861" d="M250.215,583.558c0,3.871-49.95,7.01-111.568,7.01S27.08,587.429,27.08,583.558s49.979-4.323,111.6-4.323,111.539.452,111.539,4.323" transform="translate(254.242 3291.24)" fill="#003b73" opacity="0.496"/>
    </g>
    <g id="Grupo_886512" data-name="Grupo 886512" transform="translate(286.566 3612.955)">
      <g id="Grupo_886511" data-name="Grupo 886511" clip-path="url(#clip-path-2)">
        <g id="Grupo_886488" data-name="Grupo 886488">
          <g id="Grupo_886487" data-name="Grupo 886487" clip-path="url(#clip-path-2)">
            <path id="Trazado_600597" data-name="Trazado 600597" d="M286.729,158.611a20.354,20.354,0,1,1-9.566-27.15,20.355,20.355,0,0,1,9.566,27.15" transform="translate(-66.507 -34.716)" fill="#ffc631"/>
            <g id="Grupo_886465" data-name="Grupo 886465" transform="translate(183.506 94.744)" opacity="0.1">
              <g id="Grupo_886464" data-name="Grupo 886464">
                <g id="Grupo_886463" data-name="Grupo 886463" clip-path="url(#clip-path-4)">
                  <path id="Trazado_600598" data-name="Trazado 600598" d="M277.9,131.462a20.354,20.354,0,0,0-27.15,9.567s12.623,6.755,18.215,3.046,8.935-12.613,8.935-12.613" transform="translate(-250.746 -129.46)" fill="#fff"/>
                </g>
              </g>
            </g>
            <path id="Trazado_600599" data-name="Trazado 600599" d="M283.908,157.7a15.474,15.474,0,1,1-7.272-20.639,15.473,15.473,0,0,1,7.272,20.639" transform="translate(-68.24 -36.347)" fill="#ff725e"/>
            <g id="Grupo_886468" data-name="Grupo 886468" transform="translate(186.235 99.196)">
              <g id="Grupo_886467" data-name="Grupo 886467">
                <g id="Enmascarar_grupo_886466" data-name="Enmascarar grupo 886466" clip-path="url(#clip-path-5)">
                  <path id="Trazado_600600" data-name="Trazado 600600" d="M283.908,157.7a15.474,15.474,0,1,1-7.272-20.639,15.473,15.473,0,0,1,7.272,20.639" transform="translate(-254.475 -135.543)" fill="#ffb800"/>
                </g>
              </g>
            </g>
            <path id="Trazado_600601" data-name="Trazado 600601" d="M284.211,158.866a15.266,15.266,0,1,1-7.174-20.362,15.265,15.265,0,0,1,7.174,20.362" transform="translate(-68.427 -36.739)" fill="#ff725e"/>
            <g id="Grupo_886471" data-name="Grupo 886471" transform="translate(186.746 100.263)">
              <g id="Grupo_886470" data-name="Grupo 886470">
                <g id="Grupo_886469" data-name="Grupo 886469" clip-path="url(#clip-path-6)">
                  <path id="Trazado_600602" data-name="Trazado 600602" d="M284.211,158.866a15.266,15.266,0,1,1-7.174-20.362,15.265,15.265,0,0,1,7.174,20.362" transform="translate(-255.173 -137.002)" fill="#eab62d"/>
                </g>
              </g>
            </g>
            <path id="Trazado_600603" data-name="Trazado 600603" d="M274.482,153.619l1.687-3.522.018.008a8,8,0,0,1,1.639,1.385,6.5,6.5,0,0,1,.612.973l.1-.086,1.151-1.008.264-.232-.312-.96-.367-.009a7.307,7.307,0,0,0-2.2-1.958l.927-1.937-.37-.775-.233.486-.828-.4-.945,1.972c-2.848-1.042-4.883-.108-5.735,1.673-1.162,2.425.614,4.049,2.326,5.448l-1.672,3.49a7.434,7.434,0,0,1-2.856-3l-1.629,1.386a8.475,8.475,0,0,0,3.582,3.5l-.7,1.463-.687-.315.46.789,1.431.685.936-1.955c2.874,1.033,4.918.124,5.771-1.656,1.162-2.426-.657-4.048-2.369-5.447m-1.255-1.052c-.87-.782-1.437-1.525-1.036-2.362.367-.768,1.192-1.145,2.523-.744Zm2.943-2.474h0m-4.179,8.726,1.479-3.089c.905.8,1.481,1.568,1.071,2.422-.359.751-1.185,1.085-2.55.667" transform="translate(-71.347 -39.017)" fill="#ff725e"/>
            <g id="Grupo_886474" data-name="Grupo 886474" transform="translate(194.712 106.48)" opacity="0.3">
              <g id="Grupo_886473" data-name="Grupo 886473">
                <g id="Grupo_886472" data-name="Grupo 886472" clip-path="url(#clip-path-7)">
                  <path id="Trazado_600604" data-name="Trazado 600604" d="M274.482,153.619l1.687-3.522.018.008a8,8,0,0,1,1.639,1.385,6.5,6.5,0,0,1,.612.973l.1-.086,1.151-1.008.264-.232-.312-.96-.367-.009a7.307,7.307,0,0,0-2.2-1.958l.927-1.937-.37-.775-.233.486-.828-.4-.945,1.972c-2.848-1.042-4.883-.108-5.735,1.673-1.162,2.425.614,4.049,2.326,5.448l-1.672,3.49a7.434,7.434,0,0,1-2.856-3l-1.629,1.386a8.475,8.475,0,0,0,3.582,3.5l-.7,1.463-.687-.315.46.789,1.431.685.936-1.955c2.874,1.033,4.918.124,5.771-1.656,1.162-2.426-.657-4.048-2.369-5.447m-1.255-1.052c-.87-.782-1.437-1.525-1.036-2.362.367-.768,1.192-1.145,2.523-.744Zm2.943-2.474h0m-4.179,8.726,1.479-3.089c.905.8,1.481,1.568,1.071,2.422-.359.751-1.185,1.085-2.55.667" transform="translate(-266.059 -145.496)"/>
                </g>
              </g>
            </g>
            <path id="Trazado_600605" data-name="Trazado 600605" d="M270.584,159.712l-.936,1.955-1.431-.685.928-1.938a8.478,8.478,0,0,1-3.582-3.5l1.63-1.387a7.427,7.427,0,0,0,2.856,3l1.672-3.492c-1.712-1.4-3.488-3.022-2.326-5.448.853-1.781,2.889-2.716,5.737-1.674l.944-1.972,1.431.686-.928,1.937a8.3,8.3,0,0,1,3.034,2.762l-1.56,1.42a8.024,8.024,0,0,0-2.376-2.3l-1.689,3.526c1.712,1.4,3.532,3.022,2.37,5.448-.853,1.781-2.9,2.69-5.772,1.656m2.146-8.156,1.489-3.107c-1.331-.4-2.156-.023-2.524.744-.4.838.165,1.582,1.036,2.363m1.316,5.587c.41-.856-.166-1.625-1.071-2.423l-1.48,3.09c1.367.419,2.192.084,2.551-.667" transform="translate(-71.213 -38.769)" fill="#ffc631"/>
            <path id="Trazado_600606" data-name="Trazado 600606" d="M266.594,166.472a.882.882,0,0,1,.119.042l.342.135.557.225a5.646,5.646,0,0,0,.767.279l.981.292a4.212,4.212,0,0,0,.569.132l.621.12c.215.035.435.1.667.114l.718.067c.247.018.5.059.76.06l.8,0a16.252,16.252,0,0,0,3.555-.449L278,167.2c.159-.05.323-.093.482-.148l.474-.192c.317-.134.646-.251.965-.4l.951-.5.243-.126c.079-.046.153-.1.231-.148l.464-.3.469-.306a5.585,5.585,0,0,0,.449-.344c.294-.24.6-.469.892-.725l.84-.818a15.245,15.245,0,0,0,4.149-8.663q.055-.588.111-1.167c.018-.386,0-.771.007-1.15-.007-.19.01-.38-.015-.566s-.037-.372-.056-.557-.037-.369-.055-.551c-.01-.091-.016-.183-.03-.273l-.053-.268q-.106-.534-.21-1.053c-.081-.344-.2-.674-.29-1-.048-.165-.1-.328-.147-.49s-.125-.313-.187-.468q-.189-.463-.372-.912a16.19,16.19,0,0,0-1.879-3.05l-.5-.628c-.165-.2-.355-.374-.523-.555l-.5-.517c-.157-.171-.345-.3-.507-.447l-.482-.408a4.157,4.157,0,0,0-.46-.362l-.842-.581a5.738,5.738,0,0,0-.7-.423l-.524-.292-.321-.183a.847.847,0,0,1-.107-.067.785.785,0,0,1,.115.053l.328.17.531.28a5.818,5.818,0,0,1,.709.413l.853.573a4.217,4.217,0,0,1,.466.358l.489.405a6.765,6.765,0,0,1,.513.446l.51.516c.17.181.363.352.531.555l.509.629a16.259,16.259,0,0,1,1.909,3.063q.186.451.378.917c.061.156.131.311.19.471s.1.328.15.494c.1.333.214.665.3,1.012s.142.7.214,1.062l.055.27c.013.091.019.183.03.275q.029.277.057.556t.058.562a5.7,5.7,0,0,1,.016.572c0,.383.012.771-.005,1.161q-.054.584-.111,1.179a15.341,15.341,0,0,1-4.189,8.747l-.849.825c-.293.258-.605.489-.9.731a5.588,5.588,0,0,1-.454.346l-.474.307-.469.3c-.078.05-.154.1-.234.149l-.244.127-.961.5c-.322.153-.655.27-.975.4l-.479.192c-.162.056-.326.1-.487.148l-.951.28a16.225,16.225,0,0,1-3.583.434l-.809,0c-.263,0-.517-.045-.765-.066l-.721-.073c-.235-.018-.454-.083-.67-.121l-.622-.127a4.2,4.2,0,0,1-.571-.138l-.981-.306a5.8,5.8,0,0,1-.766-.293l-.552-.239-.337-.149a.733.733,0,0,1-.112-.056" transform="translate(-71.49 -37.156)" fill="#263238"/>
            <path id="Trazado_600607" data-name="Trazado 600607" d="M248.815,152.941a.858.858,0,0,1-.018-.183c-.005-.135-.012-.31-.021-.526a8.283,8.283,0,0,1,0-.833c.014-.325.013-.7.062-1.1q.03-.306.061-.64c.023-.221.067-.45.1-.688.062-.479.18-.98.293-1.51a20.183,20.183,0,0,1,2.777-6.441c.307-.446.591-.876.9-1.249.149-.188.285-.378.432-.546s.288-.33.423-.484c.262-.315.533-.569.759-.8s.432-.423.605-.573.293-.255.4-.345a.691.691,0,0,1,.145-.112.9.9,0,0,1-.125.135l-.376.366c-.167.156-.367.349-.585.589s-.484.5-.739.814l-.413.487c-.142.171-.275.359-.422.549-.3.374-.576.8-.878,1.249a20.811,20.811,0,0,0-2.758,6.4c-.116.525-.238,1.022-.305,1.5-.037.236-.083.463-.109.684s-.048.432-.071.634c-.056.4-.062.773-.084,1.1s-.029.6-.027.83-.005.389-.007.525a.865.865,0,0,1-.013.184" transform="translate(-66.71 -36.713)" fill="#fff"/>
            <path id="Trazado_600608" data-name="Trazado 600608" d="M271.382,151.11a1.282,1.282,0,0,1-.212-.6,2.393,2.393,0,0,1,1.343-2.567,1.29,1.29,0,0,1,.611-.165c.007.026-.231.076-.562.261a2.481,2.481,0,0,0-1.286,2.456c.037.378.131.6.106.61" transform="translate(-72.708 -39.628)" fill="#fff"/>
            <path id="Trazado_600609" data-name="Trazado 600609" d="M279.225,146.647a1.4,1.4,0,0,1,.206-.607c.152-.317.305-.559.343-.541a1.393,1.393,0,0,1-.206.607c-.151.317-.305.559-.343.541" transform="translate(-74.875 -39.017)" fill="#fff"/>
            <path id="Trazado_600610" data-name="Trazado 600610" d="M282.264,137.044a3.1,3.1,0,0,1-.44-.233c-.138-.08-.308-.177-.512-.277s-.428-.228-.69-.341-.542-.25-.857-.368-.649-.241-1.006-.363a15.911,15.911,0,0,0-4.82-.77c-.377.006-.735,0-1.069.032s-.645.049-.929.083-.537.075-.762.109-.416.07-.572.1a3.11,3.11,0,0,1-.49.084,3.114,3.114,0,0,1,.478-.142c.154-.042.345-.09.569-.13s.478-.1.763-.132.6-.082.934-.1.7-.037,1.078-.046a15.112,15.112,0,0,1,4.864.776c.358.127.7.242,1.009.38s.6.261.855.388.484.253.684.363.367.212.5.3a3.125,3.125,0,0,1,.41.283" transform="translate(-72.435 -36.082)" fill="#fff"/>
            <path id="Trazado_600611" data-name="Trazado 600611" d="M264.56,180.734a1.785,1.785,0,0,1-.37-.068c-.236-.051-.574-.145-.986-.279a14.708,14.708,0,0,1-5.725-3.5c-.306-.305-.544-.564-.7-.751a1.769,1.769,0,0,1-.228-.3,1.832,1.832,0,0,1,.272.259c.166.174.413.419.727.714a16.454,16.454,0,0,0,5.686,3.48c.4.146.736.255.966.323a1.8,1.8,0,0,1,.354.125" transform="translate(-68.798 -47.151)" fill="#fff"/>
            <path id="Trazado_600612" data-name="Trazado 600612" d="M333.4,90.744a20.183,20.183,0,1,1-24.314-14.951A20.183,20.183,0,0,1,333.4,90.744" transform="translate(-78.728 -20.176)" fill="#ffc631"/>
            <g id="Grupo_886477" data-name="Grupo 886477" transform="translate(214.857 55.617)" opacity="0.1">
              <g id="Grupo_886476" data-name="Grupo 886476">
                <g id="Grupo_886475" data-name="Grupo 886475" clip-path="url(#clip-path-8)">
                  <path id="Trazado_600613" data-name="Trazado 600613" d="M309.091,76A20.182,20.182,0,0,0,294.14,100.31s13.943-2.672,15.937-9.019S309.091,76,309.091,76" transform="translate(-293.585 -75.996)" fill="#fff"/>
                </g>
              </g>
            </g>
            <path id="Trazado_600614" data-name="Trazado 600614" d="M329.945,93.317A15.343,15.343,0,1,1,311.461,81.95a15.343,15.343,0,0,1,18.483,11.366" transform="translate(-80.36 -21.863)" fill="#ff725e"/>
            <g id="Grupo_886480" data-name="Grupo 886480" transform="translate(219.313 59.665)">
              <g id="Grupo_886479" data-name="Grupo 886479">
                <g id="Grupo_886478" data-name="Grupo 886478" clip-path="url(#clip-path-9)">
                  <path id="Trazado_600615" data-name="Trazado 600615" d="M329.945,93.317A15.343,15.343,0,1,1,311.461,81.95a15.343,15.343,0,0,1,18.483,11.366" transform="translate(-299.673 -81.528)" fill="#ffb800"/>
                </g>
              </g>
            </g>
            <path id="Trazado_600616" data-name="Trazado 600616" d="M330.873,94.087a15.137,15.137,0,1,1-18.235-11.214,15.137,15.137,0,0,1,18.235,11.214" transform="translate(-80.718 -22.112)" fill="#ff725e"/>
            <g id="Grupo_886483" data-name="Grupo 886483" transform="translate(220.289 60.345)">
              <g id="Grupo_886482" data-name="Grupo 886482">
                <g id="Grupo_886481" data-name="Grupo 886481" clip-path="url(#clip-path-10)">
                  <path id="Trazado_600617" data-name="Trazado 600617" d="M330.873,94.087a15.137,15.137,0,1,1-18.235-11.214,15.137,15.137,0,0,1,18.235,11.214" transform="translate(-301.007 -82.457)" fill="#eab62d"/>
                </g>
              </g>
            </g>
            <path id="Trazado_600618" data-name="Trazado 600618" d="M319.743,98.2l-.9-3.767.018-.005a7.953,7.953,0,0,1,2.127.045,6.485,6.485,0,0,1,1.079.368l.022-.129.258-1.494.059-.344-.839-.545-.288.222a7.235,7.235,0,0,0-2.916-.137l-.494-2.072-.769-.366.124.52-.886.211.5,2.109c-2.845.975-3.83,2.965-3.377,4.869.619,2.594,3,2.736,5.192,2.747l.89,3.732a7.369,7.369,0,0,1-4.071-.528l-.391,2.085a8.4,8.4,0,0,0,4.943.459l.373,1.565-.725.186.847.321,1.53-.365-.5-2.09c2.859-1,3.867-2.973,3.413-4.878-.618-2.594-3.033-2.709-5.225-2.719m-1.624-.027c-1.158-.059-2.059-.278-2.272-1.175-.2-.821.2-1.626,1.48-2.148Zm.725-3.743h0Zm2.225,9.332-.788-3.3c1.2.05,2.119.284,2.337,1.2.192.8-.236,1.575-1.549,2.106" transform="translate(-84.031 -24.127)" fill="#ff725e"/>
            <g id="Grupo_886486" data-name="Grupo 886486" transform="translate(229.328 65.847)" opacity="0.3">
              <g id="Grupo_886485" data-name="Grupo 886485">
                <g id="Grupo_886484" data-name="Grupo 886484" clip-path="url(#clip-path-11)">
                  <path id="Trazado_600619" data-name="Trazado 600619" d="M319.743,98.2l-.9-3.767.018-.005a7.953,7.953,0,0,1,2.127.045,6.485,6.485,0,0,1,1.079.368l.022-.129.258-1.494.059-.344-.839-.545-.288.222a7.235,7.235,0,0,0-2.916-.137l-.494-2.072-.769-.366.124.52-.886.211.5,2.109c-2.845.975-3.83,2.965-3.377,4.869.619,2.594,3,2.736,5.192,2.747l.89,3.732a7.369,7.369,0,0,1-4.071-.528l-.391,2.085a8.4,8.4,0,0,0,4.943.459l.373,1.565-.725.186.847.321,1.53-.365-.5-2.09c2.859-1,3.867-2.973,3.413-4.878-.618-2.594-3.033-2.709-5.225-2.719m-1.624-.027c-1.158-.059-2.059-.278-2.272-1.175-.2-.821.2-1.626,1.48-2.148Zm.725-3.743h0Zm2.225,9.332-.788-3.3c1.2.05,2.119.284,2.337,1.2.192.8-.236,1.575-1.549,2.106" transform="translate(-313.359 -89.974)"/>
                </g>
              </g>
            </g>
            <path id="Trazado_600620" data-name="Trazado 600620" d="M320.521,105.434l.5,2.092-1.531.364L319,105.818a8.4,8.4,0,0,1-4.943-.459l.39-2.085a7.378,7.378,0,0,0,4.072.528l-.89-3.733c-2.193-.01-4.574-.153-5.193-2.747-.454-1.9.531-3.9,3.377-4.87l-.5-2.109,1.53-.365.494,2.072a8.224,8.224,0,0,1,4.062.235l-.316,2.068a7.947,7.947,0,0,0-3.264-.287l.9,3.77c2.193.01,4.607.125,5.226,2.72.454,1.9-.555,3.88-3.415,4.878m-3.435-7.624-.793-3.323c-1.276.522-1.676,1.328-1.481,2.148.214.9,1.115,1.116,2.273,1.175m4.5,3.484c-.218-.915-1.142-1.148-2.337-1.2l.788,3.3c1.314-.53,1.741-1.3,1.549-2.106" transform="translate(-83.753 -24.129)" fill="#ffc631"/>
            <path id="Trazado_600621" data-name="Trazado 600621" d="M323.563,112.448a.821.821,0,0,1,.117-.042l.349-.11.569-.173a5.806,5.806,0,0,0,.766-.265l.937-.387a4.252,4.252,0,0,0,.521-.253l.554-.3c.187-.108.4-.194.584-.327l.6-.4c.2-.141.422-.268.624-.429l.618-.5a16.1,16.1,0,0,0,2.459-2.563l.55-.806c.092-.137.19-.272.279-.413l.245-.445c.16-.3.342-.6.492-.912l.423-.977.108-.25c.032-.083.057-.171.087-.257.055-.173.111-.348.168-.523s.114-.351.171-.529a5.343,5.343,0,0,0,.132-.546c.076-.367.171-.736.235-1.115q.068-.572.137-1.155a15.129,15.129,0,0,0-2.209-9.264l-.643-.969c-.227-.309-.479-.6-.713-.89a5.4,5.4,0,0,0-.364-.427l-.392-.394-.386-.391c-.064-.064-.127-.13-.192-.191l-.209-.173-.819-.681c-.277-.214-.572-.4-.85-.593l-.419-.286c-.144-.086-.293-.162-.437-.244l-.855-.471a16.175,16.175,0,0,0-3.351-1.179q-.4-.086-.779-.171c-.253-.053-.506-.067-.749-.1l-.71-.085c-.23-.033-.455-.017-.671-.029l-.626-.013a3.885,3.885,0,0,0-.579.009l-1.012.077a5.774,5.774,0,0,0-.8.111l-.586.1-.36.06a.761.761,0,0,1-.125.015.759.759,0,0,1,.121-.031l.359-.074.585-.116a5.526,5.526,0,0,1,.8-.124c.306-.028.645-.059,1.015-.091a4.222,4.222,0,0,1,.582-.015l.63.008a6.4,6.4,0,0,1,.674.023l.715.08c.244.031.5.044.755.1l.785.168a16.065,16.065,0,0,1,3.383,1.169l.864.472c.146.081.3.157.441.244l.424.288c.282.2.58.378.86.595s.549.452.828.685l.21.173c.068.061.131.129.2.193l.392.392.4.4c.137.13.244.288.368.432.237.3.492.585.722.9l.651.977a15.217,15.217,0,0,1,2.23,9.354q-.07.588-.14,1.165c-.064.382-.161.755-.239,1.126-.046.184-.07.373-.134.55l-.174.534c-.057.176-.115.351-.171.527-.03.086-.055.175-.088.26l-.109.25-.43.986c-.153.318-.336.616-.5.918l-.249.447c-.09.143-.189.279-.283.417l-.558.81a16.1,16.1,0,0,1-2.49,2.569l-.626.5c-.2.162-.427.288-.631.427l-.6.394c-.192.132-.4.218-.591.325s-.38.2-.559.291a4.218,4.218,0,0,1-.526.25l-.947.377a5.5,5.5,0,0,1-.773.251l-.574.16c-.15.041-.267.073-.354.1a.543.543,0,0,1-.121.028" transform="translate(-84.858 -22.028)" fill="#263238"/>
            <path id="Trazado_600622" data-name="Trazado 600622" d="M299.482,114.746a.77.77,0,0,1-.127-.13l-.345-.392c-.151-.17-.329-.382-.519-.643s-.424-.544-.64-.889l-.351-.531c-.121-.185-.231-.389-.353-.594-.25-.407-.472-.866-.715-1.346a20.006,20.006,0,0,1-1.88-6.7c-.041-.535-.091-1.044-.089-1.521,0-.239-.015-.469-.009-.691s.016-.433.024-.637c.006-.406.056-.771.084-1.091s.069-.6.109-.819.067-.381.09-.514a.091.091,0,1,1,.03.005l-.062.517c-.031.224-.065.5-.083.819s-.063.683-.062,1.088c0,.2-.009.413-.014.633s.012.449.017.686c0,.475.057.98.1,1.511a20.653,20.653,0,0,0,1.867,6.651c.238.476.454.936.7,1.344.119.2.225.408.342.595l.342.534c.209.345.435.634.619.9s.353.482.5.656l.322.41a.9.9,0,0,1,.1.149" transform="translate(-78.961 -26.3)" fill="#fff"/>
            <path id="Trazado_600623" data-name="Trazado 600623" d="M314.233,100.392a1.264,1.264,0,0,1-.536-.327,2.374,2.374,0,0,1-.566-2.815,1.261,1.261,0,0,1,.368-.509c.02.015-.13.2-.271.552a2.461,2.461,0,0,0,.542,2.695c.265.269.476.382.463.4" transform="translate(-83.906 -25.942)" fill="#fff"/>
            <path id="Trazado_600624" data-name="Trazado 600624" d="M317.3,92.384a2.684,2.684,0,0,1-.293-1.227c.04-.01.138.257.22.6a1.4,1.4,0,0,1,.073.631" transform="translate(-85.005 -24.445)" fill="#fff"/>
            <path id="Trazado_600625" data-name="Trazado 600625" d="M313.626,81.14a3.116,3.116,0,0,1-.484.1c-.157.024-.348.056-.566.106s-.473.091-.745.168-.574.146-.889.25-.651.22-1,.348a15.792,15.792,0,0,0-4.195,2.415c-.287.239-.564.462-.8.692s-.466.441-.664.644-.367.393-.52.559-.277.314-.375.437a3.242,3.242,0,0,1-.326.371,2.982,2.982,0,0,1,.28-.407c.092-.13.21-.285.358-.456s.306-.375.506-.578.408-.435.656-.661.514-.464.8-.708a15.023,15.023,0,0,1,4.232-2.437c.356-.125.692-.25,1.015-.337s.624-.172.9-.235.531-.107.754-.147.415-.066.574-.081a3.129,3.129,0,0,1,.493-.037" transform="translate(-81.268 -21.758)" fill="#fff"/>
            <path id="Trazado_600626" data-name="Trazado 600626" d="M327.122,127.483a1.75,1.75,0,0,1-.327.179c-.214.108-.534.247-.934.4a14.6,14.6,0,0,1-6.6.872c-.427-.045-.771-.1-1.006-.144a1.756,1.756,0,0,1-.362-.087,1.774,1.774,0,0,1,.372.029c.236.031.58.066,1.006.1a16.3,16.3,0,0,0,6.553-.866c.4-.14.726-.263.946-.353a1.783,1.783,0,0,1,.351-.125" transform="translate(-85.247 -34.185)" fill="#fff"/>
          </g>
        </g>
        <g id="Grupo_886496" data-name="Grupo 886496">
          <g id="Grupo_886495" data-name="Grupo 886495" clip-path="url(#clip-path-2)">
            <path id="Trazado_600627" data-name="Trazado 600627" d="M201.491,261.6l-88.88-.053a19.36,19.36,0,0,1-19.349-19.364L93.3,19.357A19.361,19.361,0,0,1,112.677,0l88.88.052a19.361,19.361,0,0,1,19.349,19.365l-.044,222.825A19.36,19.36,0,0,1,201.491,261.6" transform="translate(-25.009 0)" fill="#263238"/>
            <path id="Trazado_600628" data-name="Trazado 600628" d="M203.621,10.822l-17.233-.01a4.281,4.281,0,0,0-4.185,4.372v3.126a4.28,4.28,0,0,1-4.185,4.372l-33.59-.02a4.284,4.284,0,0,1-4.183-4.376V15.159a4.285,4.285,0,0,0-4.184-4.376l-6.061,0-15.082-.009A13.56,13.56,0,0,0,101.35,24.327l-.042,217.493a13.559,13.559,0,0,0,13.551,13.562l88.7.052a13.559,13.559,0,0,0,13.567-13.557l.043-217.494a13.56,13.56,0,0,0-13.551-13.562" transform="translate(-27.167 -2.888)" fill="#fafafa"/>
            <path id="Trazado_600629" data-name="Trazado 600629" d="M114.011,48.595a1.05,1.05,0,0,1,.17-.013l.466-.019,1.715-.048-.059.061c-.007-.383-.015-.8-.023-1.246,0-.233-.021-.447,0-.721a.677.677,0,0,1,.591-.543c.281-.006.519-.019.825-.005a.685.685,0,0,1,.58.681q.011.873.022,1.817l-.1-.1,2.167-.023-.1.1c-.008-.873-.016-1.775-.024-2.7q0-.346-.006-.687a.68.68,0,0,0-.3-.5l-.947-.934-.914-.9-.443-.438c-.154-.149-.269-.295-.439-.329a.56.56,0,0,0-.48.091c-.127.107-.271.266-.4.394l-.779.784c-.489.506-1,.975-1.369,1.407a1.513,1.513,0,0,0-.108.8q0,.4,0,.762-.008.694-.012,1.229c-.005.306-.009.566-.012.788a2.312,2.312,0,0,1-.014.287,1.549,1.549,0,0,1-.018-.258c-.007-.219-.015-.473-.026-.773-.01-.362-.02-.774-.032-1.241-.005-.247-.011-.507-.016-.781a1.647,1.647,0,0,1,.113-.889c.4-.5.879-.929,1.372-1.453l.771-.792c.14-.138.25-.27.42-.416a.754.754,0,0,1,.645-.127,1.181,1.181,0,0,1,.53.377l.445.435.917.9.95.932a.889.889,0,0,1,.362.642c0,.23,0,.46.006.692.007.924.014,1.827.02,2.7v.1h-.1l-2.168.013h-.1v-.1c0-.629-.005-1.236-.008-1.817a.5.5,0,0,0-.422-.509c-.242-.013-.543-.006-.781,0a.515.515,0,0,0-.454.408c-.021.212-.006.471-.01.689q0,.671,0,1.246v.061h-.06l-1.75-.019-.454-.011a.675.675,0,0,1-.148-.011" transform="translate(-30.546 -11.22)" fill="#263238"/>
            <path id="Trazado_600630" data-name="Trazado 600630" d="M172.1,48.019c0,.536-.425.846-1.24.846h-1.6v-3.1h1.515c.775,0,1.174.323,1.174.806a.746.746,0,0,1-.412.682.765.765,0,0,1,.566.766M169.97,46.3v.73h.714c.35,0,.54-.124.54-.367s-.19-.363-.54-.363Zm1.409,1.639c0-.261-.2-.386-.572-.386h-.837v.766h.837c.373,0,.572-.115.572-.381" transform="translate(-45.388 -12.272)" fill="#263238"/>
            <path id="Trazado_600631" data-name="Trazado 600631" d="M175.775,48.2h-1.44l-.274.665h-.735l1.381-3.1h.709l1.386,3.1h-.753Zm-.226-.544-.491-1.187-.492,1.187Z" transform="translate(-46.479 -12.272)" fill="#263238"/>
            <path id="Trazado_600632" data-name="Trazado 600632" d="M181.356,45.765v3.1h-.588l-1.546-1.882v1.882h-.708v-3.1h.593l1.541,1.882V45.765Z" transform="translate(-47.87 -12.272)" fill="#263238"/>
            <path id="Trazado_600633" data-name="Trazado 600633" d="M184.526,47.647l-.416.434v.784H183.4v-3.1h.714v1.448l1.373-1.448h.8L185,47.146l1.358,1.718h-.837Z" transform="translate(-49.18 -12.272)" fill="#263238"/>
            <path id="Trazado_600634" data-name="Trazado 600634" d="M242.013,43.269a.647.647,0,1,1-.645-.65.647.647,0,0,1,.645.65" transform="translate(-64.551 -11.429)" fill="#263238"/>
            <path id="Trazado_600635" data-name="Trazado 600635" d="M242,46.45a.647.647,0,1,1-.645-.65.647.647,0,0,1,.645.65" transform="translate(-64.548 -12.282)" fill="#263238"/>
            <path id="Trazado_600636" data-name="Trazado 600636" d="M241.989,49.632a.648.648,0,1,1-.645-.65.648.648,0,0,1,.645.65" transform="translate(-64.545 -13.135)" fill="#263238"/>
            <path id="Trazado_600637" data-name="Trazado 600637" d="M213.653,152.57H128.994a3.147,3.147,0,0,1-3.147-3.147V98.016a3.147,3.147,0,0,1,3.147-3.147h84.659a3.147,3.147,0,0,1,3.147,3.147v51.407a3.147,3.147,0,0,1-3.147,3.147" transform="translate(-33.747 -25.44)" fill="#f5f5f5"/>
            <path id="Trazado_600638" data-name="Trazado 600638" d="M210.237,147.452H125.578a3.147,3.147,0,0,1-3.147-3.147V92.9a3.147,3.147,0,0,1,3.147-3.147h84.659a3.146,3.146,0,0,1,3.146,3.147v51.407a3.146,3.146,0,0,1-3.146,3.147" transform="translate(-32.831 -24.068)" fill="#e0e0e0"/>
            <path id="Trazado_600639" data-name="Trazado 600639" d="M206.3,143.2H121.636a3.147,3.147,0,0,1-3.147-3.147V88.642a3.147,3.147,0,0,1,3.147-3.146H206.3a3.146,3.146,0,0,1,3.146,3.147V140.05A3.146,3.146,0,0,1,206.3,143.2" transform="translate(-31.774 -22.927)" fill="#92bfb1"/>
            <path id="Trazado_600640" data-name="Trazado 600640" d="M137.52,102.368c0,.738-.586,1.165-1.708,1.165H133.6v-4.27h2.086c1.068,0,1.617.445,1.617,1.11a1.026,1.026,0,0,1-.567.939,1.055,1.055,0,0,1,.781,1.055m-2.934-2.361v1.007h.982c.482,0,.744-.171.744-.506s-.263-.5-.744-.5Zm1.939,2.257c0-.359-.274-.531-.787-.531h-1.153v1.055h1.153c.512,0,.787-.159.787-.525" transform="translate(-35.827 -26.619)" fill="#fff"/>
            <path id="Trazado_600641" data-name="Trazado 600641" d="M142.581,102.619H140.6l-.378.915h-1.012l1.9-4.27h.976l1.909,4.27h-1.038Zm-.311-.75-.677-1.635-.677,1.635Z" transform="translate(-37.33 -26.619)" fill="#fff"/>
            <path id="Trazado_600642" data-name="Trazado 600642" d="M150.27,99.264v4.27h-.812l-2.128-2.592v2.592h-.976v-4.27h.817l2.122,2.592V99.264Z" transform="translate(-39.246 -26.619)" fill="#fff"/>
            <path id="Trazado_600643" data-name="Trazado 600643" d="M154.639,101.856l-.573.6v1.079h-.983v-4.27h.983v1.994l1.89-1.994h1.1l-1.769,1.9,1.872,2.367H156Z" transform="translate(-41.051 -26.619)" fill="#fff"/>
            <path id="Trazado_600644" data-name="Trazado 600644" d="M136.617,126.706h-.784v1.03h-.4v-1.03h-2.212v-.291l2.077-2.6h.449l-2,2.53h1.7v-.907h.392v.907h.784Z" transform="translate(-35.724 -33.203)" fill="#fff"/>
            <path id="Trazado_600645" data-name="Trazado 600645" d="M140.756,126.611c0,.655-.476,1.159-1.422,1.159a2.037,2.037,0,0,1-1.411-.5l.2-.319a1.714,1.714,0,0,0,1.215.454c.649,0,1.008-.3,1.008-.79,0-.471-.331-.778-1.059-.778H139v-.3l1.086-1.36h-2v-.359h2.52v.286L139.5,125.5c.839.045,1.259.487,1.259,1.114" transform="translate(-36.986 -33.203)" fill="#fff"/>
            <path id="Trazado_600646" data-name="Trazado 600646" d="M145.088,126.583c0,.666-.465,1.187-1.423,1.187a2.024,2.024,0,0,1-1.405-.5l.2-.319a1.7,1.7,0,0,0,1.2.454c.667,0,1.019-.325,1.019-.8,0-.5-.313-.817-1.31-.817h-.834l.2-1.966h2.144v.359h-1.792l-.135,1.249h.5c1.181,0,1.629.465,1.629,1.159" transform="translate(-38.149 -33.203)" fill="#fff"/>
            <path id="Trazado_600647" data-name="Trazado 600647" d="M149.765,126.553a1.221,1.221,0,0,1-1.339,1.2c-1.041,0-1.606-.722-1.606-1.959,0-1.333.727-2.027,1.792-2.027a1.8,1.8,0,0,1,.929.213l-.162.325a1.372,1.372,0,0,0-.762-.184c-.845,0-1.388.542-1.388,1.606,0,.09.005.2.017.319a1.252,1.252,0,0,1,1.2-.672,1.186,1.186,0,0,1,1.322,1.175m-.4.012c0-.515-.381-.845-.985-.845a.907.907,0,0,0-1.008.856c0,.431.359.84,1.036.84a.858.858,0,0,0,.957-.851" transform="translate(-39.371 -33.191)" fill="#fff"/>
            <path id="Trazado_600648" data-name="Trazado 600648" d="M161.565,128.094l-.935-1.232-.94,1.232h-.449l1.165-1.511-1.109-1.434h.448l.885,1.153.884-1.153h.437l-1.109,1.434,1.176,1.511Z" transform="translate(-42.702 -33.56)" fill="#fff"/>
            <path id="Trazado_600649" data-name="Trazado 600649" d="M165.65,128.094l-.935-1.232-.94,1.232h-.449l1.165-1.511-1.109-1.434h.448l.885,1.153.884-1.153h.437l-1.109,1.434,1.176,1.511Z" transform="translate(-43.798 -33.56)" fill="#fff"/>
            <path id="Trazado_600650" data-name="Trazado 600650" d="M169.734,128.094l-.935-1.232-.94,1.232h-.449l1.165-1.511-1.109-1.434h.448l.885,1.153.884-1.153h.437l-1.109,1.434,1.176,1.511Z" transform="translate(-44.893 -33.56)" fill="#fff"/>
            <path id="Trazado_600651" data-name="Trazado 600651" d="M173.819,128.094l-.935-1.232-.94,1.232H171.5l1.165-1.511-1.109-1.434H172l.885,1.153.884-1.153h.437l-1.109,1.434,1.176,1.511Z" transform="translate(-45.988 -33.56)" fill="#fff"/>
            <path id="Trazado_600652" data-name="Trazado 600652" d="M187.925,128.094l-.935-1.232-.94,1.232H185.6l1.165-1.511-1.109-1.434h.448l.885,1.153.884-1.153h.437l-1.109,1.434,1.176,1.511Z" transform="translate(-49.771 -33.56)" fill="#fff"/>
            <path id="Trazado_600653" data-name="Trazado 600653" d="M192.009,128.094l-.935-1.232-.94,1.232h-.449l1.165-1.511-1.109-1.434h.448l.885,1.153.884-1.153h.437l-1.109,1.434,1.176,1.511Z" transform="translate(-50.866 -33.56)" fill="#fff"/>
            <path id="Trazado_600654" data-name="Trazado 600654" d="M196.094,128.094l-.935-1.232-.94,1.232h-.449l1.165-1.511-1.109-1.434h.448l.885,1.153.884-1.153h.437l-1.109,1.434,1.176,1.511Z" transform="translate(-51.962 -33.56)" fill="#fff"/>
            <path id="Trazado_600655" data-name="Trazado 600655" d="M200.179,128.094l-.935-1.232-.94,1.232h-.449l1.165-1.511-1.109-1.434h.448l.885,1.153.884-1.153h.437l-1.109,1.434,1.176,1.511Z" transform="translate(-53.057 -33.56)" fill="#fff"/>
            <path id="Trazado_600656" data-name="Trazado 600656" d="M213.212,123.817v3.919h-.4v-3.56h-.924v-.359Z" transform="translate(-56.819 -33.203)" fill="#fff"/>
            <path id="Trazado_600657" data-name="Trazado 600657" d="M217.479,126.611c0,.655-.476,1.159-1.422,1.159a2.037,2.037,0,0,1-1.411-.5l.2-.319a1.714,1.714,0,0,0,1.215.454c.649,0,1.008-.3,1.008-.79,0-.471-.331-.778-1.058-.778h-.28v-.3l1.087-1.36h-2.005v-.359h2.52v.286l-1.108,1.394c.839.045,1.259.487,1.259,1.114" transform="translate(-57.56 -33.203)" fill="#fff"/>
            <path id="Trazado_600658" data-name="Trazado 600658" d="M222.6,126.706h-.784v1.03h-.4v-1.03H219.2v-.291l2.077-2.6h.449l-2,2.53h1.7v-.907h.392v.907h.784Z" transform="translate(-58.78 -33.203)" fill="#fff"/>
            <path id="Trazado_600659" data-name="Trazado 600659" d="M226.922,127.366v.359h-2.749v-.285l1.629-1.6c.443-.436.526-.7.526-.969,0-.453-.318-.733-.918-.733a1.329,1.329,0,0,0-1.069.436l-.286-.246a1.761,1.761,0,0,1,1.389-.56c.795,0,1.3.4,1.3,1.058a1.612,1.612,0,0,1-.643,1.226l-1.333,1.31Z" transform="translate(-60.083 -33.191)" fill="#fff"/>
            <path id="Trazado_600660" data-name="Trazado 600660" d="M130.465,139.934a1.03,1.03,0,0,1,1.785-.636l-.278.257a.6.6,0,0,0-.47-.22.6.6,0,1,0,0,1.2.6.6,0,0,0,.47-.222l.278.256a1.028,1.028,0,0,1-1.785-.633" transform="translate(-34.986 -37.265)" fill="#fff"/>
            <path id="Trazado_600661" data-name="Trazado 600661" d="M134.4,140.48h-.868l-.166.4h-.443l.834-1.871h.427l.836,1.871h-.454Zm-.136-.329-.3-.716-.3.716Z" transform="translate(-35.644 -37.277)" fill="#fff"/>
            <path id="Trazado_600662" data-name="Trazado 600662" d="M137.246,140.881l-.361-.521h-.4v.521h-.433V139.01h.809c.5,0,.812.259.812.678a.608.608,0,0,1-.384.591l.42.6Zm-.406-1.518h-.353v.652h.353c.265,0,.4-.123.4-.326s-.134-.326-.4-.326" transform="translate(-36.485 -37.277)" fill="#fff"/>
            <path id="Trazado_600663" data-name="Trazado 600663" d="M138.542,140.684l.146-.326a1.1,1.1,0,0,0,.617.195c.257,0,.361-.085.361-.2,0-.35-1.088-.109-1.088-.8,0-.318.257-.583.788-.583a1.262,1.262,0,0,1,.65.165l-.134.329a1.054,1.054,0,0,0-.519-.147c-.256,0-.355.1-.355.213,0,.345,1.088.108,1.088.794,0,.313-.261.58-.795.58a1.332,1.332,0,0,1-.76-.217" transform="translate(-37.152 -37.265)" fill="#fff"/>
            <path id="Trazado_600664" data-name="Trazado 600664" d="M143.825,139.01v1.87h-.433v-.766h-.85v.766h-.433v-1.87h.433v.738h.85v-.738Z" transform="translate(-38.108 -37.277)" fill="#fff"/>
            <path id="Trazado_600665" data-name="Trazado 600665" d="M144.9,139.934a1.025,1.025,0,1,1,1.023.967.967.967,0,0,1-1.023-.967m1.608,0a.585.585,0,1,0-.585.6.571.571,0,0,0,.585-.6" transform="translate(-38.857 -37.265)" fill="#fff"/>
            <path id="Trazado_600666" data-name="Trazado 600666" d="M148.15,139.01h.432v1.518h.938v.352H148.15Z" transform="translate(-39.728 -37.277)" fill="#fff"/>
            <path id="Trazado_600667" data-name="Trazado 600667" d="M150.358,139.01h.849a.94.94,0,1,1,0,1.871h-.849Zm.828,1.515a.581.581,0,1,0,0-1.159h-.4v1.159Z" transform="translate(-40.32 -37.277)" fill="#fff"/>
            <path id="Trazado_600668" data-name="Trazado 600668" d="M154.826,140.533v.348h-1.448V139.01h1.413v.348h-.984v.406h.869v.337h-.869v.433Z" transform="translate(-41.13 -37.277)" fill="#fff"/>
            <path id="Trazado_600669" data-name="Trazado 600669" d="M157.023,140.881l-.361-.521h-.4v.521h-.432V139.01h.809c.5,0,.812.259.812.678a.608.608,0,0,1-.384.591l.42.6Zm-.406-1.518h-.353v.652h.353c.265,0,.4-.123.4-.326s-.133-.326-.4-.326" transform="translate(-41.788 -37.277)" fill="#fff"/>
            <path id="Trazado_600670" data-name="Trazado 600670" d="M130.21,149.124l.463-.555a.829.829,0,0,0,.67.4c.334,0,.509-.2.509-.6v-1.714h-1.266v-.669h2.095v2.337a1.165,1.165,0,0,1-1.3,1.328,1.447,1.447,0,0,1-1.173-.525" transform="translate(-34.917 -39.147)" fill="#fff"/>
            <path id="Trazado_600671" data-name="Trazado 600671" d="M134.313,150.093a.5.5,0,0,1,1,0,.5.5,0,1,1-1,0" transform="translate(-36.017 -40.117)" fill="#fff"/>
            <path id="Trazado_600672" data-name="Trazado 600672" d="M141.562,145.984l-1.179,3.6h-.9l-.793-2.439-.817,2.439h-.891l-1.184-3.6h.865l.813,2.532.849-2.532h.772l.823,2.553.839-2.553Z" transform="translate(-36.417 -39.147)" fill="#fff"/>
            <path id="Trazado_600673" data-name="Trazado 600673" d="M144.157,145.82a.459.459,0,0,1,.5-.447.45.45,0,0,1,.5.432.5.5,0,0,1-1,.015m.1.834h.8v2.769h-.8Z" transform="translate(-38.657 -38.983)" fill="#fff"/>
            <rect id="Rectángulo_334325" data-name="Rectángulo 334325" width="0.803" height="3.819" transform="translate(107.146 106.621)" fill="#fff"/>
            <rect id="Rectángulo_334326" data-name="Rectángulo 334326" width="0.803" height="3.819" transform="translate(108.694 106.621)" fill="#fff"/>
            <path id="Trazado_600674" data-name="Trazado 600674" d="M150.5,145.82a.459.459,0,0,1,.5-.447.45.45,0,0,1,.5.432.5.5,0,0,1-1,.015m.1.834h.8v2.769h-.8Z" transform="translate(-40.359 -38.983)" fill="#fff"/>
            <path id="Trazado_600675" data-name="Trazado 600675" d="M155.134,148.3v1.58h-.752v-.345a.91.91,0,0,1-.844.386c-.649,0-1.035-.36-1.035-.839s.345-.829,1.188-.829h.639c0-.345-.206-.545-.639-.545a1.332,1.332,0,0,0-.8.258l-.288-.561a2.129,2.129,0,0,1,1.194-.334c.845,0,1.333.391,1.333,1.23m-.8.7v-.283h-.551c-.375,0-.494.139-.494.324,0,.2.17.335.453.335a.592.592,0,0,0,.592-.376" transform="translate(-40.896 -39.438)" fill="#fff"/>
            <path id="Trazado_600676" data-name="Trazado 600676" d="M161.764,148.293v1.585h-.8v-1.462c0-.447-.2-.654-.525-.654-.361,0-.613.232-.613.726v1.39h-.8v-1.462c0-.447-.191-.654-.525-.654-.355,0-.607.232-.607.726v1.39h-.8v-2.769h.767v.319a1.122,1.122,0,0,1,.87-.36,1.033,1.033,0,0,1,.91.453,1.246,1.246,0,0,1,1-.453,1.072,1.072,0,0,1,1.132,1.225" transform="translate(-42.124 -39.438)" fill="#fff"/>
            <path id="Trazado_600677" data-name="Trazado 600677" d="M164.09,149.621l.268-.577a1.884,1.884,0,0,0,.962.268c.37,0,.509-.1.509-.253,0-.452-1.673.011-1.673-1.1,0-.525.473-.9,1.281-.9a2.277,2.277,0,0,1,1.066.242l-.268.571a1.588,1.588,0,0,0-.8-.206c-.36,0-.515.113-.515.257,0,.474,1.673.015,1.673,1.107,0,.514-.479.88-1.308.88a2.374,2.374,0,0,1-1.2-.3" transform="translate(-44.002 -39.438)" fill="#fff"/>
            <path id="Trazado_600678" data-name="Trazado 600678" d="M208.227,147.912c0-1.189.659-1.863,1.544-1.863s1.544.674,1.544,1.863-.654,1.863-1.544,1.863-1.544-.675-1.544-1.863m2.249,0c0-.818-.288-1.159-.7-1.159s-.7.34-.7,1.159.288,1.158.7,1.158.7-.34.7-1.158" transform="translate(-55.838 -39.165)" fill="#fff"/>
            <path id="Trazado_600679" data-name="Trazado 600679" d="M215.972,148.576a1.237,1.237,0,0,1-1.363,1.2c-.994,0-1.612-.622-1.612-1.786a1.754,1.754,0,0,1,1.838-1.94,1.949,1.949,0,0,1,1,.247l-.309.613a1.188,1.188,0,0,0-.675-.18.956.956,0,0,0-1.014,1.045,1.213,1.213,0,0,1,.89-.319,1.143,1.143,0,0,1,1.24,1.122m-.808.041a.543.543,0,0,0-.613-.54.563.563,0,0,0-.623.54c0,.309.232.536.633.536a.539.539,0,0,0,.6-.536" transform="translate(-57.117 -39.165)" fill="#fff"/>
            <path id="Trazado_600680" data-name="Trazado 600680" d="M218.735,145.135h.715l-1.7,4.848h-.716Z" transform="translate(-58.201 -38.919)" fill="#fff"/>
            <path id="Trazado_600681" data-name="Trazado 600681" d="M222.918,149.034v.679H220.2v-.54l1.39-1.312c.319-.3.376-.49.376-.664,0-.283-.2-.448-.577-.448a.883.883,0,0,0-.746.36l-.607-.392a1.674,1.674,0,0,1,1.431-.669c.8,0,1.339.412,1.339,1.066a1.44,1.44,0,0,1-.6,1.138l-.829.782Z" transform="translate(-59.004 -39.165)" fill="#fff"/>
            <path id="Trazado_600682" data-name="Trazado 600682" d="M227.656,148.98h-.586v.757h-.813v-.757h-1.941v-.561l1.7-2.285h.875l-1.576,2.166h.967v-.674h.788v.674h.586Z" transform="translate(-60.153 -39.187)" fill="#fff"/>
            <g id="Grupo_886491" data-name="Grupo 886491" transform="translate(141.364 74.495)" opacity="0.2">
              <g id="Grupo_886490" data-name="Grupo 886490">
                <g id="Grupo_886489" data-name="Grupo 886489" clip-path="url(#clip-path-13)">
                  <path id="Trazado_600683" data-name="Trazado 600683" d="M204.208,105.914a5.632,5.632,0,0,0-5.927-4.109,7.056,7.056,0,0,0-2.4.569,4.368,4.368,0,0,0-2.559,5.01c.508,1.6,2.063,2.616,3.6,3.287,1.609.7,3.5,1.161,5.089.414a4.424,4.424,0,0,0,2.343-4.173,5.185,5.185,0,0,0-.143-1" transform="translate(-193.162 -101.792)" fill="#fff"/>
                </g>
              </g>
            </g>
            <g id="Grupo_886494" data-name="Grupo 886494" transform="translate(86.715 62.569)" opacity="0.145">
              <g id="Grupo_886493" data-name="Grupo 886493">
                <g id="Grupo_886492" data-name="Grupo 886492" clip-path="url(#clip-path-14)">
                  <path id="Trazado_600684" data-name="Trazado 600684" d="M206.427,85.5H121.5a3.014,3.014,0,0,0-3.014,3.014v15.236c5.368,3.741,12.736,4.4,19.274,3.033,7.707-1.612,14.687-5.552,21.867-8.783S174.7,92.173,182.46,93.5c7.323,1.255,13.567,5.817,20.186,9.193a39.353,39.353,0,0,0,6.8,2.738V88.51a3.014,3.014,0,0,0-3.014-3.014" transform="translate(-118.489 -85.496)" fill="#f8fffd"/>
                </g>
              </g>
            </g>
            <path id="Trazado_600685" data-name="Trazado 600685" d="M163.569,204.606V206h-1.246v-1.358a5.91,5.91,0,0,1-3.1-1l.686-1.521a5.027,5.027,0,0,0,2.417.885v-2.081c-1.383-.336-2.929-.8-2.929-2.579,0-1.322.96-2.455,2.929-2.679v-1.384h1.246v1.359a5.626,5.626,0,0,1,2.53.76l-.623,1.532a5.082,5.082,0,0,0-1.907-.648v2.118c1.383.324,2.9.786,2.9,2.542,0,1.3-.948,2.418-2.9,2.654m-1.246-5.508v-1.77c-.66.149-.921.511-.921.921,0,.437.373.673.921.848m2.144,3c0-.437-.361-.673-.9-.861v1.721c.624-.138.9-.461.9-.86" transform="translate(-42.697 -52.1)" fill="#263238"/>
            <path id="Trazado_600686" data-name="Trazado 600686" d="M174.433,204.606V206h-1.246v-1.358a5.907,5.907,0,0,1-3.1-1l.686-1.521a5.024,5.024,0,0,0,2.417.885v-2.081c-1.382-.336-2.928-.8-2.928-2.579,0-1.322.959-2.455,2.928-2.679v-1.384h1.246v1.359a5.623,5.623,0,0,1,2.53.76l-.623,1.532a5.078,5.078,0,0,0-1.907-.648v2.118c1.384.324,2.9.786,2.9,2.542,0,1.3-.947,2.418-2.9,2.654m-1.246-5.508v-1.77c-.66.149-.921.511-.921.921,0,.437.373.673.921.848m2.144,3c0-.437-.362-.673-.9-.861v1.721c.624-.138.9-.461.9-.86" transform="translate(-45.61 -52.1)" fill="#263238"/>
            <path id="Trazado_600687" data-name="Trazado 600687" d="M185.3,204.606V206h-1.246v-1.358a5.91,5.91,0,0,1-3.1-1l.686-1.521a5.027,5.027,0,0,0,2.417.885v-2.081c-1.383-.336-2.929-.8-2.929-2.579,0-1.322.96-2.455,2.929-2.679v-1.384H185.3v1.359a5.626,5.626,0,0,1,2.53.76l-.623,1.532a5.082,5.082,0,0,0-1.907-.648v2.118c1.383.324,2.9.786,2.9,2.542,0,1.3-.948,2.418-2.9,2.654m-1.246-5.508v-1.77c-.66.149-.922.511-.922.921,0,.437.374.673.922.848m2.144,3c0-.437-.361-.673-.9-.861v1.721c.624-.138.9-.461.9-.86" transform="translate(-48.523 -52.1)" fill="#263238"/>
            <path id="Trazado_600688" data-name="Trazado 600688" d="M196.158,204.606V206h-1.246v-1.358a5.907,5.907,0,0,1-3.1-1l.686-1.521a5.024,5.024,0,0,0,2.417.885v-2.081c-1.382-.336-2.928-.8-2.928-2.579,0-1.322.959-2.455,2.928-2.679v-1.384h1.246v1.359a5.623,5.623,0,0,1,2.53.76l-.623,1.532a5.078,5.078,0,0,0-1.907-.648v2.118c1.384.324,2.9.786,2.9,2.542,0,1.3-.947,2.418-2.9,2.654m-1.246-5.508v-1.77c-.66.149-.921.511-.921.921,0,.437.373.673.921.848m2.144,3c0-.437-.362-.673-.9-.861v1.721c.624-.138.9-.461.9-.86" transform="translate(-51.436 -52.1)" fill="#263238"/>
            <path id="Trazado_600689" data-name="Trazado 600689" d="M142.011,222.094l.543-1.2a4.065,4.065,0,0,0,2.28.721c.948,0,1.333-.316,1.333-.741,0-1.293-4.019-.4-4.019-2.971,0-1.175.948-2.152,2.913-2.152a4.637,4.637,0,0,1,2.4.612l-.494,1.214a3.9,3.9,0,0,0-1.915-.543c-.948,0-1.313.356-1.313.79,0,1.273,4.019.394,4.019,2.932,0,1.156-.958,2.143-2.932,2.143a4.924,4.924,0,0,1-2.814-.8" transform="translate(-38.082 -57.855)" fill="#263238"/>
            <path id="Trazado_600690" data-name="Trazado 600690" d="M156.553,218.093V223.4h-1.462v-.632a2.147,2.147,0,0,1-1.648.711,2.117,2.117,0,0,1-2.27-2.389v-3h1.54v2.774c0,.888.394,1.284,1.076,1.284.711,0,1.224-.454,1.224-1.432v-2.626Z" transform="translate(-40.539 -58.484)" fill="#263238"/>
            <path id="Trazado_600691" data-name="Trazado 600691" d="M159.941,220.72a2.747,2.747,0,0,1,2.962-2.735,2.44,2.44,0,0,1,2.379,1.353l-1.2.641a1.325,1.325,0,0,0-1.194-.73,1.473,1.473,0,0,0,0,2.942,1.305,1.305,0,0,0,1.194-.73l1.2.651a2.463,2.463,0,0,1-2.379,1.343,2.747,2.747,0,0,1-2.962-2.735" transform="translate(-42.89 -58.455)" fill="#263238"/>
            <path id="Trazado_600692" data-name="Trazado 600692" d="M167.821,220.72a2.747,2.747,0,0,1,2.962-2.735,2.44,2.44,0,0,1,2.38,1.353l-1.2.641a1.325,1.325,0,0,0-1.194-.73,1.473,1.473,0,0,0,0,2.942,1.305,1.305,0,0,0,1.194-.73l1.2.651a2.464,2.464,0,0,1-2.38,1.343,2.746,2.746,0,0,1-2.962-2.735" transform="translate(-45.003 -58.455)" fill="#263238"/>
            <path id="Trazado_600693" data-name="Trazado 600693" d="M181.269,221.155H177.25a1.416,1.416,0,0,0,1.52,1.066,1.8,1.8,0,0,0,1.333-.513l.82.888a3.1,3.1,0,0,1-5.223-1.876,2.7,2.7,0,0,1,2.834-2.735,2.629,2.629,0,0,1,2.764,2.755c0,.119-.02.286-.029.415m-4.038-.9h2.616a1.327,1.327,0,0,0-2.616,0" transform="translate(-47.116 -58.455)" fill="#263238"/>
            <path id="Trazado_600694" data-name="Trazado 600694" d="M184.05,222.883l.513-1.106a3.64,3.64,0,0,0,1.846.513c.711,0,.978-.187.978-.484,0-.869-3.208.02-3.208-2.1,0-1.007.908-1.718,2.458-1.718a4.369,4.369,0,0,1,2.044.464l-.514,1.1a3.047,3.047,0,0,0-1.53-.394c-.692,0-.988.217-.988.493,0,.908,3.21.029,3.21,2.123,0,.987-.918,1.688-2.508,1.688a4.562,4.562,0,0,1-2.3-.572" transform="translate(-49.355 -58.455)" fill="#263238"/>
            <path id="Trazado_600695" data-name="Trazado 600695" d="M191.214,222.883l.514-1.106a3.633,3.633,0,0,0,1.846.513c.711,0,.978-.187.978-.484,0-.869-3.209.02-3.209-2.1,0-1.007.909-1.718,2.459-1.718a4.369,4.369,0,0,1,2.044.464l-.514,1.1a3.043,3.043,0,0,0-1.53-.394c-.692,0-.988.217-.988.493,0,.908,3.21.029,3.21,2.123,0,.987-.918,1.688-2.508,1.688a4.562,4.562,0,0,1-2.3-.572" transform="translate(-51.276 -58.455)" fill="#263238"/>
            <path id="Trazado_600696" data-name="Trazado 600696" d="M200.536,217.445H201.9v1.185h-1.323v4.008h-1.54v-4.008h-.82v-1.185h.82v-.237a1.854,1.854,0,0,1,2.054-1.974,2.175,2.175,0,0,1,1.175.287l-.4,1.115a1.077,1.077,0,0,0-.622-.187c-.454,0-.7.247-.7.77Z" transform="translate(-53.154 -57.717)" fill="#263238"/>
            <path id="Trazado_600697" data-name="Trazado 600697" d="M209.641,218.093V223.4H208.18v-.632a2.15,2.15,0,0,1-1.649.711,2.118,2.118,0,0,1-2.272-2.389v-3H205.8v2.774c0,.888.4,1.284,1.077,1.284.711,0,1.224-.454,1.224-1.432v-2.626Z" transform="translate(-54.775 -58.484)" fill="#263238"/>
            <rect id="Rectángulo_334329" data-name="Rectángulo 334329" width="1.54" height="7.326" transform="translate(156.299 157.595)" fill="#263238"/>
            <path id="Trazado_600698" data-name="Trazado 600698" d="M160.8,235.528a1.437,1.437,0,0,1-.921.293,1.2,1.2,0,0,1-1.333-1.317v-2.31h-.714v-.627h.714v-.921h.762v.921h1.207v.627H159.31v2.277a.62.62,0,0,0,.659.707.959.959,0,0,0,.6-.2Z" transform="translate(-42.325 -61.85)" fill="#263238"/>
            <path id="Trazado_600699" data-name="Trazado 600699" d="M165.407,231.851v.738a1.457,1.457,0,0,0-.174-.007,1.255,1.255,0,0,0-1.325,1.42v2.1h-.762v-4.207h.73v.707a1.606,1.606,0,0,1,1.532-.746" transform="translate(-43.749 -62.173)" fill="#263238"/>
            <path id="Trazado_600700" data-name="Trazado 600700" d="M170.716,233.557V236.1h-.722v-.555a1.562,1.562,0,0,1-1.381.6c-.952,0-1.555-.508-1.555-1.238,0-.673.436-1.23,1.691-1.23h1.206v-.15c0-.643-.373-1.016-1.127-1.016a2.127,2.127,0,0,0-1.333.453l-.318-.572a2.8,2.8,0,0,1,1.738-.541c1.151,0,1.8.557,1.8,1.707m-.762,1.254v-.588H168.78c-.754,0-.968.295-.968.651,0,.421.349.683.929.683a1.219,1.219,0,0,0,1.214-.746" transform="translate(-44.798 -62.173)" fill="#263238"/>
            <path id="Trazado_600701" data-name="Trazado 600701" d="M177.975,233.675V236.1h-.762v-2.333c0-.826-.413-1.23-1.135-1.23a1.249,1.249,0,0,0-1.333,1.4V236.1h-.763V231.89h.73v.635a1.8,1.8,0,0,1,1.516-.675,1.63,1.63,0,0,1,1.746,1.825" transform="translate(-46.655 -62.173)" fill="#263238"/>
            <path id="Trazado_600702" data-name="Trazado 600702" d="M180.637,235.652l.317-.6a2.705,2.705,0,0,0,1.476.436c.707,0,1-.214,1-.572,0-.944-2.657-.127-2.657-1.8,0-.754.673-1.262,1.753-1.262a3.06,3.06,0,0,1,1.532.381l-.326.6a2.189,2.189,0,0,0-1.214-.334c-.666,0-.991.246-.991.579,0,.992,2.665.182,2.665,1.818,0,.762-.7,1.246-1.816,1.246a3.036,3.036,0,0,1-1.738-.492" transform="translate(-48.44 -62.173)" fill="#263238"/>
            <path id="Trazado_600703" data-name="Trazado 600703" d="M187.428,230.906v.365h1.223v.627h-1.206v3.579h-.762V231.9h-.715v-.627h.715V230.9a1.263,1.263,0,0,1,1.388-1.357,1.417,1.417,0,0,1,.857.246l-.231.58a.983.983,0,0,0-.586-.2c-.453,0-.684.254-.684.738" transform="translate(-49.869 -61.554)" fill="#263238"/>
            <path id="Trazado_600704" data-name="Trazado 600704" d="M194.175,234.247h-3.413a1.424,1.424,0,0,0,1.524,1.23,1.571,1.571,0,0,0,1.215-.508l.42.492a2.292,2.292,0,0,1-3.92-1.468,2.06,2.06,0,0,1,2.111-2.143,2.029,2.029,0,0,1,2.08,2.167c0,.063-.009.159-.016.23m-3.413-.547h2.7a1.358,1.358,0,0,0-2.7,0" transform="translate(-50.951 -62.173)" fill="#263238"/>
            <path id="Trazado_600705" data-name="Trazado 600705" d="M199.426,231.851v.738a1.462,1.462,0,0,0-.175-.007,1.255,1.255,0,0,0-1.325,1.42v2.1h-.762v-4.207h.73v.707a1.6,1.6,0,0,1,1.531-.746" transform="translate(-52.872 -62.173)" fill="#263238"/>
            <path id="Trazado_600706" data-name="Trazado 600706" d="M192.313,295.21H141.72A11.417,11.417,0,0,1,130.3,283.793v-1.314a11.417,11.417,0,0,1,11.417-11.417h50.594a11.416,11.416,0,0,1,11.417,11.417v1.314a11.416,11.416,0,0,1-11.417,11.417" transform="translate(-34.942 -72.688)" fill="#00f3be"/>
            <path id="Trazado_600707" data-name="Trazado 600707" d="M166.755,283.766h2.017a2.4,2.4,0,1,1,0,4.787h-2.017Zm1.976,4.192a1.8,1.8,0,1,0,0-3.6h-1.292v3.6Z" transform="translate(-44.717 -76.095)" fill="#fff"/>
            <path id="Trazado_600708" data-name="Trazado 600708" d="M173.934,286.14a2.545,2.545,0,1,1,2.55,2.447,2.433,2.433,0,0,1-2.55-2.447m4.4,0a1.86,1.86,0,1,0-1.854,1.839,1.8,1.8,0,0,0,1.854-1.839" transform="translate(-46.642 -76.075)" fill="#fff"/>
            <path id="Trazado_600709" data-name="Trazado 600709" d="M186.426,283.766v4.786h-.561l-2.872-3.568v3.568h-.684v-4.786h.561l2.872,3.57v-3.57Z" transform="translate(-48.888 -76.095)" fill="#fff"/>
            <path id="Trazado_600710" data-name="Trazado 600710" d="M193.365,287.958v.6h-3.474v-4.787h3.378v.595h-2.694v1.47h2.4v.581h-2.4v1.546Z" transform="translate(-50.921 -76.095)" fill="#fff"/>
          </g>
        </g>
        <g id="Grupo_886510" data-name="Grupo 886510">
          <g id="Grupo_886509" data-name="Grupo 886509" clip-path="url(#clip-path-2)">
            <path id="Trazado_600711" data-name="Trazado 600711" d="M51.658,321.195s-39.345-23.5-48.828-12.357,7.622,21.341,10.913,23.6,37.071,15.969,37.071,15.969l9.657-9.171Z" transform="translate(0 -82.014)" fill="#263238"/>
            <path id="Trazado_600712" data-name="Trazado 600712" d="M35.637,341l-16.685,7.771-14.97,2.341a1.886,1.886,0,0,0-.438,3.6c3.595,1.491,16.846,6.913,18.035,6.276,1.377-.738,18.144-7.029,18.144-7.029Z" transform="translate(-0.64 -91.443)" fill="#efefef"/>
            <g id="Grupo_886499" data-name="Grupo 886499" transform="translate(1.794 261.951)" opacity="0.6">
              <g id="Grupo_886498" data-name="Grupo 886498">
                <g id="Grupo_886497" data-name="Grupo 886497" clip-path="url(#clip-path-16)">
                  <path id="Trazado_600713" data-name="Trazado 600713" d="M2.451,357.934l20.284,7.1-.715.313a2.832,2.832,0,0,1-1.955.122c-1.727-.519-6.465-2.057-16.481-6.161a1.886,1.886,0,0,1-1.132-1.374" transform="translate(-2.451 -357.934)" fill="#fff"/>
                </g>
              </g>
            </g>
            <g id="Grupo_886502" data-name="Grupo 886502" transform="translate(24.341 263.053)" opacity="0.6">
              <g id="Grupo_886501" data-name="Grupo 886501">
                <g id="Grupo_886500" data-name="Grupo 886500" clip-path="url(#clip-path-17)">
                  <path id="Trazado_600714" data-name="Trazado 600714" d="M34.918,359.595a1.141,1.141,0,0,0-1.49.312,1.1,1.1,0,0,0,.3,1.48,1.2,1.2,0,0,0,1.576-.339,1.138,1.138,0,0,0-.479-1.505" transform="translate(-33.259 -359.441)" fill="#fff"/>
                </g>
              </g>
            </g>
            <path id="Trazado_600715" data-name="Trazado 600715" d="M14.82,357.264A4.069,4.069,0,0,0,15,353.107c.034-.032.259.124.488.494a3,3,0,0,1-.143,3.214c-.261.349-.5.484-.53.449" transform="translate(-3.972 -94.688)" fill="#263238"/>
            <path id="Trazado_600716" data-name="Trazado 600716" d="M10.855,357.2a15.469,15.469,0,0,0,.07-1.811,15.583,15.583,0,0,0-.509-1.739c.064-.086.778.568.91,1.69a2.09,2.09,0,0,1-.472,1.86" transform="translate(-2.79 -94.832)" fill="#263238"/>
            <path id="Trazado_600717" data-name="Trazado 600717" d="M20.032,358.079a18.922,18.922,0,0,0,.3-2.788,18.934,18.934,0,0,0-.513-2.756,5.155,5.155,0,0,1,.215,5.544" transform="translate(-5.31 -94.535)" fill="#263238"/>
            <path id="Trazado_600718" data-name="Trazado 600718" d="M26.677,355.819c-.121,0-.14-1.1-.627-2.334-.471-1.238-1.2-2.064-1.11-2.146a4.681,4.681,0,0,1,1.737,4.48" transform="translate(-6.686 -94.214)" fill="#263238"/>
            <path id="Trazado_600719" data-name="Trazado 600719" d="M33.307,352.886a9.2,9.2,0,0,0-.588-2.447,9.223,9.223,0,0,0-1.541-1.989c.023-.043.315.048.71.338a4.111,4.111,0,0,1,1.6,3.331c-.02.49-.132.775-.18.766" transform="translate(-8.36 -93.438)" fill="#263238"/>
            <path id="Trazado_600720" data-name="Trazado 600720" d="M34.506,349.318a1.593,1.593,0,0,1,.628-.3,4.822,4.822,0,0,1,1.892-.225,2.148,2.148,0,0,1,1.307.432.758.758,0,0,1,.189.85,1.233,1.233,0,0,1-.645.6,2.665,2.665,0,0,1-3.2-1.15,3.091,3.091,0,0,1,.263-3.431,1.072,1.072,0,0,1,.8-.4.744.744,0,0,1,.673.555,2.632,2.632,0,0,1-.091,1.364,5.407,5.407,0,0,1-.805,1.724c-.262.366-.452.53-.469.514a8.609,8.609,0,0,0,1-2.307,2.462,2.462,0,0,0,.05-1.191.4.4,0,0,0-.364-.3.734.734,0,0,0-.509.3,2.759,2.759,0,0,0-.193,2.977,2.315,2.315,0,0,0,2.7,1.016.9.9,0,0,0,.468-.4.411.411,0,0,0-.1-.471,1.937,1.937,0,0,0-1.1-.386,7.129,7.129,0,0,0-2.492.243" transform="translate(-9.193 -92.7)" fill="#263238"/>
            <path id="Trazado_600721" data-name="Trazado 600721" d="M39.729,333.815S79.316,312.875,84.651,310.3c4.584-2.211,18.935-6.857,23.1,6.882s-23.619,32.035-23.619,32.035l-22.658-.305L54.094,345.6l-8.72,2.135Z" transform="translate(-10.654 -82.522)" fill="#263238"/>
            <path id="Trazado_600722" data-name="Trazado 600722" d="M121.957,339.514a3.687,3.687,0,0,1-.4.759c-.268.487-.733,1.139-1.307,1.944a57.083,57.083,0,0,1-5.089,5.8c-2.115,2.148-4.13,3.988-5.622,5.28-.746.647-1.36,1.157-1.792,1.5a3.568,3.568,0,0,1-.7.5,3.916,3.916,0,0,1,.6-.613l1.709-1.59c1.442-1.341,3.424-3.206,5.531-5.346a75.007,75.007,0,0,0,5.147-5.7c1.221-1.539,1.865-2.574,1.924-2.539" transform="translate(-28.705 -91.044)" fill="#455a64"/>
            <path id="Trazado_600723" data-name="Trazado 600723" d="M75.332,360.766l16.754,7.623,11.513,9.85a1.886,1.886,0,0,0,3.021-2.01c-1.2-3.7-5.7-17.293-6.96-17.782-1.456-.566-17.138-9.214-17.138-9.214Z" transform="translate(-20.201 -93.65)" fill="#efefef"/>
            <g id="Grupo_886505" data-name="Grupo 886505" transform="translate(78.34 264.255)" opacity="0.6">
              <g id="Grupo_886504" data-name="Grupo 886504">
                <g id="Grupo_886503" data-name="Grupo 886503" clip-path="url(#clip-path-18)">
                  <path id="Trazado_600724" data-name="Trazado 600724" d="M114.842,381.109l-7.8-20.025.7.339a2.842,2.842,0,0,1,1.365,1.407c.728,1.65,2.64,6.249,6.036,16.526a1.886,1.886,0,0,1-.307,1.753" transform="translate(-107.046 -361.084)" fill="#fff"/>
                </g>
              </g>
            </g>
            <g id="Grupo_886508" data-name="Grupo 886508" transform="translate(71.326 263.821)" opacity="0.6">
              <g id="Grupo_886507" data-name="Grupo 886507">
                <g id="Grupo_886506" data-name="Grupo 886506" clip-path="url(#clip-path-19)">
                  <path id="Trazado_600725" data-name="Trazado 600725" d="M97.487,361.745a1.141,1.141,0,0,0,1.206.929,1.1,1.1,0,0,0,.932-1.188,1.2,1.2,0,0,0-1.282-.977,1.137,1.137,0,0,0-.832,1.342" transform="translate(-97.461 -360.491)" fill="#fff"/>
                </g>
              </g>
            </g>
            <path id="Trazado_600726" data-name="Trazado 600726" d="M109.088,378.449a4.068,4.068,0,0,0-3.278,2.563c-.047-.005-.075-.277.058-.692a3.006,3.006,0,0,1,2.535-1.983c.434-.029.691.064.685.111" transform="translate(-28.364 -101.454)" fill="#263238"/>
            <path id="Trazado_600727" data-name="Trazado 600727" d="M111.657,381.558c.034.113-.762.385-1.422,1.124-.675.724-.874,1.54-.99,1.518a2.646,2.646,0,0,1,2.412-2.642" transform="translate(-29.283 -102.31)" fill="#263238"/>
            <path id="Trazado_600728" data-name="Trazado 600728" d="M106.368,373.6a18.827,18.827,0,0,0-2.311,1.587,18.913,18.913,0,0,0-1.761,2.182,5.157,5.157,0,0,1,4.072-3.768" transform="translate(-27.428 -100.181)" fill="#263238"/>
            <path id="Trazado_600729" data-name="Trazado 600729" d="M100.319,369.861c.078.092-.747.823-1.366,1.994-.634,1.162-.788,2.253-.908,2.239a4.678,4.678,0,0,1,2.274-4.234" transform="translate(-26.277 -99.18)" fill="#263238"/>
            <path id="Trazado_600730" data-name="Trazado 600730" d="M93.723,366.634a5.991,5.991,0,0,0-1.985,4.5c-.048.01-.168-.272-.2-.76a4.107,4.107,0,0,1,1.491-3.382c.385-.3.674-.4.7-.361" transform="translate(-24.543 -98.314)" fill="#263238"/>
            <path id="Trazado_600731" data-name="Trazado 600731" d="M89.906,367.457a1.592,1.592,0,0,1-.638-.28,4.848,4.848,0,0,1-1.4-1.291,2.148,2.148,0,0,1-.522-1.273.758.758,0,0,1,.523-.7,1.236,1.236,0,0,1,.875.1,2.666,2.666,0,0,1,1.2,3.176,3.092,3.092,0,0,1-2.777,2.032,1.077,1.077,0,0,1-.826-.343.744.744,0,0,1-.016-.872,2.636,2.636,0,0,1,1.095-.818,5.39,5.39,0,0,1,1.834-.509,1.636,1.636,0,0,1,.7.022,8.576,8.576,0,0,0-2.4.742,2.465,2.465,0,0,0-.937.736.4.4,0,0,0,.007.476.738.738,0,0,0,.555.193,2.76,2.76,0,0,0,2.387-1.789,2.314,2.314,0,0,0-.984-2.711.9.9,0,0,0-.607-.094.409.409,0,0,0-.294.38,1.934,1.934,0,0,0,.422,1.086,7.142,7.142,0,0,0,1.8,1.735" transform="translate(-23.114 -97.577)" fill="#263238"/>
            <path id="Trazado_600732" data-name="Trazado 600732" d="M78.072,364.947c-.467-.277-19.362-9.285-19.362-9.285l19.8-8.407,11.247,6.677Z" transform="translate(-15.744 -93.12)" fill="#263238"/>
            <path id="Trazado_600733" data-name="Trazado 600733" d="M98.2,335.737s-.092.016-.269.062l-.779.211-2.987.842L83.2,340,47.022,350.447l-1.748.428.172.088L39.794,337.05l-.064.176,23.09-12.34L69.47,321.3l1.768-.965.453-.255a.823.823,0,0,0,.149-.094,1.115,1.115,0,0,0-.161.072l-.464.233-1.789.926-6.688,3.511L39.6,336.979l-.111.059.047.118c1.759,4.34,3.66,9.035,5.638,13.92l.048.118.124-.03,1.753-.43c.9-.2,1.77-.476,2.643-.727l2.6-.757,5.077-1.481,9.6-2.8L83.255,340.2,94.2,336.962l2.973-.9.771-.239c.173-.056.26-.091.26-.091" transform="translate(-10.589 -85.808)" fill="#455a64"/>
            <path id="Trazado_600734" data-name="Trazado 600734" d="M85.166,365.7a6.338,6.338,0,0,0,.759-.643l1.995-1.831c1.675-1.556,3.975-3.72,6.5-6.123l2.543-2.425.139-.133-.167-.093-5.71-3.189-1.67-.9a3.654,3.654,0,0,0-.616-.3,3.535,3.535,0,0,0,.569.379l1.628.975L96.8,354.7l-.027-.225L94.22,356.89c-2.528,2.4-4.806,4.591-6.445,6.185l-1.93,1.9a6.508,6.508,0,0,0-.68.726" transform="translate(-22.838 -93.874)" fill="#455a64"/>
            <path id="Trazado_600735" data-name="Trazado 600735" d="M34.8,317.044c-.036.073,4.606,2.419,10.368,5.24s10.462,5.048,10.5,4.975-4.605-2.419-10.369-5.241-10.462-5.047-10.5-4.974" transform="translate(-9.332 -85.018)" fill="#455a64"/>
            <path id="Trazado_600736" data-name="Trazado 600736" d="M68.768,239.72c.4.023,14.369.7,17.023,3.684s5.992,46.481,5.992,46.481a23.7,23.7,0,0,0-6.944,2.2L60.307,304.538,50.346,298.6a2.582,2.582,0,0,1-.5-3.959L39.059,244.45a25.3,25.3,0,0,1,6.863-3.232c4.112-1.242,22.846-1.5,22.846-1.5" transform="translate(-10.474 -64.283)" fill="#455a64"/>
            <path id="Trazado_600737" data-name="Trazado 600737" d="M35.874,244.015s-4.252.684-6.01,3.181c-4.12,5.853-16.955,26.744-19.2,31.8-2.379,5.351-.346,8.594,1.006,10.989,1.457,2.578,10.257,3.082,14.494-.948,1.817-1.729,11.846-9.82,11.846-9.82Z" transform="translate(-2.565 -65.435)" fill="#455a64"/>
            <path id="Trazado_600738" data-name="Trazado 600738" d="M38.355,254.575a2.667,2.667,0,0,0,.135.436q.166.459.441,1.227c.366,1.071.874,2.629,1.44,4.572,1.146,3.883,2.512,9.31,3.946,15.321,1.4,6.01,2.663,11.448,3.587,15.42.463,1.973.85,3.566,1.128,4.665q.211.789.336,1.261a2.661,2.661,0,0,0,.136.435,2.607,2.607,0,0,0-.078-.449c-.07-.318-.165-.742-.282-1.274-.252-1.136-.6-2.728-1.037-4.684-.875-3.956-2.075-9.424-3.5-15.442s-2.834-11.439-4.034-15.313c-.593-1.939-1.132-3.489-1.532-4.551l-.493-1.21a2.609,2.609,0,0,0-.19-.414" transform="translate(-10.285 -68.267)" fill="#263238"/>
            <path id="Trazado_600739" data-name="Trazado 600739" d="M96.174,243.921a10.166,10.166,0,0,1,4.169,2.236c1.524,1.57,18.426,28.367,20.128,35.883.987,4.359-4.253,12.957-9.321,12.233-6.628-.947-31.055-11.989-31.055-11.989l6.314-11.859,13.991,3.084-9.67-10.918,4.952-18.967" transform="translate(-21.478 -65.33)" fill="#455a64"/>
            <path id="Trazado_600740" data-name="Trazado 600740" d="M18.2,285.248a1.108,1.108,0,0,0,.261-.136l.718-.438,2.609-1.656c2.2-1.41,5.219-3.374,8.548-5.558L32.56,276l-.2-.04c1.882,2.77,3.555,5.187,4.777,6.9a19.625,19.625,0,0,0,2.054,2.671c-.338-.5-.883-1.293-1.9-2.78L32.6,275.795l-.08-.119-.12.078-2.228,1.459c-3.328,2.184-6.333,4.176-8.5,5.63l-2.558,1.735-.688.484a1.081,1.081,0,0,0-.228.186" transform="translate(-4.88 -73.925)" fill="#263238"/>
            <path id="Trazado_600741" data-name="Trazado 600741" d="M73,273.422,83.914,279.1l-5.035,9.456-6.737-5.036Z" transform="translate(-19.346 -73.321)" fill="#ffbe9d"/>
            <path id="Trazado_600742" data-name="Trazado 600742" d="M51.93,271.758l-7.2-5.511a1.389,1.389,0,0,0-.885-.287l-9.852.266a.746.746,0,0,0-.731.727,1.327,1.327,0,0,0,.349,1.065L48.887,280,60.861,278.8Z" transform="translate(-8.919 -71.32)" fill="#e0e0e0"/>
            <path id="Trazado_600743" data-name="Trazado 600743" d="M68.281,271.992s-3.872-3.233-4.813-3.454-5.218-.449-5.218-.449l-3.715,1.844,2.138,1.642a3.418,3.418,0,0,0,2.045-.826l2.477.311Z" transform="translate(-14.624 -71.891)" fill="#ffbe9d"/>
            <path id="Trazado_600744" data-name="Trazado 600744" d="M61.419,271.279,54.89,273.1l-9.264.762a2.009,2.009,0,0,0,1.71,2.17c1.1.183,3.033.43,3.033.43a3.111,3.111,0,0,0,1.775,2.176,4.774,4.774,0,0,0,1.29,1.715,1.278,1.278,0,0,0,.273.138c.869.308,2.489,2.8,3.648,3.194s7.675-.749,7.675-.749l.861-10.094Z" transform="translate(-12.234 -72.746)" fill="#ffbe9d"/>
            <path id="Trazado_600745" data-name="Trazado 600745" d="M60.858,278.261c-.007-.028-.512.078-1.336.193a24.977,24.977,0,0,1-3.238.234,24.268,24.268,0,0,1-3.242-.195c-.825-.106-1.331-.21-1.337-.182a1.468,1.468,0,0,0,.348.108c.227.059.558.129.972.2a19.283,19.283,0,0,0,3.26.247,19.789,19.789,0,0,0,3.257-.287c.413-.073.744-.145.97-.206a1.484,1.484,0,0,0,.348-.11" transform="translate(-13.865 -74.618)" fill="#eb996e"/>
            <path id="Trazado_600746" data-name="Trazado 600746" d="M62.309,281.745a1.5,1.5,0,0,0,.03.635,1.314,1.314,0,0,0,.308.64,1.1,1.1,0,0,0,.813.322,2.079,2.079,0,0,0,.839-.19c.239-.1.441-.214.614-.3.341-.176.569-.24.564-.265a1.311,1.311,0,0,0-.615.152,3.812,3.812,0,0,1-1.4.427.972.972,0,0,1-.7-.26,1.286,1.286,0,0,1-.3-.557,4.713,4.713,0,0,0-.15-.6" transform="translate(-16.704 -75.553)" fill="#eb996e"/>
            <path id="Trazado_600747" data-name="Trazado 600747" d="M55.815,282.225a2.631,2.631,0,0,0,.688.218,15.958,15.958,0,0,0,3.446.435,2.679,2.679,0,0,0,.721-.04c0-.052-1.1-.086-2.434-.258s-2.408-.407-2.421-.356" transform="translate(-14.967 -75.68)" fill="#eb996e"/>
            <path id="Trazado_600748" data-name="Trazado 600748" d="M62.227,286.237a2.258,2.258,0,0,0,2.175.469c-.007-.052-.513.014-1.112-.119s-1.034-.394-1.063-.35" transform="translate(-16.687 -76.756)" fill="#eb996e"/>
            <path id="Trazado_600749" data-name="Trazado 600749" d="M59.088,285.888c-.01.048.295.146.678.221a1.5,1.5,0,0,0,.712.049c.01-.047-.294-.146-.678-.221a1.5,1.5,0,0,0-.712-.049" transform="translate(-15.845 -76.657)" fill="#eb996e"/>
            <path id="Trazado_600750" data-name="Trazado 600750" d="M58.286,273.06a17.747,17.747,0,0,0,3.052-.828c.831-.268,1.579-.529,2.114-.735a3.893,3.893,0,0,0,.847-.381,6.46,6.46,0,0,0-.888.265l-2.126.685-2.125.689a8.5,8.5,0,0,0-.875.3" transform="translate(-15.63 -72.702)" fill="#eb996e"/>
            <path id="Trazado_600751" data-name="Trazado 600751" d="M43.08,275.5s.727-.2.026-1.366-2.916.069-2.916.069l-2.827,1.468s-.7,1.385.042,1.805l.522.726s-1.128,1.016-.754,1.989a1.472,1.472,0,0,0,1.439.9s-.236,1.907.343,2.679a2.079,2.079,0,0,0,1.142.871,3.42,3.42,0,0,0,2.239,2.192c1.809.574,2.765.665,3.309-.078a8.524,8.524,0,0,0,.914-1.7s4.053-1.835,4.2-2.876-.026-1.148-.026-1.148a1.963,1.963,0,0,0,.006-1.515c-.36-.662-1.953-.2-1.953-.2L43.7,280.2s4.123-1.655,4.637-2.244.047-1.373-1.578-1.276-6.547.728-6.547.728a1.483,1.483,0,0,1,.6-.589c.334-.117,1.374-.646,1.374-.646Z" transform="translate(-9.94 -73.379)" fill="#ffbe9d"/>
            <path id="Trazado_600752" data-name="Trazado 600752" d="M43.045,285.757c.01.048,2.075-.354,4.611-.9s4.586-1.02,4.575-1.067-2.074.353-4.612.9-4.585,1.02-4.575,1.067" transform="translate(-11.543 -76.102)" fill="#eb996e"/>
            <path id="Trazado_600753" data-name="Trazado 600753" d="M46.1,290.092a6.03,6.03,0,0,0,1.489-.293,10.415,10.415,0,0,0,1.025-.323,1.937,1.937,0,0,0,.3-.141.278.278,0,0,0,.074-.062c.02-.022,0-.049,0-.039.029.018-.637.179-1.44.4a7.325,7.325,0,0,0-1.443.461" transform="translate(-12.362 -77.561)" fill="#eb996e"/>
            <path id="Trazado_600754" data-name="Trazado 600754" d="M40.612,283.125c.009.049,1-.091,2.223-.22s2.22-.2,2.219-.252a10.234,10.234,0,0,0-2.238.078,10.251,10.251,0,0,0-2.2.394" transform="translate(-10.891 -75.788)" fill="#eb996e"/>
            <path id="Trazado_600755" data-name="Trazado 600755" d="M39.143,279.423c.029.043.443-.214,1.009-.38s1.05-.187,1.051-.239a2.45,2.45,0,0,0-2.06.618" transform="translate(-10.496 -74.751)" fill="#eb996e"/>
            <path id="Trazado_600756" data-name="Trazado 600756" d="M33.865,267.358a.729.729,0,0,0,.185,0l.526-.035c.457-.032,1.118-.08,1.936-.124,1.635-.091,3.9-.157,6.393-.07a3.533,3.533,0,0,1,1.734.306,6.733,6.733,0,0,1,.685.513l.65.52,2.252,1.793c.63.494,1.148.9,1.528,1.2l.421.318a.692.692,0,0,0,.154.1.74.74,0,0,0-.132-.129l-.4-.344-1.493-1.24-2.228-1.823-.646-.525a6.574,6.574,0,0,0-.7-.528,2.118,2.118,0,0,0-.883-.285c-.311-.036-.619-.038-.932-.05a60.256,60.256,0,0,0-6.407.122c-.817.061-1.478.127-1.934.18l-.524.067a.733.733,0,0,0-.181.036" transform="translate(-9.081 -71.577)" fill="#263238"/>
            <path id="Trazado_600757" data-name="Trazado 600757" d="M42.133,269.138a.485.485,0,0,1,.484-.154l-.019-.006a.74.74,0,0,1,.077.02l.032.007a.694.694,0,0,1,.371.239.409.409,0,0,1-.017.517.476.476,0,0,1-.282.113.69.69,0,0,1-.562-.177.471.471,0,0,1-.085-.558" transform="translate(-11.283 -72.128)" fill="#fff"/>
            <path id="Trazado_600758" data-name="Trazado 600758" d="M98.909,300.18a2.445,2.445,0,0,0-.352-.178l-1.037-.472-3.9-1.726-13.538-5.889.069.2,4.166-7.809,2.153-4.048-.16.075,13.734,2.9-.014,0A28.137,28.137,0,0,1,107,286.786c.765.535,1.334.987,1.721,1.295l.437.354a.851.851,0,0,0,.156.113.848.848,0,0,0-.134-.139l-.416-.38c-.373-.325-.932-.794-1.69-1.348a27.211,27.211,0,0,0-6.975-3.669l-.007,0h-.007l-13.72-2.966-.108-.023-.052.1-2.156,4.046c-1.458,2.741-2.861,5.384-4.154,7.815l-.072.135.141.06,13.579,5.792,3.937,1.651,1.055.43a2.418,2.418,0,0,0,.371.133" transform="translate(-21.406 -75.09)" fill="#263238"/>
            <path id="Trazado_600759" data-name="Trazado 600759" d="M96.594,272.124a10.467,10.467,0,0,0,1.058,1.459c.686.875,1.652,2.069,2.751,3.362s2.124,2.441,2.909,3.233a9.157,9.157,0,0,0,.981.891c.134.086.228.172.352.152a.083.083,0,0,0,.037-.108c-.007-.021-.013-.031-.018-.031s-.006.073-.038.082a.743.743,0,0,1-.261-.185c-.225-.207-.531-.534-.9-.946-.741-.824-1.738-1.99-2.836-3.281l-2.815-3.3a11.348,11.348,0,0,0-1.219-1.326" transform="translate(-25.902 -72.973)" fill="#263238"/>
            <path id="Trazado_600760" data-name="Trazado 600760" d="M93.286,259.247c.059-.006-.066-.9.016-2.324a15.334,15.334,0,0,1,.357-2.483,15.358,15.358,0,0,1,2.52-5.559,15.208,15.208,0,0,1,1.631-1.9c1.021-1,1.771-1.5,1.737-1.545a2.576,2.576,0,0,0-.54.323,5.462,5.462,0,0,0-.6.436,9.337,9.337,0,0,0-.746.634,13.856,13.856,0,0,0-1.706,1.9,14.585,14.585,0,0,0-2.566,5.661,13.846,13.846,0,0,0-.3,2.533,9.182,9.182,0,0,0,.014.979,5.691,5.691,0,0,0,.064.735,2.533,2.533,0,0,0,.114.619" transform="translate(-24.961 -65.814)" fill="#263238"/>
            <path id="Trazado_600761" data-name="Trazado 600761" d="M66,319.282c0-.051-.715-.02-1.854-.116a17.044,17.044,0,0,1-8.3-2.983c-.94-.651-1.47-1.129-1.5-1.091-.014.015.107.147.338.373a10.635,10.635,0,0,0,1.044.888,15.112,15.112,0,0,0,8.406,3.021,10.639,10.639,0,0,0,1.369-.019,1.646,1.646,0,0,0,.5-.073" transform="translate(-14.574 -84.495)" fill="#263238"/>
            <path id="Trazado_600762" data-name="Trazado 600762" d="M59.79,303.075a2.472,2.472,0,0,0,.351.506c.24.314.6.758,1.055,1.3.91,1.081,2.215,2.534,3.735,4.065s2.968,2.843,4.043,3.76c.538.458.979.821,1.292,1.063a2.412,2.412,0,0,0,.5.353,2.508,2.508,0,0,0-.429-.441l-1.228-1.132c-1.038-.954-2.456-2.288-3.972-3.811s-2.84-2.952-3.787-3.994l-1.125-1.235a2.46,2.46,0,0,0-.438-.432" transform="translate(-16.033 -81.273)" fill="#263238"/>
            <path id="Trazado_600763" data-name="Trazado 600763" d="M76.1,213.476a50.883,50.883,0,0,0,1.053-8.713,17.77,17.77,0,0,0-1.853-8.5c-.209-.392-1.89-2.982-2.323-2.88-.309.073.846,2.546.725,2.839a15.068,15.068,0,0,0-.5,8.933,39.69,39.69,0,0,0,2.9,8.318" transform="translate(-19.513 -51.858)" fill="#263238"/>
            <path id="Trazado_600764" data-name="Trazado 600764" d="M53.889,230.619c-.3-2.047-.542-3.663-.557-3.661,0,0-7.132.242-8.535-6.667-.678-3.337-1.515-10.323-2.2-16.654a13.133,13.133,0,0,1,10.6-14.311l.668-.127c7.285-.951,12.162,4.705,12.911,12.013l3.433,25.48L58.278,237.8Z" transform="translate(-11.402 -50.708)" fill="#ffbe9d"/>
            <path id="Trazado_600765" data-name="Trazado 600765" d="M57.294,239.226a17.032,17.032,0,0,0,8.509-4.382s-1.24,5.455-8.268,6.147Z" transform="translate(-15.364 -62.976)" fill="#eb996e"/>
            <path id="Trazado_600766" data-name="Trazado 600766" d="M46.951,216.24a1.006,1.006,0,0,0,1.143.816.963.963,0,0,0,.85-1.085,1.007,1.007,0,0,0-1.142-.817.964.964,0,0,0-.85,1.087" transform="translate(-12.587 -57.693)" fill="#263238"/>
            <path id="Trazado_600767" data-name="Trazado 600767" d="M45.386,211.974c.147.105.79-.591,1.855-.791,1.061-.215,1.947.184,2.037.031.046-.069-.124-.277-.511-.46a2.762,2.762,0,0,0-1.661-.185,2.653,2.653,0,0,0-1.446.791c-.28.313-.346.568-.274.614" transform="translate(-12.164 -56.453)" fill="#263238"/>
            <path id="Trazado_600768" data-name="Trazado 600768" d="M60.1,214.5a1.007,1.007,0,0,0,1.144.816.963.963,0,0,0,.85-1.085,1.008,1.008,0,0,0-1.143-.817.964.964,0,0,0-.85,1.087" transform="translate(-16.113 -57.227)" fill="#263238"/>
            <path id="Trazado_600769" data-name="Trazado 600769" d="M59.741,209.85c.147.106.792-.591,1.856-.791s1.946.184,2.037.031c.045-.068-.122-.277-.511-.46a2.762,2.762,0,0,0-1.661-.185,2.668,2.668,0,0,0-1.447.792c-.278.313-.345.568-.274.613" transform="translate(-16.013 -55.883)" fill="#263238"/>
            <path id="Trazado_600770" data-name="Trazado 600770" d="M55.608,219.268a7.163,7.163,0,0,0-1.788.018c-.277.023-.544.018-.626-.158a1.416,1.416,0,0,1,.028-.84q.2-1.059.41-2.223a36.2,36.2,0,0,0,.775-5.756,36.134,36.134,0,0,0-1.236,5.681q-.2,1.166-.373,2.228a1.6,1.6,0,0,0,.061,1.093.7.7,0,0,0,.523.313,1.857,1.857,0,0,0,.474-.024,7.031,7.031,0,0,0,1.752-.331" transform="translate(-14.14 -56.397)" fill="#263238"/>
            <path id="Trazado_600771" data-name="Trazado 600771" d="M60.087,222.742c-.175.023.042,1.178-.79,2.187s-2.086,1.115-2.065,1.278c0,.076.317.173.839.088a2.931,2.931,0,0,0,1.736-1,2.546,2.546,0,0,0,.588-1.819c-.048-.491-.231-.753-.309-.731" transform="translate(-15.347 -59.73)" fill="#263238"/>
            <path id="Trazado_600772" data-name="Trazado 600772" d="M58.7,204c.16.27,1.2-.07,2.474-.157,1.276-.112,2.352.061,2.468-.23.05-.138-.178-.377-.638-.58a4.309,4.309,0,0,0-3.765.295c-.423.272-.611.543-.539.672" transform="translate(-15.738 -54.366)" fill="#263238"/>
            <path id="Trazado_600773" data-name="Trazado 600773" d="M45.058,207.009c.233.206.918-.184,1.8-.364.872-.211,1.658-.148,1.782-.433.052-.137-.111-.357-.481-.523a2.658,2.658,0,0,0-2.886.642c-.263.308-.318.576-.214.678" transform="translate(-12.069 -55.108)" fill="#263238"/>
            <path id="Trazado_600774" data-name="Trazado 600774" d="M76.231,212.59c.108-.074,4.491-2.313,5.241,2.45s-4.187,4.533-4.217,4.4-1.024-6.848-1.024-6.848" transform="translate(-20.442 -56.85)" fill="#ffbe9d"/>
            <path id="Trazado_600775" data-name="Trazado 600775" d="M79.156,217.949c.018-.018.092.045.242.087a.84.84,0,0,0,.623-.085,2.08,2.08,0,0,0,.659-1.992,2.763,2.763,0,0,0-.419-1.151.971.971,0,0,0-.725-.539.428.428,0,0,0-.454.3c-.042.143,0,.234-.021.246s-.115-.064-.108-.266a.533.533,0,0,1,.141-.328.632.632,0,0,1,.44-.194,1.181,1.181,0,0,1,.983.6,2.853,2.853,0,0,1,.5,1.282,2.18,2.18,0,0,1-.887,2.247.9.9,0,0,1-.779-.007c-.166-.094-.208-.2-.192-.208" transform="translate(-21.172 -57.394)" fill="#eb996e"/>
            <path id="Trazado_600776" data-name="Trazado 600776" d="M45.166,194.915c-.835-.311,1.11-3.155,2.88-4.3,2.673-1.726,6.933-3.177,9.687-2.82,3.317.43,6.2,1.621,8.224,4.281a18.962,18.962,0,0,1,3.527,9.266,5.762,5.762,0,0,1-.239,3.014c-.509,1.153-1.689,2.007-1.418,3.454a2.019,2.019,0,0,1-.279,1.53c-.735,1.058-1.932.344-2.553-.457-1.326-1.713-1.774-3.926-2.184-6.052a14.113,14.113,0,0,1-.372-4.581c.116-.83.379-1.636.448-2.471a2.893,2.893,0,0,0-.692-2.331,3.017,3.017,0,0,0-.445-.334,5.03,5.03,0,0,0-5.075-.207c-2.545,1.35-6.921,3.449-8.254,2.716a7.43,7.43,0,0,1-2.458-1.849Z" transform="translate(-12.058 -50.345)" fill="#263238"/>
          </g>
        </g>
      </g>
    </g>
  </g>
</svg>
