<svg xmlns="http://www.w3.org/2000/svg" width="1031.084" height="131.901" viewBox="0 0 1031.084 131.901">
  <g id="Grupo_886447" data-name="Grupo 886447" transform="translate(-284.5 -4174)">
    <path id="Trazado_601911" data-name="Trazado 601911" d="M37.656,12.992V17H35.313V5.625H39.75A5.134,5.134,0,0,1,42,6.094a3.454,3.454,0,0,1,1.5,1.332,3.714,3.714,0,0,1,.523,1.965,3.266,3.266,0,0,1-1.145,2.637,4.767,4.767,0,0,1-3.168.965Zm0-1.9H39.75a2.059,2.059,0,0,0,1.418-.437,1.591,1.591,0,0,0,.488-1.25,1.876,1.876,0,0,0-.492-1.352A1.839,1.839,0,0,0,39.8,7.523H37.656Zm12.578-.43a6.134,6.134,0,0,0-.812-.062,1.654,1.654,0,0,0-1.68.867V17H45.484V8.547h2.133l.063,1.008a2.092,2.092,0,0,1,1.883-1.164,2.366,2.366,0,0,1,.7.1Zm4.977,6.492a4.15,4.15,0,0,1-3.027-1.141,4.054,4.054,0,0,1-1.168-3.039v-.219a5.106,5.106,0,0,1,.492-2.277A3.612,3.612,0,0,1,52.9,8.934a3.914,3.914,0,0,1,2.059-.543,3.508,3.508,0,0,1,2.73,1.094,4.444,4.444,0,0,1,1,3.1v.922H53.3a2.1,2.1,0,0,0,.66,1.328,2,2,0,0,0,1.395.5,2.437,2.437,0,0,0,2.039-.945l1.109,1.242a3.389,3.389,0,0,1-1.375,1.121A4.511,4.511,0,0,1,55.211,17.156Zm-.258-6.945a1.411,1.411,0,0,0-1.09.455,2.357,2.357,0,0,0-.535,1.3h3.141v-.181a1.681,1.681,0,0,0-.406-1.165A1.456,1.456,0,0,0,54.953,10.211Zm12.625,2.641a5.07,5.07,0,0,1-.887,3.129A2.843,2.843,0,0,1,64.3,17.156a2.633,2.633,0,0,1-2.07-.891V20.25H59.969V8.547h2.094l.078.828a2.654,2.654,0,0,1,2.141-.984,2.862,2.862,0,0,1,2.43,1.156,5.207,5.207,0,0,1,.867,3.188Zm-2.258-.164a3.327,3.327,0,0,0-.418-1.82,1.361,1.361,0,0,0-1.215-.641,1.479,1.479,0,0,0-1.461.813V14.5a1.5,1.5,0,0,0,1.477.836Q65.32,15.336,65.32,12.688ZM73.875,17a2.507,2.507,0,0,1-.227-.758,2.732,2.732,0,0,1-2.133.914,3,3,0,0,1-2.059-.719,2.312,2.312,0,0,1-.816-1.812,2.389,2.389,0,0,1,1-2.062,4.915,4.915,0,0,1,2.879-.727h1.039v-.484a1.393,1.393,0,0,0-.3-.937,1.183,1.183,0,0,0-.949-.352,1.345,1.345,0,0,0-.895.273.929.929,0,0,0-.324.75H68.828a2.268,2.268,0,0,1,.453-1.359,3,3,0,0,1,1.281-.98,4.669,4.669,0,0,1,1.859-.355,3.689,3.689,0,0,1,2.48.785,2.747,2.747,0,0,1,.918,2.207v3.664a4.041,4.041,0,0,0,.336,1.82V17Zm-1.867-1.57a1.945,1.945,0,0,0,.922-.223,1.462,1.462,0,0,0,.625-.6V13.156h-.844q-1.7,0-1.8,1.172l-.008.133a.9.9,0,0,0,.3.7A1.153,1.153,0,0,0,72.008,15.43Zm10.3-4.766a6.134,6.134,0,0,0-.812-.062,1.654,1.654,0,0,0-1.68.867V17H77.555V8.547h2.133l.063,1.008a2.092,2.092,0,0,1,1.883-1.164,2.366,2.366,0,0,1,.7.1ZM88.055,17a2.507,2.507,0,0,1-.227-.758,2.732,2.732,0,0,1-2.133.914,3,3,0,0,1-2.059-.719,2.312,2.312,0,0,1-.816-1.812,2.389,2.389,0,0,1,1-2.062,4.915,4.915,0,0,1,2.879-.727h1.039v-.484a1.393,1.393,0,0,0-.3-.937,1.183,1.183,0,0,0-.949-.352,1.345,1.345,0,0,0-.895.273.929.929,0,0,0-.324.75H83.008a2.268,2.268,0,0,1,.453-1.359,3,3,0,0,1,1.281-.98A4.669,4.669,0,0,1,86.6,8.391a3.689,3.689,0,0,1,2.48.785A2.747,2.747,0,0,1,90,11.383v3.664a4.041,4.041,0,0,0,.336,1.82V17Zm-1.867-1.57a1.945,1.945,0,0,0,.922-.223,1.462,1.462,0,0,0,.625-.6V13.156h-.844q-1.7,0-1.8,1.172l-.008.133a.9.9,0,0,0,.3.7A1.153,1.153,0,0,0,86.188,15.43Zm10.3-4.766a6.134,6.134,0,0,0-.812-.062,1.654,1.654,0,0,0-1.68.867V17H91.734V8.547h2.133l.063,1.008a2.092,2.092,0,0,1,1.883-1.164,2.366,2.366,0,0,1,.7.1Z" transform="translate(306 4249)" fill="#12263f"/>
    <path id="Trazado_601910" data-name="Trazado 601910" d="M22.044,17H19.7V5.625h2.344Zm4.1-8.453.07.977a2.951,2.951,0,0,1,2.43-1.133,2.453,2.453,0,0,1,2,.789,3.682,3.682,0,0,1,.672,2.359V17H29.06V11.594a1.465,1.465,0,0,0-.312-1.043,1.4,1.4,0,0,0-1.039-.324,1.553,1.553,0,0,0-1.43.813V17H24.021V8.547Zm9.586-2.078V8.547h1.445V10.2H35.732v4.219a1.007,1.007,0,0,0,.18.672.9.9,0,0,0,.688.2,3.6,3.6,0,0,0,.664-.055v1.711a4.648,4.648,0,0,1-1.367.2,2.156,2.156,0,0,1-2.422-2.4V10.2H32.24V8.547h1.234V6.469Zm6.594,10.688A4.15,4.15,0,0,1,39.3,16.016a4.054,4.054,0,0,1-1.168-3.039v-.219a5.106,5.106,0,0,1,.492-2.277,3.612,3.612,0,0,1,1.395-1.547,3.914,3.914,0,0,1,2.059-.543,3.508,3.508,0,0,1,2.73,1.094,4.444,4.444,0,0,1,1,3.1v.922H40.419a2.1,2.1,0,0,0,.66,1.328,2,2,0,0,0,1.395.5,2.437,2.437,0,0,0,2.039-.945l1.109,1.242a3.389,3.389,0,0,1-1.375,1.121A4.511,4.511,0,0,1,42.325,17.156Zm-.258-6.945a1.411,1.411,0,0,0-1.09.455,2.357,2.357,0,0,0-.535,1.3h3.141v-.181a1.681,1.681,0,0,0-.406-1.165A1.456,1.456,0,0,0,42.068,10.211Zm9.766.453a6.134,6.134,0,0,0-.812-.062,1.654,1.654,0,0,0-1.68.867V17H47.083V8.547h2.133l.063,1.008a2.092,2.092,0,0,1,1.883-1.164,2.366,2.366,0,0,1,.7.1Zm4.453,4.672a1.481,1.481,0,0,0,1.016-.344,1.2,1.2,0,0,0,.406-.914h2.117a2.9,2.9,0,0,1-.469,1.574,3.093,3.093,0,0,1-1.262,1.109,3.949,3.949,0,0,1-1.77.395A3.67,3.67,0,0,1,53.466,16a4.56,4.56,0,0,1-1.047-3.184v-.148a4.508,4.508,0,0,1,1.039-3.117A3.627,3.627,0,0,1,56.31,8.391a3.555,3.555,0,0,1,2.543.9,3.2,3.2,0,0,1,.973,2.4H57.708a1.551,1.551,0,0,0-.406-1.072,1.51,1.51,0,0,0-2.223.163,3.333,3.333,0,0,0-.4,1.866v.235a3.375,3.375,0,0,0,.4,1.878A1.377,1.377,0,0,0,56.286,15.336ZM66.013,17a2.507,2.507,0,0,1-.227-.758,2.732,2.732,0,0,1-2.133.914,3,3,0,0,1-2.059-.719,2.312,2.312,0,0,1-.816-1.812,2.389,2.389,0,0,1,1-2.062,4.915,4.915,0,0,1,2.879-.727h1.039v-.484a1.393,1.393,0,0,0-.3-.937,1.183,1.183,0,0,0-.949-.352,1.345,1.345,0,0,0-.895.273.929.929,0,0,0-.324.75H60.966a2.268,2.268,0,0,1,.453-1.359,3,3,0,0,1,1.281-.98,4.669,4.669,0,0,1,1.859-.355,3.689,3.689,0,0,1,2.48.785,2.747,2.747,0,0,1,.918,2.207v3.664a4.041,4.041,0,0,0,.336,1.82V17Zm-1.867-1.57a1.945,1.945,0,0,0,.922-.223,1.462,1.462,0,0,0,.625-.6V13.156h-.844q-1.7,0-1.8,1.172l-.008.133a.9.9,0,0,0,.3.7A1.153,1.153,0,0,0,64.146,15.43ZM71.81,8.547l.07.945a2.971,2.971,0,0,1,2.43-1.1A2.255,2.255,0,0,1,76.552,9.68a2.9,2.9,0,0,1,2.539-1.289,2.521,2.521,0,0,1,2.047.8,3.681,3.681,0,0,1,.672,2.41V17H79.544V11.609a1.61,1.61,0,0,0-.281-1.051,1.246,1.246,0,0,0-.992-.332,1.409,1.409,0,0,0-1.406.969l.008,5.8H74.615V11.617a1.59,1.59,0,0,0-.289-1.062,1.259,1.259,0,0,0-.984-.328,1.463,1.463,0,0,0-1.391.8V17H69.693V8.547Zm19.352,4.3a5.119,5.119,0,0,1-.867,3.168,2.872,2.872,0,0,1-2.422,1.137,2.639,2.639,0,0,1-2.2-1.055l-.1.9H83.544V5H85.8V9.3a2.571,2.571,0,0,1,2.055-.914,2.9,2.9,0,0,1,2.426,1.137,5.126,5.126,0,0,1,.879,3.2ZM88.9,12.688a3.363,3.363,0,0,0-.406-1.871,1.374,1.374,0,0,0-1.211-.59,1.489,1.489,0,0,0-1.484.883v3.336a1.509,1.509,0,0,0,1.5.891,1.394,1.394,0,0,0,1.438-1.078A5.562,5.562,0,0,0,88.9,12.688ZM94.935,17H92.669V8.547h2.266Zm-2.4-10.641a1.112,1.112,0,0,1,.34-.836,1.465,1.465,0,0,1,1.848,0,1.105,1.105,0,0,1,.344.836,1.108,1.108,0,0,1-.348.844,1.448,1.448,0,0,1-1.836,0A1.108,1.108,0,0,1,92.536,6.359ZM96.443,12.7a5.013,5.013,0,0,1,.484-2.242A3.546,3.546,0,0,1,98.322,8.93a4.069,4.069,0,0,1,2.113-.539,3.849,3.849,0,0,1,2.793,1.047,4.2,4.2,0,0,1,1.207,2.844l.016.578a4.418,4.418,0,0,1-1.086,3.121,4.209,4.209,0,0,1-5.832,0,4.5,4.5,0,0,1-1.09-3.187Zm2.258.16a3.16,3.16,0,0,0,.453,1.843,1.628,1.628,0,0,0,2.578.008,3.457,3.457,0,0,0,.461-2.015,3.128,3.128,0,0,0-.461-1.831,1.5,1.5,0,0,0-1.3-.649,1.474,1.474,0,0,0-1.281.646A3.516,3.516,0,0,0,98.7,12.856Zm10.773-.145a5.094,5.094,0,0,1,.887-3.148,2.877,2.877,0,0,1,2.426-1.172,2.589,2.589,0,0,1,2.039.922V5h2.266V17h-2.039l-.109-.9a2.657,2.657,0,0,1-2.172,1.055,2.869,2.869,0,0,1-2.395-1.176A5.258,5.258,0,0,1,109.474,12.711Zm2.258.168a3.337,3.337,0,0,0,.414,1.823,1.349,1.349,0,0,0,1.2.634,1.511,1.511,0,0,0,1.477-.884V11.111a1.489,1.489,0,0,0-1.461-.884Q111.732,10.227,111.732,12.879Zm11,4.277a4.15,4.15,0,0,1-3.027-1.141,4.054,4.054,0,0,1-1.168-3.039v-.219a5.106,5.106,0,0,1,.492-2.277,3.612,3.612,0,0,1,1.395-1.547,3.914,3.914,0,0,1,2.059-.543,3.508,3.508,0,0,1,2.73,1.094,4.444,4.444,0,0,1,1,3.1v.922h-5.383a2.1,2.1,0,0,0,.66,1.328,2,2,0,0,0,1.395.5,2.437,2.437,0,0,0,2.039-.945l1.109,1.242a3.389,3.389,0,0,1-1.375,1.121A4.511,4.511,0,0,1,122.732,17.156Zm-.258-6.945a1.411,1.411,0,0,0-1.09.455,2.357,2.357,0,0,0-.535,1.3h3.141v-.181a1.681,1.681,0,0,0-.406-1.165A1.456,1.456,0,0,0,122.474,10.211ZM32.407,37H30.142V28.547h2.266Zm-2.4-10.641a1.112,1.112,0,0,1,.34-.836,1.465,1.465,0,0,1,1.848,0,1.193,1.193,0,0,1,0,1.68,1.448,1.448,0,0,1-1.836,0A1.108,1.108,0,0,1,30.009,26.359Zm6.336,2.188.07.977a2.951,2.951,0,0,1,2.43-1.133,2.453,2.453,0,0,1,2,.789,3.682,3.682,0,0,1,.672,2.359V37H39.259V31.594a1.465,1.465,0,0,0-.312-1.043,1.4,1.4,0,0,0-1.039-.324,1.553,1.553,0,0,0-1.43.813V37H34.22V28.547ZM43.845,37V30.2H42.587V28.547h1.258v-.719a2.918,2.918,0,0,1,.816-2.207,3.162,3.162,0,0,1,2.285-.785,5.278,5.278,0,0,1,1.148.156l-.023,1.75a2.878,2.878,0,0,0-.687-.07q-1.273,0-1.273,1.2v.68h1.68V30.2h-1.68V37Zm4.766-4.3a5.013,5.013,0,0,1,.484-2.242A3.546,3.546,0,0,1,50.49,28.93a4.069,4.069,0,0,1,2.113-.539A3.849,3.849,0,0,1,55.4,29.438,4.2,4.2,0,0,1,56.6,32.281l.016.578a4.418,4.418,0,0,1-1.086,3.121,4.209,4.209,0,0,1-5.832,0,4.5,4.5,0,0,1-1.09-3.187Zm2.258.16a3.16,3.16,0,0,0,.453,1.843,1.628,1.628,0,0,0,2.578.008,3.457,3.457,0,0,0,.461-2.015A3.128,3.128,0,0,0,53.9,30.86a1.5,1.5,0,0,0-1.3-.649,1.474,1.474,0,0,0-1.281.646A3.516,3.516,0,0,0,50.868,32.856Zm11.891-2.192a6.134,6.134,0,0,0-.812-.062,1.654,1.654,0,0,0-1.68.867V37H58.009V28.547h2.133l.063,1.008a2.092,2.092,0,0,1,1.883-1.164,2.366,2.366,0,0,1,.7.1Zm3.2-2.117.07.945a2.971,2.971,0,0,1,2.43-1.1A2.255,2.255,0,0,1,70.7,29.68a2.9,2.9,0,0,1,2.539-1.289,2.521,2.521,0,0,1,2.047.8,3.681,3.681,0,0,1,.672,2.41V37H73.7V31.609a1.61,1.61,0,0,0-.281-1.051,1.246,1.246,0,0,0-.992-.332,1.409,1.409,0,0,0-1.406.969l.008,5.8H68.767V31.617a1.59,1.59,0,0,0-.289-1.062,1.259,1.259,0,0,0-.984-.328,1.463,1.463,0,0,0-1.391.8V37H63.845V28.547ZM82.595,37a2.507,2.507,0,0,1-.227-.758,2.732,2.732,0,0,1-2.133.914,3,3,0,0,1-2.059-.719,2.312,2.312,0,0,1-.816-1.812,2.389,2.389,0,0,1,1-2.062,4.915,4.915,0,0,1,2.879-.727h1.039v-.484a1.393,1.393,0,0,0-.3-.937,1.183,1.183,0,0,0-.949-.352,1.345,1.345,0,0,0-.895.273.929.929,0,0,0-.324.75H77.548A2.268,2.268,0,0,1,78,29.727a3,3,0,0,1,1.281-.98,4.669,4.669,0,0,1,1.859-.355,3.689,3.689,0,0,1,2.48.785,2.747,2.747,0,0,1,.918,2.207v3.664a4.041,4.041,0,0,0,.336,1.82V37Zm-1.867-1.57a1.945,1.945,0,0,0,.922-.223,1.462,1.462,0,0,0,.625-.6V33.156h-.844q-1.7,0-1.8,1.172l-.008.133a.9.9,0,0,0,.3.7A1.153,1.153,0,0,0,80.728,35.43Zm9.063-.094a1.481,1.481,0,0,0,1.016-.344,1.2,1.2,0,0,0,.406-.914h2.117a2.9,2.9,0,0,1-.469,1.574A3.093,3.093,0,0,1,91.6,36.762a3.949,3.949,0,0,1-1.77.395A3.67,3.67,0,0,1,86.97,36a4.56,4.56,0,0,1-1.047-3.184v-.148a4.508,4.508,0,0,1,1.039-3.117,3.627,3.627,0,0,1,2.852-1.164,3.555,3.555,0,0,1,2.543.9,3.2,3.2,0,0,1,.973,2.4H91.212a1.551,1.551,0,0,0-.406-1.072,1.51,1.51,0,0,0-2.223.163,3.333,3.333,0,0,0-.4,1.866v.235a3.375,3.375,0,0,0,.4,1.878A1.377,1.377,0,0,0,89.79,35.336ZM97,37H94.736V28.547H97ZM94.6,26.359a1.112,1.112,0,0,1,.34-.836,1.465,1.465,0,0,1,1.848,0,1.193,1.193,0,0,1,0,1.68,1.448,1.448,0,0,1-1.836,0A1.108,1.108,0,0,1,94.6,26.359ZM98.509,32.7a5.013,5.013,0,0,1,.484-2.242,3.546,3.546,0,0,1,1.395-1.523,4.069,4.069,0,0,1,2.113-.539,3.849,3.849,0,0,1,2.793,1.047,4.2,4.2,0,0,1,1.207,2.844l.016.578a4.418,4.418,0,0,1-1.086,3.121,4.209,4.209,0,0,1-5.832,0,4.5,4.5,0,0,1-1.09-3.187Zm2.258.16a3.16,3.16,0,0,0,.453,1.843,1.628,1.628,0,0,0,2.578.008,3.457,3.457,0,0,0,.461-2.015,3.128,3.128,0,0,0-.461-1.831,1.5,1.5,0,0,0-1.3-.649,1.474,1.474,0,0,0-1.281.646A3.516,3.516,0,0,0,100.767,32.856ZM102.947,25h2.461l-2.164,2.422h-1.836Zm7.039,3.547.07.977a2.951,2.951,0,0,1,2.43-1.133,2.453,2.453,0,0,1,2,.789,3.682,3.682,0,0,1,.672,2.359V37H112.9V31.594a1.465,1.465,0,0,0-.312-1.043,1.4,1.4,0,0,0-1.039-.324,1.553,1.553,0,0,0-1.43.813V37h-2.258V28.547Z" transform="translate(511 4249)" fill="#12263f"/>
    <path id="Trazado_601909" data-name="Trazado 601909" d="M49.109,11.57a6.867,6.867,0,0,1-.594,2.945,4.472,4.472,0,0,1-1.7,1.953,5.021,5.021,0,0,1-5.059.008,4.515,4.515,0,0,1-1.719-1.941,6.67,6.67,0,0,1-.617-2.9V11.07a6.831,6.831,0,0,1,.605-2.957,4.508,4.508,0,0,1,1.711-1.961,5.014,5.014,0,0,1,5.055,0A4.508,4.508,0,0,1,48.5,8.113a6.811,6.811,0,0,1,.605,2.949Zm-2.375-.516a4.787,4.787,0,0,0-.641-2.719,2.263,2.263,0,0,0-3.648-.012,4.732,4.732,0,0,0-.648,2.691v.555a4.847,4.847,0,0,0,.641,2.7,2.243,2.243,0,0,0,3.656.035,4.819,4.819,0,0,0,.641-2.7Zm11.539,1.8a5.07,5.07,0,0,1-.887,3.129,2.843,2.843,0,0,1-2.395,1.176,2.633,2.633,0,0,1-2.07-.891V20.25H50.664V8.547h2.094l.078.828a2.654,2.654,0,0,1,2.141-.984,2.862,2.862,0,0,1,2.43,1.156,5.207,5.207,0,0,1,.867,3.188Zm-2.258-.164a3.327,3.327,0,0,0-.418-1.82,1.361,1.361,0,0,0-1.215-.641,1.479,1.479,0,0,0-1.461.813V14.5a1.5,1.5,0,0,0,1.477.836Q56.016,15.336,56.016,12.688Zm3.3.008a5.013,5.013,0,0,1,.484-2.242A3.546,3.546,0,0,1,61.2,8.93a4.069,4.069,0,0,1,2.113-.539,3.849,3.849,0,0,1,2.793,1.047,4.2,4.2,0,0,1,1.207,2.844l.016.578a4.418,4.418,0,0,1-1.086,3.121,4.209,4.209,0,0,1-5.832,0A4.5,4.5,0,0,1,59.32,12.8Zm2.258.16a3.16,3.16,0,0,0,.453,1.843,1.628,1.628,0,0,0,2.578.008,3.457,3.457,0,0,0,.461-2.015,3.128,3.128,0,0,0-.461-1.831,1.5,1.5,0,0,0-1.3-.649,1.474,1.474,0,0,0-1.281.646A3.516,3.516,0,0,0,61.578,12.856Zm11.891-2.192a6.134,6.134,0,0,0-.812-.062,1.654,1.654,0,0,0-1.68.867V17H68.719V8.547h2.133l.063,1.008A2.092,2.092,0,0,1,72.8,8.391a2.366,2.366,0,0,1,.7.1Zm4.18-4.2V8.547h1.445V10.2H77.648v4.219a1.007,1.007,0,0,0,.18.672.9.9,0,0,0,.688.2,3.6,3.6,0,0,0,.664-.055v1.711a4.648,4.648,0,0,1-1.367.2,2.156,2.156,0,0,1-2.422-2.4V10.2H74.156V8.547h1.234V6.469Zm7.766,9.672A2.831,2.831,0,0,1,83.1,17.156a2.67,2.67,0,0,1-2.074-.781,3.335,3.335,0,0,1-.73-2.289V8.547h2.258v5.467q0,1.322,1.2,1.322a1.63,1.63,0,0,0,1.578-.8V8.547H87.6V17H85.477Zm5.969-7.594.07.977a2.951,2.951,0,0,1,2.43-1.133,2.453,2.453,0,0,1,2,.789,3.682,3.682,0,0,1,.672,2.359V17H94.3V11.594a1.465,1.465,0,0,0-.312-1.043,1.4,1.4,0,0,0-1.039-.324,1.553,1.553,0,0,0-1.43.813V17H89.258V8.547ZM100.648,17H98.383V8.547h2.266ZM98.25,6.359a1.112,1.112,0,0,1,.34-.836,1.465,1.465,0,0,1,1.848,0,1.105,1.105,0,0,1,.344.836,1.108,1.108,0,0,1-.348.844,1.448,1.448,0,0,1-1.836,0A1.108,1.108,0,0,1,98.25,6.359Zm3.906,6.352a5.094,5.094,0,0,1,.887-3.148,2.877,2.877,0,0,1,2.426-1.172,2.589,2.589,0,0,1,2.039.922V5h2.266V17h-2.039l-.109-.9a2.657,2.657,0,0,1-2.172,1.055,2.869,2.869,0,0,1-2.395-1.176A5.258,5.258,0,0,1,102.156,12.711Zm2.258.168a3.337,3.337,0,0,0,.414,1.823,1.349,1.349,0,0,0,1.2.634,1.511,1.511,0,0,0,1.477-.884V11.111a1.489,1.489,0,0,0-1.461-.884Q104.414,10.227,104.414,12.879ZM116.422,17a2.507,2.507,0,0,1-.227-.758,2.732,2.732,0,0,1-2.133.914A3,3,0,0,1,112,16.438a2.312,2.312,0,0,1-.816-1.812,2.389,2.389,0,0,1,1-2.062,4.915,4.915,0,0,1,2.879-.727H116.1v-.484a1.393,1.393,0,0,0-.3-.937,1.183,1.183,0,0,0-.949-.352,1.345,1.345,0,0,0-.895.273.929.929,0,0,0-.324.75h-2.258a2.268,2.268,0,0,1,.453-1.359,3,3,0,0,1,1.281-.98,4.669,4.669,0,0,1,1.859-.355,3.689,3.689,0,0,1,2.48.785,2.747,2.747,0,0,1,.918,2.207v3.664a4.041,4.041,0,0,0,.336,1.82V17Zm-1.867-1.57a1.945,1.945,0,0,0,.922-.223,1.462,1.462,0,0,0,.625-.6V13.156h-.844q-1.7,0-1.8,1.172l-.008.133a.9.9,0,0,0,.3.7A1.153,1.153,0,0,0,114.555,15.43Zm5.2-2.719a5.094,5.094,0,0,1,.887-3.148,2.877,2.877,0,0,1,2.426-1.172,2.589,2.589,0,0,1,2.039.922V5h2.266V17h-2.039l-.109-.9a2.657,2.657,0,0,1-2.172,1.055,2.869,2.869,0,0,1-2.395-1.176A5.258,5.258,0,0,1,119.75,12.711Zm2.258.168a3.337,3.337,0,0,0,.414,1.823,1.349,1.349,0,0,0,1.2.634,1.511,1.511,0,0,0,1.477-.884V11.111a1.489,1.489,0,0,0-1.461-.884Q122.008,10.227,122.008,12.879Z" transform="translate(714 4259)" fill="#12263f"/>
    <path id="Trazado_601912" data-name="Trazado 601912" d="M55.4,13.211A4.025,4.025,0,0,1,54.043,16.1a4.76,4.76,0,0,1-3.223,1.055,4.28,4.28,0,0,1-3.441-1.473,6.038,6.038,0,0,1-1.254-4.043v-.7A6.819,6.819,0,0,1,46.7,8.055a4.332,4.332,0,0,1,1.652-1.918,5.164,5.164,0,0,1,5.668.387,4.326,4.326,0,0,1,1.391,2.961H53.07a2.376,2.376,0,0,0-.613-1.6,2.271,2.271,0,0,0-1.605-.5,1.991,1.991,0,0,0-1.754.84,4.707,4.707,0,0,0-.6,2.605V11.7a5.038,5.038,0,0,0,.559,2.7,1.954,1.954,0,0,0,1.762.852,2.314,2.314,0,0,0,1.621-.5,2.241,2.241,0,0,0,.613-1.535Zm1.039-.516a5.013,5.013,0,0,1,.484-2.242A3.546,3.546,0,0,1,58.316,8.93a4.069,4.069,0,0,1,2.113-.539,3.849,3.849,0,0,1,2.793,1.047,4.2,4.2,0,0,1,1.207,2.844l.016.578a4.418,4.418,0,0,1-1.086,3.121,4.209,4.209,0,0,1-5.832,0,4.5,4.5,0,0,1-1.09-3.187Zm2.258.16a3.16,3.16,0,0,0,.453,1.843,1.628,1.628,0,0,0,2.578.008,3.457,3.457,0,0,0,.461-2.015,3.128,3.128,0,0,0-.461-1.831,1.5,1.5,0,0,0-1.3-.649,1.474,1.474,0,0,0-1.281.646A3.516,3.516,0,0,0,58.7,12.856Zm9.219-4.309.07.977a2.951,2.951,0,0,1,2.43-1.133,2.453,2.453,0,0,1,2,.789,3.682,3.682,0,0,1,.672,2.359V17H70.828V11.594a1.465,1.465,0,0,0-.312-1.043,1.4,1.4,0,0,0-1.039-.324,1.553,1.553,0,0,0-1.43.813V17H65.789V8.547Zm10.4,6.789a1.481,1.481,0,0,0,1.016-.344,1.2,1.2,0,0,0,.406-.914h2.117a2.9,2.9,0,0,1-.469,1.574,3.093,3.093,0,0,1-1.262,1.109,3.949,3.949,0,0,1-1.77.395A3.67,3.67,0,0,1,75.492,16a4.56,4.56,0,0,1-1.047-3.184v-.148a4.508,4.508,0,0,1,1.039-3.117,3.627,3.627,0,0,1,2.852-1.164,3.555,3.555,0,0,1,2.543.9,3.2,3.2,0,0,1,.973,2.4H79.734a1.551,1.551,0,0,0-.406-1.072,1.51,1.51,0,0,0-2.223.163,3.333,3.333,0,0,0-.4,1.866v.235a3.375,3.375,0,0,0,.4,1.878A1.377,1.377,0,0,0,78.313,15.336ZM85.523,17H83.258V5h2.266Zm6.922-.859a2.831,2.831,0,0,1-2.312,1.016,2.67,2.67,0,0,1-2.074-.781,3.335,3.335,0,0,1-.73-2.289V8.547h2.258v5.467q0,1.322,1.2,1.322a1.63,1.63,0,0,0,1.578-.8V8.547h2.266V17H92.508ZM98.719,17H96.453V8.547h2.266ZM96.32,6.359a1.112,1.112,0,0,1,.34-.836,1.465,1.465,0,0,1,1.848,0,1.105,1.105,0,0,1,.344.836A1.108,1.108,0,0,1,98.5,7.2a1.448,1.448,0,0,1-1.836,0A1.108,1.108,0,0,1,96.32,6.359Zm9.008,4.3a6.134,6.134,0,0,0-.812-.062,1.654,1.654,0,0,0-1.68.867V17h-2.258V8.547h2.133l.063,1.008a2.092,2.092,0,0,1,1.883-1.164,2.366,2.366,0,0,1,.7.1Z" transform="translate(940 4245.4)" fill="#12263f"/>
    <path id="Trazado_601913" data-name="Trazado 601913" d="M49.9,12.07H45.4v3.047H50.68V17H43.055V5.625h7.609v1.9H45.4v2.711h4.5Zm4.4-3.523v8.914a3.024,3.024,0,0,1-.742,2.176,2.821,2.821,0,0,1-2.141.777,4.591,4.591,0,0,1-1.117-.133V18.492a4.238,4.238,0,0,0,.711.07q1.023,0,1.023-1.086V8.547ZM51.852,6.359a1.112,1.112,0,0,1,.34-.836,1.47,1.47,0,0,1,1.852,0,1.112,1.112,0,0,1,.34.836,1.108,1.108,0,0,1-.348.844,1.448,1.448,0,0,1-1.836,0A1.108,1.108,0,0,1,51.852,6.359Zm8.1,10.8a4.15,4.15,0,0,1-3.027-1.141,4.054,4.054,0,0,1-1.168-3.039v-.219a5.106,5.106,0,0,1,.492-2.277,3.612,3.612,0,0,1,1.395-1.547A3.914,3.914,0,0,1,59.7,8.391a3.508,3.508,0,0,1,2.73,1.094,4.444,4.444,0,0,1,1,3.1v.922H58.047a2.1,2.1,0,0,0,.66,1.328,2,2,0,0,0,1.395.5,2.437,2.437,0,0,0,2.039-.945l1.109,1.242a3.389,3.389,0,0,1-1.375,1.121A4.511,4.511,0,0,1,59.953,17.156ZM59.7,10.211a1.411,1.411,0,0,0-1.09.455,2.357,2.357,0,0,0-.535,1.3h3.141v-.181a1.681,1.681,0,0,0-.406-1.165A1.456,1.456,0,0,0,59.7,10.211Zm8.531,5.125a1.481,1.481,0,0,0,1.016-.344,1.2,1.2,0,0,0,.406-.914h2.117a2.9,2.9,0,0,1-.469,1.574,3.093,3.093,0,0,1-1.262,1.109,3.949,3.949,0,0,1-1.77.395A3.67,3.67,0,0,1,65.406,16a4.56,4.56,0,0,1-1.047-3.184v-.148A4.508,4.508,0,0,1,65.4,9.555,3.627,3.627,0,0,1,68.25,8.391a3.555,3.555,0,0,1,2.543.9,3.2,3.2,0,0,1,.973,2.4H69.648a1.551,1.551,0,0,0-.406-1.072,1.51,1.51,0,0,0-2.223.163,3.333,3.333,0,0,0-.4,1.866v.235a3.375,3.375,0,0,0,.4,1.878A1.377,1.377,0,0,0,68.227,15.336Zm9.891.8A2.831,2.831,0,0,1,75.8,17.156a2.67,2.67,0,0,1-2.074-.781A3.335,3.335,0,0,1,73,14.086V8.547h2.258v5.467q0,1.322,1.2,1.322a1.63,1.63,0,0,0,1.578-.8V8.547H80.3V17H78.18Zm6.594-9.672V8.547h1.445V10.2H84.711v4.219a1.007,1.007,0,0,0,.18.672.9.9,0,0,0,.688.2,3.6,3.6,0,0,0,.664-.055v1.711a4.648,4.648,0,0,1-1.367.2,2.156,2.156,0,0,1-2.422-2.4V10.2H81.219V8.547h1.234V6.469ZM92.313,17a2.507,2.507,0,0,1-.227-.758,2.732,2.732,0,0,1-2.133.914,3,3,0,0,1-2.059-.719,2.312,2.312,0,0,1-.816-1.812,2.389,2.389,0,0,1,1-2.062,4.915,4.915,0,0,1,2.879-.727h1.039v-.484a1.393,1.393,0,0,0-.3-.937,1.183,1.183,0,0,0-.949-.352,1.345,1.345,0,0,0-.895.273.929.929,0,0,0-.324.75H87.266a2.268,2.268,0,0,1,.453-1.359A3,3,0,0,1,89,8.746a4.669,4.669,0,0,1,1.859-.355,3.689,3.689,0,0,1,2.48.785,2.747,2.747,0,0,1,.918,2.207v3.664a4.041,4.041,0,0,0,.336,1.82V17Zm-1.867-1.57a1.945,1.945,0,0,0,.922-.223,1.462,1.462,0,0,0,.625-.6V13.156h-.844q-1.7,0-1.8,1.172l-.008.133a.9.9,0,0,0,.3.7A1.153,1.153,0,0,0,90.445,15.43Zm10.3-4.766a6.134,6.134,0,0,0-.812-.062,1.654,1.654,0,0,0-1.68.867V17H95.992V8.547h2.133l.063,1.008a2.092,2.092,0,0,1,1.883-1.164,2.366,2.366,0,0,1,.7.1Z" transform="translate(1158 4245.4)" fill="#12263f"/>
    <path id="Trazado_217433" data-name="Trazado 217433" d="M102.8.5H16.541A16.041,16.041,0,0,0,.5,16.541V84.506a16.041,16.041,0,0,0,16.041,16.041h139a16.041,16.041,0,0,0,16.041-16.041V40.16h16.253" transform="translate(285 4204.354)" fill="none" stroke="#03386e" stroke-miterlimit="10" stroke-width="2"/>
    <path id="Trazado_217434" data-name="Trazado 217434" d="M102.8.5H16.541A16.041,16.041,0,0,0,.5,16.541V84.506a16.041,16.041,0,0,0,16.041,16.041h139a16.041,16.041,0,0,0,16.041-16.041V40.16h16.253" transform="translate(500 4204.354)" fill="none" stroke="#83c3b2" stroke-miterlimit="10" stroke-width="2"/>
    <path id="Trazado_217435" data-name="Trazado 217435" d="M102.8.5H16.541A16.041,16.041,0,0,0,.5,16.541V84.506a16.041,16.041,0,0,0,16.041,16.041h139a16.041,16.041,0,0,0,16.041-16.041V40.16h16.253" transform="translate(714 4204.354)" fill="none" stroke="#03386e" stroke-miterlimit="10" stroke-width="2"/>
    <path id="Trazado_217436" data-name="Trazado 217436" d="M102.8.5H16.541A16.041,16.041,0,0,0,.5,16.541V84.506a16.041,16.041,0,0,0,16.041,16.041h139a16.041,16.041,0,0,0,16.041-16.041V40.16h16.253" transform="translate(929 4204.354)" fill="none" stroke="#83c3b2" stroke-miterlimit="10" stroke-width="2"/>
    <path id="Trazado_217437" data-name="Trazado 217437" d="M102.8.5H16.541A16.041,16.041,0,0,0,.5,16.541V84.506a16.041,16.041,0,0,0,16.041,16.041h139a16.041,16.041,0,0,0,16.041-16.041V40.16" transform="translate(1143 4204.354)" fill="none" stroke="#03386e" stroke-miterlimit="10" stroke-width="2"/>
    <g id="Grupo_871611" data-name="Grupo 871611" transform="translate(468.69 4233.359)">
      <path id="Trazado_213857" data-name="Trazado 213857" d="M14.846,0,12.184,2.661,20.026,10.5l-7.842,7.843,2.662,2.661,10.5-10.5Z" transform="translate(-5.633 0)" fill="#03386e"/>
      <path id="Trazado_213858" data-name="Trazado 213858" d="M0,9.581,4.122,13.7,0,17.824l2.661,2.661L9.445,13.7,2.661,6.92Z" transform="translate(0 -3.199)" fill="#03386e"/>
    </g>
    <g id="Grupo_871612" data-name="Grupo 871612" transform="translate(683.289 4233.359)">
      <path id="Trazado_213857-2" data-name="Trazado 213857" d="M14.846,0,12.184,2.661,20.026,10.5l-7.842,7.843,2.662,2.661,10.5-10.5Z" transform="translate(-5.633 0)" fill="#92bfb1"/>
      <path id="Trazado_213858-2" data-name="Trazado 213858" d="M0,9.581,4.122,13.7,0,17.824l2.661,2.661L9.445,13.7,2.661,6.92Z" transform="translate(0 -3.199)" fill="#92bfb1"/>
    </g>
    <g id="Grupo_871613" data-name="Grupo 871613" transform="translate(897.888 4233.359)">
      <path id="Trazado_213857-3" data-name="Trazado 213857" d="M14.846,0,12.184,2.661,20.026,10.5l-7.842,7.843,2.662,2.661,10.5-10.5Z" transform="translate(-5.633 0)" fill="#03386e"/>
      <path id="Trazado_213858-3" data-name="Trazado 213858" d="M0,9.581,4.122,13.7,0,17.824l2.661,2.661L9.445,13.7,2.661,6.92Z" transform="translate(0 -3.199)" fill="#03386e"/>
    </g>
    <g id="Grupo_871614" data-name="Grupo 871614" transform="translate(1112.486 4233.359)">
      <path id="Trazado_213857-4" data-name="Trazado 213857" d="M14.846,0,12.184,2.661,20.026,10.5l-7.842,7.843,2.662,2.661,10.5-10.5Z" transform="translate(-5.633 0)" fill="#92bfb1"/>
      <path id="Trazado_213858-4" data-name="Trazado 213858" d="M0,9.581,4.122,13.7,0,17.824l2.661,2.661L9.445,13.7,2.661,6.92Z" transform="translate(0 -3.199)" fill="#92bfb1"/>
    </g>
    <circle id="Elipse_4789" data-name="Elipse 4789" cx="31.5" cy="31.5" r="31.5" transform="translate(379 4174)" fill="#d8e2ec"/>
    <circle id="Elipse_4794" data-name="Elipse 4794" cx="31.5" cy="31.5" r="31.5" transform="translate(807 4174)" fill="#d8e2ec"/>
    <circle id="Elipse_4795" data-name="Elipse 4795" cx="31.5" cy="31.5" r="31.5" transform="translate(1237 4174)" fill="#d8e2ec"/>
    <circle id="Elipse_4792" data-name="Elipse 4792" cx="31.5" cy="31.5" r="31.5" transform="translate(1022 4174)" fill="#cde7d6"/>
    <g id="cheked" transform="translate(983.969 4186.4)">
      <g id="Grupo_871707" data-name="Grupo 871707" transform="translate(54.98)">
        <g id="Grupo_871706" data-name="Grupo 871706" transform="translate(0)">
          <path id="Trazado_217675" data-name="Trazado 217675" d="M84.728,6.542,78.988.8A2.724,2.724,0,0,0,77.05,0H57.025A2.048,2.048,0,0,0,54.98,2.045V36.861a2.048,2.048,0,0,0,2.045,2.045h26.46a2.048,2.048,0,0,0,2.045-2.045V8.481A2.724,2.724,0,0,0,84.728,6.542Zm-.5,30.319a.741.741,0,0,1-.74.74H57.025a.741.741,0,0,1-.74-.74V2.045a.741.741,0,0,1,.74-.74H77.05a1.427,1.427,0,0,1,1.016.421L83.8,7.466a1.452,1.452,0,0,1,.161.194H78.611a.741.741,0,0,1-.74-.74V3.438a.653.653,0,1,0-1.306,0V6.92a2.048,2.048,0,0,0,2.045,2.045h5.614v27.9Z" transform="translate(-54.98)"/>
        </g>
      </g>
      <g id="Grupo_871709" data-name="Grupo 871709" transform="translate(67.514 18.8)">
        <g id="Grupo_871708" data-name="Grupo 871708">
          <path id="Trazado_217676" data-name="Trazado 217676" d="M229.624,247.409h-9.052a.653.653,0,1,0,0,1.306h9.052a.653.653,0,1,0,0-1.306Z" transform="translate(-219.919 -247.409)"/>
        </g>
      </g>
      <g id="Grupo_871711" data-name="Grupo 871711" transform="translate(67.514 21.586)">
        <g id="Grupo_871710" data-name="Grupo 871710">
          <path id="Trazado_217677" data-name="Trazado 217677" d="M233.106,284.063H220.572a.653.653,0,1,0,0,1.306h12.534a.653.653,0,1,0,0-1.306Z" transform="translate(-219.919 -284.063)"/>
        </g>
      </g>
      <g id="Grupo_871713" data-name="Grupo 871713" transform="translate(67.514 9.748)">
        <g id="Grupo_871712" data-name="Grupo 871712" transform="translate(0)">
          <path id="Trazado_217678" data-name="Trazado 217678" d="M226.839,128.286h-6.267a.653.653,0,0,0,0,1.306h6.267a.653.653,0,0,0,0-1.306Z" transform="translate(-219.919 -128.286)"/>
        </g>
      </g>
      <g id="Grupo_871715" data-name="Grupo 871715" transform="translate(67.514 12.534)">
        <g id="Grupo_871714" data-name="Grupo 871714">
          <path id="Trazado_217679" data-name="Trazado 217679" d="M233.106,164.94H220.572a.653.653,0,0,0,0,1.306h12.534a.653.653,0,1,0,0-1.306Z" transform="translate(-219.919 -164.94)"/>
        </g>
      </g>
      <g id="Grupo_871717" data-name="Grupo 871717" transform="translate(59.158 26.46)">
        <g id="Grupo_871716" data-name="Grupo 871716" transform="translate(0)">
          <path id="Trazado_217680" data-name="Trazado 217680" d="M115.487,348.206h-4.178a1.351,1.351,0,0,0-1.349,1.349v4.178a1.351,1.351,0,0,0,1.349,1.349h4.178a1.351,1.351,0,0,0,1.349-1.349v-4.178A1.351,1.351,0,0,0,115.487,348.206Zm.043,5.527a.044.044,0,0,1-.044.044h-4.178a.044.044,0,0,1-.044-.044v-4.178a.044.044,0,0,1,.044-.044h4.178a.044.044,0,0,1,.044.044Z" transform="translate(-109.96 -348.206)"/>
        </g>
      </g>
      <g id="Grupo_871719" data-name="Grupo 871719" transform="translate(67.514 27.853)">
        <g id="Grupo_871718" data-name="Grupo 871718">
          <path id="Trazado_217681" data-name="Trazado 217681" d="M227.535,366.532h-6.963a.653.653,0,0,0,0,1.306h6.963a.653.653,0,1,0,0-1.306Z" transform="translate(-219.919 -366.532)"/>
        </g>
      </g>
      <g id="Grupo_871721" data-name="Grupo 871721" transform="translate(67.514 30.638)">
        <g id="Grupo_871720" data-name="Grupo 871720">
          <path id="Trazado_217682" data-name="Trazado 217682" d="M230.32,403.186h-9.748a.653.653,0,1,0,0,1.306h9.748a.653.653,0,1,0,0-1.306Z" transform="translate(-219.919 -403.186)"/>
        </g>
      </g>
      <g id="Grupo_871723" data-name="Grupo 871723" transform="translate(59.158 8.356)">
        <g id="Grupo_871722" data-name="Grupo 871722">
          <path id="Trazado_217683" data-name="Trazado 217683" d="M117.34,110.847a.653.653,0,0,0-.923,0l-2.324,2.324-.931-.931a.653.653,0,1,0-.923.923l1.393,1.393a.653.653,0,0,0,.923,0l.975-.975v1.906a.044.044,0,0,1-.044.044h-4.178a.044.044,0,0,1-.044-.044v-4.178a.044.044,0,0,1,.044-.044h2.785a.653.653,0,1,0,0-1.306h-2.785a1.351,1.351,0,0,0-1.349,1.349v4.178a1.351,1.351,0,0,0,1.349,1.349h4.178a1.351,1.351,0,0,0,1.349-1.349v-3.211l.505-.505A.653.653,0,0,0,117.34,110.847Z" transform="translate(-109.959 -109.959)"/>
        </g>
      </g>
      <g id="Grupo_871725" data-name="Grupo 871725" transform="translate(59.158 17.408)">
        <g id="Grupo_871724" data-name="Grupo 871724">
          <path id="Trazado_217684" data-name="Trazado 217684" d="M117.34,229.97a.653.653,0,0,0-.923,0l-2.324,2.324-.931-.931a.653.653,0,1,0-.923.923l1.393,1.393a.653.653,0,0,0,.923,0l.975-.975v1.906a.044.044,0,0,1-.044.044h-4.178a.044.044,0,0,1-.044-.044v-4.178a.044.044,0,0,1,.044-.044h2.785a.653.653,0,1,0,0-1.306h-2.785a1.351,1.351,0,0,0-1.349,1.349v4.178a1.351,1.351,0,0,0,1.349,1.349h4.178a1.351,1.351,0,0,0,1.349-1.349V231.4l.505-.505A.653.653,0,0,0,117.34,229.97Z" transform="translate(-109.959 -229.082)"/>
        </g>
      </g>
    </g>
    <g id="recursos-humanos" transform="translate(817.75 4185.844)">
      <g id="Grupo_871729" data-name="Grupo 871729" transform="translate(21.442 13.305)">
        <path id="Trazado_217704" data-name="Trazado 217704" d="M42.447,28.763a6.355,6.355,0,0,1-4.574-1.921.557.557,0,0,1-.117-.6,5.072,5.072,0,0,1,9.382.007.556.556,0,0,1-.119.6A6.369,6.369,0,0,1,42.447,28.763Zm-3.5-2.437a5.3,5.3,0,0,0,7,0,3.959,3.959,0,0,0-7,0Z" transform="translate(-37.714 -23.101)"/>
      </g>
      <g id="Grupo_871741" data-name="Grupo 871741" transform="translate(0.999 22.316)">
        <g id="Grupo_871740" data-name="Grupo 871740">
          <g id="Grupo_871739" data-name="Grupo 871739">
            <g id="Grupo_871736" data-name="Grupo 871736">
              <g id="Grupo_871734" data-name="Grupo 871734" transform="translate(6.165 1.305)">
                <g id="Grupo_871731" data-name="Grupo 871731">
                  <g id="Grupo_871730" data-name="Grupo 871730">
                    <path id="Trazado_217705" data-name="Trazado 217705" d="M24.394,49a2.526,2.526,0,0,1-.552-.061l-5.463-1.215a.557.557,0,0,1,.242-1.088l5.465,1.216a1.419,1.419,0,0,0,1.666-.958c.012-.052.02-.084.03-.116a1.418,1.418,0,0,0-.969-1.665L17.7,42.927a4.2,4.2,0,0,0-2.152-.084l-2.8.617a.557.557,0,1,1-.24-1.088l2.793-.616a5.325,5.325,0,0,1,2.721.107l7.117,2.187a2.539,2.539,0,0,1,1.715,3.025c-.021.084-.029.116-.038.148A2.54,2.54,0,0,1,24.394,49Z" transform="translate(-12.071 -41.628)"/>
                  </g>
                </g>
                <g id="Grupo_871733" data-name="Grupo 871733" transform="translate(0.001 1.665)">
                  <g id="Grupo_871732" data-name="Grupo 871732">
                    <path id="Trazado_217706" data-name="Trazado 217706" d="M23.726,57.083a7.2,7.2,0,0,1-2.116-.32l-8.492-2.61-.412.057a.557.557,0,1,1-.152-1.1l.534-.073a.549.549,0,0,1,.24.019L21.937,55.7a6.022,6.022,0,0,0,4.6-.428l14.458-7.6a1.023,1.023,0,0,0-.834-1.864L25.848,49.821a.557.557,0,0,1-.3-1.072l14.269-4a2.136,2.136,0,0,1,1.7,3.907l-14.458,7.6a7.134,7.134,0,0,1-3.329.828Z" transform="translate(-12.073 -44.619)"/>
                  </g>
                </g>
              </g>
              <g id="Grupo_871735" data-name="Grupo 871735">
                <path id="Trazado_217707" data-name="Trazado 217707" d="M5.772,54.036H1.556a.557.557,0,1,1,0-1.114H5.772a1.392,1.392,0,0,0,1.391-1.39V41.788A1.392,1.392,0,0,0,5.772,40.4H1.556a.557.557,0,1,1,0-1.114H5.772a2.507,2.507,0,0,1,2.5,2.5v9.744a2.507,2.507,0,0,1-2.5,2.5Z" transform="translate(-0.999 -39.284)"/>
              </g>
            </g>
            <g id="Grupo_871738" data-name="Grupo 871738" transform="translate(1.5 8.45)">
              <g id="Grupo_871737" data-name="Grupo 871737" transform="translate(0)">
                <path id="Trazado_217708" data-name="Trazado 217708" d="M5.455,57.986a1.764,1.764,0,1,1,1.687-1.246,1.758,1.758,0,0,1-1.687,1.246Zm0-2.414a.65.65,0,1,0,.19.029.643.643,0,0,0-.19-.029Z" transform="translate(-3.693 -54.459)"/>
              </g>
            </g>
          </g>
        </g>
      </g>
      <g id="Grupo_871744" data-name="Grupo 871744" transform="translate(14.628 0.997)">
        <g id="Grupo_871742" data-name="Grupo 871742">
          <path id="Trazado_217709" data-name="Trazado 217709" d="M38.816,24.1H35.231a.557.557,0,0,1-.525-.37l-.486-1.367-2.152-.892-1.311.623a.556.556,0,0,1-.633-.109L27.59,19.445a.557.557,0,0,1-.109-.633L28.1,17.5l-.892-2.152-1.367-.486a.557.557,0,0,1-.37-.525V10.754a.557.557,0,0,1,.37-.525l1.367-.486L28.1,7.591,27.481,6.28a.557.557,0,0,1,.109-.633l2.535-2.535A.557.557,0,0,1,30.757,3l1.311.623,2.152-.891.486-1.368A.557.557,0,0,1,35.231,1h3.585a.557.557,0,0,1,.525.37l.486,1.368,2.152.891L43.29,3a.554.554,0,0,1,.633.109c.747.747,2.093,2.072,2.093,2.072a.557.557,0,0,1,.16.477L45.908,7.5l.927,2.239,1.367.486a.557.557,0,0,1,.37.525v3.585a.557.557,0,0,1-.37.525l-1.367.486L45.944,17.5l.623,1.312a.556.556,0,0,1-.109.632L43.923,21.98a.557.557,0,0,1-.633.109l-1.311-.623-2.152.892-.486,1.367a.557.557,0,0,1-.525.37Zm-3.192-1.114h2.8l.437-1.23a.558.558,0,0,1,.312-.328l2.61-1.081a.557.557,0,0,1,.452.011l1.179.561,1.979-1.979-.561-1.179a.558.558,0,0,1-.011-.452L45.9,14.7a.556.556,0,0,1,.328-.312l1.23-.438v-2.8l-1.23-.438A.556.556,0,0,1,45.9,10.4L44.821,7.789a.559.559,0,0,1-.037-.294l.25-1.715c-.344-.339-1.061-1.047-1.62-1.6l-1.18.561a.559.559,0,0,1-.452.011l-2.609-1.08a.558.558,0,0,1-.312-.328l-.437-1.231h-2.8l-.437,1.231a.558.558,0,0,1-.312.328l-2.61,1.08a.557.557,0,0,1-.452-.011l-1.179-.561L28.655,6.157l.561,1.179a.558.558,0,0,1,.011.452L28.146,10.4a.556.556,0,0,1-.328.312l-1.23.438v2.8l1.23.438a.556.556,0,0,1,.328.312L29.227,17.3a.558.558,0,0,1-.011.452l-.561,1.179,1.979,1.979,1.179-.561a.555.555,0,0,1,.452-.011l2.61,1.081a.558.558,0,0,1,.312.328Z" transform="translate(-25.475 -0.997)"/>
        </g>
        <g id="Grupo_871743" data-name="Grupo 871743" transform="translate(5.128 5.13)">
          <path id="Trazado_217710" data-name="Trazado 217710" d="M41.1,23.051a6.42,6.42,0,1,1,6.42-6.42A6.428,6.428,0,0,1,41.1,23.051Zm0-11.726a5.306,5.306,0,1,0,5.307,5.306A5.312,5.312,0,0,0,41.1,11.325Z" transform="translate(-34.684 -10.211)"/>
        </g>
      </g>
      <g id="Grupo_871745" data-name="Grupo 871745" transform="translate(23.793 8.466)">
        <path id="Trazado_217711" data-name="Trazado 217711" d="M44.318,19.176A2.382,2.382,0,1,1,46.7,16.793,2.385,2.385,0,0,1,44.318,19.176Zm0-3.651a1.269,1.269,0,1,0,1.269,1.269A1.27,1.27,0,0,0,44.318,15.525Z" transform="translate(-41.935 -14.411)"/>
      </g>
    </g>
    <circle id="Elipse_4803" data-name="Elipse 4803" cx="31.5" cy="31.5" r="31.5" transform="translate(593 4174)" fill="#cde7d6"/>
    <g id="engranajes_1_" data-name="engranajes(1)" transform="translate(1249.466 4186.332)">
      <g id="Grupo_871727" data-name="Grupo 871727">
        <g id="Grupo_871726" data-name="Grupo 871726">
          <path id="Trazado_217685" data-name="Trazado 217685" d="M20.565,24.824a.633.633,0,0,0-.843-.3,10.074,10.074,0,0,1-1.6.6.632.632,0,0,0-.45.485L17,28.954a.711.711,0,0,1-.7.57H14.482a.711.711,0,0,1-.7-.57l-.669-3.346a.633.633,0,0,0-.45-.485,10.052,10.052,0,0,1-2.222-.921.633.633,0,0,0-.661.025L6.944,26.12a.711.711,0,0,1-.9-.089L4.758,24.74a.711.711,0,0,1-.089-.9l1.893-2.84a.632.632,0,0,0,.025-.661,10.049,10.049,0,0,1-.921-2.222.632.632,0,0,0-.485-.45L1.835,17a.711.711,0,0,1-.57-.7V14.482a.711.711,0,0,1,.57-.7l3.346-.669a.633.633,0,0,0,.485-.45,10.052,10.052,0,0,1,.921-2.222.633.633,0,0,0-.025-.661L4.67,6.944a.711.711,0,0,1,.089-.9L6.049,4.758a.711.711,0,0,1,.9-.089l2.84,1.893a.633.633,0,0,0,.661.025,10.052,10.052,0,0,1,2.222-.921.632.632,0,0,0,.45-.485l.669-3.346a.711.711,0,0,1,.7-.57h1.826a.711.711,0,0,1,.7.57l.669,3.346a.633.633,0,0,0,.45.485,10.052,10.052,0,0,1,2.222.921.633.633,0,0,0,.661-.025l2.84-1.893a.711.711,0,0,1,.9.089l1.291,1.291a.711.711,0,0,1,.089.9l-1.893,2.84a.632.632,0,0,0-.025.661,10.052,10.052,0,0,1,.921,2.222.632.632,0,0,0,.485.45l3.346.669a.711.711,0,0,1,.57.7v1.826a.711.711,0,0,1-.57.7l-3.346.669a.633.633,0,0,0-.485.45,10.07,10.07,0,0,1-.617,1.638.633.633,0,1,0,1.141.547,11.347,11.347,0,0,0,.582-1.469l2.973-.595a1.98,1.98,0,0,0,1.587-1.936V14.482A1.98,1.98,0,0,0,29.2,12.545l-2.973-.595a11.321,11.321,0,0,0-.738-1.782l1.682-2.523a1.98,1.98,0,0,0-.247-2.492L25.635,3.863a1.98,1.98,0,0,0-2.492-.247L20.62,5.3a11.328,11.328,0,0,0-1.782-.738l-.595-2.973A1.98,1.98,0,0,0,16.308,0H14.482a1.98,1.98,0,0,0-1.936,1.587L11.951,4.56a11.321,11.321,0,0,0-1.782.738L7.646,3.617a1.98,1.98,0,0,0-2.492.247L3.864,5.154a1.98,1.98,0,0,0-.247,2.492L5.3,10.169a11.325,11.325,0,0,0-.738,1.782l-2.973.595A1.98,1.98,0,0,0,0,14.482v1.826a1.98,1.98,0,0,0,1.587,1.936l2.973.595A11.32,11.32,0,0,0,5.3,20.62L3.617,23.143a1.98,1.98,0,0,0,.247,2.492l1.291,1.291a1.98,1.98,0,0,0,2.492.247l2.523-1.682a11.325,11.325,0,0,0,1.782.738l.595,2.973a1.98,1.98,0,0,0,1.936,1.587h1.826A1.98,1.98,0,0,0,18.244,29.2l.595-2.973a11.335,11.335,0,0,0,1.426-.562A.633.633,0,0,0,20.565,24.824Z"/>
          <path id="Trazado_217686" data-name="Trazado 217686" d="M141.479,116.471a.632.632,0,0,0,.852-.274,7.112,7.112,0,0,0-11.3-8.334.633.633,0,0,0,.883.906,5.847,5.847,0,0,1,9.286,6.85A.633.633,0,0,0,141.479,116.471Z" transform="translate(-120.604 -97.561)"/>
          <path id="Trazado_217687" data-name="Trazado 217687" d="M107.034,161.717a.633.633,0,0,0-.8.392,7.113,7.113,0,0,0,10.893,8.078.633.633,0,1,0-.742-1.025,5.849,5.849,0,0,1-8.955-6.642A.632.632,0,0,0,107.034,161.717Z" transform="translate(-97.562 -149.03)"/>
          <path id="Trazado_217688" data-name="Trazado 217688" d="M267.364,256.165l-1.829-.366a7.647,7.647,0,0,0-.4-.968l1.035-1.552a1.519,1.519,0,0,0-.189-1.911l-.848-.848a1.519,1.519,0,0,0-1.911-.189l-1.553,1.035a7.637,7.637,0,0,0-.968-.4l-.366-1.829a1.519,1.519,0,0,0-1.485-1.218h-1.2a1.519,1.519,0,0,0-1.485,1.218l-.366,1.829a7.663,7.663,0,0,0-.968.4l-1.553-1.035a1.519,1.519,0,0,0-1.911.189l-.848.848a1.519,1.519,0,0,0-.189,1.911l1.035,1.552a7.644,7.644,0,0,0-.517,1.344.633.633,0,0,0,1.219.341,6.385,6.385,0,0,1,.585-1.412.633.633,0,0,0-.025-.661l-1.244-1.866a.25.25,0,0,1,.031-.315l.848-.848a.25.25,0,0,1,.315-.031l1.866,1.244a.633.633,0,0,0,.661.025,6.385,6.385,0,0,1,1.412-.585.632.632,0,0,0,.45-.485l.44-2.2a.25.25,0,0,1,.244-.2h1.2a.25.25,0,0,1,.244.2l.44,2.2a.633.633,0,0,0,.45.485,6.385,6.385,0,0,1,1.412.585.633.633,0,0,0,.661-.025l1.866-1.244a.25.25,0,0,1,.315.031l.848.848a.25.25,0,0,1,.031.315l-1.244,1.866a.632.632,0,0,0-.025.661,6.387,6.387,0,0,1,.585,1.412.632.632,0,0,0,.485.45l2.2.44a.25.25,0,0,1,.2.244v1.2a.25.25,0,0,1-.2.244l-2.2.44a.633.633,0,0,0-.485.45,6.383,6.383,0,0,1-.585,1.412.633.633,0,0,0,.025.661l1.244,1.866a.25.25,0,0,1-.031.315l-.848.848a.25.25,0,0,1-.315.031l-1.866-1.244a.633.633,0,0,0-.661-.025,6.386,6.386,0,0,1-1.412.585.632.632,0,0,0-.45.485l-.44,2.2a.25.25,0,0,1-.244.2h-1.2a.25.25,0,0,1-.244-.2l-.44-2.2a.633.633,0,0,0-.45-.485,6.387,6.387,0,0,1-1.412-.585.633.633,0,0,0-.661.025l-1.866,1.244a.25.25,0,0,1-.315-.031l-.848-.848a.25.25,0,0,1-.031-.315l1.244-1.866a.632.632,0,0,0,.025-.661,6.385,6.385,0,0,1-.585-1.412.632.632,0,0,0-.485-.45l-2.2-.44a.25.25,0,0,1-.2-.244v-1.2a.25.25,0,0,1,.2-.244l.135-.027a.633.633,0,1,0-.248-1.241l-.135.027a1.519,1.519,0,0,0-1.217,1.485v1.2a1.519,1.519,0,0,0,1.218,1.485l1.829.366a7.668,7.668,0,0,0,.4.968l-1.035,1.552a1.519,1.519,0,0,0,.189,1.911l.848.848a1.519,1.519,0,0,0,1.911.189l1.553-1.035a7.647,7.647,0,0,0,.968.4l.366,1.829a1.519,1.519,0,0,0,1.485,1.218h1.2a1.519,1.519,0,0,0,1.485-1.218l.366-1.829a7.651,7.651,0,0,0,.968-.4l1.553,1.035a1.519,1.519,0,0,0,1.911-.189l.848-.848a1.519,1.519,0,0,0,.189-1.911l-1.035-1.552a7.639,7.639,0,0,0,.4-.968l1.829-.366a1.519,1.519,0,0,0,1.217-1.485v-1.2A1.518,1.518,0,0,0,267.364,256.165Z" transform="translate(-228.514 -228.515)"/>
          <path id="Trazado_217689" data-name="Trazado 217689" d="M338.228,335.951a2.28,2.28,0,0,1,2.278,2.278.633.633,0,0,0,1.265,0,3.543,3.543,0,1,0-3.543,3.543,3.51,3.51,0,0,0,2.165-.738.633.633,0,0,0-.774-1,2.256,2.256,0,0,1-1.391.474,2.278,2.278,0,1,1,0-4.555Z" transform="translate(-308.493 -308.494)"/>
          <path id="Trazado_217690" data-name="Trazado 217690" d="M155.172,151.317a3.854,3.854,0,1,0-3.854,3.854A3.859,3.859,0,0,0,155.172,151.317Zm-6.444,0a2.589,2.589,0,1,1,2.589,2.589A2.592,2.592,0,0,1,148.728,151.317Z" transform="translate(-135.923 -135.923)"/>
        </g>
      </g>
    </g>
    <g id="planificacion" transform="translate(607.063 4179.395)">
      <g id="Grupo_871728" data-name="Grupo 871728" transform="translate(0 9.727)">
        <path id="Trazado_217691" data-name="Trazado 217691" d="M154.387,182.17h-9.961a3.268,3.268,0,0,0-3.264,3.264v4.134a3.268,3.268,0,0,0,3.264,3.264h9.961a3.268,3.268,0,0,0,3.264-3.264v-4.134A3.268,3.268,0,0,0,154.387,182.17Zm1.824,7.4a1.826,1.826,0,0,1-1.824,1.823h-9.961a1.826,1.826,0,0,1-1.824-1.823v-4.134a1.826,1.826,0,0,1,1.824-1.823h9.961a1.826,1.826,0,0,1,1.824,1.823Z" transform="translate(-130.996 -169.751)"/>
        <path id="Trazado_217692" data-name="Trazado 217692" d="M154.387,354.234h-9.961a3.268,3.268,0,0,0-3.264,3.264v4.134a3.268,3.268,0,0,0,3.264,3.264h9.961a3.268,3.268,0,0,0,3.264-3.264V357.5A3.268,3.268,0,0,0,154.387,354.234Zm1.824,7.4a1.826,1.826,0,0,1-1.824,1.824h-9.961a1.826,1.826,0,0,1-1.824-1.824V357.5a1.826,1.826,0,0,1,1.824-1.824h9.961a1.826,1.826,0,0,1,1.824,1.824Z" transform="translate(-130.996 -329.423)"/>
        <path id="Trazado_217693" data-name="Trazado 217693" d="M154.387,9.727h-1.714a.72.72,0,1,0,0,1.44h1.714a1.826,1.826,0,0,1,1.824,1.824v4.134a1.826,1.826,0,0,1-1.824,1.824h-9.961a1.826,1.826,0,0,1-1.824-1.824V12.991a1.826,1.826,0,0,1,1.824-1.824h1.9a.72.72,0,1,0,0-1.44h-1.9a3.268,3.268,0,0,0-3.264,3.264v4.134a3.268,3.268,0,0,0,3.264,3.264h9.961a3.268,3.268,0,0,0,3.264-3.264V12.991A3.268,3.268,0,0,0,154.387,9.727Z" transform="translate(-130.996 -9.727)"/>
        <path id="Trazado_217694" data-name="Trazado 217694" d="M394.767,246.188h-2.245a.72.72,0,0,0,0,1.44h2.245a4.256,4.256,0,0,1,4.251,4.251v2.449a4.256,4.256,0,0,1-4.251,4.251h-.506l.751-.752a.72.72,0,0,0-1.019-1.019l-1.981,1.981a.728.728,0,0,0,0,1.019l1.981,1.981a.72.72,0,1,0,1.019-1.019l-.751-.752h.506a5.7,5.7,0,0,0,5.692-5.692V251.88A5.7,5.7,0,0,0,394.767,246.188Z" transform="translate(-363.585 -229.158)"/>
        <path id="Trazado_217695" data-name="Trazado 217695" d="M5.692,89.206H6.2l-.752.752a.72.72,0,0,0,0,1.019.731.731,0,0,0,1.019,0L8.446,89a.73.73,0,0,0,0-1.019L6.465,86a.72.72,0,1,0-1.019,1.019l.752.752H5.692A4.256,4.256,0,0,1,1.44,83.515V81.066a4.256,4.256,0,0,1,4.251-4.251H7.936a.72.72,0,1,0,0-1.44H5.692A5.7,5.7,0,0,0,0,81.066v2.449A5.7,5.7,0,0,0,5.692,89.206Z" transform="translate(0 -70.646)"/>
        <path id="Trazado_217696" data-name="Trazado 217696" d="M26.407,392.728H22.343l.752-.752a.72.72,0,0,0-1.019-1.019L20.1,392.939a.73.73,0,0,0,0,1.019l1.981,1.981a.731.731,0,0,0,1.019,0,.72.72,0,0,0,0-1.019l-.752-.752h4.063a.72.72,0,1,0,0-1.44Z" transform="translate(-18.456 -363.306)"/>
        <path id="Trazado_217697" data-name="Trazado 217697" d="M391.79,43.286a.727.727,0,0,0,.062.947l1.981,1.981a.72.72,0,1,0,1.019-1.019l-.752-.752h4.063a.72.72,0,1,0,0-1.44H394.1l.751-.752a.72.72,0,1,0-1.019-1.019l-1.981,1.981A.745.745,0,0,0,391.79,43.286Z" transform="translate(-363.437 -38.769)"/>
        <path id="Trazado_217698" data-name="Trazado 217698" d="M190.722,74.466a.72.72,0,0,0,.72.72h7.993a.72.72,0,0,0,0-1.44h-7.993A.72.72,0,0,0,190.722,74.466Z" transform="translate(-176.986 -69.135)"/>
        <path id="Trazado_217699" data-name="Trazado 217699" d="M196.28,246.188h-4.837a.72.72,0,1,0,0,1.44h4.837a.72.72,0,1,0,0-1.44Z" transform="translate(-176.986 -229.158)"/>
        <path id="Trazado_217700" data-name="Trazado 217700" d="M199.435,418.632h-7.993a.72.72,0,1,0,0,1.44h7.993a.72.72,0,0,0,0-1.44Z" transform="translate(-176.986 -389.183)"/>
        <path id="Trazado_217701" data-name="Trazado 217701" d="M303.107,246.694a.72.72,0,1,0-.292.891A.726.726,0,0,0,303.107,246.694Z" transform="translate(-279.993 -229.224)"/>
        <path id="Trazado_217702" data-name="Trazado 217702" d="M247.587,10.743a.72.72,0,1,0,.39-.941A.726.726,0,0,0,247.587,10.743Z" transform="translate(-229.706 -9.747)"/>
      </g>
    </g>
    <g id="Grupo_877039" data-name="Grupo 877039" transform="translate(-864.877 1386.5)">
      <path id="Trazado_266942" data-name="Trazado 266942" d="M19.489,2.095q5.9,0,11.809,0a3.4,3.4,0,0,1,1.048,6.656c-.32.087-.379.214-.378.517q.013,13.565.007,27.13c0,.741-.14.878-.893.878H7.853c-.7,0-.846-.151-.846-.854,0-3.381,0-6.762.008-10.143,0-.3-.074-.372-.366-.36-.6.025-1.206.011-1.808.007-.461,0-.67-.211-.67-.673q0-9.895,0-19.789A3.379,3.379,0,0,1,7.645,2.1q5.922-.01,11.845,0" transform="translate(1255.134 2800.107)"/>
      <path id="Trazado_266943" data-name="Trazado 266943" d="M109.894,47.1q0-5.035,0-10.069a1.7,1.7,0,1,1,3.4-.124c.013.472.027.947,0,1.417-.021.313.09.382.372.352a5.559,5.559,0,0,1,.708,0,.564.564,0,0,1,.627.608c.005,2.376,0,4.751.007,7.126,0,.176-.057.208-.221.214-.918.033-.918.038-.918-.86,0-1.879,0-3.758,0-5.637,0-.222-.016-.328-.291-.329s-.285.121-.285.335q.007,8.456.006,16.912a2.587,2.587,0,0,1-.137.866q-.508,1.47-.987,2.949c-.1.3-.252.515-.588.511s-.482-.229-.578-.525c-.339-1.041-.691-2.079-1.043-3.116a1.7,1.7,0,0,1-.076-.557q0-5.034,0-10.069" transform="translate(1178.35 2776.018)"/>
      <path id="Trazado_266944" data-name="Trazado 266944" d="M41.365,40.573q0,6.632.007,13.264c0,.294-.067.363-.362.363q-10.994-.014-21.988,0c-.294,0-.363-.067-.362-.362q.013-13.264,0-26.528c0-.294.067-.363.362-.363q10.995.014,21.988,0c.294,0,.364.067.363.362q-.016,6.632-.007,13.264" transform="translate(1244.609 2782.057)" fill="#d8e2ec"/>
      <path id="Trazado_266945" data-name="Trazado 266945" d="M25.9,10.756a3.422,3.422,0,0,0,.045-4.487c.067-.1.171-.05.254-.05q10.456,0,20.912,0a2.27,2.27,0,1,1,0,4.537q-10.456,0-20.912,0h-.3" transform="translate(1239.35 2797.121)" fill="#d8e2ec"/>
      <path id="Trazado_266946" data-name="Trazado 266946" d="M8.3,17.915c0-3.143-.006-6.285,0-9.428A2.153,2.153,0,0,1,9.585,6.442a2.159,2.159,0,0,1,2.368.239,2.26,2.26,0,0,1,.8,2.435,2.3,2.3,0,0,1-2.022,1.628c-.585.041-.727.2-.727.8q0,7.921.008,15.843c0,.329-.088.42-.4.393a5.9,5.9,0,0,0-.991,0c-.275.023-.324-.072-.323-.329.01-2.965.006-5.931.006-8.9q0-.319,0-.638" transform="translate(1252.134 2797.129)" fill="#d8e2ec"/>
      <path id="Trazado_266947" data-name="Trazado 266947" d="M115.16,83.638c0,1.5-.005,3,.005,4.5,0,.231-.058.292-.29.29-.851-.005-.851,0-.851-.858,0-2.825,0-5.65-.007-8.475,0-.265.061-.332.327-.327.815.016.815,0,.815.824Z" transform="translate(1175.354 2744.419)" fill="#d8e2ec"/>
      <path id="Trazado_266948" data-name="Trazado 266948" d="M115.152,51.4c0,1.111-.012,2.222.008,3.333.005.293-.092.341-.353.336-.79-.015-.79,0-.79-.777,0-2.08.009-4.161-.01-6.241,0-.328.1-.381.39-.372.754.021.754.007.754.778Z" transform="translate(1175.362 2767.003)" fill="#d8e2ec"/>
      <path id="Trazado_266949" data-name="Trazado 266949" d="M114.573,40.563c-.243-.064-.629.176-.577-.374.047-.5.2-.767.574-.77s.543.268.579.8c.039.58-.39.234-.575.345" transform="translate(1175.374 2772.999)" fill="#d8e2ec"/>
      <path id="Trazado_266950" data-name="Trazado 266950" d="M114.86,118.218h.686l-.342,1.026-.344-1.026" transform="translate(1174.742 2715.771)" fill="#fff"/>
      <path id="Trazado_266951" data-name="Trazado 266951" d="M32.992,41.331q-4.928,0-9.855.005c-.248,0-.342-.034-.336-.317.019-.823,0-.823.816-.823.544,0,1.088-.017,1.631.007.305.013.414-.05.408-.39-.023-1.323-.01-2.647-.009-3.97,0-.575.183-.753.767-.754.414,0,.828-.016,1.24.006.23.012.275-.067.267-.277-.016-.448-.009-.9,0-1.347a.577.577,0,0,1,.656-.65q1.046-.007,2.092,0a.577.577,0,0,1,.655.653c0,.827.009,1.654,0,2.481,0,.214.044.276.269.276.872,0,.872.009.872-.873q0-1.755,0-3.51c0-.537.19-.729.719-.731q.993,0,1.985,0c.49,0,.691.2.7.68.006.328-.113.773.053.956.194.212.644.048.982.064.2.01.4,0,.6,0a.576.576,0,0,1,.631.641c.006.284.012.568,0,.851-.009.177.057.216.221.213.461-.01.922-.007,1.383,0a.585.585,0,0,1,.669.674c0,1.56.008,3.12-.006,4.679,0,.264.06.334.326.327.756-.02,1.512,0,2.268-.012.2,0,.253.052.255.253.01.887.017.887-.857.887Z" transform="translate(1241.602 2779.03)"/>
      <path id="Trazado_266952" data-name="Trazado 266952" d="M58.094,110.287H52.6c-.56,0-.749-.186-.75-.736q0-1.541,0-3.083c0-.529.194-.72.729-.72q5.51,0,11.021,0c.535,0,.732.192.733.717q0,1.559,0,3.118c0,.5-.2.7-.712.7q-2.764,0-5.528,0" transform="translate(1220.504 2724.828)"/>
      <path id="Trazado_266953" data-name="Trazado 266953" d="M25.664,72.577c.72,0,1.44,0,2.161,0,.464,0,.676.207.677.665q.005,2.178,0,4.357a.576.576,0,0,1-.656.65q-2.179.006-4.357,0a.576.576,0,0,1-.658-.648q-.006-2.2,0-4.392a.568.568,0,0,1,.638-.631c.732-.006,1.464,0,2.2,0" transform="translate(1241.583 2748.919)"/>
      <path id="Trazado_266954" data-name="Trazado 266954" d="M54.494,80.854c2.163,0,4.326.005,6.49-.007.263,0,.333.059.328.326-.016.816,0,.816-.823.816q-6.224,0-12.447.007c-.293,0-.373-.065-.364-.362.023-.78.007-.78.789-.78Z" transform="translate(1223.536 2742.912)"/>
      <path id="Trazado_266955" data-name="Trazado 266955" d="M54.494,89.146c2.163,0,4.326.005,6.49-.007.264,0,.333.059.328.326-.016.815,0,.816-.824.816q-6.224,0-12.447.007c-.293,0-.372-.065-.364-.362.023-.78.007-.78.789-.78Z" transform="translate(1223.536 2736.89)"/>
      <path id="Trazado_266956" data-name="Trazado 266956" d="M54.463,98.572c-2.151,0-4.3,0-6.454.006-.258,0-.337-.05-.331-.323.018-.818,0-.818.821-.818q6.224,0,12.447-.007c.288,0,.376.057.367.359-.024.782-.007.783-.786.783Z" transform="translate(1223.534 2730.868)"/>
      <path id="Trazado_266957" data-name="Trazado 266957" d="M65.2,73.7c-1.584,0-3.168-.007-4.752.007-.264,0-.333-.06-.328-.326.016-.815,0-.816.824-.816,3.014,0,6.028,0,9.042-.007.294,0,.372.065.364.362-.023.78-.007.78-.789.78Z" transform="translate(1214.5 2748.936)"/>
      <path id="Trazado_266958" data-name="Trazado 266958" d="M26.2,119.3c-1.028,0-2.057-.01-3.085.007-.257,0-.306-.073-.3-.314.011-.828,0-.828.81-.828,1.891,0,3.782.007,5.673-.008.288,0,.344.084.339.35-.016.792,0,.792-.811.792Z" transform="translate(1241.596 2715.815)"/>
      <path id="Trazado_266959" data-name="Trazado 266959" d="M25.121,109.881c.662,0,1.324.008,1.985,0,.2,0,.252.053.254.253.01.886.017.886-.857.886-1.134,0-2.269-.007-3.4.006-.231,0-.292-.058-.29-.29.005-.851,0-.851.858-.851Z" transform="translate(1241.595 2721.829)"/>
      <path id="Trazado_266960" data-name="Trazado 266960" d="M63.336,39.254c0,1.217-.006,2.435.005,3.652,0,.231-.057.292-.289.291-.851-.005-.851,0-.851-.858,0-2.258,0-4.515-.007-6.773,0-.264.06-.333.326-.327.815.016.815,0,.815.824Z" transform="translate(1212.992 2776.035)" fill="#d8e2ec"/>
      <path id="Trazado_266961" data-name="Trazado 266961" d="M46.752,44.62c0,.934-.008,1.867.005,2.8,0,.229-.054.293-.288.292-.852-.006-.852,0-.852-.857,0-1.69.006-3.38-.007-5.071,0-.262.057-.334.325-.328.816.017.817,0,.817.823Z" transform="translate(1225.036 2771.519)" fill="#d8e2ec"/>
      <path id="Trazado_266962" data-name="Trazado 266962" d="M70.5,44.555c0-.934.008-1.867-.006-2.8,0-.231.058-.292.29-.29.851.005.851,0,.851.858,0,1.69-.007,3.38.007,5.071,0,.265-.061.332-.327.327-.815-.016-.815,0-.815-.824v-2.34" transform="translate(1206.967 2771.515)" fill="#d8e2ec"/>
      <path id="Trazado_266963" data-name="Trazado 266963" d="M79.922,49.994c0,.662-.008,1.324,0,1.985,0,.2-.053.252-.253.254-.886.01-.886.017-.886-.857,0-1.134.007-2.269-.005-3.4,0-.232.058-.292.29-.29.851.005.851,0,.851.858v1.454" transform="translate(1200.945 2766.998)" fill="#d8e2ec"/>
      <path id="Trazado_266964" data-name="Trazado 266964" d="M38.462,51.747c0,.579-.008,1.158,0,1.737,0,.2-.053.252-.253.255-.887.01-.887.017-.887-.857,0-.946.008-1.891-.006-2.836,0-.231.057-.292.29-.291.851.005.851,0,.851.858v1.134" transform="translate(1231.056 2765.493)" fill="#d8e2ec"/>
      <path id="Trazado_266965" data-name="Trazado 266965" d="M55.051,55.329c0,.4-.006.8,0,1.205,0,.151-.035.225-.2.2a.171.171,0,0,0-.036,0c-.907.032-.907.032-.907-.866,0-.579.007-1.158,0-1.737,0-.18.041-.236.231-.24.908-.019.907-.027.907.872v.567" transform="translate(1219.006 2762.494)" fill="#d8e2ec"/>
      <path id="Trazado_266966" data-name="Trazado 266966" d="M61.118,109.874c1.6,0,3.192,0,4.787,0,.223,0,.3.044.3.285-.02.555-.021,1.112,0,1.666.01.258-.049.333-.322.331-2.234-.013-4.468-.007-6.7-.007-.969,0-1.939-.007-2.908.005-.223,0-.3-.044-.3-.285.02-.555.021-1.112,0-1.666-.01-.258.049-.334.322-.331,1.608.015,3.215.007,4.823.007" transform="translate(1217.51 2721.836)" fill="#d8e2ec"/>
      <path id="Trazado_266967" data-name="Trazado 266967" d="M26.968,78.386c0-.485.006-.969,0-1.454,0-.165.036-.223.213-.221q1.489.013,2.978,0c.165,0,.223.036.221.213q-.013,1.489,0,2.978c0,.164-.036.223-.213.221-.993-.008-1.985-.011-2.978,0-.212,0-.222-.09-.22-.25.006-.5,0-.993,0-1.489" transform="translate(1238.578 2745.916)" fill="#d8e2ec"/>
    </g>
  </g>
</svg>
