<svg xmlns="http://www.w3.org/2000/svg" xmlns:xlink="http://www.w3.org/1999/xlink" width="222.93" height="230.469" viewBox="0 0 222.93 230.469">
  <defs>
    <clipPath id="clip-path">
      <rect id="Rectángulo_291369" data-name="Rectángulo 291369" width="217.061" height="217.091" fill="#5d8fb8"/>
    </clipPath>
    <clipPath id="clip-path-2">
      <rect id="Rectángulo_334376" data-name="Rectángulo 334376" width="199.838" height="230.469" fill="none"/>
    </clipPath>
    <clipPath id="clip-path-5">
      <rect id="Rectángulo_334369" data-name="Rectángulo 334369" width="3.515" height="4.819" fill="none"/>
    </clipPath>
    <clipPath id="clip-path-6">
      <rect id="Rectángulo_334370" data-name="Rectángulo 334370" width="9.067" height="28.832" fill="none"/>
    </clipPath>
    <clipPath id="clip-path-8">
      <rect id="Rectángulo_334372" data-name="Rectángulo 334372" width="13.141" height="8.238" fill="none"/>
    </clipPath>
    <clipPath id="clip-path-9">
      <rect id="Rectángulo_334373" data-name="Rectángulo 334373" width="1.557" height="1.557" fill="none"/>
    </clipPath>
  </defs>
  <g id="Grupo_886794" data-name="Grupo 886794" transform="translate(-3706.567 9210.182)">
    <g id="Grupo_873907" data-name="Grupo 873907" transform="translate(7720.522 1619.82)">
      <g id="Grupo_870717" data-name="Grupo 870717" transform="translate(-4013.955 -10830.002)">
        <g id="Grupo_870714" data-name="Grupo 870714" clip-path="url(#clip-path)">
          <path id="Trazado_215321" data-name="Trazado 215321" d="M16.525,105.621c27.129-21.63-19.852-56.536-9.449-91.06s44.729.97,63.2,17.979S110.392,19.118,124.742,18.3s6.274,12.483,12.746,29.711,54.177,2.921,73.3,19.561-11.344,52.052-13.909,73.168,30.376,45.01,9.271,76.35l-104.846-.62c-10.55-3.243-17.432-5.813-17.432-5.813C-14.283,168.268-10.6,127.25,16.525,105.621" transform="translate(0 0)" fill="#5d8fb8"/>
        </g>
      </g>
      <path id="Trazado_264543" data-name="Trazado 264543" d="M209.053,582.976c0,3.35-40.736,6.066-90.986,6.066s-90.986-2.716-90.986-6.066,40.759-3.741,91.01-3.741,90.963.391,90.963,3.741" transform="translate(-4000.272 -11192.575)" fill="#033f71" opacity="0.4"/>
    </g>
    <g id="Grupo_886627" data-name="Grupo 886627" transform="translate(3729.66 -9210.182)">
      <g id="Grupo_886626" data-name="Grupo 886626" clip-path="url(#clip-path-2)">
        <g id="Grupo_886607" data-name="Grupo 886607">
          <g id="Grupo_886606" data-name="Grupo 886606" clip-path="url(#clip-path-2)">
            <path id="Trazado_600909" data-name="Trazado 600909" d="M334.981,209.3a20.025,20.025,0,1,1,.724-28.277,20,20,0,0,1-.724,28.277" transform="translate(-141.369 -82.025)" fill="#ffc631"/>
            <path id="Trazado_600910" data-name="Trazado 600910" d="M335.913,210.054a15.26,15.26,0,1,1,.552-21.549,15.243,15.243,0,0,1-.552,21.549" transform="translate(-145.578 -86.235)" fill="#f0ba2d"/>
            <path id="Trazado_600911" data-name="Trazado 600911" d="M340.15,209.279c-.066-.065.375-.573,1.054-1.555a16.207,16.207,0,0,0,2.184-4.5,15.658,15.658,0,0,0,.622-3.374,15.271,15.271,0,0,0-.238-3.913,14.881,14.881,0,0,0-1.415-4.079,14.835,14.835,0,0,0-1.206-1.942,14.933,14.933,0,0,0-3.335-3.305,14.927,14.927,0,0,0-1.953-1.189,14.928,14.928,0,0,0-4.092-1.378,15.3,15.3,0,0,0-3.915-.2,15.673,15.673,0,0,0-3.368.654,16.2,16.2,0,0,0-4.473,2.226c-.975.689-1.48,1.135-1.544,1.069-.05-.047.345-.6,1.262-1.426a14.113,14.113,0,0,1,4.486-2.651,15.29,15.29,0,0,1,7.731-.732,14.725,14.725,0,0,1,2.217.526,14.96,14.96,0,0,1,2.207.889,15.617,15.617,0,0,1,2.118,1.268,15.656,15.656,0,0,1,3.6,3.565,15.673,15.673,0,0,1,1.287,2.106,15.585,15.585,0,0,1,1.456,4.41,15.294,15.294,0,0,1-.66,7.738A14.138,14.138,0,0,1,341.564,208c-.813.925-1.366,1.325-1.414,1.276" transform="translate(-149.47 -85.791)" fill="#d9a724"/>
            <path id="Trazado_600912" data-name="Trazado 600912" d="M324.726,212.98l-1.9,1.857-1.657-1.7,1.851-1.806a11.249,11.249,0,0,1-2.767-5.556l2.984-1.088a9.59,9.59,0,0,0,2.009,4.473l2.837-2.768c-1.382-2.332-2.808-5.052-.379-7.422,1.8-1.757,4.623-1.957,7.547.429l1.886-1.84,1.658,1.7-1.853,1.807a10.727,10.727,0,0,1,2.329,4.459l-2.918,1.19a9.731,9.731,0,0,0-1.652-3.462l-2.888,2.818c1.4,2.316,2.791,5,.4,7.339-1.767,1.724-4.556,1.924-7.481-.428m5.852-9.024,2.411-2.354c-1.082-.7-1.923-.577-2.483-.03-.594.58-.42,1.4.072,2.384m-1.244,6.917c.595-.581.437-1.388-.021-2.367l-2.344,2.287c1.015.668,1.822.61,2.365.08" transform="translate(-150.307 -92.723)" fill="#d9a724"/>
            <path id="Trazado_600913" data-name="Trazado 600913" d="M180.848,272.116a21.025,21.025,0,1,1-26.733-12.937,21,21,0,0,1,26.733,12.937" transform="translate(-65.688 -121.097)" fill="#ffc631"/>
            <path id="Trazado_600914" data-name="Trazado 600914" d="M180.546,278.172a16.022,16.022,0,1,1-20.372-9.859,16,16,0,0,1,20.372,9.859" transform="translate(-70.113 -125.514)" fill="#f0ba2d"/>
            <path id="Trazado_600915" data-name="Trazado 600915" d="M180.032,277.171A9.485,9.485,0,0,1,179,275.488a16.993,16.993,0,0,0-3.354-4.035,16.379,16.379,0,0,0-2.957-2.057,16.039,16.039,0,0,0-3.846-1.467,15.7,15.7,0,0,0-4.514-.412,15.528,15.528,0,0,0-2.38.314,15.658,15.658,0,0,0-4.606,1.759,15.607,15.607,0,0,0-1.984,1.353,15.694,15.694,0,0,0-3.089,3.317,16.014,16.014,0,0,0-1.887,3.658,16.414,16.414,0,0,0-.833,3.5,17.023,17.023,0,0,0,.192,5.242,9.375,9.375,0,0,1,.353,1.94,4.715,4.715,0,0,1-.817-1.825,14.819,14.819,0,0,1-.592-5.439,16.05,16.05,0,0,1,2.647-7.711,15.5,15.5,0,0,1,1.463-1.892,15.688,15.688,0,0,1,1.807-1.726,16.312,16.312,0,0,1,2.13-1.476,16.412,16.412,0,0,1,4.968-1.9,16.337,16.337,0,0,1,2.571-.319,16.319,16.319,0,0,1,4.849.516,16.058,16.058,0,0,1,7.115,3.982,14.855,14.855,0,0,1,3.187,4.448,4.708,4.708,0,0,1,.608,1.906" transform="translate(-69.766 -124.986)" fill="#d9a724"/>
            <path id="Trazado_600916" data-name="Trazado 600916" d="M177.716,296.3l.952,2.624-2.343.849-.926-2.553a11.813,11.813,0,0,1-6.512.241l.251-3.325a10.074,10.074,0,0,0,5.148.015l-1.42-3.913c-2.829.311-6.048.5-7.263-2.852-.9-2.483.129-5.269,3.678-7.033l-.944-2.6,2.343-.85.926,2.554a11.266,11.266,0,0,1,5.273-.3l-.126,3.306a10.209,10.209,0,0,0-4.026.082l1.445,3.983c2.82-.334,5.993-.5,7.191,2.8.884,2.437-.132,5.19-3.648,6.969m-6.1-9.5-1.207-3.326c-1.139.731-1.384,1.589-1.1,2.362.3.819,1.162,1.01,2.312.964m6.077,4.184c-.3-.82-1.138-1.018-2.273-1.006l1.173,3.233c1.078-.682,1.372-1.478,1.1-2.228" transform="translate(-77.581 -129.966)" fill="#d9a724"/>
            <path id="Trazado_600917" data-name="Trazado 600917" d="M35.291,171.374A17.646,17.646,0,1,1,17.426,153.99a17.627,17.627,0,0,1,17.865,17.384" transform="translate(0 -72.273)" fill="#ffc631"/>
            <path id="Trazado_600918" data-name="Trazado 600918" d="M34.806,175.131a13.448,13.448,0,1,1-13.614-13.248,13.433,13.433,0,0,1,13.614,13.248" transform="translate(-3.713 -75.978)" fill="#f0ba2d"/>
            <path id="Trazado_600919" data-name="Trazado 600919" d="M34.663,174.258a7.959,7.959,0,0,1-.376-1.613,14.262,14.262,0,0,0-1.6-4.1,13.789,13.789,0,0,0-1.811-2.421,13.457,13.457,0,0,0-2.674-2.187,13.19,13.19,0,0,0-3.486-1.524,13.007,13.007,0,0,0-1.978-.381,13.145,13.145,0,0,0-4.134.181,13.179,13.179,0,0,0-1.938.552,13.177,13.177,0,0,0-3.339,1.824A13.433,13.433,0,0,0,10.853,167a13.774,13.774,0,0,0-1.591,2.57A14.277,14.277,0,0,0,8.026,173.8a7.9,7.9,0,0,1-.232,1.639,3.944,3.944,0,0,1-.168-1.67,12.447,12.447,0,0,1,.969-4.489,13.482,13.482,0,0,1,4.15-5.44,13.006,13.006,0,0,1,1.666-1.12,13.233,13.233,0,0,1,1.9-.9,13.611,13.611,0,0,1,2.087-.612,13.76,13.76,0,0,1,4.459-.2,13.7,13.7,0,0,1,2.133.427,13.7,13.7,0,0,1,3.725,1.7,13.481,13.481,0,0,1,4.612,5.056,12.456,12.456,0,0,1,1.36,4.387,3.943,3.943,0,0,1-.02,1.679" transform="translate(-3.578 -75.526)" fill="#d9a724"/>
            <path id="Trazado_600920" data-name="Trazado 600920" d="M29.818,186.932l.063,2.342-2.091.056-.061-2.279a9.914,9.914,0,0,1-5.251-1.532l1.081-2.582a8.45,8.45,0,0,0,4.1,1.375l-.094-3.492c-2.336-.5-4.949-1.205-5.03-4.2-.059-2.216,1.5-4.162,4.792-4.627l-.063-2.321,2.091-.056.061,2.279a9.464,9.464,0,0,1,4.278,1.161l-.976,2.6a8.568,8.568,0,0,0-3.228-1l.1,3.554c2.335.481,4.906,1.186,4.986,4.134.058,2.175-1.48,4.1-4.752,4.584m-2.339-9.185-.081-2.968c-1.1.28-1.524.9-1.505,1.589.02.731.658,1.112,1.586,1.38m3.732,4.942c-.02-.732-.637-1.113-1.544-1.4l.077,2.885c1.04-.258,1.485-.814,1.467-1.483" transform="translate(-10.55 -79.611)" fill="#d9a724"/>
            <path id="Trazado_600921" data-name="Trazado 600921" d="M208.59,23.073A15.514,15.514,0,0,0,195.251,0a15.157,15.157,0,0,0-4.071.558,15.531,15.531,0,0,1,0,29.85,15.139,15.139,0,0,0,12.178-1.794l7.2,2.783Z" transform="translate(-89.729)" fill="#ebebeb"/>
          </g>
        </g>
        <g id="Grupo_886615" data-name="Grupo 886615">
          <g id="Grupo_886614" data-name="Grupo 886614" clip-path="url(#clip-path-2)">
            <path id="Trazado_600922" data-name="Trazado 600922" d="M92.712,386.57l.434,13.206L96.5,410.123a1.354,1.354,0,0,1-2.166,1.448c-2.121-1.819-9.889-8.548-9.867-9.516.026-1.121-1.382-13.9-1.382-13.9Z" transform="translate(-38.995 -181.434)" fill="#333"/>
            <path id="Trazado_600923" data-name="Trazado 600923" d="M96.719,424.763,85.6,414.074l.032.559a2.037,2.037,0,0,0,.556,1.293c.892.938,3.414,3.473,9.29,8.557a1.354,1.354,0,0,0,1.247.28" transform="translate(-40.173 -194.343)" fill="#e0e0e0"/>
            <path id="Trazado_600924" data-name="Trazado 600924" d="M89.225,405.674a.819.819,0,0,1,.283,1.055.788.788,0,0,1-1.044.29.864.864,0,0,1-.295-1.12.817.817,0,0,1,1.12-.181" transform="translate(-41.333 -190.35)" fill="#fff"/>
            <path id="Trazado_600925" data-name="Trazado 600925" d="M100.256,422.233c.077.032.336-.676,1.1-1.091a4.12,4.12,0,0,1,1.5-.375c.01-.033-.163-.126-.474-.153a2.158,2.158,0,0,0-2.013,1.134c-.138.28-.149.475-.115.484" transform="translate(-47.047 -197.41)" fill="#263238"/>
            <path id="Trazado_600926" data-name="Trazado 600926" d="M102.218,425.984c.066.054.465-.4,1.137-.632a10.984,10.984,0,0,1,1.279-.238,1.5,1.5,0,0,0-1.378-.035c-.764.271-1.109.873-1.038.905" transform="translate(-47.971 -199.447)" fill="#263238"/>
            <path id="Trazado_600927" data-name="Trazado 600927" d="M96.731,418.058a13.545,13.545,0,0,1,1.689-1.094,13.522,13.522,0,0,1,1.932-.566,3.7,3.7,0,0,0-3.62,1.66" transform="translate(-45.398 -195.401)" fill="#263238"/>
            <path id="Trazado_600928" data-name="Trazado 600928" d="M95.853,411.455c.04.077.751-.268,1.7-.355s1.711.1,1.735.015a3.362,3.362,0,0,0-3.433.34" transform="translate(-44.987 -192.802)" fill="#263238"/>
            <path id="Trazado_600929" data-name="Trazado 600929" d="M95.429,404.117a6.606,6.606,0,0,1,1.758-.417,6.619,6.619,0,0,1,1.774.342c.02-.029-.133-.186-.447-.345a2.95,2.95,0,0,0-2.652.056c-.307.172-.453.336-.432.364" transform="translate(-44.788 -189.338)" fill="#263238"/>
            <path id="Trazado_600930" data-name="Trazado 600930" d="M96.887,400.344a1.136,1.136,0,0,0-.01-.5,3.461,3.461,0,0,0-.469-1.285,1.539,1.539,0,0,0-.7-.7.544.544,0,0,0-.606.155.885.885,0,0,0-.175.607A1.913,1.913,0,0,0,96.7,400.3a2.22,2.22,0,0,0,2.112-1.281.769.769,0,0,0,0-.642.533.533,0,0,0-.573-.251,1.9,1.9,0,0,0-.844.5,3.861,3.861,0,0,0-.843,1.075,1.168,1.168,0,0,0-.177.467,6.145,6.145,0,0,1,1.154-1.387,1.764,1.764,0,0,1,.747-.418.284.284,0,0,1,.313.135.531.531,0,0,1-.025.422,1.982,1.982,0,0,1-1.845,1.089,1.661,1.661,0,0,1-1.525-1.4.638.638,0,0,1,.1-.429.294.294,0,0,1,.333-.091,1.391,1.391,0,0,1,.6.58,5.131,5.131,0,0,1,.652,1.675" transform="translate(-44.553 -186.718)" fill="#263238"/>
            <path id="Trazado_600931" data-name="Trazado 600931" d="M140.813,389.962l-.684,9.875s9.808,4.012,9.859,5.849l-19.194-.639.435-15.43Z" transform="translate(-61.387 -182.864)" fill="#333"/>
            <path id="Trazado_600932" data-name="Trazado 600932" d="M136.737,406.912a.784.784,0,0,0-.572.877.753.753,0,0,0,.863.574.827.827,0,0,0,.6-.931.782.782,0,0,0-.965-.5" transform="translate(-63.903 -190.969)" fill="#e0e0e0"/>
            <path id="Trazado_600933" data-name="Trazado 600933" d="M130.793,417.32l.1-1.554,18.364,1.193s.842.4.725,1Z" transform="translate(-61.387 -195.137)" fill="#e0e0e0"/>
            <path id="Trazado_600934" data-name="Trazado 600934" d="M147.4,408.625c-.006.093-.477.12-.947.406s-.73.672-.815.632c-.086-.021.073-.577.649-.913s1.137-.211,1.113-.125" transform="translate(-68.344 -191.74)" fill="#263238"/>
            <path id="Trazado_600935" data-name="Trazado 600935" d="M151.556,410.37c.019.092-.393.238-.724.624s-.437.8-.531.795c-.089.012-.135-.54.286-1.011s.97-.5.969-.407" transform="translate(-70.515 -192.585)" fill="#263238"/>
            <path id="Trazado_600936" data-name="Trazado 600936" d="M154.634,413.609c-.086.017-.2-.455.057-.961s.7-.7.74-.616-.244.345-.448.763-.255.807-.349.813" transform="translate(-72.529 -193.377)" fill="#263238"/>
            <path id="Trazado_600937" data-name="Trazado 600937" d="M147.033,404.112c-.042.084-.468-.059-1-.041s-.949.172-1,.09.362-.4.988-.416,1.055.3,1.007.368" transform="translate(-68.071 -189.495)" fill="#263238"/>
            <path id="Trazado_600938" data-name="Trazado 600938" d="M146.443,399.24a1.8,1.8,0,0,1-.961-.037,4.318,4.318,0,0,1-1-.342,4.581,4.581,0,0,1-.542-.311,1.192,1.192,0,0,1-.283-.236.409.409,0,0,1-.027-.5.514.514,0,0,1,.418-.2,1.256,1.256,0,0,1,.359.062,3.451,3.451,0,0,1,.591.225,3.4,3.4,0,0,1,.867.611c.432.427.572.783.54.8s-.25-.271-.693-.627a3.827,3.827,0,0,0-.841-.512,3.592,3.592,0,0,0-.547-.189c-.2-.06-.374-.067-.429.022-.02.034-.023.047.018.108a.957.957,0,0,0,.208.172,4.94,4.94,0,0,0,.5.307,5.352,5.352,0,0,0,.917.387,6.553,6.553,0,0,1,.9.26" transform="translate(-67.38 -186.617)" fill="#263238"/>
            <path id="Trazado_600939" data-name="Trazado 600939" d="M148.555,398.248a1.532,1.532,0,0,1-.223-.937,3.115,3.115,0,0,1,.431-1.623.793.793,0,0,1,.629-.465.449.449,0,0,1,.392.281,1.282,1.282,0,0,1,.087.356,2.131,2.131,0,0,1-.021.647,2.212,2.212,0,0,1-.444.98c-.392.485-.786.584-.793.552-.03-.048.3-.218.606-.687a2.211,2.211,0,0,0,.334-.893,1.97,1.97,0,0,0,0-.556c-.023-.2-.094-.372-.171-.354-.1,0-.263.144-.346.3a3.166,3.166,0,0,0-.256.513,3.463,3.463,0,0,0-.218.953c-.045.563.044.916-.008.929" transform="translate(-69.619 -185.495)" fill="#263238"/>
            <path id="Trazado_600940" data-name="Trazado 600940" d="M75.31,203.423l2.837,106.156,15.141-.455L96.9,199.805Z" transform="translate(-35.346 -93.777)" fill="#263238"/>
            <path id="Trazado_600941" data-name="Trazado 600941" d="M120.764,199.465s11.241,45,11.586,52.675-2.405,55.633-2.405,55.633H115.12l1.238-54.616-11.26-46.22,2.725-7.237Z" transform="translate(-49.327 -93.618)" fill="#263238"/>
            <path id="Trazado_600942" data-name="Trazado 600942" d="M114.759,209.879a.556.556,0,0,1,.006.144c0,.111,0,.249-.008.421-.014.391-.034.931-.06,1.617-.066,1.426-.159,3.451-.273,5.945-.258,5.037-.612,11.959-1,19.607-.423,7.648-.806,14.57-1.085,19.606-.151,2.492-.274,4.516-.36,5.941-.048.685-.085,1.225-.112,1.615-.015.171-.027.309-.036.42a.591.591,0,0,1-.022.143.561.561,0,0,1-.007-.143c0-.111.005-.249.009-.421.014-.391.035-.931.06-1.616.065-1.425.158-3.45.273-5.944.257-5.037.612-11.961,1-19.612.423-7.646.806-14.569,1.085-19.6.151-2.492.274-4.516.36-5.941.048-.685.085-1.224.112-1.614.015-.171.027-.309.036-.42a.545.545,0,0,1,.022-.142" transform="translate(-52.472 -98.505)" fill="#455a64"/>
            <path id="Trazado_600943" data-name="Trazado 600943" d="M98.609,89.495s5.5,27.3,5.58,34.988S106.97,147.2,106.97,147.2H83.142l-.514-41.586-1.7-12.4,3.578-5.1Z" transform="translate(-37.984 -41.352)" fill="#f5f5f5"/>
            <path id="Trazado_600944" data-name="Trazado 600944" d="M114.787,92.238s5.684,1.669,7.187,3.772c1.185,1.658,2.784,33.056,2.784,33.056l2.439,27.655-2.385-.224-3.366-10.352Z" transform="translate(-53.875 -43.291)" fill="#005542"/>
            <path id="Trazado_600945" data-name="Trazado 600945" d="M128.331,99.346l16.049,14.725,19.746-6.4,3.933,8.29-21.069,9.563c-3.011,1.285-4.9.577-6.989-1.1l-11.054-8.853Z" transform="translate(-60.231 -46.627)" fill="#005542"/>
            <path id="Trazado_600946" data-name="Trazado 600946" d="M188.135,119.815a.433.433,0,1,1-.586-.178.433.433,0,0,1,.586.178" transform="translate(-87.918 -56.127)" fill="#263238"/>
            <path id="Trazado_600947" data-name="Trazado 600947" d="M187.742,120.454a.457.457,0,0,1-.13-.019.447.447,0,0,1-.081-.821.446.446,0,0,1,.6.184.446.446,0,0,1-.393.656m0-.866a.42.42,0,1,0,.371.222.417.417,0,0,0-.371-.222" transform="translate(-87.906 -56.115)" fill="#263238"/>
            <path id="Trazado_600948" data-name="Trazado 600948" d="M191.255,119.073a.433.433,0,1,1-.586-.178.433.433,0,0,1,.586.178" transform="translate(-89.382 -55.779)" fill="#263238"/>
            <path id="Trazado_600949" data-name="Trazado 600949" d="M190.862,119.712a.448.448,0,0,1-.394-.236.446.446,0,0,1,.523-.637.446.446,0,0,1-.13.873m0-.867a.42.42,0,0,0-.369.618.413.413,0,0,0,.248.2.42.42,0,0,0,.492-.6.414.414,0,0,0-.248-.2.424.424,0,0,0-.123-.019" transform="translate(-89.371 -55.767)" fill="#263238"/>
            <path id="Trazado_600950" data-name="Trazado 600950" d="M194.224,118.474a.433.433,0,1,1-.586-.178.433.433,0,0,1,.586.178" transform="translate(-90.775 -55.498)" fill="#263238"/>
            <path id="Trazado_600951" data-name="Trazado 600951" d="M193.831,119.112a.447.447,0,0,1-.211-.84.446.446,0,0,1,.42.787.435.435,0,0,1-.209.053m0-.866a.428.428,0,0,0-.2.049.42.42,0,1,0,.2-.049" transform="translate(-90.764 -55.486)" fill="#263238"/>
            <path id="Trazado_600952" data-name="Trazado 600952" d="M196.154,115.323l1.527-.559,3.507,7.387-1.493.636Z" transform="translate(-92.064 -53.864)" fill="#e0e0e0"/>
            <path id="Trazado_600953" data-name="Trazado 600953" d="M129.283,110.311a4.938,4.938,0,0,1,.092.826c.059.58.136,1.337.23,2.249.22,1.946.515,4.545.839,7.416.321,2.9.577,5.528.7,7.438.064.954.091,1.728.1,2.264a4.788,4.788,0,0,1-.027.831,4.773,4.773,0,0,1-.08-.827c-.039-.532-.1-1.3-.185-2.253-.169-1.9-.455-4.524-.776-7.423s-.6-5.522-.76-7.428c-.08-.953-.124-1.726-.143-2.261a4.671,4.671,0,0,1,.015-.832" transform="translate(-60.669 -51.774)" fill="#263238"/>
            <path id="Trazado_600954" data-name="Trazado 600954" d="M133.886,117.253a30.259,30.259,0,0,1-1.005,3.957,30.223,30.223,0,0,1-1.271,3.88,30.284,30.284,0,0,1,1.005-3.957,30.332,30.332,0,0,1,1.271-3.88" transform="translate(-61.767 -55.032)" fill="#263238"/>
            <path id="Trazado_600955" data-name="Trazado 600955" d="M157.719,131.971a1.653,1.653,0,0,1-.356-.7,5.073,5.073,0,0,1,.234-3.729c.215-.439.413-.67.44-.652a7,7,0,0,0-.319,5.083" transform="translate(-73.741 -59.554)" fill="#263238"/>
            <path id="Trazado_600956" data-name="Trazado 600956" d="M154.135,168.612l2.054.159-.816,8.569-1.983-.226Z" transform="translate(-71.993 -79.137)" fill="#e0e0e0"/>
            <path id="Trazado_600957" data-name="Trazado 600957" d="M75.186,89.227l-11.073,7.06a7.193,7.193,0,0,0-2.685,8.157l8.495,26.689-3.063,24.25,24.269-1.029-.59-10.631-2.062-19.017a37.791,37.791,0,0,0-2.6-10.266Z" transform="translate(-28.658 -41.878)" fill="#005542"/>
            <path id="Trazado_600958" data-name="Trazado 600958" d="M65.193,111.924,76.27,135.1a6.86,6.86,0,0,0,4.608,3.717l30.735,7.28.783-8.947-23.461-8.824-11.8-22.651a6.738,6.738,0,1,0-11.94,6.248" transform="translate(-30.234 -47.896)" fill="#005542"/>
            <path id="Trazado_600959" data-name="Trazado 600959" d="M114.983,137.556a.494.494,0,0,1-.126-.034l-.362-.123-1.391-.5-5.146-1.894-17.346-6.483-.05-.019-.024-.049L88.5,124.41c-1.925-3.749-3.841-7.276-5.633-10.457-.9-1.59-1.761-3.095-2.578-4.5L79.1,107.43c-.188-.328-.381-.642-.582-.935a7.2,7.2,0,0,0-.629-.838,7.372,7.372,0,0,0-2.95-2.141,6.71,6.71,0,0,0-2.723-.486,4.868,4.868,0,0,0-2.28.609.645.645,0,0,1,.129-.092,2.153,2.153,0,0,1,.408-.223,4.767,4.767,0,0,1,1.737-.4,6.709,6.709,0,0,1,2.785.449,8.024,8.024,0,0,1,3.692,3.008c.209.3.406.616.595.94l1.2,2.019c.826,1.4,1.7,2.9,2.6,4.488,1.806,3.176,3.731,6.7,5.658,10.456.709,1.382,1.395,2.747,2.04,4.051l-.074-.067,17.314,6.569,5.117,1.971,1.374.543.353.146a.508.508,0,0,1,.117.058" transform="translate(-32.822 -48.301)" fill="#263238"/>
            <path id="Trazado_600960" data-name="Trazado 600960" d="M144.221,178.325a.433.433,0,1,1-.433-.433.433.433,0,0,1,.433.433" transform="translate(-67.283 -83.493)" fill="#263238"/>
            <path id="Trazado_600961" data-name="Trazado 600961" d="M143.776,178.76a.446.446,0,1,1,.446-.446.447.447,0,0,1-.446.446m0-.866a.42.42,0,1,0,.42.42.42.42,0,0,0-.42-.42" transform="translate(-67.271 -83.481)" fill="#263238"/>
            <path id="Trazado_600962" data-name="Trazado 600962" d="M147.321,179.141a.433.433,0,1,1-.433-.433.433.433,0,0,1,.433.433" transform="translate(-68.738 -83.875)" fill="#263238"/>
            <path id="Trazado_600963" data-name="Trazado 600963" d="M146.876,179.576a.446.446,0,1,1,.446-.446.447.447,0,0,1-.446.446m0-.866a.42.42,0,1,0,.42.42.42.42,0,0,0-.42-.42" transform="translate(-68.726 -83.864)" fill="#263238"/>
            <path id="Trazado_600964" data-name="Trazado 600964" d="M150.223,180.011a.433.433,0,1,1-.433-.433.433.433,0,0,1,.433.433" transform="translate(-70.1 -84.284)" fill="#263238"/>
            <path id="Trazado_600965" data-name="Trazado 600965" d="M149.778,180.446a.446.446,0,1,1,.446-.446.447.447,0,0,1-.446.446m0-.866a.42.42,0,1,0,.42.42.42.42,0,0,0-.42-.42" transform="translate(-70.088 -84.272)" fill="#263238"/>
            <path id="Trazado_600966" data-name="Trazado 600966" d="M114.2,158.725a.62.62,0,0,1-.15-.024l-.432-.1-1.656-.4-6.079-1.5c-5.133-1.26-12.215-3.041-20.069-4.86-.981-.235-1.956-.422-2.915-.681a6.4,6.4,0,0,1-2.627-1.312,7.659,7.659,0,0,1-1.607-2.332L77.507,145.1l-3.975-8.392c-1.116-2.379-2.022-4.31-2.659-5.667l-.71-1.546-.178-.405a.6.6,0,0,1-.053-.142.648.648,0,0,1,.078.131l.2.393L70.97,131l2.738,5.629,4.028,8.365,1.166,2.416a7.434,7.434,0,0,0,1.553,2.249,6.135,6.135,0,0,0,2.52,1.248c.938.254,1.923.443,2.9.677,7.86,1.821,14.934,3.632,20.055,4.94l6.057,1.581,1.643.446.425.123a.629.629,0,0,1,.143.051" transform="translate(-32.822 -60.522)" fill="#263238"/>
            <path id="Trazado_600967" data-name="Trazado 600967" d="M96.658,182.32c.011.016-.12.125-.366.309s-.608.442-1.065.748a17.173,17.173,0,0,1-3.818,1.985,8.716,8.716,0,0,1-4.279.429,5.668,5.668,0,0,1-1.261-.362,1.4,1.4,0,0,1-.423-.229,14.92,14.92,0,0,0,1.713.4,9.268,9.268,0,0,0,4.159-.5,20.438,20.438,0,0,0,3.8-1.889,13.248,13.248,0,0,1,1.536-.891" transform="translate(-40.104 -85.57)" fill="#263238"/>
            <path id="Trazado_600968" data-name="Trazado 600968" d="M97.747,188.121a.631.631,0,0,1,.076.2,4.654,4.654,0,0,1,.141.6,6.566,6.566,0,0,1-.021,2.251,6.876,6.876,0,0,1-1.38,3.039,6.807,6.807,0,0,1-7.492,2.093,6.867,6.867,0,0,1-2.755-1.884,6.561,6.561,0,0,1-1.184-1.914,4.588,4.588,0,0,1-.188-.582.633.633,0,0,1-.038-.21,8.111,8.111,0,0,0,1.555,2.575,6.861,6.861,0,0,0,2.7,1.776,6.657,6.657,0,0,0,7.209-2.014,6.853,6.853,0,0,0,1.385-2.915,8.1,8.1,0,0,0,0-3.008" transform="translate(-39.849 -88.293)" fill="#263238"/>
            <path id="Trazado_600969" data-name="Trazado 600969" d="M89.923,40.89l.07,19.773a5.882,5.882,0,1,0,11.764-.05c-.007-1.488-.01-2.73,0-2.883,0,0,5.032-.491,5.378-5.475.167-2.408.108-7.4,0-11.908a9.3,9.3,0,0,0-8.776-9.065l-.481-.028c-5.206.007-8.107,4.433-7.956,9.636" transform="translate(-42.202 -14.669)" fill="#b78876"/>
            <path id="Trazado_600970" data-name="Trazado 600970" d="M106.6,79.051a11.613,11.613,0,0,1-6.4-2.218s1.332,3.676,6.334,3.511Z" transform="translate(-47.028 -36.061)" fill="#aa6550"/>
            <path id="Trazado_600971" data-name="Trazado 600971" d="M118.776,53.31a.713.713,0,0,1-.728.679.682.682,0,0,1-.7-.684.714.714,0,0,1,.727-.68.683.683,0,0,1,.7.685" transform="translate(-55.078 -24.699)" fill="#263238"/>
            <path id="Trazado_600972" data-name="Trazado 600972" d="M117.816,51.593c-.093.088-.61-.342-1.377-.384s-1.35.309-1.427.211c-.039-.044.061-.206.316-.37a1.958,1.958,0,0,1,1.15-.284,1.876,1.876,0,0,1,1.089.421c.226.194.3.367.25.406" transform="translate(-53.976 -23.825)" fill="#263238"/>
            <path id="Trazado_600973" data-name="Trazado 600973" d="M104.744,53.2a.713.713,0,0,1-.728.679.682.682,0,0,1-.7-.684.714.714,0,0,1,.727-.68.683.683,0,0,1,.7.685" transform="translate(-48.492 -24.646)" fill="#263238"/>
            <path id="Trazado_600974" data-name="Trazado 600974" d="M103.441,51.267c-.094.088-.611-.342-1.377-.384s-1.35.309-1.428.211c-.038-.044.06-.206.316-.37a1.957,1.957,0,0,1,1.149-.284,1.878,1.878,0,0,1,1.089.421c.225.194.3.367.25.406" transform="translate(-47.229 -23.672)" fill="#263238"/>
            <path id="Trazado_600975" data-name="Trazado 600975" d="M110.5,57.69a5.12,5.12,0,0,1,1.258-.154c.2-.009.384-.037.424-.169a1,1,0,0,0-.1-.587l-.494-1.524a25.629,25.629,0,0,1-1.078-3.971,25.68,25.68,0,0,1,1.4,3.876q.245.8.469,1.53a1.132,1.132,0,0,1,.058.774.492.492,0,0,1-.338.268,1.332,1.332,0,0,1-.335.027,4.99,4.99,0,0,1-1.262-.07" transform="translate(-51.864 -24.07)" fill="#263238"/>
            <path id="Trazado_600976" data-name="Trazado 600976" d="M103.4,48.419c-.088.2-.847.062-1.752.119-.906.039-1.647.261-1.755.067-.048-.092.09-.281.394-.466A3.051,3.051,0,0,1,102.958,48c.322.152.479.325.441.422" transform="translate(-46.879 -22.413)" fill="#263238"/>
            <path id="Trazado_600977" data-name="Trazado 600977" d="M117.881,48.11c-.145.167-.662-.045-1.3-.089-.633-.067-1.179.05-1.292-.139-.049-.091.045-.261.29-.412a1.883,1.883,0,0,1,2.086.184c.214.192.278.375.213.457" transform="translate(-54.106 -22.17)" fill="#263238"/>
            <path id="Trazado_600978" data-name="Trazado 600978" d="M87.243,56.216c-.083-.042-3.369-1.209-3.454,2.207s3.361,2.8,3.37,2.7.084-4.906.084-4.906" transform="translate(-39.325 -26.279)" fill="#b78876"/>
            <path id="Trazado_600979" data-name="Trazado 600979" d="M86.914,60.768c-.015-.011-.06.04-.162.084a.594.594,0,0,1-.445,0,1.471,1.471,0,0,1-.648-1.338,1.966,1.966,0,0,1,.188-.848.686.686,0,0,1,.459-.445.3.3,0,0,1,.347.172c.044.1.02.164.038.17s.074-.055.05-.2a.378.378,0,0,0-.129-.218.45.45,0,0,0-.327-.1.837.837,0,0,0-.635.514,2.022,2.022,0,0,0-.23.947,1.545,1.545,0,0,0,.831,1.5.639.639,0,0,0,.547-.077c.108-.082.128-.158.116-.164" transform="translate(-40.091 -27.245)" fill="#aa6550"/>
            <path id="Trazado_600980" data-name="Trazado 600980" d="M86.415,43.781a1.8,1.8,0,0,1,1.594.934c.194.5.211,1.054.4,1.554a1.208,1.208,0,0,0,1.2.876,1.05,1.05,0,0,0,.755-.738,2.885,2.885,0,0,0,.073-1.1c-.11-1.6-.354-3.2-.327-4.809a8.2,8.2,0,0,1,1.271-4.578A4.488,4.488,0,0,1,95.5,33.906c1.055.146,2,.754,3.04.962a4.172,4.172,0,0,0,3.526-.958,1.586,1.586,0,0,1,.168-.12.92.92,0,0,0,.389-1.044.887.887,0,0,0-.183-.338c-1.978-2.05-5.711-2.8-8.509-2.267A9.965,9.965,0,0,0,87.1,34.994c-1.335,2.517-1.187,6.133-.682,8.787" transform="translate(-40.388 -14.067)" fill="#263238"/>
            <path id="Trazado_600981" data-name="Trazado 600981" d="M106.984,64.488c.125-.007.126.823.837,1.413s1.595.5,1.6.614c.011.052-.2.161-.571.171a2.067,2.067,0,0,1-1.336-.466,1.8,1.8,0,0,1-.648-1.184c-.032-.347.061-.553.118-.548" transform="translate(-50.154 -30.267)" fill="#263238"/>
            <path id="Trazado_600982" data-name="Trazado 600982" d="M196.95,114.079a42.361,42.361,0,0,1,4.448-3.527c.708-.24,6.338-.345,6.719-.063s6.079,3.408,5.136,3.887-4.9-1.76-4.9-1.76l-.665.088a27.5,27.5,0,0,1,4.063,2.55c.566.653.024,1.434-.62,1.135s-3.6-2.008-3.836-1.943,3.153,2.046,3.465,2.412c.419.493.149,1.448-.5,1.173-.383-.163-3.507-2.232-3.507-2.232a30.955,30.955,0,0,1,2.526,2.312c.276.531-.254,1.011-.8.678-.374-.229-1.979-1.808-2.48-2.114,0,0-.553-.039-1.366.827s-4.019,2.055-4.019,2.055Z" transform="translate(-92.437 -51.778)" fill="#b78876"/>
            <path id="Trazado_600983" data-name="Trazado 600983" d="M220.736,116.217a2.966,2.966,0,0,1-1.209-.076,6.922,6.922,0,0,1-1.266-.379c-.445-.212-.926-.457-1.433-.715l-1.072-.555.071.017a17.251,17.251,0,0,1-2.895-.082,17.173,17.173,0,0,1,2.89-.205h.034l.037.018,1.068.539,1.409.729a8.5,8.5,0,0,0,1.206.427c.707.191,1.164.237,1.161.283" transform="translate(-99.938 -53.609)" fill="#aa6550"/>
            <path id="Trazado_600984" data-name="Trazado 600984" d="M199.573,116.881a1.278,1.278,0,0,0,1.408.484c.521-.111.99-.395,1.5-.543,1.531-.443,3.234.376,4.742-.139.21-.072.447-.227.421-.447-.023-.2-.254-.306-.45-.369l-5.03-1.6" transform="translate(-93.668 -53.63)" fill="#b78876"/>
            <path id="Trazado_600985" data-name="Trazado 600985" d="M202.164,114.262a2.122,2.122,0,0,1,.561.117c.356.094.867.24,1.5.427l2.21.67.637.2c.2.079.49.093.68.4a.445.445,0,0,1-.079.494.91.91,0,0,1-.361.236,3.439,3.439,0,0,1-.759.17,20.209,20.209,0,0,1-2.84-.153,3.968,3.968,0,0,0-1.184.112c-.358.1-.683.253-1,.366a1.861,1.861,0,0,1-1.574.012c-.344-.2-.4-.44-.383-.437a1.539,1.539,0,0,0,.436.332,1.8,1.8,0,0,0,1.444-.106c.3-.12.621-.29,1.007-.407a4.084,4.084,0,0,1,1.26-.15,23.533,23.533,0,0,0,2.8.131,3.241,3.241,0,0,0,.687-.15c.206-.074.347-.223.282-.321-.055-.118-.285-.193-.5-.259l-.635-.207-2.19-.732c-.622-.212-1.124-.389-1.468-.518a2.106,2.106,0,0,1-.526-.229" transform="translate(-93.666 -53.626)" fill="#aa6550"/>
            <path id="Trazado_600986" data-name="Trazado 600986" d="M155.054,168.463l6.2-.615s8.2,5.619,7.417,6.855-2.135,0-2.135,0a1.362,1.362,0,0,1-.9,2.36s-.562,1.236-1.461,1.123l-.562.007s-.508,1.566-1.266,1.229a24.616,24.616,0,0,1-3.047-2.36l-6.363-.562Z" transform="translate(-71.783 -78.778)" fill="#b78876"/>
            <path id="Trazado_600987" data-name="Trazado 600987" d="M162.263,180.973s-1.589.61-1.919,1.248-.522,2.142.5,2.416a9.086,9.086,0,0,0,1.8-.057l-.392-1.67a11.711,11.711,0,0,1,.948-.98c.338-.281-.032-1.38-.944-.957" transform="translate(-75.133 -84.894)" fill="#ffbe9d"/>
            <path id="Trazado_600988" data-name="Trazado 600988" d="M165.74,182.572s-1.589.61-1.919,1.248a1.4,1.4,0,0,0,.913,1.983,7.4,7.4,0,0,0,1.639-.056l-.167-.324c-.322-.626-.46-1.133.107-1.552.031-.023.348-.32.371-.342a.692.692,0,0,0-.944-.957" transform="translate(-76.821 -85.644)" fill="#ffbe9d"/>
            <path id="Trazado_600989" data-name="Trazado 600989" d="M168.065,186.924a.922.922,0,0,1-.129-1.092,1.505,1.505,0,0,1,.931-.679.7.7,0,0,1,.726.118.613.613,0,0,1,.1.477,2.5,2.5,0,0,1-.624,1.161c-.148.185-.33.388-.567.382s-.417-.227-.553-.428" transform="translate(-78.763 -86.879)" fill="#ffbe9d"/>
            <path id="Trazado_600990" data-name="Trazado 600990" d="M104.292,93.811l1.395-.528,1.209,2.161-.673,2.306L104.8,98.1l-1.418-1.787Z" transform="translate(-48.522 -43.782)" fill="#e8505b"/>
            <path id="Trazado_600991" data-name="Trazado 600991" d="M106.055,102.053s1.805,9.929,3.31,16.913c0,0,1.234,5.814,1.734,7.155a19.626,19.626,0,0,0,2.274,3.735l1.747.676-1.067-9.813L107.478,101.7Z" transform="translate(-49.776 -47.733)" fill="#e8505b"/>
            <g id="Grupo_886610" data-name="Grupo 886610" transform="translate(54.86 49.501)">
              <g id="Grupo_886609" data-name="Grupo 886609">
                <g id="Grupo_886608" data-name="Grupo 886608" clip-path="url(#clip-path-5)">
                  <path id="Trazado_600992" data-name="Trazado 600992" d="M104.292,93.811l1.395-.528,1.209,2.161-.673,2.306L104.8,98.1l-1.418-1.787Z" transform="translate(-103.382 -93.283)"/>
                </g>
              </g>
            </g>
            <g id="Grupo_886613" data-name="Grupo 886613" transform="translate(56.279 53.968)">
              <g id="Grupo_886612" data-name="Grupo 886612">
                <g id="Grupo_886611" data-name="Grupo 886611" clip-path="url(#clip-path-6)">
                  <path id="Trazado_600993" data-name="Trazado 600993" d="M106.055,102.053s1.805,9.929,3.31,16.913c0,0,1.414,5.76,1.734,7.155a23.575,23.575,0,0,0,2.274,3.735l1.747.676-1.067-9.813L107.478,101.7Z" transform="translate(-106.055 -101.701)"/>
                </g>
              </g>
            </g>
            <path id="Trazado_600994" data-name="Trazado 600994" d="M88.388,82.908l8.372,6.034-1.81,4.978-7.618-7.844Z" transform="translate(-40.989 -38.912)" fill="#f5f5f5"/>
            <path id="Trazado_600995" data-name="Trazado 600995" d="M107.725,88.667l2.34-5.219,1.323,4.3-1.838,4.525Z" transform="translate(-50.56 -39.166)" fill="#f5f5f5"/>
            <path id="Trazado_600996" data-name="Trazado 600996" d="M96.919,91.381a1.4,1.4,0,0,1-.094.383c-.094.289-.206.634-.339,1.041-.3.888-.735,2.139-1.256,3.6l-.072.2-.145-.16-1.952-2.152c-1.517-1.683-2.878-3.217-3.853-4.337L88.065,88.62a2.961,2.961,0,0,1-.392-.515,2.89,2.89,0,0,1,.472.443l1.209,1.276c1.012,1.086,2.4,2.6,3.913,4.282l1.938,2.165-.218.042c.539-1.453,1.008-2.692,1.349-3.564l.409-1.016a1.389,1.389,0,0,1,.174-.353" transform="translate(-41.148 -41.351)" fill="#263238"/>
            <path id="Trazado_600997" data-name="Trazado 600997" d="M111.409,91.561a5.91,5.91,0,0,1-.391,1.221c-.275.741-.67,1.758-1.124,2.875-.067.165-.134.326-.2.481l-.137.336-.119-.342a23.441,23.441,0,0,0-1.669-3.429,3.54,3.54,0,0,1,.7.871,11.555,11.555,0,0,1,1.23,2.466l-.257-.006.194-.481c.454-1.116.879-2.122,1.2-2.844a5.92,5.92,0,0,1,.572-1.148" transform="translate(-50.581 -42.973)" fill="#263238"/>
          </g>
        </g>
        <g id="Grupo_886623" data-name="Grupo 886623">
          <g id="Grupo_886622" data-name="Grupo 886622" clip-path="url(#clip-path-2)">
            <path id="Trazado_600998" data-name="Trazado 600998" d="M307.159,387.672l3.229,12.813,5.476,9.4a1.354,1.354,0,0,1-1.808,1.875c-2.459-1.327-11.48-6.252-11.664-7.2-.213-1.1-4.3-13.289-4.3-13.289Z" transform="translate(-139.906 -181.951)" fill="#efefef"/>
            <g id="Grupo_886618" data-name="Grupo 886618" transform="translate(162.248 221.744)" opacity="0.6">
              <g id="Grupo_886617" data-name="Grupo 886617">
                <g id="Grupo_886616" data-name="Grupo 886616" clip-path="url(#clip-path-8)">
                  <path id="Trazado_600999" data-name="Trazado 600999" d="M318.89,425.949l-13.14-8.082.149.54a2.037,2.037,0,0,0,.818,1.145c1.071.726,4.074,2.669,10.9,6.389a1.354,1.354,0,0,0,1.278.009" transform="translate(-305.749 -417.867)" fill="#fff"/>
                </g>
              </g>
            </g>
            <g id="Grupo_886621" data-name="Grupo 886621" transform="translate(162.7 216.866)" opacity="0.6">
              <g id="Grupo_886620" data-name="Grupo 886620">
                <g id="Grupo_886619" data-name="Grupo 886619" clip-path="url(#clip-path-9)">
                  <path id="Trazado_601000" data-name="Trazado 601000" d="M307.627,408.722a.819.819,0,0,1,.5.972.788.788,0,0,1-.958.505.865.865,0,0,1-.525-1.032.817.817,0,0,1,1.055-.415" transform="translate(-306.601 -408.675)" fill="#fff"/>
                </g>
              </g>
            </g>
            <path id="Trazado_601001" data-name="Trazado 601001" d="M322.094,422.317a2.919,2.919,0,0,1,2.231-1.985c0-.034-.186-.089-.5-.048a2.159,2.159,0,0,0-1.726,1.535c-.076.3-.044.5-.01.5" transform="translate(-151.156 -197.251)" fill="#263238"/>
            <path id="Trazado_601002" data-name="Trazado 601002" d="M324.712,425.6c.076.038.37-.489.976-.86a11.032,11.032,0,0,1,1.2-.5,1.5,1.5,0,0,0-1.354.258c-.689.427-.9,1.089-.823,1.105" transform="translate(-152.395 -199.083)" fill="#263238"/>
            <path id="Trazado_601003" data-name="Trazado 601003" d="M317.8,418.755a6.96,6.96,0,0,1,3.185-2.391,3.7,3.7,0,0,0-3.185,2.391" transform="translate(-149.153 -195.408)" fill="#263238"/>
            <path id="Trazado_601004" data-name="Trazado 601004" d="M315.34,412.668c.055.067.677-.421,1.583-.708s1.693-.266,1.7-.353a3.361,3.361,0,0,0-3.282,1.061" transform="translate(-148.001 -193.133)" fill="#263238"/>
            <path id="Trazado_601005" data-name="Trazado 601005" d="M313.375,405.648a4.3,4.3,0,0,1,3.435-.824c.014-.032-.17-.153-.51-.242a2.949,2.949,0,0,0-2.58.618c-.263.233-.371.425-.345.447" transform="translate(-147.079 -189.851)" fill="#263238"/>
            <path id="Trazado_601006" data-name="Trazado 601006" d="M313.984,401.648a1.133,1.133,0,0,0-.116-.487,3.476,3.476,0,0,0-.732-1.156,1.541,1.541,0,0,0-.832-.533.545.545,0,0,0-.559.281.887.887,0,0,0-.042.63,1.915,1.915,0,0,0,2.089,1.26,2.22,2.22,0,0,0,1.792-1.7.772.772,0,0,0-.136-.627.533.533,0,0,0-.613-.123,1.889,1.889,0,0,0-.719.668,3.887,3.887,0,0,0-.6,1.23,1.187,1.187,0,0,0-.074.494,6.159,6.159,0,0,1,.833-1.6,1.767,1.767,0,0,1,.641-.567.284.284,0,0,1,.335.065.529.529,0,0,1,.065.418,1.98,1.98,0,0,1-1.571,1.456,1.661,1.661,0,0,1-1.788-1.044.643.643,0,0,1,.011-.442.294.294,0,0,1,.306-.159,1.392,1.392,0,0,1,.713.438,5.124,5.124,0,0,1,.993,1.5" transform="translate(-146.278 -187.337)" fill="#263238"/>
            <path id="Trazado_601007" data-name="Trazado 601007" d="M231.659,391.874l.684,9.875s-9.808,4.012-9.859,5.849l19.194-.639-.435-15.43Z" transform="translate(-104.422 -183.762)" fill="#efefef"/>
            <path id="Trazado_601008" data-name="Trazado 601008" d="M251.385,408.824a.785.785,0,0,1,.572.877.754.754,0,0,1-.864.574.827.827,0,0,1-.6-.931.782.782,0,0,1,.965-.5" transform="translate(-117.556 -191.866)" fill="#e0e0e0"/>
            <path id="Trazado_601009" data-name="Trazado 601009" d="M241.669,419.232l-.1-1.554L223.2,418.871s-.842.4-.725,1Z" transform="translate(-104.412 -196.035)" fill="#e0e0e0"/>
            <path id="Trazado_601010" data-name="Trazado 601010" d="M240.469,410.537c.006.094.477.121.947.406s.73.672.815.632c.086-.021-.073-.577-.649-.913s-1.137-.211-1.113-.125" transform="translate(-112.863 -192.637)" fill="#263238"/>
            <path id="Trazado_601011" data-name="Trazado 601011" d="M236.728,412.281c-.019.092.393.237.724.623s.437.8.531.794c.089.012.135-.539-.286-1.011s-.97-.5-.969-.407" transform="translate(-111.107 -193.482)" fill="#263238"/>
            <path id="Trazado_601012" data-name="Trazado 601012" d="M234.015,415.522c.086.017.2-.455-.057-.961s-.7-.7-.74-.616.244.344.449.763.255.808.348.814" transform="translate(-109.457 -194.274)" fill="#263238"/>
            <path id="Trazado_601013" data-name="Trazado 601013" d="M240.644,406.024c.042.084.467-.059,1-.041s.949.172,1,.09-.362-.4-.988-.416-1.055.3-1.007.368" transform="translate(-112.943 -190.392)" fill="#263238"/>
            <path id="Trazado_601014" data-name="Trazado 601014" d="M240.456,401.152a1.8,1.8,0,0,0,.961-.037,4.29,4.29,0,0,0,1-.342,4.577,4.577,0,0,0,.542-.311,1.191,1.191,0,0,0,.283-.236.409.409,0,0,0,.027-.5.515.515,0,0,0-.418-.2,1.255,1.255,0,0,0-.359.062,3.456,3.456,0,0,0-.591.225,3.4,3.4,0,0,0-.867.611c-.432.427-.572.783-.54.8s.25-.271.692-.627a3.847,3.847,0,0,1,.841-.512,3.513,3.513,0,0,1,.547-.188c.2-.06.374-.067.429.021.02.034.023.047-.017.108a.94.94,0,0,1-.208.172,4.94,4.94,0,0,1-.5.307,5.362,5.362,0,0,1-.918.387,6.548,6.548,0,0,0-.9.26" transform="translate(-112.857 -187.515)" fill="#263238"/>
            <path id="Trazado_601015" data-name="Trazado 601015" d="M239.517,400.16a1.532,1.532,0,0,0,.223-.937,3.1,3.1,0,0,0-.431-1.623.793.793,0,0,0-.629-.465.449.449,0,0,0-.393.281,1.277,1.277,0,0,0-.087.356,2.131,2.131,0,0,0,.021.647,2.212,2.212,0,0,0,.444.98c.392.485.786.584.793.552.03-.048-.3-.218-.606-.687a2.219,2.219,0,0,1-.334-.893,1.97,1.97,0,0,1,0-.556c.023-.2.094-.372.171-.354.1,0,.263.144.346.3a3.169,3.169,0,0,1,.256.513,3.463,3.463,0,0,1,.218.953c.045.563-.044.916.008.929" transform="translate(-111.79 -186.393)" fill="#263238"/>
            <path id="Trazado_601016" data-name="Trazado 601016" d="M229.9,189.749l3.087,114.917,15.141-.455-1.163-98.63,19.295,101.372,13.676-3.57L262.284,189.968Z" transform="translate(-107.904 -89.058)" fill="#263238"/>
            <path id="Trazado_601017" data-name="Trazado 601017" d="M245.417,312.482c-.076,0-.138-23.821-.138-53.2s.062-53.2.138-53.2.138,23.816.138,53.2-.062,53.2-.138,53.2" transform="translate(-115.12 -96.721)" fill="#455a64"/>
            <path id="Trazado_601018" data-name="Trazado 601018" d="M292.831,320.283c-.075.012-3.613-22.828-7.9-51.006s-7.7-51.041-7.627-51.052,3.612,22.822,7.9,51.011,7.7,51.036,7.627,51.048" transform="translate(-130.151 -102.423)" fill="#455a64"/>
            <path id="Trazado_601019" data-name="Trazado 601019" d="M252.336,41.788a23.6,23.6,0,0,0,1.28-3.657,6.465,6.465,0,0,0,.084-3.278,2.293,2.293,0,0,0-2.48-1.5A5.541,5.541,0,0,0,248.013,29a14.111,14.111,0,0,0-5.311-1.38,4.506,4.506,0,0,0-1.991.249,2.551,2.551,0,0,0-1.2,1.291,4.4,4.4,0,0,0-3.9-.626c-1.46.4-3.128,1.186-3.769,2.557a4.274,4.274,0,0,0-.116,3.239c.284.892,1.228,2.293,2.106,1.967" transform="translate(-108.639 -12.958)" fill="#263238"/>
            <path id="Trazado_601020" data-name="Trazado 601020" d="M246.749,71.122h0a6.556,6.556,0,0,1-6.411-6.881c.092-1.834.177-3.313.177-3.313s-5-.649-5.183-5.623.39-16.423.39-16.423a17.3,17.3,0,0,1,17.432,1.749l.751.549L253.439,64.7a6.555,6.555,0,0,1-6.691,6.424" transform="translate(-110.434 -17.507)" fill="#ffbe9d"/>
            <path id="Trazado_601021" data-name="Trazado 601021" d="M245.05,79.916a11.578,11.578,0,0,0,6.441-2.006,6.327,6.327,0,0,1-6.512,3.537Z" transform="translate(-114.979 -36.567)" fill="#eb996e"/>
            <path id="Trazado_601022" data-name="Trazado 601022" d="M269.389,54.189c.084-.039,3.394-1.1,3.37,2.308s-3.437,2.679-3.442,2.581.072-4.889.072-4.889" transform="translate(-126.402 -25.346)" fill="#ffbe9d"/>
            <path id="Trazado_601023" data-name="Trazado 601023" d="M271.292,58.77c.015-.011.059.042.159.089a.6.6,0,0,0,.444.012,1.467,1.467,0,0,0,.688-1.312,1.957,1.957,0,0,0-.16-.85.685.685,0,0,0-.443-.458.3.3,0,0,0-.351.16c-.046.095-.025.163-.043.169s-.073-.058-.045-.2a.381.381,0,0,1,.135-.212.448.448,0,0,1,.329-.085.834.834,0,0,1,.616.532,2.022,2.022,0,0,1,.2.95,1.541,1.541,0,0,1-.876,1.465.636.636,0,0,1-.542-.094c-.105-.085-.122-.161-.11-.167" transform="translate(-127.328 -26.321)" fill="#eb996e"/>
            <path id="Trazado_601024" data-name="Trazado 601024" d="M238.534,54.342a.711.711,0,0,0,.7.7.68.68,0,0,0,.716-.659.711.711,0,0,0-.7-.7.68.68,0,0,0-.717.66" transform="translate(-111.954 -25.196)" fill="#263238"/>
            <path id="Trazado_601025" data-name="Trazado 601025" d="M238.193,52.736c.09.09.619-.322,1.383-.339s1.335.351,1.415.255c.04-.042-.054-.207-.3-.379a1.953,1.953,0,0,0-1.136-.319,1.874,1.874,0,0,0-1.1.385c-.231.186-.306.356-.262.4" transform="translate(-111.789 -24.384)" fill="#263238"/>
            <path id="Trazado_601026" data-name="Trazado 601026" d="M252.655,54.327a.711.711,0,0,0,.7.7.68.68,0,0,0,.716-.659.711.711,0,0,0-.7-.7.68.68,0,0,0-.717.66" transform="translate(-118.582 -25.188)" fill="#263238"/>
            <path id="Trazado_601027" data-name="Trazado 601027" d="M252.364,52.649c.091.091.62-.321,1.384-.338s1.335.351,1.415.255c.04-.042-.054-.207-.3-.379a1.947,1.947,0,0,0-1.136-.32,1.881,1.881,0,0,0-1.1.386c-.23.186-.306.356-.262.4" transform="translate(-118.44 -24.343)" fill="#263238"/>
            <path id="Trazado_601028" data-name="Trazado 601028" d="M245.678,58.516a5.068,5.068,0,0,0-1.248-.193c-.2-.015-.382-.05-.418-.182a.99.99,0,0,1,.116-.582q.257-.716.54-1.5a25.616,25.616,0,0,0,1.2-3.922,25.585,25.585,0,0,0-1.512,3.816q-.27.79-.515,1.51a1.127,1.127,0,0,0-.082.768.489.489,0,0,0,.328.278,1.348,1.348,0,0,0,.333.038,4.992,4.992,0,0,0,1.259-.03" transform="translate(-114.387 -24.469)" fill="#263238"/>
            <path id="Trazado_601029" data-name="Trazado 601029" d="M249.569,65.05c-.125,0-.106.826-.8,1.433s-1.582.538-1.585.654c-.011.052.2.156.575.157a2.067,2.067,0,0,0,1.324-.5,1.8,1.8,0,0,0,.619-1.2c.023-.348-.075-.551-.132-.545" transform="translate(-116.014 -30.531)" fill="#263238"/>
            <path id="Trazado_601030" data-name="Trazado 601030" d="M251.858,47.163c.081.206.842.088,1.742.174.9.067,1.632.312,1.746.123.051-.091-.08-.283-.378-.477a3.041,3.041,0,0,0-2.657-.226c-.326.141-.488.308-.453.406" transform="translate(-118.206 -21.849)" fill="#263238"/>
            <path id="Trazado_601031" data-name="Trazado 601031" d="M238.61,48.513c.139.17.661-.023,1.294-.047.633-.047,1.173.087,1.292-.1.052-.09-.037-.262-.275-.42a1.875,1.875,0,0,0-2.083.117c-.22.184-.289.365-.227.448" transform="translate(-111.98 -22.382)" fill="#263238"/>
            <path id="Trazado_601032" data-name="Trazado 601032" d="M253.08,40.485a36.125,36.125,0,0,1,.115,4.489c-.033.215-.577.8-.621,1.018-.261,1.268-.77,1.821-1.552.54a11.362,11.362,0,0,1-.647-2.439q-.511-2.286-1.021-4.572a7.958,7.958,0,0,1-3.76.992,3.869,3.869,0,0,1-3.282-1.826,4.014,4.014,0,0,1-6.205.973,1.677,1.677,0,0,1-2.2.528,1.99,1.99,0,0,1-.863-2.175c.312-1.223,1.6-1.914,2.8-2.3,4.7-1.511,9.958-.551,14.275,1.839a7.219,7.219,0,0,1,1.75,1.251c.5.519,1.189,1.126,1.227,1.845" transform="translate(-109.347 -16.42)" fill="#263238"/>
            <path id="Trazado_601033" data-name="Trazado 601033" d="M264.118,44.485a2.445,2.445,0,0,1,.773.124,2.642,2.642,0,0,1,.71.457c.241.211.483.489.773.759a2.507,2.507,0,0,0,.967.608,1.723,1.723,0,0,0,.943.013c.526-.148.736-.438.71-.455a5.532,5.532,0,0,1-.754.254,1.683,1.683,0,0,1-.817-.067,2.479,2.479,0,0,1-.852-.566c-.277-.257-.525-.533-.8-.752a2.457,2.457,0,0,0-.815-.446c-.535-.157-.864.048-.84.072" transform="translate(-123.961 -20.817)" fill="#455a64"/>
            <path id="Trazado_601034" data-name="Trazado 601034" d="M265.213,47.344a1.531,1.531,0,0,1,.539.24,2.77,2.77,0,0,1,.433.492,2.322,2.322,0,0,0,2.2.93c.409-.062.622-.213.608-.243s-.248.033-.625.038a2.56,2.56,0,0,1-1.379-.371c-.486-.275-.728-.791-1.117-1.016s-.682-.1-.656-.07" transform="translate(-124.475 -22.189)" fill="#455a64"/>
            <path id="Trazado_601035" data-name="Trazado 601035" d="M238.748,29.152c0-.015-.161-.041-.437.041a1.905,1.905,0,0,0-.959.721,4.558,4.558,0,0,0-.278,3.837,5.4,5.4,0,0,0,2.437,3,4.781,4.781,0,0,0,1.089.465,1.05,1.05,0,0,0,.428.072,14.264,14.264,0,0,1-1.41-.713,5.524,5.524,0,0,1-2.267-2.913,4.582,4.582,0,0,1,.171-3.63,1.956,1.956,0,0,1,.829-.73c.244-.108.4-.123.4-.147" transform="translate(-111.137 -13.675)" fill="#455a64"/>
            <path id="Trazado_601036" data-name="Trazado 601036" d="M232.687,33.06a2.179,2.179,0,0,0,.042.959,5.934,5.934,0,0,0,2.521,3.79,2.17,2.17,0,0,0,.868.41A9.663,9.663,0,0,1,233.855,36a9.664,9.664,0,0,1-1.168-2.944" transform="translate(-109.196 -15.516)" fill="#455a64"/>
            <path id="Trazado_601037" data-name="Trazado 601037" d="M173.111,163.743l-7.281.369a1.719,1.719,0,0,0-1.635,1.75c.035,1.663.315,3.941,1.612,3.725l.83-3.625,6.042,5.331a4.384,4.384,0,0,0,2.177,1.067l1.42-.147Z" transform="translate(-77.064 -76.852)" fill="#ffbe9d"/>
            <path id="Trazado_601038" data-name="Trazado 601038" d="M241.577,89.076l-3.806,1.257-1.888,31.6v28.031l23.365,2.588.271-40.426-1.509-20.12-3.569-4.265Z" transform="translate(-110.71 -41.183)" fill="#e0e0e0"/>
            <path id="Trazado_601039" data-name="Trazado 601039" d="M244.406,88.687V85.624l13.885-1.932-.558,7.055-3.191,5.531-5.214.291L245.56,94.24Z" transform="translate(-114.711 -39.28)" fill="#e0e0e0"/>
            <path id="Trazado_601040" data-name="Trazado 601040" d="M246.669,89.965a7.1,7.1,0,0,1,.119-2.788,7.1,7.1,0,0,1-.119,2.788" transform="translate(-115.73 -40.916)" fill="#263238"/>
            <path id="Trazado_601041" data-name="Trazado 601041" d="M253.228,89.2a8.878,8.878,0,0,1,.182-3.113,8.843,8.843,0,0,1-.182,3.113" transform="translate(-118.816 -40.405)" fill="#263238"/>
            <path id="Trazado_601042" data-name="Trazado 601042" d="M259.567,88.383a9.909,9.909,0,0,1,.241-3.288,9.911,9.911,0,0,1-.241,3.288" transform="translate(-121.797 -39.939)" fill="#263238"/>
            <path id="Trazado_601043" data-name="Trazado 601043" d="M265.581,87.537a6.4,6.4,0,0,1,.142-3.117,5.592,5.592,0,0,1,.012,1.562,5.636,5.636,0,0,1-.154,1.554" transform="translate(-124.587 -39.622)" fill="#263238"/>
            <path id="Trazado_601044" data-name="Trazado 601044" d="M256.5,115.468a2.1,2.1,0,0,1-.184.519c-.134.327-.343.794-.613,1.366-.54,1.143-1.344,2.7-2.33,4.356s-1.968,3.107-2.714,4.127c-.372.51-.683.918-.906,1.191a2.1,2.1,0,0,1-.368.41,18.534,18.534,0,0,1,1.114-1.713c.7-1.046,1.654-2.5,2.637-4.157s1.809-3.184,2.392-4.3a18.719,18.719,0,0,1,.973-1.8" transform="translate(-117.045 -54.194)" fill="#263238"/>
            <path id="Trazado_601045" data-name="Trazado 601045" d="M268.652,86.818l3.77,1.815,7.278,1.78a6.063,6.063,0,0,1,4.976,6.745l-3.811,29.721,4.548,28.814-18.041-.538-1.058-10.719V114.722Z" transform="translate(-124.993 -40.747)" fill="#455a64"/>
            <path id="Trazado_601046" data-name="Trazado 601046" d="M266.312,122.008a1.841,1.841,0,0,1,.053-.368c.052-.266.12-.613.2-1.045.2-.936.469-2.237.8-3.831l2.753-12.615c.3-1.354.594-2.671.876-3.935l.034.122-1.25-1.308-.07-.073.052-.085,2.1-3.491-.007.1-2.311-5.6-.628-1.57a3.807,3.807,0,0,1-.2-.564,3.825,3.825,0,0,1,.264.536l.687,1.545,2.4,5.566.023.053-.03.051L269.994,99l-.018-.158,1.256,1.3.05.052-.015.071c-.279,1.264-.57,2.583-.869,3.936l-2.833,12.6c-.37,1.586-.672,2.88-.889,3.812l-.256,1.034a1.829,1.829,0,0,1-.107.356" transform="translate(-124.991 -41.183)" fill="#263238"/>
            <path id="Trazado_601047" data-name="Trazado 601047" d="M181.578,128.71l15.962-8.9,7.735-20.859a11.2,11.2,0,0,1,6.191-6.445l2.053-.856.01,54.922.411,13.01-8.649-2.59,4.41-26.15-1.524-12.871-1.516,6.227a8.456,8.456,0,0,1-3.94,5.3l-16.617,8.631Z" transform="translate(-85.223 -43.016)" fill="#455a64"/>
            <path id="Trazado_601048" data-name="Trazado 601048" d="M180.756,162.248l-1.344.4,3.779,9.009,1.761-.683Z" transform="translate(-84.206 -76.15)" fill="#e0e0e0"/>
            <path id="Trazado_601049" data-name="Trazado 601049" d="M214.481,148.534a7.42,7.42,0,0,0-2.96-3.565,4.469,4.469,0,0,1,2.96,3.565" transform="translate(-99.275 -68.036)" fill="#263238"/>
            <path id="Trazado_601050" data-name="Trazado 601050" d="M184.916,161.629c.017.037-.079.108-.088.263a.239.239,0,1,0,.412-.121c-.092-.125-.211-.133-.217-.173s.149-.119.351.031a.473.473,0,1,1-.737.217c.089-.236.277-.252.278-.217" transform="translate(-86.646 -75.82)" fill="#263238"/>
            <path id="Trazado_601051" data-name="Trazado 601051" d="M187.343,160.606c.017.037-.079.108-.088.262a.239.239,0,1,0,.412-.121c-.092-.125-.211-.133-.217-.173s.149-.119.351.032a.472.472,0,1,1-.737.217c.089-.236.277-.252.278-.217" transform="translate(-87.785 -75.339)" fill="#263238"/>
            <path id="Trazado_601052" data-name="Trazado 601052" d="M239.593,124.689a1.618,1.618,0,0,1-.07-.339c-.038-.252-.086-.576-.147-.979-.12-.885-.287-2.108-.49-3.6-.391-3.078-.923-7.273-1.512-11.907q-.121-.988-.239-1.946l0-.035.013-.032,1.166-2.964,0,.1-1.152-2.63-.018-.04.011-.041,1.729-6.252.506-1.754a4.177,4.177,0,0,1,.2-.616,4.15,4.15,0,0,1-.131.635c-.11.44-.257,1.034-.44,1.771l-1.633,6.278-.006-.081c.368.827.76,1.7,1.17,2.622l.022.05-.02.051-1.155,2.968.008-.067q.119.957.241,1.946c.557,4.638,1.062,8.836,1.432,11.916.167,1.5.3,2.728.4,3.616.039.4.071.731.1.985a1.6,1.6,0,0,1,.015.345" transform="translate(-111.296 -43.016)" fill="#263238"/>
            <path id="Trazado_601053" data-name="Trazado 601053" d="M231.471,143.018a.959.959,0,0,1-.055-.26l-.1-.75c-.086-.695-.2-1.629-.341-2.764-.283-2.334-.679-5.557-1.156-9.111s-.946-6.769-1.289-9.095c-.165-1.131-.3-2.063-.4-2.755l-.1-.751a.962.962,0,0,1-.015-.265.983.983,0,0,1,.071.256l.149.743c.125.646.292,1.582.488,2.742.393,2.319.891,5.531,1.37,9.089s.844,6.786,1.077,9.127c.117,1.17.2,2.118.253,2.774.021.3.038.551.052.756a.952.952,0,0,1,0,.265" transform="translate(-107.014 -55.038)" fill="#263238"/>
            <path id="Trazado_601054" data-name="Trazado 601054" d="M230.374,193.691a2.589,2.589,0,0,0,.37.446,1.684,1.684,0,0,0,1.456.326,2.475,2.475,0,0,0,1.58-1.554,9.7,9.7,0,0,0,.446-2.855,6.547,6.547,0,0,0-.3-2.847,5.22,5.22,0,0,0-1.447-1.828,6.746,6.746,0,0,1-1.1-1.2,1.465,1.465,0,0,1-.261-.541c.022-.011.115.181.348.478a8.222,8.222,0,0,0,1.148,1.121,5.187,5.187,0,0,1,1.551,1.875,6.568,6.568,0,0,1,.336,2.961,9.421,9.421,0,0,1-.486,2.935,2.643,2.643,0,0,1-1.772,1.648,1.757,1.757,0,0,1-1.573-.438,1.257,1.257,0,0,1-.258-.373c-.036-.1-.048-.15-.039-.153" transform="translate(-108.123 -86.189)" fill="#263238"/>
            <path id="Trazado_601055" data-name="Trazado 601055" d="M219.2,157.862s.515-6.086,5.348-6.649a7.14,7.14,0,0,1-5.348,6.649" transform="translate(-102.881 -70.971)" fill="#263238"/>
            <path id="Trazado_601056" data-name="Trazado 601056" d="M267.883,186.535c.317.211,14.034,9.18,14.034,9.18l1.583-1.266.748-20.576-13.366-10.13-1.839.633Z" transform="translate(-125.729 -76.852)" fill="#e8505b"/>
            <path id="Trazado_601057" data-name="Trazado 601057" d="M271.132,164.293l.548,22.27h-2.949l.988-21.829Z" transform="translate(-126.127 -77.11)" fill="#e0e0e0"/>
            <path id="Trazado_601058" data-name="Trazado 601058" d="M278.312,206.95a1.725,1.725,0,0,0,1.583,1.077c.039,0,.078.032.116.1a1.572,1.572,0,0,0,1.335.83,2.884,2.884,0,0,0,1.5-.435c.733-.447,2.04-3.377,2.04-3.377l3.1-6.893-5.206-1.407-6.612,2.061c0,.12-1.547,6.381-1.547,6.381a1.59,1.59,0,0,0,1.858-.985,16.949,16.949,0,0,1,1.167-2.185l.492,2.818-1.88.643a1.249,1.249,0,0,0,.8,1.43Z" transform="translate(-128.891 -92.387)" fill="#ffbe9d"/>
            <path id="Trazado_601059" data-name="Trazado 601059" d="M285.976,112.6l8.666,15.95-7.052,20.936,7.843,4.416,9.966-23.288a6.61,6.61,0,0,0-.084-5.389L293.086,98.965Z" transform="translate(-134.221 -46.449)" fill="#455a64"/>
            <path id="Trazado_601060" data-name="Trazado 601060" d="M288.369,194.179l-.732,1.623,7.4,3.987.775-1.419Z" transform="translate(-135.001 -91.137)" fill="#e0e0e0"/>
            <path id="Trazado_601061" data-name="Trazado 601061" d="M285.412,148.967a.4.4,0,0,1,.023-.107l.091-.308q.137-.433.375-1.184l1.44-4.4,5-14.979.012.111c-1.008-1.713-2.044-3.524-3.091-5.393-1.909-3.413-3.665-6.7-5.165-9.74-.741-1.525-1.432-2.981-2.016-4.373a8.765,8.765,0,0,1-.723-4.133,9.568,9.568,0,0,1,.774-3.382,6.612,6.612,0,0,1,1.529-2.125,5.241,5.241,0,0,1,1.381-.913,2.817,2.817,0,0,1,.543-.193,6.1,6.1,0,0,0-1.85,1.184,6.621,6.621,0,0,0-1.463,2.11,9.514,9.514,0,0,0-.72,3.328,8.606,8.606,0,0,0,.738,4.034c.591,1.382,1.288,2.831,2.034,4.349,1.511,3.028,3.27,6.308,5.178,9.718,1.046,1.867,2.08,3.678,3.083,5.39l.031.054-.02.058-5.086,14.949L285.99,147.4l-.418,1.17-.114.3a.369.369,0,0,1-.046.1" transform="translate(-132.043 -45.924)" fill="#263238"/>
            <path id="Trazado_601062" data-name="Trazado 601062" d="M308.134,153.657a6.158,6.158,0,0,1-.854-.3,6.078,6.078,0,0,0-4.206.131,6.2,6.2,0,0,1-.834.354,2.028,2.028,0,0,1,.754-.532,5.267,5.267,0,0,1,4.356-.136,2.035,2.035,0,0,1,.785.484" transform="translate(-141.854 -71.7)" fill="#263238"/>
            <path id="Trazado_601063" data-name="Trazado 601063" d="M282.71,117.516l6.227,20.835.878-6.851Z" transform="translate(-132.688 -55.156)" fill="#263238"/>
            <path id="Trazado_601064" data-name="Trazado 601064" d="M301.824,194.578c.017.037-.079.108-.088.262a.239.239,0,1,0,.412-.121c-.092-.125-.211-.133-.217-.173s.149-.119.351.032a.472.472,0,1,1-.737.217c.089-.236.277-.252.278-.217" transform="translate(-141.516 -91.284)" fill="#263238"/>
            <path id="Trazado_601065" data-name="Trazado 601065" d="M303,191.751c.017.037-.079.108-.088.262a.239.239,0,1,0,.412-.121c-.092-.125-.211-.133-.216-.172s.149-.119.351.031a.472.472,0,1,1-.737.217c.089-.236.277-.252.278-.217" transform="translate(-142.07 -89.957)" fill="#263238"/>
            <path id="Trazado_601066" data-name="Trazado 601066" d="M318.253,141.813a3,3,0,0,0-1.146,2.9,24.616,24.616,0,0,1,.464,3.11,12.781,12.781,0,0,1-.4,2.209,3.817,3.817,0,0,0,.067,2.214,1.7,1.7,0,0,0,1.756,1.11l.736-1.487a8.181,8.181,0,0,0-.1-7.46Z" transform="translate(-148.802 -66.559)" fill="#263238"/>
          </g>
        </g>
        <g id="Grupo_886625" data-name="Grupo 886625">
          <g id="Grupo_886624" data-name="Grupo 886624" clip-path="url(#clip-path-2)">
            <path id="Trazado_601067" data-name="Trazado 601067" d="M164.843.007A1.342,1.342,0,0,1,165.113,0l.795.02A8.306,8.306,0,0,1,167.2.148c.253.04.529.065.817.125l.914.226a15.245,15.245,0,0,1,11.242,13.918,15.169,15.169,0,0,1-2.093,8.61,15.43,15.43,0,0,1-7.374,6.417,15.122,15.122,0,0,1-5.116,1.127,14.675,14.675,0,0,1-5.35-.666l-.159-.05h.126l-8.942,3.1-.363.126.114-.367,2.321-7.449.039.179A15.3,15.3,0,0,1,149.782,12.2a15.07,15.07,0,0,1,2.307-5.511,15.468,15.468,0,0,1,3.541-3.694,16.5,16.5,0,0,1,1.855-1.2,17.094,17.094,0,0,1,1.781-.808A12.105,12.105,0,0,1,160.876.47a9.85,9.85,0,0,1,1.379-.289c.419-.056.788-.118,1.109-.146l.814-.025.5-.01a.667.667,0,0,1,.168.007.682.682,0,0,1-.168.024l-.495.041-.808.056c-.318.038-.683.11-1.1.174a10.182,10.182,0,0,0-1.361.314,12.212,12.212,0,0,0-1.583.532,17.345,17.345,0,0,0-1.749.821,16.519,16.519,0,0,0-1.815,1.207,15.338,15.338,0,0,0-3.45,3.664,14.826,14.826,0,0,0-2.227,5.419,14.993,14.993,0,0,0,3.556,12.932l.07.079-.031.1c-.738,2.387-1.509,4.879-2.305,7.454l-.249-.241,8.94-3.1.062-.021.064.02.155.049a14.283,14.283,0,0,0,5.213.65,14.744,14.744,0,0,0,4.987-1.092,15.094,15.094,0,0,0,7.208-6.244A15.085,15.085,0,0,0,177.58,7.2a14.931,14.931,0,0,0-4.361-4.538A15.137,15.137,0,0,0,168.886.647l-.9-.241c-.285-.066-.557-.1-.807-.142A8.846,8.846,0,0,0,165.9.1l-.79-.059a1.4,1.4,0,0,1-.27-.034" transform="translate(-70.158 0)" fill="#00f3be"/>
            <path id="Trazado_601068" data-name="Trazado 601068" d="M161.488,24.657l2.353-2.353,4.537,4.034,8.907-8.571,2.185,2.353L168.042,30.875Z" transform="translate(-75.793 -8.339)" fill="#00f3be"/>
          </g>
        </g>
      </g>
    </g>
  </g>
</svg>
