<svg xmlns="http://www.w3.org/2000/svg" width="42.184" height="42.184" viewBox="0 0 42.184 42.184">
  <path id="circle-dollar-to-slot-solid" d="M26.917,33.261a17.248,17.248,0,0,1-11.65,0c-.1-.008-.049-.016-.066-.025a17.14,17.14,0,1,1,23.028-16.1A17.4,17.4,0,0,1,33.459,29c-.082.082-.165.173-.247.255a17.272,17.272,0,0,1-6.295,4ZM19.436,9.154v.568a5.438,5.438,0,0,0-1.31.42,4.264,4.264,0,0,0-2.562,3.106,3.925,3.925,0,0,0,.28,2.389,4.078,4.078,0,0,0,1.425,1.607,11.741,11.741,0,0,0,3.18,1.318l.181.049a8.859,8.859,0,0,1,2.414.964.763.763,0,0,1,.3.338.865.865,0,0,1,.025.544.928.928,0,0,1-.659.725,4.5,4.5,0,0,1-2.373.157,18.287,18.287,0,0,1-2.159-.643c-.181-.066-.363-.124-.527-.181a1.648,1.648,0,0,0-2.084,1.046,1.541,1.541,0,0,0,1.046,2.01.821.821,0,0,0,.363.2,22.019,22.019,0,0,0,2.455.75v.527A1.642,1.642,0,0,0,21.018,26.7a1.674,1.674,0,0,0,1.73-1.656v-.453c.437-.082.865-.28,1.261-.379A4.3,4.3,0,0,0,26.373,18.6a4.054,4.054,0,0,0-1.392-1.681,11.187,11.187,0,0,0-3.329-1.434l-.14-.016a10.2,10.2,0,0,1-2.389-.947.806.806,0,0,1-.3-.288.621.621,0,0,1-.016-.412c.033-.165.157-.437.676-.667a4.833,4.833,0,0,1,2.356-.288c.363.132,1.475.346,1.8.428a1.645,1.645,0,0,0,.84-3.18c-.363-.1-1.186-.264-1.73-.363V9.228a1.656,1.656,0,0,0-3.312,0ZM3.955,29H5.271a19.89,19.89,0,0,0,5.95,5.273H5.273v2.636H36.911V34.274H30.962A20.768,20.768,0,0,0,36.911,29h1.318a3.956,3.956,0,0,1,3.955,3.955v5.273a3.956,3.956,0,0,1-3.955,3.955H3.955A3.955,3.955,0,0,1,0,38.229V32.956A3.955,3.955,0,0,1,3.955,29Z" fill="#033f71"/>
</svg>
