<svg xmlns="http://www.w3.org/2000/svg" width="103.422" height="103.441" viewBox="0 0 103.422 103.441">
  <g id="Grupo_873636" data-name="Grupo 873636" transform="translate(7787.97 5180.976)">
    <path id="Trazado_266985" data-name="Trazado 266985" d="M6.03,199.023a2.549,2.549,0,0,1,2.271-.935c4.477.03,8.954,0,13.432.026a2.256,2.256,0,0,0,1.555-.55c1.218-1.008,2.459-1.988,3.708-2.957a1.549,1.549,0,0,1,2.321.089,1.522,1.522,0,0,1-.427,2.277c-1.519,1.225-3.066,2.415-4.576,3.65a2.749,2.749,0,0,1-1.886.538c-4.107-.007-8.214.018-12.321-.022-.8-.007-1.073.123-1.068,1.01q.064,11.109,0,22.219c0,.838.269.963,1.01.958,3.1-.023,6.2-.067,9.289.053A26.341,26.341,0,0,1,30.827,228.8c.768.412,1.572.758,2.338,1.176.481.263.683.268.73-.377a37.156,37.156,0,0,1,3.855-13.514c-.4-.2-.709.093-1.018.2a21.559,21.559,0,0,1-6.935,1.127c-1.095,0-1.757-.575-1.762-1.5s.643-1.515,1.742-1.53c4.939-.068,9.244-1.592,12.512-5.466a18.647,18.647,0,0,0,3.935-8.179c.451-2.063,1.008-2.393,3.016-1.663,3.183,1.158,6.361,2.334,9.554,3.468a6.422,6.422,0,0,0,7.421-2.088c.322-.431.417-.648-.171-.949-5.377-2.753-10.673-5.674-16.123-8.273-5.38-2.565-10.642-1.943-15.563,1.432-.195.133-.374.289-.575.412a1.481,1.481,0,0,1-2.073-.3,1.511,1.511,0,0,1,.313-2.148,17.728,17.728,0,0,1,5.941-3.115,18.467,18.467,0,0,1,13.525,1.039,13.538,13.538,0,0,0-.924-2.718c-1.188-3.176-.3-5.289,2.82-6.658.05-.022.076-.1.114-.151H77.131a4.965,4.965,0,0,1,3.416,3.093,4.673,4.673,0,0,1-.119,3.254c-.795,2.066-1.556,4.145-2.348,6.212-.144.377-.259.578.264.834,3.3,1.613,4.01,4.766,1.807,7.76a1.237,1.237,0,0,0-.093.2,47,47,0,0,1,10.329,11.1,38.225,38.225,0,0,1,6.548,18.082c.845,10.271-4.421,16.137-12.671,19.139a9.482,9.482,0,0,1-1.146.38,1.466,1.466,0,0,1-1.822-1.027,1.38,1.38,0,0,1,.853-1.807c.949-.419,1.944-.738,2.894-1.157,6.315-2.781,9.346-7.679,8.9-14.562-.535-8.346-4.044-15.436-9.4-21.706a42.4,42.4,0,0,0-7.245-6.7,2.044,2.044,0,0,0-1.3-.417q-3.08.036-6.16,0a1.375,1.375,0,0,0-1.262.6,9.276,9.276,0,0,1-10.459,3.206c-1.847-.6-3.667-1.3-5.489-1.975a1.013,1.013,0,0,0-1.168.183c-7.323,6.266-12.455,13.857-14.225,23.481a19.214,19.214,0,0,0,.209,9.091c1.408,4.723,4.863,7.421,9.218,9.187a41.1,41.1,0,0,0,12.582,2.6,76.7,76.7,0,0,0,17.015-.536c1.14-.17,1.914.34,2.047,1.277a1.536,1.536,0,0,1-1.462,1.712,74.664,74.664,0,0,1-26.879-.8,24.664,24.664,0,0,1-9.989-4.575A15.446,15.446,0,0,1,34.1,235.037a2.185,2.185,0,0,0-1.4-1.922c-3.08-1.393-5.964-3.223-9.3-4.049a25.445,25.445,0,0,0-6.092-.726c-3.1-.006-6.194-.03-9.289.016A2,2,0,0,1,6.03,227.3Z" transform="translate(-7794 -5360.001)" fill="#00c298"/>
    <path id="Trazado_266986" data-name="Trazado 266986" d="M68.748,283.412c-4.985.731-10.911-.648-16.814-2.4-4.826-1.428-9.717-2.633-14.575-3.953a3,3,0,0,0-3.439.991,2.849,2.849,0,0,0-.19,3.219,3.394,3.394,0,0,0,1.891,1.417c4.27,1.6,8.533,3.227,12.8,4.831a1.825,1.825,0,0,1,1.273,1.043,1.449,1.449,0,0,1-.332,1.59,1.611,1.611,0,0,1-1.867.259c-3.511-1.338-7.028-2.657-10.543-3.984-.94-.356-1.889-.693-2.817-1.078a5.945,5.945,0,0,1,3.8-11.26q9.732,2.579,19.451,5.212c.644.175.925.254,1.1-.607a8.465,8.465,0,0,1,8.367-6.934c2.759-.051,5.521-.033,8.28,0a4.855,4.855,0,0,0,2.128-.463,33.643,33.643,0,0,1,7.872-3.006,19.8,19.8,0,0,1,14.148,2.556,5.643,5.643,0,0,1,1.006.669,9.112,9.112,0,0,0,7.763,2.378,27.638,27.638,0,0,1,3.532-.019c1.433.019,1.957.54,1.958,1.949q.007,7.625,0,15.249c0,1.438-.5,1.935-1.932,1.947-.573,0-1.146.032-1.717,0-5.217-.335-10.311.519-15.409,1.478-4.986.938-9.984,1.83-15,2.552a41.945,41.945,0,0,1-21.191-2.563c-1.442-.549-2.888-1.086-4.33-1.635-1.28-.488-1.736-1.212-1.373-2.158.344-.9,1.229-1.13,2.488-.661a86.946,86.946,0,0,0,9.121,3.164,42.729,42.729,0,0,0,18.508.331c6.539-1.226,13.086-2.432,19.66-3.437a42.157,42.157,0,0,1,7.058-.077c.829.015,1.135-.115,1.117-1.06-.069-3.735-.047-7.473-.011-11.209.006-.678-.191-.848-.842-.832-1.783.042-3.569-.027-5.352.03a4.3,4.3,0,0,1-2.8-.862,35.4,35.4,0,0,0-4.959-3.272c-4.808-2.369-9.787-2.674-14.574-.281a20.241,20.241,0,0,1-11.032,2.287,37.169,37.169,0,0,0-4.441,0,5.549,5.549,0,0,0-5.1,4.539c-.119.73-.042,1.064.864,1.056,5.217-.047,10.435-.023,15.653-.022.3,0,.607-.013.908.011a1.5,1.5,0,1,1,.025,3.007c-.267.026-.538.011-.807.012H68.748" transform="translate(-7798.088 -5374.99)" fill="#00c298"/>
    <path id="Trazado_266987" data-name="Trazado 266987" d="M77.669,224.534c0,1.363.023,2.675-.012,3.987a.686.686,0,0,0,.556.782,5.262,5.262,0,0,1,3.938,5.138,5.93,5.93,0,0,1-3.915,5.675.79.79,0,0,0-.58.87c-.006,1.217-.545,1.882-1.46,1.914s-1.541-.629-1.536-1.822c0-.588-.288-.668-.7-.722a6.878,6.878,0,0,1-2.771-1.142,1.517,1.517,0,1,1,1.571-2.58,4.368,4.368,0,0,0,1.879.735c0-1.98,0-3.943,0-5.906,0-.52-.451-.532-.751-.683-1.8-.91-3.052-2.192-3.08-4.347a5.058,5.058,0,0,1,3.154-4.844.909.909,0,0,0,.692-1.014,1.505,1.505,0,1,1,2.992,0c0,.56.223.739.7.86a5.288,5.288,0,0,1,1.963,1,1.52,1.52,0,1,1-1.738,2.487c-.248-.155-.444-.412-.9-.38" transform="translate(-7804.841 -5366.724)" fill="#00c298"/>
    <path id="Trazado_266988" data-name="Trazado 266988" d="M75.025,182.669q5.146,0,10.291,0c1.709,0,2.333.89,1.738,2.477-.86,2.291-1.752,4.569-2.594,6.866a.9.9,0,0,1-1.012.7c-5.011-.026-10.023-.008-15.034-.019a4.511,4.511,0,0,1-3.631-2.51c-.644-1.691-1.3-3.379-1.929-5.075-.577-1.553.029-2.436,1.677-2.44,3.5-.01,7,0,10.493,0" transform="translate(-7803.544 -5360.615)" fill="#f6f6f6"/>
    <path id="Trazado_266989" data-name="Trazado 266989" d="M76.437,198.409c4.057,0,8.115-.023,12.171.017a1.746,1.746,0,0,1-.033,3.486c-2.25.043-4.5.022-6.75.023-.2,0-.427.05-.546-.161-.888-1.566-2.636-1.867-4-2.724-.277-.173-.574-.313-.862-.467.008-.058.016-.116.024-.174" transform="translate(-7805.866 -5363.268)" fill="#f6f6f6"/>
    <path id="Trazado_266990" data-name="Trazado 266990" d="M79.264,235.223c1.836.5,1.784,3.4,0,4.515Z" transform="translate(-7806.347 -5369.476)" fill="#fcfcfc"/>
    <path id="Trazado_266991" data-name="Trazado 266991" d="M75.264,228.734c-.961-.747-.975-1.541,0-2.833Z" transform="translate(-7805.55 -5367.904)" fill="#f1f1f1"/>
  </g>
</svg>
