<svg id="Grupo_886462" data-name="Grupo 886462" xmlns="http://www.w3.org/2000/svg" xmlns:xlink="http://www.w3.org/1999/xlink" width="83.692" height="104.424" viewBox="0 0 83.692 104.424">
  <defs>
    <clipPath id="clip-path">
      <rect id="Rectángulo_334315" data-name="Rectángulo 334315" width="83.692" height="104.424" fill="none"/>
    </clipPath>
  </defs>
  <g id="Grupo_886461" data-name="Grupo 886461" clip-path="url(#clip-path)">
    <path id="Trazado_600581" data-name="Trazado 600581" d="M83.692,49.094q0,22.941,0,45.882c0,5.808-3.616,9.424-9.425,9.424q-27.834,0-55.667.024c-.952,0-1.2-.209-1.172-1.167.079-2.334.025-2.336,2.372-2.336H74.267c3.863,0,5.937-2.051,5.937-5.874q0-45.23.023-90.459c0-.9-.2-1.115-1.111-1.114q-28.541.045-57.083,0c-.9,0-1.131.2-1.119,1.108.056,4.094.027,8.19.024,12.285,0,1.7-.58,2.284-2.279,2.285-4.721,0-9.442.022-14.162-.019-.8-.007-1.011.168-1.01.994q.038,39.9,0,79.8c0,.793.156,1.03.992,1.013,2.542-.053,2.515-.011,2.531,2.58,0,.7-.165.925-.888.893-1.377-.061-2.759,0-4.139-.022a1.769,1.769,0,0,1-1.963-1.943c-.007-.217,0-.435,0-.652Q.022,60.05,0,18.3a3.414,3.414,0,0,1,1.276-2.807Q9.416,8.269,17.47.951A3.367,3.367,0,0,1,19.9,0Q50.568.034,81.234.018c1.936,0,2.457.516,2.457,2.433q0,23.322,0,46.643" transform="translate(0 -0.001)" fill="#00c298"/>
    <path id="Trazado_600582" data-name="Trazado 600582" d="M106.568,58.739,88.738,29.063,70.9,58.739h1.171c6.389,0,12.777.017,19.166-.021.813,0,1.021.185,1,1-.05,2.5-.011,2.5-2.529,2.5q-10.618,0-21.235.006c-.868,0-1.679-.051-2.17-.909s-.076-1.582.366-2.317Q76.8,42.174,86.916,25.341c1.145-1.9,2.506-1.891,3.664.035q10.094,16.783,20.185,33.567c.459.764.916,1.511.373,2.414-.507.844-1.332.877-2.2.868-1.851-.02-3.7-.028-5.553.007-.571.011-.714-.153-.726-.72-.058-2.771-.077-2.771,2.686-2.772h1.217" transform="translate(-46.879 -16.969)" fill="#00c298"/>
    <path id="Trazado_600583" data-name="Trazado 600583" d="M110.083,207c-8.352,0-16.7-.012-25.055.019-.825,0-1.093-.167-1.071-1.043.062-2.455.017-2.456,2.467-2.456q24.347,0,48.694-.022c.927,0,1.221.171,1.185,1.155C136.217,207,136.276,207,133.94,207Z" transform="translate(-59.555 -144.357)" fill="#00c298"/>
    <path id="Trazado_600584" data-name="Trazado 600584" d="M110.233,263.387c8.352,0,16.7.013,25.055-.021.812,0,1.021.185,1,1-.05,2.5-.011,2.5-2.531,2.5q-24.347,0-48.693.023c-.9,0-1.142-.2-1.116-1.111.069-2.389.021-2.391,2.424-2.391Z" transform="translate(-59.551 -186.822)" fill="#00c298"/>
    <path id="Trazado_600585" data-name="Trazado 600585" d="M110.079,326.719c-8.352,0-16.7-.013-25.055.02-.841,0-1.084-.192-1.063-1.051.059-2.447.017-2.449,2.474-2.449q24.346,0,48.693-.024c.944,0,1.209.2,1.176,1.164-.081,2.337-.026,2.339-2.369,2.339Z" transform="translate(-59.558 -229.278)" fill="#00c298"/>
    <path id="Trazado_600586" data-name="Trazado 600586" d="M24.053,174.608c0-1.628-.009-3.257,0-4.885.01-1.423.636-2.065,2.045-2.07q4.949-.018,9.9,0a1.767,1.767,0,0,1,1.994,2.012q.02,4.94,0,9.879A1.771,1.771,0,0,1,36,181.562q-5,.022-10.007,0a1.749,1.749,0,0,1-1.937-1.959c-.019-1.664,0-3.329,0-4.994" transform="translate(-17.059 -118.921)" fill="#00c298"/>
    <path id="Trazado_600587" data-name="Trazado 600587" d="M38,234.572c0,1.592.01,3.184,0,4.777-.011,1.419-.643,2.066-2.048,2.071q-4.949.018-9.9,0a1.768,1.768,0,0,1-1.991-2.015q-.019-4.94,0-9.879a1.764,1.764,0,0,1,1.99-2.014q5-.022,10.007,0a1.748,1.748,0,0,1,1.939,1.957c.02,1.7,0,3.4,0,5.1" transform="translate(-17.058 -161.38)" fill="#00c298"/>
    <path id="Trazado_600588" data-name="Trazado 600588" d="M38,294.435c0,1.592.01,3.184,0,4.777-.012,1.417-.645,2.063-2.051,2.068q-4.949.018-9.9,0a1.768,1.768,0,0,1-1.988-2.018q-.019-4.94,0-9.879a1.764,1.764,0,0,1,1.993-2.01q5-.021,10.007,0a1.748,1.748,0,0,1,1.935,1.961c.02,1.7,0,3.4,0,5.1" transform="translate(-17.058 -203.842)" fill="#00c298"/>
    <path id="Trazado_600589" data-name="Trazado 600589" d="M141.466,66.929c0,2.029-.023,4.058.014,6.087.011.6-.148.779-.771.786-2.729.032-2.729.055-2.729-2.622,0-3.478.019-6.957-.017-10.435-.007-.7.16-.9.883-.9,2.62.017,2.62-.012,2.62,2.625v4.457" transform="translate(-97.866 -42.454)" fill="#00c298"/>
    <path id="Trazado_600590" data-name="Trazado 600590" d="M139.712,123.254c-1.691,0-1.691,0-1.691-1.683,0-1.8,0-1.8,1.8-1.8,1.691,0,1.691,0,1.691,1.683,0,1.8,0,1.8-1.8,1.8" transform="translate(-97.907 -84.964)" fill="#00c298"/>
    <path id="Trazado_600591" data-name="Trazado 600591" d="M169.815,143.719c1.679,0,1.679,0,1.679,1.695,0,1.785,0,1.785-1.807,1.785-1.679,0-1.679,0-1.679-1.695,0-1.785,0-1.785,1.807-1.785" transform="translate(-119.179 -101.949)" fill="#00c298"/>
    <path id="Trazado_600592" data-name="Trazado 600592" d="M37.9,350.719c-1.843,0-1.843,0-1.843-1.857,0-1.622,0-1.622,1.644-1.622,1.843,0,1.843,0,1.843,1.857,0,1.622,0,1.622-1.644,1.622" transform="translate(-25.58 -246.32)" fill="#00c298"/>
    <path id="Trazado_600593" data-name="Trazado 600593" d="M21.745,29.519l11.133-10c0,1.36,0,2.528,0,3.7,0,1.884-.006,3.768.005,5.652,0,.4,0,.668-.552.664-3.441-.023-6.882-.012-10.587-.012" transform="translate(-15.425 -13.845)" fill="#f6f6f6"/>
    <path id="Trazado_600594" data-name="Trazado 600594" d="M39.271,179.361c1.108.059,2.593-.543,3.22.171.545.619.18,2.068.149,3.149-.034,1.18.52,2.761-.22,3.423-.65.581-2.208.184-3.364.158-1.11-.026-2.595.484-3.219-.213-.546-.609-.18-2.066-.149-3.147.034-1.18-.521-2.765.22-3.421.647-.573,2.207-.119,3.363-.119" transform="translate(-25.196 -127.104)" fill="#f6f6f6"/>
    <path id="Trazado_600595" data-name="Trazado 600595" d="M39.592,246.419c-.944,0-1.888-.02-2.831.008-.509.015-.777-.047-.76-.683.048-1.882.039-3.768,0-5.651-.01-.555.2-.65.689-.643,1.887.025,3.775.031,5.662,0,.555-.01.651.2.644.688-.025,1.884-.032,3.768,0,5.651.01.555-.2.661-.689.643-.906-.034-1.815-.01-2.722-.01" transform="translate(-25.537 -169.855)" fill="#f6f6f6"/>
    <path id="Trazado_600596" data-name="Trazado 600596" d="M42.993,302.869c0,.87-.031,1.741.011,2.608.027.57-.074.829-.743.812-1.85-.049-3.7-.045-5.553,0-.615.015-.705-.219-.7-.746.026-1.848.038-3.7-.006-5.543-.015-.614.219-.7.748-.7,1.851.026,3.7.039,5.553-.006.615-.015.717.218.7.747-.035.941-.01,1.884-.01,2.826" transform="translate(-25.54 -212.31)" fill="#f6f6f6"/>
  </g>
</svg>
