<svg xmlns="http://www.w3.org/2000/svg" xmlns:xlink="http://www.w3.org/1999/xlink" width="305.412" height="269.396" viewBox="0 0 305.412 269.396">
  <defs>
    <clipPath id="clip-path">
      <rect id="Rectángulo_291369" data-name="Rectángulo 291369" width="263.007" height="269.396" fill="#fff"/>
    </clipPath>
    <clipPath id="clip-path-2">
      <rect id="Rectángulo_334420" data-name="Rectángulo 334420" width="180.872" height="147.035" fill="none"/>
    </clipPath>
    <clipPath id="clip-path-4">
      <rect id="Rectángulo_334416" data-name="Rectángulo 334416" width="143.943" height="125.397" fill="#033f71"/>
    </clipPath>
    <clipPath id="clip-path-5">
      <rect id="Rectángulo_334417" data-name="Rectángulo 334417" width="22.046" height="22.047" fill="#033f71"/>
    </clipPath>
    <clipPath id="clip-path-6">
      <rect id="Rectángulo_334418" data-name="Rectángulo 334418" width="9.881" height="32.038" fill="none"/>
    </clipPath>
    <clipPath id="clip-path-7">
      <rect id="Rectángulo_334415" data-name="Rectángulo 334415" width="180.412" height="151.666" fill="none"/>
    </clipPath>
    <clipPath id="clip-path-9">
      <rect id="Rectángulo_334413" data-name="Rectángulo 334413" width="125.519" height="75.085" fill="#ffc631"/>
    </clipPath>
    <clipPath id="clip-path-10">
      <rect id="Rectángulo_334421" data-name="Rectángulo 334421" width="43.804" height="43.654" fill="none"/>
    </clipPath>
  </defs>
  <g id="Grupo_886794" data-name="Grupo 886794" transform="translate(-294.588 -1780.15)">
    <g id="Grupo_870715" data-name="Grupo 870715" transform="translate(305.796 1780.15)">
      <g id="Grupo_870714" data-name="Grupo 870714" clip-path="url(#clip-path)">
        <path id="Trazado_215321" data-name="Trazado 215321" d="M20.023,131.069C52.9,104.227-4.03,60.911,8.574,18.069s54.2,1.2,76.578,22.311S133.76,23.724,151.146,22.71s7.6,15.491,15.444,36.87,65.644,3.624,88.818,24.274-13.745,64.593-16.853,90.8S275.36,230.5,249.788,269.4l-127.04-.769c-12.783-4.024-21.122-7.213-21.122-7.213-118.932-52.6-114.474-103.5-81.6-130.345" transform="translate(0 0)" fill="#fff"/>
      </g>
    </g>
    <g id="Grupo_886735" data-name="Grupo 886735" transform="translate(419.128 1901.999)">
      <g id="Grupo_886734" data-name="Grupo 886734" clip-path="url(#clip-path-2)">
        <g id="Grupo_886733" data-name="Grupo 886733">
          <g id="Grupo_886732" data-name="Grupo 886732" clip-path="url(#clip-path-2)">
            <path id="Trazado_601616" data-name="Trazado 601616" d="M148.795,163.3H49.132a22.14,22.14,0,0,1-22.14-22.14V60.048a22.14,22.14,0,0,1,22.14-22.14h99.662a22.14,22.14,0,0,1,22.14,22.14v81.117a22.14,22.14,0,0,1-22.14,22.14" transform="translate(-11.584 -16.269)" fill="#e8505b"/>
            <g id="Grupo_886725" data-name="Grupo 886725" transform="translate(15.407 21.639)" opacity="0.906">
              <g id="Grupo_886724" data-name="Grupo 886724">
                <g id="Grupo_886723" data-name="Grupo 886723" clip-path="url(#clip-path-4)">
                  <path id="Trazado_601617" data-name="Trazado 601617" d="M148.795,163.3H49.132a22.14,22.14,0,0,1-22.14-22.14V60.048a22.14,22.14,0,0,1,22.14-22.14h99.662a22.14,22.14,0,0,1,22.14,22.14v81.117a22.14,22.14,0,0,1-22.14,22.14" transform="translate(-26.992 -37.908)" fill="#033f71"/>
                </g>
              </g>
            </g>
            <path id="Trazado_601618" data-name="Trazado 601618" d="M278.731,114.5h21.557l-22.046,22.046Z" transform="translate(-119.417 -49.139)" fill="#e8505b"/>
            <g id="Grupo_886728" data-name="Grupo 886728" transform="translate(158.825 65.356)" opacity="0.906">
              <g id="Grupo_886727" data-name="Grupo 886727">
                <g id="Grupo_886726" data-name="Grupo 886726" clip-path="url(#clip-path-5)">
                  <path id="Trazado_601619" data-name="Trazado 601619" d="M278.731,114.5h21.557l-22.046,22.046Z" transform="translate(-278.242 -114.495)" fill="#033f71"/>
                </g>
              </g>
            </g>
            <path id="Trazado_601620" data-name="Trazado 601620" d="M11.964,122.78,2.926,112.53c-2.444-2.443-3.281-3.622-2.794-4.05.65-.571.374-.381,5.448,3.428,0,0-7.2-5.5-4.7-5.534a9.831,9.831,0,0,1,2.969,1.566c-1.78-1.514-2.273-2.532-1.936-3.021.581-.84,4.981,2.21,7.007,3.681a49.2,49.2,0,0,1-5.369-4.381c-.76-1.026.782-.944,2.038-.515,1.41.482,9.2,4.458,11.509,5.487a1.49,1.49,0,0,0,2.145-.728c.849-3.569,3.417-5.894,4.409-6.2a1.122,1.122,0,0,1,1.039,1.865,13.707,13.707,0,0,0-1.521,3.389,8.763,8.763,0,0,0-.461,2.926c.019,1.153.08,2.128.155,2.956l8.256,11.333-13.812,8.01Z" transform="translate(0 -43.871)" fill="#b78876"/>
            <path id="Trazado_601621" data-name="Trazado 601621" d="M10.142,117.892a16.518,16.518,0,0,1-3.585-2.466,16.5,16.5,0,0,1-3.228-2.92,16.728,16.728,0,0,1,3.586,2.467,16.693,16.693,0,0,1,3.227,2.919" transform="translate(-1.426 -48.282)" fill="#aa6550"/>
            <path id="Trazado_601622" data-name="Trazado 601622" d="M12.631,114.8a18.852,18.852,0,0,1-3.968-2.412A18.873,18.873,0,0,1,5.025,109.5a18.836,18.836,0,0,1,3.968,2.412,18.854,18.854,0,0,1,3.638,2.886" transform="translate(-2.155 -46.991)" fill="#aa6550"/>
            <path id="Trazado_601623" data-name="Trazado 601623" d="M15.127,111.724a16.921,16.921,0,0,1-3.793-2.22,16.921,16.921,0,0,1-3.47-2.7,16.907,16.907,0,0,1,3.794,2.22,16.936,16.936,0,0,1,3.469,2.7" transform="translate(-3.374 -45.834)" fill="#aa6550"/>
            <path id="Trazado_601624" data-name="Trazado 601624" d="M32.631,124.543l32.923,41.751-7.54,17.553s-9.03-2-11.769-5.8S20.96,132.361,20.96,132.361Z" transform="translate(-8.996 -53.452)" fill="#b78876"/>
            <path id="Trazado_601625" data-name="Trazado 601625" d="M182.2,22.193c2.37,2.053,2.361,5.673,2.087,8.8s-.482,6.68,1.68,8.95c1.783,1.871,5.019,2.69,5.435,5.24a2.938,2.938,0,0,1-4.858,2.664,5.085,5.085,0,0,1-1.533,5.753c-1.747,1.219-4.671.469-5.213-1.591a2.586,2.586,0,1,1-5.08.924" transform="translate(-74.987 -9.525)" fill="#263238"/>
            <path id="Trazado_601626" data-name="Trazado 601626" d="M120.928,38.212a3.112,3.112,0,1,1-5.74-2.4c.543-1.187,1.828-2.044,1.95-3.344.148-1.574-1.456-2.7-2.88-3.382s-3.09-1.578-3.245-3.151c-.149-1.519,1.21-2.7,2.348-3.717s2.259-2.588,1.557-3.943c-.359-.694-1.106-1.093-1.589-1.706a3.427,3.427,0,0,1,.851-4.587,6.245,6.245,0,0,1,4.95-.908,46.476,46.476,0,0,1,4.958,1.5,20.668,20.668,0,0,0,16.464-2.157" transform="translate(-47.64 -4.473)" fill="#263238"/>
            <path id="Trazado_601627" data-name="Trazado 601627" d="M134.868,73.861a11.458,11.458,0,0,0,13.467-8.79l8.1-37.139a16.482,16.482,0,0,0-12.708-19.92l-.849-.124a16.592,16.592,0,0,0-18.578,12.7c-1.8,7.839-3.691,16.522-4.262,20.786-1.182,8.827,7.431,11.488,7.431,11.488L125.921,60.3A11.458,11.458,0,0,0,134.868,73.861Z" transform="translate(-51.47 -3.309)" fill="#b78876"/>
            <path id="Trazado_601628" data-name="Trazado 601628" d="M130.351,39.735a1.271,1.271,0,0,0,1.027,1.447,1.216,1.216,0,0,0,1.463-.944,1.272,1.272,0,0,0-1.026-1.448,1.218,1.218,0,0,0-1.465.945" transform="translate(-55.936 -16.637)" fill="#263238"/>
            <path id="Trazado_601629" data-name="Trazado 601629" d="M129.788,37.559c.132.187,1.188-.379,2.542-.177,1.355.182,2.246,1.024,2.417.88.083-.063-.033-.382-.419-.761a3.488,3.488,0,0,0-1.906-.908,3.352,3.352,0,0,0-2.053.346c-.464.259-.648.535-.582.619" transform="translate(-55.697 -15.691)" fill="#263238"/>
            <path id="Trazado_601630" data-name="Trazado 601630" d="M153.539,43.583a1.272,1.272,0,0,0,1.027,1.447,1.216,1.216,0,0,0,1.463-.944A1.272,1.272,0,0,0,155,42.638a1.217,1.217,0,0,0-1.464.945" transform="translate(-65.888 -18.288)" fill="#263238"/>
            <path id="Trazado_601631" data-name="Trazado 601631" d="M153.041,41.415c.132.187,1.19-.378,2.542-.177,1.355.183,2.247,1.025,2.418.88.083-.063-.031-.382-.42-.761a3.49,3.49,0,0,0-1.905-.908,3.354,3.354,0,0,0-2.054.346c-.462.259-.647.535-.582.619" transform="translate(-65.677 -17.346)" fill="#263238"/>
            <path id="Trazado_601632" data-name="Trazado 601632" d="M139.37,50.083a9.077,9.077,0,0,0-2.141-.719c-.341-.086-.658-.2-.682-.447a1.785,1.785,0,0,1,.381-.992q.672-1.183,1.408-2.483a45.67,45.67,0,0,0,3.305-6.551,45.8,45.8,0,0,0-3.824,6.269q-.716,1.312-1.367,2.505A2.024,2.024,0,0,0,136.072,49a.877.877,0,0,0,.495.589,2.391,2.391,0,0,0,.575.168,8.9,8.9,0,0,0,2.229.329" transform="translate(-58.391 -16.691)" fill="#263238"/>
            <path id="Trazado_601633" data-name="Trazado 601633" d="M153.8,32.261c.08.388,1.457.411,3.018.835,1.569.393,2.782,1.046,3.041.746.117-.144-.055-.523-.521-.956a5.444,5.444,0,0,0-4.616-1.2c-.618.149-.954.4-.922.579" transform="translate(-66.007 -13.549)" fill="#263238"/>
            <path id="Trazado_601634" data-name="Trazado 601634" d="M131.661,30.75c.193.342,1.172.16,2.3.309,1.129.11,2.041.51,2.307.22.119-.142.014-.472-.358-.824a3.355,3.355,0,0,0-3.709-.426c-.442.258-.619.555-.536.721" transform="translate(-56.498 -12.728)" fill="#263238"/>
            <path id="Trazado_601635" data-name="Trazado 601635" d="M169.6,20.377l.043.045a7.005,7.005,0,0,1,1.92,4.859c0,.064,0,.124,0,.182-.023,2.564-.46,5.112-.459,7.675a11.511,11.511,0,0,0,2.1,7.245c.659.823,1.937,1.511,2.687.769a2.171,2.171,0,0,0,.482-1.106c1.359-6,3.8-11.141,4.722-17.488a5.406,5.406,0,0,0-1.582-4.679c-1.19-1.147-2.667-2.372-4.246-1.889s-3.9,2.967-5.213,3.971" transform="translate(-72.79 -6.816)" fill="#263238"/>
            <path id="Trazado_601636" data-name="Trazado 601636" d="M176.444,49.31c.16-.043,6.317-.9,5.242,5.092s-6.873,3.681-6.852,3.507,1.61-8.6,1.61-8.6" transform="translate(-75.036 -21.134)" fill="#b78876"/>
            <path id="Trazado_601637" data-name="Trazado 601637" d="M178.749,57.593c.03-.014.091.092.253.2a1.063,1.063,0,0,0,.778.156,2.627,2.627,0,0,0,1.611-2.1,3.5,3.5,0,0,0-.025-1.548,1.225,1.225,0,0,0-.642-.942.54.54,0,0,0-.667.176c-.111.153-.094.28-.127.284s-.111-.123-.018-.362a.675.675,0,0,1,.3-.333.8.8,0,0,1,.605-.049,1.491,1.491,0,0,1,.924,1.125,3.59,3.59,0,0,1,.063,1.736,2.755,2.755,0,0,1-1.988,2.316,1.138,1.138,0,0,1-.927-.33c-.159-.182-.167-.321-.144-.328" transform="translate(-76.712 -22.762)" fill="#aa6550"/>
            <path id="Trazado_601638" data-name="Trazado 601638" d="M153.251,10.334c1.836-2.193-1.721-6.249-4.557-7.621s-6.965-.5-10.068.051c-1.957.346-3.944.937-5.9.569A13.439,13.439,0,0,1,129.053,1.8,9.847,9.847,0,0,0,125.311.475a3.672,3.672,0,0,0-3.465,1.546,2.3,2.3,0,0,0,1.072,3.3,3.138,3.138,0,0,0-4.668,1.534,3.14,3.14,0,0,0,3.076,3.833c-.761-.775-2.232.106-2.283,1.191a3.149,3.149,0,0,0,1.726,2.582c2.351,1.471,5.331,1.547,8.06,1.053s5.339-1.5,8.055-2.066,7.28-1.617,9.734-.325c1.807.95,2.8,3.439,3.947,3.09a3.723,3.723,0,0,0,2.3-2.429,10.8,10.8,0,0,0,.384-3.447" transform="translate(-50.706 -0.198)" fill="#263238"/>
            <path id="Trazado_601639" data-name="Trazado 601639" d="M191.759,46.84a.914.914,0,0,0,.315-.136,1.762,1.762,0,0,0,.65-.742,2.6,2.6,0,0,0,.2-1.549,3.143,3.143,0,0,0-1.079-1.763,7.79,7.79,0,0,0-2.16-1.259,14.378,14.378,0,0,1-2.528-1.221,5.067,5.067,0,0,1-1.835-2.381,8.333,8.333,0,0,1-.532-3.244c.062-2.287.694-4.424.85-6.438a8.305,8.305,0,0,0-.962-5.212,4.852,4.852,0,0,0-2.846-2.142,3.455,3.455,0,0,0-.979-.1,1.426,1.426,0,0,0-.339.051,5.071,5.071,0,0,1,1.287.16,4.825,4.825,0,0,1,2.695,2.142,8.188,8.188,0,0,1,.864,5.072c-.165,1.977-.809,4.112-.874,6.457a8.553,8.553,0,0,0,.559,3.36A5.316,5.316,0,0,0,187,40.4a14.167,14.167,0,0,0,2.588,1.223,7.7,7.7,0,0,1,2.117,1.188,2.99,2.99,0,0,1,1.053,1.632,2.516,2.516,0,0,1-.138,1.468,1.967,1.967,0,0,1-.857.927" transform="translate(-77.473 -8.865)" fill="#455a64"/>
            <path id="Trazado_601640" data-name="Trazado 601640" d="M122.253,8.413a1.366,1.366,0,0,0-.26-.137,1.776,1.776,0,0,0-.336-.132,2.518,2.518,0,0,0-.482-.123,3.612,3.612,0,0,0-3.025.925h0l0,0a4.834,4.834,0,0,0-1.077,3.574,5.956,5.956,0,0,0,2.2,4.069A9.2,9.2,0,0,0,124.26,18.6a20.365,20.365,0,0,0,5.926-.364,26.773,26.773,0,0,0,8.735-3.374,27.059,27.059,0,0,1,3.6-1.872,9.683,9.683,0,0,1,3.427-.7,10.185,10.185,0,0,1,4.92,1.163,17.36,17.36,0,0,1,1.591,1.005,7.031,7.031,0,0,0-1.534-1.11,10.05,10.05,0,0,0-4.98-1.273,9.809,9.809,0,0,0-3.515.68,26.733,26.733,0,0,0-3.653,1.864,26.865,26.865,0,0,1-8.652,3.318,20.29,20.29,0,0,1-5.835.369,8.964,8.964,0,0,1-4.849-1.92A5.736,5.736,0,0,1,117.3,12.5a4.67,4.67,0,0,1,.982-3.44l0,0a3.555,3.555,0,0,1,2.887-.956,6.922,6.922,0,0,1,1.093.3" transform="translate(-50.235 -3.42)" fill="#455a64"/>
            <path id="Trazado_601641" data-name="Trazado 601641" d="M132.015,0a3.422,3.422,0,0,0,.211,1.349,5.668,5.668,0,0,0,2.363,2.844,7.115,7.115,0,0,0,2.393.992,10.177,10.177,0,0,0,2.964.155,39.585,39.585,0,0,0,6.591-1.471,13.283,13.283,0,0,1,6.584-.376A8.632,8.632,0,0,1,157.6,6.4a8.958,8.958,0,0,1,1.714,3.221c.23.84.256,1.328.293,1.324a1.553,1.553,0,0,0-.016-.353,6.905,6.905,0,0,0-.163-1,8.962,8.962,0,0,0-6.233-6.366,13.368,13.368,0,0,0-6.73.352,41.281,41.281,0,0,1-6.54,1.487,10.089,10.089,0,0,1-2.89-.123,7,7,0,0,1-2.329-.926,5.687,5.687,0,0,1-2.367-2.7A7.881,7.881,0,0,1,132.015,0" transform="translate(-56.656 0)" fill="#455a64"/>
            <path id="Trazado_601642" data-name="Trazado 601642" d="M137.014,65.726a6.22,6.22,0,0,0,.464,1.708,2.1,2.1,0,0,0,1.28,1.151,1.881,1.881,0,0,0,1.734-.523,3,3,0,0,0,.8-1.679c.092-.563-.024-1.282-.565-1.464a1.43,1.43,0,0,0-.7.008l-3.162.572" transform="translate(-58.74 -27.845)" fill="#aa6550"/>
            <path id="Trazado_601643" data-name="Trazado 601643" d="M137.219,68a4.306,4.306,0,0,0,1.573.3,2.268,2.268,0,0,0,1.476-.673,2.391,2.391,0,0,0,.631-1.843,2.129,2.129,0,0,0-.111-.5c-.075-.154-.056-.142-.184-.163-.126-.006-.34.022-.511.033l-.527.041c-.686.051-1.3.09-1.824.115a5.416,5.416,0,0,1-1.693-.03,5.436,5.436,0,0,1,1.658-.345c.515-.073,1.13-.15,1.813-.228l.525-.058a5.218,5.218,0,0,1,.586-.047.693.693,0,0,1,.417.147.817.817,0,0,1,.233.347,2.577,2.577,0,0,1,.147.64,2.8,2.8,0,0,1-.813,2.242,2.548,2.548,0,0,1-1.812.7,2.4,2.4,0,0,1-1.244-.345c-.258-.164-.36-.3-.34-.328" transform="translate(-58.389 -27.724)" fill="#263238"/>
            <path id="Trazado_601644" data-name="Trazado 601644" d="M132.7,86.812s5.753,2.182,11.354.6c0,0-4.225,3.541-11.931,2.182Z" transform="translate(-56.706 -37.258)" fill="#aa6550"/>
            <path id="Trazado_601645" data-name="Trazado 601645" d="M130.928,224.591a6.314,6.314,0,0,1-.79-.6c-.245-.2-.548-.448-.918-.709s-.769-.585-1.252-.886-.993-.659-1.577-.984c-.569-.352-1.21-.666-1.877-1.01a29.479,29.479,0,0,0-9.317-2.786c-.747-.078-1.456-.167-2.124-.186-.667-.049-1.289-.048-1.858-.043-.569-.013-1.082.034-1.533.053s-.84.053-1.156.088a6.4,6.4,0,0,1-.99.069,6.238,6.238,0,0,1,.976-.183,11.312,11.312,0,0,1,1.157-.139c.453-.035.969-.1,1.542-.1.573-.018,1.2-.031,1.873.007.675.008,1.391.089,2.146.16a28.141,28.141,0,0,1,9.406,2.813c.67.355,1.313.68,1.881,1.044.584.337,1.1.693,1.57,1.023.479.315.876.65,1.235.928a11.458,11.458,0,0,1,.891.752,6.364,6.364,0,0,1,.715.689" transform="translate(-46.153 -93.2)" fill="#fafafa"/>
            <path id="Trazado_601646" data-name="Trazado 601646" d="M61.715,151.674,66.4,131.392c1.792-7.627,3.914-14.956,7.481-15.824v2.36l-1.526,57.945S62.81,186.74,50.642,180.7c-3.8-1.887-10.738-15.158-10.738-15.158s-16.114-28.8-15.446-30.1S34.989,121.425,36,120.793Z" transform="translate(-10.488 -49.6)" fill="#d8d8d8"/>
            <path id="Trazado_601647" data-name="Trazado 601647" d="M145.419,104.61c9.3,1.783,19.781,7.211,24.6,21.111,1.76,5.078,14.572,42.526,14.572,42.526l-21.848-.454-3.558-7.721,1.736,12.524,1.481,17.87-55.163.927.386-26.916.529-53.542s.62-.812,10.131-6.06c5.909-3.26,27.133-.265,27.133-.265" transform="translate(-46.025 -44.358)" fill="#d8d8d8"/>
            <g id="Grupo_886731" data-name="Grupo 886731" transform="translate(104.897 96.042)" opacity="0.2">
              <g id="Grupo_886730" data-name="Grupo 886730">
                <g id="Grupo_886729" data-name="Grupo 886729" clip-path="url(#clip-path-6)">
                  <path id="Trazado_601648" data-name="Trazado 601648" d="M183.767,168.254c.905,11.3,1.949,14.794,2.854,26.1a9.991,9.991,0,0,0,.6,3.142,3.381,3.381,0,0,0,2.282,2.081c1.607.327,3.695,1.489,4.149-.087L192.123,188.6a21.444,21.444,0,0,0-1.506-4.595c-3.385-7.514-4.638-7.955-6.85-15.751" transform="translate(-183.767 -168.254)"/>
                </g>
              </g>
            </g>
            <path id="Trazado_601649" data-name="Trazado 601649" d="M126.592,105.969l.184-1.175,1.763-11.278a1.314,1.314,0,0,1,1.407-1.106l21.72,1.813a2.5,2.5,0,0,1,2.282,2.672l-.484,6.554-6.782,8.848-9.766,1.524" transform="translate(-54.331 -39.659)" fill="#d8d8d8"/>
            <path id="Trazado_601650" data-name="Trazado 601650" d="M107.377,153.32c.082,0,.148,8.836.148,19.732s-.066,19.734-.148,19.734-.148-8.833-.148-19.734.066-19.732.148-19.732" transform="translate(-46.021 -65.802)" fill="#263238"/>
            <path id="Trazado_601651" data-name="Trazado 601651" d="M192.448,179.812a.539.539,0,0,1-.07-.128l-.179-.388-.662-1.5-2.384-5.543-7.759-18.331-4.239-10.106a18.925,18.925,0,0,1-1.4-4.588,25.091,25.091,0,0,1-.378-4.164,16.869,16.869,0,0,1,.869-5.966c.064-.167.118-.328.179-.474l.2-.4a3.506,3.506,0,0,1,.342-.606l.243-.353c.056-.079.086-.117.091-.114a11.069,11.069,0,0,0-.944,1.985,17.36,17.36,0,0,0-.768,5.924,21.758,21.758,0,0,0,1.824,8.648l4.261,10.1,7.679,18.364,2.3,5.579.611,1.523.152.4a.555.555,0,0,1,.042.14" transform="translate(-75.266 -54.572)" fill="#263238"/>
            <path id="Trazado_601652" data-name="Trazado 601652" d="M149.1,109a7.007,7.007,0,0,1-.635.55,9.727,9.727,0,0,1-2.081,1.213,15.707,15.707,0,0,1-3.67,1.029,45.144,45.144,0,0,1-5.022.495c-1.869.084-3.916.046-6.107.09a28.272,28.272,0,0,0-6.906.84,12.761,12.761,0,0,0-6.5,3.831,8.915,8.915,0,0,0-1.8,3.563,7.6,7.6,0,0,0,.066,4.083,6.43,6.43,0,0,0,.956,1.825,4.771,4.771,0,0,0,1.542,1.3,3.328,3.328,0,0,0,1.906.4,2.6,2.6,0,0,0,1.674-.859,4.521,4.521,0,0,0,.844-3.612,6.022,6.022,0,0,0-.543-1.783,8.832,8.832,0,0,0-1.015-1.532,10.75,10.75,0,0,0-5.851-3.467,12.439,12.439,0,0,0-5.991.068A16.382,16.382,0,0,0,105.385,119a21.314,21.314,0,0,0-3.038,2.259c-.783.686-1.338,1.277-1.723,1.668l-.426.457a1.161,1.161,0,0,1-.153.149,18.976,18.976,0,0,1,2.225-2.36,20.748,20.748,0,0,1,3.028-2.314,16.366,16.366,0,0,1,4.622-2.024,12.61,12.61,0,0,1,6.1-.1,10.986,10.986,0,0,1,6.007,3.532,9.08,9.08,0,0,1,1.054,1.583,6.323,6.323,0,0,1,.574,1.867,5.954,5.954,0,0,1-.035,2,3.888,3.888,0,0,1-.874,1.852,2.893,2.893,0,0,1-1.857.956,3.614,3.614,0,0,1-2.076-.432,5.056,5.056,0,0,1-1.64-1.379,6.746,6.746,0,0,1-1.006-1.918,7.9,7.9,0,0,1-.07-4.245,9.189,9.189,0,0,1,1.868-3.679,13,13,0,0,1,6.647-3.908,28.335,28.335,0,0,1,6.973-.823c2.2-.033,4.242.017,6.1-.053a46.462,46.462,0,0,0,5-.449,16.013,16.013,0,0,0,3.651-.972,10.3,10.3,0,0,0,2.09-1.155c.229-.152.382-.3.5-.377A1.092,1.092,0,0,1,149.1,109" transform="translate(-42.937 -46.781)" fill="#fafafa"/>
            <path id="Trazado_601653" data-name="Trazado 601653" d="M201.961,149.692a.769.769,0,0,1-.243.041c-.16.013-.4.043-.7.05a21.693,21.693,0,0,1-2.588-.062c-1.09-.079-2.38-.245-3.807-.442s-2.993-.413-4.645-.5a18.1,18.1,0,0,0-4.622.348,11.774,11.774,0,0,0-3.524,1.341,10.169,10.169,0,0,0-2.6,2.308.774.774,0,0,1,.122-.213,4.931,4.931,0,0,1,.414-.571,7.885,7.885,0,0,1,1.957-1.7,11.529,11.529,0,0,1,3.574-1.429,17.684,17.684,0,0,1,4.7-.377c1.67.088,3.243.317,4.669.526s2.706.4,3.787.5,1.959.15,2.567.155a6.947,6.947,0,0,1,.946.025" transform="translate(-76.921 -63.716)" fill="#fafafa"/>
            <path id="Trazado_601654" data-name="Trazado 601654" d="M157.554,183.542a11.767,11.767,0,0,0-3.278-.279,17.984,17.984,0,0,0-3.8.68c-1.459.394-3.084.972-4.91,1.533a20.222,20.222,0,0,1-6.152,1.071,17.721,17.721,0,0,1-7.011-1.456,17.426,17.426,0,0,1-6.393-4.648,13.423,13.423,0,0,1-2.264-3.552,8.163,8.163,0,0,1-.652-4.286,6.2,6.2,0,0,1,2.026-3.819,4.45,4.45,0,0,1,1.921-.984,4.523,4.523,0,0,1,3.955,1.068,3.433,3.433,0,0,1,1.03,1.778,3.521,3.521,0,0,1-.155,2,4.885,4.885,0,0,1-1.069,1.637,8.586,8.586,0,0,1-3.134,1.991,9.311,9.311,0,0,1-1.719.471c-.287.053-.57.115-.854.159l-.848.1a18.455,18.455,0,0,1-6.229-.437,19.408,19.408,0,0,1-4.81-1.851,17.529,17.529,0,0,1-3.2-2.213l-.569-.5-.467-.471a8.383,8.383,0,0,1-.706-.764l-.409-.492a1.142,1.142,0,0,1-.131-.174,1.166,1.166,0,0,1,.155.154l.43.471a9.156,9.156,0,0,0,.723.741l.475.46.574.485a17.891,17.891,0,0,0,3.206,2.155,19.49,19.49,0,0,0,4.779,1.792,18.354,18.354,0,0,0,6.156.4l.836-.1c.279-.045.558-.107.84-.16a9.053,9.053,0,0,0,1.677-.466A8.335,8.335,0,0,0,130.6,174.1a4.607,4.607,0,0,0,1.005-1.545,3.236,3.236,0,0,0,.139-1.847,3.576,3.576,0,0,0-2.661-2.558,4.089,4.089,0,0,0-1.983-.06,4.166,4.166,0,0,0-1.794.922,5.922,5.922,0,0,0-1.924,3.636,7.878,7.878,0,0,0,.631,4.129,13.168,13.168,0,0,0,2.213,3.477,17.2,17.2,0,0,0,6.28,4.585,17.529,17.529,0,0,0,6.9,1.461,20.137,20.137,0,0,0,6.091-1.026c1.823-.546,3.457-1.111,4.927-1.493a17.6,17.6,0,0,1,3.84-.635,11.8,11.8,0,0,1,1.422.025c.408.059.756.088,1.031.151l.622.155a1.1,1.1,0,0,1,.208.062" transform="translate(-46.232 -71.976)" fill="#fafafa"/>
            <path id="Trazado_601655" data-name="Trazado 601655" d="M100.724,178.79c-.048.02-.31-.6-.864-1.534a14.907,14.907,0,0,0-6.095-5.681c-.967-.488-1.607-.706-1.591-.755a1.5,1.5,0,0,1,.466.105,9.327,9.327,0,0,1,1.215.46,13.291,13.291,0,0,1,6.187,5.766,9.257,9.257,0,0,1,.545,1.18,1.481,1.481,0,0,1,.137.457" transform="translate(-39.56 -73.311)" fill="#fafafa"/>
            <path id="Trazado_601656" data-name="Trazado 601656" d="M64.86,200.291a.7.7,0,0,1-.09-.142l-.236-.43c-.2-.38-.5-.943-.865-1.676a39.081,39.081,0,0,1-2.613-6.428,20.867,20.867,0,0,1-.819-4.733,14.863,14.863,0,0,1,.11-2.684,15.578,15.578,0,0,1,.676-2.769,12.1,12.1,0,0,1,3.349-5.071,8.2,8.2,0,0,1,6.093-2.137,4.527,4.527,0,0,1,3,1.46,3.689,3.689,0,0,1,.846,3.121,2.754,2.754,0,0,1-.808,1.41,3.259,3.259,0,0,1-1.395.76,4.1,4.1,0,0,1-2.981-.361,6.857,6.857,0,0,1-2.181-1.856,10.068,10.068,0,0,1-1.37-2.32,10.237,10.237,0,0,1-.763-4.736,9.627,9.627,0,0,1,1.132-3.8,9.993,9.993,0,0,1,1.789-2.4,9.253,9.253,0,0,1,1.47-1.188c.178-.122.327-.2.421-.253a.711.711,0,0,1,.15-.075c.007.011-.186.131-.537.377a10.281,10.281,0,0,0-1.421,1.22,10.129,10.129,0,0,0-1.724,2.395,9.55,9.55,0,0,0-1.07,3.734,10.071,10.071,0,0,0,.78,4.624,9.849,9.849,0,0,0,1.347,2.252,6.591,6.591,0,0,0,2.1,1.775,3.817,3.817,0,0,0,2.782.332,2.681,2.681,0,0,0,1.993-1.962,3.4,3.4,0,0,0-.787-2.864,4.239,4.239,0,0,0-2.809-1.356,7.927,7.927,0,0,0-5.87,2.061,11.869,11.869,0,0,0-3.282,4.943,15.379,15.379,0,0,0-.675,2.714,14.663,14.663,0,0,0-.122,2.637,20.894,20.894,0,0,0,.774,4.686,41.688,41.688,0,0,0,2.515,6.435l.815,1.7.209.444a.711.711,0,0,1,.062.156" transform="translate(-25.844 -70.382)" fill="#fafafa"/>
            <path id="Trazado_601657" data-name="Trazado 601657" d="M46.7,139.3a.753.753,0,0,1,.053.238c.02.158.064.39.083.692a14.868,14.868,0,0,1,0,2.564,16.313,16.313,0,0,1-9.2,13.376,14.841,14.841,0,0,1-2.392.921c-.289.09-.521.132-.676.17a.75.75,0,0,1-.241.036,7.067,7.067,0,0,1,.881-.316,17.976,17.976,0,0,0,2.334-1,16.7,16.7,0,0,0,9.085-13.208,18.1,18.1,0,0,0,.1-2.537,7.179,7.179,0,0,1-.021-.936" transform="translate(-14.731 -59.784)" fill="#fafafa"/>
            <path id="Trazado_601658" data-name="Trazado 601658" d="M216.449,182.659a8.21,8.21,0,0,0-2.2,2.013c-.568.734-1.138,1.686-1.789,2.741a21.172,21.172,0,0,1-2.439,3.225,20.6,20.6,0,0,1-5.849,4.4,18,18,0,0,1-2.044.875,4.252,4.252,0,0,1-.784.225,4.269,4.269,0,0,1,.742-.333c.477-.212,1.172-.509,1.99-.954a22.013,22.013,0,0,0,5.728-4.413,22.294,22.294,0,0,0,2.426-3.17,28.918,28.918,0,0,1,1.856-2.725,7.134,7.134,0,0,1,1.637-1.517,3.9,3.9,0,0,1,.533-.292c.127-.058.195-.083.2-.074" transform="translate(-86.411 -78.393)" fill="#fafafa"/>
            <path id="Trazado_601659" data-name="Trazado 601659" d="M154.382,106.022a.926.926,0,0,1-.262.067l-.759.135c-.66.11-1.618.255-2.8.415-2.372.32-5.661.693-9.305.96a46.479,46.479,0,0,1-5.157.186,14.665,14.665,0,0,1-4.162-.712,9.431,9.431,0,0,1-2.541-1.284,6.28,6.28,0,0,1-.6-.489c-.129-.122-.192-.189-.186-.2s.3.226.852.591A10.237,10.237,0,0,0,132,106.873a15.077,15.077,0,0,0,4.107.638,50.327,50.327,0,0,0,5.125-.208c3.638-.267,6.925-.605,9.3-.872l2.815-.32a7.117,7.117,0,0,1,1.037-.088" transform="translate(-55.194 -45.108)" fill="#263238"/>
            <path id="Trazado_601660" data-name="Trazado 601660" d="M198.541,222.771A15.338,15.338,0,0,1,183.634,241l-43.236-.479,1.136-14L178.6,221" transform="translate(-60.256 -94.848)" fill="#b78876"/>
            <path id="Trazado_601661" data-name="Trazado 601661" d="M126.95,229.106a39.139,39.139,0,0,1-4.932-2.088,16.128,16.128,0,0,0-7.593-1.472l-10.307.524a5.05,5.05,0,0,0,1.73,2.3c1.093.6,7.5.734,7.5.734l-.328.337a7.411,7.411,0,0,1-5.13,2.245l-.985.025a9.66,9.66,0,0,1-2.151-.421l-2.542-1.027c-.769-.347-1.582-.291-1.917.485-.3.7-.08,1.666,2.018,2.723,1.174.591,5.523,2.1,5.523,2.1a10.526,10.526,0,0,0,.253,1.836c.19.632,1.9,1.266,1.9,1.266a22.592,22.592,0,0,0,1.52,2.722,15.662,15.662,0,0,0,3.393,1.171,14.6,14.6,0,0,0,8.121-.062l3.928-1.172V229.367" transform="translate(-42.998 -96.791)" fill="#b78876"/>
            <path id="Trazado_601662" data-name="Trazado 601662" d="M118.464,244.458a11.727,11.727,0,0,1-5.2-1.368c.03-.07,1.154.363,2.587.737s2.623.556,2.614.631" transform="translate(-48.61 -104.326)" fill="#aa6550"/>
            <path id="Trazado_601663" data-name="Trazado 601663" d="M119.668,249.151a3.789,3.789,0,0,1-2.753-.748,9.72,9.72,0,0,1,1.371.394,9.674,9.674,0,0,1,1.382.354" transform="translate(-50.177 -106.605)" fill="#aa6550"/>
            <path id="Trazado_601664" data-name="Trazado 601664" d="M119.9,230.174a4.561,4.561,0,0,1-.8.851,12.826,12.826,0,0,1-2.245,1.7,8.931,8.931,0,0,1-2.632,1.015,3.782,3.782,0,0,1-1.16.126,15.042,15.042,0,0,0,3.663-1.365,17.568,17.568,0,0,0,2.255-1.614,6.045,6.045,0,0,1,.916-.713" transform="translate(-48.525 -98.786)" fill="#aa6550"/>
            <path id="Trazado_601665" data-name="Trazado 601665" d="M148.123,220.141l-1.05,15.832,40.73.015a15.231,15.231,0,0,0,14.949-18.171,46.858,46.858,0,0,0-2.627-8.782l-20.476,3.37.655,2.549Z" transform="translate(-63.121 -89.715)" fill="#d8d8d8"/>
            <path id="Trazado_601666" data-name="Trazado 601666" d="M191.013,217.085a2.221,2.221,0,0,1-.411.094l-1.189.214-4.382.732-14.475,2.3-14.492,2.218-4.4.638-1.2.159a2.283,2.283,0,0,1-.42.035,2.191,2.191,0,0,1,.412-.095l1.189-.214,4.382-.732,14.477-2.3L185,217.918l4.4-.639,1.2-.159a2.23,2.23,0,0,1,.421-.035" transform="translate(-64.399 -93.168)" fill="#263238"/>
            <path id="Trazado_601667" data-name="Trazado 601667" d="M179.007,243.221c-.071-.013.243-1.144.283-3.008a12.081,12.081,0,0,0-.059-1.519,14.286,14.286,0,0,0-.25-1.725,16.29,16.29,0,0,0-1.324-3.757,17.329,17.329,0,0,0-2.226-3.31l-.6-.67c-.2-.214-.41-.4-.6-.6-.382-.393-.785-.708-1.14-1.01-1.456-1.168-2.49-1.71-2.456-1.766a4.19,4.19,0,0,1,.729.369,7.9,7.9,0,0,1,.819.5c.3.217.679.429,1.038.734a14.566,14.566,0,0,1,1.179,1c.2.192.419.38.623.594l.618.672a16.76,16.76,0,0,1,2.285,3.355,15.829,15.829,0,0,1,1.327,3.836,13.69,13.69,0,0,1,.227,1.76,11.43,11.43,0,0,1,.024,1.544,10.536,10.536,0,0,1-.114,1.268,6.414,6.414,0,0,1-.168.945,4.318,4.318,0,0,1-.211.789" transform="translate(-73.232 -96.935)" fill="#fafafa"/>
            <path id="Trazado_601668" data-name="Trazado 601668" d="M218.07,239.909a8.439,8.439,0,0,1-1.889-.227,9.689,9.689,0,0,1-2.113-.744,8.321,8.321,0,0,1-2.38-1.774,7.563,7.563,0,0,1-1.751-3.139,8.487,8.487,0,0,1-.3-1.994,7.732,7.732,0,0,1,.17-2.133,6.444,6.444,0,0,1,.843-2.095,4.747,4.747,0,0,1,1.711-1.629,4.239,4.239,0,0,1,2.389-.548,3.2,3.2,0,0,1,2.236,1.156,3.15,3.15,0,0,1,.751,2.407,2.855,2.855,0,0,1-1.4,2,6.693,6.693,0,0,1-4.5.618,9.386,9.386,0,0,1-7.938-9,6.6,6.6,0,0,1,.162-1.9,14.608,14.608,0,0,0-.046,1.89,9.605,9.605,0,0,0,1.624,4.805,9.335,9.335,0,0,0,6.242,3.925,6.449,6.449,0,0,0,4.3-.595,2.566,2.566,0,0,0,1.263-1.8,2.86,2.86,0,0,0-.686-2.175,2.908,2.908,0,0,0-2.033-1.053,3.961,3.961,0,0,0-2.223.508,5.19,5.19,0,0,0-2.427,3.528,7.52,7.52,0,0,0-.176,2.065,8.312,8.312,0,0,0,.278,1.938,7.4,7.4,0,0,0,1.669,3.064,8.262,8.262,0,0,0,2.3,1.767,9.974,9.974,0,0,0,2.065.78c1.183.288,1.867.3,1.862.34" transform="translate(-87.505 -94.815)" fill="#fafafa"/>
          </g>
        </g>
      </g>
    </g>
    <g id="Grupo_886722" data-name="Grupo 886722" transform="translate(294.588 1797.475)">
      <g id="Grupo_886721" data-name="Grupo 886721" clip-path="url(#clip-path-7)">
        <g id="Grupo_886720" data-name="Grupo 886720">
          <g id="Grupo_886719" data-name="Grupo 886719" clip-path="url(#clip-path-7)">
            <path id="Trazado_601545" data-name="Trazado 601545" d="M150.676,11.831H45.758a23.12,23.12,0,0,0-23.12,23.12v37.39H0L22.638,94.979v25.415a23.12,23.12,0,0,0,23.12,23.12H150.676a23.12,23.12,0,0,0,23.12-23.12V34.951a23.12,23.12,0,0,0-23.12-23.12" transform="translate(0 -4.884)" fill="#109377"/>
            <path id="Trazado_601546" data-name="Trazado 601546" d="M179.019,17.287c-.664,1.716.476,3.591,1.753,4.916S183.6,24.788,184,26.584c.337,1.508-.221,3.077-.086,4.616.139,1.575.986,2.987,1.468,4.493a14.766,14.766,0,0,1-.257,8.454,15.625,15.625,0,0,1-3.147,6.229,8.3,8.3,0,0,1-6.155,2.947,2.416,2.416,0,0,1-1.819-.658,2.906,2.906,0,0,1-.525-1.615,157.472,157.472,0,0,1,0-35.578" transform="translate(-71.204 -6.388)" fill="#263238"/>
            <path id="Trazado_601547" data-name="Trazado 601547" d="M172.917,82.827a9.447,9.447,0,0,1,9.421,9.763,10.876,10.876,0,0,1,7.813,12.177c-.333,1.725-1.1,3.368-1.207,5.122-.116,1.913.563,3.772.932,5.653a17.81,17.81,0,0,1-1.02,10.191c-.807,1.943-2.308,3.95-4.411,4.01a4.33,4.33,0,0,1-3.544-2.071,10.944,10.944,0,0,1-1.424-4.012c-.911-4.587-1.185-9.3-2.443-13.806s-3.7-8.943-7.778-11.238c-2.251-1.268-4.952-1.867-6.739-3.731a7.327,7.327,0,0,1-1.323-7.575,9.66,9.66,0,0,1,5.756-5.372" transform="translate(-66.339 -33.827)" fill="#263238"/>
            <path id="Trazado_601548" data-name="Trazado 601548" d="M120.786,15.106c-.063-2.182,1.956-3.869,3.988-4.668s4.29-1.1,6.1-2.32c1.6-1.079,2.682-2.763,4.039-4.139a13.44,13.44,0,0,1,22.6,6.166c.78,3.108.247,6.783-2.2,8.848-2.844,2.4-7.059,1.865-10.7,1.119s-7.768-1.481-10.81.658c-1.834,1.291-2.886,3.39-4.007,5.332s-2.529,3.926-4.65,4.657-5-.531-5.083-2.773" transform="translate(-49.567 0)" fill="#263238"/>
            <path id="Trazado_601549" data-name="Trazado 601549" d="M133.661,22.986A3.652,3.652,0,0,0,130.4,26.7L132.58,76.02c.091,5.825,8.606,9.1,14.843,8.953,6.3-.146,6.5-3.235,6.579-8.777.133-9.259.122-12.734.125-12.681,0,0,7.955-1.339,9.581-11.726.809-5.166.531-13.632.08-20.552-.406-6.228-4.55-13.862-10.756-13.192Z" transform="translate(-53.836 -7.433)" fill="#ffbe9d"/>
            <path id="Trazado_601550" data-name="Trazado 601550" d="M182.345,50.8a1.332,1.332,0,0,1-1.282,1.346,1.274,1.274,0,0,1-1.375-1.2,1.333,1.333,0,0,1,1.279-1.347,1.276,1.276,0,0,1,1.377,1.2" transform="translate(-74.184 -20.477)" fill="#263238"/>
            <path id="Trazado_601551" data-name="Trazado 601551" d="M180.451,47.07c-.165.174-1.175-.57-2.608-.564-1.431-.014-2.482.726-2.637.551-.077-.078.091-.392.548-.726a3.656,3.656,0,0,1,2.111-.656,3.509,3.509,0,0,1,2.077.665c.442.337.591.651.51.729" transform="translate(-72.326 -18.857)" fill="#263238"/>
            <path id="Trazado_601552" data-name="Trazado 601552" d="M158.895,50.8a1.332,1.332,0,0,1-1.281,1.347,1.274,1.274,0,0,1-1.375-1.2,1.332,1.332,0,0,1,1.28-1.346,1.275,1.275,0,0,1,1.376,1.2" transform="translate(-64.503 -20.478)" fill="#263238"/>
            <path id="Trazado_601553" data-name="Trazado 601553" d="M156.462,47.578c-.165.174-1.177-.57-2.609-.563-1.431-.014-2.482.726-2.637.551-.076-.078.089-.392.548-.726a3.656,3.656,0,0,1,2.111-.656,3.513,3.513,0,0,1,2.076.666c.44.337.591.651.511.729" transform="translate(-62.422 -19.067)" fill="#263238"/>
            <path id="Trazado_601554" data-name="Trazado 601554" d="M168.57,58.243a9.481,9.481,0,0,1,2.326-.425c.366-.039.712-.112.773-.362a1.862,1.862,0,0,0-.247-1.084q-.519-1.326-1.089-2.784c-1.511-3.963-2.606-7.223-2.446-7.283s1.515,3.105,3.027,7.069q.545,1.466,1.043,2.8a2.118,2.118,0,0,1,.193,1.436.922.922,0,0,1-.6.537,2.5,2.5,0,0,1-.621.087,9.323,9.323,0,0,1-2.359.008" transform="translate(-69.306 -19.117)" fill="#263238"/>
            <path id="Trazado_601555" data-name="Trazado 601555" d="M161.026,92.929a26.413,26.413,0,0,1-13.914-3.678s3.39,7.125,13.78,6.13Z" transform="translate(-60.735 -36.847)" fill="#eb996e"/>
            <path id="Trazado_601556" data-name="Trazado 601556" d="M165.037,71.841a2.583,2.583,0,0,0-2.317-.954,2.355,2.355,0,0,0-1.626.877,1.494,1.494,0,0,0-.11,1.709,1.733,1.733,0,0,0,1.879.47,5.416,5.416,0,0,0,1.829-1.1,1.579,1.579,0,0,0,.409-.425.479.479,0,0,0,0-.533" transform="translate(-66.371 -29.259)" fill="#eb996e"/>
            <path id="Trazado_601557" data-name="Trazado 601557" d="M161.72,68.342c.233-.014.24,1.541,1.574,2.642s2.989.927,3,1.144c.022.1-.369.3-1.069.324a3.872,3.872,0,0,1-2.505-.867,3.373,3.373,0,0,1-1.22-2.216c-.06-.65.112-1.036.218-1.027" transform="translate(-66.67 -28.215)" fill="#263238"/>
            <path id="Trazado_601558" data-name="Trazado 601558" d="M156.655,43.532c-.14.39-1.572.208-3.252.415-1.685.173-3.04.668-3.263.319-.1-.167.136-.534.683-.912a5.7,5.7,0,0,1,4.964-.559c.618.247.929.553.869.738" transform="translate(-61.976 -17.531)" fill="#263238"/>
            <path id="Trazado_601559" data-name="Trazado 601559" d="M179.808,39.949c-.251.326-1.239-.009-2.426-.023-1.187-.055-2.192.224-2.424-.116-.1-.165.056-.491.494-.8a3.514,3.514,0,0,1,3.908.113c.42.334.559.668.448.827" transform="translate(-72.219 -15.883)" fill="#263238"/>
            <path id="Trazado_601560" data-name="Trazado 601560" d="M123.546,55.592a9.22,9.22,0,0,0,10.969-10.2c-.323-2.55-1.7-5.145-.814-7.558,1.169-3.191,5.643-4.173,6.829-7.358.69-1.851.071-4.016.853-5.83.735-1.706,2.529-2.688,4.276-3.32s3.62-1.067,5.086-2.207,2.381-3.292,1.435-4.89a98.388,98.388,0,0,0-22.69,5.513c-1.695.633-3.475,1.393-4.476,2.9-1.06,1.594-1.009,3.653-.92,5.565.435,9.323-.984,18.058-.549,27.381" transform="translate(-50.971 -5.876)" fill="#263238"/>
            <path id="Trazado_601561" data-name="Trazado 601561" d="M117.713,49.631a.778.778,0,0,1-.17-.055,2.413,2.413,0,0,1-.473-.231,3.457,3.457,0,0,1-1.3-1.531,5.13,5.13,0,0,1-.338-3.154,10.058,10.058,0,0,1,1.887-3.771,27.567,27.567,0,0,0,2.849-4.193,6.449,6.449,0,0,0,.687-2.676,8.761,8.761,0,0,0-.611-2.889,8.856,8.856,0,0,1-.614-3.139,7.015,7.015,0,0,1,3.375-5.671,8.051,8.051,0,0,1,3.421-.976,14.417,14.417,0,0,0,3.426-.6,4.441,4.441,0,0,0,2.407-2.168,16.756,16.756,0,0,0,1.141-3.063,16.433,16.433,0,0,1,1.171-2.965,11.106,11.106,0,0,1,3.893-4.375A8.424,8.424,0,0,1,143.4,6.9a6.314,6.314,0,0,1,3.878,1.591,6.187,6.187,0,0,1,1.736,2.663,4.992,4.992,0,0,1,.241,2,3.144,3.144,0,0,1-.122.692c-.02,0,.04-.24.06-.7a5.181,5.181,0,0,0-.292-1.956,6.085,6.085,0,0,0-5.515-4.076A8.224,8.224,0,0,0,138.6,8.393a10.887,10.887,0,0,0-3.777,4.29,16.191,16.191,0,0,0-1.141,2.921,16.885,16.885,0,0,1-1.157,3.12,5.369,5.369,0,0,1-1.049,1.386,4.556,4.556,0,0,1-1.514.923,14.6,14.6,0,0,1-3.5.618,7.766,7.766,0,0,0-3.3.934A6.727,6.727,0,0,0,119.929,28a8.623,8.623,0,0,0,.59,3.042,9,9,0,0,1,.612,2.98,6.689,6.689,0,0,1-.727,2.781,27.3,27.3,0,0,1-2.9,4.21A9.982,9.982,0,0,0,115.6,44.7a5.05,5.05,0,0,0,.279,3.069,3.488,3.488,0,0,0,1.22,1.528c.378.255.619.314.609.338" transform="translate(-47.614 -2.842)" fill="#455a64"/>
            <path id="Trazado_601562" data-name="Trazado 601562" d="M170.787,2.577a1,1,0,0,1,.4.122,4.333,4.333,0,0,1,.982.594,5.168,5.168,0,0,1,1.889,3.232,5.165,5.165,0,0,1-.864,3.643,4.343,4.343,0,0,1-.766.855c-.208.173-.338.248-.35.234a14.083,14.083,0,0,0,.935-1.207,5.288,5.288,0,0,0,.743-3.479,5.288,5.288,0,0,0-1.726-3.111,14.115,14.115,0,0,0-1.247-.881" transform="translate(-70.509 -1.062)" fill="#455a64"/>
            <path id="Trazado_601563" data-name="Trazado 601563" d="M197.493,110.59a7.925,7.925,0,0,0,.3-1.1,5.068,5.068,0,0,0-.508-2.99A6.886,6.886,0,0,0,194,103.448a13.1,13.1,0,0,0-2.551-.91c-.917-.236-1.887-.432-2.858-.745a6.5,6.5,0,0,1-2.622-1.433,4.354,4.354,0,0,1-1.237-2.494c-.16-.872-.214-1.7-.407-2.44a4.831,4.831,0,0,0-.945-1.869,5.387,5.387,0,0,0-2.512-1.709c-.7-.21-1.118-.21-1.114-.242a1.1,1.1,0,0,1,.3-.006,4.626,4.626,0,0,1,.848.134,5.327,5.327,0,0,1,2.645,1.685,5,5,0,0,1,1.024,1.943c.211.767.275,1.606.439,2.451a4.088,4.088,0,0,0,1.168,2.332,6.27,6.27,0,0,0,2.507,1.356c.95.306,1.915.5,2.839.746a13.106,13.106,0,0,1,2.6.947,7.019,7.019,0,0,1,3.348,3.213,5.026,5.026,0,0,1,.43,3.1,3.742,3.742,0,0,1-.265.818,1.082,1.082,0,0,1-.149.26" transform="translate(-74.213 -37.815)" fill="#455a64"/>
            <path id="Trazado_601564" data-name="Trazado 601564" d="M123.7,60.679c-5.259-1.407-9.8-6.56-11.647-11.683s-1.845-10.721-1.372-16.145c.343-3.932,1.032-8.087,3.643-11.047,3.935-4.461,8.193-6.738,14.139-6.553" transform="translate(-45.587 -6.292)" fill="#263238"/>
            <path id="Trazado_601565" data-name="Trazado 601565" d="M154.608,105.123l-4.9-1.232a2.793,2.793,0,0,0,.973-3.42,4.489,4.489,0,0,0-3.747-2.777L124.571,95.17a1.794,1.794,0,0,0-1.875,1.1q-1.489,3.778-.1,6.225l-.106,0-4.307.857L110.9,167.787l47.839-2.236Z" transform="translate(-45.783 -39.286)" fill="#f5f5f5"/>
            <path id="Trazado_601566" data-name="Trazado 601566" d="M157.153,109.642a5.189,5.189,0,0,1-.9.172c-.581.095-1.426.2-2.473.3a57.707,57.707,0,0,1-16.374-.814c-1.032-.2-1.862-.392-2.431-.544a5.215,5.215,0,0,1-.876-.261,5.28,5.28,0,0,1,.9.144c.575.116,1.41.271,2.443.447a67.785,67.785,0,0,0,16.318.811c1.046-.073,1.892-.144,2.476-.2a5.208,5.208,0,0,1,.912-.054" transform="translate(-55.363 -44.791)" fill="#263238"/>
            <path id="Trazado_601567" data-name="Trazado 601567" d="M136.529,124.092a17.362,17.362,0,0,1,1.675-2.783,17.306,17.306,0,0,1,1.929-2.614,17.408,17.408,0,0,1-1.675,2.784,17.293,17.293,0,0,1-1.929,2.613" transform="translate(-56.364 -49.003)" fill="#e0e0e0"/>
            <path id="Trazado_601568" data-name="Trazado 601568" d="M159.973,126.239a16.9,16.9,0,0,1-2.124-2.4,16.887,16.887,0,0,1-1.887-2.591,33.578,33.578,0,0,1,4.011,4.989" transform="translate(-64.387 -50.057)" fill="#e0e0e0"/>
            <path id="Trazado_601569" data-name="Trazado 601569" d="M149.778,139.15a17.686,17.686,0,0,1-.722-3.2,17.68,17.68,0,0,1-.422-3.259,17.785,17.785,0,0,1,.722,3.205,17.785,17.785,0,0,1,.422,3.258" transform="translate(-61.355 -54.78)" fill="#e0e0e0"/>
            <path id="Trazado_601570" data-name="Trazado 601570" d="M166.674,144.56a25.827,25.827,0,0,1-2.716,2.889,25.749,25.749,0,0,1-2.93,2.672,51.52,51.52,0,0,1,5.646-5.561" transform="translate(-66.479 -59.68)" fill="#e0e0e0"/>
            <path id="Trazado_601571" data-name="Trazado 601571" d="M140.175,159.464a13.511,13.511,0,0,1-5.091-5.4c.079-.05.981,1.359,2.39,2.845s2.755,2.476,2.7,2.552" transform="translate(-55.768 -63.606)" fill="#e0e0e0"/>
            <path id="Trazado_601572" data-name="Trazado 601572" d="M148.434,177.688c.026.088-1.34.521-2.889,1.343s-2.683,1.7-2.74,1.625a11.13,11.13,0,0,1,5.63-2.969" transform="translate(-58.956 -73.354)" fill="#e0e0e0"/>
            <path id="Trazado_601573" data-name="Trazado 601573" d="M162.633,173.294a5.722,5.722,0,0,1-.935-1c-.543-.649-1.262-1.571-2.013-2.622s-1.389-2.032-1.827-2.755a5.7,5.7,0,0,1-.646-1.21,6.6,6.6,0,0,1,.828,1.092l1.895,2.7,1.935,2.667a6.554,6.554,0,0,1,.764,1.137" transform="translate(-64.903 -68.41)" fill="#e0e0e0"/>
            <path id="Trazado_601574" data-name="Trazado 601574" d="M162.829,190.937a27.768,27.768,0,0,1-7.143,1.179,29.466,29.466,0,0,1,3.56-.658,29.535,29.535,0,0,1,3.582-.521" transform="translate(-64.275 -78.822)" fill="#e0e0e0"/>
            <path id="Trazado_601575" data-name="Trazado 601575" d="M144.808,103.934c-.041-.033.242-.355.482-.976a5.15,5.15,0,0,0,.255-2.55,10.333,10.333,0,0,0-.757-2.5,4.886,4.886,0,0,1-.4-1.033,3.442,3.442,0,0,1,.592.941,8.2,8.2,0,0,1,.864,2.553,4.734,4.734,0,0,1-.359,2.679,1.952,1.952,0,0,1-.681.89" transform="translate(-59.609 -39.993)" fill="#e0e0e0"/>
            <path id="Trazado_601576" data-name="Trazado 601576" d="M160.316,100.683a5.333,5.333,0,0,1,.945,4.038c-.09,0-.1-.938-.362-2.045s-.663-1.951-.584-1.993" transform="translate(-66.182 -41.566)" fill="#e0e0e0"/>
            <path id="Trazado_601577" data-name="Trazado 601577" d="M227.971,133.833l22.258-39.087,2.682-6.78s6.937-14.917,7.421-16.434c.559-1.754,1.539-1.906,2.171-1.656.986.389,1.3,1.858.868,3.378-.15.526-2.847,8.719-2.847,8.719a20.4,20.4,0,0,1,2.3-1.708c1.708-1.148,4.842-1.113,7.739-.08s3.617,1.577,3.269,2.721a1.522,1.522,0,0,1-.928.921,3.01,3.01,0,0,1-2.144.047c-4.663-1.589-6.728.513-6.728.513l-.351.887s3.5-1.122,5.5.464a2.9,2.9,0,0,1,.727.849,3.853,3.853,0,0,1,1.426,6.492,1.6,1.6,0,0,1-1.768.448,2.051,2.051,0,0,1-.668-.77,3.111,3.111,0,0,0-.319-.443l-1.33,2.347s-3.271,5.113-4.442,7.5L247.485,142.98a10.81,10.81,0,1,1-19.515-9.147" transform="translate(-93.531 -28.809)" fill="#ffbe9d"/>
            <path id="Trazado_601578" data-name="Trazado 601578" d="M269.484,106.39a2.246,2.246,0,0,0,2.579-.449c.709-.613,1.189-1.448,1.852-2.111,1.982-1.982,5.3-2.167,7.185-4.241.263-.289.5-.729.269-1.046-.21-.3-.652-.257-1.007-.186l-9.106,1.8" transform="translate(-111.256 -40.586)" fill="#ffbe9d"/>
            <path id="Trazado_601579" data-name="Trazado 601579" d="M271.256,99.977a3.737,3.737,0,0,1,.965-.3c.628-.157,1.54-.366,2.669-.614l3.971-.844,1.149-.237a1.839,1.839,0,0,1,1.391.046.783.783,0,0,1,.3.827,1.609,1.609,0,0,1-.357.671,6.081,6.081,0,0,1-1.025.907,35.576,35.576,0,0,1-4.5,2.175,6.994,6.994,0,0,0-1.729,1.179c-.469.453-.837.97-1.227,1.411a3.263,3.263,0,0,1-2.413,1.354c-.7-.013-.983-.342-.961-.347a2.713,2.713,0,0,0,.952.142,3.164,3.164,0,0,0,2.135-1.389c.358-.439.709-.974,1.2-1.482a7.2,7.2,0,0,1,1.813-1.3A41.369,41.369,0,0,0,280.01,100a5.72,5.72,0,0,0,.931-.815c.254-.289.344-.637.16-.733-.184-.136-.6-.054-.992.027l-1.153.219-3.994.733c-1.138.2-2.061.355-2.7.449a3.719,3.719,0,0,1-1,.094" transform="translate(-111.256 -40.403)" fill="#eb996e"/>
            <path id="Trazado_601580" data-name="Trazado 601580" d="M289.572,94.12a3.83,3.83,0,0,1,1.045-1.408,2.954,2.954,0,0,1,1.76-.578,7.555,7.555,0,0,1,2.322.391,12.089,12.089,0,0,0,2.383.54,3.892,3.892,0,0,0,2-.309,1.518,1.518,0,0,0,.852-1.066.9.9,0,0,0-.011-.5c-.033,0-.03.178-.119.467a1.43,1.43,0,0,1-.827.881,3.856,3.856,0,0,1-1.868.213,13.327,13.327,0,0,1-2.317-.555,7.365,7.365,0,0,0-2.428-.377,3.1,3.1,0,0,0-1.9.705,2.754,2.754,0,0,0-.792,1.109.952.952,0,0,0-.1.487" transform="translate(-119.546 -37.648)" fill="#eb996e"/>
            <path id="Trazado_601581" data-name="Trazado 601581" d="M287.045,74.693a9.7,9.7,0,0,0-.547,1.626c-.346,1.124-.76,2.463-1.217,3.943l-1.276,3.927a9.68,9.68,0,0,0-.489,1.643,7.7,7.7,0,0,0,.716-1.561c.392-.986.885-2.364,1.375-3.905s.877-2.953,1.124-3.984a7.7,7.7,0,0,0,.314-1.689" transform="translate(-117.047 -30.837)" fill="#eb996e"/>
            <path id="Trazado_601582" data-name="Trazado 601582" d="M291.725,99.9a2.079,2.079,0,0,0,.536-.032,1.591,1.591,0,0,1,1.281.343.854.854,0,0,1,.207.818,4.525,4.525,0,0,1-.417,1.037,1.924,1.924,0,0,0-.217,1.348,1.636,1.636,0,0,0,1.043,1.05,1.856,1.856,0,0,0,1.463-.145,2.321,2.321,0,0,0,.973-.948,7.536,7.536,0,0,0,.641-2.112,4.434,4.434,0,0,0,.016-1.485,1,1,0,0,0-.206-.507c-.029.013.044.19.075.525a5.257,5.257,0,0,1-.122,1.424,8.084,8.084,0,0,1-.68,2.005,1.84,1.84,0,0,1-2.047.919,1.317,1.317,0,0,1-.833-.821,1.64,1.64,0,0,1,.183-1.124,4.52,4.52,0,0,0,.41-1.12,1.107,1.107,0,0,0-.319-1.04,1.663,1.663,0,0,0-1.467-.3,1.393,1.393,0,0,0-.518.164" transform="translate(-120.438 -40.982)" fill="#eb996e"/>
            <path id="Trazado_601583" data-name="Trazado 601583" d="M298.194,103.781c-.015-.008-.116.152-.1.479a1.494,1.494,0,0,0,.683,1.148,1.989,1.989,0,0,0,1.976.021,3.256,3.256,0,0,0,1.495-1.9,3.943,3.943,0,0,0,0-2.417,3.767,3.767,0,0,0-1.089-1.645,3.552,3.552,0,0,0-1.133-.682,1.023,1.023,0,0,0-.473-.1,6.223,6.223,0,0,1,1.441.961,3.713,3.713,0,0,1,.953,1.562,3.753,3.753,0,0,1-.025,2.218,3.025,3.025,0,0,1-1.319,1.732,1.766,1.766,0,0,1-1.7.05,1.417,1.417,0,0,1-.676-.956c-.051-.288,0-.457-.029-.463" transform="translate(-123.066 -40.737)" fill="#eb996e"/>
            <path id="Trazado_601584" data-name="Trazado 601584" d="M283.52,110.328a1.4,1.4,0,0,0-.788-.241,3.236,3.236,0,0,0-2.041.487l.25.169a9.522,9.522,0,0,0,.169-1.153,7.364,7.364,0,0,0-.595-3.97,18.643,18.643,0,0,1,.254,3.941c-.033.393-.086.771-.149,1.117l-.07.383.32-.214a3.389,3.389,0,0,1,1.851-.555c.493,0,.786.079.8.035" transform="translate(-115.805 -43.605)" fill="#eb996e"/>
            <path id="Trazado_601585" data-name="Trazado 601585" d="M293.512,89.916c-.089.014.039.7.662,1.244s1.319.581,1.32.491c.021-.1-.561-.27-1.1-.747s-.793-1.02-.887-.987" transform="translate(-121.166 -37.121)" fill="#eb996e"/>
            <path id="Trazado_601586" data-name="Trazado 601586" d="M175.187,182.885l23.276.228-3.916-16.892,1.308,3.186a16.044,16.044,0,0,0,14.842,9.952c7.361,0,12.449-5.478,15.564-12.147,7.282-15.594,14.3-40.707,14.3-40.707l-14.2-12.47c-10.271,19.431-19.926,36.309-19.926,36.309s-2.788-8.474-4.941-16.033-2.14-11.535-5.448-15.305c-5.087-5.8-12.338-7.24-19.071-8.974l-.251,31.376Z" transform="translate(-72.326 -45.427)" fill="#e8505b"/>
            <path id="Trazado_601587" data-name="Trazado 601587" d="M106.273,158.768l42.39,8.257,2.066,16.285h-65A12.806,12.806,0,0,1,72.793,169.5c.936-11.869,1.952-26.494,2.723-32.674a42.384,42.384,0,0,1,4.8-14.095c3.279-6.177,14.216-14.112,23.8-14.5l1.815,40.38" transform="translate(-30.036 -44.681)" fill="#e8505b"/>
            <g id="Grupo_886718" data-name="Grupo 886718" transform="translate(42.716 63.544)" opacity="0.4">
              <g id="Grupo_886717" data-name="Grupo 886717">
                <g id="Grupo_886716" data-name="Grupo 886716" clip-path="url(#clip-path-9)">
                  <path id="Trazado_601588" data-name="Trazado 601588" d="M175.187,182.885l23.276.228-3.916-16.892,1.308,3.186a16.044,16.044,0,0,0,14.842,9.952c7.361,0,12.449-5.478,15.564-12.147,7.282-15.594,14.3-40.707,14.3-40.707l-14.2-12.47c-10.271,19.431-19.926,36.309-19.926,36.309s-2.788-8.474-4.941-16.033-2.14-11.535-5.448-15.305c-5.087-5.8-12.338-7.24-19.071-8.974l-.251,31.376Z" transform="translate(-115.042 -108.971)" fill="#ffc631"/>
                  <path id="Trazado_601589" data-name="Trazado 601589" d="M106.273,158.768l38.236,7.014a3.992,3.992,0,0,1,3.186,3.1l3.034,14.424h-65A12.806,12.806,0,0,1,72.793,169.5c.936-11.869,1.952-26.494,2.723-32.674a42.384,42.384,0,0,1,4.8-14.095c3.279-6.177,14.216-14.112,23.8-14.5l1.815,40.38" transform="translate(-72.752 -108.225)" fill="#ffc631"/>
                </g>
              </g>
            </g>
            <path id="Trazado_601590" data-name="Trazado 601590" d="M112.829,166.327a1.844,1.844,0,0,1-.019-.388c0-.286,0-.654,0-1.111.006-1,.014-2.387.023-4.084,0-3.448-.06-8.211-.328-13.465-.132-2.627-.3-5.128-.486-7.4a30.43,30.43,0,0,0-.852-5.964,8.483,8.483,0,0,0-1.869-3.543,12.428,12.428,0,0,0-1.119-.981,4.554,4.554,0,0,1,1.2.9,8.3,8.3,0,0,1,1.991,3.565,29.335,29.335,0,0,1,.925,6c.2,2.273.379,4.777.511,7.408.268,5.26.3,10.031.239,13.482-.029,1.725-.077,3.121-.121,4.085-.025.457-.045.824-.061,1.11a1.862,1.862,0,0,1-.042.386" transform="translate(-44.663 -53.419)" fill="#263238"/>
            <path id="Trazado_601591" data-name="Trazado 601591" d="M165.737,202.882a6.539,6.539,0,0,0-1.544-1.249,9.688,9.688,0,0,0-2.165-.865c-.878-.25-1.9-.443-3.037-.676-4.529-.923-10.784-2.209-17.716-3.5s-13.233-2.34-17.8-3.073l-5.4-.867-1.468-.245a3.332,3.332,0,0,1-.509-.106,3.265,3.265,0,0,1,.518.045l1.477.189c1.281.17,3.134.43,5.421.771,4.573.678,10.883,1.688,17.82,2.986s13.186,2.615,17.7,3.592c1.128.246,2.156.456,3.041.723a9.461,9.461,0,0,1,2.178.927,5.041,5.041,0,0,1,1.163.941,2.946,2.946,0,0,1,.248.3.436.436,0,0,1,.073.11" transform="translate(-47.93 -79.388)" fill="#263238"/>
            <path id="Trazado_601592" data-name="Trazado 601592" d="M108.771,192.293c.014.055-.781.238-1.99.73a16.7,16.7,0,0,0-2.051,1.012,16.313,16.313,0,0,0-4.266,3.585,16.594,16.594,0,0,0-1.35,1.847c-.693,1.106-1.01,1.857-1.062,1.834a2.083,2.083,0,0,1,.184-.544,10.763,10.763,0,0,1,.693-1.4,14.518,14.518,0,0,1,1.318-1.915,15.129,15.129,0,0,1,4.343-3.649,14.361,14.361,0,0,1,2.113-.969,10.772,10.772,0,0,1,1.5-.442,2.066,2.066,0,0,1,.568-.087" transform="translate(-40.479 -79.385)" fill="#263238"/>
            <path id="Trazado_601593" data-name="Trazado 601593" d="M206.985,181.2a2.05,2.05,0,0,1-.087-.4c-.049-.3-.113-.685-.193-1.166-.163-1.013-.377-2.483-.624-4.3-.495-3.637-1.1-8.673-1.6-14.25s-.809-10.643-.969-14.309c-.082-1.834-.133-3.317-.154-4.344-.008-.488-.014-.881-.018-1.181a2.075,2.075,0,0,1,.014-.413,2.109,2.109,0,0,1,.048.41c.019.3.045.692.076,1.179.061,1.059.146,2.532.25,4.337.217,3.662.558,8.718,1.059,14.293s1.067,10.609,1.508,14.25c.219,1.794.4,3.259.527,4.313.056.485.1.875.136,1.174a2.049,2.049,0,0,1,.027.412" transform="translate(-83.949 -58.141)" fill="#263238"/>
            <path id="Trazado_601594" data-name="Trazado 601594" d="M231.2,190.144c-.017.012-.137-.125-.341-.386a10.9,10.9,0,0,1-.781-1.165,15.438,15.438,0,0,1-2.084-8.9,10.955,10.955,0,0,1,.183-1.39,1.666,1.666,0,0,1,.134-.5c.052.009-.064.73-.1,1.9a17.415,17.415,0,0,0,2.056,8.787c.553,1.032.976,1.626.934,1.658" transform="translate(-94.111 -73.405)" fill="#263238"/>
            <path id="Trazado_601595" data-name="Trazado 601595" d="M101.148,151.3c0,.011-.074.026-.22.046a5.451,5.451,0,0,1-.638.062,9.8,9.8,0,0,1-2.353-.184,17.015,17.015,0,0,1-3.339-1.046c-1.217-.5-2.508-1.153-3.861-1.825a28.838,28.838,0,0,0-3.907-1.636,13.32,13.32,0,0,0-3.374-.659,11,11,0,0,0-3.149.356c0-.01.066-.043.2-.1a4.736,4.736,0,0,1,.608-.2,7.958,7.958,0,0,1,2.346-.271,12.788,12.788,0,0,1,3.451.607,27.04,27.04,0,0,1,3.959,1.631c1.355.673,2.636,1.326,3.835,1.84a18.125,18.125,0,0,0,3.273,1.094,14.868,14.868,0,0,0,3.168.288" transform="translate(-33.154 -60.211)" fill="#fafafa"/>
            <path id="Trazado_601596" data-name="Trazado 601596" d="M123.271,152.692a20.462,20.462,0,0,1-3.454.743,20.587,20.587,0,0,1-3.506.443,20.482,20.482,0,0,1,3.455-.744,20.467,20.467,0,0,1,3.505-.442" transform="translate(-48.019 -63.031)" fill="#fafafa"/>
            <path id="Trazado_601597" data-name="Trazado 601597" d="M99.258,174.171a5.448,5.448,0,0,1-.854.369c-.558.215-1.372.51-2.39.839a61.253,61.253,0,0,1-8.113,2.006c-1.609.282-3.154.487-4.562.627a18.323,18.323,0,0,1-3.768.1,6.442,6.442,0,0,1-2.447-.7,3.744,3.744,0,0,1-.581-.378c-.123-.1-.184-.156-.178-.164.018-.025.279.183.814.436a6.829,6.829,0,0,0,2.413.589,19.512,19.512,0,0,0,3.719-.167c1.4-.155,2.936-.368,4.538-.648a74.451,74.451,0,0,0,8.1-1.912c1.023-.3,1.845-.565,2.415-.745a5.416,5.416,0,0,1,.893-.257" transform="translate(-31.527 -71.905)" fill="#fafafa"/>
            <path id="Trazado_601598" data-name="Trazado 601598" d="M123.383,179.361a16.872,16.872,0,0,1-3.2.206,16.862,16.862,0,0,1-3.2-.1,16.917,16.917,0,0,1,3.2-.206,16.865,16.865,0,0,1,3.2.1" transform="translate(-48.296 -74.004)" fill="#fafafa"/>
            <path id="Trazado_601599" data-name="Trazado 601599" d="M76.423,211.392a1.233,1.233,0,0,1,.062-.312l.236-.881c.054-.195.114-.406.178-.635s.173-.473.27-.737a17.255,17.255,0,0,1,.727-1.77l.479-1.006c.17-.349.387-.689.59-1.054a25.619,25.619,0,0,1,1.443-2.24,26.818,26.818,0,0,1,9.145-7.955,25.461,25.461,0,0,1,2.419-1.119c.389-.151.757-.319,1.125-.439l1.063-.334a17.2,17.2,0,0,1,1.854-.475c.275-.059.529-.124.767-.165l.654-.088.9-.112a1.228,1.228,0,0,1,.318-.018,1.265,1.265,0,0,1-.31.079l-.893.168-.646.114c-.234.049-.485.122-.757.189a18.755,18.755,0,0,0-1.827.514l-1.047.35c-.363.124-.725.3-1.108.451-.774.294-1.552.715-2.383,1.133a27.476,27.476,0,0,0-9.052,7.873c-.528.764-1.053,1.477-1.452,2.2-.206.358-.426.693-.6,1.035l-.491.989a18.88,18.88,0,0,0-.763,1.738c-.1.26-.21.5-.292.724l-.2.624-.29.861a1.281,1.281,0,0,1-.122.3" transform="translate(-31.55 -79.287)" fill="#fafafa"/>
            <path id="Trazado_601600" data-name="Trazado 601600" d="M120.226,194.278a10.513,10.513,0,0,0-2.412,3.03,14.794,14.794,0,0,0-1.35,3.986,40.7,40.7,0,0,0-.555,5.162,36.552,36.552,0,0,1-.6,5.2,14.182,14.182,0,0,1-1.471,4.02,8.992,8.992,0,0,1-1.79,2.263,5.917,5.917,0,0,1-.617.486.91.91,0,0,1-.234.141,10.368,10.368,0,0,0,2.453-3,14.548,14.548,0,0,0,1.385-3.973,38.885,38.885,0,0,0,.572-5.16,38.193,38.193,0,0,1,.585-5.2,14.381,14.381,0,0,1,1.436-4.033,9.076,9.076,0,0,1,1.76-2.287,6.061,6.061,0,0,1,.61-.495.927.927,0,0,1,.232-.146" transform="translate(-45.905 -80.207)" fill="#fafafa"/>
            <path id="Trazado_601601" data-name="Trazado 601601" d="M143.622,220.388c-.085,0,.013-5.062.217-11.3s.439-11.293.523-11.29-.013,5.061-.217,11.3-.439,11.292-.523,11.289" transform="translate(-59.281 -81.661)" fill="#fafafa"/>
            <path id="Trazado_601602" data-name="Trazado 601602" d="M170.038,221.516a3.788,3.788,0,0,1-.261-.733,8.594,8.594,0,0,1-.239-.881c-.077-.347-.184-.74-.247-1.184a21.082,21.082,0,0,1-.312-3.135,21.9,21.9,0,0,1,1.166-7.6,21.019,21.019,0,0,1,1.237-2.9c.194-.405.412-.748.591-1.056a8.648,8.648,0,0,1,.491-.769,3.745,3.745,0,0,1,.469-.621c.05.033-.582.944-1.357,2.542a23.565,23.565,0,0,0-1.163,2.89,23.273,23.273,0,0,0-1.151,7.508,23.5,23.5,0,0,0,.244,3.106c.261,1.758.591,2.816.533,2.832" transform="translate(-69.762 -83.658)" fill="#fafafa"/>
            <path id="Trazado_601603" data-name="Trazado 601603" d="M112.493,122.515c-.022.05-.93-.358-2.453-.85a27.78,27.78,0,0,0-12.335-1.089c-1.585.217-2.55.459-2.564.406a3.08,3.08,0,0,1,.666-.217,17.988,17.988,0,0,1,1.865-.4,24.947,24.947,0,0,1,12.437,1.1,18.29,18.29,0,0,1,1.766.725,3.089,3.089,0,0,1,.618.331" transform="translate(-39.279 -49.552)" fill="#fafafa"/>
            <path id="Trazado_601604" data-name="Trazado 601604" d="M193.245,165.925a16.805,16.805,0,0,1-2.178-.034c-1.343-.052-3.2-.123-5.246-.175s-3.906-.071-5.25-.086a16.684,16.684,0,0,1-2.177-.075,2.175,2.175,0,0,1,.582-.071c.376-.026.92-.05,1.592-.071,1.345-.04,3.205-.054,5.259,0s3.91.157,5.252.264c.671.053,1.213.105,1.587.15a2.155,2.155,0,0,1,.578.1" transform="translate(-73.65 -68.276)" fill="#fafafa"/>
            <path id="Trazado_601605" data-name="Trazado 601605" d="M216.192,162.57c.018.052-.737.3-1.881.869a18.425,18.425,0,0,0-7.337,6.54c-.691,1.072-1.029,1.792-1.078,1.769a1.958,1.958,0,0,1,.193-.527,11.907,11.907,0,0,1,.7-1.356,16.546,16.546,0,0,1,7.429-6.621,11.731,11.731,0,0,1,1.427-.542,1.986,1.986,0,0,1,.545-.132" transform="translate(-85.003 -67.115)" fill="#fafafa"/>
            <path id="Trazado_601606" data-name="Trazado 601606" d="M199.635,130.436a8.789,8.789,0,0,0-2.984.418,20.615,20.615,0,0,0-3.01,1.339,24.429,24.429,0,0,1-3.723,1.672,15.167,15.167,0,0,1-7.358.48,13.948,13.948,0,0,1-2.17-.587,3.826,3.826,0,0,1-.753-.333c.019-.059,1.1.409,2.96.707a15.778,15.778,0,0,0,7.227-.558,26.187,26.187,0,0,0,3.69-1.633,18.889,18.889,0,0,1,3.073-1.294,6.894,6.894,0,0,1,2.23-.319,3.679,3.679,0,0,1,.61.058c.139.022.21.039.208.049" transform="translate(-74.163 -53.804)" fill="#fafafa"/>
            <path id="Trazado_601607" data-name="Trazado 601607" d="M195.639,197.147a3.569,3.569,0,0,1-.683.319c-.223.1-.5.207-.828.312s-.7.246-1.119.352a21.89,21.89,0,0,1-2.989.622,22.675,22.675,0,0,1-7.454-.224,21.841,21.841,0,0,1-2.946-.8c-.415-.131-.775-.291-1.1-.419s-.591-.251-.807-.36a3.491,3.491,0,0,1-.663-.36c.024-.053.991.413,2.633.934a24.764,24.764,0,0,0,2.932.729,24.286,24.286,0,0,0,7.365.221,24.881,24.881,0,0,0,2.97-.552c1.67-.422,2.664-.828,2.685-.774" transform="translate(-73.096 -81.16)" fill="#fafafa"/>
            <path id="Trazado_601608" data-name="Trazado 601608" d="M227.949,207.929a1.091,1.091,0,0,1-.228-.187c-.138-.135-.361-.316-.6-.592a13.982,13.982,0,0,1-1.858-2.492,20.284,20.284,0,0,1-2.616-9.832,39.437,39.437,0,0,1,1.331-10.137c.316-1.271.6-2.29.806-2.993l.245-.806a1.093,1.093,0,0,1,.106-.275,1.079,1.079,0,0,1-.046.292c-.052.222-.114.493-.19.82l-.71,3.012a42.424,42.424,0,0,0-1.236,10.081,20.823,20.823,0,0,0,2.5,9.731,15.672,15.672,0,0,0,1.759,2.521c.476.551.762.838.743.858" transform="translate(-91.916 -74.567)" fill="#fafafa"/>
            <path id="Trazado_601609" data-name="Trazado 601609" d="M253.112,185.407a11.752,11.752,0,0,0-3.105-1.746,24.964,24.964,0,0,0-3.759-.976,42.419,42.419,0,0,1-4.677-1.078,19.245,19.245,0,0,1-7.441-4.475,17.382,17.382,0,0,1-1.757-1.976c-.191-.247-.322-.452-.415-.587a.8.8,0,0,1-.126-.218,6.855,6.855,0,0,1,.634.73,21.883,21.883,0,0,0,1.813,1.894,20,20,0,0,0,7.386,4.34,46.489,46.489,0,0,0,4.64,1.093,23.2,23.2,0,0,1,3.781,1.05,9.051,9.051,0,0,1,2.315,1.29,5,5,0,0,1,.544.473c.119.114.177.178.17.186" transform="translate(-95.711 -71.98)" fill="#fafafa"/>
            <path id="Trazado_601610" data-name="Trazado 601610" d="M266.217,154.088a4.344,4.344,0,0,1-.629-.545c-.192-.184-.43-.408-.722-.65s-.6-.539-.985-.826a27.587,27.587,0,0,0-2.727-1.929,27.143,27.143,0,0,0-7.493-3.206,27.646,27.646,0,0,0-3.279-.641c-.47-.078-.9-.1-1.278-.143s-.7-.061-.968-.073a4.383,4.383,0,0,1-.828-.078,4.322,4.322,0,0,1,.832-.041c.268-.006.6-.005.976.022s.816.034,1.292.1a24.511,24.511,0,0,1,3.322.582,25.479,25.479,0,0,1,7.573,3.24,24.651,24.651,0,0,1,2.715,2c.375.3.683.608.963.867s.509.493.69.692a4.319,4.319,0,0,1,.545.63" transform="translate(-102.101 -60.256)" fill="#fafafa"/>
            <path id="Trazado_601611" data-name="Trazado 601611" d="M186.286,113.9a4.289,4.289,0,0,1-1.114.537,21.123,21.123,0,0,1-5.8,1.351,4.3,4.3,0,0,1-1.237.011c-.007-.092,1.867-.25,4.114-.779s4-1.206,4.034-1.12" transform="translate(-73.544 -47.021)" fill="#fafafa"/>
            <path id="Trazado_601612" data-name="Trazado 601612" d="M213.468,236.561a1.635,1.635,0,0,1-1.794,2.073h0a1.635,1.635,0,0,1-1.343-1.15l-.495-1.848.072.025a1.706,1.706,0,0,1-1.9,2.015c-.774-.019-1.438-1.124-1.656-1.714a3.2,3.2,0,0,1-2.983-1.433l-3.447-5.377-6.382-4.668,3.859-13.792,13.738,8.891c.538.419.621.6,1.479,1.391l8.865,8.152c-1.006.6-1.858.558-3.252,0s-7.52-4.688-7.52-4.688Z" transform="translate(-79.902 -86.983)" fill="#ffbe9d"/>
            <path id="Trazado_601613" data-name="Trazado 601613" d="M207.47,235.426c.012-.017.158.07.409.24l.453.317a2.778,2.778,0,0,1,.567.494,2.588,2.588,0,0,1,.467.8l.335.961.75,2.208c.525,1.569.983,3,1.3,4.033a10.033,10.033,0,0,1,.453,1.7,9.967,9.967,0,0,1-.659-1.631c-.369-1.019-.86-2.433-1.384-4l-.727-2.214q-.161-.5-.308-.969a2.467,2.467,0,0,0-.4-.743,2.836,2.836,0,0,0-.5-.5l-.421-.358c-.229-.2-.349-.318-.336-.335" transform="translate(-85.654 -97.194)" fill="#eb996e"/>
            <path id="Trazado_601614" data-name="Trazado 601614" d="M217.392,244.1a2.383,2.383,0,0,1-.2-.569q-.184-.656-.442-1.572c-.371-1.328-.874-3.164-1.513-5.165a18.923,18.923,0,0,0-2.111-4.893A4.181,4.181,0,0,0,212,230.781c-.321-.2-.529-.26-.519-.29,0-.011.056,0,.156.024a1.956,1.956,0,0,1,.422.163,3.852,3.852,0,0,1,1.24,1.1,16.922,16.922,0,0,1,2.229,4.929c.642,2.011,1.114,3.861,1.431,5.2.157.672.275,1.218.348,1.6a2.244,2.244,0,0,1,.08.6" transform="translate(-87.311 -95.156)" fill="#eb996e"/>
            <path id="Trazado_601615" data-name="Trazado 601615" d="M223.653,244.235a2.734,2.734,0,0,1-.24-.616l-.544-1.712c-.446-1.449-1.042-3.457-1.683-5.68l-1.612-5.694a2.78,2.78,0,0,0-.94-1.435,3.737,3.737,0,0,0-.569-.3c0-.008.062-.012.174.012a1.49,1.49,0,0,1,.462.193,2.762,2.762,0,0,1,1.077,1.461c.484,1.452,1.053,3.458,1.7,5.682s1.2,4.24,1.6,5.7l.45,1.739a2.738,2.738,0,0,1,.125.649" transform="translate(-90.028 -94.455)" fill="#eb996e"/>
          </g>
        </g>
      </g>
    </g>
    <g id="Grupo_886737" data-name="Grupo 886737" transform="translate(525 1864.588)">
      <g id="Grupo_886736" data-name="Grupo 886736" transform="translate(0 0)" clip-path="url(#clip-path-10)">
        <path id="Trazado_601669" data-name="Trazado 601669" d="M55.7,39.259A1.858,1.858,0,1,1,53.843,37.4,1.858,1.858,0,0,1,55.7,39.259" transform="translate(-39.491 -17.549)" fill="#455a64"/>
        <path id="Trazado_601670" data-name="Trazado 601670" d="M41.692,39.259A1.858,1.858,0,1,1,39.834,37.4a1.858,1.858,0,0,1,1.858,1.858" transform="translate(-18.046 -17.549)" fill="#455a64"/>
        <path id="Trazado_601671" data-name="Trazado 601671" d="M27,38.33a1.858,1.858,0,1,1-2.538-.68A1.858,1.858,0,0,1,27,38.33" transform="translate(4.061 -17.549)" fill="#455a64"/>
        <path id="Trazado_601672" data-name="Trazado 601672" d="M21.9.008A2.1,2.1,0,0,1,22.279,0l1.1.031c.243.011.515.011.814.036l.974.137L26.308.37l1.27.315a20.559,20.559,0,0,1,6.155,2.683,22.088,22.088,0,0,1,6.365,6.2,22.276,22.276,0,0,1,3.611,10.126,22.533,22.533,0,0,1,.061,2.976c-.036.5-.025,1.015-.1,1.522l-.231,1.533A21.835,21.835,0,0,1,41.37,31.78a23.314,23.314,0,0,1-3.955,5.443,22.871,22.871,0,0,1-5.7,4.095,20.709,20.709,0,0,1-6.947,2.132,13.629,13.629,0,0,1-1.853.158,16.681,16.681,0,0,1-1.873.035,22.291,22.291,0,0,1-3.752-.474,21.928,21.928,0,0,1-7.469-3.143l.227.023L2.441,43.1l-.451.181.128-.468,2.237-8.133.038.2a21.825,21.825,0,0,1-4.06-9.294,19.757,19.757,0,0,1-.3-4.761,15.379,15.379,0,0,1,.216-2.287q.088-.56.173-1.113c.068-.366.179-.721.266-1.078A21.756,21.756,0,0,1,9.181,3.976a20.825,20.825,0,0,1,5.051-2.665L15.371.9,16.451.63l.988-.245c.317-.061.623-.093.91-.137.575-.073,1.08-.173,1.523-.194L20.989.015,21.673,0A1.02,1.02,0,0,1,21.9.008a1.007,1.007,0,0,1-.231.031l-.68.054-1.11.075c-.439.034-.94.145-1.509.229a21.638,21.638,0,0,0-17.3,16.047c-.083.351-.191.7-.256,1.059S.709,18.23.654,18.6a14.972,14.972,0,0,0-.2,2.245,19.4,19.4,0,0,0,.308,4.668,21.439,21.439,0,0,0,4,9.091l.069.091-.03.11q-1.075,3.942-2.22,8.138l-.322-.287,7.6-3.062.119-.048.108.071a21.475,21.475,0,0,0,7.3,3.07,21.735,21.735,0,0,0,3.667.464,16.2,16.2,0,0,0,1.831-.033,13.358,13.358,0,0,0,1.812-.153A20.261,20.261,0,0,0,31.5,40.885a22.425,22.425,0,0,0,5.583-4,22.924,22.924,0,0,0,3.885-5.319,21.451,21.451,0,0,0,2.046-5.926q.116-.756.232-1.5c.074-.5.065-1,.1-1.493a22.169,22.169,0,0,0-.046-2.92A21.491,21.491,0,0,0,33.582,3.6,20.7,20.7,0,0,0,27.527.87L26.274.536,25.149.351,24.184.192c-.3-.032-.567-.04-.808-.059l-1.1-.08A2.143,2.143,0,0,1,21.9.008" transform="translate(0 0)" fill="#455a64"/>
      </g>
    </g>
  </g>
</svg>
