<svg xmlns="http://www.w3.org/2000/svg" xmlns:xlink="http://www.w3.org/1999/xlink" width="283.715" height="286.272" viewBox="0 0 283.715 286.272">
  <defs>
    <clipPath id="clip-path">
      <rect id="Rectángulo_291369" data-name="Rectángulo 291369" width="263.007" height="269.396" fill="#fff"/>
    </clipPath>
    <clipPath id="clip-path-2">
      <rect id="Rectángulo_334422" data-name="Rectángulo 334422" width="149.107" height="124.17" fill="none"/>
    </clipPath>
    <clipPath id="clip-path-3">
      <rect id="Rectángulo_334427" data-name="Rectángulo 334427" width="180.294" height="149.422" fill="none"/>
    </clipPath>
    <clipPath id="clip-path-5">
      <rect id="Rectángulo_334423" data-name="Rectángulo 334423" width="59.635" height="24.01" fill="none"/>
    </clipPath>
    <clipPath id="clip-path-6">
      <rect id="Rectángulo_334424" data-name="Rectángulo 334424" width="3.718" height="19.579" fill="none"/>
    </clipPath>
    <clipPath id="clip-path-7">
      <rect id="Rectángulo_334425" data-name="Rectángulo 334425" width="21.895" height="15.336" fill="none"/>
    </clipPath>
    <clipPath id="clip-path-8">
      <rect id="Rectángulo_334421" data-name="Rectángulo 334421" width="43.804" height="43.654" fill="none"/>
    </clipPath>
  </defs>
  <g id="Grupo_886794" data-name="Grupo 886794" transform="translate(-660.893 -1762.762)">
    <g id="Grupo_870716" data-name="Grupo 870716" transform="translate(669 1779.639)">
      <g id="Grupo_870714" data-name="Grupo 870714" clip-path="url(#clip-path)">
        <path id="Trazado_215321" data-name="Trazado 215321" d="M20.023,131.069C52.9,104.227-4.03,60.911,8.574,18.069s54.2,1.2,76.578,22.311S133.76,23.724,151.146,22.71s7.6,15.491,15.444,36.87,65.644,3.624,88.818,24.274-13.745,64.593-16.853,90.8S275.36,230.5,249.788,269.4l-127.04-.769c-12.783-4.024-21.122-7.213-21.122-7.213-118.932-52.6-114.474-103.5-81.6-130.345" transform="translate(0 0)" fill="#fff"/>
      </g>
    </g>
    <path id="Trazado_215325" data-name="Trazado 215325" d="M231.347,583.768c0,4.059-45.727,7.35-102.134,7.35S27.08,587.827,27.08,583.768s45.753-4.533,102.16-4.533,102.107.473,102.107,4.533" transform="translate(670.92 1457.916)" fill="#fcc15a" opacity="0.31"/>
    <g id="Grupo_886739" data-name="Grupo 886739" transform="translate(615.893 1898.301)">
      <g id="Grupo_886738" data-name="Grupo 886738" transform="translate(45 17.682)" clip-path="url(#clip-path-2)">
        <path id="Trazado_601673" data-name="Trazado 601673" d="M134.664,139.709H7.949A7.949,7.949,0,0,1,0,131.76V41.741a7.949,7.949,0,0,1,7.949-7.949H134.664a7.949,7.949,0,0,1,7.949,7.949V131.76a7.949,7.949,0,0,1-7.949,7.949" transform="translate(0 -15.739)" fill="#fff"/>
        <path id="Trazado_601674" data-name="Trazado 601674" d="M143.193,52.338H.58V40.222a6.43,6.43,0,0,1,6.429-6.43H135.315a7.878,7.878,0,0,1,7.878,7.878Z" transform="translate(-0.27 -15.739)" fill="#e0e0e0"/>
        <path id="Trazado_601675" data-name="Trazado 601675" d="M16.837,48.247a2.1,2.1,0,1,1-2.1-2.1,2.1,2.1,0,0,1,2.1,2.1" transform="translate(-5.888 -21.495)" fill="#fff"/>
        <path id="Trazado_601676" data-name="Trazado 601676" d="M28.672,48.247a2.1,2.1,0,1,1-2.1-2.1,2.1,2.1,0,0,1,2.1,2.1" transform="translate(-11.4 -21.495)" fill="#fff"/>
        <path id="Trazado_601677" data-name="Trazado 601677" d="M40.507,48.247a2.1,2.1,0,1,1-2.1-2.1,2.1,2.1,0,0,1,2.1,2.1" transform="translate(-16.913 -21.495)" fill="#fff"/>
        <path id="Trazado_601678" data-name="Trazado 601678" d="M135.127,139.593s.106-.01.314-.022a6.48,6.48,0,0,0,.927-.1,7.944,7.944,0,0,0,6.508-6.24,21.274,21.274,0,0,0,.154-3.785q0-2.035-.006-4.332c-.01-12.244-.025-29.957-.042-51.844q0-8.208-.009-17.179,0-4.48,0-9.138,0-2.329,0-4.7a10.023,10.023,0,0,0-.194-2.343,7.794,7.794,0,0,0-.859-2.2,7.556,7.556,0,0,0-1.489-1.854,7.372,7.372,0,0,0-1.993-1.334,7.557,7.557,0,0,0-2.323-.669,22.712,22.712,0,0,0-2.467-.067l-10.13,0-21.145.006L8.215,33.81H7.432c-.255.017-.512.019-.766.046A6.813,6.813,0,0,0,1,38.366a6.773,6.773,0,0,0-.347,1.476A13.177,13.177,0,0,0,.6,41.372q0,6.186,0,12.287,0,12.2,0,24.023c0,15.75-.005,30.942-.008,45.414q0,2.713,0,5.393,0,1.34,0,2.671c-.008.447.018.88.045,1.315l.1.645c.034.215.1.422.152.633A7.874,7.874,0,0,0,6.024,139.1a8.6,8.6,0,0,0,2.506.375l19.946.007,35.8.016,51.841.043,14.094.025,3.665.013c.826,0,1.249.013,1.249.013s-.423.009-1.249.014l-3.665.013-14.094.025-51.841.042-35.8.017-19.946.006a8.843,8.843,0,0,1-2.578-.385,8.116,8.116,0,0,1-5.3-5.508c-.051-.218-.122-.432-.157-.653l-.1-.665c-.029-.447-.054-.9-.046-1.34q0-1.331,0-2.671,0-2.679,0-5.393c0-14.472-.005-29.664-.008-45.414q0-11.812,0-24.023,0-6.1,0-12.287a13.474,13.474,0,0,1,.054-1.561,7.045,7.045,0,0,1,.361-1.534A7.128,7.128,0,0,1,6.637,33.59c.264-.029.53-.031.8-.048h.783l94.151.011,21.145.005,10.13,0a22.933,22.933,0,0,1,2.495.071,7.786,7.786,0,0,1,2.39.69,7.614,7.614,0,0,1,2.049,1.374,7.788,7.788,0,0,1,1.531,1.908,8.029,8.029,0,0,1,.881,2.26,10.256,10.256,0,0,1,.2,2.391q0,2.371,0,4.7,0,4.657,0,9.138,0,8.961-.009,17.179c-.018,21.887-.033,39.6-.043,51.844q0,2.3-.006,4.332a21.28,21.28,0,0,1-.168,3.8,7.988,7.988,0,0,1-3.207,4.889,7.864,7.864,0,0,1-3.375,1.363,5.963,5.963,0,0,1-.931.084c-.209.009-.315.009-.315.009" transform="translate(-0.153 -15.623)" fill="#263238"/>
        <path id="Trazado_601679" data-name="Trazado 601679" d="M93.043,9.025A4.395,4.395,0,0,1,91.806,3.44,6.825,6.825,0,0,1,96.862.115a9.634,9.634,0,0,1,8.3,2.75c1.141,1.175,2.064,2.706,3.611,3.245,1.359.473,2.862.046,4.29.231A6.474,6.474,0,0,1,117.6,9.61a13.979,13.979,0,0,1,1.612,5.514c.208,1.758.345,3.688,1.565,4.971,1.19,1.251,3.069,1.516,4.548,2.407a6.225,6.225,0,0,1,1.849,8.5c-.586.854-1.426,1.638-1.494,2.671a7.72,7.72,0,0,0,.833,2.686,4.2,4.2,0,0,1-3.595,5.218c-1.227.071-2.542-.408-3.642.141s-1.5,1.862-2.2,2.864a5.255,5.255,0,0,1-6.406,1.655c-.9-.443-1.755-1.173-2.758-1.106s-1.789.922-2.774,1.113c-1.29.249-2.514-.7-3.281-1.767a17.923,17.923,0,0,0-2.282-3.2c-1.284-1.143-3.089-1.425-4.716-1.985a13.3,13.3,0,0,1-7.512-18.634" transform="translate(-40.013 0)" fill="#263238"/>
        <path id="Trazado_601680" data-name="Trazado 601680" d="M133.647,59.225a3.607,3.607,0,0,1,1.434-.943l-.11-.007a2.1,2.1,0,0,1,.307-.052,1.425,1.425,0,0,1,1.121.138h-.011a2.654,2.654,0,0,1,1.451,1.263,3.139,3.139,0,0,1-.37,3.235,2.4,2.4,0,0,1-4.4-.824,2.979,2.979,0,0,1,.581-2.81" transform="translate(-61.921 -27.094)" fill="#455a64"/>
        <path id="Trazado_601681" data-name="Trazado 601681" d="M88.864,56.729,87.1,24.3a2.926,2.926,0,0,1,2.533-3.041l15.411-4.365c4.957-.667,8.435,5.36,8.892,10.341.507,5.533.907,12.308.368,16.462-1.084,8.354-7.928,9.618-7.928,9.618,0-.028-.05,2.1,0,5.124l-3.146,10.277Z" transform="translate(-40.566 -7.844)" fill="#ffc09d"/>
        <path id="Trazado_601682" data-name="Trazado 601682" d="M131.459,48.72a1.067,1.067,0,0,1-1,1.105,1.021,1.021,0,0,1-1.127-.931,1.068,1.068,0,0,1,1-1.106,1.021,1.021,0,0,1,1.128.931" transform="translate(-60.239 -22.257)" fill="#263238"/>
        <path id="Trazado_601683" data-name="Trazado 601683" d="M131.089,42.047c-.128.143-.953-.432-2.1-.4-1.147.019-1.972.634-2.1.5-.063-.06.065-.315.424-.592a2.927,2.927,0,0,1,1.677-.569,2.811,2.811,0,0,1,1.677.489c.361.261.487.509.424.573" transform="translate(-59.093 -19.089)" fill="#263238"/>
        <path id="Trazado_601684" data-name="Trazado 601684" d="M112.423,49.024a1.067,1.067,0,0,1-1,1.105A1.02,1.02,0,0,1,110.3,49.2a1.067,1.067,0,0,1,1-1.106,1.021,1.021,0,0,1,1.127.931" transform="translate(-51.373 -22.398)" fill="#263238"/>
        <path id="Trazado_601685" data-name="Trazado 601685" d="M109.984,43.048c-.129.143-.955-.432-2.1-.4-1.146.019-1.972.634-2.1.5-.063-.06.064-.315.424-.592a2.928,2.928,0,0,1,1.676-.57,2.818,2.818,0,0,1,1.677.489c.36.261.487.509.424.573" transform="translate(-49.263 -19.555)" fill="#263238"/>
        <path id="Trazado_601686" data-name="Trazado 601686" d="M121.206,51.361a7.584,7.584,0,0,1,1.854-.389c.292-.038.568-.1.612-.306a1.491,1.491,0,0,0-.22-.863l-.93-2.207a38.34,38.34,0,0,1-2.112-5.782,38.462,38.462,0,0,1,2.573,5.6q.467,1.163.894,2.221a1.694,1.694,0,0,1,.185,1.146.736.736,0,0,1-.47.442,2,2,0,0,1-.5.083,7.46,7.46,0,0,1-1.889.056" transform="translate(-56.078 -19.475)" fill="#263238"/>
        <path id="Trazado_601687" data-name="Trazado 601687" d="M113.832,82.776a19.972,19.972,0,0,1-10.721-2.68s2.407,6.185,10.708,5.171Z" transform="translate(-48.026 -37.306)" fill="#ff9b6c"/>
        <path id="Trazado_601688" data-name="Trazado 601688" d="M118.189,63.78a2.825,2.825,0,0,0-2.36-1.167,1.841,1.841,0,0,0-1.487.865,1.686,1.686,0,0,0,1.962,2.471,4.192,4.192,0,0,0,1.66-1.093,1.308,1.308,0,0,0,.351-.44.585.585,0,0,0-.061-.581" transform="translate(-53.153 -29.161)" fill="#ff9b6c"/>
        <path id="Trazado_601689" data-name="Trazado 601689" d="M115.482,61.351c.186-.016.224,1.229,1.316,2.083s2.413.679,2.428.853c.019.077-.289.25-.849.282a3.109,3.109,0,0,1-2.025-.642,2.7,2.7,0,0,1-1.023-1.75c-.062-.519.068-.832.153-.827" transform="translate(-53.709 -28.575)" fill="#263238"/>
        <path id="Trazado_601690" data-name="Trazado 601690" d="M109.805,34.407c-.1.315-1.254.2-2.6.4-1.346.174-2.421.6-2.608.323-.083-.131.1-.43.528-.745a4.567,4.567,0,0,1,3.965-.552c.5.185.755.423.711.573" transform="translate(-48.711 -15.653)" fill="#263238"/>
        <path id="Trazado_601691" data-name="Trazado 601691" d="M130.388,34.615c-.194.266-.993.018-1.944.033-.951-.019-1.751.225-1.944-.042-.085-.13.034-.395.379-.652a2.816,2.816,0,0,1,3.132.008c.344.258.462.524.376.653" transform="translate(-58.908 -15.595)" fill="#263238"/>
        <path id="Trazado_601692" data-name="Trazado 601692" d="M125.463,21.809a5.716,5.716,0,0,0-2.194-3.147,21.179,21.179,0,0,1-1.852-1.078c-1.2-.97-1.48-2.658-2.222-4.013a6.282,6.282,0,0,0-4.785-3.174c-1.648-.168-3.346.326-4.952-.079-1.187-.3-2.225-1.071-3.427-1.3-2.343-.446-4.521,1.236-6.219,2.909-.006,1.677,1.33,2.8,2.616,3.875a5.818,5.818,0,0,0,4.709,1.243c1.279-.234,2.682-.881,3.79-.2,1.165.717,1.213,2.473,2.247,3.37,1.477,1.282,3.824.079,5.7.635,1.448.43,2.352,1.813,3.314,2.977s2.4,2.271,3.85,1.841a17.007,17.007,0,0,0-.574-3.862" transform="translate(-46.49 -4.167)" fill="#263238"/>
        <path id="Trazado_601693" data-name="Trazado 601693" d="M90.432,15.3c-1.05-.3-3.2-.98-3.763-1.891A6.419,6.419,0,0,0,81.085,10.2a5.3,5.3,0,0,0-4.77,4.188,7.618,7.618,0,0,0-6.548,4.215,7.959,7.959,0,0,0-.416.977,5.794,5.794,0,0,0-.388,4.866c.363.949.982,2,.494,2.894-.5.907-1.751.935-2.729,1.273a3.849,3.849,0,0,0-2.424,4.3,4.693,4.693,0,0,1,.306,1.893,4.124,4.124,0,0,1-1.132,1.636,4.79,4.79,0,0,0,2.808,7.8,6.187,6.187,0,0,1,2.2.5c.742.456,1.066,1.348,1.589,2.044a4.132,4.132,0,0,0,4.477,1.4,3.78,3.78,0,0,0,.9-.452A2.966,2.966,0,0,0,78.086,48.9l-.308-17.536a1.451,1.451,0,0,0,1.063.833c2.814.637,3.226-5.163,2.6-6.735a16.372,16.372,0,0,0,2.824-2.969,11.8,11.8,0,0,0,1.3-5.69c1.014.059,5.335-1.368,4.874-1.5" transform="translate(-29.048 -4.749)" fill="#263238"/>
        <path id="Trazado_601694" data-name="Trazado 601694" d="M88.1,50.977c-.089-1.782-2.27-2.164-3.815-1.27-.848.49-1.5,1.476-1.419,3.368.208,5.046,5.231,3.8,5.234,3.651,0-.09.1-3.663,0-5.749" transform="translate(-38.592 -22.936)" fill="#ffc09d"/>
        <path id="Trazado_601695" data-name="Trazado 601695" d="M87.6,56.344c-.023-.015-.085.065-.231.139a.88.88,0,0,1-.657.041,2.178,2.178,0,0,1-1.087-1.91,2.906,2.906,0,0,1,.194-1.269,1.016,1.016,0,0,1,.633-.7.448.448,0,0,1,.529.22c.073.138.045.24.073.248s.1-.089.056-.3a.563.563,0,0,0-.212-.308.665.665,0,0,0-.491-.108,1.235,1.235,0,0,0-.886.82,2.986,2.986,0,0,0-.247,1.419,2.282,2.282,0,0,0,1.372,2.126.943.943,0,0,0,.8-.166c.152-.131.173-.245.155-.254" transform="translate(-39.714 -24.402)" fill="#ff9b6c"/>
        <path id="Trazado_601696" data-name="Trazado 601696" d="M91.417,17.2a3.013,3.013,0,0,0-1.006.843,4.655,4.655,0,0,0-.371,3.49l.027.127-.124.031a4.879,4.879,0,0,0-3.251,2.864,3.8,3.8,0,0,0-.261,1.231,7.457,7.457,0,0,0,.158,1.333,10.012,10.012,0,0,1,.192,1.436,2.373,2.373,0,0,1-.4,1.489,6.119,6.119,0,0,1-2.5,1.88,8.481,8.481,0,0,0-2.343,1.535,6.305,6.305,0,0,0-1.885,4.228,6.579,6.579,0,0,0,.665,3.118c.335.689.617,1.018.588,1.039-.01.007-.083-.071-.215-.227a5.376,5.376,0,0,1-.5-.747,6.409,6.409,0,0,1-.793-3.189A6.489,6.489,0,0,1,81.3,33.229a8.7,8.7,0,0,1,2.415-1.612,5.869,5.869,0,0,0,2.363-1.764,3.475,3.475,0,0,0,.162-2.67,7.6,7.6,0,0,1-.155-1.4,4.091,4.091,0,0,1,.295-1.347,5.115,5.115,0,0,1,3.5-3l-.1.159a4.687,4.687,0,0,1,.509-3.636,2.127,2.127,0,0,1,.79-.644,1.229,1.229,0,0,1,.336-.113" transform="translate(-36.981 -8.012)" fill="#455a64"/>
        <path id="Trazado_601697" data-name="Trazado 601697" d="M85.489,62.406a3.612,3.612,0,0,1,1.434-.943l-.11-.007a1.963,1.963,0,0,1,.307-.052,1.423,1.423,0,0,1,1.121.138h-.011A2.652,2.652,0,0,1,89.682,62.8a3.141,3.141,0,0,1-.37,3.235,2.4,2.4,0,0,1-4.4-.824,2.979,2.979,0,0,1,.581-2.81" transform="translate(-39.49 -28.575)" fill="#455a64"/>
        <path id="Trazado_601698" data-name="Trazado 601698" d="M230.524,93.855s3.957-5.434,5.354-5.595,10.14.161,11.369,0,8.143-3.235,8.143-3.235a1.583,1.583,0,0,1,1.075,1.593c-.154,1.157-7.836,5.523-8.757,5.685s-8.3.732-8.3.732l-4.469,7.023Z" transform="translate(-107.371 -39.602)" fill="#ffc09d"/>
        <path id="Trazado_601699" data-name="Trazado 601699" d="M154.149,93.263l-16.712,16.476L113.688,94.885a10.093,10.093,0,0,0-4.412-1.488l-9.317-.957-3.743-3.486-3.04,10.026L78.239,87.468l-2.772,5.2-9.953,4.771,9.54,46.888a50.08,50.08,0,0,1-2.105,6.5c-.612,1.723-2.921,10.221-2.519,13.721l25.813.22,26.823-.131-4.836-16.2-2.849-12.523c.721-15.343,1.091-17.8.342-21.574l0,.006s15.587,9.144,23.289,10.024c1.2.137,4.54-1.464,6.116-3.319,6.316-7.433,17.151-20.765,17.151-20.765Z" transform="translate(-30.515 -40.74)" fill="#8effe6"/>
        <path id="Trazado_601700" data-name="Trazado 601700" d="M58.177,129.6l-4.044,14.922,27.227,14.49-5.208,10.735L43.918,156.932a9.742,9.742,0,0,1-4.478-3.464c-1.279-1.866-2.245-4.111-.972-8.255l6.937-26.028c.441-1.654,1.2-4.268,1.963-6.416a12.793,12.793,0,0,1,3.471-5.3,12.279,12.279,0,0,1,1.8-1.333" transform="translate(-17.639 -49.437)" fill="#8effe6"/>
        <path id="Trazado_601701" data-name="Trazado 601701" d="M52.534,106.139s-.108.075-.322.218-.526.362-.915.675a12.023,12.023,0,0,0-2.82,3.271,28.83,28.83,0,0,0-2.393,6.374c-.745,2.554-1.476,5.5-2.346,8.735l-2.808,10.6-1.567,5.9L38.544,145a14.2,14.2,0,0,0-.633,3.185,7.539,7.539,0,0,0,.464,3.25,8.78,8.78,0,0,0,.769,1.507,9.074,9.074,0,0,0,1.031,1.375,9.676,9.676,0,0,0,2.8,2.1c.529.271,1.095.48,1.663.707l1.707.678,14.158,5.625,15.592,6.2-.167.063,5.215-10.732.052.157L53.99,144.593l-.056-.03.017-.06,3.017-10.992.811-2.912c.093-.324.164-.572.214-.747s.08-.251.08-.251-.016.087-.058.256l-.192.753-.77,2.922c-.685,2.56-1.682,6.291-2.945,11.01l-.04-.089,27.248,14.454.1.054-.05.1-5.2,10.737-.053.108L76,169.865l-15.595-6.2-14.155-5.631-1.707-.679c-.563-.227-1.138-.44-1.683-.719a9.941,9.941,0,0,1-2.874-2.156,9.3,9.3,0,0,1-1.056-1.411,8.971,8.971,0,0,1-.787-1.549,7.76,7.76,0,0,1-.475-3.351,14.38,14.38,0,0,1,.646-3.233l.825-3.085,1.58-5.9,2.839-10.589c.883-3.234,1.625-6.172,2.385-8.729a28.54,28.54,0,0,1,2.447-6.385,11.842,11.842,0,0,1,2.875-3.261,9.059,9.059,0,0,1,1.27-.853" transform="translate(-17.534 -49.437)" fill="#263238"/>
        <path id="Trazado_601702" data-name="Trazado 601702" d="M143.779,213.626l-7.754-3.709-15.133-1.2-5.089-2.644-3.49,7.466s7.689,4.633,9.766,4.8l12.723-.385,6.652.7Z" transform="translate(-52.312 -95.983)" fill="#ffc09d"/>
        <path id="Trazado_601703" data-name="Trazado 601703" d="M74.515,131.224c-.054-.01.175-1,.271-2.632a20.2,20.2,0,0,0-.043-2.859,20.132,20.132,0,0,0-1.8-6.746,20.559,20.559,0,0,0-1.391-2.517c-.9-1.377-1.594-2.135-1.551-2.17a3.773,3.773,0,0,1,.5.518,7.8,7.8,0,0,1,.542.649c.2.262.441.552.665.9a18.656,18.656,0,0,1,1.456,2.518,19.1,19.1,0,0,1,1.821,6.827,18.331,18.331,0,0,1-.014,2.89c-.02.411-.087.779-.13,1.1a7.6,7.6,0,0,1-.15.824,3.648,3.648,0,0,1-.181.692" transform="translate(-32.604 -53.238)" fill="#263238"/>
        <path id="Trazado_601704" data-name="Trazado 601704" d="M62.6,177.967c-.01.045-.442-.038-1.142-.05a7.87,7.87,0,0,0-5.05,1.734c-.545.439-.835.77-.87.74a3.047,3.047,0,0,1,.747-.884,7,7,0,0,1,5.181-1.779,3.064,3.064,0,0,1,1.133.239" transform="translate(-25.867 -82.771)" fill="#263238"/>
        <path id="Trazado_601705" data-name="Trazado 601705" d="M152.442,117.693a4.947,4.947,0,0,1,.494.7l.252.382.263.477a12.89,12.89,0,0,1,.6,1.183l.322.7.3.782c.222.535.385,1.133.59,1.751a34.163,34.163,0,0,1,.886,4.134,48.167,48.167,0,0,1,.451,7.655c-.015.981-.049,1.774-.087,2.321a4.986,4.986,0,0,1-.084.848,4.961,4.961,0,0,1-.025-.852c0-.548.008-1.34,0-2.319a56.636,56.636,0,0,0-.529-7.613,37.082,37.082,0,0,0-.858-4.105c-.2-.613-.349-1.209-.56-1.742l-.283-.779q-.157-.365-.3-.7c-.181-.454-.386-.844-.561-1.19l-.241-.484-.229-.392a5.017,5.017,0,0,1-.4-.752" transform="translate(-71.003 -54.818)" fill="#263238"/>
        <path id="Trazado_601706" data-name="Trazado 601706" d="M101.487,104.566a.723.723,0,0,1-.206-.084c-.131-.063-.323-.162-.567-.3a12.407,12.407,0,0,1-1.991-1.326l.137-.017a32.514,32.514,0,0,0-3.175,6.375l-.073.2-.151-.151-2.037-2.04c-2.59-2.6-4.924-4.963-6.6-6.684l-1.978-2.048-.528-.567a1.006,1.006,0,0,1-.17-.211,1.01,1.01,0,0,1,.21.171l.565.53,2.041,1.986c1.715,1.685,4.07,4.027,6.661,6.627l2.032,2.044-.224.049a30.206,30.206,0,0,1,3.278-6.382l.059-.086.079.069a14.439,14.439,0,0,0,1.918,1.375,7.344,7.344,0,0,1,.723.466" transform="translate(-39.192 -45.513)" fill="#263238"/>
        <path id="Trazado_601707" data-name="Trazado 601707" d="M124.246,97.065a2.86,2.86,0,0,1,.049.68,12.553,12.553,0,0,1-.128,1.855,14.313,14.313,0,0,1-2.135,5.725l-.163.252-.108.168-.119-.163a21.386,21.386,0,0,1-2.535-4.569h.2l-.917,2.094a4.438,4.438,0,0,1-.378.756,4.375,4.375,0,0,1,.267-.8l.831-2.13.093-.24.1.24a23.577,23.577,0,0,0,2.563,4.487l-.228,0,.16-.248a15.142,15.142,0,0,0,2.174-5.6c.261-1.532.22-2.506.273-2.5" transform="translate(-54.964 -45.21)" fill="#263238"/>
        <path id="Trazado_601708" data-name="Trazado 601708" d="M127.663,156.294a2.947,2.947,0,0,1-.078-.465q-.063-.5-.169-1.341l-.584-4.935c-.5-4.164-1.187-9.924-2.4-16.206-.616-3.139-1.328-6.1-2.072-8.772-.4-1.325-.755-2.594-1.167-3.756-.2-.583-.378-1.151-.573-1.688l-.58-1.539c-.353-.987-.742-1.852-1.058-2.622l-.451-1.069-.411-.885-.561-1.228a2.971,2.971,0,0,1-.178-.438,2.991,2.991,0,0,1,.229.412l.609,1.207.434.876c.152.323.3.681.473,1.062.332.766.735,1.627,1.1,2.613q.286.735.6,1.537c.2.537.386,1.1.59,1.687.422,1.162.786,2.432,1.195,3.759.76,2.673,1.481,5.643,2.1,8.79,1.213,6.3,1.866,12.066,2.32,16.237.223,2.087.388,3.777.5,4.945q.074.849.118,1.347a3,3,0,0,1,.022.471" transform="translate(-54.673 -51.864)" fill="#263238"/>
        <path id="Trazado_601709" data-name="Trazado 601709" d="M132.311,181.327a4.83,4.83,0,0,1-.838.017c-.54-.006-1.319-.032-2.282-.078-1.926-.091-4.585-.28-7.51-.6s-5.561-.724-7.46-1.058c-.949-.167-1.716-.313-2.243-.425a4.817,4.817,0,0,1-.814-.2,4.881,4.881,0,0,1,.833.093l2.256.337c1.9.284,4.539.651,7.459.976s5.57.543,7.49.684l2.275.166a4.833,4.833,0,0,1,.833.091" transform="translate(-51.777 -83.361)" fill="#263238"/>
        <path id="Trazado_601710" data-name="Trazado 601710" d="M131.072,192.527a3.489,3.489,0,0,1-.679-.216l-1.819-.668c-1.535-.565-3.661-1.325-6.031-2.1s-4.537-1.416-6.109-1.866l-1.862-.535a3.512,3.512,0,0,1-.675-.227,3.49,3.49,0,0,1,.7.122c.448.1,1.093.248,1.887.45,1.587.4,3.767,1.016,6.144,1.792s4.5,1.569,6.015,2.182c.76.306,1.37.563,1.788.751a3.524,3.524,0,0,1,.639.316" transform="translate(-53.05 -87.057)" fill="#263238"/>
        <path id="Trazado_601711" data-name="Trazado 601711" d="M201.186,135.94a3.111,3.111,0,0,1-.531-.914,10.795,10.795,0,0,1-.943-4.976,3.12,3.12,0,0,1,.159-1.044,27.25,27.25,0,0,0,.29,3.537,27.242,27.242,0,0,0,1.025,3.4" transform="translate(-93.013 -60.087)" fill="#263238"/>
        <path id="Trazado_601712" data-name="Trazado 601712" d="M184.2,163.118l-43.624.354c-1.415,0-2.767.68-2.979,2.079l-4.767,31.795H110.36a1.31,1.31,0,1,0,0,2.62h71.765l4.9-33.557a2.862,2.862,0,0,0-2.83-3.291" transform="translate(-50.792 -75.976)" fill="#e0e0e0"/>
        <path id="Trazado_601713" data-name="Trazado 601713" d="M184.165,163.1a2.321,2.321,0,0,1,.688.065,2.883,2.883,0,0,1,2.205,2.5,8.051,8.051,0,0,1-.16,1.794c-.183,1.285-.393,2.765-.629,4.428l-4.045,28.083-.017.115h-.117l-69.623.042h-1.874a1.809,1.809,0,0,1-.991-.189,1.487,1.487,0,0,1,.006-2.6,1.82,1.82,0,0,1,.983-.184h.923l7.292,0,13.988,0-.168.145,4.753-31.538a2.469,2.469,0,0,1,.807-1.661,3.244,3.244,0,0,1,1.668-.736,14.452,14.452,0,0,1,1.759-.062l1.713-.012,6.567-.044,11.672-.074,16.616-.085,4.445-.008,1.148.005c.258,0,.389.012.389.012s-.131.011-.389.018l-1.148.024-4.445.064-16.616.185-11.672.116-6.567.063-1.713.016a14.332,14.332,0,0,0-1.716.063,2.962,2.962,0,0,0-1.521.671,2.172,2.172,0,0,0-.709,1.489c-1.422,9.531-3.007,20.155-4.706,31.545l-.021.145h-.147l-13.988,0h-8.215a1.467,1.467,0,0,0-.813.141,1.135,1.135,0,0,0,0,1.984,1.463,1.463,0,0,0,.82.144h1.874l69.623.041-.133.115c1.75-11.8,3.174-21.4,4.162-28.067.249-1.661.471-3.139.664-4.422a8.092,8.092,0,0,0,.178-1.768,2.8,2.8,0,0,0-.506-1.356,2.85,2.85,0,0,0-1.612-1.112,5.725,5.725,0,0,0-.678-.1" transform="translate(-50.694 -75.961)" fill="#263238"/>
        <path id="Trazado_601714" data-name="Trazado 601714" d="M156.989,199.982c.062.01,1.45-8.086,3.1-18.08s2.939-18.109,2.878-18.119-1.45,8.084-3.1,18.083-2.939,18.107-2.878,18.117" transform="translate(-73.12 -76.285)" fill="#263238"/>
        <path id="Trazado_601715" data-name="Trazado 601715" d="M201.044,196.39a2.731,2.731,0,1,0,2.731-2.731,2.731,2.731,0,0,0-2.731,2.731" transform="translate(-93.641 -90.201)" fill="#fff"/>
      </g>
    </g>
    <g id="Grupo_886752" data-name="Grupo 886752" transform="translate(764.313 1789.878)">
      <g id="Grupo_886751" data-name="Grupo 886751" clip-path="url(#clip-path-3)">
        <g id="Grupo_886750" data-name="Grupo 886750">
          <g id="Grupo_886749" data-name="Grupo 886749" clip-path="url(#clip-path-3)">
            <path id="Trazado_601717" data-name="Trazado 601717" d="M192.763,164.227H64.962c-4.428,0-8.018-4.147-8.018-9.263V50.074c0-5.116,3.59-9.263,8.018-9.263h127.8c4.428,0,8.018,4.147,8.018,9.263V154.964c0,5.116-3.59,9.263-8.018,9.263" transform="translate(-20.81 -14.914)" fill="#fff"/>
            <path id="Trazado_601718" data-name="Trazado 601718" d="M201.311,62.372H57.878V48.4a7.638,7.638,0,0,1,7.637-7.637H192.89a8.421,8.421,0,0,1,8.421,8.421Z" transform="translate(-21.151 -14.896)" fill="#e0e0e0"/>
            <path id="Trazado_601719" data-name="Trazado 601719" d="M72.406,55.329a2.419,2.419,0,1,1-2.418-2.445,2.432,2.432,0,0,1,2.418,2.445" transform="translate(-24.693 -19.326)" fill="#fff"/>
            <path id="Trazado_601720" data-name="Trazado 601720" d="M83.891,55.329a2.419,2.419,0,1,1-2.418-2.445,2.432,2.432,0,0,1,2.418,2.445" transform="translate(-28.89 -19.326)" fill="#fff"/>
            <path id="Trazado_601721" data-name="Trazado 601721" d="M95.376,55.329a2.419,2.419,0,1,1-2.418-2.445,2.432,2.432,0,0,1,2.418,2.445" transform="translate(-33.087 -19.326)" fill="#fff"/>
            <path id="Trazado_601722" data-name="Trazado 601722" d="M192.969,164.085s.113-.012.336-.028a5.626,5.626,0,0,0,.989-.126,7.342,7.342,0,0,0,3.46-1.732,9.406,9.406,0,0,0,3.02-5.506,24.39,24.39,0,0,0,.158-4.1q0-2.2-.008-4.684c-.012-13.242-.029-32.4-.05-56.068-.006-11.836-.013-24.8-.02-38.717q0-1.3,0-2.621a12.616,12.616,0,0,0-.2-2.6,9.507,9.507,0,0,0-2.319-4.647,7.453,7.453,0,0,0-4.59-2.406c-.875-.076-1.8-.033-2.7-.044H188.3l-22.621.007L64.956,40.83a10.761,10.761,0,0,0-1.647.072,5.064,5.064,0,0,0-.8.175c-.129.04-.261.075-.39.119l-.376.159a6.713,6.713,0,0,0-2.562,1.985,8.361,8.361,0,0,0-1.508,2.9,10.4,10.4,0,0,0-.37,3.268q0,6.69,0,13.289,0,13.194,0,25.98c0,17.033-.006,33.462-.009,49.113q0,5.869,0,11.589c.006,1.9-.016,3.8.013,5.675a9.923,9.923,0,0,0,.447,2.725,9.033,9.033,0,0,0,1.16,2.475,8.642,8.642,0,0,0,1.812,2,7.626,7.626,0,0,0,2.346,1.256,7.944,7.944,0,0,0,1.293.291c.44.026.878.058,1.33.047h2.678l10.5,0,38.3.02,55.459.051,15.078.03,3.922.016c.883.006,1.336.016,1.336.016s-.452.011-1.336.017l-3.922.016-15.078.03-55.459.051-38.3.019-10.5,0H65.694c-.445.011-.9-.02-1.362-.048a8.2,8.2,0,0,1-1.343-.3,7.907,7.907,0,0,1-2.435-1.3,8.9,8.9,0,0,1-1.873-2.066,9.293,9.293,0,0,1-1.2-2.547,10.19,10.19,0,0,1-.461-2.8c-.03-1.888-.01-3.776-.016-5.684q0-5.719,0-11.589C57,122.236,57,105.806,57,88.774q0-12.774,0-25.98,0-6.6,0-13.289a10.727,10.727,0,0,1,.383-3.359,8.688,8.688,0,0,1,1.567-3.01,7.033,7.033,0,0,1,2.68-2.075l.395-.167c.135-.046.273-.083.41-.125a5.3,5.3,0,0,1,.836-.185,11.059,11.059,0,0,1,1.694-.076l100.723.012,22.621.007h2.74c.913.013,1.807-.031,2.733.048a7.726,7.726,0,0,1,4.757,2.494,9.784,9.784,0,0,1,2.383,4.782,12.9,12.9,0,0,1,.206,2.656q0,1.315,0,2.621c-.007,13.917-.014,26.882-.02,38.717-.021,23.669-.038,42.825-.05,56.068q0,2.482-.008,4.684a24.343,24.343,0,0,1-.174,4.113,9.458,9.458,0,0,1-3.071,5.538,7.313,7.313,0,0,1-3.5,1.715,5.286,5.286,0,0,1-.993.11c-.224.01-.337.011-.337.011" transform="translate(-20.826 -14.804)" fill="#263238"/>
            <path id="Trazado_601723" data-name="Trazado 601723" d="M21.963,169.948c-2.605-.286-5.529-.492-5.529-.492l-2.586-.32a2.952,2.952,0,0,0,.157.5,1.95,1.95,0,0,1,.206.956c-.085.621-.754.992-1.374,1.106a3.806,3.806,0,0,1-3.54-1.273,3.757,3.757,0,0,1-.645-3.55,2.749,2.749,0,0,1-.234-1.046c-.066-2.447,2.838-4.5,2.838-4.5l-.89-.239s-2.824.386-4.307,4.89A2.917,2.917,0,0,1,4.775,167.6a1.483,1.483,0,0,1-1.251.187c-1.086-.388-1.089-1.255-.2-4.08s2.682-5.259,4.562-5.917A19.8,19.8,0,0,1,10.541,157s-7.9-2.621-8.389-2.807c-1.426-.538-2.377-1.624-2.1-2.607.175-.631.861-1.3,2.541-.723,1.454.5,17.009,3.71,17.009,3.71l6.8,1.823,5.361,2.414L28,168.2l-.617.413a8.137,8.137,0,0,1-5.415,1.334" transform="translate(0 -55.052)" fill="#ae7461"/>
            <path id="Trazado_601724" data-name="Trazado 601724" d="M32.546,160.173A2.18,2.18,0,0,1,30.7,161.9c-.886.195-1.81.086-2.707.216-2.683.391-4.755,2.84-7.453,3.1-.376.037-.851-.035-.965-.392-.106-.331.181-.649.442-.883l6.687-5.982" transform="translate(-7.145 -57.728)" fill="#ae7461"/>
            <path id="Trazado_601725" data-name="Trazado 601725" d="M26.558,157.964a3.628,3.628,0,0,0-.789.574c-.486.394-1.178.977-2.027,1.7l-2.961,2.576-.852.75c-.251.258-.695.484-.773,1.1a.748.748,0,0,0,.466.7,1.56,1.56,0,0,0,.726.11,5.958,5.958,0,0,0,1.3-.27,34.685,34.685,0,0,0,4.3-2.222,6.826,6.826,0,0,1,1.916-.656c.622-.1,1.236-.088,1.8-.135a3.187,3.187,0,0,0,2.449-1.083c.4-.546.308-.954.291-.94a2.63,2.63,0,0,1-.445.815,3.084,3.084,0,0,1-2.314.848c-.548.024-1.164-.012-1.845.077a7.047,7.047,0,0,0-2.058.651,40.176,40.176,0,0,1-4.25,2.16,5.55,5.55,0,0,1-1.17.249c-.372.03-.693-.1-.661-.3,0-.22.309-.495.6-.749l.84-.763,2.888-2.657c.817-.761,1.473-1.385,1.918-1.824a3.606,3.606,0,0,0,.657-.72" transform="translate(-7 -57.727)" fill="#6f4439"/>
            <path id="Trazado_601726" data-name="Trazado 601726" d="M13.09,167.164a3.722,3.722,0,0,0-1.7,0,2.877,2.877,0,0,0-1.47,1.024A7.293,7.293,0,0,0,8.877,170.2a11.627,11.627,0,0,1-.969,2.147,3.783,3.783,0,0,1-1.4,1.364,1.478,1.478,0,0,1-1.319.045c-.282-.145-.389-.286-.38-.3.018-.027.155.078.43.177A1.4,1.4,0,0,0,6.4,173.5a3.744,3.744,0,0,0,1.251-1.317,12.859,12.859,0,0,0,.918-2.1A7.11,7.11,0,0,1,9.69,168a3.018,3.018,0,0,1,1.648-1.058,2.684,2.684,0,0,1,1.317.025c.3.087.443.185.435.2" transform="translate(-1.757 -60.981)" fill="#6f4439"/>
            <path id="Trazado_601727" data-name="Trazado 601727" d="M2.529,155.893A9.492,9.492,0,0,1,4.1,156.4l3.754,1.326L11.63,159a9.27,9.27,0,0,1,1.554.567,7.482,7.482,0,0,1-1.622-.345c-.989-.263-2.341-.673-3.816-1.18s-2.791-1.018-3.731-1.419a7.33,7.33,0,0,1-1.487-.727" transform="translate(-0.924 -56.969)" fill="#6f4439"/>
            <path id="Trazado_601728" data-name="Trazado 601728" d="M17.617,171.074c.017.018-.116.151-.337.395a1.533,1.533,0,0,0-.479,1.185.814.814,0,0,0,.512.628,4.388,4.388,0,0,0,1.043.274,1.851,1.851,0,0,1,1.168.606,1.558,1.558,0,0,1,.2,1.406,1.8,1.8,0,0,1-.963,1.044,2.266,2.266,0,0,1-1.3.206,7.28,7.28,0,0,1-2-.718,4.257,4.257,0,0,1-1.156-.84.949.949,0,0,1-.272-.449c.027-.015.121.143.362.359a5.024,5.024,0,0,0,1.171.723,7.782,7.782,0,0,0,1.944.626,1.79,1.79,0,0,0,1.9-1.05,1.251,1.251,0,0,0-.15-1.113,1.576,1.576,0,0,0-.974-.5,4.377,4.377,0,0,1-1.1-.326,1.057,1.057,0,0,1-.618-.843,1.6,1.6,0,0,1,.621-1.3c.256-.223.414-.32.428-.305" transform="translate(-5.129 -62.518)" fill="#6f4439"/>
            <path id="Trazado_601729" data-name="Trazado 601729" d="M18.267,178.387c0-.016.185,0,.43.195a1.423,1.423,0,0,1,.49,1.185,1.926,1.926,0,0,1-1.133,1.534,3.163,3.163,0,0,1-2.34.06,3.777,3.777,0,0,1-1.867-1.386,3.587,3.587,0,0,1-.637-1.782,3.4,3.4,0,0,1,.131-1.264c.091-.287.179-.43.2-.423a5.9,5.9,0,0,0-.1,1.661,3.529,3.529,0,0,0,.653,1.631,3.6,3.6,0,0,0,1.727,1.253,2.942,2.942,0,0,0,2.1-.023,1.711,1.711,0,0,0,1.029-1.282,1.35,1.35,0,0,0-.346-1.07c-.193-.2-.352-.262-.341-.288" transform="translate(-4.823 -64.504)" fill="#6f4439"/>
            <path id="Trazado_601730" data-name="Trazado 601730" d="M31.364,170.9c-.029-.008.012-.309.272-.745a3.145,3.145,0,0,1,1.563-1.293l-.015.289a9.375,9.375,0,0,1-.989-.531,7.035,7.035,0,0,1-2.72-2.736,17.791,17.791,0,0,0,2.9,2.456c.323.2.646.376.95.526l.336.166-.351.124A3.3,3.3,0,0,0,31.8,170.27c-.288.378-.4.65-.437.635" transform="translate(-10.77 -60.623)" fill="#6f4439"/>
            <path id="Trazado_601731" data-name="Trazado 601731" d="M11.25,166.826c.063-.062.521.433.576,1.223s-.318,1.35-.389,1.3c-.087-.041.118-.587.06-1.274s-.327-1.2-.247-1.249" transform="translate(-4.106 -60.964)" fill="#6f4439"/>
            <path id="Trazado_601732" data-name="Trazado 601732" d="M105.217,127.408s-16.83,28.738-22.435,31.538-25.869-1.288-30.58-2.361c-5.347-1.216-12.172-3.351-12.172-3.351l2-15.96,4.409.1s24.989,2.529,26.434,1.388,11.069-19.547,11.069-19.547,6.04-12.2,8.2-14.992c3.181-4.1,5.828-4.1,5.828-4.1Z" transform="translate(-14.629 -36.588)" fill="#042e50"/>
            <path id="Trazado_601733" data-name="Trazado 601733" d="M110.9,180.951c.445-22.807,2.491-69.153,2.491-69.153l10.482-16.414a46.875,46.875,0,0,1,7.247-1.393c4.011-.442,4.693-.826,4.693-.826l2.92-4.6,24.05-1.4,3.675,6.817s15.06,7.846,17.066,8.95-11.067,55.175-11.067,55.175l2.522,22.845Z" transform="translate(-40.527 -31.854)" fill="#042e50"/>
            <path id="Trazado_601734" data-name="Trazado 601734" d="M143.682,191.979c.093-4,.3-8.763.579-14.046.316-5.282.734-11.084,1.333-17.161.625-6.077,1.365-11.851,2.183-17.081.865-5.223,1.729-9.915,2.657-13.814l.638-2.786.654-2.465c.4-1.541.747-2.869,1.094-3.937.313-1.049.56-1.876.739-2.476l.181-.647a.847.847,0,0,0,.047-.226.881.881,0,0,0-.092.212l-.225.635-.823,2.453c-.373,1.062-.746,2.385-1.172,3.922q-.323,1.156-.689,2.462-.318,1.32-.671,2.784c-.97,3.9-1.869,8.591-2.759,13.82-.843,5.236-1.6,11.016-2.222,17.1-.6,6.085-1.006,11.9-1.3,17.184-.254,5.29-.429,10.056-.48,14.061" transform="translate(-52.388 -42.882)" fill="#263238"/>
            <path id="Trazado_601735" data-name="Trazado 601735" d="M113.94,125.987a10.026,10.026,0,0,0-.147,1.557c-.065,1-.136,2.458-.208,4.255-.146,3.593-.268,8.559-.412,14.042s-.328,10.445-.5,14.034l-.213,4.251a10.034,10.034,0,0,0-.029,1.564,10.093,10.093,0,0,0,.209-1.55c.108-1,.23-2.451.361-4.245.26-3.588.5-8.554.641-14.041s.214-10.451.276-14.045c.025-1.74.045-3.177.06-4.257a10.128,10.128,0,0,0-.034-1.564" transform="translate(-41.08 -46.042)" fill="#263238"/>
            <g id="Grupo_886742" data-name="Grupo 886742" transform="translate(73.673 114.983)" opacity="0.3">
              <g id="Grupo_886741" data-name="Grupo 886741">
                <g id="Grupo_886740" data-name="Grupo 886740" clip-path="url(#clip-path-5)">
                  <path id="Trazado_601736" data-name="Trazado 601736" d="M116.128,185.267a4.322,4.322,0,0,1,2.64-3.192,11.6,11.6,0,0,1,4.25-.788A74.941,74.941,0,0,1,175,199.171l.737,5.1c-4.574,1.939-9.883.609-14.419-1.414s-8.846-4.743-13.729-5.682c-4.231-.813-8.792-.268-12.7-2.075-2.464-1.14-4.488-3.151-7.073-3.984-2.308-.744-4.828-.471-7.193-1.012s-4.8-2.446-4.5-4.835" transform="translate(-116.103 -181.204)"/>
                </g>
              </g>
            </g>
            <path id="Trazado_601737" data-name="Trazado 601737" d="M205.787,112.012a19.073,19.073,0,0,1,9.553,12.814c1.264,5.627,4.94,21.1,4.94,21.1s3.99,18.465,3.42,22.045-1.77,11.571-9.562,12.513-34.9-8.933-34.9-8.933l-7.41-3.015,2.85-13.567,12.73,3.2,12.464.989-1.685-11.277-2.764-7.247a41.691,41.691,0,0,1,3.2-14.5c3.04-6.595,7.167-14.133,7.167-14.133" transform="translate(-62.795 -40.935)" fill="#042e50"/>
            <path id="Trazado_601738" data-name="Trazado 601738" d="M129.46,156.81l-9.837-19.879a3.98,3.98,0,0,0-3.569-2.206H91.335a1.2,1.2,0,0,0-1.07,1.772L107,167.473a2.7,2.7,0,0,0,2.374,1.41h25.636Z" transform="translate(-32.934 -49.235)" fill="#455a64"/>
            <path id="Trazado_601739" data-name="Trazado 601739" d="M90.607,137.436a2,2,0,0,0,.494.039l1.416.024h5.206l17.16-.146a4.927,4.927,0,0,1,2.282.548,4.256,4.256,0,0,1,1.517,1.664c.718,1.359,1.323,2.775,1.949,4.067l3.279,6.932,2.248,4.656.632,1.256a1.943,1.943,0,0,0,.249.424,1.974,1.974,0,0,0-.164-.463l-.553-1.293-2.113-4.718-3.189-6.973c-.622-1.31-1.2-2.689-1.94-4.111a4.694,4.694,0,0,0-1.681-1.84,5.36,5.36,0,0,0-2.494-.611c-6.731.044-12.784.188-17.184.28l-5.2.145-1.414.063a2.029,2.029,0,0,0-.493.053" transform="translate(-33.112 -50.028)" fill="#263238"/>
            <path id="Trazado_601740" data-name="Trazado 601740" d="M114.309,144.559a.8.8,0,0,0-.371,1.23,1.183,1.183,0,0,0,1.308.492.915.915,0,0,0,.682-.652,1.128,1.128,0,0,0-.755-1.13,1.783,1.783,0,0,0-.864.06" transform="translate(-41.583 -52.797)" fill="#fff"/>
            <path id="Trazado_601741" data-name="Trazado 601741" d="M157.926,172.66l-1.705-1.739s-2.5-3.611-3.527-4.738-7.167-5.077-7.167-5.077-2.96-3.979-3.415-3.979-1.9.255-1.507,2.1a28.223,28.223,0,0,0,1.623,5.337l-13.121.286a2.792,2.792,0,0,0-2.138,1.015c-.343.433-.485.911.129,1.216a63.859,63.859,0,0,0,6.939,2.031l-2.489-.636s-.534,2.361,1.041,3.482a8.471,8.471,0,0,1,1.676,1.328,7.342,7.342,0,0,0,.76,3.136c.682.9,8.074,4.674,8.074,4.674s4.724,1.385,7.113,1.272a12.294,12.294,0,0,1,5.116,1.3c.269.072,2.6-11.015,2.6-11.015" transform="translate(-46.293 -57.422)" fill="#ae7461"/>
            <path id="Trazado_601742" data-name="Trazado 601742" d="M149.2,168.853a27.138,27.138,0,0,0,3.685.409,14.585,14.585,0,0,0,3.715.182,15.832,15.832,0,0,0-3.669-.64,10.577,10.577,0,0,0-3.732.048" transform="translate(-54.523 -61.648)" fill="#6f4439"/>
            <path id="Trazado_601743" data-name="Trazado 601743" d="M145.737,177.065a19.4,19.4,0,0,0-5.36-1.13c-1.5-.189-2.859-.323-3.839-.431a7.227,7.227,0,0,0-1.6-.121,4.629,4.629,0,0,0,1.551.442c.976.192,2.334.378,3.83.565,3,.342,5.387.779,5.418.673" transform="translate(-49.312 -64.085)" fill="#6f4439"/>
            <path id="Trazado_601744" data-name="Trazado 601744" d="M147.117,183.922c0-.136-1.913-.194-4.222-.593s-4.134-.963-4.18-.835a15.857,15.857,0,0,0,8.4,1.428" transform="translate(-50.693 -66.686)" fill="#6f4439"/>
            <path id="Trazado_601745" data-name="Trazado 601745" d="M150.647,190.914c.126.021.316-.491.425-1.142s.093-1.2-.033-1.217-.317.491-.425,1.142-.094,1.2.033,1.217" transform="translate(-55.015 -68.907)" fill="#6f4439"/>
            <path id="Trazado_601746" data-name="Trazado 601746" d="M152.471,182.245c.131-.01.2-.433.426-.879s.507-.767.434-.876-.572.1-.852.675-.131,1.1-.008,1.081" transform="translate(-55.665 -65.949)" fill="#6f4439"/>
            <path id="Trazado_601747" data-name="Trazado 601747" d="M154.852,173.53c.129.014.264-.259.423-.567s.293-.581.2-.676-.422.077-.619.47-.133.763-.008.773" transform="translate(-56.547 -62.953)" fill="#6f4439"/>
            <path id="Trazado_601748" data-name="Trazado 601748" d="M159.793,110.316a4.825,4.825,0,0,0,.749-.43l2.069-1.232c.888-.524,1.965-1.152,3.174-1.894a29.819,29.819,0,0,0,3.892-2.71l-.339-.058a12.681,12.681,0,0,1,1.395,6.286v.028l-.014.52.4-.336c3.857-3.264,7.317-6.262,9.722-8.541,1.205-1.136,2.157-2.079,2.8-2.751a7.992,7.992,0,0,0,.953-1.077,9.184,9.184,0,0,0-1.08.951l-2.891,2.639c-2.456,2.212-5.943,5.165-9.8,8.431l.383.184V110.3a12.89,12.89,0,0,0-1.475-6.5l-.129-.244-.21.186a31.65,31.65,0,0,1-3.791,2.719l-3.119,1.975c-.871.555-1.553,1.01-2.008,1.339a3.423,3.423,0,0,0-.671.546" transform="translate(-58.396 -35.858)" fill="#263238"/>
            <path id="Trazado_601749" data-name="Trazado 601749" d="M148.179,96.622a4.273,4.273,0,0,0-.5.952c-.287.631-.675,1.554-1.118,2.708s-.95,2.536-1.422,4.109c-.119.393-.229.8-.32,1.23a2.4,2.4,0,0,0-.06.732.332.332,0,0,0,.383.253.345.345,0,0,0,.2-.114l.051-.065.2-.262,1.7-2.18,2.191-2.838-.378-.03c1.371,2.57,2.617,4.765,3.559,6.3.471.766.865,1.365,1.152,1.765a2.639,2.639,0,0,0,.482.591,3.2,3.2,0,0,0-.353-.673l-1.035-1.826c-.872-1.564-2.064-3.782-3.408-6.36l-.161-.308-.217.279-2.192,2.814-1.68,2.175-.2.263L145,106.2l.082.081v0s0,0,0,.009l0,0,0,0,.119-.03a2.542,2.542,0,0,1,.057-.551c.081-.406.185-.808.3-1.2.444-1.56.921-2.95,1.32-4.115l.977-2.751a5.531,5.531,0,0,0,.337-1.02" transform="translate(-52.897 -35.31)" fill="#263238"/>
            <path id="Trazado_601750" data-name="Trazado 601750" d="M231.873,183.79a8.45,8.45,0,0,0-2.284-.6,23.1,23.1,0,0,0-11.292.9,8.4,8.4,0,0,0-2.157.958,20.774,20.774,0,0,0,2.255-.647,28.083,28.083,0,0,1,11.146-.888,20.717,20.717,0,0,0,2.331.282" transform="translate(-78.988 -66.827)" fill="#263238"/>
            <path id="Trazado_601751" data-name="Trazado 601751" d="M223.859,179a12.713,12.713,0,0,0-8.118,4.427c.1.1,1.608-1.356,3.861-2.572,2.241-1.235,4.291-1.718,4.257-1.855" transform="translate(-78.841 -65.409)" fill="#263238"/>
            <path id="Trazado_601752" data-name="Trazado 601752" d="M197.025,158.035a1.433,1.433,0,0,0,.021.319c.029.237.067.542.114.924.117.845.28,2.029.487,3.53.451,3.088,1.091,7.478,1.873,12.833v-.015c.007.112.015.241.023.371l.2-.193-13.355-1.249.034.006-11.832-2.99-.234-.059-.049.235-.71,3.378c-.736,3.514-1.453,6.934-2.135,10.189l-.038.183.173.071a209.3,209.3,0,0,0,24.956,8.528c3.18.856,5.74,1.465,7.5,1.862l2.029.437.527.1a.616.616,0,0,0,.182.022.651.651,0,0,0-.173-.061l-.517-.141-2.01-.511c-1.751-.444-4.3-1.1-7.463-1.989a225.361,225.361,0,0,1-24.862-8.664l.135.253c.685-3.255,1.406-6.674,2.146-10.187.243-1.157.484-2.3.709-3.378l-.283.176,11.838,2.966.017,0h.017l13.362,1.178.214.019-.015-.212c-.01-.129-.018-.258-.027-.37v-.015c-.846-5.346-1.54-9.727-2.029-12.81-.249-1.5-.444-2.674-.584-3.515l-.166-.916a1.451,1.451,0,0,0-.075-.31" transform="translate(-62.646 -57.754)" fill="#263238"/>
            <path id="Trazado_601753" data-name="Trazado 601753" d="M210.352,128.96a21,21,0,0,0,.577-2.264,26.208,26.208,0,0,1,5-9.943,21.188,21.188,0,0,0,1.475-1.819,8.251,8.251,0,0,0-1.727,1.61,21.81,21.81,0,0,0-5.067,10.079,8.169,8.169,0,0,0-.258,2.337" transform="translate(-76.865 -42.002)" fill="#263238"/>
            <g id="Grupo_886745" data-name="Grupo 886745" transform="translate(132.087 91.556)" opacity="0.3">
              <g id="Grupo_886744" data-name="Grupo 886744">
                <g id="Grupo_886743" data-name="Grupo 886743" clip-path="url(#clip-path-6)">
                  <path id="Trazado_601754" data-name="Trazado 601754" d="M209.1,144.285c1.075,5.8,1.843,12.343,2.772,18.166-.219.272-.1,1.142-.32,1.413a71.024,71.024,0,0,1-3.112-9.685,22.9,22.9,0,0,1,.661-9.895" transform="translate(-208.158 -144.285)"/>
                </g>
              </g>
            </g>
            <g id="Grupo_886748" data-name="Grupo 886748" transform="translate(102.073 64.444)" opacity="0.3">
              <g id="Grupo_886747" data-name="Grupo 886747">
                <g id="Grupo_886746" data-name="Grupo 886746" clip-path="url(#clip-path-7)">
                  <path id="Trazado_601755" data-name="Trazado 601755" d="M168.868,110.084l-8.011,1.1a57.815,57.815,0,0,0,9.061-6.033c1,2.337,1.56,3.19,1.394,6.565,3.88-3.233,7.559-6.924,11.44-10.157A67.5,67.5,0,0,1,168.236,116.9a25.3,25.3,0,0,0,.632-6.811" transform="translate(-160.858 -101.559)"/>
                </g>
              </g>
            </g>
            <path id="Trazado_601756" data-name="Trazado 601756" d="M164.181,3.611A4.3,4.3,0,0,0,159.8,1.293a5.911,5.911,0,0,0-7.231-.114A5.364,5.364,0,0,0,147.421.9a5.282,5.282,0,0,0-2.88,4.236A4.5,4.5,0,0,0,139.9,7.263a4.419,4.419,0,0,0,.572,5.035,4.305,4.305,0,0,0-2.972,4.738,4.337,4.337,0,0,0,4.454,3.409l21.271-12a4.235,4.235,0,0,0,.953-4.835" transform="translate(-50.228 0)" fill="#263238"/>
            <path id="Trazado_601757" data-name="Trazado 601757" d="M140.279,46.584c.1-4.574,1.09-13.977,2.083-22.476a17.753,17.753,0,0,1,18.3-15.61l.921.032c9.913.919,14.664,9.78,13.464,19.581l-2.793,30.9-19.179,17.3L148.9,64.083l.666-6.225s-9.5-1.8-9.283-11.273" transform="translate(-51.263 -3.102)" fill="#ae7461"/>
            <path id="Trazado_601758" data-name="Trazado 601758" d="M154.764,84.424a23.333,23.333,0,0,0,12.637-3.2s-3.182,6.712-12.678,5.53Z" transform="translate(-56.543 -29.684)" fill="#6f4439"/>
            <path id="Trazado_601759" data-name="Trazado 601759" d="M147.95,46.517a1.357,1.357,0,0,0,1.267,1.41,1.3,1.3,0,0,0,1.448-1.17,1.357,1.357,0,0,0-1.265-1.411,1.3,1.3,0,0,0-1.45,1.171" transform="translate(-54.067 -16.57)" fill="#263238"/>
            <path id="Trazado_601760" data-name="Trazado 601760" d="M146.531,39.749c.162.182,1.222-.541,2.689-.486,1.466.034,2.517.82,2.682.647.081-.076-.079-.4-.536-.755a3.766,3.766,0,0,0-2.14-.735,3.617,3.617,0,0,0-2.149.607c-.463.327-.627.642-.546.723" transform="translate(-53.542 -14.04)" fill="#263238"/>
            <path id="Trazado_601761" data-name="Trazado 601761" d="M168.335,47.437a1.356,1.356,0,0,0,1.267,1.409,1.3,1.3,0,0,0,1.449-1.171,1.358,1.358,0,0,0-1.266-1.41,1.3,1.3,0,0,0-1.449,1.171" transform="translate(-61.517 -16.906)" fill="#263238"/>
            <path id="Trazado_601762" data-name="Trazado 601762" d="M169.242,40.961c.163.182,1.224-.54,2.69-.485,1.466.034,2.517.819,2.682.647.081-.076-.078-.4-.537-.755a3.766,3.766,0,0,0-2.139-.735,3.616,3.616,0,0,0-2.149.607c-.462.327-.627.641-.547.723" transform="translate(-61.842 -14.483)" fill="#263238"/>
            <path id="Trazado_601763" data-name="Trazado 601763" d="M158.133,51.473a9.776,9.776,0,0,0-2.368-.509c-.374-.051-.725-.137-.78-.393a1.881,1.881,0,0,1,.289-1.093q.576-1.331,1.208-2.791c1.68-3.975,2.909-7.248,2.748-7.314s-1.655,3.1-3.335,7.077q-.608,1.471-1.162,2.809a2.139,2.139,0,0,0-.245,1.452.937.937,0,0,0,.6.564,2.54,2.54,0,0,0,.633.11,9.677,9.677,0,0,0,2.415.087" transform="translate(-56.437 -14.389)" fill="#263238"/>
            <path id="Trazado_601764" data-name="Trazado 601764" d="M164.242,60.263c-.238-.022-.3,1.557-1.7,2.631s-3.092.841-3.112,1.062c-.026.1.367.32,1.083.364a3.991,3.991,0,0,0,2.594-.8,3.422,3.422,0,0,0,1.322-2.21c.084-.659-.08-1.056-.189-1.05" transform="translate(-58.263 -22.023)" fill="#263238"/>
            <path id="Trazado_601765" data-name="Trazado 601765" d="M168.967,32.148c.131.4,1.6.263,3.316.529,1.72.231,3.09.779,3.331.432.108-.166-.121-.547-.669-.949a5.878,5.878,0,0,0-5.064-.732c-.641.23-.97.53-.914.72" transform="translate(-61.747 -11.384)" fill="#263238"/>
            <path id="Trazado_601766" data-name="Trazado 601766" d="M147.6,33.09c.246.339,1.269.031,2.485.057,1.217-.016,2.237.3,2.486-.038.11-.164-.04-.5-.479-.829a3.625,3.625,0,0,0-4.005-.015c-.441.325-.595.661-.486.826" transform="translate(-53.93 -11.573)" fill="#263238"/>
            <path id="Trazado_601767" data-name="Trazado 601767" d="M145.25,19.11s2.726-5.842,5.658-7.126c3.549-1.555,4.918,2.3,8.276,1.489s6.747-2.3,10.056.368c3.623,2.919,1.811,4.817,1.893,9.026.334,17.063,3.3,21.988,4.475,14,.129-.876,2.613-1.489,3.108-5.19.642-4.8,1.034-10.639.07-14.093-.812-2.912-2.4-4.959-5.291-7.255-4.566-3.625-11-3.922-15.39-3.636S145.112,11.673,145.25,19.11" transform="translate(-53.081 -2.415)" fill="#263238"/>
            <path id="Trazado_601768" data-name="Trazado 601768" d="M191.842,52.467a2.587,2.587,0,0,1,2.885-2.38c1.775.23,3.721,1.3,3.475,4.946-.436,6.465-6.891,4.7-6.891,4.512,0-.127.324-4.373.53-7.077" transform="translate(-69.915 -18.296)" fill="#ae7461"/>
            <path id="Trazado_601769" data-name="Trazado 601769" d="M193.8,58.418c.03-.019.109.086.294.187a1.149,1.149,0,0,0,.848.074,2.792,2.792,0,0,0,1.469-2.414,3.7,3.7,0,0,0-.209-1.633,1.308,1.308,0,0,0-.8-.921.582.582,0,0,0-.692.265c-.1.174-.067.306-.1.315-.02.015-.133-.118-.063-.381a.722.722,0,0,1,.284-.388.864.864,0,0,1,.639-.123,1.593,1.593,0,0,1,1.119,1.081,3.8,3.8,0,0,1,.273,1.828,2.933,2.933,0,0,1-1.845,2.682A1.228,1.228,0,0,1,194,58.748c-.191-.174-.216-.32-.192-.331" transform="translate(-70.822 -19.508)" fill="#6f4439"/>
            <path id="Trazado_601770" data-name="Trazado 601770" d="M178.037,22.766a6.23,6.23,0,0,1-2.809,1.17,2.128,2.128,0,0,1-2.309-1.566c-.062-.454.067-.972-.219-1.331-.342-.428-1-.32-1.553-.282a4.165,4.165,0,0,1-4.22-3.112,1.761,1.761,0,0,1-2.354.138,9.327,9.327,0,0,1-1.711-1.947,2.691,2.691,0,0,0-2.2-1.189,6.478,6.478,0,0,1-1.43.261c-.855-.105-1.238-1.115-1.338-1.963s-.166-1.836-.876-2.319a3.441,3.441,0,0,0-2.331-.145c-.793.088-1.805-.131-1.98-.9a1.528,1.528,0,0,1,.333-1.164A4.252,4.252,0,0,1,158.083,7a5.751,5.751,0,0,1,10.565-.737,5.839,5.839,0,0,1,9.221,2.423,4.34,4.34,0,0,1,4.352,1.633,4.257,4.257,0,0,1,.187,4.611,3.969,3.969,0,0,1,2.091,3.237,2.288,2.288,0,0,1-2.677,2.232,2.392,2.392,0,0,1-1.027,3.01,2.435,2.435,0,0,1-3.091-.841" transform="translate(-55.797 -1.14)" fill="#263238"/>
            <path id="Trazado_601771" data-name="Trazado 601771" d="M193.824,30.355a1.542,1.542,0,0,1-.451,1.23,2.1,2.1,0,0,1-1.335.728,2.273,2.273,0,0,1-1.842-.6l.278-.032a6.494,6.494,0,0,1-1.36,1.569,3.76,3.76,0,0,1-1.215.692,2.914,2.914,0,0,1-3.164-1.06,3.729,3.729,0,0,1-.481-1.366,1.259,1.259,0,0,1-.032-.525c.029-.005.077.175.174.492a4.326,4.326,0,0,0,.56,1.251,2.678,2.678,0,0,0,3.919.227,6.524,6.524,0,0,0,1.3-1.47l.122-.187.156.155a1.993,1.993,0,0,0,1.557.552,1.929,1.929,0,0,0,1.2-.577,3.133,3.133,0,0,0,.616-1.081" transform="translate(-67.319 -11.093)" fill="#455a64"/>
            <path id="Trazado_601772" data-name="Trazado 601772" d="M169.437,60.638c-.106,0-.122-.687-.658-1.27-.515-.6-1.2-.7-1.186-.809,0-.046.186-.094.481-.033a1.887,1.887,0,0,1,.987.6,1.858,1.858,0,0,1,.47,1.048c.023.3-.049.473-.095.468" transform="translate(-61.247 -21.378)" fill="#6f4439"/>
            <path id="Trazado_601773" data-name="Trazado 601773" d="M170.739,58.621c-.093.052-.322-.181-.664-.346s-.662-.22-.675-.325.394-.235.844-.008.588.64.494.679" transform="translate(-61.907 -21.129)" fill="#6f4439"/>
            <path id="Trazado_601774" data-name="Trazado 601774" d="M151.625,1.684c-.029-.063-.7.36-1.232,1.433a5.5,5.5,0,0,0-.583,2,3.639,3.639,0,0,0,.674,2.484,5.3,5.3,0,0,0,2.036,1.567,14.848,14.848,0,0,0,1.927.725,8.454,8.454,0,0,0,1.826.465,7.033,7.033,0,0,0-1.716-.772c-.536-.212-1.177-.458-1.845-.8a5.2,5.2,0,0,1-1.852-1.457,3.333,3.333,0,0,1-.622-2.185,5.759,5.759,0,0,1,.454-1.889,7.8,7.8,0,0,1,.934-1.568" transform="translate(-54.741 -0.613)" fill="#e0e0e0"/>
            <path id="Trazado_601775" data-name="Trazado 601775" d="M146.127,8.394c-.053,0-.095.411.081,1.041a4.743,4.743,0,0,0,1.354,2.14,4.8,4.8,0,0,0,2.258,1.17c.649.124,1.055.051,1.053,0,0-.074-.388-.119-.968-.313a5.633,5.633,0,0,1-3.387-3.1c-.24-.559-.316-.942-.39-.933" transform="translate(-53.385 -3.067)" fill="#e0e0e0"/>
          </g>
        </g>
      </g>
    </g>
    <g id="Grupo_886753" data-name="Grupo 886753" transform="translate(797 1762.762)">
      <g id="Grupo_886736" data-name="Grupo 886736" transform="translate(0 0)" clip-path="url(#clip-path-8)">
        <path id="Trazado_601669" data-name="Trazado 601669" d="M51.985,39.259A1.858,1.858,0,1,0,53.843,37.4a1.858,1.858,0,0,0-1.858,1.858" transform="translate(-24.392 -17.549)" fill="#455a64"/>
        <path id="Trazado_601670" data-name="Trazado 601670" d="M37.976,39.259A1.858,1.858,0,1,0,39.834,37.4a1.858,1.858,0,0,0-1.858,1.858" transform="translate(-17.819 -17.549)" fill="#455a64"/>
        <path id="Trazado_601671" data-name="Trazado 601671" d="M23.784,38.33a1.858,1.858,0,1,0,2.538-.68,1.858,1.858,0,0,0-2.538.68" transform="translate(-11.042 -17.549)" fill="#455a64"/>
        <path id="Trazado_601672" data-name="Trazado 601672" d="M21.9.008A2.1,2.1,0,0,0,21.525,0l-1.1.031c-.243.011-.515.011-.814.036l-.974.137L17.5.37l-1.27.315a20.559,20.559,0,0,0-6.155,2.683,22.088,22.088,0,0,0-6.365,6.2A22.276,22.276,0,0,0,.1,19.693a22.533,22.533,0,0,0-.061,2.976c.036.5.025,1.015.1,1.522l.231,1.533A21.835,21.835,0,0,0,2.434,31.78a23.315,23.315,0,0,0,3.955,5.443,22.871,22.871,0,0,0,5.7,4.095,20.709,20.709,0,0,0,6.947,2.132,13.629,13.629,0,0,0,1.853.158,16.681,16.681,0,0,0,1.873.035,22.291,22.291,0,0,0,3.752-.474,21.928,21.928,0,0,0,7.469-3.143l-.227.023L41.363,43.1l.451.181-.128-.468-2.237-8.133-.038.2a21.826,21.826,0,0,0,4.06-9.294,19.757,19.757,0,0,0,.3-4.761,15.38,15.38,0,0,0-.216-2.287q-.088-.56-.173-1.113c-.068-.366-.179-.721-.266-1.078A21.756,21.756,0,0,0,34.623,3.976a20.825,20.825,0,0,0-5.051-2.665L28.434.9,27.353.63,26.366.385c-.317-.061-.623-.093-.91-.137C24.88.174,24.376.075,23.932.053L22.815.015,22.131,0A1.02,1.02,0,0,0,21.9.008a1.007,1.007,0,0,0,.231.031l.68.054,1.11.075c.439.034.94.145,1.509.229a21.638,21.638,0,0,1,17.3,16.047c.083.351.191.7.256,1.059s.109.726.164,1.093a14.972,14.972,0,0,1,.2,2.245,19.4,19.4,0,0,1-.308,4.668,21.44,21.44,0,0,1-4,9.091l-.069.091.03.11q1.075,3.942,2.22,8.138l.322-.287-7.6-3.062-.119-.048-.108.071a21.475,21.475,0,0,1-7.3,3.07,21.735,21.735,0,0,1-3.667.464,16.2,16.2,0,0,1-1.831-.033,13.358,13.358,0,0,1-1.812-.153,20.261,20.261,0,0,1-6.794-2.078,22.425,22.425,0,0,1-5.583-4,22.924,22.924,0,0,1-3.885-5.319A21.452,21.452,0,0,1,.792,25.645q-.116-.756-.232-1.5c-.074-.5-.065-1-.1-1.493A22.169,22.169,0,0,1,.5,19.73,21.491,21.491,0,0,1,10.222,3.6,20.7,20.7,0,0,1,16.277.87L17.531.536,18.655.351,19.62.192c.3-.032.567-.04.808-.059l1.1-.08A2.143,2.143,0,0,0,21.9.008" transform="translate(0 0)" fill="#455a64"/>
      </g>
    </g>
  </g>
</svg>
