<svg xmlns="http://www.w3.org/2000/svg" xmlns:xlink="http://www.w3.org/1999/xlink" width="277.833" height="268.852" viewBox="0 0 277.833 268.852">
  <defs>
    <clipPath id="clip-path">
      <rect id="Rectángulo_291369" data-name="Rectángulo 291369" width="252.116" height="258.24" fill="#fff"/>
    </clipPath>
    <clipPath id="clip-path-2">
      <rect id="Rectángulo_334367" data-name="Rectángulo 334367" width="277.833" height="264.859" fill="none"/>
    </clipPath>
    <clipPath id="clip-path-6">
      <rect id="Rectángulo_334339" data-name="Rectángulo 334339" width="58.532" height="37.421" fill="none"/>
    </clipPath>
    <clipPath id="clip-path-7">
      <rect id="Rectángulo_334340" data-name="Rectángulo 334340" width="47.21" height="41.326" fill="none"/>
    </clipPath>
    <clipPath id="clip-path-8">
      <rect id="Rectángulo_334341" data-name="Rectángulo 334341" width="17.889" height="17.072" fill="none"/>
    </clipPath>
    <clipPath id="clip-path-9">
      <rect id="Rectángulo_334342" data-name="Rectángulo 334342" width="3.939" height="38.436" fill="none"/>
    </clipPath>
    <clipPath id="clip-path-11">
      <rect id="Rectángulo_334344" data-name="Rectángulo 334344" width="43.513" height="50.757" fill="#45b87a"/>
    </clipPath>
    <clipPath id="clip-path-12">
      <rect id="Rectángulo_334345" data-name="Rectángulo 334345" width="57.019" height="34.877" fill="none"/>
    </clipPath>
    <clipPath id="clip-path-13">
      <rect id="Rectángulo_334346" data-name="Rectángulo 334346" width="39.042" height="22.02" fill="#118d4a"/>
    </clipPath>
    <clipPath id="clip-path-14">
      <rect id="Rectángulo_334347" data-name="Rectángulo 334347" width="15.855" height="2.614" fill="none"/>
    </clipPath>
    <clipPath id="clip-path-15">
      <rect id="Rectángulo_334348" data-name="Rectángulo 334348" width="36.949" height="20.752" fill="none"/>
    </clipPath>
    <clipPath id="clip-path-16">
      <rect id="Rectángulo_334349" data-name="Rectángulo 334349" width="36.072" height="19.382" fill="#118d4a"/>
    </clipPath>
    <clipPath id="clip-path-17">
      <rect id="Rectángulo_334350" data-name="Rectángulo 334350" width="14.354" height="2.579" fill="none"/>
    </clipPath>
    <clipPath id="clip-path-18">
      <rect id="Rectángulo_334351" data-name="Rectángulo 334351" width="33.173" height="19.446" fill="none"/>
    </clipPath>
    <clipPath id="clip-path-19">
      <rect id="Rectángulo_334352" data-name="Rectángulo 334352" width="14.997" height="14.464" fill="none"/>
    </clipPath>
    <clipPath id="clip-path-20">
      <rect id="Rectángulo_334353" data-name="Rectángulo 334353" width="51.084" height="38.023" fill="none"/>
    </clipPath>
    <clipPath id="clip-path-21">
      <rect id="Rectángulo_334354" data-name="Rectángulo 334354" width="14.594" height="14.866" fill="none"/>
    </clipPath>
    <clipPath id="clip-path-22">
      <rect id="Rectángulo_334355" data-name="Rectángulo 334355" width="42.203" height="48.439" fill="none"/>
    </clipPath>
    <clipPath id="clip-path-23">
      <rect id="Rectángulo_334356" data-name="Rectángulo 334356" width="16.785" height="5.439" fill="none"/>
    </clipPath>
    <clipPath id="clip-path-24">
      <rect id="Rectángulo_334357" data-name="Rectángulo 334357" width="57.35" height="14.325" fill="none"/>
    </clipPath>
    <clipPath id="clip-path-25">
      <rect id="Rectángulo_334358" data-name="Rectángulo 334358" width="15.226" height="8.912" fill="none"/>
    </clipPath>
    <clipPath id="clip-path-26">
      <rect id="Rectángulo_334359" data-name="Rectángulo 334359" width="42.699" height="38.397" fill="none"/>
    </clipPath>
    <clipPath id="clip-path-27">
      <rect id="Rectángulo_334360" data-name="Rectángulo 334360" width="13.256" height="11.643" fill="#147c48"/>
    </clipPath>
    <clipPath id="clip-path-28">
      <rect id="Rectángulo_334361" data-name="Rectángulo 334361" width="34.171" height="46.248" fill="none"/>
    </clipPath>
    <clipPath id="clip-path-29">
      <rect id="Rectángulo_334362" data-name="Rectángulo 334362" width="46.333" height="39.868" fill="none"/>
    </clipPath>
    <clipPath id="clip-path-30">
      <rect id="Rectángulo_334363" data-name="Rectángulo 334363" width="46.333" height="39.869" fill="none"/>
    </clipPath>
    <clipPath id="clip-path-31">
      <rect id="Rectángulo_334364" data-name="Rectángulo 334364" width="14.422" height="13.897" fill="none"/>
    </clipPath>
    <clipPath id="clip-path-32">
      <rect id="Rectángulo_334365" data-name="Rectángulo 334365" width="31.099" height="28.691" fill="none"/>
    </clipPath>
  </defs>
  <g id="Grupo_886603" data-name="Grupo 886603" transform="translate(2295.588 8087.045)">
    <g id="Grupo_886513" data-name="Grupo 886513">
      <g id="Grupo_870715" data-name="Grupo 870715" transform="translate(-2291.588 -8087.045)">
        <g id="Grupo_870714" data-name="Grupo 870714" clip-path="url(#clip-path)">
          <path id="Trazado_215321" data-name="Trazado 215321" d="M19.194,125.641C50.705,99.911-3.863,58.389,8.219,17.32s51.953,1.154,73.407,21.387,46.595-15.966,63.261-16.938,7.287,14.849,14.8,35.343,62.926,3.474,85.14,23.269-13.176,61.918-16.155,87.037,35.281,53.541,10.768,90.822L117.665,257.5c-12.253-3.857-20.248-6.914-20.248-6.914C-16.59,200.163-12.317,151.371,19.194,125.641" transform="translate(0 0)" fill="#fff"/>
        </g>
      </g>
      <path id="Trazado_265960" data-name="Trazado 265960" d="M266.282,583.558c0,3.871-53.547,7.01-119.6,7.01s-119.6-3.138-119.6-7.01,53.578-4.323,119.632-4.323,119.57.452,119.57,4.323" transform="translate(-2302.877 -8408.76)" fill="#003b73" opacity="0.496"/>
    </g>
    <g id="Grupo_886602" data-name="Grupo 886602" transform="translate(-2295.588 -8083.052)">
      <g id="Grupo_886601" data-name="Grupo 886601" clip-path="url(#clip-path-2)">
        <g id="Grupo_886516" data-name="Grupo 886516">
          <g id="Grupo_886515" data-name="Grupo 886515" clip-path="url(#clip-path-2)">
            <path id="Trazado_600777" data-name="Trazado 600777" d="M121.809,15.057l.256.425a2.911,2.911,0,0,0,1.2,1.108l.444.22-.425.256a2.909,2.909,0,0,0-1.108,1.2l-.22.445-.256-.425a2.911,2.911,0,0,0-1.2-1.108l-.444-.22.425-.256a2.912,2.912,0,0,0,1.108-1.2Z" transform="translate(-49.173 -6.167)" fill="#e0e0e0"/>
            <path id="Trazado_600778" data-name="Trazado 600778" d="M227.848,70.307l.256.425a2.909,2.909,0,0,0,1.2,1.108l.444.22-.424.256a2.909,2.909,0,0,0-1.108,1.2l-.22.445-.256-.425a2.908,2.908,0,0,0-1.2-1.108l-.444-.22.425-.256a2.907,2.907,0,0,0,1.108-1.2Z" transform="translate(-92.604 -28.796)" fill="#e0e0e0"/>
            <path id="Trazado_600779" data-name="Trazado 600779" d="M45.4,223.858l.256.424a2.909,2.909,0,0,0,1.2,1.108l.444.22-.425.256a2.909,2.909,0,0,0-1.108,1.2l-.22.445-.256-.425a2.911,2.911,0,0,0-1.2-1.108l-.444-.22.425-.256a2.907,2.907,0,0,0,1.108-1.2Z" transform="translate(-17.879 -91.687)" fill="#e0e0e0"/>
            <path id="Trazado_600780" data-name="Trazado 600780" d="M331.435,417.078l.256.425a2.909,2.909,0,0,0,1.2,1.108l.444.22-.425.256a2.909,2.909,0,0,0-1.108,1.2l-.22.445-.256-.425a2.911,2.911,0,0,0-1.2-1.108l-.444-.22.425-.256a2.908,2.908,0,0,0,1.108-1.2Z" transform="translate(-135.031 -170.826)" fill="#e0e0e0"/>
            <path id="Trazado_600781" data-name="Trazado 600781" d="M411.422,202.705l.559.929a6.361,6.361,0,0,0,2.631,2.423l.971.481-.929.559a6.365,6.365,0,0,0-2.422,2.631l-.48.971-.559-.929a6.363,6.363,0,0,0-2.63-2.422l-.972-.48.929-.559a6.361,6.361,0,0,0,2.422-2.631Z" transform="translate(-166.94 -83.024)" fill="#e0e0e0"/>
            <path id="Trazado_600782" data-name="Trazado 600782" d="M320.868,1.807l.559.929a6.362,6.362,0,0,0,2.631,2.422l.971.481L324.1,6.2a6.362,6.362,0,0,0-2.423,2.631l-.48.971-.559-.929a6.364,6.364,0,0,0-2.63-2.422l-.972-.48.929-.559a6.358,6.358,0,0,0,2.422-2.631Z" transform="translate(-129.851 -0.74)" fill="#e0e0e0"/>
            <path id="Trazado_600783" data-name="Trazado 600783" d="M126.984,393.159l.559.929a6.365,6.365,0,0,0,2.631,2.423l.971.481-.928.559a6.357,6.357,0,0,0-2.423,2.631l-.481.971-.559-.929a6.364,6.364,0,0,0-2.63-2.422l-.972-.48.929-.559a6.358,6.358,0,0,0,2.423-2.631Z" transform="translate(-50.44 -161.029)" fill="#e0e0e0"/>
            <path id="Trazado_600784" data-name="Trazado 600784" d="M350.116,121.978s-4.763,2.341-10.991,6.039c-7.592,4.509-23.223,13.373-33.213,6.372l-9.146-17.956s5.871,2.692,14.8,1.532c7.967-1.034,14.346-5.233,17.214-7.166,1.161-.782,2.691-1.843,3.892-2.562a84.607,84.607,0,0,1,7.924-4.676Z" transform="translate(-121.549 -42.417)" fill="#ebebeb"/>
            <path id="Trazado_600785" data-name="Trazado 600785" d="M331.6,136.481a7.335,7.335,0,1,1,8.416,5.587,7.148,7.148,0,0,1-8.416-5.587" transform="translate(-135.773 -52.528)" fill="#f5f5f5"/>
            <path id="Trazado_600786" data-name="Trazado 600786" d="M339.226,134.308l-.588-.912.726-.468.572.888a3.808,3.808,0,0,1,2.226-.513l.24,1.251a3.266,3.266,0,0,0-1.78.329l.876,1.36c.947-.3,2.041-.578,2.791.586a2.077,2.077,0,0,1-.577,2.849l.582.9-.726.467-.571-.887a3.6,3.6,0,0,1-1.793.452l-.282-1.235a3.271,3.271,0,0,0,1.383-.292l-.892-1.383c-.942.307-2.021.576-2.761-.572a2.069,2.069,0,0,1,.574-2.823m.532,1.973c.184.285.493.3.884.226l-.723-1.124a.689.689,0,0,0-.161.9m2.512,1.158.745,1.156a.727.727,0,0,0,.149-.948c-.184-.285-.5-.3-.894-.208" transform="translate(-138.568 -54.444)" fill="#ebebeb"/>
            <path id="Trazado_600787" data-name="Trazado 600787" d="M307.965,135.268l.121.071c.3.175,7.422,4.232,20.126-1.545a96.556,96.556,0,0,0,13.645-7.612c2.752-1.788,4.742-3.078,6.92-3.656l.576-.153-8.224-16.9-.47.328c-.135.094-13.541,9.415-19.519,11.863-4.746,1.942-13.716,4.738-20.48,1.623l-1.3-.6Zm13.545-16.692c4.318-1.768,12.165-6.867,16.548-9.811a3.071,3.071,0,0,0,4.076,1.021l4.5,9.25a2.575,2.575,0,0,0-1.491,1.694,3.7,3.7,0,0,0,.12,2.2c-1.2.653-2.465,1.468-3.943,2.428a94.472,94.472,0,0,1-13.517,7.542c-6.384,2.9-11.272,3.179-14.25,2.9a17.271,17.271,0,0,1-2.3-.37,4.42,4.42,0,0,0-3.8-3.286l-4.8-9.247c.491-.037,1.13-.332,1.255-1.576,6.38,1.2,13.519-1.076,17.606-2.75" transform="translate(-122.612 -43.202)" fill="#f5f5f5"/>
            <path id="Trazado_600788" data-name="Trazado 600788" d="M75.726,18.416s-4.763,2.341-10.991,6.039c-7.592,4.509-23.223,13.373-33.212,6.372L22.376,12.872s5.871,2.692,14.8,1.532c7.967-1.034,14.346-5.233,17.214-7.166,1.161-.782,2.691-1.843,3.891-2.562A84.5,84.5,0,0,1,66.21,0Z" transform="translate(-9.165 0)" fill="#ebebeb"/>
            <path id="Trazado_600789" data-name="Trazado 600789" d="M57.205,32.918a7.335,7.335,0,0,1,14.431-2.529,7.335,7.335,0,0,1-14.431,2.529" transform="translate(-23.389 -10.111)" fill="#f5f5f5"/>
            <path id="Trazado_600790" data-name="Trazado 600790" d="M64.836,30.746l-.588-.912.726-.468.572.888a3.808,3.808,0,0,1,2.226-.513l.24,1.251a3.261,3.261,0,0,0-1.78.329l.876,1.36c.947-.3,2.041-.578,2.791.586a2.077,2.077,0,0,1-.578,2.849l.583.9-.726.467-.572-.887a3.6,3.6,0,0,1-1.793.452l-.282-1.236a3.28,3.28,0,0,0,1.383-.292l-.892-1.383c-.942.307-2.021.576-2.761-.572a2.069,2.069,0,0,1,.574-2.823m.531,1.973c.184.285.494.3.884.226l-.723-1.124a.689.689,0,0,0-.161.9m2.512,1.158.745,1.157a.727.727,0,0,0,.149-.948c-.184-.285-.5-.3-.894-.208" transform="translate(-26.184 -12.028)" fill="#ebebeb"/>
            <path id="Trazado_600791" data-name="Trazado 600791" d="M33.575,31.705l.121.071c.3.175,7.422,4.232,20.126-1.545A96.55,96.55,0,0,0,67.467,22.62c2.752-1.787,4.742-3.077,6.92-3.655l.576-.153-8.224-16.9-.47.328c-.135.094-13.541,9.415-19.519,11.863C42,16.049,33.033,18.845,26.269,15.73l-1.3-.6ZM47.121,15.013c4.318-1.768,12.165-6.866,16.548-9.81a3.072,3.072,0,0,0,4.076,1.021l4.5,9.251a2.574,2.574,0,0,0-1.491,1.695,3.7,3.7,0,0,0,.12,2.2c-1.2.654-2.465,1.468-3.943,2.428a94.464,94.464,0,0,1-13.517,7.543c-6.384,2.9-11.272,3.179-14.25,2.9a17.36,17.36,0,0,1-2.3-.37,4.42,4.42,0,0,0-3.8-3.286l-4.8-9.246c.491-.037,1.13-.332,1.255-1.576,6.38,1.2,13.519-1.076,17.606-2.751" transform="translate(-10.228 -0.784)" fill="#f5f5f5"/>
            <path id="Trazado_600792" data-name="Trazado 600792" d="M362.847,363.19s-4.763,2.341-10.991,6.039c-7.592,4.509-23.223,13.373-33.213,6.372L309.5,357.646s5.871,2.692,14.8,1.532c7.967-1.034,14.346-5.233,17.214-7.166,1.161-.782,2.691-1.843,3.892-2.562a84.5,84.5,0,0,1,7.924-4.675Z" transform="translate(-126.763 -141.212)" fill="#ebebeb"/>
            <path id="Trazado_600793" data-name="Trazado 600793" d="M344.327,377.693a7.335,7.335,0,1,1,8.416,5.587,7.148,7.148,0,0,1-8.416-5.587" transform="translate(-140.988 -151.323)" fill="#f5f5f5"/>
            <path id="Trazado_600794" data-name="Trazado 600794" d="M351.958,375.52l-.588-.912.726-.468.572.888a3.8,3.8,0,0,1,2.226-.513l.241,1.251a3.267,3.267,0,0,0-1.781.329l.876,1.36c.948-.3,2.041-.578,2.791.586a2.077,2.077,0,0,1-.577,2.849l.582.9-.726.467-.571-.887a3.606,3.606,0,0,1-1.793.452l-.282-1.235a3.27,3.27,0,0,0,1.383-.292l-.892-1.383c-.942.307-2.021.576-2.761-.572a2.069,2.069,0,0,1,.574-2.823m.532,1.973c.184.285.494.3.884.226l-.723-1.124a.689.689,0,0,0-.161.9M355,378.651l.745,1.156a.727.727,0,0,0,.149-.948c-.184-.285-.5-.3-.894-.208" transform="translate(-143.783 -153.24)" fill="#ebebeb"/>
            <path id="Trazado_600795" data-name="Trazado 600795" d="M320.7,376.48l.122.071c.3.175,7.422,4.232,20.125-1.545a96.647,96.647,0,0,0,13.645-7.612c2.751-1.787,4.742-3.078,6.92-3.656l.576-.153-8.225-16.9-.469.328c-.135.093-13.541,9.415-19.519,11.863-4.746,1.942-13.716,4.738-20.479,1.623l-1.3-.6Zm13.546-16.692c4.318-1.768,12.164-6.867,16.547-9.811A3.071,3.071,0,0,0,354.866,351l4.5,9.25a2.577,2.577,0,0,0-1.491,1.694,3.7,3.7,0,0,0,.12,2.2c-1.2.654-2.464,1.468-3.943,2.428a94.471,94.471,0,0,1-13.517,7.542c-6.384,2.9-11.273,3.179-14.25,2.9a17.281,17.281,0,0,1-2.3-.37,4.419,4.419,0,0,0-3.8-3.286l-4.8-9.246c.49-.037,1.13-.332,1.255-1.576,6.38,1.2,13.518-1.076,17.606-2.75" transform="translate(-127.826 -141.997)" fill="#f5f5f5"/>
            <path id="Trazado_600796" data-name="Trazado 600796" d="M61.452,269.237s-4.763,2.34-10.991,6.039c-7.592,4.509-23.223,13.373-33.213,6.372L8.1,263.692s5.871,2.692,14.8,1.532c7.967-1.034,14.346-5.233,17.214-7.166,1.161-.782,2.691-1.843,3.891-2.562a84.618,84.618,0,0,1,7.924-4.676Z" transform="translate(-3.318 -102.731)" fill="#ebebeb"/>
            <path id="Trazado_600797" data-name="Trazado 600797" d="M42.932,283.739a7.335,7.335,0,1,1,8.416,5.587,7.148,7.148,0,0,1-8.416-5.587" transform="translate(-17.543 -112.841)" fill="#f5f5f5"/>
            <path id="Trazado_600798" data-name="Trazado 600798" d="M50.562,281.567l-.588-.912.726-.468.572.887a3.807,3.807,0,0,1,2.226-.512l.241,1.251a3.267,3.267,0,0,0-1.781.329l.876,1.36c.948-.3,2.041-.578,2.791.586a2.077,2.077,0,0,1-.577,2.849l.582.9-.726.467-.571-.887a3.6,3.6,0,0,1-1.793.452l-.283-1.235a3.27,3.27,0,0,0,1.383-.292l-.891-1.383c-.942.307-2.022.576-2.761-.572a2.07,2.07,0,0,1,.574-2.823m.531,1.973c.184.285.494.3.885.226l-.724-1.124a.69.69,0,0,0-.161.9m2.513,1.158.744,1.156a.727.727,0,0,0,.15-.948c-.184-.285-.5-.3-.894-.208" transform="translate(-20.338 -114.759)" fill="#ebebeb"/>
            <path id="Trazado_600799" data-name="Trazado 600799" d="M19.3,282.527l.121.071c.3.175,7.422,4.232,20.126-1.545a96.554,96.554,0,0,0,13.645-7.612c2.752-1.788,4.742-3.078,6.92-3.656l.576-.153-8.224-16.9-.47.328c-.135.093-13.541,9.415-19.519,11.863-4.746,1.942-13.716,4.738-20.48,1.623l-1.3-.6Zm13.545-16.692c4.318-1.768,12.165-6.867,16.548-9.811a3.07,3.07,0,0,0,4.076,1.021l4.5,9.25a2.575,2.575,0,0,0-1.491,1.695,3.7,3.7,0,0,0,.12,2.2c-1.2.653-2.465,1.468-3.943,2.428a94.415,94.415,0,0,1-13.517,7.541c-6.384,2.9-11.272,3.18-14.25,2.9a17.265,17.265,0,0,1-2.3-.37,4.42,4.42,0,0,0-3.8-3.286l-4.8-9.246c.491-.037,1.13-.332,1.255-1.576,6.38,1.2,13.519-1.076,17.606-2.75" transform="translate(-4.381 -103.516)" fill="#f5f5f5"/>
            <path id="Trazado_600800" data-name="Trazado 600800" d="M347.313,282.082s9.124-10.695,27.057-3.806a11.287,11.287,0,0,0,2.1.6,11.606,11.606,0,0,0,6.118-.436c3.492-1.406,8.46-3.452,8.46-3.452l15.363,9.091s-6.439,4.7-12.675,5.091-13.607-4.724-20.758-2.976a17.944,17.944,0,0,0-9.449,5.432Z" transform="translate(-142.252 -112.629)" fill="#ebebeb"/>
            <path id="Trazado_600801" data-name="Trazado 600801" d="M398.807,287.505c-.691.619-4.852.051-9.293-1.267s-7.482-2.889-6.791-3.508,4.852-.051,9.293,1.267,7.482,2.889,6.791,3.508" transform="translate(-156.715 -115.698)" fill="#f5f5f5"/>
            <path id="Trazado_600802" data-name="Trazado 600802" d="M396.44,287.286l.283.3-.933-.2-.275-.291a24.066,24.066,0,0,1-2.527-.724l.2-.213a20.493,20.493,0,0,0,1.991.587l-.422-.445a8.1,8.1,0,0,1-2.717-1.034c-.268-.283.221-.367,1.651-.091l-.28-.3.934.205.275.29c.715.17,1.447.373,2.049.579l-.156.225c-.55-.182-1.078-.334-1.56-.452l.429.453a7.965,7.965,0,0,1,2.691,1.022c.263.277-.22.361-1.638.089m-2.049-1.383-.359-.378c-.465-.077-.588-.043-.5.045a2.724,2.724,0,0,0,.863.333m2.214,1a2.691,2.691,0,0,0-.847-.332l.349.368c.439.073.579.05.5-.036" transform="translate(-160.545 -116.678)" fill="#ebebeb"/>
            <path id="Trazado_600803" data-name="Trazado 600803" d="M392.273,276.837l-.168.083a54.235,54.235,0,0,1-8.977,3.431,9.779,9.779,0,0,1-4.977.051c-.357-.061-.743-.129-1.171-.2a24.044,24.044,0,0,1-3.155-.881,30.129,30.129,0,0,0-8.094-1.765l-.073,0a22.19,22.19,0,0,0-14.484,4.506l-.384.309,13.8,8.357.191-.176c.074-.068,7.479-6.757,17.488-4.239,1.184.3,2.284.589,3.319.862,8.108,2.144,12.177,3.22,20.327-1.675l.5-.3Zm-6.5,9.673c-1.037-.274-2.14-.566-3.326-.864a20.375,20.375,0,0,0-15.548,2.557,3.726,3.726,0,0,0-4.462.412l-8.07-4.887a1.82,1.82,0,0,0,.119-3.017,22.01,22.01,0,0,1,11.138-2.463,29.5,29.5,0,0,1,8,1.735,24.35,24.35,0,0,0,3.259.906c.425.067.807.133,1.16.194a10.434,10.434,0,0,0,5.264-.063,47.455,47.455,0,0,0,6.781-2.412,3.759,3.759,0,0,0,4.36.314l8.234,4.872c-.615.29-1.536,1.05-.07,2.711-6.064,2.851-9.968,1.822-16.835.006" transform="translate(-143.677 -113.386)" fill="#f5f5f5"/>
            <path id="Trazado_600804" data-name="Trazado 600804" d="M112,131.81s-.147-14.057,17.9-20.645a11.284,11.284,0,0,0,1.979-.931,11.6,11.6,0,0,0,4.327-4.348c1.71-3.354,4.111-8.16,4.111-8.16l17.554-3.238s-1.768,7.771-6.211,12.166-13.362,5.378-17.605,11.393a17.943,17.943,0,0,0-3.556,10.3Z" transform="translate(-45.874 -38.7)" fill="#ebebeb"/>
            <path id="Trazado_600805" data-name="Trazado 600805" d="M151.318,119.24c-.115.92-3.624,3.226-7.838,5.15s-7.539,2.737-7.424,1.817,3.623-3.225,7.838-5.15,7.538-2.737,7.424-1.817" transform="translate(-55.724 -48.683)" fill="#f5f5f5"/>
            <path id="Trazado_600806" data-name="Trazado 600806" d="M149.331,124.058l.41.04-.839.458-.4-.038a24,24,0,0,1-2.381,1.114l.015-.3a20.364,20.364,0,0,0,1.887-.865l-.61-.058a8.1,8.1,0,0,1-2.728,1.005c-.387-.037-.074-.422,1.186-1.153l-.406-.039.839-.459.4.038c.651-.342,1.337-.67,1.926-.91l.03.273c-.534.224-1.032.456-1.473.683l.621.06a7.988,7.988,0,0,1,2.7-1c.38.037.071.416-1.176,1.143m-2.454.3-.519-.05c-.4.247-.471.354-.35.365a2.739,2.739,0,0,0,.869-.316m2.323-.7a2.676,2.676,0,0,0-.856.306l.5.048c.38-.233.469-.343.352-.354" transform="translate(-59.197 -50.336)" fill="#ebebeb"/>
            <path id="Trazado_600807" data-name="Trazado 600807" d="M141.743,99.525l-.072.173a54.191,54.191,0,0,1-4.514,8.484,9.78,9.78,0,0,1-3.718,3.308c-.309.188-.644.391-1.011.622a24.173,24.173,0,0,1-2.957,1.408,30.107,30.107,0,0,0-7.261,3.987l-.056.046a22.189,22.189,0,0,0-7.959,12.913l-.087.485,15.9-2.767.028-.258c.011-.1,1.2-10.007,10.4-14.685,1.088-.553,2.109-1.057,3.068-1.53,7.521-3.71,11.3-5.573,14.225-14.618l.178-.551Zm1.451,11.566c-.962.475-1.985.979-3.075,1.533a20.378,20.378,0,0,0-10.042,12.141,3.727,3.727,0,0,0-3.094,3.243l-9.294,1.618a1.82,1.82,0,0,0-1.892-2.353,22,22,0,0,1,6.779-9.173,29.484,29.484,0,0,1,7.168-3.945A24.445,24.445,0,0,0,132.8,112.7c.364-.228.7-.429,1-.615a10.441,10.441,0,0,0,3.928-3.506,47.445,47.445,0,0,0,3.527-6.274,3.759,3.759,0,0,0,3.494-2.628l9.408-1.737c-.273.623-.469,1.8,1.728,2.091-2.7,6.133-6.319,7.922-12.688,11.064" transform="translate(-46.736 -39.542)" fill="#f5f5f5"/>
            <path id="Trazado_600808" data-name="Trazado 600808" d="M333.377,47.8s8.6-11.119,26.843-5.1a11.23,11.23,0,0,0,2.129.5,11.6,11.6,0,0,0,6.09-.728c3.421-1.571,8.286-3.852,8.286-3.852l15.78,8.346s-6.207,5-12.417,5.692-13.818-4.067-20.877-1.98a17.944,17.944,0,0,0-9.179,5.878Z" transform="translate(-136.544 -15.816)" fill="#ebebeb"/>
            <path id="Trazado_600809" data-name="Trazado 600809" d="M384.85,52.147c-.661.651-4.843.283-9.343-.821s-7.611-2.528-6.951-3.178,4.844-.283,9.343.821,7.612,2.528,6.951,3.179" transform="translate(-150.916 -19.588)" fill="#f5f5f5"/>
            <path id="Trazado_600810" data-name="Trazado 600810" d="M382.47,52.046l.3.285-.943-.16-.289-.277a24.043,24.043,0,0,1-2.558-.6l.194-.222a20.6,20.6,0,0,0,2.017.492l-.443-.425a8.092,8.092,0,0,1-2.763-.9c-.281-.269.2-.377,1.645-.169l-.294-.282.942.16.289.277c.723.135,1.464.3,2.075.48l-.146.233c-.557-.155-1.093-.282-1.579-.378l.45.432a7.972,7.972,0,0,1,2.736.892c.276.264-.2.371-1.631.167m-2.114-1.283-.376-.361c-.468-.055-.589-.015-.5.069a2.727,2.727,0,0,0,.877.292m2.26.888a2.67,2.67,0,0,0-.861-.29l.365.35c.442.053.581.022.5-.06" transform="translate(-154.783 -20.39)" fill="#ebebeb"/>
            <path id="Trazado_600811" data-name="Trazado 600811" d="M377.983,40.479l-.164.091a54.15,54.15,0,0,1-8.8,3.856,9.783,9.783,0,0,1-4.969.29c-.359-.045-.747-.093-1.178-.14a24.033,24.033,0,0,1-3.193-.729,30.116,30.116,0,0,0-8.169-1.375l-.073,0a22.184,22.184,0,0,0-14.252,5.194l-.369.327L351,55.681l.182-.185c.07-.071,7.147-7.107,17.265-5.071,1.2.241,2.31.479,3.356.7,8.2,1.754,12.317,2.633,20.224-2.646l.482-.322Zm-6.035,9.973c-1.049-.224-2.164-.463-3.364-.7a20.372,20.372,0,0,0-15.407,3.3,3.727,3.727,0,0,0-4.438.625l-8.295-4.495a1.82,1.82,0,0,0-.025-3.019,22.021,22.021,0,0,1,11.007-2.993,29.545,29.545,0,0,1,8.07,1.35,24.374,24.374,0,0,0,3.3.749c.427.047.812.094,1.168.139a10.437,10.437,0,0,0,5.255-.315,47.484,47.484,0,0,0,6.658-2.734,3.759,3.759,0,0,0,4.37.1l8.458,4.472c-.6.32-1.484,1.122.06,2.712-5.921,3.137-9.869,2.3-16.815.812" transform="translate(-137.952 -16.579)" fill="#f5f5f5"/>
          </g>
        </g>
        <g id="Grupo_886518" data-name="Grupo 886518">
          <g id="Grupo_886517" data-name="Grupo 886517" clip-path="url(#clip-path-2)">
            <path id="Trazado_600812" data-name="Trazado 600812" d="M429.463,235.247l.373.619a4.241,4.241,0,0,0,1.754,1.615l.648.32-.619.373A4.242,4.242,0,0,0,430,239.928l-.32.648-.373-.619a4.239,4.239,0,0,0-1.754-1.615l-.648-.32.619-.373a4.241,4.241,0,0,0,1.615-1.754Z" transform="translate(-174.852 -96.352)" fill="#ffc631"/>
            <path id="Trazado_600813" data-name="Trazado 600813" d="M124.73,430.7l.361.6a4.105,4.105,0,0,0,1.7,1.566l.628.311-.6.361a4.11,4.11,0,0,0-1.566,1.7l-.311.628-.361-.6a4.118,4.118,0,0,0-1.7-1.566l-.629-.311.6-.361a4.126,4.126,0,0,0,1.566-1.7Z" transform="translate(-50.071 -176.406)" fill="#ffc631"/>
            <path id="Trazado_600814" data-name="Trazado 600814" d="M62.029,97.7l.649,1.079a7.394,7.394,0,0,0,3.058,2.816l1.129.559-1.079.649a7.4,7.4,0,0,0-2.816,3.058l-.559,1.129-.649-1.08a7.392,7.392,0,0,0-3.058-2.816l-1.129-.559,1.079-.65a7.394,7.394,0,0,0,2.816-3.058Z" transform="translate(-23.581 -40.014)" fill="#ffc631"/>
            <path id="Trazado_600815" data-name="Trazado 600815" d="M282.894,33.686l.649,1.08a7.4,7.4,0,0,0,3.058,2.816l1.129.559-1.079.649a7.4,7.4,0,0,0-2.816,3.058l-.558,1.129-.65-1.08a7.392,7.392,0,0,0-3.058-2.816l-1.129-.559,1.079-.65a7.394,7.394,0,0,0,2.816-3.058Z" transform="translate(-114.043 -13.797)" fill="#ffc631"/>
            <path id="Trazado_600816" data-name="Trazado 600816" d="M451.719,194.239l.256.425a2.909,2.909,0,0,0,1.2,1.108l.444.22-.425.256a2.909,2.909,0,0,0-1.108,1.2l-.22.445-.256-.425a2.911,2.911,0,0,0-1.2-1.108l-.444-.22.424-.256a2.907,2.907,0,0,0,1.108-1.2Z" transform="translate(-184.297 -79.556)" fill="#ffc631"/>
            <path id="Trazado_600817" data-name="Trazado 600817" d="M83.425,190.086l.263.438a3,3,0,0,0,1.24,1.142l.458.226-.437.264a3,3,0,0,0-1.142,1.24l-.227.458-.263-.438a3,3,0,0,0-1.241-1.142l-.458-.227.438-.263a3,3,0,0,0,1.142-1.24Z" transform="translate(-33.429 -77.855)" fill="#ffc631"/>
            <path id="Trazado_600818" data-name="Trazado 600818" d="M159.642,60.073l.263.438a3,3,0,0,0,1.241,1.142l.458.226-.437.264a3,3,0,0,0-1.142,1.24l-.227.458-.263-.438a3,3,0,0,0-1.241-1.142l-.458-.227.438-.263a3,3,0,0,0,1.142-1.24Z" transform="translate(-64.646 -24.605)" fill="#ffc631"/>
          </g>
        </g>
        <g id="Grupo_886532" data-name="Grupo 886532">
          <g id="Grupo_886531" data-name="Grupo 886531" clip-path="url(#clip-path-2)">
            <path id="Trazado_600819" data-name="Trazado 600819" d="M322.745,286.632c0,.634,3.806,17.443,3.806,17.443s7.928-5.391,10.941-7.928,17.6-16.016,17.6-16.016l8.722,8.07s-28.922,39.358-39.176,41.72c-5.262,1.213-11.1-2.764-12.229-5.571-2.525-6.265-6.439-32.986-6.439-32.986l5.674-2.512Z" transform="translate(-125.319 -114.735)" fill="#ba7e6d"/>
            <path id="Trazado_600820" data-name="Trazado 600820" d="M336.29,320.721a9.429,9.429,0,0,0-1.8.472,7.45,7.45,0,0,0-3.293,2.917,16.3,16.3,0,0,0-1.709,4.16,12.957,12.957,0,0,1-.553,1.807,9.633,9.633,0,0,1,.332-1.864,14.2,14.2,0,0,1,1.657-4.273,7.193,7.193,0,0,1,3.482-2.957,4.655,4.655,0,0,1,1.372-.292,1.322,1.322,0,0,1,.512.031" transform="translate(-134.722 -131.346)" fill="#875149"/>
            <path id="Trazado_600821" data-name="Trazado 600821" d="M385.244,275.052s7.975-8.928,11.189-8.671,7.842.951,9.127.733a35.037,35.037,0,0,1,4.885,0s8.356-4.527,9.9-4.173c0,0,1.434-.073,1.927.738,0,0,3.176-2.01,5.47-.758l-8.328,6.934,2.541-.318s7.482-3.953,9.846-1.235l-5.647,3.035s4.694-.071,5.4,1.835l-10.517,1.694s-19.978,1.669-21.036,2.127-5.284,5.932-5.284,5.932Z" transform="translate(-157.788 -107.519)" fill="#ba7e6d"/>
            <path id="Trazado_600822" data-name="Trazado 600822" d="M437.806,264.564a2.922,2.922,0,0,1-.5.489c-.34.294-.837.714-1.473,1.205a48.471,48.471,0,0,1-5.2,3.515c-1.006.583-1.964,1.125-2.9,1.555a3.906,3.906,0,0,1-2.716.365l.146-.08a2.368,2.368,0,0,1-1.488,1.51,2.032,2.032,0,0,1-.577.107c-.134,0-.2-.012-.2-.023a5.719,5.719,0,0,0,.733-.207,2.294,2.294,0,0,0,1.308-1.453l.032-.113.114.032a3.736,3.736,0,0,0,2.528-.409c.9-.43,1.862-.984,2.857-1.561,2.108-1.23,3.932-2.483,5.23-3.419l1.53-1.121a2.932,2.932,0,0,1,.58-.391" transform="translate(-173.208 -108.359)" fill="#875149"/>
            <path id="Trazado_600823" data-name="Trazado 600823" d="M436.952,275.217a3.9,3.9,0,0,1-1.112.87,9.674,9.674,0,0,1-3.182,1.226c-.661.134-1.3.156-1.843.257a5.056,5.056,0,0,0-1.391.495,2.429,2.429,0,0,1-1.356.39,10.434,10.434,0,0,0,1.252-.593,4.744,4.744,0,0,1,1.437-.583c.577-.122,1.2-.152,1.839-.282a14.622,14.622,0,0,0,4.355-1.781" transform="translate(-175.327 -112.721)" fill="#875149"/>
            <path id="Trazado_600824" data-name="Trazado 600824" d="M448.945,276.446a4.539,4.539,0,0,1-1.131.874,13.088,13.088,0,0,1-6.551,1.981,4.531,4.531,0,0,1-1.425-.1,17.919,17.919,0,0,0,9.107-2.754" transform="translate(-180.148 -113.225)" fill="#875149"/>
            <path id="Trazado_600825" data-name="Trazado 600825" d="M165.644,371.772C157.017,385.2,147.006,402,140.9,417.129H244.83l-12.414-45.357Z" transform="translate(-57.711 -152.27)" fill="#263238"/>
            <path id="Trazado_600826" data-name="Trazado 600826" d="M73.823,281.483s7.344,10.763,9.835,13.6,12.989,17.868,18.45,23.9c5.531,6.11,11.419,9.344,15.272,9.344,3.956,0,7.959-1.353,11.1-8.729,4.534-10.648,8.353-41.918,8.353-41.918L119.118,271.2l-6.44,32.4c-1.728-1.728-29.02-27.176-29.02-27.176L77.4,279.009Z" transform="translate(-30.236 -111.076)" fill="#ba7e6d"/>
            <path id="Trazado_600827" data-name="Trazado 600827" d="M27.868,265.821s.417-.75,2.751-.417,6.419,2.751,7.336,2.751,11.171.333,13.172.834,5.112.8,6.946,2.717l2.973,2.632-9.924,5.455a4.1,4.1,0,0,0-3.162-1.634c-2.251-.167-12.588-.667-12.588-.667l-8-1.834L17.2,270.739a2.549,2.549,0,0,1,2.918-1.5c2.084.5,6,1.918,6,1.918l3.418,1.041-9-4.292a4.4,4.4,0,0,1,4.585-1.083c2.835.917,7.67,3.084,7.67,3.084l.667-.25Z" transform="translate(-7.044 -108.669)" fill="#ba7e6d"/>
            <path id="Trazado_600828" data-name="Trazado 600828" d="M50.377,274.739a6.565,6.565,0,0,1-3.049-.5,6.555,6.555,0,0,1-2.645-1.6c.054-.076,1.168.742,2.748,1.316s2.953.689,2.945.782" transform="translate(-18.301 -111.666)" fill="#875149"/>
            <path id="Trazado_600829" data-name="Trazado 600829" d="M45.264,278.751a4.189,4.189,0,0,1-1.33.1,11.855,11.855,0,0,1-6.094-1.884,4.176,4.176,0,0,1-1.042-.832,21.287,21.287,0,0,0,4.049,1.9,21.311,21.311,0,0,0,4.417.712" transform="translate(-15.071 -113.097)" fill="#875149"/>
            <path id="Trazado_600830" data-name="Trazado 600830" d="M20.133,276.314a2,2,0,0,0-1.116,1.884A59.27,59.27,0,0,0,29.4,280.589" transform="translate(-7.787 -113.172)" fill="#875149"/>
            <path id="Trazado_600831" data-name="Trazado 600831" d="M145.805,339.576c-.06-.006.06-.9-.031-2.335a15.352,15.352,0,0,0-.374-2.492,15.454,15.454,0,0,0-2.561-5.571,15.35,15.35,0,0,0-1.648-1.905c-1.031-1-1.787-1.494-1.752-1.544a2.549,2.549,0,0,1,.545.321,5.593,5.593,0,0,1,.6.435,9.213,9.213,0,0,1,.753.634,13.914,13.914,0,0,1,1.725,1.9,14.645,14.645,0,0,1,2.609,5.673,13.874,13.874,0,0,1,.316,2.543,9.227,9.227,0,0,1-.009.984,5.612,5.612,0,0,1-.061.739,2.553,2.553,0,0,1-.112.622" transform="translate(-57.11 -133.411)" fill="#875149"/>
            <path id="Trazado_600832" data-name="Trazado 600832" d="M162.4,216.927c-2.45,1.512-8.111,6.1-13.972,18.494-7.8,16.493-9.82,26.784-9.82,26.784l20.727,7.4,6.284-54.239s-2.409,1.059-3.218,1.558" transform="translate(-56.772 -88.211)" fill="#b5faeb"/>
            <path id="Trazado_600833" data-name="Trazado 600833" d="M171.284,232.908s.49,17.5.49,22.253,2.127,40.493,2.127,40.493-.014,11.765,7.3,11.582,19.791,1.229,24.73,1.229c3.644,0,24.35.244,35.249-.73,5.169-.462,7.156-2.98,8.751-7.072.216-.554.084-.23.216-.554,3.12-7.679.709-40.521.709-40.521L246.992,229.9l-8.814-17.532-49.895-.155c-16.012,1.1-16.019,7.66-17,20.7" transform="translate(-70.154 -86.916)" fill="#b5faeb"/>
            <path id="Trazado_600834" data-name="Trazado 600834" d="M305.443,226.822c-8.215-13.642-20.861-14.351-20.861-14.351l7.464,61.5,5.889-1.642c.436-.146,22.141-8.8,22.141-8.8s-9.576-28.315-14.632-36.712" transform="translate(-116.559 -87.024)" fill="#b5faeb"/>
            <path id="Trazado_600835" data-name="Trazado 600835" d="M295.121,244.25a.473.473,0,0,1,.073.12l.185.364c.155.324.4.794.676,1.421a57.663,57.663,0,0,1,2.113,5.387,83.115,83.115,0,0,1,3.811,18.675,172.1,172.1,0,0,1,.577,19.071c-.042,2.441-.1,4.415-.145,5.779q-.039.993-.062,1.571c-.009.164-.017.3-.024.408a.464.464,0,0,1-.019.139.482.482,0,0,1-.013-.139c0-.11,0-.245-.007-.409q0-.577,0-1.572c.012-1.392.028-3.36.048-5.779.017-4.877.035-11.629-.665-19.039a86.933,86.933,0,0,0-3.712-18.635c-.759-2.316-1.48-4.154-2.015-5.408-.256-.632-.486-1.109-.623-1.442l-.158-.377a.474.474,0,0,1-.044-.133" transform="translate(-120.875 -100.04)" fill="#263238"/>
            <g id="Grupo_886521" data-name="Grupo 886521" transform="translate(137.948 166.491)" opacity="0.3">
              <g id="Grupo_886520" data-name="Grupo 886520">
                <g id="Grupo_886519" data-name="Grupo 886519" clip-path="url(#clip-path-6)">
                  <path id="Trazado_600836" data-name="Trazado 600836" d="M233.643,300.327A23.883,23.883,0,0,1,243,294.546c4.664-1.509,18.48-4.389,22.144-5.734a30.7,30.7,0,0,0,10.815-6.826l16.218,13.32a50.155,50.155,0,0,1-9.222,6.551c-5.219,2.805-18.083,2.819-25.013,6.974-4.487,2.691-10.293,10.576-10.293,10.576Z" transform="translate(-233.643 -281.986)"/>
                </g>
              </g>
            </g>
            <g id="Grupo_886524" data-name="Grupo 886524" transform="translate(118.518 215.587)" opacity="0.3">
              <g id="Grupo_886523" data-name="Grupo 886523">
                <g id="Grupo_886522" data-name="Grupo 886522" clip-path="url(#clip-path-7)">
                  <path id="Trazado_600837" data-name="Trazado 600837" d="M242.488,406.468a23.885,23.885,0,0,1-10.465-3.378c-4.172-2.574-15.318-11.23-18.716-13.151a43.054,43.054,0,0,0-12.221-4.574l-.351-20.224a50.2,50.2,0,0,1,10.965,2.779c5.518,2.158,13.865,11.947,21.52,14.533,4.956,1.674,14.725.985,14.725.985Z" transform="translate(-200.735 -365.141)"/>
                </g>
              </g>
            </g>
            <g id="Grupo_886527" data-name="Grupo 886527" transform="translate(87.757 138.838)" opacity="0.3">
              <g id="Grupo_886526" data-name="Grupo 886526">
                <g id="Grupo_886525" data-name="Grupo 886525" clip-path="url(#clip-path-8)">
                  <path id="Trazado_600838" data-name="Trazado 600838" d="M148.634,251.816c4.134,1.392,9.368-.975,12.017-4.439s5.241-7.911,5.872-12.227c-3.029-.005-7.142.227-10.171.22Z" transform="translate(-148.634 -235.15)"/>
                </g>
              </g>
            </g>
            <path id="Trazado_600839" data-name="Trazado 600839" d="M172.935,271.432a3.014,3.014,0,0,1,.038.486q.019.52.051,1.394c.034,1.242.082,2.986.142,5.127.116,4.357.275,10.324.45,16.916.193,6.607.4,12.587.594,16.913.1,2.14.188,3.881.247,5.122q.042.874.066,1.393a2.735,2.735,0,0,1,0,.488,2.929,2.929,0,0,1-.064-.483q-.046-.518-.123-1.389c-.108-1.207-.217-2.957-.346-5.12-.248-4.325-.491-10.306-.684-16.914s-.3-12.59-.361-16.92c-.019-2.143-.033-3.888-.044-5.13,0-.583,0-1.048.006-1.4a2.848,2.848,0,0,1,.024-.487" transform="translate(-70.818 -111.173)" fill="#263238"/>
            <g id="Grupo_886530" data-name="Grupo 886530" transform="translate(98.861 158.419)" opacity="0.3">
              <g id="Grupo_886529" data-name="Grupo 886529">
                <g id="Grupo_886528" data-name="Grupo 886528" clip-path="url(#clip-path-9)">
                  <path id="Trazado_600840" data-name="Trazado 600840" d="M171.256,306.751c-5.394-12.184-4.592-25.736-.559-38.436.581,12.369.864,26.057.559,38.436" transform="translate(-167.441 -268.315)"/>
                </g>
              </g>
            </g>
            <path id="Trazado_600841" data-name="Trazado 600841" d="M248.241,104.941a17.4,17.4,0,0,0-8.632-10.3c-4.506-2.3-9.874-2.493-14.8-1.359a46.53,46.53,0,0,0-13.788,6.167,22.794,22.794,0,0,0-6.52,5.392c-3.106,4.145-6.1,10.892-6.263,16.069-.132,4.185,1.767,14.6,3.641,18.346a9.406,9.406,0,0,0,4.111,3.5,35.55,35.55,0,0,0,7.855,9.8l2.665-8.5Z" transform="translate(-81.19 -37.929)" fill="#263238"/>
            <path id="Trazado_600842" data-name="Trazado 600842" d="M272.865,104.032l-8.278-1.238c4.808,10.593,6.728,35.076,9.627,46.343,2.91-4.491,9.577-18.109,9.048-23.435s-.638-22.859-10.4-21.67" transform="translate(-108.369 -42.102)" fill="#263238"/>
            <path id="Trazado_600843" data-name="Trazado 600843" d="M213.3,124.017a14.072,14.072,0,0,1,10.213-13.256l18.828-5.38c8.171-1.119,13.933,8.807,14.7,17.019.857,9.123,1.5,18.757.626,25.611-1.756,13.781-12.213,15.85-12.213,15.85,0-.02.184,6.525.292,10.531l-11.168,23.294L217.21,169.77l-3.949-45.585c-.012-.234.031.145.044-.168" transform="translate(-87.346 -43.127)" fill="#ba7e6d"/>
            <path id="Trazado_600844" data-name="Trazado 600844" d="M276.1,150.262a1.76,1.76,0,0,1-1.641,1.827,1.683,1.683,0,0,1-1.862-1.53,1.76,1.76,0,0,1,1.639-1.827,1.684,1.684,0,0,1,1.864,1.53" transform="translate(-111.649 -60.914)" fill="#263238"/>
            <path id="Trazado_600845" data-name="Trazado 600845" d="M279.375,142.256c-.211.236-1.574-.709-3.466-.646-1.891.036-3.25,1.053-3.463.827-.1-.1.106-.52.7-.979a4.825,4.825,0,0,1,2.763-.946,4.637,4.637,0,0,1,2.768.8c.6.429.805.838.7.943" transform="translate(-111.578 -57.55)" fill="#263238"/>
            <path id="Trazado_600846" data-name="Trazado 600846" d="M248.42,150.262a1.76,1.76,0,0,1-1.641,1.827,1.683,1.683,0,0,1-1.862-1.53,1.76,1.76,0,0,1,1.64-1.827,1.684,1.684,0,0,1,1.863,1.531" transform="translate(-100.312 -60.914)" fill="#263238"/>
            <path id="Trazado_600847" data-name="Trazado 600847" d="M248.931,143.126c-.212.236-1.576-.709-3.468-.646-1.891.036-3.25,1.052-3.462.827-.1-.1.1-.52.7-.979a4.83,4.83,0,0,1,2.763-.946,4.643,4.643,0,0,1,2.768.8c.594.429.805.837.7.943" transform="translate(-99.108 -57.906)" fill="#263238"/>
            <path id="Trazado_600848" data-name="Trazado 600848" d="M263.546,158.307a12.578,12.578,0,0,1,3.057-.649c.481-.065.936-.175,1.007-.507a2.461,2.461,0,0,0-.367-1.423q-.736-1.733-1.542-3.636c-2.146-5.179-3.716-9.443-3.507-9.527s2.119,4.044,4.265,9.222q.777,1.916,1.483,3.66a2.8,2.8,0,0,1,.309,1.889,1.215,1.215,0,0,1-.773.731,3.291,3.291,0,0,1-.817.139,12.292,12.292,0,0,1-3.116.1" transform="translate(-107.382 -58.391)" fill="#263238"/>
            <path id="Trazado_600849" data-name="Trazado 600849" d="M236.757,197.1s4.732,9.293,18.419,7.587l-.089-3.226a34.568,34.568,0,0,1-18.33-4.361" transform="translate(-96.971 -80.729)" fill="#875149"/>
            <path id="Trazado_600850" data-name="Trazado 600850" d="M246.445,131.872c-.171.52-2.068.335-4.28.671-2.219.291-3.99,1-4.3.544-.139-.217.159-.71.867-1.231a7.534,7.534,0,0,1,6.536-.926c.825.3,1.248.7,1.175.942" transform="translate(-97.412 -53.475)" fill="#263238"/>
            <path id="Trazado_600851" data-name="Trazado 600851" d="M278.4,132.4c-.32.44-1.637.034-3.206.061-1.569-.028-2.887.377-3.205-.063-.142-.214.054-.651.622-1.076a4.64,4.64,0,0,1,5.166,0c.568.425.763.862.624,1.076" transform="translate(-111.381 -53.466)" fill="#263238"/>
            <path id="Trazado_600852" data-name="Trazado 600852" d="M250.757,106.4a6.036,6.036,0,0,0-5.426-3.264,11.721,11.721,0,0,0-6.274,2.025c-8.033,4.954-11.906,16.478-19.838,21.593-1.951,1.258-4.566.231-6.208,1.871s-2.666,4.214-1.671,6.311a19.2,19.2,0,0,1-2.935-4.656,6.48,6.48,0,0,1,.074-5.353c.664-1.23,1.87-2.188,2.171-3.554.263-1.2-.243-2.434-.226-3.664a8,8,0,0,1,1.157-3.535c3-5.681,7.206-10.863,12.717-14.167a23.218,23.218,0,0,1,11.948-3.457,17.762,17.762,0,0,1,11.582,4.219c1.853,1.631,3.8,3.318,2.93,5.629" transform="translate(-85.136 -39.545)" fill="#263238"/>
            <path id="Trazado_600853" data-name="Trazado 600853" d="M211.961,153.289c-.155-.39-7.384-2.767-7.262,4.84.119,7.39,7.531,5.724,7.541,5.511s-.279-10.351-.279-10.351" transform="translate(-83.84 -62.515)" fill="#ba7e6d"/>
            <path id="Trazado_600854" data-name="Trazado 600854" d="M211.193,162.572c-.033-.022-.128.093-.343.2a1.287,1.287,0,0,1-.962.038,3.187,3.187,0,0,1-1.529-2.83,4.254,4.254,0,0,1,.325-1.85,1.488,1.488,0,0,1,.949-1.007.655.655,0,0,1,.767.338c.1.2.059.353.1.365.021.018.156-.127.091-.43a.817.817,0,0,0-.3-.458.971.971,0,0,0-.716-.175,1.81,1.81,0,0,0-1.323,1.171,4.372,4.372,0,0,0-.406,2.068c.076,1.488.865,2.867,1.938,3.155a1.38,1.38,0,0,0,1.174-.218c.226-.187.262-.353.236-.366" transform="translate(-85.127 -64.202)" fill="#875149"/>
            <path id="Trazado_600855" data-name="Trazado 600855" d="M211.837,129.565a2.8,2.8,0,0,0,.439-.262c.278-.188.707-.44,1.217-.822a25.456,25.456,0,0,0,3.884-3.744,71.169,71.169,0,0,0,4.7-6.476,58.152,58.152,0,0,1,5.88-7.765,23.249,23.249,0,0,1,3.845-3.221,19.137,19.137,0,0,1,4.195-2.049,21.025,21.025,0,0,1,7.8-1.184,20.132,20.132,0,0,1,5.271.878c.613.166,1.067.357,1.383.467a2.771,2.771,0,0,0,.488.157,2.951,2.951,0,0,0-.462-.219,12.333,12.333,0,0,0-1.369-.531,19.179,19.179,0,0,0-5.3-.99,20.894,20.894,0,0,0-7.911,1.128A19.3,19.3,0,0,0,231.619,107a23.247,23.247,0,0,0-3.909,3.265,56.636,56.636,0,0,0-5.9,7.826,75.9,75.9,0,0,1-4.621,6.495,27.39,27.39,0,0,1-3.782,3.794c-.494.4-.909.664-1.173.87a2.854,2.854,0,0,0-.4.318" transform="translate(-86.764 -42.504)" fill="#455a64"/>
            <path id="Trazado_600856" data-name="Trazado 600856" d="M211,168.85a1.456,1.456,0,1,0,.348.1" transform="translate(-85.733 -69.151)" fill="#fff"/>
            <path id="Trazado_600857" data-name="Trazado 600857" d="M211.238,168.911a1.984,1.984,0,0,1,.693.974,1.25,1.25,0,0,1-.256,1.168,1.292,1.292,0,0,1-2.292-.659,1.253,1.253,0,0,1,.4-1.125,1.986,1.986,0,0,1,1.1-.457c0-.018-.116-.073-.349-.071a1.511,1.511,0,0,0-.912.348,1.479,1.479,0,0,0-.554,1.349,1.587,1.587,0,0,0,2.838.816,1.479,1.479,0,0,0,.247-1.438,1.51,1.51,0,0,0-.589-.779c-.2-.125-.327-.142-.333-.125" transform="translate(-85.627 -69.112)" fill="#263238"/>
            <path id="Trazado_600858" data-name="Trazado 600858" d="M215.068,143.439c-.058,2.021-.09,4.154.893,5.921s3.369,2.919,5.095,1.866c1.408-.859,1.784-2.7,1.98-4.341.566-4.726.751-9.491,1.358-14.211Z" transform="translate(-88.077 -54.34)" fill="#263238"/>
            <path id="Trazado_600859" data-name="Trazado 600859" d="M251.906,107.174c-.008.043-.657-.1-1.842-.109A12.663,12.663,0,0,0,245.2,108.1a16.131,16.131,0,0,0-3.018,1.664,33.209,33.209,0,0,0-3.091,2.5,38,38,0,0,0-6,6.846c-.9,1.344-1.693,2.723-2.558,4a18.815,18.815,0,0,1-2.867,3.415,32.919,32.919,0,0,1-6.124,4.354c-1.862,1.053-3.422,1.8-4.5,2.313l-1.248.574a2.061,2.061,0,0,1-.448.174,2.117,2.117,0,0,1,.41-.249l1.213-.644c1.053-.559,2.591-1.343,4.423-2.423a34.077,34.077,0,0,0,6.01-4.38,18.761,18.761,0,0,0,2.79-3.362c.848-1.266,1.639-2.647,2.55-4.007a37.232,37.232,0,0,1,6.085-6.9,32.149,32.149,0,0,1,3.152-2.5,15.994,15.994,0,0,1,3.1-1.653,12.212,12.212,0,0,1,4.977-.922,8.713,8.713,0,0,1,1.372.151,2.113,2.113,0,0,1,.467.119" transform="translate(-88.204 -43.783)" fill="#455a64"/>
            <path id="Trazado_600860" data-name="Trazado 600860" d="M208.769,136.682a3.279,3.279,0,0,1-.641.459l-1.84,1.152-.62.379a1.985,1.985,0,0,1-.8.291.778.778,0,0,1-.5-.1.645.645,0,0,1-.29-.479,1.654,1.654,0,0,1,.322-.944l2.073-3.538.3.264a7.736,7.736,0,0,1-4.975,1.638,2.241,2.241,0,0,1-.674-.1.907.907,0,0,1-.587-.483.8.8,0,0,1,.1-.75,3.12,3.12,0,0,1,.408-.474,15.578,15.578,0,0,0,2.425-3.245,26.441,26.441,0,0,0,1.5-3.447,3.866,3.866,0,0,1-.2,1,13.9,13.9,0,0,1-1.041,2.587,14.9,14.9,0,0,1-2.408,3.371c-.268.269-.533.577-.42.807.094.23.518.332.906.324a7.466,7.466,0,0,0,4.714-1.552l.863-.67-.563.935-2.117,3.512a1.4,1.4,0,0,0-.294.73.352.352,0,0,0,.435.3,3.778,3.778,0,0,0,1.312-.585l1.9-1.047a3.25,3.25,0,0,1,.713-.337" transform="translate(-82.112 -52.141)" fill="#455a64"/>
            <path id="Trazado_600861" data-name="Trazado 600861" d="M252.444,174.133a2.47,2.47,0,0,1,2.5-1.948,2.584,2.584,0,0,1,2.026,1.355,3.177,3.177,0,0,1,.183,2.467l-.035.178a2.815,2.815,0,0,1-3.146.764,2.63,2.63,0,0,1-1.526-2.817" transform="translate(-103.379 -70.521)" fill="#875149"/>
            <path id="Trazado_600862" data-name="Trazado 600862" d="M255.318,176.539c.024.025-.074.2-.376.377a2.077,2.077,0,0,1-1.447.217,2.5,2.5,0,0,1-1.7-1.372,3.464,3.464,0,0,1,.738-3.847,1.584,1.584,0,0,1,1.36-.387,4.918,4.918,0,0,1,1.864,1.049c.926.7,1.474,1.173,1.426,1.243a5.9,5.9,0,0,1-1.672-.884,5.277,5.277,0,0,0-1.709-.847,1.009,1.009,0,0,0-.866.275,3.024,3.024,0,0,0-.631,3.155,2.139,2.139,0,0,0,1.3,1.194,2.111,2.111,0,0,0,1.243-.013c.293-.091.443-.2.475-.159" transform="translate(-103.003 -70.242)" fill="#263238"/>
          </g>
        </g>
        <g id="Grupo_886600" data-name="Grupo 886600">
          <g id="Grupo_886599" data-name="Grupo 886599" clip-path="url(#clip-path-2)">
            <path id="Trazado_600863" data-name="Trazado 600863" d="M325.893,156.481a24.736,24.736,0,0,1,9.192,6.723c3.265,3.887,11.41,16.02,14.128,19.013a31.788,31.788,0,0,0,10.763,7.717l-6.462,20.75a51.933,51.933,0,0,1-9.878-6.3c-4.725-3.916-9.749-16.253-16.436-21.283-4.329-3.257-14.157-5.755-14.157-5.755Z" transform="translate(-128.215 -64.091)" fill="#16a759"/>
            <g id="Grupo_886535" data-name="Grupo 886535" transform="translate(186.989 94.495)">
              <g id="Grupo_886534" data-name="Grupo 886534">
                <g id="Grupo_886533" data-name="Grupo 886533" clip-path="url(#clip-path-11)">
                  <path id="Trazado_600864" data-name="Trazado 600864" d="M360.217,192.016h0c-.06-.04-6.484-3.684-9.226-6.714-1.929-2.131-4.906-6.182-7.785-10.1-2.182-2.97-4.244-5.777-5.8-7.679-4.958-6.081-8.907-7.312-9.072-7.362l-.383-.114L316.7,177.557l.7.188c.073.019,7.319,1.98,10.737,4.477,4.548,3.323,7.179,7.744,9.724,12.019a47.633,47.633,0,0,0,5.9,8.473,40.593,40.593,0,0,0,7.006,5.97,25.94,25.94,0,0,0,3.184,1.863l.554.256Zm-31.445-10.652a31.575,31.575,0,0,0-7.678-3.59,2.721,2.721,0,0,0,.557-1.818,1.36,1.36,0,0,0-2.105-.853l7.309-11.376c.018.031.036.062.057.092,1.127,1.581,3.336.218,3.483-1.41l.119.077a27.917,27.917,0,0,1,6.073,5.708c1.534,1.882,3.589,4.677,5.763,7.637l.75,1.02c-1.666-.769-3.866-.4-5.936,2.5a12.358,12.358,0,0,0-1.68,9.1,28.994,28.994,0,0,0-6.712-7.087m15.774,20.624a46.846,46.846,0,0,1-5.764-8.291l-.508-.852a5.736,5.736,0,0,0,6.472-2.438c1.379-2.32,2.7-5.647,1.749-8.99,1.406,1.852,2.693,3.479,3.707,4.6a52.746,52.746,0,0,0,7.25,6.1,1.171,1.171,0,0,0-.8,1.5c.13.658.742,1.463,1.487,1.3a.768.768,0,0,0,.1-.038l-3.835,12.63c-.615-1.77-2.543-.948-2.238.794a38.944,38.944,0,0,1-7.615-6.323" transform="translate(-316.704 -160.046)" fill="#45b87a"/>
                </g>
              </g>
            </g>
            <path id="Trazado_600865" data-name="Trazado 600865" d="M353.582,202.792l-.678,1.085-.863-.539.66-1.056a4.491,4.491,0,0,1-1.666-2.119l1.214-.885a3.855,3.855,0,0,0,1.245,1.735l1.011-1.618c-.795-.86-1.641-1.888-.775-3.273a2.448,2.448,0,0,1,3.329-.815l.672-1.075.863.539-.66,1.056a4.248,4.248,0,0,1,1.383,1.687l-1.177.922a3.874,3.874,0,0,0-1.006-1.33l-1.029,1.647c.8.851,1.631,1.867.776,3.233a2.44,2.44,0,0,1-3.3.807m1.839-1.559c.212-.339.076-.68-.2-1.057l-.835,1.337a.814.814,0,0,0,1.04-.28m-.027-3.263.86-1.376a.857.857,0,0,0-1.086.318c-.212.339-.068.685.227,1.058" transform="translate(-143.776 -79.553)" fill="#147c48"/>
            <path id="Trazado_600866" data-name="Trazado 600866" d="M234.979,284.976a24.731,24.731,0,0,1,9.687-5.987c4.83-1.563,19.136-4.545,22.931-5.937a31.789,31.789,0,0,0,11.2-7.069l16.795,13.794a51.934,51.934,0,0,1-9.549,6.783c-5.405,2.9-18.726,2.918-25.9,7.221-4.646,2.786-10.658,10.952-10.658,10.952Z" transform="translate(-96.242 -108.941)" fill="#16a759"/>
            <g id="Grupo_886538" data-name="Grupo 886538" transform="translate(140.899 158.441)" opacity="0.2">
              <g id="Grupo_886537" data-name="Grupo 886537">
                <g id="Grupo_886536" data-name="Grupo 886536" clip-path="url(#clip-path-12)">
                  <path id="Trazado_600867" data-name="Trazado 600867" d="M280.4,268.351h0c-.06.04-5.853,4.621-9.692,6.022-2.7.985-7.573,2.219-12.287,3.413-3.574.905-6.949,1.759-9.3,2.481-7.5,2.306-10.125,5.5-10.233,5.637l-.25.312,11.993,17.012.439-.58c.045-.06,4.588-6.037,8.187-8.264,4.79-2.964,9.875-3.739,14.794-4.488a47.633,47.633,0,0,0,10.071-2.28,40.587,40.587,0,0,0,8.167-4.246,25.97,25.97,0,0,0,2.924-2.248l.446-.417Zm-21.7,25.128a31.543,31.543,0,0,0-6.215,5.763,2.716,2.716,0,0,0-1.475-1.2c-1.093-.14-1.635.608-1.582,1.63l-7.791-11.051c.035-.005.071-.01.107-.018,1.889-.45,1.457-3.01,0-3.757l.116-.081a27.933,27.933,0,0,1,7.573-3.479c2.321-.714,5.684-1.565,9.244-2.466l1.227-.311c-1.339,1.253-1.827,3.429.087,6.441a12.359,12.359,0,0,0,7.8,4.979,28.981,28.981,0,0,0-9.092,3.553m25.043-6.857a46.825,46.825,0,0,1-9.85,2.222l-.981.151a5.737,5.737,0,0,0,.176-6.914c-1.631-2.151-4.216-4.63-7.672-5,2.245-.606,4.237-1.187,5.656-1.7a52.636,52.636,0,0,0,8.381-4.422,1.172,1.172,0,0,0,1.091,1.311c.659.127,1.634-.137,1.766-.888a.636.636,0,0,0,0-.106l10.26,8.3c-1.871-.1-1.836,2-.106,2.373a38.925,38.925,0,0,1-8.723,4.677" transform="translate(-238.641 -268.352)" fill="#fff"/>
                </g>
              </g>
            </g>
            <path id="Trazado_600868" data-name="Trazado 600868" d="M286.562,293.534l.75,1.036-.825.6-.73-1.008a4.483,4.483,0,0,1-2.589.746l-.364-1.458a3.849,3.849,0,0,0,2.075-.5l-1.119-1.545c-1.1.412-2.366.81-3.325-.513a2.451,2.451,0,0,1,.5-3.393l-.744-1.027.825-.6.73,1.009a4.241,4.241,0,0,1,2.083-.647l.411,1.436a3.882,3.882,0,0,0-1.611.432l1.139,1.574c1.09-.423,2.344-.808,3.287.5a2.441,2.441,0,0,1-.494,3.363m-3.786-3.494-.951-1.314a.858.858,0,0,0-.115,1.127c.234.324.609.32,1.065.187m3.033,1.2c-.234-.324-.6-.327-1.056-.209l.924,1.277a.813.813,0,0,0,.132-1.068" transform="translate(-114.667 -117.087)" fill="#147c48"/>
            <path id="Trazado_600869" data-name="Trazado 600869" d="M210.5,8.151l-20.1-2.7-2.093.216c-3.635.5-6.538,1.375-10.868,5.956-4.212,4.457-5.979,15.848-5.979,15.848a28.556,28.556,0,0,1,12.686-2.4c7.693.173,10.491,1.516,10.491,1.516s.053-7.694,3.344-11.526c4.1-4.775,12.522-6.913,12.522-6.913" transform="translate(-70.227 -2.233)" fill="#ff725e"/>
            <g id="Grupo_886541" data-name="Grupo 886541" transform="translate(101.234 3.219)">
              <g id="Grupo_886540" data-name="Grupo 886540">
                <g id="Grupo_886539" data-name="Grupo 886539" clip-path="url(#clip-path-13)">
                  <path id="Trazado_600870" data-name="Trazado 600870" d="M210.5,8.151l-20.1-2.7-2.093.216c-3.635.5-6.538,1.375-10.868,5.956-4.212,4.457-5.979,15.848-5.979,15.848a28.556,28.556,0,0,1,12.686-2.4c7.693.173,10.491,1.516,10.491,1.516s.053-7.694,3.344-11.526c4.1-4.775,12.522-6.913,12.522-6.913" transform="translate(-171.461 -5.452)" fill="#118d4a"/>
                </g>
              </g>
            </g>
            <path id="Trazado_600871" data-name="Trazado 600871" d="M200,5.2s4.706-.667,12.2,5.751c4.785,4.1,12.962,16.672,12.962,16.672a21.519,21.519,0,0,1,6.352-5.793C238.17,17.883,242,16.884,242,16.884S237.784,10.529,231.409,8C216.034,1.916,200,5.2,200,5.2" transform="translate(-81.914 -1.768)" fill="#45b87a"/>
            <g id="Grupo_886544" data-name="Grupo 886544" transform="translate(124.312 2.44)" opacity="0.2">
              <g id="Grupo_886543" data-name="Grupo 886543">
                <g id="Grupo_886542" data-name="Grupo 886542" clip-path="url(#clip-path-14)">
                  <path id="Trazado_600872" data-name="Trazado 600872" d="M210.548,4.356c1.047.559,7.214,2.743,11.484,2.342s5.288-1.069,3.59-1.519a30.993,30.993,0,0,0-7.334-1,63.974,63.974,0,0,0-7.739.172" transform="translate(-210.548 -4.133)" fill="#fff"/>
                </g>
              </g>
            </g>
            <g id="Grupo_886547" data-name="Grupo 886547" transform="translate(121.638 2.663)" opacity="0.2">
              <g id="Grupo_886546" data-name="Grupo 886546">
                <g id="Grupo_886545" data-name="Grupo 886545" clip-path="url(#clip-path-15)">
                  <path id="Trazado_600873" data-name="Trazado 600873" d="M242.255,15.611a43.288,43.288,0,0,0-9.673-7.639c-.758-.412-1.561-.806-2.382-1.18a54.207,54.207,0,0,0-8.4-1.842c2.691.611,6.183.875,10.671,3.957a62.227,62.227,0,0,1,6.412,5.125,1.775,1.775,0,0,0-.214,2.359,29.151,29.151,0,0,0-5.284,2.676,50.4,50.4,0,0,0-4.424,3.28,1.545,1.545,0,0,0,.142-.844,2.006,2.006,0,0,0-2.375-1.281.98.98,0,0,0-.765.671c-2.528-3.675-6.723-9.527-9.146-11.559a32.436,32.436,0,0,0-8.063-4.8c-.035-.015-.03-.006-.065-.021-1.04.067-1.86.179-2.674.268a32.149,32.149,0,0,1,10.025,5.483c3.42,2.868,10.937,14.3,11.013,14.411l.387.59.524-.472a57.073,57.073,0,0,1,6.079-4.706,27.616,27.616,0,0,1,7.9-3.473l1.024-.23Z" transform="translate(-206.019 -4.511)" fill="#fff"/>
                </g>
              </g>
            </g>
            <path id="Trazado_600874" data-name="Trazado 600874" d="M113.719,240.179l18.164,3.1,1.907-.128c3.317-.334,5.981-1.038,10.06-5.058,3.968-3.911,5.94-14.2,5.94-14.2a25.935,25.935,0,0,1-11.6,1.767c-6.979-.405-9.476-1.715-9.476-1.715s-.3,6.984-3.407,10.357c-3.877,4.2-11.592,5.873-11.592,5.873" transform="translate(-46.577 -91.703)" fill="#ff725e"/>
            <g id="Grupo_886550" data-name="Grupo 886550" transform="translate(67.142 132.194)">
              <g id="Grupo_886549" data-name="Grupo 886549">
                <g id="Grupo_886548" data-name="Grupo 886548" clip-path="url(#clip-path-16)">
                  <path id="Trazado_600875" data-name="Trazado 600875" d="M113.719,240.179l18.164,3.1,1.907-.128c3.317-.334,5.981-1.038,10.06-5.058,3.968-3.911,5.94-14.2,5.94-14.2a25.935,25.935,0,0,1-11.6,1.767c-6.979-.405-9.476-1.715-9.476-1.715s-.3,6.984-3.407,10.357c-3.877,4.2-11.592,5.873-11.592,5.873" transform="translate(-113.719 -223.898)" fill="#118d4a"/>
                </g>
              </g>
            </g>
            <path id="Trazado_600876" data-name="Trazado 600876" d="M121.522,241.82s-4.294.453-10.889-5.616c-4.212-3.876-11.231-15.555-11.231-15.555a19.539,19.539,0,0,1-5.954,5.054,42.159,42.159,0,0,1-9.683,4.157s3.619,5.906,9.326,8.4c13.763,6.025,28.432,3.557,28.432,3.557" transform="translate(-34.308 -90.373)" fill="#16a759"/>
            <g id="Grupo_886553" data-name="Grupo 886553" transform="translate(67.178 149.433)" opacity="0.2">
              <g id="Grupo_886552" data-name="Grupo 886552">
                <g id="Grupo_886551" data-name="Grupo 886551" clip-path="url(#clip-path-17)">
                  <path id="Trazado_600877" data-name="Trazado 600877" d="M128.135,255.609c-.933-.541-6.462-2.723-10.352-2.5s-4.836.8-3.308,1.263a28.178,28.178,0,0,0,6.627,1.14,58.184,58.184,0,0,0,7.033.094" transform="translate(-113.78 -253.095)" fill="#fff"/>
                </g>
              </g>
            </g>
            <g id="Grupo_886556" data-name="Grupo 886556" transform="translate(50.796 132.501)" opacity="0.2">
              <g id="Grupo_886555" data-name="Grupo 886555">
                <g id="Grupo_886554" data-name="Grupo 886554" clip-path="url(#clip-path-18)">
                  <path id="Trazado_600878" data-name="Trazado 600878" d="M86.655,232.7a39.323,39.323,0,0,0,8.536,7.247c.674.4,1.39.783,2.125,1.148a49.2,49.2,0,0,0,7.563,1.943c-2.424-.642-5.585-.994-9.561-3.937a56.867,56.867,0,0,1-5.657-4.86,1.613,1.613,0,0,0,.271-2.136,26.463,26.463,0,0,0,4.885-2.259,46.217,46.217,0,0,0,4.122-2.835,1.4,1.4,0,0,0-.156.762,1.822,1.822,0,0,0,2.115,1.24.892.892,0,0,0,.717-.585c2.176,3.419,5.8,8.868,7.931,10.791a29.509,29.509,0,0,0,7.166,4.621c.032.015.027.006.058.021.947-.027,1.7-.1,2.437-.157a29.217,29.217,0,0,1-8.925-5.3c-3.013-2.715-9.469-13.333-9.534-13.44l-.332-.548-.491.412a51.961,51.961,0,0,1-5.672,4.076,25.088,25.088,0,0,1-7.282,2.9l-.937.176Z" transform="translate(-86.033 -224.417)" fill="#fff"/>
                </g>
              </g>
            </g>
            <path id="Trazado_600879" data-name="Trazado 600879" d="M334.167,53.657s4.246-3.451,9.65-8.605c6.589-6.283,20.251-18.8,31.9-14.066l13.335,15.933s-6.521-1.35-15.23,1.877c-7.767,2.878-13.208,8.569-15.645,11.173-.986,1.054-2.278,2.472-3.319,3.472a87.292,87.292,0,0,1-6.884,6.527Z" transform="translate(-136.868 -12.263)" fill="#16a759"/>
            <g id="Grupo_886559" data-name="Grupo 886559" transform="translate(214.545 25.49)" opacity="0.2">
              <g id="Grupo_886558" data-name="Grupo 886558">
                <g id="Grupo_886557" data-name="Grupo 886557" clip-path="url(#clip-path-19)">
                  <path id="Trazado_600880" data-name="Trazado 600880" d="M377.833,47.469a7.563,7.563,0,0,1-13.918,5.871,7.563,7.563,0,0,1,13.918-5.871" transform="translate(-363.376 -43.172)" fill="#fff"/>
                </g>
              </g>
            </g>
            <path id="Trazado_600881" data-name="Trazado 600881" d="M377.1,54.632l.8.781-.621.637-.779-.76a3.92,3.92,0,0,1-2.12,1.029l-.53-1.2a3.373,3.373,0,0,0,1.713-.741l-1.194-1.165c-.883.519-1.918,1.051-2.942.054a2.143,2.143,0,0,1-.077-3l-.794-.774.621-.637.78.76a3.711,3.711,0,0,1,1.7-.869l.569,1.177a3.39,3.39,0,0,0-1.323.612l1.216,1.186c.876-.527,1.9-1.046,2.908-.062a2.134,2.134,0,0,1,.076,2.97m-3.783-2.446-1.016-.991a.75.75,0,0,0,.069.988c.251.244.573.186.947,0m2.792.585c-.25-.244-.566-.192-.941-.022l.987.962a.71.71,0,0,0-.046-.94" transform="translate(-151.772 -19.966)" fill="#147c48"/>
            <g id="Grupo_886562" data-name="Grupo 886562" transform="translate(199.225 18.421)" opacity="0.2">
              <g id="Grupo_886561" data-name="Grupo 886561">
                <g id="Grupo_886560" data-name="Grupo 886560" clip-path="url(#clip-path-20)">
                  <path id="Trazado_600882" data-name="Trazado 600882" d="M376.041,31.635l-.138-.044c-.339-.108-8.435-2.539-19.868,6.2a99.554,99.554,0,0,0-11.955,10.8c-2.353,2.431-4.054,4.187-6.11,5.271l-.544.286L349.59,69.223l.4-.438c.113-.125,11.434-12.585,16.876-16.425,4.321-3.047,12.69-7.926,20.205-6.356l1.443.3Zm-9.76,19.9c-3.93,2.773-10.64,9.707-14.365,13.677a3.166,3.166,0,0,0-4.331-.086l-6.659-8.256a2.655,2.655,0,0,0,1.108-2.047,3.807,3.807,0,0,0-.629-2.185c1.058-.934,2.139-2.044,3.4-3.35a97.368,97.368,0,0,1,11.842-10.7c5.745-4.39,10.593-5.8,13.649-6.2a17.73,17.73,0,0,1,2.4-.16,4.558,4.558,0,0,0,4.579,2.424l6.958,8.183c-.485.151-1.059.595-.9,1.873-6.688.266-13.336,4.2-17.057,6.826" transform="translate(-337.428 -31.2)" fill="#fff"/>
                </g>
              </g>
            </g>
            <path id="Trazado_600883" data-name="Trazado 600883" d="M38.379,328.442s4.239,3.459,10.381,7.708c7.487,5.18,22.508,16.025,20.236,28.4l-12.9,16.284s0-6.659-4.922-14.534c-4.391-7.024-11.066-11.2-14.109-13.058-1.232-.753-2.882-1.73-4.072-2.548a87.02,87.02,0,0,1-7.786-5.42Z" transform="translate(-10.323 -134.523)" fill="#16a759"/>
            <g id="Grupo_886565" data-name="Grupo 886565" transform="translate(34.262 208.962)" opacity="0.2">
              <g id="Grupo_886564" data-name="Grupo 886564">
                <g id="Grupo_886563" data-name="Grupo 886563" clip-path="url(#clip-path-21)">
                  <path id="Trazado_600884" data-name="Trazado 600884" d="M69.611,367.573a7.563,7.563,0,1,1,1.622-10.288,7.369,7.369,0,0,1-1.622,10.288" transform="translate(-58.03 -353.919)" fill="#fff"/>
                </g>
              </g>
            </g>
            <path id="Trazado_600885" data-name="Trazado 600885" d="M66.648,367.389l-.6.943-.75-.479.586-.918a3.915,3.915,0,0,1-1.436-1.867l1.069-.763a3.372,3.372,0,0,0,1.072,1.528l.9-1.406c-.687-.759-1.418-1.666-.648-2.869a2.143,2.143,0,0,1,2.92-.683l.6-.934.75.48-.587.917a3.718,3.718,0,0,1,1.194,1.487l-1.037.8a3.368,3.368,0,0,0-.867-1.171l-.915,1.431c.693.75,1.408,1.647.649,2.834a2.134,2.134,0,0,1-2.894.675m1.622-1.346c.188-.295.073-.594-.169-.926l-.742,1.161a.711.711,0,0,0,.911-.236m.007-2.854.763-1.2a.749.749,0,0,0-.953.268c-.188.295-.066.6.19.927" transform="translate(-26.396 -147.424)" fill="#147c48"/>
            <g id="Grupo_886568" data-name="Grupo 886568" transform="translate(16.171 195.798)" opacity="0.2">
              <g id="Grupo_886567" data-name="Grupo 886567">
                <g id="Grupo_886566" data-name="Grupo 886566" clip-path="url(#clip-path-22)">
                  <path id="Trazado_600886" data-name="Trazado 600886" d="M69.555,364.881l.015-.144c.037-.354.779-8.774-10.091-18.2a99.6,99.6,0,0,0-12.995-9.521c-2.858-1.812-4.922-3.123-6.4-4.916l-.39-.474L27.39,346.59l.509.3c.146.086,14.64,8.648,19.5,13.2,3.86,3.614,10.332,10.822,10.316,18.5l0,1.474Zm-21.464-5.528c-3.511-3.288-11.661-8.454-16.3-11.3A3.165,3.165,0,0,0,31,343.8l6.737-8.193a2.658,2.658,0,0,0,2.229.67,3.81,3.81,0,0,0,2.012-1.058c1.129.847,2.435,1.68,3.969,2.653A97.286,97.286,0,0,1,58.817,347.3c5.462,4.736,7.821,9.2,8.839,12.11a17.785,17.785,0,0,1,.643,2.319,4.557,4.557,0,0,0-1.447,4.975l-6.606,8.47c-.245-.444-.8-.916-2.016-.5-1.614-6.5-6.814-12.209-10.139-15.321" transform="translate(-27.39 -331.625)" fill="#fff"/>
                </g>
              </g>
            </g>
            <path id="Trazado_600887" data-name="Trazado 600887" d="M0,157.791s9.408-11.027,27.9-3.925a11.592,11.592,0,0,0,2.169.617,11.965,11.965,0,0,0,6.307-.449c3.6-1.449,8.723-3.558,8.723-3.558l15.839,9.373S54.3,164.692,47.866,165.1s-14.03-4.87-21.4-3.068a18.5,18.5,0,0,0-9.743,5.6Z" transform="translate(0 -61.632)" fill="#16a759"/>
            <g id="Grupo_886571" data-name="Grupo 886571" transform="translate(21.496 93.405)" opacity="0.2">
              <g id="Grupo_886570" data-name="Grupo 886570">
                <g id="Grupo_886569" data-name="Grupo 886569" clip-path="url(#clip-path-23)">
                  <path id="Trazado_600888" data-name="Trazado 600888" d="M53.092,163.382c-.712.638-5,.053-9.581-1.307s-7.714-2.979-7-3.616,5-.053,9.581,1.307,7.714,2.979,7,3.616" transform="translate(-36.408 -158.201)" fill="#fff"/>
                </g>
              </g>
            </g>
            <path id="Trazado_600889" data-name="Trazado 600889" d="M50.652,163.156l.292.308-.963-.211-.283-.3a24.72,24.72,0,0,1-2.606-.747l.211-.219a21.135,21.135,0,0,0,2.052.606l-.435-.459a8.363,8.363,0,0,1-2.8-1.066c-.276-.292.228-.378,1.7-.093l-.289-.305.963.212.283.3c.738.175,1.493.384,2.113.6l-.161.232c-.566-.187-1.111-.344-1.608-.466l.442.467a8.232,8.232,0,0,1,2.774,1.053c.27.286-.227.373-1.689.092m-2.114-1.426-.37-.39c-.479-.079-.606-.044-.52.047a2.831,2.831,0,0,0,.889.343m2.283,1.026a2.761,2.761,0,0,0-.873-.342l.359.379c.453.076.6.051.514-.037" transform="translate(-18.86 -65.807)" fill="#147c48"/>
            <g id="Grupo_886574" data-name="Grupo 886574" transform="translate(2.118 89.97)" opacity="0.2">
              <g id="Grupo_886573" data-name="Grupo 886573">
                <g id="Grupo_886572" data-name="Grupo 886572" clip-path="url(#clip-path-24)">
                  <path id="Trazado_600890" data-name="Trazado 600890" d="M46.355,152.382l-.173.086A55.914,55.914,0,0,1,36.926,156a10.086,10.086,0,0,1-5.131.053c-.368-.064-.765-.133-1.207-.2a24.872,24.872,0,0,1-3.253-.909,31.049,31.049,0,0,0-8.345-1.819l-.074,0a22.873,22.873,0,0,0-14.934,4.646l-.4.318,14.23,8.615.2-.181c.076-.07,7.711-6.966,18.031-4.37,1.22.307,2.355.607,3.421.889,8.359,2.21,12.555,3.319,20.958-1.728l.512-.308Zm-6.707,9.973c-1.069-.283-2.206-.583-3.43-.891A21,21,0,0,0,20.189,164.1a3.843,3.843,0,0,0-4.6.425l-8.321-5.038a1.877,1.877,0,0,0,.123-3.111,22.688,22.688,0,0,1,11.483-2.539,30.435,30.435,0,0,1,8.245,1.788,25.182,25.182,0,0,0,3.359.934c.438.068.832.137,1.2.2a10.756,10.756,0,0,0,5.428-.065,48.773,48.773,0,0,0,6.991-2.487,3.877,3.877,0,0,0,4.5.324l8.49,5.023c-.634.3-1.584,1.083-.073,2.8-6.253,2.939-10.277,1.879-17.357.007" transform="translate(-3.587 -152.382)" fill="#fff"/>
                </g>
              </g>
            </g>
            <path id="Trazado_600891" data-name="Trazado 600891" d="M365.993,386.043s-1.114-14.452,17-22.464a11.6,11.6,0,0,0,1.972-1.092,11.962,11.962,0,0,0,4.153-4.769c1.529-3.567,3.671-8.676,3.671-8.676l17.837-4.534s-1.287,8.115-5.557,12.941-13.378,6.447-17.331,12.927a18.5,18.5,0,0,0-2.952,10.843Z" transform="translate(-149.897 -141.103)" fill="#16a759"/>
            <g id="Grupo_886577" data-name="Grupo 886577" transform="translate(229.638 219.372)" opacity="0.2">
              <g id="Grupo_886576" data-name="Grupo 886576">
                <g id="Grupo_886575" data-name="Grupo 886575" clip-path="url(#clip-path-25)">
                  <path id="Trazado_600892" data-name="Trazado 600892" d="M404.164,371.9c-.055.955-3.507,3.567-7.711,5.835s-7.568,3.332-7.513,2.378,3.507-3.567,7.712-5.835,7.568-3.332,7.513-2.378" transform="translate(-388.939 -371.551)" fill="#fff"/>
                </g>
              </g>
            </g>
            <path id="Trazado_600893" data-name="Trazado 600893" d="M402.215,377.421l.424.012-.832.53-.412-.012a24.77,24.77,0,0,1-2.373,1.31l0-.3a21.018,21.018,0,0,0,1.882-1.019l-.632-.018a8.341,8.341,0,0,1-2.737,1.221c-.4-.011-.1-.429,1.141-1.267l-.42-.012.832-.53.412.012c.646-.4,1.329-.781,1.919-1.068l.05.279c-.534.267-1.031.54-1.469.8l.643.019a8.236,8.236,0,0,1,2.71-1.211c.393.012.1.424-1.132,1.257m-2.5.481-.537-.016c-.4.282-.461.4-.335.4a2.828,2.828,0,0,0,.873-.384m2.342-.884a2.766,2.766,0,0,0-.86.373l.522.015c.374-.266.459-.385.338-.389" transform="translate(-162.751 -154.069)" fill="#147c48"/>
            <g id="Grupo_886580" data-name="Grupo 886580" transform="translate(217.257 204.709)" opacity="0.2">
              <g id="Grupo_886579" data-name="Grupo 886579">
                <g id="Grupo_886578" data-name="Grupo 886578" clip-path="url(#clip-path-26)">
                  <path id="Trazado_600894" data-name="Trazado 600894" d="M394.248,350.891l-.062.183a55.939,55.939,0,0,1-4.063,9.036,10.083,10.083,0,0,1-3.6,3.659c-.306.214-.636.446-1,.708a24.791,24.791,0,0,1-2.946,1.651,31.039,31.039,0,0,0-7.2,4.6l-.054.051a22.878,22.878,0,0,0-7.3,13.829l-.056.505,16.163-3.935.012-.267c0-.1.549-10.377,9.694-15.82,1.082-.644,2.1-1.231,3.052-1.784,7.483-4.332,11.239-6.506,13.633-16.012l.146-.579Zm2.284,11.8c-.957.554-1.975,1.143-3.059,1.788a21.007,21.007,0,0,0-9.5,13.178,3.842,3.842,0,0,0-2.96,3.547l-9.451,2.3c.149-2.125-1.369-2.321-2.108-2.291a22.7,22.7,0,0,1,6.346-9.9,30.43,30.43,0,0,1,7.1-4.55,25.148,25.148,0,0,0,3.04-1.709c.359-.26.686-.49.989-.7a10.76,10.76,0,0,0,3.8-3.875,48.862,48.862,0,0,0,3.2-6.7,3.876,3.876,0,0,0,3.414-2.943l9.56-2.431c-.238.66-.359,1.885,1.921,2.032-2.358,6.495-5.958,8.584-12.3,12.252" transform="translate(-367.969 -346.716)" fill="#fff"/>
                </g>
              </g>
            </g>
            <path id="Trazado_600895" data-name="Trazado 600895" d="M410.453,138.139s-4.017-13.927,12.1-25.441a11.533,11.533,0,0,0,1.71-1.469,11.961,11.961,0,0,0,3.1-5.511c.775-3.8,1.838-9.24,1.838-9.24l16.549-8.052s.383,8.208-2.821,13.8-11.8,9.023-14.355,16.169a18.5,18.5,0,0,0-.7,11.216Z" transform="translate(-167.931 -36.217)" fill="#16a759"/>
            <g id="Grupo_886583" data-name="Grupo 886583" transform="translate(252.336 71.14)" opacity="0.2">
              <g id="Grupo_886582" data-name="Grupo 886582">
                <g id="Grupo_886581" data-name="Grupo 886581" clip-path="url(#clip-path-27)">
                  <path id="Trazado_600896" data-name="Trazado 600896" d="M440.634,120.751c.14.946-2.712,4.2-6.37,7.275s-6.737,4.8-6.876,3.85,2.712-4.2,6.37-7.275,6.736-4.8,6.876-3.85" transform="translate(-427.383 -120.491)" fill="#147c48"/>
                </g>
              </g>
            </g>
            <path id="Trazado_600897" data-name="Trazado 600897" d="M439.046,127.787l.417-.074-.707.687-.406.071a24.748,24.748,0,0,1-2.059,1.763l-.066-.3a21.163,21.163,0,0,0,1.637-1.379l-.623.11a8.348,8.348,0,0,1-2.433,1.75c-.4.07-.19-.4.861-1.472l-.414.073.707-.687.406-.071c.553-.519,1.144-1.034,1.663-1.434l.1.262c-.469.37-.9.738-1.276,1.085l.634-.112a8.22,8.22,0,0,1,2.408-1.734c.387-.068.185.394-.854,1.46m-2.355.978-.53.093c-.33.357-.37.481-.247.459a2.824,2.824,0,0,0,.777-.553m2.114-1.34a2.761,2.761,0,0,0-.766.54l.514-.091c.313-.336.371-.47.252-.449" transform="translate(-178.01 -51.738)" fill="#147c48"/>
            <g id="Grupo_886586" data-name="Grupo 886586" transform="translate(243.156 53.642)" opacity="0.2">
              <g id="Grupo_886585" data-name="Grupo 886585">
                <g id="Grupo_886584" data-name="Grupo 886584" clip-path="url(#clip-path-28)">
                  <path id="Trazado_600898" data-name="Trazado 600898" d="M430.771,98.267l-.024.191a55.9,55.9,0,0,1-2.149,9.672,10.087,10.087,0,0,1-2.783,4.311c-.256.272-.533.566-.834.9a24.791,24.791,0,0,1-2.551,2.213,31.08,31.08,0,0,0-6.117,5.961l-.043.061a22.88,22.88,0,0,0-4.352,15.021l.047.506L427,129.974l-.043-.264c-.017-.1-1.563-10.274,6.29-17.455.929-.849,1.8-1.63,2.627-2.365,6.451-5.757,9.688-8.647,10.108-18.441l.025-.6Zm4.627,11.092c-.825.736-1.7,1.52-2.634,2.371a21.007,21.007,0,0,0-6.634,14.829,3.842,3.842,0,0,0-2.181,4.073l-8.79,4.167a1.877,1.877,0,0,0-2.528-1.817A22.707,22.707,0,0,1,416.84,122a30.443,30.443,0,0,1,6.036-5.894,25.106,25.106,0,0,0,2.63-2.289c.3-.327.573-.618.827-.887a10.761,10.761,0,0,0,2.937-4.565,48.82,48.82,0,0,0,1.777-7.2,3.875,3.875,0,0,0,2.747-3.573l8.87-4.316c-.1.694.03,1.918,2.293,1.6-.994,6.838-4.1,9.612-9.56,14.488" transform="translate(-411.834 -90.853)" fill="#fff"/>
                </g>
              </g>
            </g>
            <path id="Trazado_600899" data-name="Trazado 600899" d="M90.871,62.917a24.731,24.731,0,0,1-10.837-3.5C75.714,56.753,64.172,47.79,60.652,45.8A44.57,44.57,0,0,0,48,41.065l-.364-20.942A51.94,51.94,0,0,1,58.989,23C64.7,25.234,73.346,35.371,81.274,38.048c5.133,1.733,15.248,1.021,15.248,1.021Z" transform="translate(-19.51 -8.242)" fill="#16a759"/>
            <g id="Grupo_886589" data-name="Grupo 886589" transform="translate(29.019 12.998)" opacity="0.2">
              <g id="Grupo_886588" data-name="Grupo 886588">
                <g id="Grupo_886587" data-name="Grupo 886587" clip-path="url(#clip-path-29)">
                  <path id="Trazado_600900" data-name="Trazado 600900" d="M49.615,41l.377.107c.069.019,6.952,1.994,10.506,4.01,2.5,1.418,6.6,4.33,10.561,7.147,3.005,2.136,5.843,4.152,7.913,5.472,6.616,4.217,10.752,4.147,10.925,4.142l.4-.012,5.186-20.158-.727.042c-.075,0-7.57.417-11.6-.881-5.362-1.728-9.247-5.1-13-8.359a47.633,47.633,0,0,0-8.262-6.192,40.62,40.62,0,0,0-8.526-3.469,25.945,25.945,0,0,0-3.607-.769l-.607-.069Zm33.216.882a31.532,31.532,0,0,0,8.416,1,2.719,2.719,0,0,0,.041,1.9,1.36,1.36,0,0,0,2.267.149L90.187,58.031c-.027-.024-.054-.048-.083-.07-1.566-1.147-3.237.841-2.864,2.432l-.137-.035a27.939,27.939,0,0,1-7.558-3.514c-2.048-1.305-4.875-3.315-7.869-5.443l-1.032-.733c1.823.208,3.8-.831,4.849-4.24a12.357,12.357,0,0,0-1.26-9.165,29,29,0,0,0,8.6,4.622M61.38,27.256a46.813,46.813,0,0,1,8.075,6.062l.75.649a5.736,5.736,0,0,0-5.38,4.347c-.581,2.636-.795,6.211,1.161,9.085-1.916-1.318-3.649-2.459-4.963-3.2a52.7,52.7,0,0,0-8.8-3.518A1.172,1.172,0,0,0,52.516,39c-.33-.585-1.164-1.157-1.821-.77a.67.67,0,0,0-.081.067L50.29,25.1c1.14,1.487,2.712.1,1.876-1.457a38.9,38.9,0,0,1,9.215,3.613" transform="translate(-49.15 -22.015)" fill="#fff"/>
                </g>
              </g>
            </g>
            <path id="Trazado_600901" data-name="Trazado 600901" d="M82.336,48.588l.3-1.243.989.241-.295,1.21a4.487,4.487,0,0,1,2.247,1.488l-.875,1.221a3.847,3.847,0,0,0-1.726-1.255L82.526,52.1c1.025.567,2.151,1.277,1.764,2.864a2.45,2.45,0,0,1-2.906,1.82l-.3,1.232-.989-.241.3-1.21A4.248,4.248,0,0,1,78.547,55.4l.827-1.245a3.878,3.878,0,0,0,1.373.946l.461-1.886c-1.027-.556-2.134-1.262-1.752-2.826a2.44,2.44,0,0,1,2.881-1.8M81.08,50.645c-.1.389.141.669.525.94l.374-1.532a.813.813,0,0,0-.9.592m1.049,3.09-.384,1.576a.857.857,0,0,0,.932-.643c.1-.388-.151-.672-.548-.933" transform="translate(-32.171 -19.391)" fill="#147c48"/>
            <path id="Trazado_600902" data-name="Trazado 600902" d="M241.605,392.366a24.74,24.74,0,0,1-10.837-3.5c-4.32-2.666-15.862-11.63-19.382-13.617a44.57,44.57,0,0,0-12.654-4.737l-.364-20.942a51.941,51.941,0,0,1,11.355,2.877c5.715,2.234,14.357,12.371,22.285,15.048,5.133,1.733,15.248,1.021,15.248,1.021Z" transform="translate(-81.247 -143.177)" fill="#16a759"/>
            <g id="Grupo_886592" data-name="Grupo 886592" transform="translate(118.015 207.511)" opacity="0.2">
              <g id="Grupo_886591" data-name="Grupo 886591">
                <g id="Grupo_886590" data-name="Grupo 886590" clip-path="url(#clip-path-30)">
                  <path id="Trazado_600903" data-name="Trazado 600903" d="M200.349,370.453l.376.107c.069.019,6.952,1.994,10.506,4.01,2.5,1.418,6.6,4.33,10.561,7.147,3.005,2.136,5.843,4.152,7.913,5.472,6.616,4.217,10.752,4.147,10.925,4.142l.4-.012,5.186-20.158-.727.042c-.075,0-7.57.417-11.6-.881-5.362-1.728-9.247-5.1-13-8.359a47.633,47.633,0,0,0-8.262-6.192A40.617,40.617,0,0,0,204.1,352.3a25.947,25.947,0,0,0-3.607-.769l-.607-.069Zm33.215.882a31.532,31.532,0,0,0,8.416,1,2.719,2.719,0,0,0,.041,1.9,1.36,1.36,0,0,0,2.267.149l-3.369,13.095c-.027-.024-.054-.048-.083-.07-1.566-1.147-3.237.841-2.864,2.432l-.137-.035a27.941,27.941,0,0,1-7.558-3.514c-2.048-1.305-4.875-3.315-7.869-5.443l-1.032-.733c1.823.208,3.8-.831,4.849-4.24a12.357,12.357,0,0,0-1.26-9.165,29,29,0,0,0,8.6,4.622M212.113,356.7a46.817,46.817,0,0,1,8.075,6.062l.75.65a5.736,5.736,0,0,0-5.38,4.347c-.581,2.636-.795,6.211,1.161,9.085-1.916-1.317-3.649-2.459-4.963-3.2a52.7,52.7,0,0,0-8.8-3.518,1.172,1.172,0,0,0,.292-1.68c-.33-.585-1.164-1.157-1.821-.77a.668.668,0,0,0-.081.067l-.324-13.2c1.139,1.487,2.712.1,1.876-1.457a38.9,38.9,0,0,1,9.215,3.613" transform="translate(-199.883 -351.463)" fill="#fff"/>
                </g>
              </g>
            </g>
            <path id="Trazado_600904" data-name="Trazado 600904" d="M233.071,378.036l.3-1.243.989.241-.3,1.21a4.485,4.485,0,0,1,2.247,1.488l-.874,1.222a3.851,3.851,0,0,0-1.727-1.256l-.452,1.853c1.024.567,2.15,1.277,1.763,2.865a2.448,2.448,0,0,1-2.905,1.819l-.3,1.232-.989-.241.3-1.21a4.251,4.251,0,0,1-1.843-1.167l.827-1.244a3.873,3.873,0,0,0,1.373.946l.46-1.886c-1.027-.557-2.134-1.262-1.752-2.826a2.441,2.441,0,0,1,2.881-1.8m-1.256,2.058c-.094.388.141.668.526.939l.374-1.531a.814.814,0,0,0-.9.592m1.049,3.089-.384,1.576a.857.857,0,0,0,.932-.642c.1-.389-.151-.672-.547-.933" transform="translate(-93.909 -154.326)" fill="#147c48"/>
            <path id="Trazado_600905" data-name="Trazado 600905" d="M178.356,123.858c-3.775.093-10.7-.053-17.257-3.059-8.115-3.722-11.632-9.07-11.632-9.07l-1.756,19.893c4.712,11.134,23.491,11.905,32.24,12.108-2.327-9.636-2.928-14.159-1.595-19.872" transform="translate(-60.499 -45.762)" fill="#16a759"/>
            <g id="Grupo_886595" data-name="Grupo 886595" transform="translate(100.943 80.813)" opacity="0.2">
              <g id="Grupo_886594" data-name="Grupo 886594">
                <g id="Grupo_886593" data-name="Grupo 886593" clip-path="url(#clip-path-31)">
                  <path id="Trazado_600906" data-name="Trazado 600906" d="M171.453,141.091a7.269,7.269,0,1,1,4.133,9.118,7.084,7.084,0,0,1-4.133-9.118" transform="translate(-170.968 -136.873)" fill="#fff"/>
                </g>
              </g>
            </g>
            <path id="Trazado_600907" data-name="Trazado 600907" d="M180.276,141.915l-.014-1.076.856-.011.014,1.047a3.768,3.768,0,0,1,2.141.74l-.455,1.177a3.232,3.232,0,0,0-1.669-.66l.021,1.6c.953.247,2.019.589,2.037,1.962a2.059,2.059,0,0,1-1.984,2.091l.014,1.066-.856.011-.014-1.046a3.571,3.571,0,0,1-1.745-.563l.413-1.186a3.247,3.247,0,0,0,1.315.482l-.021-1.633c-.953-.237-2-.579-2.02-1.932a2.052,2.052,0,0,1,1.967-2.072m-.59,1.938c0,.336.254.515.625.654l-.018-1.325c-.426.112-.611.364-.607.671m1.5,2.295.018,1.364a.721.721,0,0,0,.624-.719c0-.336-.263-.515-.642-.645" transform="translate(-73.031 -57.68)" fill="#147c48"/>
            <g id="Grupo_886598" data-name="Grupo 886598" transform="translate(87.994 68.013)" opacity="0.2">
              <g id="Grupo_886597" data-name="Grupo 886597">
                <g id="Grupo_886596" data-name="Grupo 886596" clip-path="url(#clip-path-32)">
                  <path id="Trazado_600908" data-name="Trazado 600908" d="M179.963,142.9A70.618,70.618,0,0,1,166.9,142.1c-6.889-.917-11.141-3.254-13.5-5.054a17.174,17.174,0,0,1-1.741-1.521,4.38,4.38,0,0,0-1.467-4.76l.828-10.291c.432.227,1.124.315,1.883-.664,4.728,4.363,11.923,6.2,16.237,6.945a66.48,66.48,0,0,0,9.352.608l.185-1.047a67.465,67.465,0,0,1-9.321-.529c-5.009-.863-14.014-3.23-18.058-9.4l-.777-1.185-1.485,18.448.064.123c.157.3,4.011,7.457,17.72,9.283a73.49,73.49,0,0,0,13.316.808Z" transform="translate(-149.036 -115.194)" fill="#fff"/>
                </g>
              </g>
            </g>
          </g>
        </g>
      </g>
    </g>
  </g>
</svg>
