<svg xmlns="http://www.w3.org/2000/svg" xmlns:xlink="http://www.w3.org/1999/xlink" width="281.116" height="268.851" viewBox="0 0 281.116 268.851">
  <defs>
    <clipPath id="clip-path">
      <rect id="Rectángulo_291369" data-name="Rectángulo 291369" width="252.116" height="258.24" fill="#fff"/>
    </clipPath>
    <clipPath id="clip-path-2">
      <rect id="Rectángulo_293140" data-name="Rectángulo 293140" width="235.267" height="258.297" fill="none"/>
    </clipPath>
    <clipPath id="clip-path-4">
      <rect id="Rectángulo_293110" data-name="Rectángulo 293110" width="72.105" height="120.144" fill="none"/>
    </clipPath>
    <clipPath id="clip-path-6">
      <rect id="Rectángulo_293115" data-name="Rectángulo 293115" width="68.103" height="57.847" fill="none"/>
    </clipPath>
    <clipPath id="clip-path-8">
      <rect id="Rectángulo_293118" data-name="Rectángulo 293118" width="59.92" height="53.574" fill="none"/>
    </clipPath>
    <clipPath id="clip-path-9">
      <rect id="Rectángulo_293119" data-name="Rectángulo 293119" width="2.471" height="2.424" fill="none"/>
    </clipPath>
    <clipPath id="clip-path-10">
      <rect id="Rectángulo_293120" data-name="Rectángulo 293120" width="7.549" height="7.051" fill="none"/>
    </clipPath>
    <clipPath id="clip-path-11">
      <rect id="Rectángulo_293121" data-name="Rectángulo 293121" width="4.489" height="28.687" fill="none"/>
    </clipPath>
    <clipPath id="clip-path-13">
      <rect id="Rectángulo_293123" data-name="Rectángulo 293123" width="28.927" height="20.523" fill="none"/>
    </clipPath>
    <clipPath id="clip-path-14">
      <rect id="Rectángulo_293124" data-name="Rectángulo 293124" width="16.794" height="21.087" fill="none"/>
    </clipPath>
    <clipPath id="clip-path-15">
      <rect id="Rectángulo_293128" data-name="Rectángulo 293128" width="34.63" height="1.418" fill="none"/>
    </clipPath>
    <clipPath id="clip-path-17">
      <rect id="Rectángulo_293135" data-name="Rectángulo 293135" width="34.63" height="1.417" fill="none"/>
    </clipPath>
  </defs>
  <g id="Grupo_886604" data-name="Grupo 886604" transform="translate(1871.588 8087.044)">
    <g id="Grupo_871461" data-name="Grupo 871461" transform="translate(-2300.058 -10237.275)">
      <g id="Grupo_870715" data-name="Grupo 870715" transform="translate(428.469 2150.231)">
        <g id="Grupo_870714" data-name="Grupo 870714" clip-path="url(#clip-path)">
          <path id="Trazado_215321" data-name="Trazado 215321" d="M19.194,125.641C50.705,99.911-3.863,58.389,8.219,17.32s51.953,1.154,73.407,21.387,46.595-15.966,63.261-16.938,7.287,14.849,14.8,35.343,62.926,3.474,85.14,23.269-13.176,61.918-16.155,87.037,35.281,53.541,10.768,90.822L117.665,257.5c-12.253-3.857-20.248-6.914-20.248-6.914C-16.59,200.163-12.317,151.371,19.194,125.641" transform="translate(0 0)" fill="#fff"/>
        </g>
      </g>
      <path id="Trazado_266092" data-name="Trazado 266092" d="M250.215,583.558c0,3.871-49.95,7.01-111.568,7.01S27.08,587.429,27.08,583.558s49.979-4.323,111.6-4.323,111.539.452,111.539,4.323" transform="translate(428.299 1828.516)" fill="#003b73" opacity="0.496"/>
    </g>
    <g id="Grupo_875927" data-name="Grupo 875927" transform="translate(-1825.738 -8080.49)">
      <g id="Grupo_875926" data-name="Grupo 875926" clip-path="url(#clip-path-2)">
        <rect id="Rectángulo_293108" data-name="Rectángulo 293108" width="72.106" height="120.144" transform="translate(95.854 138.096)" fill="#455a64"/>
        <g id="Grupo_875880" data-name="Grupo 875880">
          <g id="Grupo_875879" data-name="Grupo 875879" clip-path="url(#clip-path-2)">
            <g id="Grupo_875878" data-name="Grupo 875878" transform="translate(95.854 138.095)" opacity="0.3">
              <g id="Grupo_875877" data-name="Grupo 875877">
                <g id="Grupo_875876" data-name="Grupo 875876" clip-path="url(#clip-path-4)">
                  <rect id="Rectángulo_293109" data-name="Rectángulo 293109" width="72.105" height="120.144" transform="translate(0)"/>
                </g>
              </g>
            </g>
          </g>
        </g>
        <rect id="Rectángulo_293112" data-name="Rectángulo 293112" width="72.106" height="120.144" transform="translate(110.819 138.096)" fill="#455a64"/>
        <g id="Grupo_875885" data-name="Grupo 875885">
          <g id="Grupo_875884" data-name="Grupo 875884" clip-path="url(#clip-path-2)">
            <path id="Trazado_269206" data-name="Trazado 269206" d="M174.866,328.87c.053.068-3.168,2.661-7.193,5.793s-7.332,5.615-7.386,5.547,3.168-2.661,7.194-5.793,7.332-5.614,7.384-5.546" transform="translate(-64.269 -131.865)" fill="#455a64"/>
            <path id="Trazado_269207" data-name="Trazado 269207" d="M174.866,317.564c.053.068-3.168,2.661-7.193,5.793s-7.332,5.614-7.386,5.547,3.168-2.661,7.194-5.793,7.332-5.614,7.384-5.546" transform="translate(-64.269 -127.331)" fill="#455a64"/>
            <path id="Trazado_269208" data-name="Trazado 269208" d="M174.866,306.257c.053.068-3.168,2.662-7.193,5.793s-7.332,5.615-7.386,5.546,3.168-2.661,7.194-5.793,7.332-5.614,7.384-5.546" transform="translate(-64.269 -122.797)" fill="#455a64"/>
            <path id="Trazado_269209" data-name="Trazado 269209" d="M174.866,294.951c.053.068-3.168,2.661-7.193,5.793s-7.332,5.615-7.386,5.546,3.168-2.661,7.194-5.793,7.332-5.614,7.384-5.546" transform="translate(-64.269 -118.264)" fill="#455a64"/>
            <path id="Trazado_269210" data-name="Trazado 269210" d="M174.866,283.644c.053.068-3.168,2.662-7.193,5.793s-7.332,5.615-7.386,5.546,3.168-2.661,7.194-5.793,7.332-5.614,7.384-5.546" transform="translate(-64.269 -113.731)" fill="#455a64"/>
            <path id="Trazado_269211" data-name="Trazado 269211" d="M174.866,272.337c.053.068-3.168,2.662-7.193,5.793s-7.332,5.615-7.386,5.546,3.168-2.661,7.194-5.793,7.332-5.614,7.384-5.547" transform="translate(-64.269 -109.197)" fill="#455a64"/>
            <path id="Trazado_269212" data-name="Trazado 269212" d="M174.866,261.031c.053.068-3.168,2.661-7.193,5.793s-7.332,5.615-7.386,5.547,3.168-2.661,7.194-5.793,7.332-5.614,7.384-5.546" transform="translate(-64.269 -104.664)" fill="#455a64"/>
            <path id="Trazado_269213" data-name="Trazado 269213" d="M174.866,249.724c.053.068-3.168,2.662-7.193,5.793s-7.332,5.615-7.386,5.546,3.168-2.661,7.194-5.793,7.332-5.614,7.384-5.546" transform="translate(-64.269 -100.13)" fill="#455a64"/>
            <path id="Trazado_269214" data-name="Trazado 269214" d="M174.866,238.418c.053.068-3.168,2.662-7.193,5.793s-7.332,5.615-7.386,5.546,3.168-2.661,7.194-5.793,7.332-5.614,7.384-5.546" transform="translate(-64.269 -95.597)" fill="#455a64"/>
            <path id="Trazado_269215" data-name="Trazado 269215" d="M171.908,230.952c.053.068-2.506,2.146-5.714,4.642s-5.853,4.464-5.906,4.4,2.505-2.146,5.714-4.643,5.853-4.463,5.905-4.4" transform="translate(-64.27 -92.603)" fill="#455a64"/>
            <path id="Trazado_269216" data-name="Trazado 269216" d="M163.36,230.739a12.249,12.249,0,0,1-3.074,2.391,12.214,12.214,0,0,1,3.074-2.391" transform="translate(-64.268 -92.515)" fill="#455a64"/>
            <path id="Trazado_269217" data-name="Trazado 269217" d="M160.225,354.554c-.053-.068,3.168-2.661,7.193-5.793s7.332-5.615,7.385-5.547-3.167,2.661-7.193,5.793-7.332,5.614-7.384,5.546" transform="translate(-64.244 -137.616)" fill="#455a64"/>
            <path id="Trazado_269218" data-name="Trazado 269218" d="M160.971,368.857c-.053-.068,3.168-2.662,7.193-5.793s7.332-5.615,7.386-5.546-3.167,2.661-7.194,5.793-7.332,5.614-7.384,5.546" transform="translate(-64.543 -143.351)" fill="#455a64"/>
            <path id="Trazado_269219" data-name="Trazado 269219" d="M160.288,381.991c-.053-.068,3.168-2.662,7.193-5.793s7.332-5.615,7.385-5.546-3.168,2.661-7.194,5.793-7.332,5.614-7.384,5.546" transform="translate(-64.269 -148.618)" fill="#455a64"/>
            <path id="Trazado_269220" data-name="Trazado 269220" d="M160.288,393.3c-.053-.068,3.168-2.662,7.193-5.793s7.332-5.615,7.385-5.546-3.168,2.661-7.194,5.793-7.332,5.614-7.384,5.546" transform="translate(-64.269 -153.151)" fill="#455a64"/>
            <path id="Trazado_269221" data-name="Trazado 269221" d="M160.288,404.6c-.053-.068,3.168-2.661,7.193-5.793s7.332-5.615,7.385-5.547-3.168,2.661-7.194,5.793-7.332,5.614-7.384,5.546" transform="translate(-64.269 -157.685)" fill="#455a64"/>
            <path id="Trazado_269222" data-name="Trazado 269222" d="M160.288,415.91c-.053-.068,3.168-2.661,7.193-5.793s7.332-5.615,7.385-5.546-3.168,2.661-7.194,5.793-7.332,5.614-7.384,5.546" transform="translate(-64.269 -162.218)" fill="#455a64"/>
            <path id="Trazado_269223" data-name="Trazado 269223" d="M165.226,424.916c-.053-.068,2.506-2.146,5.714-4.642s5.853-4.464,5.906-4.4-2.505,2.146-5.714,4.643-5.853,4.463-5.905,4.4" transform="translate(-66.25 -166.751)" fill="#455a64"/>
            <path id="Trazado_269224" data-name="Trazado 269224" d="M179.49,429.572a12.247,12.247,0,0,1,3.074-2.391,12.243,12.243,0,0,1-3.074,2.391" transform="translate(-71.968 -171.282)" fill="#455a64"/>
            <rect id="Rectángulo_293113" data-name="Rectángulo 293113" width="68.103" height="57.847" transform="translate(0.004 200.444)" fill="#455a64"/>
            <g id="Grupo_875883" data-name="Grupo 875883" transform="translate(0.004 200.444)" opacity="0.3">
              <g id="Grupo_875882" data-name="Grupo 875882">
                <g id="Grupo_875881" data-name="Grupo 875881" clip-path="url(#clip-path-6)">
                  <rect id="Rectángulo_293114" data-name="Rectángulo 293114" width="68.103" height="57.847" transform="translate(0 0)"/>
                </g>
              </g>
            </g>
            <rect id="Rectángulo_293116" data-name="Rectángulo 293116" width="68.102" height="57.847" transform="translate(12.26 200.444)" fill="#455a64"/>
            <path id="Trazado_269225" data-name="Trazado 269225" d="M12.032,415.561c.053.068-2.6,2.218-5.917,4.8s-6.056,4.622-6.11,4.554,2.6-2.217,5.918-4.8,6.056-4.622,6.108-4.554" transform="translate(-0.002 -166.624)" fill="#455a64"/>
            <path id="Trazado_269226" data-name="Trazado 269226" d="M12.032,406.233c.053.068-2.6,2.218-5.917,4.8s-6.056,4.622-6.11,4.554,2.6-2.217,5.918-4.8,6.056-4.622,6.108-4.554" transform="translate(-0.002 -162.884)" fill="#455a64"/>
            <path id="Trazado_269227" data-name="Trazado 269227" d="M12.032,396.906c.053.068-2.6,2.217-5.917,4.8S.059,406.328.005,406.26s2.6-2.216,5.918-4.8,6.056-4.622,6.108-4.554" transform="translate(-0.002 -159.144)" fill="#455a64"/>
            <path id="Trazado_269228" data-name="Trazado 269228" d="M12.032,387.579c.053.068-2.6,2.218-5.917,4.8S.059,397,.005,396.933s2.6-2.217,5.918-4.8,6.056-4.622,6.108-4.554" transform="translate(-0.002 -155.404)" fill="#455a64"/>
            <path id="Trazado_269229" data-name="Trazado 269229" d="M12.032,378.251c.053.068-2.6,2.217-5.917,4.8S.059,387.673.005,387.6s2.6-2.216,5.918-4.8,6.056-4.622,6.108-4.554" transform="translate(-0.002 -151.664)" fill="#455a64"/>
            <path id="Trazado_269230" data-name="Trazado 269230" d="M12.032,368.924c.053.068-2.6,2.218-5.917,4.8s-6.056,4.622-6.11,4.554,2.6-2.217,5.918-4.8,6.056-4.622,6.108-4.554" transform="translate(-0.002 -147.925)" fill="#455a64"/>
            <path id="Trazado_269231" data-name="Trazado 269231" d="M12.032,359.6c.053.068-2.6,2.218-5.917,4.8S.059,369.018.005,368.95s2.6-2.217,5.918-4.8,6.056-4.622,6.108-4.554" transform="translate(-0.002 -144.184)" fill="#455a64"/>
            <path id="Trazado_269232" data-name="Trazado 269232" d="M12.032,350.269c.053.068-2.6,2.217-5.917,4.8s-6.056,4.622-6.11,4.554,2.6-2.216,5.918-4.8,6.056-4.622,6.108-4.554" transform="translate(-0.002 -140.445)" fill="#455a64"/>
            <path id="Trazado_269233" data-name="Trazado 269233" d="M12.032,340.942c.053.068-2.6,2.218-5.917,4.8S.059,350.364.005,350.3s2.6-2.217,5.918-4.8,6.056-4.622,6.108-4.554" transform="translate(-0.002 -136.705)" fill="#455a64"/>
            <path id="Trazado_269234" data-name="Trazado 269234" d="M9.591,334.783a59.411,59.411,0,0,1-4.7,3.851,59.285,59.285,0,0,1-4.889,3.6,59.107,59.107,0,0,1,4.7-3.851,59.352,59.352,0,0,1,4.888-3.605" transform="translate(-0.002 -134.235)" fill="#455a64"/>
            <path id="Trazado_269235" data-name="Trazado 269235" d="M2.54,334.606c.052.068-.473.565-1.172,1.109A4.284,4.284,0,0,1,0,336.578c-.053-.068.471-.565,1.172-1.109a4.265,4.265,0,0,1,1.364-.863" transform="translate(0 -134.162)" fill="#455a64"/>
          </g>
        </g>
        <g id="Grupo_875899" data-name="Grupo 875899">
          <g id="Grupo_875898" data-name="Grupo 875898" clip-path="url(#clip-path-2)">
            <g id="Grupo_875888" data-name="Grupo 875888" transform="translate(112.601 132.846)" opacity="0.3">
              <g id="Grupo_875887" data-name="Grupo 875887">
                <g id="Grupo_875886" data-name="Grupo 875886" clip-path="url(#clip-path-8)">
                  <path id="Trazado_269236" data-name="Trazado 269236" d="M246.621,221.925a3.583,3.583,0,0,0-1.756-.1c-18.309,2.03-38.585,3.413-56.893,5.443v.21a111.286,111.286,0,0,0,36.2,4.218c1.143-.056,2.45-.067,3.226.774.848.918.622,2.36.342,3.579l-7.719,33.6c-.4,1.761-.686,3.924.694,5.089,1.9,1.607,4.71-.3,6.314-2.209,10.9-12.933,15.846-29.718,20.516-45.974.479-1.665.674-3.972-.928-4.629" transform="translate(-187.971 -221.766)"/>
                </g>
              </g>
            </g>
            <path id="Trazado_269237" data-name="Trazado 269237" d="M317.434,211.378a9.6,9.6,0,0,0-6.9-2.276l-4.218,13.409c3.092.136,6.176,1.731,9.162.914a6.535,6.535,0,0,0,4.548-5.371,7.766,7.766,0,0,0-2.593-6.676" transform="translate(-122.822 -83.835)" fill="#efefef"/>
            <path id="Trazado_269238" data-name="Trazado 269238" d="M311.121,208.463c.008-.108.458-.192,1.278-.184a10.383,10.383,0,0,1,3.454.651,9.393,9.393,0,0,1,4.2,3.265,8.708,8.708,0,0,1,1.4,2.908,7.672,7.672,0,0,1,.1,3.518,7.105,7.105,0,0,1-1.534,3.2,6.691,6.691,0,0,1-2.722,1.888,9.73,9.73,0,0,1-5.308.343,16.518,16.518,0,0,1-3.308-1.027c-.744-.321-1.133-.557-1.1-.663s.488-.076,1.279.056,1.918.371,3.29.5a9.46,9.46,0,0,0,4.585-.593,5.414,5.414,0,0,0,2.064-1.522,5.77,5.77,0,0,0,1.162-2.5,6.914,6.914,0,0,0-1.142-5.242,9.019,9.019,0,0,0-3.438-3.07,15.607,15.607,0,0,0-3.078-1.077c-.767-.2-1.2-.328-1.193-.443" transform="translate(-123.333 -83.512)" fill="#e0e0e0"/>
            <path id="Trazado_269239" data-name="Trazado 269239" d="M244.008,290.9l-8.5,23.823,29.584,10.73c.852-2.889-12.4-14.114-12.4-14.114l6.074-15.04Z" transform="translate(-94.429 -116.639)" fill="#efefef"/>
            <g id="Grupo_875891" data-name="Grupo 875891" transform="translate(148.239 190.086)" opacity="0.6">
              <g id="Grupo_875890" data-name="Grupo 875890">
                <g id="Grupo_875889" data-name="Grupo 875889" clip-path="url(#clip-path-9)">
                  <path id="Trazado_269240" data-name="Trazado 269240" d="M248.806,317.33a1.285,1.285,0,0,0-1.335,1.076,1.236,1.236,0,0,0,1.054,1.333,1.356,1.356,0,0,0,1.408-1.147c.007-.631-.626-1.355-1.251-1.265" transform="translate(-247.462 -317.319)" fill="#fff"/>
                </g>
              </g>
            </g>
            <path id="Trazado_269241" data-name="Trazado 269241" d="M235.505,329.055l.858-2.4,28.1,11.21s1.109,1.051.624,1.925Z" transform="translate(-94.429 -130.975)" fill="#f5f5f5"/>
            <path id="Trazado_269242" data-name="Trazado 269242" d="M262.889,324.764c-.057.143-.8-.054-1.683.153-.885.183-1.478.676-1.59.57-.123-.076.406-.861,1.475-1.093s1.877.249,1.8.37" transform="translate(-104.09 -130.044)" fill="#263238"/>
            <path id="Trazado_269243" data-name="Trazado 269243" d="M267.676,328.955c-.017.152-.733.171-1.444.6-.725.412-1.089,1.028-1.23.969-.144-.026.063-.909.959-1.431s1.762-.281,1.716-.143" transform="translate(-106.239 -131.827)" fill="#263238"/>
            <path id="Trazado_269244" data-name="Trazado 269244" d="M270.145,334.927c-.143-.017-.082-.812.576-1.468s1.448-.726,1.465-.583c.038.148-.554.413-1.086.961s-.807,1.129-.955,1.091" transform="translate(-108.293 -133.446)" fill="#263238"/>
            <path id="Trazado_269245" data-name="Trazado 269245" d="M264.669,318.268c-.108.11-.7-.33-1.535-.571-.832-.258-1.567-.214-1.6-.365-.046-.135.769-.445,1.75-.147s1.495,1,1.383,1.083" transform="translate(-104.866 -127.13)" fill="#263238"/>
            <path id="Trazado_269246" data-name="Trazado 269246" d="M265.095,310.251a2.954,2.954,0,0,1-1.479-.545,7.1,7.1,0,0,1-1.377-1.038,7.409,7.409,0,0,1-.687-.76,1.925,1.925,0,0,1-.321-.511.67.67,0,0,1,.213-.793.843.843,0,0,1,.752-.1,2.038,2.038,0,0,1,.528.279,5.672,5.672,0,0,1,.807.65,5.541,5.541,0,0,1,1.04,1.392,2.631,2.631,0,0,1,.435,1.519c-.083.024-.253-.549-.761-1.327a6.29,6.29,0,0,0-1.051-1.224,5.877,5.877,0,0,0-.755-.571c-.283-.2-.549-.295-.681-.185-.049.043-.06.062-.028.178a1.594,1.594,0,0,0,.237.374,8.414,8.414,0,0,0,.621.731,8.714,8.714,0,0,0,1.233,1.069,10.931,10.931,0,0,1,1.274.863" transform="translate(-104.723 -122.879)" fill="#263238"/>
            <path id="Trazado_269247" data-name="Trazado 269247" d="M267.233,310.128a2.511,2.511,0,0,1,.128-1.573,5.106,5.106,0,0,1,1.494-2.311,1.3,1.3,0,0,1,1.217-.406.737.737,0,0,1,.469.637,2.15,2.15,0,0,1-.045.6,3.517,3.517,0,0,1-.361,1,3.621,3.621,0,0,1-1.188,1.3c-.856.557-1.522.511-1.516.458a13.016,13.016,0,0,0,1.292-.763,3.627,3.627,0,0,0,.973-1.223,3.242,3.242,0,0,0,.283-.866c.068-.331.042-.628-.087-.639a.9.9,0,0,0-.694.3,5.212,5.212,0,0,0-.658.67,5.658,5.658,0,0,0-.823,1.375c-.356.853-.4,1.45-.484,1.444" transform="translate(-107.124 -122.616)" fill="#263238"/>
            <path id="Trazado_269248" data-name="Trazado 269248" d="M181.146,177.466c-4.844.112-9.44.8-12.777,4.311-4.426,4.66-9.9,11.3-10.209,15.9-.464,6.881,3.687,8.927,6.718,10.6a8.413,8.413,0,0,0,4.4,1.017l56-.425,1.758-9.485-36.216-8.926,1.5-13.63Z" transform="translate(-63.402 -70.905)" fill="#263238"/>
            <path id="Trazado_269249" data-name="Trazado 269249" d="M214.2,176.294l17.615-.811s30.429,1.691,36.92,7.641,5.679,12.711,3.516,19.2-21.23,48-21.23,48a7.174,7.174,0,0,1,.676,5.274,6.959,6.959,0,0,1-4.973,4.735l-16.934-6.223s-2.3-.812-.676-2.975a7.482,7.482,0,0,1,2.7-2.569v-4.327s5.95-10.818,6.491-12.305,6.244-23.5,6.244-23.5l3.788-6.51s-9.162-4.308-17.1-7.43L212.7,189.925Z" transform="translate(-85.284 -70.362)" fill="#263238"/>
            <path id="Trazado_269250" data-name="Trazado 269250" d="M255.439,302.577c-.034.041-.568-.382-1.486-.974a20.073,20.073,0,0,0-7.907-3.006c-1.079-.167-1.759-.206-1.758-.259a6.628,6.628,0,0,1,1.788.031,16.885,16.885,0,0,1,8.007,3.044,6.592,6.592,0,0,1,1.356,1.165" transform="translate(-97.951 -119.607)" fill="#455a64"/>
            <path id="Trazado_269251" data-name="Trazado 269251" d="M273.175,295.241a5.889,5.889,0,0,1-.984-1.036c-.571-.67-1.332-1.621-2.128-2.7s-1.478-2.092-1.948-2.836a5.9,5.9,0,0,1-.7-1.247,6.612,6.612,0,0,1,.887,1.118l2.02,2.773,2.046,2.753a6.622,6.622,0,0,1,.8,1.179" transform="translate(-107.224 -115.244)" fill="#455a64"/>
            <path id="Trazado_269252" data-name="Trazado 269252" d="M281,209.695c.01.053-.622.188-1.6.513a16.873,16.873,0,0,0-6.784,4.235c-.724.74-1.123,1.248-1.166,1.216a5.811,5.811,0,0,1,1-1.372,14.385,14.385,0,0,1,6.884-4.3,5.82,5.82,0,0,1,1.671-.293" transform="translate(-108.838 -84.076)" fill="#455a64"/>
            <path id="Trazado_269253" data-name="Trazado 269253" d="M258.473,237.008a1.587,1.587,0,0,1,.069-.366c.068-.27.154-.612.26-1.032l1.014-3.779c.9-3.22,2.118-7.6,3.466-12.434.7-2.424,1.306-4.738,1.983-6.832a14.244,14.244,0,0,1,3.188-4.864,18.2,18.2,0,0,1,3.028-2.5c.392-.249.7-.437.914-.551a1.627,1.627,0,0,1,.334-.165c.015.025-.424.288-1.176.819a20.129,20.129,0,0,0-2.932,2.55,14.329,14.329,0,0,0-3.074,4.809c-.65,2.065-1.253,4.4-1.953,6.821-1.383,4.825-2.635,9.192-3.556,12.4l-1.114,3.75c-.13.413-.235.749-.319,1.015a1.6,1.6,0,0,1-.132.348" transform="translate(-103.637 -81.993)" fill="#455a64"/>
            <path id="Trazado_269254" data-name="Trazado 269254" d="M231.562,195.968c-.089.008-.459-3.286-.827-7.356s-.593-7.377-.5-7.386.459,3.285.827,7.356.592,7.377.5,7.385" transform="translate(-92.307 -72.665)" fill="#455a64"/>
            <path id="Trazado_269255" data-name="Trazado 269255" d="M178.086,216.26c-.049.024-.322-.509-.873-1.29a12.669,12.669,0,0,0-5.785-4.52c-.891-.346-1.474-.481-1.462-.535a4.773,4.773,0,0,1,1.54.318,11.1,11.1,0,0,1,5.9,4.609,4.766,4.766,0,0,1,.681,1.417" transform="translate(-68.15 -84.165)" fill="#455a64"/>
            <path id="Trazado_269256" data-name="Trazado 269256" d="M191.383,198.5c-.032.05-.778-.429-2.071-1.017a19.519,19.519,0,0,0-10.826-1.553c-1.407.2-2.258.45-2.273.394a2.272,2.272,0,0,1,.583-.222,12.752,12.752,0,0,1,1.654-.4,17.724,17.724,0,0,1,10.961,1.572,12.7,12.7,0,0,1,1.475.848,2.335,2.335,0,0,1,.5.377" transform="translate(-70.655 -78.362)" fill="#455a64"/>
            <path id="Trazado_269257" data-name="Trazado 269257" d="M243.29,208.8a2.288,2.288,0,0,1-.439-.072l-1.243-.27-4.564-1.026c-3.854-.864-9.186-2.021-15.1-3.192s-11.284-2.131-15.176-2.8l-4.611-.791-1.252-.225a2.221,2.221,0,0,1-.433-.1,2.221,2.221,0,0,1,.443.035l1.262.164c1.1.148,2.676.382,4.628.689,3.9.612,9.285,1.539,15.2,2.709s11.242,2.366,15.085,3.287c1.921.46,3.473.846,4.542,1.126l1.229.329a2.293,2.293,0,0,1,.424.136" transform="translate(-80.383 -80.321)" fill="#455a64"/>
            <path id="Trazado_269258" data-name="Trazado 269258" d="M206.176,196.511a19.238,19.238,0,0,0-.775-1.789,7.862,7.862,0,0,0-1.281-1.657,20.621,20.621,0,0,0-1.961-1.7,29.541,29.541,0,0,0-4.011-2.491,13.035,13.035,0,0,1-1.713-.975,10.816,10.816,0,0,1,1.817.77,23.276,23.276,0,0,1,4.105,2.438,18.075,18.075,0,0,1,1.978,1.745,7.382,7.382,0,0,1,1.268,1.756,6.1,6.1,0,0,1,.5,1.369,1.515,1.515,0,0,1,.072.529" transform="translate(-78.763 -75.341)" fill="#455a64"/>
            <path id="Trazado_269259" data-name="Trazado 269259" d="M315.013,216.407c.072.069-.865,1.016-1.594,2.455-.745,1.432-.968,2.744-1.066,2.726a7.131,7.131,0,0,1,2.66-5.182" transform="translate(-125.232 -86.77)" fill="#263238"/>
            <path id="Trazado_269260" data-name="Trazado 269260" d="M356.16,81.2a.33.33,0,0,1-.05.084l-.165.236-.66.908-2.535,3.42-9.091,12.13-.079.105-.108-.077-7.92-5.6.209-.034-5.962,8.05-6.479,8.73-.081.108-.116-.068-9.732-5.7.168-.031-8.4,10.483-2.357,2.911-.628.759a2.085,2.085,0,0,1-.226.252,2.178,2.178,0,0,1,.194-.277l.6-.783,2.3-2.956,8.309-10.551.07-.089.1.057,9.751,5.666-.2.041,6.47-8.737,5.971-8.044.088-.119.121.086,7.9,5.628-.188.029,9.18-12.063,2.6-3.374.693-.883.182-.223c.041-.05.064-.074.067-.071" transform="translate(-121.072 -32.559)" fill="#263238"/>
            <path id="Trazado_269261" data-name="Trazado 269261" d="M386.02,89.939a2.976,2.976,0,0,1,.005-.7c.035-.515.08-1.15.131-1.9.125-1.6.318-3.818.551-6.261l0-.04.207.161c-2.3.824-4.392,1.554-5.909,2.067l-1.8.592a2.978,2.978,0,0,1-.675.177,3,3,0,0,1,.634-.291l1.767-.685c1.5-.566,3.575-1.328,5.878-2.153l.23-.083-.023.244,0,.04c-.234,2.443-.462,4.654-.642,6.253-.091.747-.168,1.379-.23,1.892a3.117,3.117,0,0,1-.126.689" transform="translate(-151.779 -32.406)" fill="#263238"/>
            <path id="Trazado_269262" data-name="Trazado 269262" d="M232.55,105.937c-.274-1.832-5.753-7.893-5.753-7.893s-4.758-11.658-5.579-14.9a49.384,49.384,0,0,0-2.245-6.013c-1.912-3.243-2.864-3.3-6.146-5.151l-6.361-2.805-.778-1.732a7.222,7.222,0,0,0-3.283-3.46l-15.969-8.2L181.5,64.494s-9.472,4.475-10.028,5.183c-1.947,2.479-.615,42.311-.615,42.311s-.954,15.52-2.013,19.877-1.678,7.573-1.678,7.573L171.9,134c2.775-3.483,8.871-5.084,13.248-5.023l37.408.166-2.281-11.158,31.04,6.562s5.2-10.148,5.615-10.353-24.378-8.254-24.378-8.254" transform="translate(-67.026 -22.366)" fill="#00cb9e"/>
            <path id="Trazado_269263" data-name="Trazado 269263" d="M198.029,75.578c-.262-.268,2.965,7.5,5.1,15.933,1.329,5.259,1.608,13.8,1.608,18.508l.8,13.266v11.6l17.936-1.218-2.681-19.5s-2.187-12.576-2.8-17.358c-.561-4.38-3.223-21.93-3.223-21.93s-9.233,8.343-16.743.695" transform="translate(-79.396 -30.025)" fill="#fff"/>
            <path id="Trazado_269264" data-name="Trazado 269264" d="M264.468,146.8a1.13,1.13,0,0,1,0-.451,6.7,6.7,0,0,1,.236-1.206,8.1,8.1,0,0,1,5.526-5.537,6.712,6.712,0,0,1,1.2-.238,1.13,1.13,0,0,1,.452,0c.008.056-.628.123-1.587.457a8.611,8.611,0,0,0-5.377,5.388c-.331.958-.4,1.595-.453,1.587" transform="translate(-106.035 -55.874)" fill="#263238"/>
            <path id="Trazado_269265" data-name="Trazado 269265" d="M266.021,139.383a7.18,7.18,0,0,1,5.569-.458c-.019.1-1.266-.145-2.8-.011s-2.73.561-2.765.469" transform="translate(-106.665 -55.558)" fill="#263238"/>
            <path id="Trazado_269266" data-name="Trazado 269266" d="M163.333,78.375a17.515,17.515,0,0,0-10.085,12.174c-1.681,6.843-8.872,34.81-7.393,38.995s30.232,8.288,30.232,8.288l3.407-14.376-14.6-3.994s.184-13.315.37-18.831-1.929-22.256-1.929-22.256" transform="translate(-58.403 -31.426)" fill="#00cb9e"/>
            <path id="Trazado_269267" data-name="Trazado 269267" d="M199.537,157l5.118,1.34-3.035,11.083-5.034-.223Z" transform="translate(-78.824 -62.952)" fill="#fff"/>
            <path id="Trazado_269268" data-name="Trazado 269268" d="M238.123,168.159l-4.611-4.9-9.486-2.4s-8.693,2.6-8.9,2.6-7.565-2.01-7.565-2.01l-2.571,9.431,13.25.908,15.129-.606s.79-.735.322-1.237,2.529.849,2.882.865,1.038.288,1.5-.278a2,2,0,0,0,.046-2.372" transform="translate(-82.193 -64.499)" fill="#c78976"/>
            <path id="Trazado_269269" data-name="Trazado 269269" d="M245.991,174.233a8.27,8.27,0,0,1-1.507-.429c-.92-.292-2.192-.682-3.615-1.047s-2.727-.634-3.674-.824a8.154,8.154,0,0,1-1.526-.356,6.432,6.432,0,0,1,1.566.119,33.588,33.588,0,0,1,3.718.731,32.631,32.631,0,0,1,3.61,1.149,6.38,6.38,0,0,1,1.427.657" transform="translate(-94.495 -68.789)" fill="#8b5d54"/>
            <path id="Trazado_269270" data-name="Trazado 269270" d="M250.572,170.551a19.893,19.893,0,0,1-2.1-.679c-1.292-.436-3.1-.969-5.1-1.529a26.733,26.733,0,0,0-5.143-1.271,12.6,12.6,0,0,0-2.184.086,1.723,1.723,0,0,1,.568-.191,6.216,6.216,0,0,1,1.631-.135,22.228,22.228,0,0,1,5.222,1.183c2.007.56,3.813,1.133,5.091,1.629.64.245,1.15.462,1.5.622a2.047,2.047,0,0,1,.526.283" transform="translate(-94.643 -66.892)" fill="#8b5d54"/>
            <path id="Trazado_269271" data-name="Trazado 269271" d="M145.792,155.611c.024,0-.014.239.07.678a3.19,3.19,0,0,0,1,1.632c1.25,1.163,3.635,2.133,6.662,2.677l.01,0,.012,0c1.383.455,2.958.815,4.643,1.2s3.5.764,5.412,1.153c3.825.782,8.059,1.605,12.544,2.445l-.2.126c.325-1.333.668-2.743,1.017-4.172l2.328-9.524.115.2-12.977-3.7-.008,0-.007,0a12.82,12.82,0,0,0-5.66-.991,12.506,12.506,0,0,0-4.272,1,14.421,14.421,0,0,0-2.454,1.359l-.594.433a1.147,1.147,0,0,1-.211.14,1.238,1.238,0,0,1,.186-.171c.128-.105.314-.27.573-.465a13.263,13.263,0,0,1,2.44-1.433,12.441,12.441,0,0,1,4.319-1.079,12.947,12.947,0,0,1,5.775.958l-.015-.005,12.995,3.644.153.043-.038.155-2.318,9.526L176.28,165.6l-.038.156-.158-.029c-4.487-.845-8.718-1.68-12.543-2.481-1.913-.4-3.722-.8-5.41-1.185s-3.255-.766-4.661-1.244l.021.006c-3.059-.583-5.452-1.59-6.713-2.814a3.175,3.175,0,0,1-.979-1.711,1.992,1.992,0,0,1-.006-.69" transform="translate(-58.447 -58.973)" fill="#263238"/>
            <path id="Trazado_269272" data-name="Trazado 269272" d="M171.789,146.192c-.04.043-.528-.4-1.4-.991a13.409,13.409,0,0,0-7.776-2.265c-1.056.025-1.707.14-1.717.082a5.37,5.37,0,0,1,1.705-.323A11.9,11.9,0,0,1,170.523,145a5.363,5.363,0,0,1,1.266,1.188" transform="translate(-64.511 -57.202)" fill="#263238"/>
            <path id="Trazado_269273" data-name="Trazado 269273" d="M179.427,109.456a4.334,4.334,0,0,1,.01.877c-.013.564-.061,1.378-.138,2.383-.161,2.009-.461,4.781-.986,7.814A54.43,54.43,0,0,1,176.5,128.2c-.161.479-.325.906-.467,1.282l-.418.942a4.29,4.29,0,0,1-.447.757,4.365,4.365,0,0,1,.327-.811c.106-.282.226-.6.361-.955.123-.379.27-.808.415-1.288a67.733,67.733,0,0,0,1.708-7.654c.523-3.022.86-5.78,1.081-7.778.1-.949.181-1.743.246-2.37a4.334,4.334,0,0,1,.122-.868" transform="translate(-70.235 -43.888)" fill="#263238"/>
            <path id="Trazado_269274" data-name="Trazado 269274" d="M198.6,87.006c-.021.006-.065-.17-.216-.462a2.781,2.781,0,0,0-.938-1.026,2.35,2.35,0,0,0-2.031-.3,2.618,2.618,0,0,0-1.713,1.939l-.087.444-.191-.41a43.566,43.566,0,0,1-1.908-4.821,25.346,25.346,0,0,1-1.411-8.518c0-.556.078-1.056.11-1.495.075-.435.131-.811.2-1.114a5.36,5.36,0,0,1,.277-.923,21.72,21.72,0,0,0-.356,3.535,27.049,27.049,0,0,0,1.49,8.413,48.485,48.485,0,0,0,1.867,4.8l-.279.033a2.861,2.861,0,0,1,1.929-2.116,2.519,2.519,0,0,1,2.2.385,2.69,2.69,0,0,1,.923,1.131,1.884,1.884,0,0,1,.118.369c.017.086.022.131.014.133" transform="translate(-76.22 -28.198)" fill="#263238"/>
            <path id="Trazado_269275" data-name="Trazado 269275" d="M230,88.844a4.67,4.67,0,0,1-.137-.743,8.169,8.169,0,0,1-.125-2.093,4.461,4.461,0,0,1,1.424-2.766,2.622,2.622,0,0,1,1.717-.652,2.287,2.287,0,0,1,1.809.855l-.261.158-.561-1.492c-1.1-2.942-2.083-5.611-2.779-7.548-.326-.927-.6-1.7-.809-2.3a5.028,5.028,0,0,1-.258-.859,4.967,4.967,0,0,1,.37.815l.9,2.264c.748,1.917,1.762,4.574,2.864,7.515l.558,1.493.36.964-.621-.806a2.011,2.011,0,0,0-1.574-.749,2.364,2.364,0,0,0-1.548.567,4.3,4.3,0,0,0-1.391,2.57,9.352,9.352,0,0,0,.034,2.05,3.369,3.369,0,0,1,.027.757" transform="translate(-92.105 -28.63)" fill="#263238"/>
            <path id="Trazado_269276" data-name="Trazado 269276" d="M247.906,103.1c.084-.011,1.419,8.733,2.982,19.527s2.762,19.559,2.677,19.571-1.419-8.73-2.982-19.529-2.761-19.558-2.677-19.569" transform="translate(-99.4 -41.341)" fill="#263238"/>
            <g id="Grupo_875894" data-name="Grupo 875894" transform="translate(115.488 54.278)" opacity="0.3">
              <g id="Grupo_875893" data-name="Grupo 875893">
                <g id="Grupo_875892" data-name="Grupo 875892" clip-path="url(#clip-path-10)">
                  <path id="Trazado_269277" data-name="Trazado 269277" d="M192.789,90.609a19.6,19.6,0,0,0,1.555,7.051,5,5,0,0,1,2.468-1.975,3.926,3.926,0,0,1,3.525,1.457,6.389,6.389,0,0,0-1.126-2.694,3.157,3.157,0,0,0-2.475-1.294,2.191,2.191,0,0,0-2.083,1.7l-1.79-4.2" transform="translate(-192.789 -90.609)"/>
                </g>
              </g>
            </g>
            <path id="Trazado_269278" data-name="Trazado 269278" d="M178.128,90.879c-.06,0-.04-.654-.229-1.674a10.19,10.19,0,0,0-1.519-3.713,10.936,10.936,0,0,0-1.427-1.7,9.659,9.659,0,0,0-1.431-1.114c-.877-.554-1.5-.766-1.474-.824a1.275,1.275,0,0,1,.448.11,3.314,3.314,0,0,1,.5.2,5.412,5.412,0,0,1,.641.321,8.482,8.482,0,0,1,1.516,1.091,10.041,10.041,0,0,1,1.494,1.736,9.271,9.271,0,0,1,1.475,3.857,6.522,6.522,0,0,1,.061,1.254,1.27,1.27,0,0,1-.059.457" transform="translate(-68.985 -32.82)" fill="#263238"/>
            <g id="Grupo_875897" data-name="Grupo 875897" transform="translate(149.044 65.65)" opacity="0.3">
              <g id="Grupo_875896" data-name="Grupo 875896">
                <g id="Grupo_875895" data-name="Grupo 875895" clip-path="url(#clip-path-11)">
                  <path id="Trazado_269279" data-name="Trazado 269279" d="M248.806,109.592l4.008,28.235.2.452a60.582,60.582,0,0,0-4.208-28.687" transform="translate(-248.806 -109.592)"/>
                </g>
              </g>
            </g>
            <path id="Trazado_269280" data-name="Trazado 269280" d="M255.668,136.191l-13.034,22.795-32.113.7-.08,1.454,31.094-.231.986-.034,32.835.065,6.635-11.443,8.476-12.148a1.2,1.2,0,0,0-.988-1.885l-32.776.125a1.2,1.2,0,0,0-1.036.6" transform="translate(-84.38 -54.315)" fill="#e0e0e0"/>
            <path id="Trazado_269281" data-name="Trazado 269281" d="M322.76,158.888s1.687,1.546,1.421,2.86-.177,2.291-1.421,2.38a1.891,1.891,0,0,1-1.687,1.953,2.082,2.082,0,0,1-2.017,2.415s-.736,2.2-2.246,1.67a13.318,13.318,0,0,1-2.486-1.154l-.444-.8s-2.224-.836-1.676-2.092c.332-.762,1.483-.96,1.483-.96a2.16,2.16,0,0,1,.142-1.953c.534-.717,2.27-.125,2.27-.125a2.448,2.448,0,0,1,.55-1.7c.591-.7,3.356,1.2,3.356,1.2l1.508-1.8Z" transform="translate(-125.147 -63.708)" fill="#c78976"/>
            <path id="Trazado_269282" data-name="Trazado 269282" d="M320.1,172.69a30.733,30.733,0,0,1-5.37-3.336,30.854,30.854,0,0,1,5.37,3.336" transform="translate(-126.197 -67.903)" fill="#8b5d54"/>
            <path id="Trazado_269283" data-name="Trazado 269283" d="M323.736,168.884a25.978,25.978,0,0,1-4.974-3,26.06,26.06,0,0,1,4.974,3" transform="translate(-127.812 -66.512)" fill="#8b5d54"/>
            <path id="Trazado_269284" data-name="Trazado 269284" d="M322.478,163.343a8.759,8.759,0,0,1,2.28,1.211,20.841,20.841,0,0,1,2.144,1.422,6.9,6.9,0,0,1-2.316-1.147,12.661,12.661,0,0,1-2.107-1.486" transform="translate(-129.302 -65.491)" fill="#8b5d54"/>
            <path id="Trazado_269285" data-name="Trazado 269285" d="M312.9,136.792a.577.577,0,0,1-.157.017l-.461.016-1.773.031-6.521.051-21.512.047h-1.566a1.293,1.293,0,0,0-1.194.564l-1.46,2.632-2.768,5-4.7,8.45-3.2,5.684-.883,1.537-.237.4a.6.6,0,0,1-.09.129.58.58,0,0,1,.062-.146l.208-.412.83-1.567,3.105-5.734L275.229,145l2.751-5.006,1.468-2.654a1.62,1.62,0,0,1,1.464-.71h1.566l21.512.047,6.521.051,1.773.031.461.016a.578.578,0,0,1,.157.017" transform="translate(-106.809 -54.781)" fill="#263238"/>
            <path id="Trazado_269286" data-name="Trazado 269286" d="M305.171,155.656a1.385,1.385,0,1,0,2.069-.244,1.48,1.48,0,0,0-2.069.244" transform="translate(-122.184 -62.186)" fill="#fff"/>
            <path id="Trazado_269287" data-name="Trazado 269287" d="M213.484,45.352l-.18-5.167s6.868-1.505,6.526-8.443c-.165-3.35-1.066-10.223-1.954-16.433A12.941,12.941,0,0,0,204.268,4.222l-.669.041c-7.187.866-10.466,7.453-9.4,14.613L195.879,46.2a8.813,8.813,0,0,0,17.6-.849" transform="translate(-77.787 -1.683)" fill="#c78976"/>
            <path id="Trazado_269288" data-name="Trazado 269288" d="M220.072,62.858a16.781,16.781,0,0,1-9.191-2.113s2.348,4.915,9.227,3.865Z" transform="translate(-84.556 -24.357)" fill="#8b5d54"/>
            <path id="Trazado_269289" data-name="Trazado 269289" d="M231.108,33.061a.992.992,0,0,1-.893,1.058.949.949,0,0,1-1.075-.83.992.992,0,0,1,.892-1.058.95.95,0,0,1,1.076.83" transform="translate(-91.875 -12.92)" fill="#263238"/>
            <path id="Trazado_269290" data-name="Trazado 269290" d="M229.1,27.94c-.114.137-.9-.372-1.964-.3-1.065.053-1.813.649-1.937.526-.061-.055.05-.3.376-.564a2.72,2.72,0,0,1,1.541-.581,2.611,2.611,0,0,1,1.573.4c.343.231.468.458.412.519" transform="translate(-90.289 -10.831)" fill="#263238"/>
            <path id="Trazado_269291" data-name="Trazado 269291" d="M213.752,33.769a.991.991,0,0,1-.893,1.057.948.948,0,0,1-1.075-.83.992.992,0,0,1,.892-1.058.949.949,0,0,1,1.076.83" transform="translate(-84.916 -13.204)" fill="#263238"/>
            <path id="Trazado_269292" data-name="Trazado 269292" d="M211.636,29.348c-.115.137-.9-.371-1.965-.3s-1.813.65-1.936.526c-.061-.054.049-.294.376-.564a2.72,2.72,0,0,1,1.54-.581,2.614,2.614,0,0,1,1.574.4c.342.231.468.457.412.519" transform="translate(-83.288 -11.396)" fill="#263238"/>
            <path id="Trazado_269293" data-name="Trazado 269293" d="M220.826,36.838a7.086,7.086,0,0,1,1.711-.418c.27-.045.525-.115.559-.3a1.386,1.386,0,0,0-.231-.8q-.444-.963-.932-2.022a35.691,35.691,0,0,1-2.14-5.307,35.735,35.735,0,0,1,2.563,5.122l.9,2.037a1.58,1.58,0,0,1,.207,1.059.683.683,0,0,1-.423.425,1.867,1.867,0,0,1-.458.093,6.942,6.942,0,0,1-1.754.11" transform="translate(-88.125 -11.224)" fill="#263238"/>
            <path id="Trazado_269294" data-name="Trazado 269294" d="M216.271,44.313c.173-.021.246,1.135,1.286,1.9s2.264.556,2.283.718c.02.072-.261.242-.781.288a2.891,2.891,0,0,1-1.9-.534,2.513,2.513,0,0,1-1-1.594c-.074-.481.037-.775.117-.773" transform="translate(-86.66 -17.768)" fill="#263238"/>
            <path id="Trazado_269295" data-name="Trazado 269295" d="M211.053,22.516c-.087.3-1.16.225-2.4.452-1.245.2-2.231.63-2.413.381-.081-.12.078-.4.468-.709a4.246,4.246,0,0,1,3.666-.635c.47.157.715.37.679.51" transform="translate(-82.687 -8.755)" fill="#263238"/>
            <path id="Trazado_269296" data-name="Trazado 269296" d="M228.312,22.787c-.173.253-.922.047-1.8.09-.885.011-1.62.262-1.807.02-.083-.119.019-.368.332-.617a2.616,2.616,0,0,1,2.911-.089c.327.229.445.473.37.6" transform="translate(-90.085 -8.738)" fill="#263238"/>
            <path id="Trazado_269297" data-name="Trazado 269297" d="M215.866,11.565s-2.1-4.229-4.252-5.113c-2.61-1.07-3.53,1.779-5.986,1.253s-4.949-1.554-7.3.465c-2.576,2.21-1.221,3.565-1.2,6.652.092,12.513-1.968,16.18-2.978,10.346-.11-.639-1.928-1.041-2.36-3.744-.561-3.5-.96-7.777-.327-10.328a9.888,9.888,0,0,1,3.7-5.42c3.247-2.746,7.92-3.088,11.115-2.964s9.541,3.4,9.587,8.854" transform="translate(-76.64 -1.078)" fill="#263238"/>
            <path id="Trazado_269298" data-name="Trazado 269298" d="M193.8,38.706a1.885,1.885,0,0,0-2.143-1.688c-1.286.2-2.679,1.025-2.429,3.692.443,4.73,5.1,3.309,5.1,3.173,0-.093-.32-3.2-.524-5.177" transform="translate(-75.862 -14.834)" fill="#c78976"/>
            <path id="Trazado_269299" data-name="Trazado 269299" d="M194.226,43.232c-.022-.013-.077.065-.21.143a.83.83,0,0,1-.615.07,2.048,2.048,0,0,1-1.114-1.741,2.735,2.735,0,0,1,.12-1.2.958.958,0,0,1,.561-.691.422.422,0,0,1,.507.181c.075.126.055.223.08.229s.094-.089.038-.28a.525.525,0,0,0-.214-.279.626.626,0,0,0-.467-.077,1.164,1.164,0,0,0-.792.813,2.811,2.811,0,0,0-.162,1.345,2.148,2.148,0,0,0,1.394,1.93.885.885,0,0,0,.742-.2c.136-.131.151-.238.134-.246" transform="translate(-76.959 -15.866)" fill="#8b5d54"/>
            <path id="Trazado_269300" data-name="Trazado 269300" d="M192.887,14.684a4.509,4.509,0,0,0,2.065.8,1.55,1.55,0,0,0,1.648-1.193c.036-.333-.068-.711.133-.979.24-.32.723-.254,1.123-.237a3.032,3.032,0,0,0,3.007-2.362,1.273,1.273,0,0,0,1.713.055,6.835,6.835,0,0,0,1.205-1.46,1.953,1.953,0,0,1,1.577-.914,4.672,4.672,0,0,0,1.045.164c.619-.093.878-.841.935-1.465s.085-1.349.591-1.717a2.488,2.488,0,0,1,1.692-.151c.578.049,1.31-.131,1.422-.7a1.128,1.128,0,0,0-.265-.846,3.077,3.077,0,0,0-3.7-.939,4.168,4.168,0,0,0-7.694-.335,4.231,4.231,0,0,0-6.655,1.955A3.141,3.141,0,0,0,189.6,5.643a3.141,3.141,0,0,0-.046,3.382,2.913,2.913,0,0,0-1.456,2.413,1.667,1.667,0,0,0,1.989,1.584,1.7,1.7,0,0,0,3.035,1.51" transform="translate(-75.42 0)" fill="#263238"/>
            <path id="Trazado_269301" data-name="Trazado 269301" d="M207.829,6.868s.005.029,0,.087,0,.144-.014.255a2.994,2.994,0,0,1-.288.934,3.4,3.4,0,0,1-.982,1.185,3.164,3.164,0,0,1-1.907.673l.074-.11a1.721,1.721,0,0,1-.014,1.314,4.935,4.935,0,0,1-.739,1.215,3.568,3.568,0,0,1-.5.577,1.661,1.661,0,0,1-.734.325,1.734,1.734,0,0,1-1.559-.452l.174-.062a3.563,3.563,0,0,1-1.357,2.552,2.6,2.6,0,0,1-1.525.606,4.689,4.689,0,0,1-1.555-.242l.123-.063A3.734,3.734,0,0,1,196,17.195a1.991,1.991,0,0,1-1.623.552,2.616,2.616,0,0,1-2.136-1.919l.11.043a2.448,2.448,0,0,1-1.614.34,2.661,2.661,0,0,1-1.167-.437,2.3,2.3,0,0,1-.566-.546,1.183,1.183,0,0,1-.135-.238,2.871,2.871,0,0,0,.745.718,2.633,2.633,0,0,0,1.136.389,2.343,2.343,0,0,0,1.521-.347l.086-.056.025.1a2.467,2.467,0,0,0,2.019,1.776,1.808,1.808,0,0,0,1.472-.518,3.567,3.567,0,0,0,.969-1.453l.032-.09.091.026a4.526,4.526,0,0,0,1.487.23,2.4,2.4,0,0,0,1.408-.563,3.371,3.371,0,0,0,1.283-2.406l.016-.226.158.164a1.542,1.542,0,0,0,1.377.4,1.475,1.475,0,0,0,.651-.282,3.457,3.457,0,0,0,.469-.541,4.79,4.79,0,0,0,.724-1.165,1.557,1.557,0,0,0,.031-1.19l-.046-.111h.12a3.052,3.052,0,0,0,1.829-.616,3.371,3.371,0,0,0,.979-1.124,3.685,3.685,0,0,0,.377-1.236" transform="translate(-75.73 -2.754)" fill="#455a64"/>
            <path id="Trazado_269302" data-name="Trazado 269302" d="M224.146,30.511a8.508,8.508,0,0,1-.31-1.108,4.674,4.674,0,0,1,.492-3.023,4.609,4.609,0,0,1,3.7-2.415,4.622,4.622,0,0,1,2.612.567,4.582,4.582,0,0,1,2.273,4.94,4.613,4.613,0,0,1-1.269,2.352,4.649,4.649,0,0,1-6.855-.356,8.628,8.628,0,0,1-.64-.957,1.837,1.837,0,0,0,.122.274,2.117,2.117,0,0,0,.177.319,3.249,3.249,0,0,0,.285.409,4.725,4.725,0,0,0,4.835,1.66,4.769,4.769,0,0,0,2.195-1.227,4.769,4.769,0,0,0,1.327-2.437,4.747,4.747,0,0,0-2.363-5.135,4.762,4.762,0,0,0-2.714-.578,4.764,4.764,0,0,0-2.36.869,4.724,4.724,0,0,0-1.886,4.752,3.338,3.338,0,0,0,.126.482,2.184,2.184,0,0,0,.126.341,1.823,1.823,0,0,0,.129.271" transform="translate(-89.685 -9.533)" fill="#263238"/>
            <path id="Trazado_269303" data-name="Trazado 269303" d="M203.741,31.709a8.515,8.515,0,0,1-.31-1.108,4.678,4.678,0,0,1,.493-3.023,4.609,4.609,0,0,1,3.7-2.415,4.623,4.623,0,0,1,2.612.567,4.582,4.582,0,0,1,2.273,4.94,4.613,4.613,0,0,1-1.269,2.352,4.649,4.649,0,0,1-6.855-.356,8.623,8.623,0,0,1-.64-.957,1.743,1.743,0,0,0,.122.274,2.146,2.146,0,0,0,.177.318,3.3,3.3,0,0,0,.284.409,4.723,4.723,0,0,0,4.836,1.66,4.769,4.769,0,0,0,2.195-1.227,4.769,4.769,0,0,0,1.327-2.437,4.747,4.747,0,0,0-2.363-5.135,4.762,4.762,0,0,0-2.714-.578,4.77,4.77,0,0,0-2.36.869,4.721,4.721,0,0,0-1.886,4.752,3.247,3.247,0,0,0,.126.482,2.126,2.126,0,0,0,.126.341,1.777,1.777,0,0,0,.129.271" transform="translate(-81.503 -10.013)" fill="#263238"/>
            <path id="Trazado_269304" data-name="Trazado 269304" d="M218.963,30.833a3.213,3.213,0,0,1,2.9-.148c.012-.018-.12-.14-.381-.259a2.444,2.444,0,0,0-2.165.111c-.248.146-.367.28-.353.3" transform="translate(-87.796 -12.119)" fill="#263238"/>
            <path id="Trazado_269305" data-name="Trazado 269305" d="M196.16,36.264a16.1,16.1,0,0,0,2.2-1.036,16.048,16.048,0,0,0,2.119-1.2,16.1,16.1,0,0,0-2.2,1.036,16.052,16.052,0,0,0-2.119,1.2" transform="translate(-78.653 -13.642)" fill="#263238"/>
          </g>
        </g>
        <g id="Grupo_875925" data-name="Grupo 875925">
          <g id="Grupo_875924" data-name="Grupo 875924" clip-path="url(#clip-path-2)">
            <path id="Trazado_269306" data-name="Trazado 269306" d="M47.528,241.679a19.517,19.517,0,1,1-10.691-25.412,19.5,19.5,0,0,1,10.691,25.412" transform="translate(-3.989 -86.129)" fill="#ffc631"/>
            <path id="Trazado_269307" data-name="Trazado 269307" d="M46.338,243.024a14.873,14.873,0,1,1-8.147-19.366,14.857,14.857,0,0,1,8.147,19.366" transform="translate(-7.097 -89.232)" fill="#ffc631"/>
            <path id="Trazado_269308" data-name="Trazado 269308" d="M46.235,242.933a1.454,1.454,0,0,1,.065-.233l.219-.672.165-.492c.052-.184.092-.39.145-.61a10.793,10.793,0,0,0,.288-1.535,14.144,14.144,0,0,0-.046-4.262,14.767,14.767,0,0,0-14.014-12.5,15.364,15.364,0,0,0-2.095.053c-.351.037-.7.107-1.055.159a7.4,7.4,0,0,0-1.053.228,16.535,16.535,0,0,0-2.082.678,16.573,16.573,0,0,0-1.98,1.029,14.2,14.2,0,0,0-3.482,2.948,14.516,14.516,0,0,0-3.514,8.585,14.193,14.193,0,0,0,.417,4.545,13.441,13.441,0,0,0,1.7,4.066,13.59,13.59,0,0,0,2.69,3.261,14.829,14.829,0,0,0,6.911,3.525,14.841,14.841,0,0,0,11.848-2.619,14.157,14.157,0,0,0,3.019-3.008,10.781,10.781,0,0,0,.87-1.3c.117-.195.233-.369.324-.537l.228-.467.314-.632a1.473,1.473,0,0,1,.117-.212,1.379,1.379,0,0,1-.087.224l-.287.648-.215.476c-.088.171-.2.349-.313.547a10.5,10.5,0,0,1-.853,1.321,14.011,14.011,0,0,1-3.013,3.075,14.966,14.966,0,0,1-12,2.733,15.058,15.058,0,0,1-7.051-3.565,13.82,13.82,0,0,1-2.752-3.319,13.757,13.757,0,0,1-1.743-4.146,14.506,14.506,0,0,1-.43-4.64,14.8,14.8,0,0,1,3.588-8.767,14.469,14.469,0,0,1,3.559-3.007,16.9,16.9,0,0,1,2.022-1.047,16.915,16.915,0,0,1,2.125-.688,7.611,7.611,0,0,1,1.075-.231c.361-.053.718-.122,1.076-.159a15.471,15.471,0,0,1,2.136-.049,15.055,15.055,0,0,1,7.527,2.4A14.967,14.967,0,0,1,47.243,235.1a14.044,14.044,0,0,1-.006,4.305,10.5,10.5,0,0,1-.318,1.54c-.058.22-.1.426-.16.61l-.18.491-.249.663a1.387,1.387,0,0,1-.095.222" transform="translate(-6.995 -89.142)" fill="#263238"/>
            <g id="Grupo_875902" data-name="Grupo 875902" transform="translate(11.457 133.369)" opacity="0.3">
              <g id="Grupo_875901" data-name="Grupo 875901">
                <g id="Grupo_875900" data-name="Grupo 875900" clip-path="url(#clip-path-13)">
                  <path id="Trazado_269309" data-name="Trazado 269309" d="M46.743,243.162a8.81,8.81,0,0,1,.316-1.8,15.9,15.9,0,0,0,.154-4.862,15.226,15.226,0,0,0-.782-3.24,14.794,14.794,0,0,0-1.753-3.37,14.356,14.356,0,0,0-2.857-3.042,14.124,14.124,0,0,0-1.832-1.233,14.249,14.249,0,0,0-4.246-1.583,14.255,14.255,0,0,0-2.192-.265,14.406,14.406,0,0,0-4.155.43,14.824,14.824,0,0,0-3.533,1.4,15.287,15.287,0,0,0-2.714,1.938,15.889,15.889,0,0,0-3.068,3.776,8.823,8.823,0,0,1-.942,1.569,4.417,4.417,0,0,1,.551-1.773,13.89,13.89,0,0,1,2.914-4.157,14.865,14.865,0,0,1,6.532-3.766,14.192,14.192,0,0,1,2.163-.428,14.346,14.346,0,0,1,2.3-.1,14.893,14.893,0,0,1,2.369.269,14.986,14.986,0,0,1,4.581,1.707,14.866,14.866,0,0,1,1.965,1.346,14.913,14.913,0,0,1,3.025,3.319,14.849,14.849,0,0,1,2.469,7.12,13.869,13.869,0,0,1-.521,5.049,4.419,4.419,0,0,1-.744,1.7" transform="translate(-19.125 -222.64)"/>
                </g>
              </g>
            </g>
            <g id="Grupo_875905" data-name="Grupo 875905" transform="translate(16.809 138.333)" opacity="0.3">
              <g id="Grupo_875904" data-name="Grupo 875904">
                <g id="Grupo_875903" data-name="Grupo 875903" clip-path="url(#clip-path-14)">
                  <path id="Trazado_269310" data-name="Trazado 269310" d="M34.925,249.6l-.946,2.412-2.153-.846.921-2.346a10.967,10.967,0,0,1-4.686-3.826l2.215-2.163A9.345,9.345,0,0,0,33.854,246l1.411-3.6c-2.163-1.519-4.52-3.363-3.311-6.443.9-2.282,3.322-3.591,6.876-2.644l.938-2.39,2.154.845L41,234.118a10.463,10.463,0,0,1,3.856,3.028l-2.116,2.227a9.478,9.478,0,0,0-2.856-2.413l-1.436,3.661c2.17,1.5,4.485,3.325,3.294,6.361-.879,2.24-3.276,3.535-6.817,2.618m1.581-10.363,1.2-3.057c-1.242-.189-1.94.258-2.219.969-.3.753.19,1.416,1.02,2.089m1.668,6.643c.3-.754-.168-1.408-.967-2.095l-1.166,2.972c1.169.186,1.862-.188,2.133-.877" transform="translate(-28.061 -230.926)"/>
                </g>
              </g>
            </g>
            <rect id="Rectángulo_293125" data-name="Rectángulo 293125" width="37.473" height="6.805" transform="translate(53.765 180.167)" fill="#ffc631"/>
            <path id="Trazado_269311" data-name="Trazado 269311" d="M95.779,307.681a36.651,36.651,0,0,1,0-6.751,36.65,36.65,0,0,1,0,6.751" transform="translate(-38.341 -120.662)" fill="#263238"/>
            <path id="Trazado_269312" data-name="Trazado 269312" d="M92.357,307.681a36.65,36.65,0,0,1,0-6.751,36.653,36.653,0,0,1,0,6.751" transform="translate(-36.969 -120.662)" fill="#263238"/>
            <path id="Trazado_269313" data-name="Trazado 269313" d="M103.294,307.681a36.511,36.511,0,0,1,0-6.751,36.653,36.653,0,0,1,0,6.751" transform="translate(-41.355 -120.662)" fill="#263238"/>
            <path id="Trazado_269314" data-name="Trazado 269314" d="M99.873,307.681a36.507,36.507,0,0,1,0-6.751,36.65,36.65,0,0,1,0,6.751" transform="translate(-39.983 -120.662)" fill="#263238"/>
            <path id="Trazado_269315" data-name="Trazado 269315" d="M110.811,307.681a36.509,36.509,0,0,1,0-6.751,36.655,36.655,0,0,1,0,6.751" transform="translate(-44.369 -120.662)" fill="#263238"/>
            <path id="Trazado_269316" data-name="Trazado 269316" d="M107.39,307.681a36.651,36.651,0,0,1,0-6.751,36.651,36.651,0,0,1,0,6.751" transform="translate(-42.997 -120.662)" fill="#263238"/>
            <path id="Trazado_269317" data-name="Trazado 269317" d="M118.328,307.681a36.651,36.651,0,0,1,0-6.751,36.648,36.648,0,0,1,0,6.751" transform="translate(-47.383 -120.662)" fill="#263238"/>
            <path id="Trazado_269318" data-name="Trazado 269318" d="M114.906,307.681a36.648,36.648,0,0,1,0-6.751,36.651,36.651,0,0,1,0,6.751" transform="translate(-46.011 -120.662)" fill="#263238"/>
            <path id="Trazado_269319" data-name="Trazado 269319" d="M125.844,307.681a36.516,36.516,0,0,1,0-6.751,36.791,36.791,0,0,1,0,6.751" transform="translate(-50.396 -120.662)" fill="#263238"/>
            <path id="Trazado_269320" data-name="Trazado 269320" d="M122.423,307.681a36.651,36.651,0,0,1,0-6.751,36.651,36.651,0,0,1,0,6.751" transform="translate(-49.025 -120.662)" fill="#263238"/>
            <path id="Trazado_269321" data-name="Trazado 269321" d="M133.361,307.681a36.648,36.648,0,0,1,0-6.751,36.651,36.651,0,0,1,0,6.751" transform="translate(-53.41 -120.662)" fill="#263238"/>
            <path id="Trazado_269322" data-name="Trazado 269322" d="M129.939,307.681a36.655,36.655,0,0,1,0-6.751,36.655,36.655,0,0,1,0,6.751" transform="translate(-52.038 -120.662)" fill="#263238"/>
            <path id="Trazado_269323" data-name="Trazado 269323" d="M140.877,307.681a36.644,36.644,0,0,1,0-6.751,36.655,36.655,0,0,1,0,6.751" transform="translate(-56.424 -120.662)" fill="#263238"/>
            <path id="Trazado_269324" data-name="Trazado 269324" d="M137.456,307.681a36.651,36.651,0,0,1,0-6.751,36.648,36.648,0,0,1,0,6.751" transform="translate(-55.052 -120.662)" fill="#263238"/>
            <path id="Trazado_269325" data-name="Trazado 269325" d="M148.394,307.681a36.655,36.655,0,0,1,0-6.751,36.641,36.641,0,0,1,0,6.751" transform="translate(-59.438 -120.662)" fill="#263238"/>
            <path id="Trazado_269326" data-name="Trazado 269326" d="M144.972,307.681a36.651,36.651,0,0,1,0-6.751,36.648,36.648,0,0,1,0,6.751" transform="translate(-58.066 -120.662)" fill="#263238"/>
            <path id="Trazado_269327" data-name="Trazado 269327" d="M127.049,300.657c0,.086-8.448.156-18.868.156s-18.869-.069-18.869-.156,8.446-.156,18.869-.156,18.868.069,18.868.156" transform="translate(-35.811 -120.49)" fill="#263238"/>
            <rect id="Rectángulo_293126" data-name="Rectángulo 293126" width="37.473" height="6.805" transform="translate(50.828 186.917)" fill="#ffc631"/>
            <path id="Trazado_269328" data-name="Trazado 269328" d="M90.875,318.95a36.651,36.651,0,0,1,0-6.75,36.649,36.649,0,0,1,0,6.75" transform="translate(-36.375 -125.181)" fill="#263238"/>
            <path id="Trazado_269329" data-name="Trazado 269329" d="M87.454,318.95a36.649,36.649,0,0,1,0-6.75,36.651,36.651,0,0,1,0,6.75" transform="translate(-35.003 -125.181)" fill="#263238"/>
            <path id="Trazado_269330" data-name="Trazado 269330" d="M98.392,318.95a36.647,36.647,0,0,1,0-6.75,36.651,36.651,0,0,1,0,6.75" transform="translate(-39.389 -125.181)" fill="#263238"/>
            <path id="Trazado_269331" data-name="Trazado 269331" d="M94.97,318.95a36.651,36.651,0,0,1,0-6.75,36.653,36.653,0,0,1,0,6.75" transform="translate(-38.017 -125.181)" fill="#263238"/>
            <path id="Trazado_269332" data-name="Trazado 269332" d="M105.908,318.95a36.653,36.653,0,0,1,0-6.75,36.649,36.649,0,0,1,0,6.75" transform="translate(-42.403 -125.181)" fill="#263238"/>
            <path id="Trazado_269333" data-name="Trazado 269333" d="M102.486,318.95a36.651,36.651,0,0,1,0-6.75,36.649,36.649,0,0,1,0,6.75" transform="translate(-41.031 -125.181)" fill="#263238"/>
            <path id="Trazado_269334" data-name="Trazado 269334" d="M113.424,318.95a36.647,36.647,0,0,1,0-6.75,36.651,36.651,0,0,1,0,6.75" transform="translate(-45.416 -125.181)" fill="#263238"/>
            <path id="Trazado_269335" data-name="Trazado 269335" d="M110,318.95a36.651,36.651,0,0,1,0-6.75,36.653,36.653,0,0,1,0,6.75" transform="translate(-44.045 -125.181)" fill="#263238"/>
            <path id="Trazado_269336" data-name="Trazado 269336" d="M120.941,318.95a36.651,36.651,0,0,1,0-6.75,36.651,36.651,0,0,1,0,6.75" transform="translate(-48.43 -125.181)" fill="#263238"/>
            <path id="Trazado_269337" data-name="Trazado 269337" d="M117.519,318.95a36.651,36.651,0,0,1,0-6.75,36.647,36.647,0,0,1,0,6.75" transform="translate(-47.058 -125.181)" fill="#263238"/>
            <path id="Trazado_269338" data-name="Trazado 269338" d="M128.457,318.95a36.647,36.647,0,0,1,0-6.75,36.651,36.651,0,0,1,0,6.75" transform="translate(-51.444 -125.181)" fill="#263238"/>
            <path id="Trazado_269339" data-name="Trazado 269339" d="M125.036,318.95a36.647,36.647,0,0,1,0-6.75,36.791,36.791,0,0,1,0,6.75" transform="translate(-50.072 -125.181)" fill="#263238"/>
            <path id="Trazado_269340" data-name="Trazado 269340" d="M135.974,318.95a36.651,36.651,0,0,1,0-6.75,36.651,36.651,0,0,1,0,6.75" transform="translate(-54.458 -125.181)" fill="#263238"/>
            <path id="Trazado_269341" data-name="Trazado 269341" d="M132.552,318.95a36.651,36.651,0,0,1,0-6.75,36.647,36.647,0,0,1,0,6.75" transform="translate(-53.086 -125.181)" fill="#263238"/>
            <path id="Trazado_269342" data-name="Trazado 269342" d="M143.49,318.95a36.655,36.655,0,0,1,0-6.75,36.647,36.647,0,0,1,0,6.75" transform="translate(-57.472 -125.181)" fill="#263238"/>
            <path id="Trazado_269343" data-name="Trazado 269343" d="M140.068,318.95a36.647,36.647,0,0,1,0-6.75,36.655,36.655,0,0,1,0,6.75" transform="translate(-56.1 -125.181)" fill="#263238"/>
            <path id="Trazado_269344" data-name="Trazado 269344" d="M122.206,311.926c0,.086-8.428.156-18.822.156s-18.825-.069-18.825-.156,8.427-.156,18.825-.156,18.822.069,18.822.156" transform="translate(-33.905 -125.009)" fill="#263238"/>
            <rect id="Rectángulo_293127" data-name="Rectángulo 293127" width="37.473" height="6.805" transform="translate(48.421 193.769)" fill="#ffc631"/>
            <path id="Trazado_269345" data-name="Trazado 269345" d="M86.856,330.388a36.658,36.658,0,0,1,0-6.751,36.658,36.658,0,0,1,0,6.751" transform="translate(-34.764 -129.767)" fill="#263238"/>
            <path id="Trazado_269346" data-name="Trazado 269346" d="M83.434,330.388a36.66,36.66,0,0,1,0-6.751,36.656,36.656,0,0,1,0,6.751" transform="translate(-33.391 -129.767)" fill="#263238"/>
            <path id="Trazado_269347" data-name="Trazado 269347" d="M94.372,330.388a36.519,36.519,0,0,1,0-6.751,36.8,36.8,0,0,1,0,6.751" transform="translate(-37.777 -129.767)" fill="#263238"/>
            <path id="Trazado_269348" data-name="Trazado 269348" d="M90.951,330.388a36.656,36.656,0,0,1,0-6.751,36.658,36.658,0,0,1,0,6.751" transform="translate(-36.406 -129.767)" fill="#263238"/>
            <path id="Trazado_269349" data-name="Trazado 269349" d="M101.889,330.388a36.662,36.662,0,0,1,0-6.751,36.658,36.658,0,0,1,0,6.751" transform="translate(-40.791 -129.767)" fill="#ffc631"/>
            <path id="Trazado_269350" data-name="Trazado 269350" d="M98.467,330.388a36.656,36.656,0,0,1,0-6.751,36.656,36.656,0,0,1,0,6.751" transform="translate(-39.419 -129.767)" fill="#263238"/>
            <path id="Trazado_269351" data-name="Trazado 269351" d="M109.4,330.388a36.656,36.656,0,0,1,0-6.751,36.658,36.658,0,0,1,0,6.751" transform="translate(-43.805 -129.767)" fill="#263238"/>
            <path id="Trazado_269352" data-name="Trazado 269352" d="M105.984,330.388a36.66,36.66,0,0,1,0-6.751,36.656,36.656,0,0,1,0,6.751" transform="translate(-42.433 -129.767)" fill="#263238"/>
            <path id="Trazado_269353" data-name="Trazado 269353" d="M116.922,330.388a36.654,36.654,0,0,1,0-6.751,36.658,36.658,0,0,1,0,6.751" transform="translate(-46.819 -129.767)" fill="#263238"/>
            <path id="Trazado_269354" data-name="Trazado 269354" d="M113.5,330.388a36.654,36.654,0,0,1,0-6.751,36.658,36.658,0,0,1,0,6.751" transform="translate(-45.447 -129.767)" fill="#263238"/>
            <path id="Trazado_269355" data-name="Trazado 269355" d="M124.438,330.388a36.658,36.658,0,0,1,0-6.751,36.654,36.654,0,0,1,0,6.751" transform="translate(-49.833 -129.767)" fill="#263238"/>
            <path id="Trazado_269356" data-name="Trazado 269356" d="M121.016,330.388a36.654,36.654,0,0,1,0-6.751,36.658,36.658,0,0,1,0,6.751" transform="translate(-48.46 -129.767)" fill="#263238"/>
            <path id="Trazado_269357" data-name="Trazado 269357" d="M131.954,330.388a36.515,36.515,0,0,1,0-6.751,36.8,36.8,0,0,1,0,6.751" transform="translate(-52.846 -129.767)" fill="#263238"/>
            <path id="Trazado_269358" data-name="Trazado 269358" d="M128.533,330.388a36.658,36.658,0,0,1,0-6.751,36.658,36.658,0,0,1,0,6.751" transform="translate(-51.475 -129.767)" fill="#263238"/>
            <path id="Trazado_269359" data-name="Trazado 269359" d="M139.471,330.388a36.658,36.658,0,0,1,0-6.751,36.654,36.654,0,0,1,0,6.751" transform="translate(-55.86 -129.767)" fill="#263238"/>
            <path id="Trazado_269360" data-name="Trazado 269360" d="M136.049,330.388a36.665,36.665,0,0,1,0-6.751,36.658,36.658,0,0,1,0,6.751" transform="translate(-54.488 -129.767)" fill="#263238"/>
            <path id="Trazado_269361" data-name="Trazado 269361" d="M118.187,323.364c0,.086-8.428.156-18.822.156s-18.825-.069-18.825-.156,8.427-.156,18.825-.156,18.822.069,18.822.156" transform="translate(-32.294 -129.595)" fill="#263238"/>
            <g id="Grupo_875908" data-name="Grupo 875908" transform="translate(55.918 186.986)" opacity="0.3">
              <g id="Grupo_875907" data-name="Grupo 875907">
                <g id="Grupo_875906" data-name="Grupo 875906" clip-path="url(#clip-path-15)">
                  <path id="Trazado_269362" data-name="Trazado 269362" d="M93.346,312.144a57.251,57.251,0,0,0,17.31,1.259c5.751-.382,11.557-1.228,17.32-1.158Z" transform="translate(-93.346 -312.144)"/>
                </g>
              </g>
            </g>
            <g id="Grupo_875911" data-name="Grupo 875911" transform="translate(48.879 193.856)" opacity="0.3">
              <g id="Grupo_875910" data-name="Grupo 875910">
                <g id="Grupo_875909" data-name="Grupo 875909" clip-path="url(#clip-path-15)">
                  <path id="Trazado_269363" data-name="Trazado 269363" d="M81.6,323.613a57.247,57.247,0,0,0,17.31,1.259c5.751-.382,11.557-1.228,17.32-1.158Z" transform="translate(-81.596 -323.613)"/>
                </g>
              </g>
            </g>
            <path id="Trazado_269364" data-name="Trazado 269364" d="M91.292,301.333c0,.086-.211.156-.471.156s-.471-.069-.471-.156.211-.156.471-.156.471.069.471.156" transform="translate(-36.227 -120.761)" fill="#fff"/>
            <path id="Trazado_269365" data-name="Trazado 269365" d="M97.729,301.365a7.548,7.548,0,0,1-2.151.156,7.546,7.546,0,0,1-2.15-.156,7.545,7.545,0,0,1,2.15-.156,7.548,7.548,0,0,1,2.151.156" transform="translate(-37.462 -120.774)" fill="#fff"/>
            <path id="Trazado_269366" data-name="Trazado 269366" d="M107.654,301.365a7.548,7.548,0,0,1-2.151.156,7.542,7.542,0,0,1-2.15-.156,7.542,7.542,0,0,1,2.15-.156,7.548,7.548,0,0,1,2.151.156" transform="translate(-41.441 -120.774)" fill="#fff"/>
            <rect id="Rectángulo_293130" data-name="Rectángulo 293130" width="37.473" height="6.805" transform="translate(6.121 166.324)" fill="#ffc631"/>
            <path id="Trazado_269367" data-name="Trazado 269367" d="M16.244,284.574a36.651,36.651,0,0,1,0-6.751A18.394,18.394,0,0,1,16.4,281.2a18.4,18.4,0,0,1-.156,3.375" transform="translate(-6.451 -111.397)" fill="#263238"/>
            <path id="Trazado_269368" data-name="Trazado 269368" d="M12.822,284.574a36.651,36.651,0,0,1,0-6.751,18.4,18.4,0,0,1,.156,3.376,18.4,18.4,0,0,1-.156,3.375" transform="translate(-5.079 -111.397)" fill="#263238"/>
            <path id="Trazado_269369" data-name="Trazado 269369" d="M23.76,284.574a36.651,36.651,0,0,1,0-6.751,36.651,36.651,0,0,1,0,6.751" transform="translate(-9.464 -111.397)" fill="#263238"/>
            <path id="Trazado_269370" data-name="Trazado 269370" d="M20.339,284.574a36.651,36.651,0,0,1,0-6.751,36.651,36.651,0,0,1,0,6.751" transform="translate(-8.093 -111.397)" fill="#263238"/>
            <path id="Trazado_269371" data-name="Trazado 269371" d="M31.277,284.574a36.651,36.651,0,0,1,0-6.751,36.651,36.651,0,0,1,0,6.751" transform="translate(-12.478 -111.397)" fill="#263238"/>
            <path id="Trazado_269372" data-name="Trazado 269372" d="M27.855,284.574a36.652,36.652,0,0,1,0-6.751,36.651,36.651,0,0,1,0,6.751" transform="translate(-11.106 -111.397)" fill="#263238"/>
            <path id="Trazado_269373" data-name="Trazado 269373" d="M38.793,284.574a36.652,36.652,0,0,1,0-6.751,36.651,36.651,0,0,1,0,6.751" transform="translate(-15.492 -111.397)" fill="#263238"/>
            <path id="Trazado_269374" data-name="Trazado 269374" d="M35.371,284.574a36.651,36.651,0,0,1,0-6.751,36.651,36.651,0,0,1,0,6.751" transform="translate(-14.12 -111.397)" fill="#263238"/>
            <path id="Trazado_269375" data-name="Trazado 269375" d="M46.309,284.574a36.653,36.653,0,0,1,0-6.751,36.649,36.649,0,0,1,0,6.751" transform="translate(-18.506 -111.397)" fill="#263238"/>
            <path id="Trazado_269376" data-name="Trazado 269376" d="M42.888,284.574a36.65,36.65,0,0,1,0-6.751,36.652,36.652,0,0,1,0,6.751" transform="translate(-17.134 -111.397)" fill="#263238"/>
            <path id="Trazado_269377" data-name="Trazado 269377" d="M53.826,284.574a36.651,36.651,0,0,1,0-6.751,36.652,36.652,0,0,1,0,6.751" transform="translate(-21.52 -111.397)" fill="#263238"/>
            <path id="Trazado_269378" data-name="Trazado 269378" d="M50.4,284.574a36.652,36.652,0,0,1,0-6.751,36.65,36.65,0,0,1,0,6.751" transform="translate(-20.148 -111.397)" fill="#263238"/>
            <path id="Trazado_269379" data-name="Trazado 269379" d="M61.342,284.574a36.652,36.652,0,0,1,0-6.751,36.652,36.652,0,0,1,0,6.751" transform="translate(-24.533 -111.397)" fill="#263238"/>
            <path id="Trazado_269380" data-name="Trazado 269380" d="M57.921,284.574a36.65,36.65,0,0,1,0-6.751,36.653,36.653,0,0,1,0,6.751" transform="translate(-23.162 -111.397)" fill="#263238"/>
            <path id="Trazado_269381" data-name="Trazado 269381" d="M68.859,284.574a36.648,36.648,0,0,1,0-6.751,36.652,36.652,0,0,1,0,6.751" transform="translate(-27.547 -111.397)" fill="#263238"/>
            <path id="Trazado_269382" data-name="Trazado 269382" d="M65.437,284.574a36.65,36.65,0,0,1,0-6.751,36.65,36.65,0,0,1,0,6.751" transform="translate(-26.175 -111.397)" fill="#263238"/>
            <path id="Trazado_269383" data-name="Trazado 269383" d="M47.574,277.549c0,.086-8.428.156-18.823.156s-18.824-.069-18.824-.156,8.427-.156,18.824-.156,18.823.069,18.823.156" transform="translate(-3.98 -111.225)" fill="#263238"/>
            <rect id="Rectángulo_293131" data-name="Rectángulo 293131" width="37.473" height="6.805" transform="translate(3.668 173.236)" fill="#ffc631"/>
            <path id="Trazado_269384" data-name="Trazado 269384" d="M12.149,296.112a36.651,36.651,0,0,1,0-6.751,18.391,18.391,0,0,1,.156,3.375,18.4,18.4,0,0,1-.156,3.376" transform="translate(-4.809 -116.023)" fill="#263238"/>
            <path id="Trazado_269385" data-name="Trazado 269385" d="M8.727,296.112a36.652,36.652,0,0,1,0-6.751,18.391,18.391,0,0,1,.156,3.375,18.4,18.4,0,0,1-.156,3.376" transform="translate(-3.437 -116.023)" fill="#263238"/>
            <path id="Trazado_269386" data-name="Trazado 269386" d="M19.665,296.112a36.652,36.652,0,0,1,0-6.751,36.652,36.652,0,0,1,0,6.751" transform="translate(-7.822 -116.023)" fill="#263238"/>
            <path id="Trazado_269387" data-name="Trazado 269387" d="M16.244,296.112a36.652,36.652,0,0,1,0-6.751,18.391,18.391,0,0,1,.156,3.375,18.4,18.4,0,0,1-.156,3.376" transform="translate(-6.451 -116.023)" fill="#263238"/>
            <path id="Trazado_269388" data-name="Trazado 269388" d="M27.182,296.112a36.652,36.652,0,0,1,0-6.751,36.651,36.651,0,0,1,0,6.751" transform="translate(-10.836 -116.023)" fill="#263238"/>
            <path id="Trazado_269389" data-name="Trazado 269389" d="M23.76,296.112a36.652,36.652,0,0,1,0-6.751,36.651,36.651,0,0,1,0,6.751" transform="translate(-9.464 -116.023)" fill="#263238"/>
            <path id="Trazado_269390" data-name="Trazado 269390" d="M34.7,296.112a36.652,36.652,0,0,1,0-6.751,36.65,36.65,0,0,1,0,6.751" transform="translate(-13.85 -116.023)" fill="#263238"/>
            <path id="Trazado_269391" data-name="Trazado 269391" d="M31.277,296.112a36.651,36.651,0,0,1,0-6.751,36.651,36.651,0,0,1,0,6.751" transform="translate(-12.478 -116.023)" fill="#263238"/>
            <path id="Trazado_269392" data-name="Trazado 269392" d="M42.215,296.112a36.65,36.65,0,0,1,0-6.751,36.652,36.652,0,0,1,0,6.751" transform="translate(-16.864 -116.023)" fill="#263238"/>
            <path id="Trazado_269393" data-name="Trazado 269393" d="M38.793,296.112a36.652,36.652,0,0,1,0-6.751,36.651,36.651,0,0,1,0,6.751" transform="translate(-15.492 -116.023)" fill="#263238"/>
            <path id="Trazado_269394" data-name="Trazado 269394" d="M49.731,296.112a36.651,36.651,0,0,1,0-6.751,36.652,36.652,0,0,1,0,6.751" transform="translate(-19.878 -116.023)" fill="#263238"/>
            <path id="Trazado_269395" data-name="Trazado 269395" d="M46.309,296.112a36.653,36.653,0,0,1,0-6.751,36.649,36.649,0,0,1,0,6.751" transform="translate(-18.506 -116.023)" fill="#263238"/>
            <path id="Trazado_269396" data-name="Trazado 269396" d="M57.247,296.112a36.65,36.65,0,0,1,0-6.751,36.654,36.654,0,0,1,0,6.751" transform="translate(-22.891 -116.023)" fill="#263238"/>
            <path id="Trazado_269397" data-name="Trazado 269397" d="M53.826,296.112a36.651,36.651,0,0,1,0-6.751,36.652,36.652,0,0,1,0,6.751" transform="translate(-21.52 -116.023)" fill="#263238"/>
            <path id="Trazado_269398" data-name="Trazado 269398" d="M64.764,296.112a36.652,36.652,0,0,1,0-6.751,36.65,36.65,0,0,1,0,6.751" transform="translate(-25.905 -116.023)" fill="#263238"/>
            <path id="Trazado_269399" data-name="Trazado 269399" d="M61.342,296.112a36.652,36.652,0,0,1,0-6.751,36.652,36.652,0,0,1,0,6.751" transform="translate(-24.533 -116.023)" fill="#263238"/>
            <path id="Trazado_269400" data-name="Trazado 269400" d="M43.479,289.088c0,.086-8.428.156-18.822.156s-18.825-.069-18.825-.156,8.427-.156,18.825-.156,18.822.069,18.822.156" transform="translate(-2.338 -115.851)" fill="#263238"/>
            <rect id="Rectángulo_293132" data-name="Rectángulo 293132" width="37.473" height="6.805" transform="translate(6.73 180.088)" fill="#ffc631"/>
            <path id="Trazado_269401" data-name="Trazado 269401" d="M17.261,307.551a36.651,36.651,0,0,1,0-6.751,18.391,18.391,0,0,1,.156,3.375,18.4,18.4,0,0,1-.156,3.376" transform="translate(-6.858 -120.61)" fill="#263238"/>
            <path id="Trazado_269402" data-name="Trazado 269402" d="M13.839,307.551a36.651,36.651,0,0,1,0-6.751,18.391,18.391,0,0,1,.156,3.375,18.4,18.4,0,0,1-.156,3.376" transform="translate(-5.486 -120.61)" fill="#263238"/>
            <path id="Trazado_269403" data-name="Trazado 269403" d="M24.777,307.551a36.65,36.65,0,0,1,0-6.751,36.65,36.65,0,0,1,0,6.751" transform="translate(-9.872 -120.61)" fill="#263238"/>
            <path id="Trazado_269404" data-name="Trazado 269404" d="M21.356,307.551a36.651,36.651,0,0,1,0-6.751,36.65,36.65,0,0,1,0,6.751" transform="translate(-8.5 -120.61)" fill="#263238"/>
            <path id="Trazado_269405" data-name="Trazado 269405" d="M32.294,307.551a36.652,36.652,0,0,1,0-6.751,36.649,36.649,0,0,1,0,6.751" transform="translate(-12.886 -120.61)" fill="#263238"/>
            <path id="Trazado_269406" data-name="Trazado 269406" d="M28.872,307.551a36.65,36.65,0,0,1,0-6.751,36.651,36.651,0,0,1,0,6.751" transform="translate(-11.514 -120.61)" fill="#263238"/>
            <path id="Trazado_269407" data-name="Trazado 269407" d="M39.81,307.551a36.65,36.65,0,0,1,0-6.751,36.651,36.651,0,0,1,0,6.751" transform="translate(-15.9 -120.61)" fill="#263238"/>
            <path id="Trazado_269408" data-name="Trazado 269408" d="M36.389,307.551a36.65,36.65,0,0,1,0-6.751,36.652,36.652,0,0,1,0,6.751" transform="translate(-14.528 -120.61)" fill="#263238"/>
            <path id="Trazado_269409" data-name="Trazado 269409" d="M47.327,307.551a36.651,36.651,0,0,1,0-6.751,36.65,36.65,0,0,1,0,6.751" transform="translate(-18.914 -120.61)" fill="#263238"/>
            <path id="Trazado_269410" data-name="Trazado 269410" d="M43.9,307.551a36.65,36.65,0,0,1,0-6.751,36.651,36.651,0,0,1,0,6.751" transform="translate(-17.542 -120.61)" fill="#263238"/>
            <path id="Trazado_269411" data-name="Trazado 269411" d="M54.843,307.551a36.651,36.651,0,0,1,0-6.751,36.65,36.65,0,0,1,0,6.751" transform="translate(-21.928 -120.61)" fill="#263238"/>
            <path id="Trazado_269412" data-name="Trazado 269412" d="M51.421,307.551a36.65,36.65,0,0,1,0-6.751,36.651,36.651,0,0,1,0,6.751" transform="translate(-20.555 -120.61)" fill="#263238"/>
            <path id="Trazado_269413" data-name="Trazado 269413" d="M62.359,307.551a36.65,36.65,0,0,1,0-6.751,36.65,36.65,0,0,1,0,6.751" transform="translate(-24.941 -120.61)" fill="#263238"/>
            <path id="Trazado_269414" data-name="Trazado 269414" d="M58.938,307.551a36.651,36.651,0,0,1,0-6.751,36.65,36.65,0,0,1,0,6.751" transform="translate(-23.569 -120.61)" fill="#263238"/>
            <path id="Trazado_269415" data-name="Trazado 269415" d="M69.876,307.551a36.65,36.65,0,0,1,0-6.751,36.651,36.651,0,0,1,0,6.751" transform="translate(-27.955 -120.61)" fill="#263238"/>
            <path id="Trazado_269416" data-name="Trazado 269416" d="M66.454,307.551a36.655,36.655,0,0,1,0-6.751,36.648,36.648,0,0,1,0,6.751" transform="translate(-26.583 -120.61)" fill="#263238"/>
            <path id="Trazado_269417" data-name="Trazado 269417" d="M48.531,300.526c0,.086-8.448.156-18.868.156s-18.869-.069-18.869-.156,8.446-.156,18.869-.156,18.868.069,18.868.156" transform="translate(-4.328 -120.438)" fill="#263238"/>
            <rect id="Rectángulo_293133" data-name="Rectángulo 293133" width="37.473" height="6.805" transform="translate(3.793 186.839)" fill="#ffc631"/>
            <path id="Trazado_269418" data-name="Trazado 269418" d="M12.357,318.82a36.651,36.651,0,0,1,0-6.751,18.4,18.4,0,0,1,.156,3.376,18.4,18.4,0,0,1-.156,3.375" transform="translate(-4.892 -125.128)" fill="#263238"/>
            <path id="Trazado_269419" data-name="Trazado 269419" d="M8.936,318.82a36.651,36.651,0,0,1,0-6.751,18.4,18.4,0,0,1,.156,3.376,18.4,18.4,0,0,1-.156,3.375" transform="translate(-3.52 -125.128)" fill="#263238"/>
            <path id="Trazado_269420" data-name="Trazado 269420" d="M19.874,318.82a36.651,36.651,0,0,1,0-6.751,36.651,36.651,0,0,1,0,6.751" transform="translate(-7.906 -125.128)" fill="#263238"/>
            <path id="Trazado_269421" data-name="Trazado 269421" d="M16.452,318.82a36.652,36.652,0,0,1,0-6.751,18.4,18.4,0,0,1,.156,3.376,18.4,18.4,0,0,1-.156,3.375" transform="translate(-6.534 -125.128)" fill="#263238"/>
            <path id="Trazado_269422" data-name="Trazado 269422" d="M27.39,318.82a36.651,36.651,0,0,1,0-6.751,36.652,36.652,0,0,1,0,6.751" transform="translate(-10.92 -125.128)" fill="#263238"/>
            <path id="Trazado_269423" data-name="Trazado 269423" d="M23.969,318.82a36.651,36.651,0,0,1,0-6.751,36.792,36.792,0,0,1,0,6.751" transform="translate(-9.548 -125.128)" fill="#263238"/>
            <path id="Trazado_269424" data-name="Trazado 269424" d="M34.906,318.82a36.512,36.512,0,0,1,0-6.751,36.65,36.65,0,0,1,0,6.751" transform="translate(-13.933 -125.128)" fill="#263238"/>
            <path id="Trazado_269425" data-name="Trazado 269425" d="M31.485,318.82a36.651,36.651,0,0,1,0-6.751,36.651,36.651,0,0,1,0,6.751" transform="translate(-12.562 -125.128)" fill="#263238"/>
            <path id="Trazado_269426" data-name="Trazado 269426" d="M42.423,318.82a36.65,36.65,0,0,1,0-6.751,36.652,36.652,0,0,1,0,6.751" transform="translate(-16.948 -125.128)" fill="#263238"/>
            <path id="Trazado_269427" data-name="Trazado 269427" d="M39,318.82a36.652,36.652,0,0,1,0-6.751,36.65,36.65,0,0,1,0,6.751" transform="translate(-15.575 -125.128)" fill="#263238"/>
            <path id="Trazado_269428" data-name="Trazado 269428" d="M49.939,318.82a36.652,36.652,0,0,1,0-6.751,36.652,36.652,0,0,1,0,6.751" transform="translate(-19.961 -125.128)" fill="#263238"/>
            <path id="Trazado_269429" data-name="Trazado 269429" d="M46.518,318.82a36.65,36.65,0,0,1,0-6.751,36.652,36.652,0,0,1,0,6.751" transform="translate(-18.589 -125.128)" fill="#263238"/>
            <path id="Trazado_269430" data-name="Trazado 269430" d="M57.456,318.82a36.652,36.652,0,0,1,0-6.751,36.652,36.652,0,0,1,0,6.751" transform="translate(-22.975 -125.128)" fill="#263238"/>
            <path id="Trazado_269431" data-name="Trazado 269431" d="M54.034,318.82a36.651,36.651,0,0,1,0-6.751,36.652,36.652,0,0,1,0,6.751" transform="translate(-21.603 -125.128)" fill="#263238"/>
            <path id="Trazado_269432" data-name="Trazado 269432" d="M64.972,318.82a36.652,36.652,0,0,1,0-6.751,36.65,36.65,0,0,1,0,6.751" transform="translate(-25.989 -125.128)" fill="#263238"/>
            <path id="Trazado_269433" data-name="Trazado 269433" d="M61.55,318.82a36.65,36.65,0,0,1,0-6.751,36.652,36.652,0,0,1,0,6.751" transform="translate(-24.617 -125.128)" fill="#263238"/>
            <path id="Trazado_269434" data-name="Trazado 269434" d="M43.688,311.8c0,.086-8.428.156-18.822.156s-18.825-.069-18.825-.156,8.427-.156,18.825-.156,18.822.069,18.822.156" transform="translate(-2.422 -124.956)" fill="#263238"/>
            <rect id="Rectángulo_293134" data-name="Rectángulo 293134" width="37.473" height="6.805" transform="translate(7.548 193.742)" fill="#ffc631"/>
            <path id="Trazado_269435" data-name="Trazado 269435" d="M18.626,330.343a36.651,36.651,0,0,1,0-6.75,36.65,36.65,0,0,1,0,6.75" transform="translate(-7.406 -129.749)" fill="#263238"/>
            <path id="Trazado_269436" data-name="Trazado 269436" d="M15.2,330.343a36.65,36.65,0,0,1,0-6.75,18.4,18.4,0,0,1,.156,3.376,18.4,18.4,0,0,1-.156,3.375" transform="translate(-6.034 -129.749)" fill="#263238"/>
            <path id="Trazado_269437" data-name="Trazado 269437" d="M26.143,330.343a36.65,36.65,0,0,1,0-6.75,36.65,36.65,0,0,1,0,6.75" transform="translate(-10.42 -129.749)" fill="#263238"/>
            <path id="Trazado_269438" data-name="Trazado 269438" d="M22.721,330.343a36.651,36.651,0,0,1,0-6.75,36.651,36.651,0,0,1,0,6.75" transform="translate(-9.048 -129.749)" fill="#263238"/>
            <path id="Trazado_269439" data-name="Trazado 269439" d="M33.659,330.343a36.651,36.651,0,0,1,0-6.75,36.65,36.65,0,0,1,0,6.75" transform="translate(-13.433 -129.749)" fill="#263238"/>
            <path id="Trazado_269440" data-name="Trazado 269440" d="M30.237,330.343a36.511,36.511,0,0,1,0-6.75,36.65,36.65,0,0,1,0,6.75" transform="translate(-12.061 -129.749)" fill="#263238"/>
            <path id="Trazado_269441" data-name="Trazado 269441" d="M41.176,330.343a36.649,36.649,0,0,1,0-6.75,36.651,36.651,0,0,1,0,6.75" transform="translate(-16.448 -129.749)" fill="#263238"/>
            <path id="Trazado_269442" data-name="Trazado 269442" d="M37.754,330.343a36.651,36.651,0,0,1,0-6.75,36.649,36.649,0,0,1,0,6.75" transform="translate(-15.075 -129.749)" fill="#263238"/>
            <path id="Trazado_269443" data-name="Trazado 269443" d="M48.692,330.343a36.651,36.651,0,0,1,0-6.75,36.651,36.651,0,0,1,0,6.75" transform="translate(-19.461 -129.749)" fill="#263238"/>
            <path id="Trazado_269444" data-name="Trazado 269444" d="M45.27,330.343a36.51,36.51,0,0,1,0-6.75,36.791,36.791,0,0,1,0,6.75" transform="translate(-18.089 -129.749)" fill="#263238"/>
            <path id="Trazado_269445" data-name="Trazado 269445" d="M56.208,330.343a36.51,36.51,0,0,1,0-6.75,36.793,36.793,0,0,1,0,6.75" transform="translate(-22.475 -129.749)" fill="#263238"/>
            <path id="Trazado_269446" data-name="Trazado 269446" d="M52.787,330.343a36.65,36.65,0,0,1,0-6.75,36.651,36.651,0,0,1,0,6.75" transform="translate(-21.103 -129.749)" fill="#263238"/>
            <path id="Trazado_269447" data-name="Trazado 269447" d="M63.725,330.343a36.649,36.649,0,0,1,0-6.75,36.651,36.651,0,0,1,0,6.75" transform="translate(-25.489 -129.749)" fill="#263238"/>
            <path id="Trazado_269448" data-name="Trazado 269448" d="M60.3,330.343a36.51,36.51,0,0,1,0-6.75,36.651,36.651,0,0,1,0,6.75" transform="translate(-24.116 -129.749)" fill="#263238"/>
            <path id="Trazado_269449" data-name="Trazado 269449" d="M71.24,330.343a36.51,36.51,0,0,1,0-6.75,36.651,36.651,0,0,1,0,6.75" transform="translate(-28.502 -129.749)" fill="#263238"/>
            <path id="Trazado_269450" data-name="Trazado 269450" d="M67.82,330.343a36.647,36.647,0,0,1,0-6.75,36.655,36.655,0,0,1,0,6.75" transform="translate(-27.131 -129.749)" fill="#263238"/>
            <path id="Trazado_269451" data-name="Trazado 269451" d="M49.957,323.318c0,.086-8.428.156-18.822.156s-18.825-.069-18.825-.156,8.427-.156,18.825-.156,18.822.069,18.822.156" transform="translate(-4.936 -129.576)" fill="#263238"/>
            <g id="Grupo_875914" data-name="Grupo 875914" transform="translate(6.73 180.089)" opacity="0.3">
              <g id="Grupo_875913" data-name="Grupo 875913">
                <g id="Grupo_875912" data-name="Grupo 875912" clip-path="url(#clip-path-17)">
                  <path id="Trazado_269452" data-name="Trazado 269452" d="M11.235,300.631a57.248,57.248,0,0,0,17.31,1.259c5.751-.382,11.557-1.228,17.32-1.158Z" transform="translate(-11.235 -300.631)"/>
                </g>
              </g>
            </g>
            <g id="Grupo_875917" data-name="Grupo 875917" transform="translate(7.068 173.315)" opacity="0.3">
              <g id="Grupo_875916" data-name="Grupo 875916">
                <g id="Grupo_875915" data-name="Grupo 875915" clip-path="url(#clip-path-17)">
                  <path id="Trazado_269453" data-name="Trazado 269453" d="M11.8,289.322a57.23,57.23,0,0,0,17.31,1.259c5.751-.382,11.557-1.228,17.32-1.157Z" transform="translate(-11.799 -289.323)"/>
                </g>
              </g>
            </g>
            <g id="Grupo_875920" data-name="Grupo 875920" transform="translate(8.883 186.908)" opacity="0.3">
              <g id="Grupo_875919" data-name="Grupo 875919">
                <g id="Grupo_875918" data-name="Grupo 875918" clip-path="url(#clip-path-15)">
                  <path id="Trazado_269454" data-name="Trazado 269454" d="M14.828,312.014a57.249,57.249,0,0,0,17.31,1.259c5.751-.382,11.557-1.228,17.32-1.158Z" transform="translate(-14.828 -312.014)"/>
                </g>
              </g>
            </g>
            <g id="Grupo_875923" data-name="Grupo 875923" transform="translate(7.413 193.701)" opacity="0.3">
              <g id="Grupo_875922" data-name="Grupo 875922">
                <g id="Grupo_875921" data-name="Grupo 875921" clip-path="url(#clip-path-15)">
                  <path id="Trazado_269455" data-name="Trazado 269455" d="M12.375,323.354a57.253,57.253,0,0,0,17.31,1.259c5.751-.382,11.557-1.228,17.32-1.158Z" transform="translate(-12.375 -323.354)"/>
                </g>
              </g>
            </g>
            <path id="Trazado_269456" data-name="Trazado 269456" d="M11.261,282.929a11.224,11.224,0,0,1,0-3.727,11.224,11.224,0,0,1,0,3.727" transform="translate(-4.453 -111.95)" fill="#fff"/>
            <path id="Trazado_269457" data-name="Trazado 269457" d="M7.316,294.884a12.914,12.914,0,0,1,0-4,12.914,12.914,0,0,1,0,4" transform="translate(-2.871 -116.634)" fill="#fff"/>
            <path id="Trazado_269458" data-name="Trazado 269458" d="M12.93,306.871a10.161,10.161,0,0,1,0-3.544,10.161,10.161,0,0,1,0,3.544" transform="translate(-5.122 -121.623)" fill="#fff"/>
            <path id="Trazado_269459" data-name="Trazado 269459" d="M7.165,317.887a8.2,8.2,0,0,1,0-3.181,8.2,8.2,0,0,1,0,3.181" transform="translate(-2.81 -126.186)" fill="#fff"/>
            <path id="Trazado_269460" data-name="Trazado 269460" d="M21.9,290.023a61.367,61.367,0,0,1-6.18.156,61.372,61.372,0,0,1-6.181-.156,61.332,61.332,0,0,1,6.181-.156,61.327,61.327,0,0,1,6.18.156" transform="translate(-3.827 -116.226)" fill="#fff"/>
            <path id="Trazado_269461" data-name="Trazado 269461" d="M28.52,279.1a62.26,62.26,0,0,1-6.225.156,62.275,62.275,0,0,1-6.226-.156,62.253,62.253,0,0,1,6.226-.156,62.238,62.238,0,0,1,6.225.156" transform="translate(-6.443 -111.846)" fill="#fff"/>
            <path id="Trazado_269462" data-name="Trazado 269462" d="M44.131,279.25a6.837,6.837,0,0,1-2.045.156,6.839,6.839,0,0,1-2.045-.156,6.836,6.836,0,0,1,2.045-.156,6.834,6.834,0,0,1,2.045.156" transform="translate(-16.055 -111.907)" fill="#fff"/>
          </g>
        </g>
      </g>
    </g>
  </g>
</svg>
